<?xml version="1.0" encoding="UTF-8" standalone="no"?>
<!DOCTYPE svg PUBLIC "-//W3C//DTD SVG 1.1//EN"
 "http://www.w3.org/Graphics/SVG/1.1/DTD/svg11.dtd">
<!-- Generated by graphviz version 2.42.3 (20191010.1750)
 -->
<!-- Title: G Pages: 1 -->
<svg width="898pt" height="378pt"
 viewBox="0.00 0.00 897.57 378.00" xmlns="http://www.w3.org/2000/svg" xmlns:xlink="http://www.w3.org/1999/xlink">
<g id="graph0" class="graph" transform="scale(1 1) rotate(0) translate(4 374)">
<title>G</title>
<polygon fill="white" stroke="transparent" points="-4,4 -4,-374 893.57,-374 893.57,4 -4,4"/>
<g id="clust1" class="cluster">
<title>cluster_0</title>
<polygon fill="none" stroke="black" points="394,-8 394,-145 680,-145 680,-8 394,-8"/>
<text text-anchor="middle" x="537" y="-137" font-family="Helvetica,sans-Serif" font-size="5.00">Utils</text>
</g>
<g id="clust2" class="cluster">
<title>cluster_1</title>
<polygon fill="none" stroke="black" points="8,-80 8,-289 386,-289 386,-80 8,-80"/>
<text text-anchor="middle" x="197" y="-281" font-family="Helvetica,sans-Serif" font-size="5.00">Web App</text>
</g>
<g id="clust3" class="cluster">
<title>cluster_2</title>
<polygon fill="none" stroke="black" points="688,-80 688,-217 844,-217 844,-80 688,-80"/>
<text text-anchor="middle" x="766" y="-209" font-family="Helvetica,sans-Serif" font-size="5.00">Napoleon</text>
</g>
<g id="clust4" class="cluster">
<title>cluster_3</title>
<polygon fill="none" stroke="black" points="107,-297 107,-362 177,-362 177,-297 107,-297"/>
<text text-anchor="middle" x="142" y="-354" font-family="Helvetica,sans-Serif" font-size="5.00">User Dashbaord</text>
</g>
<g id="clust5" class="cluster">
<title>cluster_4</title>
<polygon fill="none" stroke="black" points="192,-297 192,-362 262,-362 262,-297 192,-297"/>
<text text-anchor="middle" x="227" y="-354" font-family="Helvetica,sans-Serif" font-size="5.00">Developer Dashbaord</text>
</g>
<!-- search -->
<g id="node1" class="node">
<title>search</title>
<ellipse fill="none" stroke="black" cx="573" cy="-106" rx="27" ry="18"/>
<text text-anchor="middle" x="573" y="-104.5" font-family="Helvetica,sans-Serif" font-size="5.00">search</text>
</g>
<!-- s3 -->
<g id="node2" class="node">
<title>s3</title>
<ellipse fill="none" stroke="black" cx="645" cy="-34" rx="27" ry="18"/>
<text text-anchor="middle" x="645" y="-32.5" font-family="Helvetica,sans-Serif" font-size="5.00">s3</text>
</g>
<!-- thumbor -->
<g id="node3" class="node">
<title>thumbor</title>
<ellipse fill="none" stroke="black" cx="645" cy="-106" rx="27" ry="18"/>
<text text-anchor="middle" x="645" y="-104.5" font-family="Helvetica,sans-Serif" font-size="5.00">thumbor</text>
</g>
<!-- thumbor&#45;&gt;s3 -->
<g id="edge1" class="edge">
<title>thumbor&#45;&gt;s3</title>
<path fill="none" stroke="black" d="M645,-87.7C645,-79.98 645,-70.71 645,-62.11"/>
<polygon fill="black" stroke="black" points="648.5,-62.1 645,-52.1 641.5,-62.1 648.5,-62.1"/>
</g>
<!-- mail -->
<g id="node4" class="node">
<title>mail</title>
<ellipse fill="none" stroke="black" cx="429" cy="-106" rx="27" ry="18"/>
<text text-anchor="middle" x="429" y="-104.5" font-family="Helvetica,sans-Serif" font-size="5.00">mail</text>
</g>
<!-- assets_proxy -->
<g id="node5" class="node">
<title>assets_proxy</title>
<ellipse fill="none" stroke="black" cx="501" cy="-106" rx="27" ry="18"/>
<text text-anchor="middle" x="501" y="-104.5" font-family="Helvetica,sans-Serif" font-size="5.00">assets&#45;proxy</text>
</g>
<!-- app -->
<g id="node6" class="node">
<title>app</title>
<ellipse fill="none" stroke="black" cx="351" cy="-250" rx="27" ry="18"/>
<text text-anchor="middle" x="351" y="-248.5" font-family="Helvetica,sans-Serif" font-size="5.00">app</text>
</g>
<!-- app&#45;&gt;search -->
<g id="edge10" class="edge">
<title>app&#45;&gt;search</title>
<path fill="none" stroke="black" d="M376.73,-244.11C398.31,-239.3 429.46,-230.66 454,-217 494.64,-194.38 532.41,-155.11 554.08,-130.12"/>
<polygon fill="black" stroke="black" points="556.97,-132.12 560.79,-122.23 551.64,-127.58 556.97,-132.12"/>
</g>
<!-- app&#45;&gt;s3 -->
<g id="edge8" class="edge">
<title>app&#45;&gt;s3</title>
<path fill="none" stroke="black" d="M378.22,-249.1C476.91,-249.23 812.01,-247.42 848,-217 894.86,-177.4 903.8,-127.53 865,-80 842.32,-52.21 738.54,-41.12 682,-37.08"/>
<polygon fill="black" stroke="black" points="682.23,-33.59 672.02,-36.41 681.76,-40.57 682.23,-33.59"/>
</g>
<!-- app&#45;&gt;thumbor -->
<g id="edge9" class="edge">
<title>app&#45;&gt;thumbor</title>
<path fill="none" stroke="black" d="M377.67,-246.63C408.97,-243.14 461.95,-234.96 504,-217 556.04,-194.78 565.97,-181.74 609,-145 614.48,-140.32 620.02,-134.9 625.05,-129.64"/>
<polygon fill="black" stroke="black" points="627.76,-131.86 632,-122.15 622.63,-127.1 627.76,-131.86"/>
</g>
<!-- app&#45;&gt;mail -->
<g id="edge13" class="edge">
<title>app&#45;&gt;mail</title>
<path fill="none" stroke="black" d="M368.78,-236.12C375.19,-230.78 382.06,-224.16 387,-217 404.73,-191.33 416.25,-157.17 422.66,-133.77"/>
<polygon fill="black" stroke="black" points="426.11,-134.4 425.25,-123.84 419.34,-132.63 426.11,-134.4"/>
</g>
<!-- app&#45;&gt;assets_proxy -->
<g id="edge11" class="edge">
<title>app&#45;&gt;assets_proxy</title>
<path fill="none" stroke="black" d="M374.07,-240.42C386.94,-234.94 402.79,-226.99 415,-217 444.95,-192.51 470.99,-155.8 486.34,-131.62"/>
<polygon fill="black" stroke="black" points="489.38,-133.36 491.69,-123.03 483.44,-129.67 489.38,-133.36"/>
</g>
<!-- webpacker -->
<g id="node7" class="node">
<title>webpacker</title>
<ellipse fill="none" stroke="black" cx="187" cy="-178" rx="27" ry="18"/>
<text text-anchor="middle" x="187" y="-176.5" font-family="Helvetica,sans-Serif" font-size="5.00">webpacker</text>
</g>
<!-- app&#45;&gt;webpacker -->
<g id="edge2" class="edge">
<title>app&#45;&gt;webpacker</title>
<path fill="none" stroke="black" d="M324.66,-245.96C298.77,-242.11 258.77,-233.85 228,-217 220.46,-212.87 213.23,-207.05 206.99,-201.2"/>
<polygon fill="black" stroke="black" points="209.23,-198.49 199.68,-193.9 204.29,-203.44 209.23,-198.49"/>
</g>
<!-- que -->
<g id="node8" class="node">
<title>que</title>
<ellipse fill="none" stroke="black" cx="279" cy="-178" rx="27" ry="18"/>
<text text-anchor="middle" x="279" y="-176.5" font-family="Helvetica,sans-Serif" font-size="5.00">que</text>
</g>
<!-- app&#45;&gt;que -->
<g id="edge3" class="edge">
<title>app&#45;&gt;que</title>
<path fill="none" stroke="gray" d="M334.96,-235.27C328.63,-229.71 321.37,-223.17 315,-217 309.83,-211.99 304.4,-206.43 299.38,-201.16"/>
<polygon fill="gray" stroke="gray" points="301.79,-198.61 292.39,-193.72 296.69,-203.4 301.79,-198.61"/>
</g>
<!-- database -->
<g id="node9" class="node">
<title>database</title>
<ellipse fill="none" stroke="black" cx="233" cy="-106" rx="27" ry="18"/>
<text text-anchor="middle" x="233" y="-104.5" font-family="Helvetica,sans-Serif" font-size="5.00">database</text>
</g>
<!-- app&#45;&gt;database -->
<g id="edge5" class="edge">
<title>app&#45;&gt;database</title>
<path fill="none" stroke="black" d="M323.77,-249C298.68,-247.4 262.47,-240.74 243,-217 224.15,-194.01 224.47,-158.51 227.65,-134.1"/>
<polygon fill="black" stroke="black" points="231.13,-134.48 229.19,-124.06 224.21,-133.41 231.13,-134.48"/>
</g>
<!-- hypernova -->
<g id="node10" class="node">
<title>hypernova</title>
<ellipse fill="none" stroke="black" cx="351" cy="-178" rx="27" ry="18"/>
<text text-anchor="middle" x="351" y="-176.5" font-family="Helvetica,sans-Serif" font-size="5.00">hypernova</text>
</g>
<!-- app&#45;&gt;hypernova -->
<g id="edge4" class="edge">
<title>app&#45;&gt;hypernova</title>
<path fill="none" stroke="gray" d="M351,-231.7C351,-223.98 351,-214.71 351,-206.11"/>
<polygon fill="gray" stroke="gray" points="354.5,-206.1 351,-196.1 347.5,-206.1 354.5,-206.1"/>
</g>
<!-- video -->
<g id="node11" class="node">
<title>video</title>
<ellipse fill="none" stroke="black" cx="115" cy="-178" rx="27" ry="18"/>
<text text-anchor="middle" x="115" y="-176.5" font-family="Helvetica,sans-Serif" font-size="5.00">video</text>
</g>
<!-- app&#45;&gt;video -->
<g id="edge12" class="edge">
<title>app&#45;&gt;video</title>
<path fill="none" stroke="black" d="M324.54,-245.73C273.71,-239.31 166.12,-224.98 151,-217 144.15,-213.38 137.87,-207.96 132.54,-202.34"/>
<polygon fill="black" stroke="black" points="135.1,-199.95 125.89,-194.7 129.81,-204.54 135.1,-199.95"/>
</g>
<!-- api_napoleon -->
<g id="node14" class="node">
<title>api_napoleon</title>
<ellipse fill="none" stroke="black" cx="803" cy="-178" rx="27" ry="18"/>
<text text-anchor="middle" x="803" y="-176.5" font-family="Helvetica,sans-Serif" font-size="5.00">napoleon api</text>
</g>
<!-- app&#45;&gt;api_napoleon -->
<g id="edge20" class="edge">
<title>app&#45;&gt;api_napoleon</title>
<path fill="none" stroke="gray" d="M378.1,-249.28C458.57,-249.74 694.79,-248.31 764,-217 771.63,-213.55 778.65,-207.93 784.57,-202.07"/>
<polygon fill="gray" stroke="gray" points="787.21,-204.36 791.44,-194.65 782.08,-199.61 787.21,-204.36"/>
</g>
<!-- que&#45;&gt;mail -->
<g id="edge14" class="edge">
<title>que&#45;&gt;mail</title>
<path fill="none" stroke="black" d="M299.59,-166.23C304.54,-163.93 309.88,-161.69 315,-160 347.28,-149.33 359.93,-160.85 390,-145 397.13,-141.24 403.84,-135.77 409.61,-130.15"/>
<polygon fill="black" stroke="black" points="412.5,-132.19 416.86,-122.53 407.43,-127.37 412.5,-132.19"/>
</g>
<!-- que&#45;&gt;database -->
<g id="edge6" class="edge">
<title>que&#45;&gt;database</title>
<path fill="none" stroke="black" d="M268.56,-161.12C262.8,-152.34 255.52,-141.26 249.04,-131.42"/>
<polygon fill="black" stroke="black" points="251.81,-129.26 243.4,-122.82 245.96,-133.1 251.81,-129.26"/>
</g>
<!-- api -->
<g id="node12" class="node">
<title>api</title>
<ellipse fill="none" stroke="black" cx="43" cy="-178" rx="27" ry="18"/>
<text text-anchor="middle" x="43" y="-176.5" font-family="Helvetica,sans-Serif" font-size="5.00">api</text>
</g>
<!-- api&#45;&gt;database -->
<g id="edge7" class="edge">
<title>api&#45;&gt;database</title>
<path fill="none" stroke="black" d="M64.15,-166.54C68.98,-164.28 74.13,-161.98 79,-160 119.77,-143.42 167.89,-127.41 199.36,-117.4"/>
<polygon fill="black" stroke="black" points="200.47,-120.72 208.96,-114.37 198.37,-114.04 200.47,-120.72"/>
</g>
<!-- database_napoleon -->
<g id="node13" class="node">
<title>database_napoleon</title>
<ellipse fill="none" stroke="black" cx="805" cy="-106" rx="31.28" ry="18"/>
<text text-anchor="middle" x="805" y="-104.5" font-family="Helvetica,sans-Serif" font-size="5.00">napoleon database</text>
</g>
<!-- api_napoleon&#45;&gt;database_napoleon -->
<g id="edge15" class="edge">
<title>api_napoleon&#45;&gt;database_napoleon</title>
<path fill="none" stroke="black" d="M803.49,-159.7C803.71,-151.98 803.98,-142.71 804.23,-134.11"/>
<polygon fill="black" stroke="black" points="807.72,-134.2 804.51,-124.1 800.73,-134 807.72,-134.2"/>
</g>
<!-- napoleon -->
<g id="node15" class="node">
<title>napoleon</title>
<ellipse fill="none" stroke="black" cx="728" cy="-178" rx="27" ry="18"/>
<text text-anchor="middle" x="728" y="-176.5" font-family="Helvetica,sans-Serif" font-size="5.00">napoleon</text>
</g>
<!-- napoleon&#45;&gt;s3 -->
<g id="edge17" class="edge">
<title>napoleon&#45;&gt;s3</title>
<path fill="none" stroke="black" d="M749.13,-166.78C754.84,-164.3 761.07,-161.84 767,-160 800.72,-149.55 822.52,-172.22 845,-145 863.4,-122.73 863.05,-102.56 845,-80 824.98,-54.97 734.15,-42.89 682.04,-37.92"/>
<polygon fill="black" stroke="black" points="682.14,-34.42 671.86,-37 681.5,-41.39 682.14,-34.42"/>
</g>
<!-- napoleon&#45;&gt;mail -->
<g id="edge18" class="edge">
<title>napoleon&#45;&gt;mail</title>
<path fill="none" stroke="black" d="M700.77,-176.01C642.12,-173.51 505.87,-165.59 465,-145 458.08,-141.51 451.78,-136.14 446.45,-130.51"/>
<polygon fill="black" stroke="black" points="449.01,-128.12 439.82,-122.85 443.71,-132.7 449.01,-128.12"/>
</g>
<!-- napoleon&#45;&gt;database_napoleon -->
<g id="edge16" class="edge">
<title>napoleon&#45;&gt;database_napoleon</title>
<path fill="none" stroke="black" d="M743.99,-163.46C750.56,-157.82 758.2,-151.16 765,-145 770.66,-139.87 776.67,-134.25 782.27,-128.94"/>
<polygon fill="black" stroke="black" points="784.76,-131.4 789.58,-121.97 779.93,-126.34 784.76,-131.4"/>
</g>
<!-- provider -->
<g id="node16" class="node">
<title>provider</title>
<ellipse fill="none" stroke="black" cx="726" cy="-106" rx="29.98" ry="18"/>
<text text-anchor="middle" x="726" y="-104.5" font-family="Helvetica,sans-Serif" font-size="5.00">mocked providers</text>
</g>
<!-- napoleon&#45;&gt;provider -->
<g id="edge19" class="edge">
<title>napoleon&#45;&gt;provider</title>
<path fill="none" stroke="gray" d="M727.51,-159.7C727.29,-151.98 727.02,-142.71 726.77,-134.11"/>
<polygon fill="gray" stroke="gray" points="730.27,-134 726.49,-124.1 723.28,-134.2 730.27,-134"/>
</g>
<!-- user -->
<g id="node17" class="node">
<title>user</title>
<ellipse fill="none" stroke="black" cx="142" cy="-323" rx="27" ry="18"/>
<text text-anchor="middle" x="142" y="-321.5" font-family="Helvetica,sans-Serif" font-size="5.00">user</text>
</g>
<!-- user&#45;&gt;app -->
<g id="edge21" class="edge">
<title>user&#45;&gt;app</title>
<path fill="none" stroke="black" d="M161.23,-310.3C169.3,-305.73 178.91,-300.7 188,-297 230.7,-279.63 282.23,-266.28 315.77,-258.54"/>
<polygon fill="black" stroke="black" points="316.59,-261.95 325.57,-256.32 315.04,-255.12 316.59,-261.95"/>
</g>
<!-- user&#45;&gt;api -->
<g id="edge22" class="edge">
<title>user&#45;&gt;api</title>
<path fill="none" stroke="black" d="M131.22,-306.42C113.96,-281.5 80.01,-232.45 59.63,-203.02"/>
<polygon fill="black" stroke="black" points="62.34,-200.79 53.77,-194.56 56.58,-204.77 62.34,-200.79"/>
</g>
<!-- developer -->
<g id="node18" class="node">
<title>developer</title>
<ellipse fill="none" stroke="black" cx="227" cy="-323" rx="27" ry="18"/>
<text text-anchor="middle" x="227" y="-321.5" font-family="Helvetica,sans-Serif" font-size="5.00">developer</text>
</g>
<!-- developer&#45;&gt;app -->
<g id="edge23" class="edge">
<title>developer&#45;&gt;app</title>
<path fill="none" stroke="black" d="M246.92,-310.59C267.35,-298.9 299.32,-280.59 322.44,-267.36"/>
<polygon fill="black" stroke="black" points="324.19,-270.39 331.13,-262.38 320.71,-264.31 324.19,-270.39"/>
</g>
<!-- developer&#45;&gt;api -->
<g id="edge24" class="edge">
<title>developer&#45;&gt;api</title>
<path fill="none" stroke="black" d="M211.89,-307.76C191.09,-288.69 151.89,-254.65 114,-232 99.47,-223.32 92.88,-226.68 79,-217 72.99,-212.81 67.19,-207.49 62.07,-202.17"/>
<polygon fill="black" stroke="black" points="64.42,-199.55 55.11,-194.5 59.24,-204.26 64.42,-199.55"/>
</g>
</g>
</svg>
