<?xml version="1.0" encoding="UTF-8" standalone="no"?>
<!DOCTYPE svg PUBLIC "-//W3C//DTD SVG 1.1//EN"
 "http://www.w3.org/Graphics/SVG/1.1/DTD/svg11.dtd">
<!-- Generated by graphviz version 2.40.1 (20161225.0304)
 -->
<!-- Title: G Pages: 1 -->
<svg width="288pt" height="206pt"
 viewBox="0.00 0.00 288.00 206.10" xmlns="http://www.w3.org/2000/svg" xmlns:xlink="http://www.w3.org/1999/xlink">
<g id="graph0" class="graph" transform="scale(.7414 .7414) rotate(0) translate(4 274)">
<title>G</title>
<polygon fill="#ffffff" stroke="transparent" points="-4,4 -4,-274 384.4778,-274 384.4778,4 -4,4"/>
<!-- elements_local -->
<g id="node1" class="node">
<title>elements_local</title>
<ellipse fill="none" stroke="#c0c0c0" cx="176.4778" cy="-252" rx="30.8703" ry="18"/>
<text text-anchor="middle" x="176.4778" y="-251" font-family="Helvetica,sans-Serif" font-size="5.00" fill="#000000">elements@local</text>
</g>
<!-- elements_github -->
<g id="node2" class="node">
<title>elements_github</title>
<ellipse fill="none" stroke="#000000" cx="134.4778" cy="-174" rx="33.2122" ry="18"/>
<text text-anchor="middle" x="134.4778" y="-173" font-family="Helvetica,sans-Serif" font-size="5.00" fill="#000000">elements@github</text>
</g>
<!-- elements_local&#45;&gt;elements_github -->
<g id="edge1" class="edge">
<title>elements_local&#45;&gt;elements_github</title>
<path fill="none" stroke="#c0c0c0" stroke-dasharray="5,2" d="M165.5888,-235.0003C161.9224,-229.0664 157.897,-222.3115 154.4778,-216 151.8991,-211.2401 149.2996,-206.0933 146.867,-201.0885"/>
<polygon fill="#c0c0c0" stroke="#c0c0c0" points="149.8966,-199.3092 142.4441,-191.7786 143.5739,-202.313 149.8966,-199.3092"/>
<text text-anchor="middle" x="164.4778" y="-212" font-family="Helvetica,sans-Serif" font-size="5.00" fill="#000000">git push</text>
</g>
<!-- cdn -->
<g id="node3" class="node">
<title>cdn</title>
<ellipse fill="none" stroke="#c0c0c0" cx="344.4778" cy="-174" rx="33.798" ry="18"/>
<text text-anchor="middle" x="344.4778" y="-173" font-family="Helvetica,sans-Serif" font-size="5.00" fill="#000000">cdn.classpert.com</text>
</g>
<!-- elements_local&#45;&gt;cdn -->
<g id="edge2" class="edge">
<title>elements_local&#45;&gt;cdn</title>
<path fill="none" stroke="#c0c0c0" stroke-dasharray="5,2" d="M206.2251,-246.7684C231.3931,-241.4989 267.8315,-231.8414 296.4778,-216 305.4442,-211.0416 314.1998,-204.1805 321.7255,-197.4399"/>
<polygon fill="#c0c0c0" stroke="#c0c0c0" points="324.4678,-199.666 329.3609,-190.2688 319.6756,-194.5636 324.4678,-199.666"/>
<text text-anchor="middle" x="319.4778" y="-212" font-family="Helvetica,sans-Serif" font-size="5.00" fill="#000000">yarn deploy</text>
</g>
<!-- blocks_local -->
<g id="node4" class="node">
<title>blocks_local</title>
<ellipse fill="none" stroke="#c0c0c0" cx="323.4778" cy="-252" rx="27.2727" ry="18"/>
<text text-anchor="middle" x="323.4778" y="-251" font-family="Helvetica,sans-Serif" font-size="5.00" fill="#000000">blocks@local</text>
</g>
<!-- blocks_local&#45;&gt;cdn -->
<g id="edge4" class="edge">
<title>blocks_local&#45;&gt;cdn</title>
<path fill="none" stroke="#c0c0c0" stroke-dasharray="5,2" d="M338.0329,-236.3599C342.6196,-230.4334 347.1058,-223.3356 349.4778,-216 350.9145,-211.5567 351.3289,-206.7292 351.1402,-201.9825"/>
<polygon fill="#c0c0c0" stroke="#c0c0c0" points="354.5968,-201.411 349.9266,-191.9011 347.647,-202.2477 354.5968,-201.411"/>
<text text-anchor="middle" x="365.4778" y="-212" font-family="Helvetica,sans-Serif" font-size="5.00" fill="#000000">yarn deploy</text>
</g>
<!-- blocks_github -->
<g id="node5" class="node">
<title>blocks_github</title>
<ellipse fill="none" stroke="#000000" cx="215.4778" cy="-174" rx="28.5303" ry="18"/>
<text text-anchor="middle" x="215.4778" y="-173" font-family="Helvetica,sans-Serif" font-size="5.00" fill="#000000">blocks@github</text>
</g>
<!-- blocks_local&#45;&gt;blocks_github -->
<g id="edge3" class="edge">
<title>blocks_local&#45;&gt;blocks_github</title>
<path fill="none" stroke="#c0c0c0" stroke-dasharray="5,2" d="M304.6656,-238.4134C287.5035,-226.0186 261.9424,-207.5578 242.5787,-193.5729"/>
<polygon fill="#c0c0c0" stroke="#c0c0c0" points="244.5928,-190.7101 234.4367,-187.6926 240.4943,-196.3849 244.5928,-190.7101"/>
<text text-anchor="middle" x="283.4778" y="-212" font-family="Helvetica,sans-Serif" font-size="5.00" fill="#000000">git push</text>
</g>
<!-- web_app_local -->
<g id="node6" class="node">
<title>web_app_local</title>
<ellipse fill="none" stroke="#000000" cx="74.4778" cy="-252" rx="29.1151" ry="18"/>
<text text-anchor="middle" x="74.4778" y="-251" font-family="Helvetica,sans-Serif" font-size="5.00" fill="#000000">web&#45;app@local</text>
</g>
<!-- web_app_local&#45;&gt;elements_github -->
<g id="edge5" class="edge">
<title>web_app_local&#45;&gt;elements_github</title>
<path fill="none" stroke="#000000" d="M80.0067,-234.2962C82.9689,-226.4147 87.1239,-217.2887 92.4778,-210 96.358,-204.7174 101.1545,-199.6928 106.1029,-195.164"/>
<polygon fill="#000000" stroke="#000000" points="108.5767,-197.6536 113.8942,-188.4898 104.0227,-192.3374 108.5767,-197.6536"/>
<text text-anchor="middle" x="120.4778" y="-212" font-family="Helvetica,sans-Serif" font-size="5.00" fill="#000000">yarn {install,upgrade}</text>
</g>
<!-- web_app_local&#45;&gt;blocks_github -->
<g id="edge6" class="edge">
<title>web_app_local&#45;&gt;blocks_github</title>
<path fill="none" stroke="#000000" d="M100.8805,-243.9778C126.1035,-236.0508 162.062,-223.9844 174.4778,-216 182.1164,-211.0877 189.4057,-204.5052 195.6631,-198.0108"/>
<polygon fill="#000000" stroke="#000000" points="198.3337,-200.2767 202.4938,-190.5328 193.1653,-195.5557 198.3337,-200.2767"/>
<text text-anchor="middle" x="210.4778" y="-212" font-family="Helvetica,sans-Serif" font-size="5.00" fill="#000000">yarn {install,upgrade}</text>
</g>
<!-- web_app_github -->
<g id="node7" class="node">
<title>web_app_github</title>
<ellipse fill="none" stroke="#000000" cx="31.4778" cy="-174" rx="31.4556" ry="18"/>
<text text-anchor="middle" x="31.4778" y="-173" font-family="Helvetica,sans-Serif" font-size="5.00" fill="#000000">web&#45;app@github</text>
</g>
<!-- web_app_local&#45;&gt;web_app_github -->
<g id="edge7" class="edge">
<title>web_app_local&#45;&gt;web_app_github</title>
<path fill="none" stroke="#000000" d="M53.0538,-239.2116C45.0934,-233.2423 36.9236,-225.3708 32.4778,-216 30.4896,-211.8094 29.4275,-207.109 28.954,-202.4107"/>
<polygon fill="#000000" stroke="#000000" points="32.4513,-202.246 28.7269,-192.3275 25.4531,-202.4038 32.4513,-202.246"/>
<text text-anchor="middle" x="42.4778" y="-212" font-family="Helvetica,sans-Serif" font-size="5.00" fill="#000000">git push</text>
</g>
<!-- web_app_travis -->
<g id="node8" class="node">
<title>web_app_travis</title>
<ellipse fill="none" stroke="#000000" cx="31.4778" cy="-96" rx="27" ry="18"/>
<text text-anchor="middle" x="31.4778" y="-95" font-family="Helvetica,sans-Serif" font-size="5.00" fill="#000000">travis</text>
</g>
<!-- web_app_github&#45;&gt;web_app_travis -->
<g id="edge8" class="edge">
<title>web_app_github&#45;&gt;web_app_travis</title>
<path fill="none" stroke="#000000" d="M31.4778,-155.9092C31.4778,-146.5259 31.4778,-134.8499 31.4778,-124.3046"/>
<polygon fill="#000000" stroke="#000000" points="34.9779,-124.2629 31.4778,-114.2629 27.9779,-124.2629 34.9779,-124.2629"/>
<text text-anchor="middle" x="40.4778" y="-134" font-family="Helvetica,sans-Serif" font-size="5.00" fill="#000000">ci push</text>
</g>
<!-- web_app_heroku -->
<g id="node9" class="node">
<title>web_app_heroku</title>
<ellipse fill="none" stroke="#000000" cx="31.4778" cy="-18" rx="27" ry="18"/>
<text text-anchor="middle" x="31.4778" y="-17" font-family="Helvetica,sans-Serif" font-size="5.00" fill="#000000">heroku</text>
</g>
<!-- web_app_travis&#45;&gt;web_app_heroku -->
<g id="edge9" class="edge">
<title>web_app_travis&#45;&gt;web_app_heroku</title>
<path fill="none" stroke="#000000" d="M31.4778,-77.9092C31.4778,-68.5259 31.4778,-56.8499 31.4778,-46.3046"/>
<polygon fill="#000000" stroke="#000000" points="34.9779,-46.2629 31.4778,-36.2629 27.9779,-46.2629 34.9779,-46.2629"/>
<text text-anchor="middle" x="39.9778" y="-56" font-family="Helvetica,sans-Serif" font-size="5.00" fill="#000000">deploy</text>
</g>
</g>
</svg>
