<?xml version="1.0" encoding="UTF-8"?>
<svg width="16px" height="16px" viewBox="0 0 16 16" version="1.1" xmlns="http://www.w3.org/2000/svg" xmlns:xlink="http://www.w3.org/1999/xlink">
    <!-- Generator: Sketch 58 (84663) - https://sketch.com -->
    <title>atom/icon/interactive/dashboard/certificate-gray-5</title>
    <desc>Created with Sketch.</desc>
    <g id="Desktop" stroke="none" stroke-width="1" fill="none" fill-rule="evenodd">
        <g id="2.1.1-D-CP---10-Bonus-Copy-7" transform="translate(-135.000000, -428.000000)" fill="currentColor">
            <g id="order-info" transform="translate(135.000000, 349.000000)">
                <g id="certificate" transform="translate(0.000000, 79.000000)">
                    <g id="atom/icon/information/certificate">
                        <path d="M2.3739726,15.9917808 C1.0671453,15.9917808 4.26325641e-14,14.9246355 4.26325641e-14,13.6178082 L4.26325641e-14,11.2438356 L3.39539769,11.2438681 C3.25672116,10.3746394 3.08041036,9.49766591 2.82291686,8.33895615 C1.99326299,4.60554911 1.87427553,3.95126935 1.8739726,2.3739726 C1.8739726,2.0690324 1.94436934,1.64665199 2.16100558,1.2133795 C2.51072828,0.513934116 3.14030213,0.063131751 4.04896113,0.00613341517 L4.24794521,1.24344979e-13 L13.6178082,2.48689958e-14 C14.8701844,2.48689958e-14 15.9024359,0.980069204 15.9862826,2.21192739 L15.9917808,2.3739726 L15.9917808,4.74794521 L12.4620248,4.74753618 C12.6068581,5.56777992 12.8328086,6.54228417 13.1658932,7.8746226 C13.8786612,10.7256946 14.1178082,12.0011456 14.1178082,13.6178082 C14.1178082,14.6340844 13.6538345,15.330045 12.9044287,15.7047478 C12.5330523,15.8904361 12.1696782,15.968683 11.8814039,15.9872497 L11.7438356,15.9917808 L2.3739726,15.9917808 Z M9.36986301,12.2438356 L1,12.2438356 L1,13.6178082 C1,14.3723508 1.61943005,14.9917808 2.3739726,14.9917808 L9.81016377,14.9917808 C9.5331369,14.6034754 9.36986301,14.1289775 9.36986301,13.6178082 L9.36986301,12.2438356 Z M11.6269715,1 L4.24794521,1 C3.62449532,1 3.26634633,1.238766 3.05543277,1.6605931 C2.92069916,1.93006033 2.8739726,2.21041965 2.8739726,2.37603816 C2.87425517,3.84526702 2.98937537,4.47828174 3.79910349,8.12202373 C4.07602966,9.36817969 4.26150434,10.2985071 4.40757979,11.2433015 L10.369863,11.2438356 L10.369863,13.6178082 C10.369863,14.3279659 10.9185623,14.9184392 11.6121822,14.9854493 L11.7438356,14.9917808 C11.9073886,14.9917808 12.1877479,14.9450543 12.4572151,14.8103207 C12.8790422,14.5994071 13.1178082,14.2412581 13.1178082,13.6178082 C13.1178082,12.1111832 12.8884621,10.8880041 12.1957507,8.11715822 C11.4829827,5.26608627 11.2438356,3.99063527 11.2438356,2.3739726 C11.2438356,1.89025166 11.3489494,1.47909858 11.5399244,1.14061496 L11.6269715,1 Z M13.6178082,1 L13.5268891,1.00408499 C13.3611047,1.01802016 13.1289847,1.06918216 12.9044287,1.18146017 C12.4826016,1.39237372 12.2438356,1.75052272 12.2438356,2.3739726 C12.2438356,2.84078154 12.2658527,3.28037987 12.3168475,3.74723254 L14.9917808,3.74794521 L14.9917808,2.3739726 C14.9917808,1.6638149 14.4430815,1.07334164 13.7494617,1.00633149 L13.6178082,1 Z" id="Combined-Shape"></path>
                    </g>
                </g>
            </g>
        </g>
    </g>
</svg>