<?xml version="1.0" encoding="UTF-8"?>
<svg width="16px" height="16px" viewBox="0 0 16 16" version="1.1" xmlns="http://www.w3.org/2000/svg" xmlns:xlink="http://www.w3.org/1999/xlink">
    <!-- Generator: Sketch 57.1 (83088) - https://sketch.com -->
    <title>atom/icon/interactive/change/password</title>
    <desc>Created with Sketch.</desc>
    <g id="atom/icon/interactive/change/password" stroke="none" stroke-width="1" fill="none" fill-rule="evenodd">
        <g id="locker" transform="translate(2.000000, -1.000000)" fill="#14232E">
            <path d="M1,17.0263158 L11.1052632,17.0263158 C11.3814055,17.0263158 11.6052632,16.8024582 11.6052632,16.5263158 L11.6052632,8 C11.6052632,7.72385763 11.3814055,7.5 11.1052632,7.5 L1,7.5 C0.723857625,7.5 0.5,7.72385763 0.5,8 L0.5,16.5263158 C0.5,16.8024582 0.723857625,17.0263158 1,17.0263158 Z M1.5,16.0263158 L1.5,8.5 L10.6052632,8.5 L10.6052632,16.0263158 L1.5,16.0263158 Z" id="Stroke-1" fill-rule="nonzero"></path>
            <path d="M3.71052632,7.7656024 L3.71052632,4.34454976 C3.71052632,3.21326339 4.12899567,2.5713779 4.84281491,2.23865882 C5.2499501,2.04888859 5.68265735,1.98919311 6.00865325,2.00090015 C6.02192587,2.00147325 6.02192587,2.00147325 6.01882026,2.00129999 C6.07993024,2.0016778 6.07993024,2.0016778 6.09059307,2.00126425 C6.41440691,1.99085098 6.85010832,2.05229105 7.26118901,2.24529343 C7.97609588,2.58094221 8.39473684,3.22167219 8.39473684,4.34454976 L8.39473684,7.7656024 C8.39473684,8.04174477 8.61859447,8.2656024 8.89473684,8.2656024 C9.17087922,8.2656024 9.39473684,8.04174477 9.39473684,7.7656024 L9.39473684,4.34454976 C9.39473684,2.82888786 8.74758833,1.83842706 7.68617941,1.34009557 C7.10852386,1.06888629 6.52601861,0.986744808 6.05845149,1.00178092 L6.02218817,1.00337216 C6.07432069,1.00280462 6.07432069,1.00280462 6.04454173,1.00154435 C5.57449292,0.98466414 4.99444814,1.06468602 4.42034298,1.33228281 C3.35784644,1.82752426 2.71052632,2.8204414 2.71052632,4.34454976 L2.71052632,7.7656024 C2.71052632,8.04174477 2.93438394,8.2656024 3.21052632,8.2656024 C3.48666869,8.2656024 3.71052632,8.04174477 3.71052632,7.7656024 Z" id="Stroke-3" fill-rule="nonzero"></path>
            <path d="M7.16913684,11.4124129 C7.16913684,12.028834 6.66924211,12.5287287 6.05250526,12.5287287 C5.43608421,12.5287287 4.93618947,12.028834 4.93618947,11.4124129 C4.93618947,10.7956761 5.43608421,10.2957813 6.05250526,10.2957813 C6.66924211,10.2957813 7.16913684,10.7956761 7.16913684,11.4124129" id="Fill-5"></path>
            <polygon id="Fill-7" points="4.78947368 13.9497813 7.31578947 13.9497813 6.05263158 11.1076761"></polygon>
        </g>
    </g>
</svg>