<svg xmlns="http://www.w3.org/2000/svg" xmlns:xlink="http://www.w3.org/1999/xlink" width="176" height="302" viewBox="0 0 176 302">
  <defs>
    <polygon id="providerapi\-a" points="0 301.423 175.546 301.423 175.546 0 0 0"/>
    <path id="providerapi\-c" d="M6.90006186,0 C5.37185567,0 4.43764948,1.23903093 4.43560825,2.76927835 L4.43560825,2.76927835 L1.04579381,2.76315464 L0.218412371,7.63694845 L1.34245361,9.85169072 L4.73158763,9.85713402 L4.73975258,9.85713402 C6.35301031,9.85509278 7.6614433,8.54870103 7.66416495,6.93408247 L7.66416495,6.93408247 L7.67096907,2.77404124 L7.67573196,0.00136082474 L6.90482474,0 L6.90006186,0 Z"/>
    <linearGradient id="providerapi\-d" x1="68.572%" x2="21.985%" y1="37.588%" y2="92.585%">
      <stop offset="0%" stop-color="#FF9700"/>
      <stop offset="100%" stop-color="#C3411C"/>
    </linearGradient>
    <polygon id="providerapi\-f" points="0 301.423 175.546 301.423 175.546 0 0 0"/>
  </defs>
  <g fill="none" fill-rule="evenodd">
    <polyline stroke="#4C636F" stroke-width=".68" points="144.247 178.268 150.371 184.392 156.495 178.268"/>
    <g transform="translate(21.773 104.784)">
      <path stroke="#4C636F" stroke-width=".68" d="M128.597938,79.6082474 L128.597938,48.9896907 C128.597938,42.8659794 122.474227,42.8659794 122.474227,42.8659794 L104.103093,42.8659794"/>
      <polyline stroke="#4C636F" stroke-width=".68" points="12.247 36.742 18.371 42.866 12.247 48.99"/>
      <path stroke="#4C636F" stroke-width=".68" d="M18.371134,42.8659794 L6.12371134,42.8659794 C0,42.8659794 0,36.742268 0,36.742268 L0,0"/>
      <path fill="#243F52" d="M97.9793814,73.4845361 L36.742268,73.4845361 C33.3599381,73.4845361 30.6185567,70.7431546 30.6185567,67.3608247 L30.6185567,24.4948454 C30.6185567,21.1125155 33.3599381,18.371134 36.742268,18.371134 L97.9793814,18.371134 C101.361711,18.371134 104.103093,21.1125155 104.103093,24.4948454 L104.103093,67.3608247 C104.103093,70.7431546 101.361711,73.4845361 97.9793814,73.4845361"/>
      <path stroke="#14232E" stroke-width=".68" d="M97.9793814,73.4845361 L36.742268,73.4845361 C33.3599381,73.4845361 30.6185567,70.7431546 30.6185567,67.3608247 L30.6185567,24.4948454 C30.6185567,21.1125155 33.3599381,18.371134 36.742268,18.371134 L97.9793814,18.371134 C101.361711,18.371134 104.103093,21.1125155 104.103093,24.4948454 L104.103093,67.3608247 C104.103093,70.7431546 101.361711,73.4845361 97.9793814,73.4845361 Z"/>
    </g>
    <text font-family="PTMono-Regular, PT Mono" font-size="8.165">
      <tspan x="67.558" y="151.628" fill="#FFF">&lt;/</tspan> <tspan x="77.356" y="151.628" fill="#E5516E">script</tspan> <tspan x="106.75" y="151.628" fill="#FFF">&gt;</tspan>
    </text>
    <path fill="#FFF" d="M0.680412371,12.9278351 L123.154639,12.9278351 L123.154639,98.6597938 C123.154639,102.042124 120.413258,104.783505 117.030928,104.783505 L6.80412371,104.783505 C3.42179381,104.783505 0.680412371,102.042124 0.680412371,98.6597938 L0.680412371,12.9278351 Z"/>
    <path stroke="#9DAFB7" stroke-width="1.361" d="M0.680412371,12.9278351 L123.154639,12.9278351 L123.154639,98.6597938 C123.154639,102.042124 120.413258,104.783505 117.030928,104.783505 L6.80412371,104.783505 C3.42179381,104.783505 0.680412371,102.042124 0.680412371,98.6597938 L0.680412371,12.9278351 Z"/>
    <mask id="providerapi\-b" fill="#fff">
      <use xlink:href="#providerapi\-a"/>
    </mask>
    <polygon fill="#DEE7ED" points="12.928 43.546 110.907 43.546 110.907 25.175 12.928 25.175" mask="url(#providerapi\-b)"/>
    <polygon stroke="#9DAFB7" stroke-width=".68" points="12.928 43.546 110.907 43.546 110.907 25.175 12.928 25.175" mask="url(#providerapi\-b)"/>
    <polygon fill="#DEE7ED" points="12.928 92.536 61.918 92.536 61.918 55.794 12.928 55.794" mask="url(#providerapi\-b)"/>
    <polygon stroke="#9DAFB7" stroke-width=".68" points="12.928 92.536 61.918 92.536 61.918 55.794 12.928 55.794" mask="url(#providerapi\-b)"/>
    <polygon fill="#9DAFB7" points="31.299 80.289 31.299 68.041 43.546 74.165" mask="url(#providerapi\-b)"/>
    <g mask="url(#providerapi\-b)">
      <g transform="translate(74.165 55.113)">
        <line x2="36.742" y1=".68" y2=".68" fill="#DEE7ED"/>
        <line x2="36.742" y1=".68" y2=".68" stroke="#9DAFB7" stroke-width=".68"/>
      </g>
    </g>
    <g mask="url(#providerapi\-b)">
      <g transform="translate(74.165 67.36)">
        <line x2="36.742" y1=".68" y2=".68" fill="#DEE7ED"/>
        <line x2="36.742" y1=".68" y2=".68" stroke="#9DAFB7" stroke-width=".68"/>
      </g>
    </g>
    <g mask="url(#providerapi\-b)">
      <g transform="translate(74.165 79.608)">
        <line x2="36.742" y1=".68" y2=".68" fill="#DEE7ED"/>
        <line x2="36.742" y1=".68" y2=".68" stroke="#9DAFB7" stroke-width=".68"/>
      </g>
    </g>
    <g mask="url(#providerapi\-b)">
      <g transform="translate(74.165 91.856)">
        <line x2="36.742" y1=".68" y2=".68" fill="#DEE7ED"/>
        <line x2="36.742" y1=".68" y2=".68" stroke="#9DAFB7" stroke-width=".68"/>
      </g>
    </g>
    <path fill="#DEE7ED" d="M123.154639,12.9278351 L123.154639,6.80412371 C123.154639,3.42179381 120.413258,0.680412371 117.030928,0.680412371 L6.80412371,0.680412371 C3.42179381,0.680412371 0.680412371,3.42179381 0.680412371,6.80412371 L0.680412371,12.9278351 L123.154639,12.9278351 Z" mask="url(#providerapi\-b)"/>
    <path stroke="#9DAFB7" stroke-width="1.361" d="M123.154639,12.9278351 L123.154639,6.80412371 C123.154639,3.42179381 120.413258,0.680412371 117.030928,0.680412371 L6.80412371,0.680412371 C3.42179381,0.680412371 0.680412371,3.42179381 0.680412371,6.80412371 L0.680412371,12.9278351 L123.154639,12.9278351 Z" mask="url(#providerapi\-b)"/>
    <path fill="#9DAFB7" d="M9.05397526 6.80412371C9.05397526 7.67096907 8.35110928 8.37383505 7.48426392 8.37383505 6.61741856 8.37383505 5.91523299 7.67096907 5.91523299 6.80412371 5.91523299 5.93727835 6.61741856 5.23441237 7.48426392 5.23441237 8.35110928 5.23441237 9.05397526 5.93727835 9.05397526 6.80412371M14.4972742 6.80412371C14.4972742 7.67096907 13.7944082 8.37383505 12.9275629 8.37383505 12.0607175 8.37383505 11.358532 7.67096907 11.358532 6.80412371 11.358532 5.93727835 12.0607175 5.23441237 12.9275629 5.23441237 13.7944082 5.23441237 14.4972742 5.93727835 14.4972742 6.80412371M19.9405732 6.80412371C19.9405732 7.67096907 19.2377072 8.37383505 18.3708619 8.37383505 17.5040165 8.37383505 16.8018309 7.67096907 16.8018309 6.80412371 16.8018309 5.93727835 17.5040165 5.23441237 18.3708619 5.23441237 19.2377072 5.23441237 19.9405732 5.93727835 19.9405732 6.80412371" mask="url(#providerapi\-b)"/>
    <polygon fill="#9DAFB7" points="21.157 35.195 19.77 31.979 21.026 31.979 21.899 34.167 23.719 31.979 25.107 31.979 22.316 35.195 21.826 37.422 20.667 37.422" mask="url(#providerapi\-b)"/>
    <path fill="#9DAFB7" d="M25.8516557 34.3050309C25.1501505 34.3050309 24.6765835 34.9745567 24.6765835 35.6767423 24.6765835 36.2476082 25.0188309 36.598701 25.5985423 36.598701 26.2918825 36.598701 26.7654495 35.9373402 26.7654495 35.2269897 26.7654495 34.6561237 26.4225216 34.3050309 25.8516557 34.3050309M25.8843155 33.3837526C27.1410371 33.3837526 27.8425423 34.1498969 27.8425423 35.178 27.8425423 36.4027423 26.8960887 37.5213402 25.5577175 37.5213402 24.3009959 37.5213402 23.6076557 36.7613196 23.6076557 35.7338969 23.6076557 34.5016701 24.5541093 33.3837526 25.8843155 33.3837526M29.5261546 35.8558948C29.5098247 35.928699 29.4934948 36.0273588 29.4934948 36.0926784 29.4934948 36.4512557 29.787433 36.5989052 30.1541753 36.5989052 30.5215979 36.5989052 30.8645258 36.3532763 31.0931443 36.1335031L31.6810206 33.4812557 32.7166082 33.4812557 31.8436392 37.4228845 30.8073711 37.4228845 30.9216804 36.9084928C30.6114124 37.2024309 30.1875155 37.5208639 29.6078041 37.5208639 28.8484639 37.5208639 28.3755773 37.1207814 28.3755773 36.5084103 28.3755773 36.4430907 28.4000722 36.2641423 28.4164021 36.1906577L29.0124433 33.4812557 30.0568763 33.4812557 29.5261546 35.8558948zM33.747501 33.4810515L34.7837691 33.4810515 34.6612948 34.0036082C35.0123876 33.6280206 35.4369649 33.3912371 36.0568206 33.3912371L35.836367 34.4193402C35.7717278 34.4030103 35.6247588 34.3710309 35.4532948 34.3710309 35.0777072 34.3710309 34.7109649 34.5826392 34.473501 34.8439175L33.9108 37.4226804 32.874532 37.4226804 33.747501 33.4810515z" mask="url(#providerapi\-b)"/>
    <polygon fill="#9DAFB7" points="41.119 34.738 39.699 37.422 38.59 37.422 38.263 33.481 39.299 33.481 39.454 36.134 40.907 33.481 41.829 33.481 42.099 36.134 43.429 33.481 44.539 33.481 42.466 37.422 41.364 37.422" mask="url(#providerapi\-b)"/>
    <path fill="#9DAFB7" d="M47.4554289 34.9987113C47.4554289 34.6074742 47.1778206 34.2073918 46.5491196 34.2073918 45.9945835 34.2073918 45.5700062 34.6476186 45.4808722 35.0810412L47.4554289 35.0810412 47.4554289 34.9987113zM46.6151196 33.3834124C47.6187278 33.3834124 48.3855526 34.0447732 48.3855526 35.1463608 48.3855526 35.3749794 48.3447278 35.6519072 48.3039031 35.7825464L45.3740474 35.7825464 45.3740474 35.8805258C45.3740474 36.2146082 45.7251402 36.6963402 46.4511402 36.6963402 46.794068 36.6963402 47.2023155 36.5908763 47.4472639 36.4024021L47.7738619 37.1127526C47.3901093 37.3733505 46.8675526 37.521 46.3783361 37.521 45.1379443 37.521 44.3377794 36.8514742 44.3377794 35.7498866 44.3377794 34.4686701 45.3005629 33.3834124 46.6151196 33.3834124L46.6151196 33.3834124zM51.2196062 34.3050309C50.8521835 34.3050309 50.5344309 34.5098351 50.3132969 34.7785979L50.0118742 36.1496289C50.1833381 36.4109072 50.518101 36.598701 50.933833 36.598701 51.6190082 36.598701 52.0925753 35.9543505 52.0925753 35.2269897 52.0925753 34.6642887 51.7169876 34.3050309 51.2196062 34.3050309L51.2196062 34.3050309zM49.734266 37.4226804L48.6979979 37.4226804 49.8975649 31.9793814 50.933833 31.9793814 50.4936062 33.9709485C50.8276887 33.5797113 51.2114412 33.3837526 51.6850082 33.3837526 52.5661423 33.3837526 53.177833 33.9709485 53.177833 35.0153814 53.177833 36.1986186 52.443668 37.5213402 51.1052969 37.5213402 50.5670907 37.5213402 50.1098536 37.2927216 49.8485753 36.9001237L49.734266 37.4226804zM53.9067588 36.1256784C54.1435423 36.4026062 54.7232536 36.7292041 55.2941196 36.7292041 55.6452124 36.7292041 55.8649856 36.5414103 55.8649856 36.3127918 55.8649856 36.0766887 55.5309031 35.9542144 55.1389856 35.8235753 54.5756041 35.635101 53.865934 35.382668 53.865934 34.7131423 53.865934 34.027967 54.4374804 33.3836165 55.4900784 33.3836165 56.1596041 33.3836165 56.7876247 33.6367299 57.1632124 34.027967L56.6406557 34.6811629C56.4446969 34.4362144 55.9554804 34.1749361 55.4737485 34.1749361 55.1063258 34.1749361 54.9022021 34.3464 54.9022021 34.5586887 54.9022021 34.7464825 55.1961402 34.8682763 55.5798928 34.9989155 56.1596041 35.1778639 56.901934 35.4316577 56.901934 36.1413278 56.901934 36.8925031 56.273233 37.5212041 55.1961402 37.5212041 54.4783052 37.5212041 53.7761196 37.2755753 53.3358928 36.8108536L53.9067588 36.1256784zM59.0908887 31.6617649C59.4174866 31.6617649 59.6454247 31.906033 59.6454247 32.1918062 59.6454247 32.6490433 59.2705175 32.9014763 58.9520845 32.9014763 58.6254866 32.9014763 58.396868 32.6653732 58.396868 32.3714351 58.396868 31.9223629 58.7724557 31.6617649 59.0908887 31.6617649L59.0908887 31.6617649zM58.2505794 33.4811876L59.2868474 33.4811876 58.4138784 37.4228165 57.3769299 37.4228165 58.2505794 33.4811876zM59.8832969 36.394101L60.3242041 34.3787196 59.6710082 34.3787196 59.875132 33.4812557 60.5283278 33.4812557 60.7644309 32.4041629 61.8095443 32.4041629 61.5727608 33.4812557 62.3722454 33.4812557 62.1599567 34.3787196 61.3604722 34.3787196 60.9848845 36.0926784C60.9767196 36.141668 60.9685546 36.2069876 60.9685546 36.2559773 60.9685546 36.4675856 61.0910289 36.5989052 61.3523072 36.5989052 61.4584515 36.5989052 61.5890907 36.5574 61.6380804 36.5172557L61.6789052 37.3494C61.5237711 37.4555443 61.2788227 37.5208639 61.0257093 37.5208639 60.3242041 37.5208639 59.8506371 37.2514206 59.8506371 36.6635443 59.8506371 36.6063897 59.8588021 36.4927608 59.8832969 36.394101M65.4750619 34.9987113C65.4750619 34.6074742 65.1974536 34.2073918 64.5687526 34.2073918 64.0142165 34.2073918 63.5896392 34.6476186 63.5005052 35.0810412L65.4750619 35.0810412 65.4750619 34.9987113zM64.6347526 33.3834124C65.6383608 33.3834124 66.4051856 34.0447732 66.4051856 35.1463608 66.4051856 35.3749794 66.3643608 35.6519072 66.3235361 35.7825464L63.3936804 35.7825464 63.3936804 35.8805258C63.3936804 36.2146082 63.7447732 36.6963402 64.4707732 36.6963402 64.813701 36.6963402 65.2219485 36.5908763 65.4668969 36.4024021L65.7934948 37.1127526C65.4097423 37.3733505 64.8871856 37.521 64.3979691 37.521 63.1575773 37.521 62.3574124 36.8514742 62.3574124 35.7498866 62.3574124 34.4686701 63.3201959 33.3834124 64.6347526 33.3834124L64.6347526 33.3834124z" mask="url(#providerapi\-b)"/>
    <path fill="#FFF" d="M52.3917526,208.886598 L174.865979,208.886598 L174.865979,294.618557 C174.865979,298.000887 172.124598,300.742268 168.742268,300.742268 L58.5154639,300.742268 C55.133134,300.742268 52.3917526,298.000887 52.3917526,294.618557 L52.3917526,208.886598 Z" mask="url(#providerapi\-b)"/>
    <path stroke="#243F52" stroke-width="1.361" d="M52.3917526,208.886598 L174.865979,208.886598 L174.865979,294.618557 C174.865979,298.000887 172.124598,300.742268 168.742268,300.742268 L58.5154639,300.742268 C55.133134,300.742268 52.3917526,298.000887 52.3917526,294.618557 L52.3917526,208.886598 Z" mask="url(#providerapi\-b)"/>
    <path fill="#DEE7ED" d="M174.865979,208.886598 L174.865979,202.762887 C174.865979,199.380557 172.124598,196.639175 168.742268,196.639175 L58.5154639,196.639175 C55.133134,196.639175 52.3917526,199.380557 52.3917526,202.762887 L52.3917526,208.886598 L174.865979,208.886598 Z" mask="url(#providerapi\-b)"/>
    <path stroke="#243F52" stroke-width="1.361" d="M174.865979,208.886598 L174.865979,202.762887 C174.865979,199.380557 172.124598,196.639175 168.742268,196.639175 L58.5154639,196.639175 C55.133134,196.639175 52.3917526,199.380557 52.3917526,202.762887 L52.3917526,208.886598 L174.865979,208.886598 Z" mask="url(#providerapi\-b)"/>
    <path fill="#243F52" d="M60.7653155 202.762887C60.7653155 203.629732 60.0624495 204.332598 59.1956041 204.332598 58.3287588 204.332598 57.6265732 203.629732 57.6265732 202.762887 57.6265732 201.896041 58.3287588 201.193175 59.1956041 201.193175 60.0624495 201.193175 60.7653155 201.896041 60.7653155 202.762887M66.2086144 202.762887C66.2086144 203.629732 65.5057485 204.332598 64.6389031 204.332598 63.7720577 204.332598 63.0698722 203.629732 63.0698722 202.762887 63.0698722 201.896041 63.7720577 201.193175 64.6389031 201.193175 65.5057485 201.193175 66.2086144 201.896041 66.2086144 202.762887M71.6519134 202.762887C71.6519134 203.629732 70.9490474 204.332598 70.0822021 204.332598 69.2153567 204.332598 68.5131711 203.629732 68.5131711 202.762887 68.5131711 201.896041 69.2153567 201.193175 70.0822021 201.193175 70.9490474 201.193175 71.6519134 201.896041 71.6519134 202.762887" mask="url(#providerapi\-b)"/>
    <g transform="translate(85.732 218.412)">
      <mask id="providerapi\-e" fill="#fff">
        <use xlink:href="#providerapi\-c"/>
      </mask>
      <path fill="url(#providerapi\-d)" d="M6.90006186,0 C5.37185567,0 4.43764948,1.23903093 4.43560825,2.76927835 L4.43560825,2.76927835 L1.04579381,2.76315464 L0.218412371,7.63694845 L1.34245361,9.85169072 L4.73158763,9.85713402 L4.73975258,9.85713402 C6.35301031,9.85509278 7.6614433,8.54870103 7.66416495,6.93408247 L7.66416495,6.93408247 L7.67096907,2.77404124 L7.67573196,0.00136082474 L6.90482474,0 L6.90006186,0 Z" mask="url(#providerapi\-e)"/>
    </g>
    <path fill="#FF9700" d="M86.4582309,228.27767 L86.4582309,228.27767 C84.8415711,228.274948 83.5331381,226.961753 83.5358556,225.345093 L83.5419835,221.185052 L83.5467464,218.412371 L84.3169732,218.413732 C85.8485814,218.416454 86.780066,219.658887 86.7780247,221.190495 L86.7705402,225.50499 C86.768499,227.036598 88.3157567,228.280392 89.8473649,228.283113 L86.4582309,228.27767 Z"/>
    <path fill="#000" d="M137.388458,222.085509 L136.324293,222.085509 L136.324293,223.402107 L137.388458,223.402107 C137.796025,223.402107 138.102891,223.144231 138.102891,222.743468 C138.102891,222.342705 137.796025,222.085509 137.388458,222.085509 L137.388458,222.085509 Z M126.840025,222.085509 L125.761571,222.085509 L125.761571,223.402107 L126.840025,223.402107 C127.240107,223.402107 127.540169,223.144231 127.540169,222.743468 C127.540169,222.35019 127.240107,222.085509 126.840025,222.085509 L126.840025,222.085509 Z M110.337984,222.092994 L109.545303,224.28188 L111.123179,224.28188 L110.337984,222.092994 Z M144.247695,221.21254 L144.247695,221.526891 C144.247695,221.846685 143.988458,222.106602 143.667984,222.106602 L142.861695,222.106602 L142.861695,225.983592 L141.840396,225.983592 L141.840396,222.106602 L140.448272,222.106602 L140.448272,221.21254 L144.247695,221.21254 Z M137.538829,221.21254 C138.531551,221.21254 139.138478,221.863695 139.138478,222.750953 C139.138478,223.594664 138.609798,224.045777 138.095406,224.167571 L139.167056,225.983592 L138.00287,225.983592 L137.067303,224.274396 L136.324293,224.274396 L136.324293,225.983592 L135.309798,225.983592 L135.309798,221.21254 L137.538829,221.21254 Z M133.484932,221.21254 L133.484932,221.505118 C133.484932,221.825592 133.225695,222.085509 132.905901,222.085509 L131.127984,222.085509 L131.127984,223.122458 L132.895695,223.122458 L132.895695,223.995427 L131.127984,223.995427 L131.127984,225.104499 L132.905901,225.104499 C133.225695,225.104499 133.484932,225.363736 133.484932,225.68353 L133.484932,225.983592 L130.113489,225.983592 L130.113489,221.21254 L133.484932,221.21254 Z M126.976107,221.21254 C128.011695,221.21254 128.575757,221.913365 128.575757,222.750953 C128.575757,223.580375 128.00421,224.274396 126.976107,224.274396 L125.761571,224.274396 L125.761571,225.983592 L124.747757,225.983592 L124.747757,221.21254 L126.976107,221.21254 Z M110.973489,221.21254 L112.808561,225.983592 L111.70221,225.983592 L111.402148,225.161654 L109.273819,225.161654 L108.973757,225.983592 L107.859922,225.983592 L109.702478,221.21254 L110.973489,221.21254 Z M104.489159,221.21254 L104.489159,225.08953 L106.503179,225.08953 L106.503179,225.983592 L103.475344,225.983592 L103.475344,221.21254 L104.489159,221.21254 Z M121.064685,221.141097 C121.821984,221.141097 122.450685,221.369715 122.92153,221.80654 L122.692911,222.107963 C122.518726,222.337942 122.206416,222.397819 121.951942,222.264458 C121.646437,222.10388 121.308272,222.028355 120.993922,222.028355 C120.536685,222.028355 120.293777,222.228396 120.293777,222.514849 C120.293777,222.836685 120.69386,222.936705 121.243633,223.065303 C122.029509,223.244252 123.029035,223.480355 123.029035,224.539076 C123.029035,225.412045 122.407819,226.069324 121.121839,226.069324 C120.208045,226.069324 119.550767,225.762458 119.101014,225.311344 L119.303777,225.029654 C119.484087,224.780623 119.822932,224.722107 120.085571,224.881324 C120.382911,225.061633 120.749654,225.182746 121.17219,225.182746 C121.729447,225.182746 122.000932,224.918066 122.000932,224.646581 C122.000932,224.288685 121.586561,224.167571 121.036107,224.038293 C120.257715,223.859344 119.25819,223.645014 119.25819,222.579489 C119.25819,221.785447 119.944045,221.141097 121.064685,221.141097 L121.064685,221.141097 Z M115.993571,221.141097 C116.75019,221.141097 117.378891,221.369715 117.850416,221.80654 L117.621798,222.107963 C117.447612,222.337942 117.134623,222.397819 116.880148,222.264458 C116.574643,222.10388 116.237159,222.028355 115.922128,222.028355 C115.464891,222.028355 115.221984,222.228396 115.221984,222.514849 C115.221984,222.836685 115.622066,222.936705 116.171839,223.065303 C116.957715,223.244252 117.957241,223.480355 117.957241,224.539076 C117.957241,225.412045 117.336025,226.069324 116.050726,226.069324 C115.136252,226.069324 114.479654,225.762458 114.029221,225.311344 L114.232664,225.029654 C114.412293,224.780623 114.751138,224.722107 115.014458,224.881324 C115.311798,225.061633 115.67786,225.182746 116.100396,225.182746 C116.657654,225.182746 116.929138,224.918066 116.929138,224.646581 C116.929138,224.288685 116.514767,224.167571 115.964994,224.038293 C115.186602,223.859344 114.186396,223.645014 114.186396,222.579489 C114.186396,221.785447 114.872252,221.141097 115.993571,221.141097 L115.993571,221.141097 Z M99.8630351,221.134293 C100.951695,221.134293 101.560664,221.705839 101.897468,222.299839 L101.451118,222.519612 C101.234746,222.625757 100.968705,222.593777 100.798602,222.422313 C100.569303,222.192334 100.242025,222.035159 99.8630351,222.035159 C99.0322515,222.035159 98.4021897,222.700602 98.4021897,223.602148 C98.4021897,224.503695 99.0322515,225.168458 99.8630351,225.168458 C100.242025,225.168458 100.569303,225.015365 100.798602,224.784705 C100.970066,224.61188 101.238829,224.57854 101.457922,224.684004 L101.897468,224.896973 C101.553179,225.490973 100.951695,226.069324 99.8630351,226.069324 C98.4661485,226.069324 97.3563959,225.068437 97.3563959,223.602148 C97.3563959,222.135179 98.4661485,221.134293 99.8630351,221.134293 L99.8630351,221.134293 Z"/>
    <mask id="providerapi\-g" fill="#fff">
      <use xlink:href="#providerapi\-f"/>
    </mask>
    <polygon fill="#FFF" points="89.134 251.753 162.619 251.753 162.619 239.505 89.134 239.505" mask="url(#providerapi\-g)"/>
    <polygon stroke="#000" stroke-width=".68" points="89.134 251.753 162.619 251.753 162.619 239.505 89.134 239.505" mask="url(#providerapi\-g)"/>
    <polygon fill="#FFF" points="64.639 251.753 83.01 251.753 83.01 239.505 64.639 239.505" mask="url(#providerapi\-g)"/>
    <polygon stroke="#000" stroke-width=".68" points="64.639 251.753 83.01 251.753 83.01 239.505 64.639 239.505" mask="url(#providerapi\-g)"/>
    <polygon fill="#000" points="71.633 243.777 71.633 247.48 75.336 245.629" mask="url(#providerapi\-g)"/>
    <g mask="url(#providerapi\-g)">
      <g transform="translate(93.216 242.907)">
        <line x1=".191" x2="45.95" y1=".87" y2=".87" fill="#FFF"/>
        <line x1=".191" x2="45.95" y1=".87" y2=".87" stroke="#000" stroke-width=".68"/>
      </g>
    </g>
    <g mask="url(#providerapi\-g)">
      <g transform="translate(93.216 246.31)">
        <line x1=".191" x2="25.538" y1=".87" y2=".87" fill="#FFF"/>
        <line x1=".191" x2="25.538" y1=".87" y2=".87" stroke="#000" stroke-width=".68"/>
      </g>
    </g>
    <polygon fill="#FFF" points="89.134 270.124 162.619 270.124 162.619 257.876 89.134 257.876" mask="url(#providerapi\-g)"/>
    <polygon stroke="#000" stroke-width=".68" points="89.134 270.124 162.619 270.124 162.619 257.876 89.134 257.876" mask="url(#providerapi\-g)"/>
    <polygon fill="#FFF" points="64.639 270.124 83.01 270.124 83.01 257.876 64.639 257.876" mask="url(#providerapi\-g)"/>
    <polygon stroke="#000" stroke-width=".68" points="64.639 270.124 83.01 270.124 83.01 257.876 64.639 257.876" mask="url(#providerapi\-g)"/>
    <polygon fill="#000" points="71.633 262.148 71.633 265.852 75.336 264" mask="url(#providerapi\-g)"/>
    <g mask="url(#providerapi\-g)">
      <g transform="translate(93.216 261.278)">
        <line x1=".191" x2="45.95" y1=".87" y2=".87" fill="#FFF"/>
        <line x1=".191" x2="45.95" y1=".87" y2=".87" stroke="#000" stroke-width=".68"/>
      </g>
    </g>
    <g mask="url(#providerapi\-g)">
      <g transform="translate(93.216 264.68)">
        <line x1=".191" x2="25.538" y1=".87" y2=".87" fill="#FFF"/>
        <line x1=".191" x2="25.538" y1=".87" y2=".87" stroke="#000" stroke-width=".68"/>
      </g>
    </g>
    <polygon fill="#FFF" points="89.134 288.495 162.619 288.495 162.619 276.247 89.134 276.247" mask="url(#providerapi\-g)"/>
    <polygon stroke="#000" stroke-width=".68" points="89.134 288.495 162.619 288.495 162.619 276.247 89.134 276.247" mask="url(#providerapi\-g)"/>
    <polygon fill="#FFF" points="64.639 288.495 83.01 288.495 83.01 276.247 64.639 276.247" mask="url(#providerapi\-g)"/>
    <polygon stroke="#000" stroke-width=".68" points="64.639 288.495 83.01 288.495 83.01 276.247 64.639 276.247" mask="url(#providerapi\-g)"/>
    <polygon fill="#000" points="71.633 280.519 71.633 284.223 75.336 282.371" mask="url(#providerapi\-g)"/>
    <g mask="url(#providerapi\-g)">
      <g transform="translate(93.216 279.65)">
        <line x1=".191" x2="45.95" y1=".87" y2=".87" fill="#FFF"/>
        <line x1=".191" x2="45.95" y1=".87" y2=".87" stroke="#000" stroke-width=".68"/>
      </g>
    </g>
    <g mask="url(#providerapi\-g)">
      <g transform="translate(93.216 283.052)">
        <line x1=".191" x2="25.538" y1=".87" y2=".87" fill="#FFF"/>
        <line x1=".191" x2="25.538" y1=".87" y2=".87" stroke="#000" stroke-width=".68"/>
      </g>
    </g>
  </g>
</svg>
