<svg xmlns="http://www.w3.org/2000/svg" xmlns:xlink="http://www.w3.org/1999/xlink" viewBox="0 0 520 80"><defs><style>.cls-1{fill:#f4940b;}.cls-2{fill:url(#linear-gradient);}.cls-3{fill:#ffaf00;}.cls-4{fill:#14232e;}</style><linearGradient id="linear-gradient" x1="77.18" y1="40" x2="17.7" y2="40" gradientUnits="userSpaceOnUse"><stop offset="0" stop-color="#ffaf00"/><stop offset="1" stop-color="#cc5f0e"/></linearGradient></defs><title>Artboard 5</title><g id="LOGO"><rect class="cls-1" x="26.25" y="22.5" width="27.5" height="57.5"/><path class="cls-2" d="M53.75,22.5h0c0-12.43,7.57-22.5,20-22.5H80V56.25A23.75,23.75,0,0,1,56.25,80H28.75l-9.15-18L26.25,22.5Z"/><path class="cls-3" d="M23.75,80h0A23.75,23.75,0,0,1,0,56.25V0H6.25c12.43,0,20,10.07,20,22.5h0v35c0,12.43,12.57,22.5,25,22.5H23.75Z"/><path class="cls-4" d="M120,40c0-11.88,8.87-20,20-20a17.63,17.63,0,0,1,15.83,8.7l-.29.14a8.62,8.62,0,0,1-8.83-.74A11.76,11.76,0,0,0,140,26c-7.36,0-13,5.85-13,14s5.68,14,13,14a11.78,11.78,0,0,0,6.74-2.07,8.6,8.6,0,0,1,8.82-.73l.27.13A17.7,17.7,0,0,1,140,60C128.87,60,120,51.88,120,40Z"/><path class="cls-4" d="M172.07,20.64h6.78V53.33H195.9v6H172.07Z"/><path class="cls-4" d="M237.63,51.88H219.31l-2.84,7.42h-7.42l15.18-38.66h8.47L247.89,59.3h-7.42Zm-16.41-6h14.49l-7.24-19.53Z"/><path class="cls-4" d="M260.11,53.86a6.23,6.23,0,0,1,8-1.93,16.42,16.42,0,0,0,8,2c5.57,0,7.77-2.72,7.77-5.27,0-3.48-4.11-4.53-8.81-5.74-6.32-1.57-13.74-3.42-13.74-11.6,0-6.37,5.63-11.3,14.09-11.3,6,0,10.9,1.91,14.49,5.39l-.26.33a6.32,6.32,0,0,1-7.73,1.84,16.72,16.72,0,0,0-7.08-1.53c-4,0-6.55,1.91-6.55,4.81s3.94,4,8.52,5.16c6.38,1.62,14,3.59,14,12,0,6.43-4.52,11.94-14.95,11.94-7.14,0-12.29-2.49-15.71-6.14Z"/><path class="cls-4" d="M305.6,53.86a6.24,6.24,0,0,1,8-1.93,16.4,16.4,0,0,0,8,2c5.57,0,7.77-2.72,7.77-5.27,0-3.48-4.12-4.53-8.81-5.74-6.32-1.57-13.74-3.42-13.74-11.6,0-6.37,5.62-11.3,14.08-11.3,6,0,10.9,1.91,14.5,5.39l-.26.33a6.34,6.34,0,0,1-7.74,1.84,16.68,16.68,0,0,0-7.08-1.53c-4,0-6.55,1.91-6.55,4.81s4,4,8.53,5.16c6.37,1.62,14,3.59,14,12,0,6.43-4.52,11.94-15,11.94-7.13,0-12.29-2.49-15.71-6.14Z"/><path class="cls-4" d="M353.59,20.64h17c8.12,0,12.64,5.56,12.64,12.11s-4.58,12.12-12.64,12.12h-10.2V59.3h-6.78Zm16.06,6h-9.28V38.9h9.28c3.82,0,6.6-2.44,6.6-6.15S373.47,26.61,369.65,26.61Z"/><path class="cls-4" d="M400.52,20.64H427a6,6,0,0,1-6,6H407.3v10h13.81v6H407.3V53.33H421a6,6,0,0,1,6,6H400.52Z"/><path class="cls-4" d="M458.29,44.87h-6.73V59.3h-6.78V20.64h17c7.66,0,12.64,5,12.64,12.11,0,6.9-4.52,10.61-9.16,11.37l9.45,15.18h-7.82Zm2.55-18.26h-9.28V38.9h9.28c3.82,0,6.6-2.44,6.6-6.15S464.66,26.61,460.84,26.61Z"/><path class="cls-4" d="M501.51,26.61H489.8a6,6,0,0,1,6-6H520a6,6,0,0,1-6,6h-5.74V59.3h-6.78Z"/></g></svg>