<svg id="ilustra" xmlns="http://www.w3.org/2000/svg" viewBox="0 0 777.62 404.32"><defs><style>.cls-1{fill:#a1adb6;}.cls-2{fill:#e0e6ed;}.cls-3{fill:#c98200;}.cls-4{fill:#f4d03e;}.cls-5{fill:#3c484f;}.cls-6{fill:#c1ccd3;}.cls-7{fill:#c96a0d;}.cls-8{fill:#e09410;}.cls-9{fill:#7c320d;}.cls-10{fill:none;stroke:#36203f;stroke-miterlimit:10;stroke-width:3px;}</style></defs><title>500</title><path class="cls-1" d="M365.14,400,122.54,259.89c-4.55-2.63-7-6.06-7.49-9.71,0-.28-.07-6.33-.08-6.61-.22-5.1,3.42,1.25,10.72-3L362,104.19c13-7.48,32.56-8.3,43.78-1.82L648.36,242.44c5.18,3,7.66-4.19,7.57,0,0,.17,0,5.54,0,5.71-.34,4.74-4,9.67-10.69,13.56L408.91,398.13C396,405.61,376.36,406.43,365.14,400Z"/><path class="cls-2" d="M365.49,394.59l-35.41-20.44L122.89,254.53c-5.07-2.93-7.57-6.85-7.57-11,0-5,3.62-10.22,10.72-14.31L362.34,92.83c13-7.48,32.56-8.29,43.78-1.81L648.71,231.08c5.24,3,7.73,7.11,7.57,11.36-.19,4.85-3.81,9.93-10.71,13.91L409.26,392.78C396.3,400.26,376.71,401.07,365.49,394.59Z"/><path class="cls-3" d="M82.62,366.81,2.5,320.55A4.47,4.47,0,0,1,0,317.35c0-.09,0-5.07,0-5.16-.07-1.69,1.13.41,3.54-1l78-45.06c4.28-2.47,10.75-2.73,14.45-.59l80.12,46.25c1.71,1,2.53-1.39,2.5,0,0,.06,0,4.81,0,4.87-.11,1.56-1.31,3.19-3.53,4.47l-78,45.06C92.79,368.68,86.32,369,82.62,366.81Z"/><path class="cls-4" d="M82.62,362.06,2.5,315.8A4.31,4.31,0,0,1,0,312.19c0-1.65,1.2-3.38,3.54-4.73l78-45.06c4.28-2.47,10.75-2.73,14.45-.59l80.12,46.25c1.73,1,2.55,2.35,2.5,3.75-.06,1.6-1.26,3.28-3.54,4.59l-78,45.06C92.79,363.93,86.32,364.2,82.62,362.06Z"/><path class="cls-5" d="M90.54,318.13c-9.69-5.59-.2-12.84-7.08-16.81-3.14-1.81-8.35-1.58-12,.54a8.79,8.79,0,0,0-4.34,5.75L56.62,307s-.2-5.43,7.74-10c7.55-4.36,19.23-5.71,27.11-1.16,11,6.36.67,13.8,7.88,18l2.61,1.5L93.74,320Zm9,5.21,8.22-4.75,7.87,4.55-8.21,4.75Z"/><path class="cls-1" d="M681.59,232.31l-80.12-46.25a4.48,4.48,0,0,1-2.47-3.2c0-.09,0-5.08,0-5.17-.07-1.68,1.13.42,3.54-1l78-45.06c4.28-2.47,10.75-2.74,14.45-.6l80.12,46.26c1.71,1,2.53-1.39,2.5,0,0,.05,0,4.81,0,4.86-.11,1.57-1.31,3.2-3.53,4.48l-78,45.06C691.76,234.19,685.29,234.45,681.59,232.31Z"/><path class="cls-2" d="M681.59,227.56l-80.12-46.25a4.32,4.32,0,0,1-2.5-3.62c0-1.64,1.2-3.37,3.54-4.72l78-45.06c4.28-2.47,10.75-2.74,14.45-.6l80.12,46.26a4.23,4.23,0,0,1,2.5,3.75c-.06,1.6-1.26,3.27-3.54,4.59L696,227C691.76,229.44,685.29,229.7,681.59,227.56Z"/><path class="cls-6" d="M337.33,236.79c30.65,15.93,48.79,18.38,68.79,18.38s46.24-13.21,47.57-26.54-42.31-28.31-62-30.67S321.62,228.61,337.33,236.79Z"/><path class="cls-4" d="M438.36,37.15c-3.44,13.59-28.5,11-28.5-1.5s15.5-15.5,15.5-15.5S441.56,24.51,438.36,37.15Z"/><path class="cls-7" d="M387.86,222.15s9.7,10,44-18.21c29.52-24.29,39.93-73.07,1-112-53.94-53.94,11-81.15,5.52-54.79,6.5-26-43-42.21-63-35.71s-41,29.5-10.5,80.5S408.86,219.65,387.86,222.15Z"/><path class="cls-8" d="M352,144.1c-3,25-18.5,57-20,74.5s5.57,19.39,9.5,18.5,5-5,9.5-8,23,4,28-9S352,144.1,352,144.1Z"/><path class="cls-4" d="M409.36,211.65l1.85,6.64a133.72,133.72,0,0,0,20.63-14.35,67.26,67.26,0,0,0,22.27-34C445.36,200.15,409.36,211.65,409.36,211.65Z"/><path class="cls-8" d="M327.88,119.92c-8.58,0-16.29-5.06-22.95-15a6.5,6.5,0,0,1,10.81-7.21c4.18,6.26,8.38,9.34,12.4,9.26,7.41-.22,15-10.39,17.09-13.94a6.5,6.5,0,0,1,11.21,6.57c-1.19,2-12.1,19.9-27.92,20.36Z"/><path class="cls-8" d="M382.5,225.6c-23.66.34-41.63-12.1-36-44,7.5-42.5-1.83-67.83-2.5-88.83-.66-17.67,33-16.67,33-4.33s36,48.09,36,93.38C413,206.1,382.5,225.6,382.5,225.6Z"/><path class="cls-8" d="M415.66,125c-7.12,0-15-2.91-23.55-8.67a80.72,80.72,0,0,1-11-8.94,6.5,6.5,0,1,1,9.19-9.19c4,4,16.66,14.32,26.1,13.78a10,10,0,0,0,7.58-4.17,6.5,6.5,0,1,1,10.17,8.1,23,23,0,0,1-17,9C416.63,125,416.14,125,415.66,125Z"/><path class="cls-4" d="M375,177.1c.5-35-3-43-14.5-45-7.38-1.28-10,7.74-11.1,17.14a184.84,184.84,0,0,1-2.9,32.36c-5.63,31.9,12.34,44.34,36,44C378.5,221.6,374.5,212.1,375,177.1Z"/><path class="cls-8" d="M413,181.82c-1,43.78,2,57.69,3,64.28,1.75,11-18,12.5-19,2.5s-28.3-19.57-25-53c4-40.5,8-47,24-47S413,181.82,413,181.82Z"/><path class="cls-8" d="M328.89,43.89V67.41c0,27.69,0,41.53,27.69,41.53s27.68-13.84,27.68-41.53V43.89l-13.84,9.68H342.74Z"/><path class="cls-9" d="M373.92,78.46c0,2.07-.85,1.76-1.88,1.76s-1.89.31-1.89-1.76.85-3.77,1.89-3.77S373.92,76.38,373.92,78.46Z"/><path class="cls-9" d="M342.84,78.46c0,2.07-.85,1.76-1.88,1.76s-1.89.31-1.89-1.76.85-3.77,1.89-3.77S342.84,76.38,342.84,78.46Z"/><path class="cls-9" d="M359.7,89.17c0,2.28-1.84,6.12-4.11,6.12s-4.12-3.84-4.12-6.12,1.84-2.11,4.12-2.11S359.7,86.9,359.7,89.17Z"/><path class="cls-10" d="M328,67.79h17.92a4.62,4.62,0,0,1,4.62,4.62v2.93a10.88,10.88,0,0,1-10.88,10.88h-5.4a10.88,10.88,0,0,1-10.88-10.88V72.41A4.62,4.62,0,0,1,328,67.79Z"/><path class="cls-10" d="M366.78,67.79h17.92a4.62,4.62,0,0,1,4.62,4.62v2.93a10.88,10.88,0,0,1-10.88,10.88H373a10.88,10.88,0,0,1-10.88-10.88V72.41A4.62,4.62,0,0,1,366.78,67.79Z"/><path class="cls-8" d="M342.74,53.57a10.91,10.91,0,0,1-10.92,10.91c-6,0-.91-4.88-.91-10.91s-5.11-10.91.91-10.91A10.92,10.92,0,0,1,342.74,53.57Z"/><path class="cls-8" d="M382.25,53.57c0,6,5.11,10.91-.92,10.91a10.91,10.91,0,1,1,0-21.82C387.36,42.66,382.25,47.55,382.25,53.57Z"/><line class="cls-10" x1="349.34" y1="73.76" x2="363.3" y2="73.76"/></svg>