<svg id="ilustra" xmlns="http://www.w3.org/2000/svg" viewBox="0 0 777.62 387.26"><defs><style>.cls-1{fill:#a1adb6;}.cls-2{fill:#e0e6ed;}.cls-3{fill:#ab3a47;}.cls-4{fill:#ca4d5d;}.cls-5{fill:#fff;}.cls-6{fill:#c1ccd3;}.cls-7{fill:#f4d03e;}.cls-8{fill:#e09410;}.cls-9{fill:#c96a0d;}.cls-10{fill:#7c320d;}.cls-11,.cls-12{fill:none;}.cls-11{stroke:#36203f;stroke-miterlimit:10;stroke-width:3px;}.cls-12{stroke:#e09410;stroke-linecap:round;stroke-linejoin:round;stroke-width:13px;}</style></defs><title>404</title><path class="cls-1" d="M82.62,349.75,2.5,303.49A4.48,4.48,0,0,1,0,300.29c0-.09,0-5.07,0-5.17-.07-1.68,1.13.42,3.54-1l78-45.06c4.28-2.47,10.75-2.74,14.45-.6l80.12,46.26c1.71,1,2.53-1.39,2.5,0,0,.05,0,4.81,0,4.86-.11,1.57-1.31,3.2-3.53,4.48l-78,45.06C92.79,351.62,86.32,351.88,82.62,349.75Z"/><path class="cls-2" d="M82.62,345,2.5,298.74A4.32,4.32,0,0,1,0,295.12c0-1.64,1.2-3.37,3.54-4.72l78-45.06c4.28-2.47,10.75-2.74,14.45-.6L176.15,291c1.73,1,2.55,2.34,2.5,3.75-.06,1.6-1.26,3.28-3.54,4.59l-78,45.06C92.79,346.87,86.32,347.13,82.62,345Z"/><path class="cls-1" d="M365.14,382.89,122.54,242.82c-4.55-2.63-7-6-7.49-9.7,0-.28-.07-6.33-.08-6.61-.22-5.1,3.42,1.25,10.72-3L362,87.12c13-7.48,32.56-8.29,43.78-1.81L648.36,225.37c5.18,3,7.66-4.19,7.57,0,0,.17,0,5.54,0,5.71-.34,4.74-4,9.67-10.69,13.56L408.91,381.07C396,388.55,376.36,389.36,365.14,382.89Z"/><path class="cls-2" d="M365.49,377.53l-35.41-20.44L122.89,237.47c-5.07-2.93-7.57-6.85-7.57-11,0-5,3.62-10.22,10.72-14.32L362.34,75.77c13-7.48,32.56-8.29,43.78-1.82L648.71,214c5.24,3,7.73,7.11,7.57,11.36-.19,4.85-3.81,9.93-10.71,13.91L409.26,375.72C396.3,383.2,376.71,384,365.49,377.53Z"/><path class="cls-3" d="M681.59,215.25,601.47,169a4.48,4.48,0,0,1-2.47-3.2c0-.1,0-5.08,0-5.17-.07-1.68,1.13.41,3.54-1l78-45.05c4.28-2.47,10.75-2.74,14.45-.6l80.12,46.25c1.71,1,2.53-1.38,2.5,0,0,.06,0,4.81,0,4.87-.11,1.57-1.31,3.19-3.53,4.48l-78,45.05C691.76,217.12,685.29,217.39,681.59,215.25Z"/><path class="cls-4" d="M681.59,210.5l-80.12-46.25a4.32,4.32,0,0,1-2.5-3.62c0-1.64,1.2-3.37,3.54-4.73l78-45.05c4.28-2.47,10.75-2.74,14.45-.6l80.12,46.25c1.73,1,2.55,2.35,2.5,3.75-.06,1.61-1.26,3.28-3.54,4.6L696,209.9C691.76,212.37,685.29,212.64,681.59,210.5Z"/><polygon class="cls-5" points="721.47 153.84 693.68 153.84 693.68 137.79 682.57 137.79 682.57 153.84 654.78 153.84 654.78 160.26 682.57 160.26 682.57 176.3 693.68 176.3 693.68 160.26 721.47 160.26 721.47 153.84"/><path class="cls-6" d="M413.14,222.4s6.79,10.5-41.21,27.83-100-14-56-47.33S413.14,222.4,413.14,222.4Z"/><path class="cls-7" d="M231.15,108.51c16.91,13.65,49.67-13.61,37-20.94S214.16,94.79,231.15,108.51Z"/><path class="cls-8" d="M408.45,141.87c-4.27,23.54,3.77,20.76,8.25,36.64s-5.69,36.93-3.56,43.89c2.95,9.61-14.07,17.46-17.84,7-1-2.75-2.34-6.9-5.39-13.88-3.91-9-42.52-6.42-48.71-30.25s-8.09-48.34,6.31-77.11c12.79-25.53,37.94-39.32,37.63-56.32s15.1,4.1,15.1,4.1S419.59,80.48,408.45,141.87Z"/><path class="cls-9" d="M389.91,215.5s-16.56,24.59-56.72,25.1c-31.69.41-74.91-36.37-65.77-90.66,12.67-75.22-56-59.71-36.27-41.43-20.37-17.41,1.55-53.08,33.19-62.09,20.22-5.77,72.1-6.42,72.1,53,0,29.3.59,64.63,10.45,78.48S376.48,170.23,389.91,215.5Z"/><path class="cls-8" d="M382.43.84,378.52,24C373.93,51.31,371.63,65,399,69.54s29.63-9.06,34.23-36.34L437.08,10l-15.27,7.25-27.33-4.58Z"/><path class="cls-10" d="M421.13,42.36c-.35,2-1.12,1.6-2.15,1.43s-1.91,0-1.56-2,1.45-3.57,2.48-3.4S421.47,40.32,421.13,42.36Z"/><path class="cls-10" d="M390.45,37.22c-.34,2-1.12,1.59-2.15,1.42s-1.91,0-1.56-2,1.45-3.56,2.48-3.39S390.8,35.17,390.45,37.22Z"/><path class="cls-10" d="M405.32,50.57c-.38,2.24-2.83,5.72-5.08,5.35s-3.42-4.47-3.05-6.71,2.17-1.78,4.42-1.41S405.7,48.33,405.32,50.57Z"/><path class="cls-11" d="M375.87,25.6h17.94a4.62,4.62,0,0,1,4.62,4.62v2.92A10.88,10.88,0,0,1,387.55,44h-5.42a10.88,10.88,0,0,1-10.88-10.88V30.22a4.62,4.62,0,0,1,4.62-4.62Z" transform="translate(11.07 -63.2) rotate(9.52)"/><path class="cls-11" d="M414.19,32h17.94a4.62,4.62,0,0,1,4.62,4.62v2.92a10.88,10.88,0,0,1-10.88,10.88h-5.42a10.88,10.88,0,0,1-10.88-10.88V36.65A4.62,4.62,0,0,1,414.19,32Z" transform="translate(12.66 -69.45) rotate(9.52)"/><path class="cls-8" d="M394.48,12.68a10.91,10.91,0,0,1-12.58,8.94c-5.95-1-.09-5,.91-10.9S379.58-.88,385.53.12A10.89,10.89,0,0,1,394.48,12.68Z"/><path class="cls-8" d="M433.48,19.22c-1,5.94,3.24,11.6-2.71,10.6a10.91,10.91,0,1,1,3.62-21.51C440.34,9.31,434.48,13.28,433.48,19.22Z"/><line class="cls-11" x1="397.65" y1="33.67" x2="411.43" y2="35.98"/><path class="cls-12" d="M410.47,75.33s-.37,19.62,20,22.94c21.78,3.56,29.44-13.5,29.44-13.5"/><path class="cls-7" d="M411.27,95.36c-5.76-14.3-28.64-5.78-24.14,15.12,4.38,20.28,9.52,30.56,21.27,50.42-1.36-3.93-1.74-9.17.05-19,3.34-18.41,3.94-33.51,3.14-45.63C411.49,95.94,411.38,95.64,411.27,95.36Z"/><path class="cls-12" d="M380.36,68.56S364,100.42,340.13,61.74"/><path class="cls-7" d="M365.63,233.91c16.88-7.44,24.28-18.41,24.28-18.41-1-3.44-2.08-6.49-3.17-9.21C385.39,213.7,380.58,224.28,365.63,233.91Z"/></svg>