<?xml version="1.0" encoding="UTF-8"?>
<svg width="540px" height="312px" viewBox="0 0 540 312" version="1.1" xmlns="http://www.w3.org/2000/svg" xmlns:xlink="http://www.w3.org/1999/xlink">
    <!-- Generator: Sketch 55.2 (78181) - https://sketchapp.com -->
    <title>5000</title>
    <desc>Created with Sketch.</desc>
    <g id="Desktop" stroke="none" stroke-width="1" fill="none" fill-rule="evenodd">
        <g id="9.0-D-ERROR-505" transform="translate(-429.000000, -157.000000)">
            <g id="5000" transform="translate(429.000000, 158.000000)">
                <g id="Group-57" transform="translate(2.751310, 112.016063)">
                    <path d="M211.000397,2.03396204 C209.367058,2.03396204 207.561407,6.98662036 207.681555,11.576753 C207.802132,16.1668857 198.241543,9.09484654 198.241543,9.09484654 L199.611495,0.209321032 L211.000397,2.03396204 Z" id="Fill-1" fill="#534C5B"></path>
                    <path d="M183.202557,37.3061219 C183.202557,37.3061219 186.974629,38.7557955 189.021433,39.1183212 C191.068237,39.4804178 200.859716,33.4521952 200.859716,33.4521952 L195.081033,28.0048717 L183.202557,37.3061219 Z" id="Fill-3" fill="#7D7886"></path>
                    <path d="M183.202557,34.890371 L183.202557,37.3062077 C192.151713,38.3933556 202.478945,27.1477666 202.478945,27.1477666 L183.202557,34.890371 Z" id="Fill-5" fill="#534C5B"></path>
                    <path d="M184.808018,16.6627092 L186.413136,28.0048288 L179.992235,25.5894211 L179.992235,19.7319502 C179.992235,19.7319502 180.955563,16.9166917 184.808018,16.6627092" id="Fill-7" fill="#7D7886"></path>
                    <path d="M193.907809,20.7572757 C193.907809,20.7572757 189.783843,29.2931463 184.005587,25.7502623 C178.226476,22.2069494 183.2026,16.5944514 184.808146,16.6626663 C178.226476,15.2807786 174.21368,28.1660991 179.992363,34.2861329 C185.771046,40.4065958 201.593479,28.8104938 203.634297,24.1397045 C205.675114,19.4684863 193.907809,20.7572757 193.907809,20.7572757" id="Fill-9" fill="#D9E0EE"></path>
                    <path d="M21.9230798,143.659783 C34.8345778,156.896474 52.2364741,163.937195 71.8848521,163.937195 C94.0593462,163.937195 106.690355,151.263812 106.690355,135.773455 C106.690355,118.594029 94.3398358,107.046836 73.008093,107.046836 C57.5700511,107.046836 44.9390426,111.833891 33.7113369,122.537193 L5.92405887,114.931876 L5.92405887,7.62856965 L134.477633,7.62856965 L134.477633,41.9887093 L44.9390426,41.9887093 L44.9390426,89.0218023 C54.7634454,80.2907256 69.9201425,73.2500053 87.0419768,73.2500053 C118.759529,73.2500053 147.109069,96.0633807 147.109069,134.084386 C147.109069,173.794461 117.355799,198.860214 72.1657692,198.860214 C39.6058931,198.860214 16.0285236,188.158628 0.0295027111,170.696904 L21.9230798,143.659783 Z" id="Fill-11" fill="#E53953"></path>
                    <path d="M298.761513,4.4979353 C265.594052,9.63550316 206.484301,6.7434493 206.484301,6.7434493 L237.472837,49.7977695 L288.423592,23.946901 L298.761513,4.4979353 Z" id="Fill-13" fill="#BB1F36"></path>
                    <path d="M197.208991,180.971525 C174.57357,149.965499 180.212436,109.048149 180.212436,109.048149 L228.433976,126.117745 L197.208991,180.971525 Z" id="Fill-15" fill="#BB1F36"></path>
                    <path d="M336.553075,29.1655544 C336.553075,29.1655544 336.967823,66.9643251 333.962394,78.681412 C330.957394,90.3989279 310.191761,51.0552402 310.191761,51.0552402 C310.191761,51.0552402 323.010047,25.6685761 336.553075,29.1655544" id="Fill-17" fill="#BB1F36"></path>
                    <path d="M351.179193,153.196782 C357.435051,129.781914 348.484612,106.119499 351.862031,92.0462102 C355.237312,77.9797854 351.391271,69.2765953 351.391271,69.2765953 L304.859082,132.001687 L351.179193,153.196782" id="Fill-19" fill="#BB1F36"></path>
                    <polygon id="Fill-21" fill="#BB1F36" points="160.513904 66.0399061 204.456268 33.4520665 216.421541 62.5244797 198.505699 85.0512668"></polygon>
                    <path d="M275.702065,190.751953 C289.862939,169.249676 298.827488,144.295468 298.827488,144.295468 L258.582797,140.29696 L262.063261,183.519458 L275.702065,190.751953 Z" id="Fill-23" fill="#BB1F36"></path>
                    <path d="M299.785342,161.12451 C303.318826,163.781888 306.014262,167.389984 307.130662,171.62231 C307.931084,174.658516 311.174671,176.353592 314.077482,175.179781 C326.169745,170.289331 343.072661,167.479221 349.567105,157.857489 C355.752413,148.693098 338.157252,124.19623 341.064338,112.862691 C345.598777,95.1808774 356.762346,87.858288 351.391142,69.2763808 C350.073355,64.7162798 346.063551,61.3728923 341.339269,61.1107583 C340.13992,61.0442595 338.925606,60.8155895 337.72198,60.4101614 C331.395145,58.2787679 327.509767,51.7159808 328.6732,45.1223039 C329.378699,41.124225 333.442377,31.1352486 336.552989,29.1655973 C323.539728,11.3134607 310.806956,-5.84322728 279.24718,9.23784039 C250.139548,23.1472423 217.126442,-0.917168482 198.241714,9.09497524 C191.351334,12.7476895 188.97487,21.5963189 193.170241,28.1857055 C196.920506,34.0753532 198.319533,41.4502836 196.446324,48.7531379 C192.863669,62.7234612 178.672437,71.1331986 164.749723,67.5379737 C163.271595,67.1565709 161.85974,66.648177 160.513733,66.0398203 L159.558101,69.7637526 C157.288103,78.613669 162.735415,87.5300843 162.885066,96.243571 C162.948775,99.928462 162.147071,103.577315 161.344512,107.18112 C159.87408,113.784236 164.598789,120.248347 171.330966,120.633182 C173.112245,120.734861 174.912766,121.040326 176.704735,121.56674 C188.731579,125.098469 196.029438,137.573213 193.245066,149.832158 C193.106104,150.444376 192.944481,151.045868 192.762334,151.635348 C189.690631,161.570696 191.346631,172.393696 197.209974,180.972898 C202.124527,188.163777 207.511551,194.39836 217.719917,197.034286 C232.648716,200.8895 258.717568,195.372675 274.468596,191.676629 C275.889857,191.343277 276.438864,189.61345 275.477674,188.511287 C271.430671,183.870958 269.763982,177.287578 271.731257,170.875807 C274.070095,163.251614 281.056679,158.135926 288.721398,157.869073 C294.285438,157.634396 298.687328,160.299067 299.785342,161.12451" id="Fill-25" fill="#E53953"></path>
                    <path d="M263.591331,66.4886228 L264.960855,68.5324953 C266.694674,66.7863657 268.003055,64.5704544 268.659811,62.0108945 C270.299563,55.615856 267.360409,49.1204257 261.899842,46.0078533 C267.204344,52.0300696 263.591331,66.4886228 263.591331,66.4886228" id="Fill-27" fill="#BA2BFC"></path>
                    <path d="M341.339098,61.1107154 C340.139749,61.0442166 338.925435,60.8159756 337.721809,60.4101185 C331.394974,58.278296 327.509168,51.7159379 328.673456,45.121832 C329.378528,41.1237531 333.442206,31.1347767 336.553246,29.1655544 C323.539557,11.3134178 310.807213,-5.84327019 279.247009,9.23779748 C254.010218,21.2972459 225.838978,4.81541339 206.483916,6.7434493 C245.887139,7.58991455 237.481004,49.8037759 266.165335,69.384452 C294.857363,88.9711345 327.274002,84.6542905 342.139092,123.739276 C340.926916,119.566156 340.316338,115.778299 341.06374,112.862648 C345.599033,95.1808345 356.762175,87.8582451 351.391399,69.2763379 C350.073611,64.7162369 346.063808,61.3728494 341.339098,61.1107154" id="Fill-29" fill="#FF6464"></path>
                    <path d="M240.453381,54.3665797 C242.415952,46.7140705 250.189703,42.1072058 257.816367,44.0768571 C265.44346,46.0456504 270.035621,53.846173 268.072622,61.4986822 C266.11005,69.1516205 258.335872,73.7584851 250.709207,71.7888338 C243.082115,69.8196115 238.490809,62.0195179 240.453381,54.3665797" id="Fill-31" fill="#E53953"></path>
                    <path d="M305.207727,90.077417 C306.594354,84.6699928 312.087417,81.4149842 317.476151,82.8063105 C322.865313,84.1980659 326.110184,89.709743 324.723129,95.1167383 C323.336074,100.524163 317.843439,103.7796 312.454277,102.387845 C307.065542,100.996089 303.820672,95.4848412 305.207727,90.077417" id="Fill-33" fill="#FF6464"></path>
                    <path d="M256.373086,89.0802784 C255.655187,92.5081838 257.507444,96.0424872 261.002446,96.9447257 C264.26271,97.7864716 268.124144,95.7164286 268.839906,92.2996779 C269.557805,88.8722015 267.70512,85.337898 264.210546,84.4356596 C260.949855,83.5934846 257.08842,85.6635276 256.373086,89.0802784" id="Fill-35" fill="#FF6464"></path>
                    <path d="M210.494318,104.564929 C215.047142,105.740456 216.875883,98.6426758 212.315362,97.4650036 C207.762111,96.2894766 205.933798,103.387257 210.494318,104.564929" id="Fill-37" fill="#FF6464"></path>
                    <path d="M325.472455,103.60134 C330.025279,104.776867 331.85402,97.6790868 327.293499,96.5014147 C322.740247,95.3258877 320.911934,102.423668 325.472455,103.60134" id="Fill-39" fill="#E53953"></path>
                    <path d="M238.006109,142.434746 C241.47503,143.33055 242.868071,137.922267 239.393592,137.025606 C235.924672,136.129803 234.531631,141.537227 238.006109,142.434746" id="Fill-41" fill="#FF6464"></path>
                    <path d="M212.909863,174.027121 C215.294452,174.6432 216.252221,170.925274 213.863357,170.308337 C211.478341,169.692258 210.520999,173.410612 212.909863,174.027121" id="Fill-43" fill="#FF6464"></path>
                    <path d="M266.3952,126.400773 C268.129874,126.848674 268.826394,124.144533 267.088727,123.695773 C265.354054,123.247872 264.657961,125.952013 266.3952,126.400773" id="Fill-45" fill="#FF6464"></path>
                    <path d="M257.739746,141.216789 C259.47442,141.66469 260.17094,138.960549 258.433701,138.512219 C256.699027,138.064317 256.002934,140.768029 257.739746,141.216789" id="Fill-47" fill="#FF6464"></path>
                    <path d="M267.909245,35.3076402 C272.895631,36.5955716 274.898394,28.8216484 269.903457,27.5315719 C264.917071,26.2440695 262.914308,34.0179926 267.909245,35.3076402" id="Fill-49" fill="#E53953"></path>
                    <path d="M290.698122,47.418786 C294.383823,48.3703623 295.86409,42.6244377 292.171975,41.6715744 C288.486274,40.7195691 287.006435,46.4650647 290.698122,47.418786" id="Fill-51" fill="#E53953"></path>
                    <path d="M303.605558,22.3347129 C305.339805,22.7826144 306.036753,20.0789023 304.299086,19.6301427 C302.564412,19.1822412 301.868319,21.8863823 303.605558,22.3347129" id="Fill-53" fill="#E53953"></path>
                    <path d="M458.978204,39.6355605 C431.955685,39.6355605 421.822241,66.4344961 421.822241,101.131333 C421.822241,135.829024 431.955685,162.909982 458.978204,162.909982 C485.719308,162.909982 495.851901,135.829024 495.851901,101.131333 C495.851901,66.4344961 485.719308,39.6355605 458.978204,39.6355605 M458.978204,4.09180328 C512.459562,4.09180328 536.666667,52.611995 536.666667,101.131333 C536.666667,149.651525 512.459562,198.452459 458.978204,198.452459 C405.215006,198.452459 381.288889,149.651525 381.288889,101.131333 C381.288889,52.611995 405.215006,4.09180328 458.978204,4.09180328" id="Fill-55" fill="#E53953"></path>
                </g>
                <polygon id="Fill-58" fill="#BFB4C6" points="287.446229 79.3225114 275.794368 77.0237984 276.616169 90.7362781 287.446229 88.629768"></polygon>
                <polygon id="Fill-59" fill="#7D7886" points="284.756779 83.8800382 276.755558 83.8800382 276.755558 90.735849 287.446229 88.629768"></polygon>
                <path d="M222.557068,119.644504 C236.220244,123.323388 239.626738,133.077259 260.54416,131.596267 C281.46201,130.115704 287.528452,131.596267 287.528452,131.596267 L305.434032,129.507776 C319.50426,129.507776 310.218602,120.551032 305.350655,120.984776 C300.483135,121.41852 275.505456,120.610238 275.505456,120.610238 L222.557068,119.644504 Z" id="Fill-60" fill="#851C2F"></path>
                <path d="M211.997962,107.043626 C211.997962,107.043626 218.378672,105.593953 225.240832,108.855826 C232.102991,112.11727 237.746133,119.278546 237.746133,119.278546 L234.707354,119.278546 L210.948265,110.063529 L211.997962,107.043626 Z" id="Fill-62" fill="#7D7886"></path>
                <path d="M209.23544,110.063529 L211.998005,107.043626 C211.998005,107.043626 217.897265,106.92307 223.796097,111.030122 C229.695356,115.137173 233.700456,119.553979 234.707396,119.278546 C235.714337,119.002683 233.700456,119.553979 233.700456,119.553979 L209.23544,110.063529 Z" id="Fill-64" fill="#534C5B"></path>
                <path d="M245.700021,127.003303 C233.50856,124.520538 224.095057,115.467693 214.856006,115.467693 C205.617381,115.467693 205.417703,119.421583 205.417703,119.421583 C205.417703,119.421583 200.042652,120.304515 196.690459,124.726899 C196.106819,117.070099 203.898528,109.393136 208.67027,108.339023 C225.721982,108.735012 230.492015,119.796979 238.964851,122.002594 C247.437688,124.208208 245.700021,127.003303 245.700021,127.003303" id="Fill-66" fill="#D9E0EE"></path>
                <path d="M305.977309,112.465895 L308.549176,112.029577 C311.438304,118.277889 305.605746,127.356047 304.401694,127.703127 C303.55937,126.962631 302.657613,126.582516 302.657613,126.582516 L305.977309,112.465895 Z" id="Fill-68" fill="#000000"></path>
                <path d="M272.382572,76.4090064 C273.859846,76.0640707 276.309853,75.9546695 277.971839,78.6931326 C280.006244,82.0446716 279.979734,87.928313 277.532719,91.1657315 C275.089553,94.3984308 273.771765,93.0118238 272.22779,92.7479737 C270.342609,92.5995313 269.35491,91.0091376 269.35491,91.0091376 L270.015087,77.2426009 C270.015087,77.2426009 271.159279,76.4501927 272.382572,76.4090064" id="Fill-70" fill="#000000"></path>
                <path d="M291.363334,123.319742 C297.216843,128.730598 302.657741,126.582473 302.657741,126.582473 C308.827228,119.606964 306.751777,112.817223 305.977438,112.465852 C297.316895,109.947907 292.397639,119.14705 292.397639,119.14705 L291.363334,123.319742 Z" id="Fill-72" fill="#534C5B"></path>
                <path d="M268.527295,98.1296136 C282.841241,97.3749596 288.25905,114.313703 293.082102,116.564794 C292.916203,120.379251 290.317826,123.58578 290.317826,123.58578 C287.264082,121.806615 267.85087,124.961661 263.767096,121.608406 C259.64142,118.219542 268.527295,98.1296136 268.527295,98.1296136" id="Fill-74" fill="#7D7886"></path>
                <path d="M267.0224,97.0838665 C284.724882,98.2079106 286.258595,121.922666 268.991813,125.437235 C267.598772,107.676909 267.0224,97.0838665 267.0224,97.0838665" id="Fill-76" fill="#000000"></path>
                <path d="M280.450538,116.400435 L292.397425,119.14705" id="Stroke-78" stroke="#D9E0EE" stroke-width="0.521125889" stroke-linecap="round" stroke-linejoin="round"></path>
                <path d="M295.997739,118.451301 L293.979583,123.912782 C293.484023,125.253913 291.985371,125.944642 290.649197,125.447403 C289.312596,124.950163 288.625055,123.446433 289.120187,122.105731 L291.138344,116.643821 C291.633904,115.303119 293.132556,114.612819 294.469157,115.109629 C295.80533,115.606869 296.493299,117.110599 295.997739,118.451301" id="Fill-80" fill="#F87D00"></path>
                <path d="M240.420062,70.9510859 C240.420062,70.9510859 236.263173,78.5388125 235.792412,80.6650577 C235.792412,80.6650577 237.574547,89.2815848 234.752976,96.0524488 C230.736331,105.693486 229.238107,117.773957 236.220415,123.323388 C247.847476,132.565433 265.933921,130.342657 275.505627,120.610238 C277.644359,116.107626 276.329565,106.964686 274.524341,101.79537 C272.718689,96.6251964 275.518026,87.3235172 275.79424,77.0234981 C276.070454,66.7234789 261.727005,73.7101422 261.727005,73.7101422 L240.420062,70.9510859" id="Fill-82" fill="#FFFFFF"></path>
                <path d="M248.172348,77.7467475 C244.564038,85.3241774 246.420999,98.0850809 242.713919,105.184149" id="Stroke-84" stroke="#D9E0EE" stroke-width="0.521125889" stroke-linecap="round" stroke-linejoin="round"></path>
                <path d="M252.470252,114.378486 C259.695851,109.425828 258.995909,91.1257894 264.104154,89.5328216 C269.212827,87.9394247 269.136718,88.2320194 271.281865,87.04877 C273.426583,85.8650915 274.220164,91.2107362 274.516046,97.5126764 C274.811073,103.815046 270.621688,116.415923 271.063373,119.421668 C271.531996,122.610178 272.904941,122.91264 272.904941,122.91264 C272.904941,122.91264 271.316498,126.088708 264.583894,127.810383 C251.248241,131.221128 249.463113,129.20171 249.463113,129.20171 L249.463113,113.825473 L252.470252,114.378486 Z" id="Fill-86" fill="#D9E0EE"></path>
                <path d="M255.510015,129.870731 C255.510015,129.870731 265.26686,128.811469 269.69697,126.172969 C274.126653,123.534039 274.765878,123.171943 274.765878,123.171943 L274.217299,121.527492 L254.23755,127.499941 L255.510015,129.870731 Z" id="Fill-88" fill="#000000"></path>
                <path d="M228.536455,86.0218141 C228.536455,86.0218141 231.999817,79.546548 235.944629,80.8730916 C239.50505,82.0700699 240.772384,86.2895254 240.927167,90.5372965 C241.081094,94.7850676 239.571752,98.1190167 238.41174,99.5227847 C236.694169,101.600979 232.624933,99.9509511 230.299777,97.1138124 C227.975049,94.2771027 228.536455,86.0218141 228.536455,86.0218141" id="Fill-90" fill="#E53953"></path>
                <path d="M235.792284,80.6648861 C236.042415,71.6326342 238.790871,67.5749209 238.790871,67.5749209 L274.584928,67.700196 C276.346539,72.8729439 275.794539,77.0237555 275.794539,77.0237555 C258.871528,87.9630211 240.608494,83.6174324 235.792284,80.6648861" id="Fill-92" fill="#1A106A"></path>
                <path d="M268.167362,88.3261474 L268.603489,80.8937277 L275.794454,77.0234981 C275.794454,77.0234981 275.706801,82.1705045 275.233475,84.4400438 C272.793729,86.54827 268.167362,88.3261474 268.167362,88.3261474" id="Fill-94" fill="#BFB4C6"></path>
                <path d="M268.40535,84.2638435 L268.167191,88.3262761 C268.167191,88.3262761 272.793985,86.5488278 275.233304,84.4401726 L274.396538,84.2638435 L268.40535,84.2638435 Z" id="Fill-96" fill="#7D7886"></path>
                <path d="M268.225384,80.9016217 L268.225384,87.3369886 C270.426115,86.8830807 273.670558,84.8829687 274.396581,84.2638864 C274.902403,81.8115826 275.034524,78.7933956 275.069158,77.4136529 L271.98249,79.3052217 L268.225384,80.9016217 Z" id="Fill-98" fill="#534C5B"></path>
                <path d="M273.002215,80.2270666 L271.316284,79.6470255 L268.225341,80.901493 L268.225341,82.375192 C268.225341,82.375192 270.622329,82.1297901 273.002215,80.2270666" id="Fill-100" fill="#7D7886"></path>
                <path d="M268.225384,85.7230844 C268.225384,85.7230844 270.446211,84.6578167 272.794028,83.4509709 C272.974465,81.3380254 273.002257,80.2268521 273.002257,80.2268521 C270.416281,81.6164623 268.225384,82.3749775 268.225384,82.3749775 L268.225384,85.7230844 Z" id="Fill-102" fill="#BFB4C6"></path>
                <path d="M290.657236,24.6918672 C288.122568,19.0716468 284.31287,13.9254985 279.267479,9.71762663 C261.464089,-5.13262589 235.033081,-2.68890259 220.233409,15.1748177 C208.043659,29.8886404 207.548098,50.4736629 217.699597,65.5740366 C210.55823,41.3041232 254.595088,-6.74275467 290.657236,24.6918672" id="Fill-104" fill="#100644"></path>
                <path d="M284.706667,68.9517462 C269.906995,86.8158955 243.476415,89.2591898 225.672597,74.4093663 C207.86878,59.5591138 205.433738,33.038967 220.233409,15.1748177 C235.033081,-2.68890259 261.464089,-5.13262589 279.267479,9.71762663 C297.071296,24.5674501 299.506766,51.0871678 284.706667,68.9517462 Z" id="Stroke-106" stroke="#5E18E7" stroke-width="0.521125889"></path>
                <path d="M254.357998,81.1093983 C250.452951,81.1093983 246.8378,80.3920694 243.903776,79.0359231 C240.17318,77.3112448 237.970738,74.7503978 237.702221,71.82488 C237.433703,68.9002203 239.132889,65.9785638 242.485936,63.5996232 C246.455547,60.7830776 252.349676,59.1017308 258.252356,59.1017308 C262.157403,59.1017308 265.772554,59.8190597 268.707005,61.175206 C272.437601,62.8998843 274.640043,65.4603022 274.90856,68.38582 C275.177078,71.3109087 273.477892,74.2325653 270.124418,76.6119349 C266.155234,79.4280514 260.261105,81.1093983 254.357998,81.1093983" id="Fill-108" fill="#000000"></path>
                <path d="M258.252527,58.8873044 C252.307089,58.8873044 246.366782,60.5836671 242.362965,63.424238 C238.944499,65.8499423 237.213246,68.8402427 237.489032,71.84513 C237.765246,74.8495883 240.011727,77.4726438 243.814156,79.230786 C246.7764,80.599803 250.422764,81.3239963 254.358169,81.3239963 C260.304034,81.3239963 266.243486,79.6276336 270.24773,76.7870627 C273.666624,74.3613584 275.39745,71.371058 275.121236,68.3661707 C274.84545,65.3612834 272.599396,62.7386569 268.796112,60.9805147 C265.833868,59.6110686 262.187932,58.8873044 258.252527,58.8873044 M258.252527,59.3163288 C261.97842,59.3163288 265.618798,59.9838909 268.617385,61.3700689 C276.181196,64.8670472 276.800753,71.6121697 270.001019,76.4365497 C265.897149,79.3483387 260.028675,80.8949719 254.358169,80.8949719 C250.632703,80.8949719 246.992325,80.2274098 243.993311,78.8412318 C236.429072,75.3442535 235.809943,68.599131 242.609676,63.774751 C246.713546,60.862533 252.581593,59.3163288 258.252527,59.3163288" id="Fill-110" fill="#5E18E7"></path>
                <path d="M268.227051,66.3277468 C274.210971,59.1046911 247.524272,67.5633372 247.524272,67.5633372 L241.762692,77.5797712 C242.424151,78.0336791 243.164284,78.4575552 243.992926,78.8411031 C250.772563,81.9751267 260.827429,81.4328398 267.736622,77.8131605 C267.736622,77.8131605 262.242704,73.5512316 268.227051,66.3277468" id="Fill-112" fill="#592015"></path>
                <path d="M255.431939,41.2851174 L273.0023,40.8565219 L273.0023,66.7657379 C273.0023,69.1112146 272.151852,71.2580529 270.743419,72.9119422 C269.013021,74.943802 266.439871,76.2321625 263.567419,76.2321625 L255.373789,75.802709 L255.431939,41.2851174 Z" id="Fill-114" fill="#534C5B"></path>
                <path d="M255.431939,46.8624353 L273.0023,46.8628643 L273.0023,64.1915911 C273.0023,66.5370678 272.151852,68.6839062 270.743419,70.3377955 C269.013021,72.3696553 266.439871,73.6580157 263.567419,73.6580157 L255.373789,73.6575867 L255.431939,46.8624353 Z" id="Fill-116" fill="#7D7886"></path>
                <path d="M255.431939,45.1463375 L273.0023,45.1467665 L273.0023,62.4754933 C273.0023,64.82097 272.151852,66.9678084 270.743419,68.6216977 C269.013021,70.6535575 266.439871,71.9419179 263.567419,71.9419179 L255.373789,71.9414889 L255.431939,45.1463375 Z" id="Fill-118" fill="#BFB4C6"></path>
                <path d="M261.744964,63.7129714 C261.744964,67.2434137 258.892607,70.1054358 255.374088,70.1054358 C251.855142,70.1054358 249.002358,67.2434137 249.002358,63.7129714 C249.002358,60.1825292 251.855142,57.320078 255.374088,57.320078 C258.892607,57.320078 261.744964,60.1825292 261.744964,63.7129714" id="Fill-120" fill="#7D7886"></path>
                <path d="M273.002215,50.2242709 L273.002215,32.0126118 C264.188173,32.0126118 263.666103,40.8560929 263.666103,40.8560929 C263.666103,40.8560929 273.002215,40.8565219 273.002215,50.2242709" id="Fill-122" fill="#BFB4C6"></path>
                <path d="M267.978202,56.3274012 C267.978202,58.2730271 266.406435,59.8505501 264.466952,59.8505501 C262.527897,59.8505501 260.955702,58.2730271 260.955702,56.3274012 C260.955702,54.3817753 262.527897,52.8042524 264.466952,52.8042524 C266.406435,52.8042524 267.978202,54.3817753 267.978202,56.3274012" id="Fill-124" fill="#534C5B"></path>
                <path d="M264.466995,54.0913258 C262.747286,54.0913258 261.318756,55.3329225 261.017316,56.9709379 C261.318756,58.6085243 262.747286,59.8505501 264.466995,59.8505501 C266.186704,59.8505501 267.615233,58.6085243 267.917102,56.9709379 C267.615233,55.3329225 266.186704,54.0913258 264.466995,54.0913258" id="Fill-126" fill="#000000"></path>
                <path d="M258.14854,62.4091232 C257.890285,61.5858253 256.906433,60.8594869 255.374003,60.8594869 C253.841572,60.8594869 252.770068,61.6995168 252.599038,62.4091232 C252.599038,63.9467469 253.317364,66.5659412 255.374003,66.5659412 C257.430213,66.5659412 258.14854,63.9467469 258.14854,62.4091232" id="Fill-128" fill="#8E220A"></path>
                <path d="M255.373917,58.6069798 C252.071324,58.6069798 249.356647,61.1279275 249.03511,64.3559075 C249.356647,67.5847455 252.071324,70.1056932 255.373917,70.1056932 C258.676083,70.1056932 261.39076,67.5847455 261.712724,64.3559075 C261.39076,61.1279275 258.676083,58.6069798 255.373917,58.6069798" id="Fill-130" fill="#534C5B"></path>
                <path d="M255.373917,66.5661557 C257.430556,66.5661557 258.148455,63.9469614 258.148455,62.4093377 C257.890199,61.5860398 256.906348,60.8592724 255.373917,60.8592724 L255.373917,66.5661557 Z" id="Fill-132" fill="#000000"></path>
                <path d="M255.373917,76.6608008 L247.180715,76.2317764 C244.599869,76.2317764 242.260604,75.1922501 240.55757,73.507042 C238.821614,71.7900862 237.745834,69.4038521 237.745834,66.7653517 L237.745834,40.8561358 L255.432068,40.4271114 L255.373917,76.6608008 Z" id="Fill-134" fill="#F87D00"></path>
                <path d="M237.746005,50.2242709 L237.746005,32.0121828 C246.560046,32.0121828 247.082116,40.8560929 247.082116,40.8560929 C247.082116,40.8560929 246.560046,50.2242709 237.746005,50.2242709" id="Fill-136" fill="#F87D00"></path>
                <path d="M247.629114,56.6675747 C247.629114,57.4145063 247.025377,58.0198598 246.281395,58.0198598 C245.536559,58.0198598 244.932822,57.4140773 244.932822,56.6675747 C244.932822,55.9206431 245.536559,54.6348569 246.281395,54.6348569 C247.025377,54.6348569 247.629114,55.9206431 247.629114,56.6675747" id="Fill-138" fill="#8E220A"></path>
                <path d="M255.373917,66.5661557 C253.317279,66.5661557 252.59938,63.9469614 252.59938,62.4093377 C252.769982,61.6993023 253.841487,60.8592724 255.373917,60.8592724 L255.373917,66.5661557 Z" id="Fill-140" fill="#8E220A"></path>
                <path d="M264.466995,45.1463375 L264.466995,74.066447" id="Stroke-142" stroke="#534C5B" stroke-width="0.521125889"></path>
                <path d="M265.814841,56.6675747 C265.814841,57.4145063 265.211532,58.0198598 264.467123,58.0198598 C263.722287,58.0198598 263.118978,57.4145063 263.118978,56.6675747 C263.118978,55.9206431 263.722287,54.6348569 264.467123,54.6348569 C265.211532,54.6348569 265.814841,55.9206431 265.814841,56.6675747" id="Fill-144" fill="#E53953"></path>
                <path d="M208.670484,95.5957094 C220.064089,102.637288 225.124446,95.0075168 231.188322,96.8776344 C232.236737,97.0882854 233.344585,96.5095314 234.191612,95.1297888 C235.691547,92.6856365 235.806137,88.6566678 234.446447,86.1305718 C233.640467,84.6324184 232.497558,84.0069008 231.387572,84.2497286 C226.197232,85.9285013 222.060012,89.4027413 216.869672,86.0168803 C214.701437,87.2649125 208.670484,95.5957094 208.670484,95.5957094" id="Fill-146" fill="#FFFFFF"></path>
                <g id="Group-151" transform="translate(208.415136, 85.845571)">
                    <path d="M0.255348102,9.75013849 C3.17568892,4.85539847 8.45453633,0.171309465 8.45453633,0.171309465" id="Fill-148" fill="#FFFFFF"></path>
                    <path d="M0.255348102,9.75013849 C3.17568892,4.85539847 8.45453633,0.171309465 8.45453633,0.171309465" id="Stroke-150" stroke="#878EA0" stroke-width="0.521125889"></path>
                </g>
                <path d="M217.644952,89.4247074 C216.876599,92.190199 214.008423,95.0114639 211.238161,95.7266476 C208.467471,96.4418314 206.843967,94.7797906 207.611893,92.014728 C208.380246,89.2492364 211.248423,86.4275425 214.019112,85.7123588 C216.789374,84.997175 218.412878,86.6592157 217.644952,89.4247074" id="Fill-152" fill="#D9E0EE"></path>
                <path d="M216.030299,89.8398744 C215.510367,91.7129951 213.566609,93.6247281 211.689552,94.1095257 C209.811641,94.5947524 208.711489,93.4694213 209.231421,91.5963005 C209.751352,89.7231797 211.694683,87.8110177 213.572595,87.3262201 C215.450079,86.8409934 216.550658,87.9667536 216.030299,89.8398744" id="Fill-154" fill="#878EA0"></path>
                <path d="M230.242567,90.6275633 C223.357746,94.9581361 220.167178,93.6062801 219.712665,93.8426725 C219.25858,94.079065 217.970295,97.5185541 214.676253,98.2178639 C220.717895,99.6829824 224.648597,96.8660079 228.541244,96.5961515 C230.599593,94.1996209 230.637219,90.7206616 230.242567,90.6275633" id="Fill-156" fill="#D9E0EE"></path>
                <path d="M219.688037,94.22858 C222.675934,89.3612976 219.355383,87.1664085 219.355383,87.1664085" id="Stroke-158" stroke="#D9E0EE" stroke-width="0.521125889" stroke-linecap="round" stroke-linejoin="round"></path>
                <path d="M230.124001,91.2400815 C230.206523,88.2643678 228.162712,86.4126983 227.250265,85.8832821" id="Stroke-160" stroke="#D9E0EE" stroke-width="0.521125889" stroke-linecap="round" stroke-linejoin="round"></path>
                <path d="M274.943408,97.5128909 C274.647953,91.2109507 273.425942,85.865306 271.281651,87.0485554 C269.977973,87.7680295 269.49353,87.9422134 268.167191,88.3261903 C268.038918,96.6552711 269.362692,101.245404 270.266159,105.71498 C271.168771,110.184557 270.988334,118.519644 270.988334,118.519644 L276.445053,118.519644 C277.400257,115.62802 277.115491,112.509012 276.698178,109.667154 C276.256064,106.661837 275.238435,103.814831 274.943408,97.5128909" id="Fill-162" fill="#BFB4C6"></path>
                <path d="M273.905382,97.5610704 C273.792075,90.9742579 271.891074,87.3344144 269.809209,87.7805999 C269.333745,87.9775221 268.86726,88.1233904 268.167319,88.326319 C268.038619,96.6553998 269.36282,101.245532 270.26586,105.715109 C270.807598,108.396941 270.95896,112.468812 270.993593,115.298657 C270.993593,115.298657 276.22498,123.133073 276.22498,116.400392 C276.22498,109.667282 274.088385,108.227476 273.905382,97.5610704" id="Fill-164" fill="#534C5B"></path>
                <path d="M268.828778,98.4631372 L273.29737,96.7611972 L268.424719,95.2398765 C268.535034,96.3926652 268.673141,97.4609361 268.828778,98.4631372" id="Fill-166" fill="#7D7886"></path>
                <path d="M271.590061,105.151114 C271.590061,110.184429 275.782011,110.794072 272.622228,113.408547" id="Stroke-168" stroke="#F87D00" stroke-width="0.521125889"></path>
                <path d="M271.090225,106.983263 C271.090225,111.947934 273.322597,110.365691 270.861045,112.902513" id="Stroke-170" stroke="#BB1F36" stroke-width="0.521125889"></path>
                <path d="M273.297413,96.761283 L268.828821,98.463223 C269.257252,101.212841 269.814383,103.478948 270.265902,105.715023 C270.411278,106.435784 270.528006,107.259082 270.6225,108.130002 L273.297413,107.111069 L273.297413,96.761283 Z" id="Fill-172" fill="#BFB4C6"></path>
                <path d="M256.503828,98.1254092 C255.898381,98.4154297 255.173213,98.157157 254.8846,97.5492293 C254.595986,96.9417307 254.853387,96.2145342 255.458834,95.9249427 C256.064708,95.6349222 256.789449,95.8931949 257.078062,96.5011226 C257.366676,97.1086212 257.109703,97.8358177 256.503828,98.1254092" id="Fill-174" fill="#D9E0EE"></path>
                <polygon id="Fill-176" fill="#A24502" points="289.862202 130.286327 292.927491 123.031094 297.069415 117.508691 295.284287 116.70427 287.821384 128.680059"></polygon>
                <path d="M289.32692,128.475543 L291.642669,128.858233 C293.953715,126.777035 296.294691,123.72281 296.931778,120.185503 L294.752426,118.006917 L297.069457,117.50882 C297.031831,117.03818 296.960853,116.561534 296.851821,116.080597 C294.940131,114.400538 293.045972,113.825645 293.045972,113.825645 L291.673027,115.323369 L283.41184,127.797684 L283.704302,129.574275 C285.694666,131.410928 287.528537,131.596267 287.528537,131.596267 C288.137405,131.375748 288.95835,130.924844 289.862244,130.286455 L289.32692,128.475543 Z" id="Fill-178" fill="#E53953"></path>
                <path d="M276.697579,122.821558 C281.331642,127.960413 284.239584,128.561048 284.239584,128.561048 C292.279714,123.884252 293.303329,115.83704 292.677786,115.259573 C285.244386,110.138308 278.903013,117.269553 278.903013,117.269553 L276.697579,122.821558 Z" id="Fill-180" fill="#FFFFFF"></path>
                <path d="M258.60827,128.160896 C247.842773,136.017192 231.32211,125.356364 238.324514,110.135005 C244.310144,97.1248383 259.823439,105.402865 262.915665,108.810177 C266.008319,112.217061 264.094063,124.157669 258.60827,128.160896" id="Fill-182" fill="#E53953"></path>
                <path d="M258.60827,128.160896 C247.89622,130.870615 238.785441,122.441142 241.625825,114.518348 C244.292613,107.082496 253.938717,105.436758 260.739306,106.760299 C269.325878,108.431778 274.504245,115.835453 277.644359,116.107454 C279.281974,118.494546 278.109989,121.280202 276.697707,122.821687 C272.104263,121.64616 266.416226,126.185668 258.60827,128.160896" id="Fill-184" fill="#FFFFFF"></path>
                <path d="M241.696076,120.715392 C247.840336,127.153333 256.777519,124.756802 265.346988,121.067192 C273.916029,117.377581 277.342619,120.539492 277.342619,120.539492" id="Stroke-186" stroke="#D9E0EE" stroke-width="0.521125889" stroke-linecap="round" stroke-linejoin="round"></path>
                <path d="M280.769979,117.315459 L279.208901,122.925811 C278.825366,124.303409 277.388712,125.115981 276.016195,124.731146 C274.64325,124.34674 273.833849,122.904789 274.217384,121.527192 L275.778463,115.916839 C276.161998,114.53967 277.598652,113.727527 278.971169,114.111933 C280.344114,114.496768 281.153087,115.93829 280.769979,117.315459" id="Fill-188" fill="#E53953"></path>
                <path d="M245.700021,88.9529521 C245.700021,88.9529521 255.058794,91.7905198 264.104154,89.5329932 C273.103764,87.2866211 275.388727,84.2641438 275.388727,84.2641438" id="Stroke-190" stroke="#D9E0EE" stroke-width="0.521125889" stroke-linecap="round" stroke-linejoin="round"></path>
                <path d="M211.31568,92.6692048 C211.31568,92.6692048 203.610769,93.3766662 203.610769,86.0167516 C203.610769,78.6568371 209.550221,78.4955239 211.31568,78.6568371 C213.081567,78.8177213 212.628337,80.8937706 212.628337,80.8937706 C219.172808,79.462116 221.58861,91.8634969 211.31568,92.6692048" id="Fill-192" fill="#FFFFFF"></path>
                <path d="M184.544621,89.5021892 C190.288243,80.5896352 194.621721,79.2656657 197.832385,80.8938135 C201.042622,82.5219613 203.572587,86.323547 197.893529,97.2272036 C189.324915,93.3132134 184.544621,89.5021892 184.544621,89.5021892" id="Fill-194" fill="#E53953"></path>
                <path d="M190.834642,99.1477315 L186.389139,96.5439821 C183.951531,95.1166177 183.122034,91.9474141 184.544578,89.5024037 L184.585625,89.4320437 C186.008169,86.9866043 189.166242,86.1538678 191.603422,87.5816612 L196.048925,90.1854107 C198.486533,91.613204 199.31603,94.7819787 197.893486,97.226989 L197.852439,97.2977781 C196.429895,99.7427885 193.271822,100.575525 190.834642,99.1477315" id="Fill-196" fill="#FFFFFF"></path>
                <path d="M189.514759,92.3897383 C189.116686,93.0834709 188.233742,93.3224375 187.542353,92.9230157 C186.850963,92.524023 186.612804,91.6380875 187.010876,90.9439259 C187.408522,90.2501933 188.291893,90.0112267 188.983282,90.4106485 C189.674672,90.8096412 189.912832,91.6960058 189.514759,92.3897383" id="Fill-198" fill="#18135F"></path>
                <path d="M195.250257,95.7008633 C194.852184,96.3945958 193.969241,96.6339914 193.277851,96.2345697 C192.586461,95.8351479 192.348302,94.9492124 192.746375,94.2554799 C193.14402,93.5617473 194.027818,93.3227807 194.719208,93.7217734 C195.410598,94.1207662 195.64833,95.0071307 195.250257,95.7008633" id="Fill-200" fill="#18135F"></path>
                <path d="M313.504135,94.9328666 C308.888885,85.3827822 310.008705,80.9784171 313.062022,79.0688293 C316.114484,77.1596704 320.666025,76.9610321 327.010818,87.4884342 C319.231082,92.8087665 313.504135,94.9328666 313.504135,94.9328666" id="Fill-202" fill="#E53953"></path>
                <path d="M324.985607,94.5403092 L320.460575,97.0029096 C317.979782,98.3534786 314.849501,97.4216374 313.503921,94.9328666 L313.465867,94.8616485 C312.119859,92.3724486 313.048553,89.2315606 315.528919,87.8814206 L320.054378,85.4183912 C322.534744,84.0682513 325.665024,85.0000924 327.010604,87.4884342 L327.049086,87.5596523 C328.395094,90.0488522 327.4664,93.1901692 324.985607,94.5403092" id="Fill-204" fill="#FFFFFF"></path>
                <path d="M316.627874,91.4633887 C315.924939,91.8417883 315.660698,92.7208594 316.038247,93.4257466 L319.293379,99.5144616 C319.670929,100.219778 320.546603,100.484915 321.249537,100.106515 C321.952472,99.7281158 322.216713,98.8494737 321.839592,98.1437285 L318.584032,92.0554425 C318.20691,91.3496972 317.331235,91.0849891 316.627874,91.4633887" id="Fill-206" fill="#E53953"></path>
                <path d="M322.459833,88.3240451 C321.756471,88.7024447 321.492657,89.5810868 321.869778,90.286403 L325.125338,96.3751181 C325.50246,97.0804343 326.378135,97.3451424 327.081496,96.9671718 C327.784431,96.5883432 328.048672,95.7097012 327.671123,95.0039559 L324.415563,88.9160989 C324.038441,88.2103537 323.163194,87.9452166 322.459833,88.3240451" id="Fill-208" fill="#E53953"></path>
                <path d="M212.628465,80.8936419 C212.628465,72.2179093 202.343991,71.1843894 197.832642,80.8936419" id="Stroke-210" stroke="#FFFFFF" stroke-width="0.521125889"></path>
                <path d="M298.886824,77.3328247 C298.886824,67.8406586 308.056182,66.6973085 313.489384,79.0690867" id="Stroke-212" stroke="#FFFFFF" stroke-width="0.521125889"></path>
                <path d="M289.080551,80.6095848 C290.271349,82.4123456 290.504805,85.3820528 289.602621,87.2427319 C288.699581,89.102982 287.002534,89.1497456 285.811308,87.3469849 C284.620511,85.5442241 284.387054,82.5745168 285.290094,80.7138377 C286.192706,78.8531587 287.889753,78.806824 289.080551,80.6095848" id="Fill-214" fill="#534C5B"></path>
                <path d="M288.553607,81.6926141 C289.360442,82.9140468 289.518645,84.9261715 288.906784,86.1870743 C288.295351,87.4479772 287.145601,87.480154 286.338766,86.2595795 C285.532358,85.0381468 285.373728,83.0260221 285.985588,81.7651193 C286.597021,80.5037874 287.746772,80.4716105 288.553607,81.6926141" id="Fill-216" fill="#000000"></path>
                <path d="M287.857941,83.2541344 L299.153632,81.3672849 L299.153632,84.9153171 L287.974242,84.3181151 C287.680925,84.3133958 287.446186,84.0731421 287.446186,83.7788314 C287.446186,83.5295681 287.616361,83.3129108 287.857941,83.2541344" id="Fill-218" fill="#7D7886"></path>
                <path d="M300.199182,89.1079586 C300.199182,89.1079586 307.90452,89.81542 307.90452,82.4555054 C307.90452,75.0955909 301.965069,74.9347067 300.199182,75.0955909 C298.433723,75.2564751 298.886953,77.3329534 298.886953,77.3329534 C292.342482,75.9008698 289.926252,88.3026797 300.199182,89.1079586" id="Fill-220" fill="#BFB4C6"></path>
                <path d="M281.341605,83.8800382 C281.341605,86.9514243 282.794507,88.92794 283.593218,89.3891413" id="Stroke-222" stroke="#BFB4C6" stroke-width="0.521125889" stroke-linecap="round" stroke-linejoin="round"></path>
                <path d="M281.782136,83.8800382 C281.782136,81.4753562 282.391431,79.3817168 283.330815,78.5356806" id="Stroke-224" stroke="#7D7886" stroke-width="0.521125889" stroke-linecap="round" stroke-linejoin="round"></path>
                <path d="M271.063502,96.8517643 C271.063502,92.7095331 271.568896,91.7635342 268.199601,91.7867015" id="Stroke-226" stroke="#BFB4C6" stroke-width="0.521125889"></path>
                <path d="M269.617954,96.5601563 C269.617954,92.4174962 270.179361,90.6584959 268.199686,90.6584959" id="Stroke-228" stroke="#D9E0EE" stroke-width="0.521125889" stroke-linecap="round" stroke-linejoin="round"></path>
                <path d="M430.37543,174.654605 C437.839616,199.411461 447.40266,227.645833 497.943369,227.645833" id="Stroke-230" stroke="#FFFFFF" stroke-width="0.521125889"></path>
                <path d="M299.153632,89.1079586 C299.153632,120.273582 332.610561,151.512569 305.350484,192.876962 C278.090834,234.241784 309.695934,279.936947 341.884674,274.428273 C374.072987,268.919599 376.213858,230.224828 370.308185,203.559671 C363.085151,170.944803 365.173858,133.851348 403.411082,139.163958 C405.229988,139.416653 406.914635,139.796769 408.479134,140.294437" id="Stroke-232" stroke="#FFFFFF" stroke-width="0.521125889"></path>
                <path d="M76.7149911,186.639804 C62.2398494,148.799847 18.0438517,146.976394 4.03559842,171.267858 C-1,180 -1,194 8.67532576,200.781308" id="Stroke-234" stroke="#FFFFFF" stroke-width="0.521125889"></path>
                <path d="M212.628465,83.3936532 C212.628465,94.1098261 214.846727,107.866066 214.676125,118.650883 C213.758975,176.516415 187.45966,221.491477 179.455874,233.582673 C149.508912,278.825018 76.9292492,274.659191 78.6220207,219.135275" id="Stroke-236" stroke="#FFFFFF" stroke-width="0.521125889"></path>
                <path d="M291.917857,56.3274012 C291.917857,56.3274012 293.231369,46.5246214 290.657364,36.8612746 C291.815238,33.4788458 291.96831,32.0707875 292.253076,28.7887504" id="Stroke-238" stroke="#5E18E7" stroke-width="0.521125889"></path>
                <path d="M290.657236,36.8612317 C289.287284,29.3717518 283.330729,25.2651297 283.330729,25.2651297 L275.794283,25.2651297 C275.794283,25.2651297 265.450376,13.1850881 259.671693,10.6482665" id="Stroke-240" stroke="#5E18E7" stroke-width="0.521125889"></path>
                <path d="M275.794411,25.265001 L276.61108,18.6211283 C276.61108,18.6211283 272.673537,13.0648325 270.26586,11.7357148" id="Stroke-242" stroke="#5E18E7" stroke-width="0.521125889"></path>
                <path d="M268.333945,17.3607402 C268.333945,17.3607402 258.528356,17.2925253 252.599166,21.5201323" id="Stroke-244" stroke="#5E18E7" stroke-width="0.521125889"></path>
            </g>
        </g>
    </g>
</svg>