<svg id="ilustra" xmlns="http://www.w3.org/2000/svg" viewBox="0 0 919.02 783.94"><defs><style>.cls-1{fill:#4b84b5;}.cls-2{fill:#67bcda;}.cls-3{fill:#f2f2f2;}.cls-4{fill:#c98200;}.cls-5{fill:#f4d03e;}.cls-6{fill:#edaf00;}.cls-7{fill:#73cfeb;}.cls-8,.cls-9{fill:#fff;}.cls-9{stroke:#999;}.cls-10,.cls-9{stroke-linecap:round;stroke-linejoin:round;}.cls-10{fill:none;stroke:#b3b3b3;stroke-dasharray:6;}.cls-11{fill:#5caabc;}.cls-12{fill:#1b1464;}.cls-13{fill:#ca4d5d;}.cls-14{fill:#ab3a47;}.cls-15{fill:#54636f;}.cls-16{fill:#e0e6ed;}.cls-17{fill:#a1adb6;}.cls-18{fill:#248e7e;}.cls-19{fill:#55c9b3;}</style></defs><title>arts-and-design_art</title><path class="cls-1" d="M791,515.82,684.17,454.15a6,6,0,0,1-3.3-4.28c0-.12,0-5.43,0-5.55-.1-2.24,1.51.55,4.72-1.3L789.6,383c5.7-3.3,14.33-3.66,19.27-.8l106.82,61.67c2.28,1.31,3.37-1.85,3.33,0,0,.08,0,5.08,0,5.15-.15,2.09-1.74,4.26-4.7,6L810.26,515C804.55,518.31,795.92,518.67,791,515.82Z"/><path class="cls-2" d="M791,510.82,684.17,449.15c-2.24-1.29-3.34-3-3.34-4.83,0-2.19,1.6-4.5,4.72-6.3L789.6,378c5.7-3.3,14.33-3.66,19.27-.8l106.82,61.67c2.31,1.33,3.4,3.13,3.33,5-.08,2.14-1.68,4.37-4.71,6.13L810.26,510C804.55,513.31,795.92,513.67,791,510.82Z"/><circle class="cls-3" cx="442.88" cy="424.67" r="324"/><polygon class="cls-4" points="633.13 89.67 571.38 167.68 571.38 159.68 633.13 81.67 633.13 89.67"/><polygon class="cls-5" points="565.37 156.2 627.12 78.2 633.13 81.67 571.38 159.68 565.37 156.2"/><polygon class="cls-4" points="565.37 156.2 565.37 164.2 571.38 167.68 571.38 159.68 565.37 156.2"/><polygon class="cls-4" points="575.57 186.82 575.57 194.71 570.63 194.71 570.63 188.57 575.57 186.82"/><polygon class="cls-6" points="523.75 525.03 511.42 517.91 511.42 517.91 612.8 359.14 625.13 366.26 523.75 525.03"/><polygon class="cls-4" points="535.87 518.03 637.25 359.26 625.13 366.26 523.75 525.03 535.87 518.03"/><polygon class="cls-4" points="629.16 513.52 558.55 473.13 565.37 469.2 635.98 509.59 629.16 513.52"/><polygon class="cls-6" points="629.16 521.4 558.55 481.01 558.55 473.13 629.16 513.52 629.16 521.4"/><polygon class="cls-5" points="640.65 595.2 586.01 256.6 609.67 270.26 664.32 608.86 664.32 608.86 640.65 595.2"/><polygon class="cls-6" points="676.44 601.86 664.32 608.86 609.67 270.26 621.8 263.26 676.44 601.86"/><polygon class="cls-4" points="258.14 647.55 551.38 479.18 551.38 471.07 551.38 471.07 258.14 639.45 258.14 647.55"/><polygon class="cls-6" points="258.14 639.45 251.13 635.41 544.38 467.03 544.38 467.03 551.38 471.07 258.14 639.45"/><polygon class="cls-6" points="220.5 700.11 208.17 692.99 208.17 692.99 309.56 534.22 321.88 541.34 220.5 700.11"/><polygon class="cls-4" points="232.62 693.11 334.01 534.34 321.88 541.34 220.5 700.11 232.62 693.11"/><polygon class="cls-4" points="332.88 677.8 262.27 637.41 269.09 633.48 339.7 673.87 332.88 677.8"/><polygon class="cls-6" points="332.88 685.67 262.27 645.29 262.27 637.41 332.88 677.8 332.88 685.67"/><polygon class="cls-5" points="337.4 770.28 282.76 431.68 306.42 445.34 361.07 783.94 361.07 783.94 337.4 770.28"/><polygon class="cls-6" points="373.19 776.94 361.07 783.94 306.42 445.34 318.55 438.34 373.19 776.94"/><polygon class="cls-7" points="701.79 357.82 369.09 549.9 212.45 345.4 319.04 283.86 545.15 153.32 701.79 357.82"/><polygon class="cls-8" points="567.9 377.94 449.86 446.46 350.24 316.39 468.27 247.88 567.9 377.94"/><polygon class="cls-9" points="487.56 353.29 428.48 387.71 378.46 322.63 437.54 288.2 487.56 353.29"/><polygon class="cls-10" points="543.3 372.05 484.22 406.48 434.2 341.39 493.28 306.96 543.3 372.05"/><polygon class="cls-2" points="369.09 563.71 212.45 359.21 212.45 345.4 369.09 549.9 369.09 563.71"/><polygon class="cls-11" points="369.09 563.71 701.79 371.63 701.79 357.82 369.09 549.9 369.09 563.71"/><polygon class="cls-4" points="465.4 234.89 338.1 308.38 319.04 283.86 465.4 204.36 465.4 234.89"/><polygon class="cls-5" points="465.4 204.36 338.1 277.86 319.04 266.86 446.35 193.36 465.4 204.36"/><polygon class="cls-6" points="319.04 266.86 319.04 283.86 338.1 308.38 338.1 277.86 319.04 266.86"/><polygon class="cls-4" points="459.63 204.68 338.13 274.68 324.55 266.83 446.05 196.83 459.63 204.68"/><polygon class="cls-6" points="459.63 204.68 446.05 196.83 446.05 212.5 459.63 204.68"/><path class="cls-6" d="M291.08,286c0,12.44-4.33,60.21-4.71,62.38-.73,4.22-5.64,6.95-13.71,5.87a27.46,27.46,0,0,1-14-6.22c-3.68-3.12-5.57-6.32-5.87-9.1-.46-4.09-5.15-31-5.76-51.9C246.72,277.06,291.08,277.67,291.08,286Z"/><path class="cls-5" d="M279.52,275.69c7.18,2.33,11,6.25,11.56,10.29.62,4.76-3.37,9.68-12,12.35a34,34,0,0,1-19.65.12C251.2,296,247.05,291.51,247,287c0-4.32,3.7-8.65,11.22-11.19A34,34,0,0,1,279.52,275.69Z"/><polygon class="cls-5" points="575.57 184.19 560.25 193.03 552.21 183.23 567.52 174.39 575.57 184.19"/><polygon class="cls-4" points="575.57 186.82 575.57 186.82 560.25 195.67 560.25 193.03 575.57 184.19 575.57 186.82"/><polygon class="cls-6" points="552.21 185.87 560.25 195.67 560.25 193.03 552.21 183.23 552.21 185.87"/><ellipse class="cls-4" cx="269.08" cy="286.94" rx="15.92" ry="9.19"/><path class="cls-6" d="M569,163c0,4.29-1.62,20.75-1.76,21.5-.26,1.46-1.95,2.39-4.74,2a9.49,9.49,0,0,1-4.82-2.18,5.14,5.14,0,0,1-2-3.15,174.06,174.06,0,0,1-1.88-17.91C553.75,159.82,569.05,160.12,569,163Z"/><path class="cls-5" d="M565.07,159.41c2.47.82,3.79,2.18,4,3.58.21,1.64-1.18,3.33-4.15,4.23a11.69,11.69,0,0,1-6.78,0c-2.85-.86-4.27-2.42-4.27-4s1.3-3,3.9-3.84A11.8,11.8,0,0,1,565.07,159.41Z"/><polyline class="cls-6" points="566.99 17.08 627.85 87.93 624.72 91.87 566.99 24.56"/><polyline class="cls-4" points="561.37 21.31 619.1 88.63 624.72 91.87 566.99 24.56"/><path class="cls-4" d="M549.43,31.66,571.58,4.22S573,7.14,575.1,12c3,6.82.21,12.45-6.44,15.55-6,2.78-5.85-2.69-12.17,2.86-3.51,3.08-6.8,14.15-6.8,14.15Z"/><polygon class="cls-5" points="542.12 27.44 564.27 0 571.58 4.22 549.43 31.66 542.12 27.44"/><polygon class="cls-12" points="543.01 25 543.27 37.89 550.58 42.11 550.32 29.21 543.01 25"/><ellipse class="cls-5" cx="542.22" cy="85.26" rx="19.3" ry="25.61" transform="translate(378.22 609.07) rotate(-81.55)"/><path class="cls-13" d="M550.39,18.94c-4.14-2.39-10.82-2.34-15,0-5.84,3.3-4.46,19.11-8.18,23.45S508.81,62.25,508.81,79s25.1,19.84,36.26,19.84,31.61-5.89,31.61-20.46-15.56-30.4-19-34.88C553.76,38.3,555.39,21.84,550.39,18.94Z"/><ellipse class="cls-6" cx="569.99" cy="19.1" rx="4.35" ry="2.51" transform="translate(268.46 503.17) rotate(-60)"/><path class="cls-1" d="M572.3,751.93l-53.41-30.84a3,3,0,0,1-1.65-2.13c0-.07,0-5.72,0-5.78-.05-1.12.75.27,2.36-.65l52-30c2.86-1.65,7.17-1.82,9.64-.4l53.41,30.84c1.14.66,1.69-.93,1.67,0,0,0,0,5.54,0,5.58a4.09,4.09,0,0,1-2.35,3l-52,30C579.08,753.17,574.77,753.35,572.3,751.93Z"/><path class="cls-2" d="M572.3,746.43l-53.41-30.84a2.85,2.85,0,0,1-1.67-2.41c0-1.1.8-2.25,2.36-3.15l52-30c2.86-1.65,7.17-1.82,9.64-.4l53.41,30.84a2.84,2.84,0,0,1,1.67,2.5c0,1.07-.84,2.18-2.36,3.06l-52,30C579.08,747.67,574.77,747.85,572.3,746.43Z"/><path class="cls-14" d="M88.54,338.15,8.43,291.9A4.48,4.48,0,0,1,6,288.69c0-.09,0-5.07,0-5.16-.07-1.69,1.13.41,3.54-1l78-45.05c4.27-2.47,10.75-2.74,14.45-.6l80.11,46.25c1.71,1,2.53-1.38,2.5,0V288c-.12,1.56-1.31,3.19-3.53,4.48l-78,45.05C98.72,340,92.25,340.29,88.54,338.15Z"/><path class="cls-13" d="M88.54,333.4,8.43,287.15a4.29,4.29,0,0,1-2.5-3.62c0-1.65,1.2-3.38,3.54-4.73l78-45.05c4.27-2.47,10.75-2.74,14.45-.6l80.11,46.25c1.73,1,2.56,2.35,2.5,3.75-.06,1.6-1.25,3.28-3.53,4.6L103,332.8C98.72,335.27,92.25,335.54,88.54,333.4Z"/><polygon class="cls-15" points="176.67 250.34 72.17 190.01 102.17 106.67 206.67 167.01 176.67 250.34"/><polygon class="cls-16" points="104.5 292.01 0 231.68 72.17 190.01 176.67 250.34 104.5 292.01"/><polygon class="cls-17" points="127.04 268.35 40.97 218.66 75.02 199 161.09 248.69 127.04 268.35"/><polygon class="cls-17" points="74.27 265.84 45.32 249.13 61.97 239.52 90.92 256.23 74.27 265.84"/><polygon class="cls-17" points="176.67 254.01 104.5 295.68 104.5 292.01 176.67 250.34 176.67 254.01"/><polygon class="cls-17" points="0 235.34 104.5 295.68 104.5 292.01 0 231.68 0 235.34"/><path class="cls-17" d="M179.89,247.45c2.36-2.79,26.3-71.27,26.78-74.77a17.65,17.65,0,0,0,0-5.67l-30,83.33S177.53,250.24,179.89,247.45Z"/><polygon class="cls-16" points="174.83 233.39 82.75 180.23 105.34 117.46 197.43 170.63 174.83 233.39 174.83 233.39"/><path class="cls-1" d="M256.61,292.87a10.38,10.38,0,0,1,1.21.57,18.69,18.69,0,0,0,4.24,1.75l-6.43-39a2.5,2.5,0,0,0-4.94.82Z"/><path class="cls-14" d="M267.49,296.09l-.36-48.23a2.5,2.5,0,0,0-2.5-2.48h0a2.49,2.49,0,0,0-2.48,2.51l.36,47.41A25.69,25.69,0,0,0,267.49,296.09Z"/><path class="cls-18" d="M275.13,295.45l1.25-36.69a2.5,2.5,0,0,0-5-.17l-1.28,37.52A25.93,25.93,0,0,0,275.13,295.45Z"/><path class="cls-13" d="M294.18,260.29a2.5,2.5,0,0,0-3.44.84l-21.24,35a26.33,26.33,0,0,0,6.38-.88L295,263.72A2.49,2.49,0,0,0,294.18,260.29Z"/><path class="cls-19" d="M331.63,270.92v-30.5a1.5,1.5,0,1,0-3,0v28.77Z"/><path class="cls-2" d="M335.71,273.27l2.67-30a1.5,1.5,0,0,0-3-.27l-2.55,28.58Z"/><path class="cls-19" d="M343,271.86l2.11-33.34a1.5,1.5,0,0,0-3-.19l-2.23,35.32Z"/><path class="cls-13" d="M348.81,268.52l2.92-24.17a1.5,1.5,0,0,0-3-.36l-3.19,26.4Z"/><path class="cls-13" d="M356.32,264.2l2.83-1.64-3.53-31a1.5,1.5,0,0,0-3,.34Z"/><path class="cls-2" d="M361.93,261l2.44-20.23a1.5,1.5,0,1,0-3-.36l-2.71,22.47Z"/><path class="cls-19" d="M367.69,257.65l2.83-1.64-3.35-29.44a1.5,1.5,0,0,0-3,.34Z"/><path class="cls-19" d="M379,251.15l-.62-24.55a1.5,1.5,0,0,0-3,.07l.66,26.19Z"/><path class="cls-13" d="M384.62,247.89l.07-28.81a1.5,1.5,0,0,0-3,0l-.07,30.55Z"/><path class="cls-2" d="M390.93,244.26l2.37-26.61a1.5,1.5,0,0,0-3-.27l-2.56,28.71Z"/><path class="cls-2" d="M398.32,240l2.84-1.64-2.72-24.54a1.5,1.5,0,1,0-3,.33Z"/><path class="cls-19" d="M406.47,235.31v-27.2a1.5,1.5,0,0,0-3,0V237Z"/><path class="cls-2" d="M411.77,232.25l2.8-1.61-3.22-22a1.5,1.5,0,1,0-3,.43Z"/><path class="cls-13" d="M419.63,227.72V201.17a1.5,1.5,0,1,0-3,0v28.28Z"/><path class="cls-19" d="M425,224.65V203.17a1.5,1.5,0,1,0-3,0v23.21Z"/><path class="cls-13" d="M429.82,221.85l2.79-1.61-4.36-28.18a1.5,1.5,0,0,0-3,.46Z"/><path class="cls-19" d="M436.59,218l2.07-33.84a1.5,1.5,0,0,0-3-.19l-2.17,35.32a1.42,1.42,0,0,0,.06.46Z"/><path class="cls-13" d="M443.61,213.91l2.56-21.27a1.5,1.5,0,1,0-3-.36l-2.83,23.5Z"/><path class="cls-19" d="M451.11,209.59,454,185.7a1.5,1.5,0,1,0-3-.36l-3.15,26.12Z"/></svg>