<?xml version="1.0" encoding="UTF-8"?>
<svg width="255px" height="178px" viewBox="0 0 255 178" version="1.1" xmlns="http://www.w3.org/2000/svg" xmlns:xlink="http://www.w3.org/1999/xlink">
    <!-- Generator: sketchtool 57.1 (101010) - https://sketch.com -->
    <title>9938A275-D1A3-491C-B63D-1F727D9E3E5B</title>
    <desc>Created with sketchtool.</desc>
    <defs>
        <polygon id="path-1" points="0.219232225 0.118456181 8.41913025 0.118456181 8.41913025 5.47466208 0.219232225 5.47466208"></polygon>
        <polygon id="path-3" points="0 0.308133221 82.8677871 0.308133221 82.8677871 48.1519225 0 48.1519225"></polygon>
        <polygon id="path-5" points="0 0.349776822 2.74560826 0.349776822 2.74560826 15.8524536 0 15.8524536"></polygon>
        <polygon id="path-7" points="0 0.34981361 33.7320161 0.34981361 33.7320161 22.181067 0 22.181067"></polygon>
        <polygon id="path-9" points="0.32586486 0.118456181 72.7905138 0.118456181 72.7905138 109.995025 0.32586486 109.995025"></polygon>
    </defs>
    <g id="Pages---Home-SEO" stroke="none" stroke-width="1" fill="none" fill-rule="evenodd">
        <g id="page/desktop/d-home-seo" transform="translate(-975.000000, -2228.000000)">
            <g id="Group-2" transform="translate(240.000000, 387.000000)">
                <g id="illustration-04" transform="translate(735.000000, 1842.000000)">
                    <path d="M254.98563,124.157631 C254.307859,153.678978 229.826082,177.061251 200.304735,176.383479 C170.783387,175.705708 147.401115,151.224347 148.078886,121.703 C148.756657,92.1812369 173.238018,68.7989645 202.759782,69.4767357 C232.281129,70.1545068 255.663401,94.6358676 254.98563,124.157631" id="planetshadow" fill="#DEE7ED"></path>
                    <path d="M45,57 C31,36.3333333 32,19.6666667 48,7 C72,-12 97,11 108,49 C119,87 209,115 225,79 C241,43 217,36 209,49" id="Path-5" stroke="#9DAFB7" stroke-dasharray="4,4"></path>
                    <g id="planet" transform="translate(125.215054, 43.870968)">
                        <path d="M124.490208,64.1891936 C123.700839,98.5616351 95.1967919,125.786173 60.8243503,124.996803 C26.4519087,124.207433 -0.772628821,95.7033866 0.01674083,61.330945 C0.80569546,26.9585034 29.3101573,-0.266034111 63.6821838,0.52333554 C98.0550404,1.31270519 125.279163,29.816752 124.490208,64.1891936" id="Fill-1" fill="#FFAF00"></path>
                        <path d="M27.2189087,114.224314 L27.2189087,114.224314 C36.8141907,120.769608 48.347205,124.710646 60.8243918,124.996595 C95.1968334,125.785965 123.70088,98.5618426 124.49025,64.1889861 C124.512661,63.212857 124.509341,62.2421233 124.48693,61.2755397 C95.328395,128.708127 27.2189087,114.224314 27.2189087,114.224314" id="Fill-4" fill="#DD8307"></path>
                    </g>
                    <g id="platform" transform="translate(66.720430, 85.913978)">
                        <polygon id="Fill-1" fill="#243F52" points="0 36.5211705 60.3822131 71.3820916 120.764426 36.5220005 120.764426 34.8619172 0 34.8610871"></polygon>
                        <polygon id="Fill-2" fill="#9DAFB7" points="60.3822961 0 8.30041694e-05 34.8609211 60.3822961 69.7226723 120.764509 34.8617512"></polygon>
                    </g>
                    <g id="platform-copy" transform="translate(0.000000, 47.526882)">
                        <polygon id="Fill-1" fill="#243F52" points="0 36.5211705 60.3822131 71.3820916 120.764426 36.5220005 120.764426 34.8619172 0 34.8610871"></polygon>
                        <polygon id="Fill-2" stroke="#979797" fill="#9DAFB7" points="60.3822961 0 8.30041681e-05 34.8609211 60.3822961 69.7226723 120.764509 34.8617512"></polygon>
                    </g>
                    <g id="Group-43" transform="translate(85.000000, 0.000000)">
                        <polygon id="Fill-1" fill="#471CAF" points="0 79.1144919 33.7320529 98.5894974 82.8678239 70.2210815 49.1354031 50.7457082"></polygon>
                        <polygon id="Fill-2" fill="#FFFFFF" points="32.9804448 95.7869787 32.9804448 95.7869787 78.3454832 69.595287 78.3454832 61.0417943 32.9804448 87.2334859"></polygon>
                        <polygon id="Fill-3" fill="#FFFFFF" points="32.9804448 95.7869787 30.9486638 94.613821 4.79707066 79.5154404 4.79707066 70.9619476 32.9804448 87.2334859"></polygon>
                        <polygon id="Fill-4" fill="#741CE5" points="4.79696029 79.5152564 2.74568183 80.6994504 2.74568183 71.4414744 4.79696029 70.2572805"></polygon>
                        <g id="Group-42" transform="translate(0.000000, 0.249420)">
                            <path d="M84.1461573,32.313485 C83.8919548,32.313485 83.6447419,32.1817852 83.5082598,31.9456086 C83.305192,31.5939189 83.4254876,31.1436382 83.7775453,30.9405705 L91.328575,26.5805001 C91.6798969,26.3766966 92.1301775,26.4980958 92.333981,26.8497856 C92.5370487,27.2014754 92.4163853,27.651756 92.0643276,27.8551916 L84.5132979,32.2148941 C84.3977848,32.2818476 84.2708674,32.313485 84.1461573,32.313485" id="Fill-5" fill="#741CE5"></path>
                            <path d="M69.128268,99.8209266 C68.8740655,99.8209266 68.6268526,99.6892269 68.4903705,99.4530503 C68.2873027,99.1009927 68.4075983,98.6510799 68.7596559,98.4480122 L76.3110535,94.0879418 C76.6627433,93.8841383 77.1126561,94.0055375 77.3164596,94.3572273 C77.5195273,94.7092849 77.3988639,95.1591977 77.0468062,95.3626333 L69.4954086,99.7223358 C69.3798954,99.7892893 69.2529781,99.8209266 69.128268,99.8209266" id="Fill-7" fill="#741CE5"></path>
                            <path d="M69.128268,107.914243 C68.8740655,107.914243 68.6268526,107.782543 68.4903705,107.546367 C68.2873027,107.194309 68.4075983,106.744396 68.7596559,106.541328 L76.3110535,102.181258 C76.6627433,101.977822 77.1126561,102.098854 77.3164596,102.450543 C77.5195273,102.802601 77.3988639,103.252514 77.0468062,103.45595 L69.4954086,107.815652 C69.3798954,107.882606 69.2529781,107.914243 69.128268,107.914243" id="Fill-9" fill="#741CE5"></path>
                            <path d="M87.3873686,26.415949 C87.1331661,26.415949 86.8859532,26.2842493 86.749471,26.0480727 C86.5464033,25.696015 86.6666989,25.2461023 87.0187565,25.0430345 L94.5701541,20.6829642 C94.9211081,20.4795286 95.3721245,20.600192 95.5755601,20.9522497 C95.7786279,21.3043073 95.6579644,21.7542201 95.3059068,21.9576557 L87.7545092,26.3173582 C87.638996,26.3843117 87.5120787,26.415949 87.3873686,26.415949" id="Fill-11" fill="#741CE5"></path>
                            <path d="M35.6389399,42.0212633 C35.3847374,42.0212633 35.1375245,41.8895636 35.0010423,41.653387 C34.7979746,41.3013293 34.9182702,40.8514165 35.2703278,40.6483488 L42.8217254,36.2882784 C43.1730473,36.0848428 43.623328,36.2055063 43.8271314,36.5575639 C44.0301992,36.9096216 43.9095357,37.3595343 43.5574781,37.56297 L36.0060805,41.9226724 C35.8905673,41.9896259 35.76365,42.0212633 35.6389399,42.0212633" id="Fill-13" fill="#741CE5"></path>
                            <g id="Group-17" transform="translate(23.176209, 0.000000)">
                                <mask id="mask-2" fill="white">
                                    <use xlink:href="#path-1"></use>
                                </mask>
                                <g id="Clip-16"></g>
                                <path d="M0.955816301,5.47466208 C0.701613751,5.47466208 0.454400852,5.34296236 0.317918731,5.10678575 C0.114850993,4.75472809 0.235146555,4.30481533 0.58720421,4.10174759 L7.31529455,0.216973464 C7.66698433,0.0135378492 8.11689709,0.134569164 8.32070058,0.486258943 C8.52340045,0.838316599 8.40310488,1.28822936 8.05104723,1.49166497 L1.32295689,5.37607123 C1.20744372,5.44302472 1.08052638,5.47466208 0.955816301,5.47466208" id="Fill-15" fill="#741CE5" mask="url(#mask-2)"></path>
                            </g>
                            <g id="Group-20" transform="translate(0.000000, 38.627015)">
                                <mask id="mask-4" fill="white">
                                    <use xlink:href="#path-3"></use>
                                </mask>
                                <g id="Clip-19"></g>
                                <polygon id="Fill-18" fill="#741CE5" mask="url(#mask-4)" points="33.7320161 48.1519225 -3.67876338e-05 28.6765491 49.1353663 0.308133221 82.8677871 19.7835065"></polygon>
                            </g>
                            <g id="Group-23" transform="translate(0.000000, 66.953493)">
                                <mask id="mask-6" fill="white">
                                    <use xlink:href="#path-5"></use>
                                </mask>
                                <g id="Clip-22"></g>
                                <polygon id="Fill-21" fill="#1A0960" mask="url(#mask-6)" points="2.74560826 15.8524536 -0.000220725803 14.2672744 -0.000220725803 0.349776822 2.74560826 1.93532384"></polygon>
                            </g>
                            <g id="Group-26" transform="translate(0.000000, 66.953493)">
                                <mask id="mask-8" fill="white">
                                    <use xlink:href="#path-7"></use>
                                </mask>
                                <g id="Clip-25"></g>
                                <polygon id="Fill-24" fill="#1A0960" mask="url(#mask-8)" points="33.7320161 22.181067 -3.67876338e-05 2.70606155 -3.67876338e-05 0.34981361 33.7320161 19.8255548"></polygon>
                            </g>
                            <polygon id="Fill-27" fill="#1A0960" points="33.7320161 100.696104 2.7457922 82.8059103 2.7457922 80.4500302 33.7320161 98.3402244"></polygon>
                            <polygon id="Fill-29" fill="#1A0960" points="33.7320161 89.1345605 82.8677871 60.7665124 82.8677871 58.4102645 33.7320161 86.7790483"></polygon>
                            <polygon id="Fill-31" fill="#1A0960" points="33.7320161 100.696104 82.8677871 72.3276885 82.8677871 69.9714406 33.7320161 98.3402244"></polygon>
                            <g id="Group-35" transform="translate(29.797983, 0.000000)">
                                <mask id="mask-10" fill="white">
                                    <use xlink:href="#path-9"></use>
                                </mask>
                                <g id="Clip-34"></g>
                                <path d="M72.0547611,109.995025 C71.9274759,109.995025 71.8009264,109.962284 71.6868847,109.896434 L36.7378969,89.7191528 C36.3858392,89.5157172 36.2655437,89.0658044 36.4686114,88.7137467 C36.6716792,88.3616891 37.1208562,88.2410256 37.4736496,88.4444613 L71.3190084,107.984949 L71.3190084,42.2671518 L1.79737021,2.12853249 L1.79737021,44.3945807 C1.79737021,44.8007162 1.46775301,45.1303334 1.06161754,45.1303334 C0.655114182,45.1303334 0.32586486,44.8007162 0.32586486,44.3945807 L0.32586486,0.854208856 C0.32586486,0.591177275 0.465657868,0.348378892 0.693741198,0.217047039 C0.921456651,0.0853473104 1.20141054,0.0853473104 1.42949387,0.217047039 L72.4226374,41.2050928 C72.6503529,41.3364247 72.7905138,41.5792231 72.7905138,41.8422547 L72.7905138,109.259272 C72.7905138,109.522304 72.6503529,109.765102 72.4226374,109.896434 C72.3085958,109.962284 72.1820463,109.995025 72.0547611,109.995025" id="Fill-33" fill="#741CE5" mask="url(#mask-10)"></path>
                            </g>
                            <path d="M97.0735526,96.1996623 C96.9462674,96.1996623 96.8197179,96.1669213 96.7056762,96.1010715 L76.3113478,84.3264535 C75.9589223,84.1230179 75.8386267,83.6731052 76.0416945,83.3210475 C76.2451301,82.9693577 76.6939392,82.8483264 77.0471005,83.051762 L96.3377999,94.189586 L96.3377999,45.0262244 L36.3739568,10.4057501 L36.3739568,41.2856578 C36.3739568,41.6917932 36.0443396,42.0214104 35.6382042,42.0214104 C35.2320687,42.0214104 34.9024515,41.6917932 34.9024515,41.2856578 L34.9024515,9.13142646 C34.9024515,8.86839488 35.0426124,8.62559649 35.2703278,8.49426464 C35.4980433,8.36256491 35.778365,8.36256491 36.0060805,8.49426464 L97.4414289,43.9641654 C97.6691444,44.0954972 97.8093053,44.3382956 97.8093053,44.6013272 L97.8093053,95.4639097 C97.8093053,95.7269412 97.6691444,95.9697396 97.4414289,96.1010715 C97.3273873,96.1669213 97.2008378,96.1996623 97.0735526,96.1996623" id="Fill-36" fill="#741CE5"></path>
                            <path d="M97.0728536,102.011667 C96.9481435,102.011667 96.8215941,101.98003 96.705713,101.913076 L92.4346687,99.4472011 C92.0826111,99.2441333 91.9619477,98.7942206 92.1650154,98.4421629 C92.368451,98.0904731 92.8172601,97.9694418 93.1704214,98.1725096 L97.4414657,100.638753 C97.7935234,100.84182 97.9138189,101.291733 97.7107512,101.643791 C97.5742691,101.879967 97.3270562,102.011667 97.0728536,102.011667" id="Fill-38" fill="#741CE5"></path>
                            <polygon id="Fill-40" fill="#FFD03E" points="33.7320161 82.3320855 22.9385244 76.1006283 30.7371349 71.5978219 41.5306266 77.829647"></polygon>
                        </g>
                    </g>
                </g>
            </g>
        </g>
    </g>
</svg>