<svg id="ilustra" xmlns="http://www.w3.org/2000/svg" viewBox="0 0 748.86 760.17"><defs><style>.cls-1{fill:#4b84b5;}.cls-2{fill:#67bcda;}.cls-3{fill:#f2f2f2;}.cls-4{fill:none;stroke:#4b84b5;stroke-miterlimit:10;}.cls-5{fill:#41af9a;}.cls-6{fill:#299983;}.cls-7{fill:#55c9b3;}.cls-8{fill:#edaf00;}.cls-9{fill:#f4d03e;}.cls-10{fill:#d89b13;}.cls-11{fill:#c98211;}.cls-12{fill:#5caabc;}.cls-13{fill:#7ee0db;}.cls-14{fill:#fff78d;}.cls-15{fill:#dbab5e;}.cls-16{fill:#3dc497;}.cls-17{fill:#2daa7d;}</style></defs><title>business_art</title><path class="cls-1" d="M105.39,215.32,52,184.49a3,3,0,0,1-1.65-2.14c0-.06,0-5.71,0-5.77,0-1.13.75.27,2.36-.66l52-30c2.85-1.65,7.17-1.83,9.64-.4l53.41,30.83c1.14.66,1.68-.92,1.66,0v5.57a4.11,4.11,0,0,1-2.36,3l-52,30C112.18,216.57,107.86,216.75,105.39,215.32Z"/><path class="cls-2" d="M105.39,209.82,52,179a2.87,2.87,0,0,1-1.66-2.41c0-1.1.79-2.25,2.36-3.16l52-30c2.85-1.65,7.17-1.83,9.64-.4l53.41,30.83a2.83,2.83,0,0,1,1.66,2.51c0,1.06-.84,2.18-2.36,3.06l-52,30C112.18,211.07,107.86,211.25,105.39,209.82Z"/><circle class="cls-3" cx="424.86" cy="355.41" r="324"/><polyline class="cls-4" points="0.38 530.99 145.87 364.41 199.87 472.41 586.87 13.41"/><polygon class="cls-5" points="411.77 382.41 411.77 85.41 474.13 49.41 559.87 296.91 411.77 382.41"/><polygon class="cls-6" points="411.77 85.41 349.42 49.41 411.77 13.41 474.13 49.41 411.77 85.41"/><polygon class="cls-7" points="411.77 382.41 263.69 296.91 349.42 49.41 411.77 85.41 411.77 382.41"/><path class="cls-6" d="M473.58,50.89l9.34,27-70.15,40.5V86l60.81-35.1m.55-1.48-62.36,36v34.66L484.14,78.3l-10-28.89Z"/><path class="cls-6" d="M483.59,79.77l9.34,27L412.77,153V120.66l70.82-40.89m.55-1.47-72.37,41.78v34.67l82.38-47.56-10-28.89Z"/><path class="cls-6" d="M493.6,108.66l9.34,27-90.17,52.05V155.33l80.83-46.67m.55-1.47-82.38,47.56v34.66l92.38-53.33-10-28.89Z"/><path class="cls-6" d="M503.6,137.55l9.34,27L412.77,222.35V190l90.83-52.44m.55-1.47-92.38,53.33v34.67L514.16,165l-10-28.89Z"/><path class="cls-6" d="M513.61,166.44l9.34,27L412.77,257V224.66l100.84-58.22m.55-1.47L411.77,224.08v34.67l112.4-64.89-10-28.89Z"/><path class="cls-6" d="M523.62,195.33l9.34,27L412.78,291.68V259.32l110.85-64m.55-1.47-112.4,64.89v34.66l122.39-70.66-10-28.89Z"/><path class="cls-6" d="M533.63,224.22l9.34,27L412.78,326.35V294l120.85-69.77m.54-1.47L411.78,293.41v34.67l132.4-76.45-10-28.88Z"/><path class="cls-6" d="M543.63,253.11l9.34,27L412.78,361V328.66l130.85-75.55m.55-1.48-132.4,76.45v34.67l142.41-82.23-10-28.89Z"/><path class="cls-6" d="M350,50.88,410.77,86v32.36l-70.14-40.5,9.34-27m-.55-1.48-10,28.89,72.36,41.78V85.41l-62.35-36Z"/><path class="cls-6" d="M340,79.76l70.81,40.89V153l-80.15-46.28,9.34-27m-.55-1.47-10,28.89,82.37,47.56V120.07L339.41,78.29Z"/><path class="cls-6" d="M330,108.65l80.82,46.67v32.35l-90.16-52,9.34-27m-.55-1.47-10,28.89,92.37,53.34V154.74L329.4,107.18Z"/><path class="cls-6" d="M320,137.54,410.77,190v32.36L310.6,164.51l9.35-27m-.55-1.47-10,28.89,102.38,59.11V189.41L319.4,136.07Z"/><path class="cls-6" d="M309.94,166.43l100.83,58.22V257L300.6,193.4l9.34-27m-.55-1.47-10,28.89,112.39,64.89V224.07L309.39,165Z"/><path class="cls-6" d="M299.93,195.32l110.84,64v32.35L290.59,222.28l9.34-27m-.55-1.47-10,28.89L411.77,293.4V258.74L299.38,193.85Z"/><path class="cls-6" d="M289.92,224.21,410.77,294v32.36L280.58,251.17l9.34-27m-.54-1.47-10,28.89,132.4,76.44V293.4L289.38,222.74Z"/><path class="cls-6" d="M279.92,253.1l130.85,75.55V361L270.58,280.06l9.34-27m-.55-1.47-10,28.88,142.41,82.23V328.07l-132.4-76.44Z"/><polygon class="cls-8" points="475.1 279.41 607.6 202.91 654.37 229.91 521.87 306.41 475.1 279.41"/><polygon class="cls-5" points="521.87 432.4 654.37 355.9 701.13 382.9 568.63 459.4 521.87 432.4"/><polygon class="cls-9" points="521.87 432.4 654.37 355.9 654.37 229.91 521.87 306.41 521.87 432.4"/><polygon class="cls-8" points="529.66 337.91 646.57 270.41 646.57 243.41 529.66 310.91 529.66 337.91"/><polygon class="cls-8" points="529.66 377.9 646.57 310.4 646.57 283.41 529.66 350.91 529.66 377.9"/><polygon class="cls-10" points="521.87 432.4 475.1 405.4 475.1 279.41 521.87 306.41 521.87 432.4"/><polygon class="cls-10" points="269.68 462.4 339.83 421.9 339.83 223.91 269.68 264.41 269.68 462.4"/><polygon class="cls-11" points="324.24 277.91 332.04 273.41 332.04 237.41 324.24 241.91 324.24 277.91"/><polygon class="cls-11" points="308.65 286.91 316.45 282.41 316.45 246.41 308.65 250.91 308.65 286.91"/><polygon class="cls-11" points="293.07 295.91 300.86 291.41 300.86 255.41 293.07 259.91 293.07 295.91"/><polygon class="cls-11" points="277.48 304.91 285.27 300.41 285.27 264.41 277.48 268.91 277.48 304.91"/><polygon class="cls-11" points="324.24 322.9 332.04 318.4 332.04 282.41 324.24 286.91 324.24 322.9"/><polygon class="cls-11" points="308.65 331.9 316.45 327.4 316.45 291.41 308.65 295.91 308.65 331.9"/><polygon class="cls-11" points="293.07 340.9 300.86 336.4 300.86 300.41 293.07 304.91 293.07 340.9"/><polygon class="cls-11" points="277.48 349.9 285.27 345.4 285.27 309.41 277.48 313.91 277.48 349.9"/><polygon class="cls-11" points="324.24 367.9 332.04 363.4 332.04 327.4 324.24 331.9 324.24 367.9"/><polygon class="cls-11" points="308.65 376.9 316.45 372.4 316.45 336.4 308.65 340.9 308.65 376.9"/><polygon class="cls-11" points="293.07 385.9 300.86 381.4 300.86 345.4 293.07 349.9 293.07 385.9"/><polygon class="cls-11" points="277.48 394.9 285.27 390.4 285.27 354.4 277.48 358.9 277.48 394.9"/><polygon class="cls-1" points="398.33 377.41 304.8 323.41 398.33 269.41 491.87 323.41 398.33 377.41"/><polygon class="cls-2" points="398.33 557.4 304.8 503.4 304.8 323.41 398.33 377.41 398.33 557.4"/><path class="cls-1" d="M305.8,325.14,319.39,333v15.69l-13.59-7.84V325.14m-1-1.73v18l15.59,9v-18l-15.59-9Z"/><path class="cls-1" d="M321.39,334.14,335,342v15.69l-13.59-7.84V334.14m-1-1.73v18l15.59,9v-18l-15.59-9Z"/><path class="cls-1" d="M337,343.14,350.57,351v15.69L337,358.83V343.14m-1-1.73v18l15.59,9v-18l-15.59-9Z"/><path class="cls-1" d="M352.57,352.14,366.16,360v15.69l-13.59-7.84V352.14m-1-1.73v18l15.59,9v-18l-15.59-9Z"/><path class="cls-1" d="M368.16,361.14,381.75,369v15.69l-13.59-7.84V361.14m-1-1.73v18l15.59,9v-18l-15.59-9Z"/><path class="cls-1" d="M383.75,370.14,397.33,378v15.69l-13.58-7.84V370.14m-1-1.73v18l15.58,9v-18l-15.58-9Z"/><path class="cls-1" d="M305.8,343.14,319.39,351v15.69l-13.59-7.84V343.14m-1-1.73v18l15.59,9v-18l-15.59-9Z"/><path class="cls-1" d="M321.39,352.14,335,360v15.69l-13.59-7.84V352.14m-1-1.73v18l15.59,9v-18l-15.59-9Z"/><path class="cls-1" d="M337,361.14,350.57,369v15.69L337,376.83V361.14m-1-1.73v18l15.59,9v-18l-15.59-9Z"/><path class="cls-1" d="M352.57,370.14,366.16,378v15.69l-13.59-7.84V370.14m-1-1.73v18l15.59,9v-18l-15.59-9Z"/><path class="cls-1" d="M368.16,379.14,381.75,387v15.69l-13.59-7.84V379.14m-1-1.73v18l15.59,9v-18l-15.59-9Z"/><path class="cls-1" d="M383.75,388.14,397.33,396v15.69l-13.58-7.84V388.14m-1-1.73v18l15.58,9v-18l-15.58-9Z"/><path class="cls-1" d="M305.8,361.14,319.39,369v15.69l-13.59-7.84V361.14m-1-1.73v18l15.59,9v-18l-15.59-9Z"/><path class="cls-1" d="M321.39,370.14,335,378v15.69l-13.59-7.84V370.14m-1-1.73v18l15.59,9v-18l-15.59-9Z"/><path class="cls-1" d="M337,379.14,350.57,387v15.69L337,394.83V379.14m-1-1.73v18l15.59,9v-18l-15.59-9Z"/><path class="cls-1" d="M352.57,388.14,366.16,396v15.69l-13.59-7.84V388.14m-1-1.73v18l15.59,9v-18l-15.59-9Z"/><path class="cls-1" d="M368.16,397.14,381.75,405v15.69l-13.59-7.84V397.14m-1-1.73v18l15.59,9v-18l-15.59-9Z"/><path class="cls-1" d="M383.75,406.14,397.33,414v15.69l-13.58-7.84V406.14m-1-1.73v18l15.58,9v-18l-15.58-9Z"/><path class="cls-1" d="M305.8,379.14,319.39,387v15.69l-13.59-7.84V379.14m-1-1.73v18l15.59,9v-18l-15.59-9Z"/><path class="cls-1" d="M321.39,388.14,335,396v15.69l-13.59-7.84V388.14m-1-1.73v18l15.59,9v-18l-15.59-9Z"/><path class="cls-1" d="M337,397.14,350.57,405v15.69L337,412.83V397.14m-1-1.73v18l15.59,9v-18l-15.59-9Z"/><path class="cls-1" d="M352.57,406.14,366.16,414v15.69l-13.59-7.84V406.14m-1-1.73v18l15.59,9v-18l-15.59-9Z"/><path class="cls-1" d="M368.16,415.14,381.75,423v15.69l-13.59-7.84V415.14m-1-1.73v18l15.59,9v-18l-15.59-9Z"/><path class="cls-1" d="M383.75,424.14,397.33,432v15.69l-13.58-7.84V424.14m-1-1.73v18l15.58,9v-18l-15.58-9Z"/><path class="cls-1" d="M305.8,397.14,319.39,405v15.69l-13.59-7.84V397.14m-1-1.73v18l15.59,9v-18l-15.59-9Z"/><path class="cls-1" d="M321.39,406.14,335,414v15.69l-13.59-7.84V406.14m-1-1.73v18l15.59,9v-18l-15.59-9Z"/><path class="cls-1" d="M337,415.14,350.57,423v15.69L337,430.83V415.14m-1-1.73v18l15.59,9v-18l-15.59-9Z"/><path class="cls-1" d="M352.57,424.14,366.16,432v15.69l-13.59-7.84V424.14m-1-1.73v18l15.59,9v-18l-15.59-9Z"/><path class="cls-1" d="M368.16,433.14,381.75,441v15.69l-13.59-7.84V433.14m-1-1.73v18l15.59,9v-18l-15.59-9Z"/><path class="cls-1" d="M383.75,442.14,397.33,450v15.69l-13.58-7.84V442.14m-1-1.73v18l15.58,9v-18l-15.58-9Z"/><path class="cls-1" d="M305.8,415.14,319.39,423v15.69l-13.59-7.84V415.14m-1-1.73v18l15.59,9v-18l-15.59-9Z"/><path class="cls-1" d="M321.39,424.14,335,432v15.69l-13.59-7.84V424.14m-1-1.73v18l15.59,9v-18l-15.59-9Z"/><path class="cls-1" d="M337,433.14,350.57,441v15.69L337,448.83V433.14m-1-1.73v18l15.59,9v-18l-15.59-9Z"/><path class="cls-1" d="M352.57,442.14,366.16,450v15.69l-13.59-7.84V442.14m-1-1.73v18l15.59,9v-18l-15.59-9Z"/><path class="cls-1" d="M368.16,451.14,381.75,459v15.69l-13.59-7.84V451.14m-1-1.73v18l15.59,9v-18l-15.59-9Z"/><path class="cls-1" d="M383.75,460.14,397.33,468v15.69l-13.58-7.84V460.14m-1-1.73v18l15.58,9v-18l-15.58-9Z"/><path class="cls-1" d="M305.8,433.14,319.39,441v15.69l-13.59-7.84V433.14m-1-1.73v18l15.59,9v-18l-15.59-9Z"/><path class="cls-1" d="M321.39,442.14,335,450v15.69l-13.59-7.84V442.14m-1-1.73v18l15.59,9v-18l-15.59-9Z"/><path class="cls-1" d="M337,451.14,350.57,459v15.69L337,466.83V451.14m-1-1.73v18l15.59,9v-18l-15.59-9Z"/><path class="cls-1" d="M352.57,460.14,366.16,468v15.69l-13.59-7.84V460.14m-1-1.73v18l15.59,9v-18l-15.59-9Z"/><path class="cls-1" d="M368.16,469.14,381.75,477v15.69l-13.59-7.84V469.14m-1-1.73v18l15.59,9v-18l-15.59-9Z"/><path class="cls-1" d="M383.75,478.14,397.33,486v15.69l-13.58-7.84V478.14m-1-1.73v18l15.58,9v-18l-15.58-9Z"/><polygon class="cls-12" points="398.33 557.4 491.87 503.4 491.87 323.41 398.33 377.41 398.33 557.4"/><path class="cls-1" d="M490.87,325.14v15.69l-13.59,7.84V333l13.59-7.84m1-1.73-15.59,9v18l15.59-9v-18Z"/><path class="cls-1" d="M475.28,334.14v15.69l-13.59,7.84V342l13.59-7.84m1-1.73-15.59,9v18l15.59-9v-18Z"/><path class="cls-1" d="M459.69,343.14v15.69l-13.59,7.84V351l13.59-7.84m1-1.73-15.59,9v18l15.59-9v-18Z"/><path class="cls-1" d="M444.1,352.14v15.69l-13.59,7.84V360l13.59-7.84m1-1.73-15.59,9v18l15.59-9v-18Z"/><path class="cls-1" d="M428.51,361.14v15.69l-13.59,7.84V369l13.59-7.84m1-1.73-15.59,9v18l15.59-9v-18Z"/><path class="cls-1" d="M412.92,370.14v15.69l-13.59,7.84V378l13.59-7.84m1-1.73-15.59,9v18l15.59-9v-18Z"/><path class="cls-1" d="M490.87,343.14v15.69l-13.59,7.84V351l13.59-7.84m1-1.73-15.59,9v18l15.59-9v-18Z"/><path class="cls-1" d="M475.28,352.14v15.69l-13.59,7.84V360l13.59-7.84m1-1.73-15.59,9v18l15.59-9v-18Z"/><path class="cls-1" d="M459.69,361.14v15.69l-13.59,7.84V369l13.59-7.84m1-1.73-15.59,9v18l15.59-9v-18Z"/><path class="cls-1" d="M444.1,370.14v15.69l-13.59,7.84V378l13.59-7.84m1-1.73-15.59,9v18l15.59-9v-18Z"/><path class="cls-1" d="M428.51,379.14v15.69l-13.59,7.84V387l13.59-7.84m1-1.73-15.59,9v18l15.59-9v-18Z"/><path class="cls-1" d="M412.92,388.14v15.69l-13.59,7.84V396l13.59-7.84m1-1.73-15.59,9v18l15.59-9v-18Z"/><path class="cls-1" d="M490.87,361.14v15.69l-13.59,7.84V369l13.59-7.84m1-1.73-15.59,9v18l15.59-9v-18Z"/><path class="cls-1" d="M475.28,370.14v15.69l-13.59,7.84V378l13.59-7.84m1-1.73-15.59,9v18l15.59-9v-18Z"/><path class="cls-1" d="M459.69,379.14v15.69l-13.59,7.84V387l13.59-7.84m1-1.73-15.59,9v18l15.59-9v-18Z"/><path class="cls-1" d="M444.1,388.14v15.69l-13.59,7.84V396l13.59-7.84m1-1.73-15.59,9v18l15.59-9v-18Z"/><path class="cls-1" d="M428.51,397.14v15.69l-13.59,7.84V405l13.59-7.84m1-1.73-15.59,9v18l15.59-9v-18Z"/><path class="cls-1" d="M412.92,406.14v15.69l-13.59,7.84V414l13.59-7.84m1-1.73-15.59,9v18l15.59-9v-18Z"/><path class="cls-1" d="M490.87,379.14v15.69l-13.59,7.84V387l13.59-7.84m1-1.73-15.59,9v18l15.59-9v-18Z"/><path class="cls-1" d="M475.28,388.14v15.69l-13.59,7.84V396l13.59-7.84m1-1.73-15.59,9v18l15.59-9v-18Z"/><path class="cls-1" d="M459.69,397.14v15.69l-13.59,7.84V405l13.59-7.84m1-1.73-15.59,9v18l15.59-9v-18Z"/><path class="cls-1" d="M444.1,406.14v15.69l-13.59,7.84V414l13.59-7.84m1-1.73-15.59,9v18l15.59-9v-18Z"/><path class="cls-1" d="M428.51,415.14v15.69l-13.59,7.84V423l13.59-7.84m1-1.73-15.59,9v18l15.59-9v-18Z"/><path class="cls-1" d="M412.92,424.14v15.69l-13.59,7.84V432l13.59-7.84m1-1.73-15.59,9v18l15.59-9v-18Z"/><path class="cls-1" d="M490.87,397.14v15.69l-13.59,7.84V405l13.59-7.84m1-1.73-15.59,9v18l15.59-9v-18Z"/><path class="cls-1" d="M475.28,406.14v15.69l-13.59,7.84V414l13.59-7.84m1-1.73-15.59,9v18l15.59-9v-18Z"/><path class="cls-1" d="M459.69,415.14v15.69l-13.59,7.84V423l13.59-7.84m1-1.73-15.59,9v18l15.59-9v-18Z"/><path class="cls-1" d="M444.1,424.14v15.69l-13.59,7.84V432l13.59-7.84m1-1.73-15.59,9v18l15.59-9v-18Z"/><path class="cls-1" d="M428.51,433.14v15.69l-13.59,7.84V441l13.59-7.84m1-1.73-15.59,9v18l15.59-9v-18Z"/><path class="cls-1" d="M412.92,442.14v15.69l-13.59,7.84V450l13.59-7.84m1-1.73-15.59,9v18l15.59-9v-18Z"/><path class="cls-1" d="M490.87,415.14v15.69l-13.59,7.84V423l13.59-7.84m1-1.73-15.59,9v18l15.59-9v-18Z"/><path class="cls-1" d="M475.28,424.14v15.69l-13.59,7.84V432l13.59-7.84m1-1.73-15.59,9v18l15.59-9v-18Z"/><path class="cls-1" d="M459.69,433.14v15.69l-13.59,7.84V441l13.59-7.84m1-1.73-15.59,9v18l15.59-9v-18Z"/><path class="cls-1" d="M444.1,442.14v15.69l-13.59,7.84V450l13.59-7.84m1-1.73-15.59,9v18l15.59-9v-18Z"/><path class="cls-1" d="M428.51,451.14v15.69l-13.59,7.84V459l13.59-7.84m1-1.73-15.59,9v18l15.59-9v-18Z"/><path class="cls-1" d="M412.92,460.14v15.69l-13.59,7.84V468l13.59-7.84m1-1.73-15.59,9v18l15.59-9v-18Z"/><path class="cls-1" d="M490.87,433.14v15.69l-13.59,7.84V441l13.59-7.84m1-1.73-15.59,9v18l15.59-9v-18Z"/><path class="cls-1" d="M475.28,442.14v15.69l-13.59,7.84V450l13.59-7.84m1-1.73-15.59,9v18l15.59-9v-18Z"/><path class="cls-1" d="M459.69,451.14v15.69l-13.59,7.84V459l13.59-7.84m1-1.73-15.59,9v18l15.59-9v-18Z"/><path class="cls-1" d="M444.1,460.14v15.69l-13.59,7.84V468l13.59-7.84m1-1.73-15.59,9v18l15.59-9v-18Z"/><path class="cls-1" d="M428.51,469.14v15.69l-13.59,7.84V477l13.59-7.84m1-1.73-15.59,9v18l15.59-9v-18Z"/><path class="cls-1" d="M412.92,478.14v15.69l-13.59,7.84V486l13.59-7.84m1-1.73-15.59,9v18l15.59-9v-18Z"/><polygon class="cls-8" points="199.54 223.91 269.68 264.41 339.83 223.91 269.68 183.41 199.54 223.91"/><polygon class="cls-9" points="269.68 462.4 199.54 421.9 199.54 223.91 269.68 264.41 269.68 462.4"/><polygon class="cls-8" points="215.12 277.9 207.33 273.4 207.33 237.41 215.12 241.91 215.12 277.9"/><polygon class="cls-8" points="230.71 286.9 222.92 282.4 222.92 246.41 230.71 250.91 230.71 286.9"/><polygon class="cls-8" points="246.3 295.9 238.51 291.4 238.51 255.41 246.3 259.91 246.3 295.9"/><polygon class="cls-8" points="261.89 304.9 254.1 300.4 254.1 264.41 261.89 268.91 261.89 304.9"/><polygon class="cls-8" points="215.12 322.9 207.33 318.4 207.33 282.4 215.12 286.9 215.12 322.9"/><polygon class="cls-8" points="230.71 331.9 222.92 327.4 222.92 291.4 230.71 295.9 230.71 331.9"/><polygon class="cls-8" points="246.3 340.9 238.51 336.4 238.51 300.4 246.3 304.9 246.3 340.9"/><polygon class="cls-8" points="261.89 349.9 254.1 345.4 254.1 309.4 261.89 313.9 261.89 349.9"/><polygon class="cls-8" points="215.12 367.9 207.33 363.4 207.33 327.4 215.12 331.9 215.12 367.9"/><polygon class="cls-8" points="230.71 376.9 222.92 372.4 222.92 336.4 230.71 340.9 230.71 376.9"/><polygon class="cls-8" points="246.3 385.9 238.51 381.4 238.51 345.4 246.3 349.9 246.3 385.9"/><polygon class="cls-8" points="261.89 394.9 254.1 390.4 254.1 354.4 261.89 358.9 261.89 394.9"/><polygon class="cls-7" points="411.77 77.62 362.91 49.41 411.77 21.19 460.64 49.41 411.77 77.62"/><polygon class="cls-13" points="371.57 54.41 411.77 77.62 451.98 54.41 411.77 31.19 371.57 54.41"/><polygon class="cls-8" points="214.89 223.91 269.68 255.54 324.47 223.91 269.68 192.27 214.89 223.91"/><polygon class="cls-9" points="214.89 223.91 269.68 255.54 324.47 223.91 269.68 192.27 214.89 223.91"/><polygon class="cls-14" points="223.55 228.91 269.68 255.54 315.81 228.91 269.68 202.27 223.55 228.91"/><polygon class="cls-12" points="321.21 323.93 398.33 368.45 475.45 323.93 398.33 279.41 321.21 323.93"/><polygon class="cls-2" points="333.4 330.97 398.33 368.45 463.26 330.97 398.33 293.48 333.4 330.97"/><polygon class="cls-9" points="487.59 279.6 606.87 210.91 640.49 230.32 521.21 299.01 487.59 279.6"/><polygon class="cls-14" points="496.26 284.61 521.21 299.01 631.82 235.31 606.87 220.91 496.26 284.61"/><polygon class="cls-5" points="398.33 557.4 304.8 503.4 258.04 530.4 351.57 584.4 398.33 557.4"/><path class="cls-15" d="M568.86,433.91a6.38,6.38,0,0,1-5.77,0c-1.6-.92-1.6-12.68,0-13.6a6.37,6.37,0,0,1,5.78,0C570.46,421.23,570.46,433,568.86,433.91Z"/><path class="cls-16" d="M581.56,421.26c-8.61,5-22.57,5-31.17,0s10-43.13,12-44.27a7.92,7.92,0,0,1,7.16,0C571.53,378.13,590.17,416.29,581.56,421.26Z"/><path class="cls-15" d="M609.36,410.41a6.38,6.38,0,0,1-5.77,0c-1.6-.92-1.6-12.68,0-13.6a6.37,6.37,0,0,1,5.78,0C611,397.73,611,409.48,609.36,410.41Z"/><path class="cls-16" d="M622.06,397.76c-8.61,5-22.57,5-31.17,0s10-43.13,12-44.27a7.92,7.92,0,0,1,7.16,0C612,354.63,630.67,392.79,622.06,397.76Z"/><path class="cls-15" d="M649.86,386.91a6.38,6.38,0,0,1-5.77,0c-1.6-.92-1.6-12.68,0-13.6a6.37,6.37,0,0,1,5.78,0C651.46,374.23,651.46,386,649.86,386.91Z"/><path class="cls-16" d="M662.56,374.26c-8.61,5-22.57,5-31.17,0s10-43.13,12-44.27a7.92,7.92,0,0,1,7.16,0C652.53,331.13,671.17,369.29,662.56,374.26Z"/><path class="cls-16" d="M339.94,579.71c-2.09.45-6.05-.86-7.92-1.8a16.9,16.9,0,0,1-6.28-5.8c-1.76-2.51-1.38-2.18-4.48-2.64A15.31,15.31,0,0,1,313,566c-1.42-1.3-2.53-4-4-4.75-2.13-1.07-5.3-.56-7.61-1.23a14.13,14.13,0,0,1-7.58-5.27c-.69-.93-1.19-2.74-2-3.5.91.82.19.17-1,.25a17.18,17.18,0,0,1-9.42-1.76,14.43,14.43,0,0,1-5.85-6.16l-.91-1.58c.91.3,1,.42.25.38-1.47-.22-3.05,0-4.55-.15a14.3,14.3,0,0,1-8.51-4.13c-.82-.83-2.16-2-2.48-3.11-.44-1.49-2-.38,1.08-.11h0c-9.56-.83-9.62-15.84,0-15,3.13.28,5.73,1,8.16,3.08,1.35,1.17,2.35,3.85,3.85,4.54,1.13.52,4.71-.05,6.2.29a13.34,13.34,0,0,1,7.11,4.14,15,15,0,0,1,2.45,3.55c.55,1.23,1.42,1.58,0,1,2.3.9,5.9-.15,8.41.53a12.74,12.74,0,0,1,6.93,4.74,13.84,13.84,0,0,1,1.88,3.13q1.33,2,0,.66l1.22.29a17.83,17.83,0,0,1,14.45,6.2c.42.54,2.2,3,1.79,2.73-.95-.56,1.39.12,1.77.18,3.43.55,6.32,1.16,9.08,3.41,2,1.61,3.05,4.89,5,6.22.31.21,3.61.41,4.63.61a13.56,13.56,0,0,1,7,3.33,12.64,12.64,0,0,1,2.43,3.47,11.52,11.52,0,0,1,.93,2.38s4.34.52,4.59,6.38c.31,7.35-11.15,9-16,3.75-.9-1-2.46-3.07-2.48-4.38"/><path class="cls-17" d="M352.25,587.31c-.44-5.47-4.56-6-4.56-6a11.52,11.52,0,0,0-.93-2.38,12.64,12.64,0,0,0-2.43-3.47,13.56,13.56,0,0,0-7-3.33c-1-.2-4.32-.4-4.63-.61-1.95-1.33-3-4.61-5-6.22-2.76-2.25-5.66-2.86-9.08-3.41-.25,0-1.34-.34-1.8-.39A29.18,29.18,0,0,0,315,559a17.8,17.8,0,0,0-14.44-6.2l-.77-.18c-.11-.2-.27-.45-.48-.77a13.84,13.84,0,0,0-1.88-3.13,12.74,12.74,0,0,0-6.93-4.74c-2.25-.61-5.37.16-7.65-.32a9.31,9.31,0,0,1-.76-1.23,15,15,0,0,0-2.45-3.55,13.34,13.34,0,0,0-7.11-4.14c-1.49-.34-5.07.23-6.2-.29-1.5-.69-2.5-3.37-3.85-4.54-2.43-2.11-5-2.8-8.16-3.08a9.51,9.51,0,0,0-1.19,0,7.9,7.9,0,0,0,5.91,7.79c-1.12-.34-.35-.77.08,0l.31.08-.31-.08a1.83,1.83,0,0,1,.12.31c.32,1.08,1.66,2.28,2.48,3.11a14.3,14.3,0,0,0,8.51,4.13c1.49.19,3.06-.06,4.51.15.24.4.47.79.7,1.2a14.43,14.43,0,0,0,5.85,6.16,17.16,17.16,0,0,0,9.42,1.76,4.88,4.88,0,0,1,1.4.16c.63.87,1.08,2.3,1.67,3.09A14.13,14.13,0,0,0,301.4,560c2.31.67,5.48.16,7.61,1.23,1.43.71,2.54,3.45,4,4.75a15.31,15.31,0,0,0,8.29,3.52c3.1.46,2.72.13,4.48,2.64a16.9,16.9,0,0,0,6.28,5.8c1.87.94,5.83,2.25,7.92,1.8l-.18.37c0,1.31,1.58,3.41,2.48,4.38C344.69,587.1,348.8,588,352.25,587.31Zm-92.73-52.59a7.4,7.4,0,0,0,.84.11C260,534.8,259.75,534.76,259.52,534.72Z"/><path class="cls-17" d="M259.08,534.61l.08,0h0Z"/><polygon class="cls-1" points="577.9 9.25 592.71 20.37 596.43 0 577.9 9.25"/><polygon class="cls-1" points="535.54 537.37 550.35 548.49 554.07 528.12 535.54 537.37"/><path class="cls-1" d="M398.92,758.24,292.1,696.57a6,6,0,0,1-3.3-4.27c0-.12,0-5.43,0-5.56-.1-2.24,1.5.56,4.72-1.3l104.05-60.07c5.7-3.29,14.33-3.65,19.27-.8l106.82,61.67c2.28,1.32,3.37-1.84,3.33,0,0,.08,0,5.08,0,5.16-.15,2.09-1.74,4.26-4.71,6l-104,60.07C412.49,760.74,403.86,761.09,398.92,758.24Z"/><path class="cls-2" d="M398.92,753.24,292.1,691.57c-2.23-1.29-3.33-3-3.33-4.83,0-2.18,1.59-4.49,4.72-6.3l104.05-60.07c5.7-3.29,14.33-3.65,19.27-.8l106.82,61.67c2.3,1.33,3.4,3.13,3.33,5-.08,2.14-1.68,4.37-4.72,6.13l-104,60.07C412.49,755.74,403.86,756.09,398.92,753.24Z"/><polyline class="cls-4" points="390.36 686.98 487.85 565.49 501.35 593.98 545.35 541.49"/></svg>