<?xml version="1.0" encoding="UTF-8"?>
<svg width="445px" height="265px" viewBox="0 0 445 265" version="1.1" xmlns="http://www.w3.org/2000/svg" xmlns:xlink="http://www.w3.org/1999/xlink">
    <!-- Generator: sketchtool 57.1 (101010) - https://sketch.com -->
    <title>224E4270-5973-48E8-A93C-5AFD4C175C60</title>
    <desc>Created with sketchtool.</desc>
    <defs>
        <polygon id="path-1" points="0 0.733604412 33.4806738 0.733604412 33.4806738 14.0450047 0 14.0450047"></polygon>
        <polygon id="path-3" points="0.397030836 0.704624234 63.091642 0.704624234 63.091642 28.0217574 0.397030836 28.0217574"></polygon>
        <polygon id="path-5" points="0.834603938 0.23790448 40.5391176 0.23790448 40.5391176 50.8470434 0.834603938 50.8470434"></polygon>
        <polygon id="path-7" points="0.278635637 0 45.5011204 0 45.5011204 56.1515126 0.278635637 56.1515126"></polygon>
        <polygon id="path-9" points="-0.000122091937 0.10513092 6.28297392 0.10513092 6.28297392 8.94272147 -0.000122091937 8.94272147"></polygon>
    </defs>
    <g id="Pages---Home-SEO" stroke="none" stroke-width="1" fill="none" fill-rule="evenodd">
        <g id="page/desktop/d-home-seo" transform="translate(-405.000000, -1344.000000)">
            <g id="Group-2" transform="translate(240.000000, 387.000000)">
                <g id="illustration-01" transform="translate(165.000000, 957.000000)">
                    <g id="platform-1" transform="translate(75.489741, 76.116253)">
                        <polygon id="Fill-1" fill="#243F52" points="0 41.6944701 68.9351654 81.493332 137.870331 41.6954177 137.870331 39.8001886 0 39.799241"></polygon>
                        <polygon id="Fill-2" fill="#9DAFB7" points="68.9352602 0.000189522903 9.47614514e-05 39.7990515 68.9352602 79.5988611 137.870426 39.7999991"></polygon>
                    </g>
                    <g id="platform-4-copy" transform="translate(376.000000, 75.543379) scale(-1, 1) translate(-376.000000, -75.543379) translate(307.000000, 34.543379)">
                        <polygon id="Fill-1" fill="#DD8307" points="-1.42108547e-14 41.6942805 68.9351654 81.4931425 137.870331 41.6952281 137.870331 39.7999991 -1.42108547e-14 39.7990515"></polygon>
                        <polygon id="Fill-2" fill="#FFD03E" points="68.9352602 1.42108547e-14 9.47614514e-05 39.798862 68.9352602 79.5986716 137.870426 39.7998096"></polygon>
                    </g>
                    <g id="planet" transform="translate(171.700913, 40.639269)">
                        <path d="M219.26191,134.256111 C218.099341,184.666512 176.106156,224.593882 125.468681,223.436526 C74.8312058,222.279169 34.7239833,180.475006 35.8865529,130.064605 C37.0491225,79.6534926 79.041593,39.7261231 129.679782,40.8834794 C180.317257,42.0408356 220.42448,83.8449991 219.26191,134.256111" id="planetshadow" fill="#DEE7ED"></path>
                        <path d="M214.146084,109.054561 C212.788223,167.916347 163.756013,214.53756 104.629084,213.185788 C45.5021543,211.834016 -1.32906386,163.021681 0.0287973105,104.159895 C1.38594457,45.2981087 50.4188682,-1.32310393 109.545084,0.0286681746 C168.672727,1.38044028 215.503231,50.1927746 214.146084,109.054561" id="Fill-1" fill="#741CE5"></path>
                        <path d="M46.8215356,194.738221 L46.8215356,194.738221 C63.3271876,205.946842 83.1660961,212.695753 104.629155,213.185432 C163.756085,214.537204 212.788294,167.916702 214.146155,109.054206 C214.184707,107.382614 214.178995,105.720261 214.140444,104.065015 C163.982395,219.54132 46.8215356,194.738221 46.8215356,194.738221" id="Fill-4" fill="#471CAF"></path>
                    </g>
                    <g id="platform-3" transform="translate(144.905344, 204.435204) scale(-1, 1) translate(-144.905344, -204.435204) translate(75.905344, 163.435204)">
                        <polygon id="Fill-1" fill="#DD8307" points="0 41.6944701 68.9351654 81.493332 137.870331 41.6954177 137.870331 39.8001886 0 39.799241"></polygon>
                        <polygon id="Fill-2" fill="#FFAF00" points="68.9352602 0.000189522903 9.47614514e-05 39.7990515 68.9352602 79.5988611 137.870426 39.7999991"></polygon>
                    </g>
                    <g id="platform-4" transform="translate(220.714505, 159.897322) scale(-1, 1) translate(-220.714505, -159.897322) translate(151.714505, 118.897322)">
                        <polygon id="Fill-1" fill="#DD8307" points="-1.42108547e-14 41.6942805 68.9351654 81.4931425 137.870331 41.6952281 137.870331 39.7999991 -1.42108547e-14 39.7990515"></polygon>
                        <polygon id="Fill-2" fill="#FFD03E" points="68.9352602 1.42108547e-14 9.47614514e-05 39.798862 68.9352602 79.5986716 137.870426 39.7998096"></polygon>
                    </g>
                    <g id="platform-2" transform="translate(0.000000, 119.706521)">
                        <polygon id="Fill-1" fill="#243F52" points="-1.42108547e-14 41.6942805 68.9351654 81.4931425 137.870331 41.6952281 137.870331 39.7999991 -1.42108547e-14 39.7990515"></polygon>
                        <polygon id="Fill-2" fill="#9DAFB7" points="68.9352602 1.42108547e-14 9.47614514e-05 39.798862 68.9352602 79.5986716 137.870426 39.7998096"></polygon>
                    </g>
                    <g id="sitboy" transform="translate(56.083426, 156.681846) scale(-1, 1) translate(-56.083426, -156.681846) translate(14.083426, 65.681846)">
                        <path d="M46.5870927,155.875572 C46.4975655,156.203839 44.2077349,162.334157 43.6407292,163.580651 C43.0748713,164.827146 45.2269678,168.792742 47.2665813,169.3586 C49.3061949,169.925606 50.3265756,170.26535 51.4594392,172.984452 C52.5923028,175.703554 55.311405,181.596282 61.2029843,181.36902 C67.0957115,181.142907 68.3422058,177.970429 67.6615694,176.156929 C66.9820808,174.344577 60.6371264,168.792742 58.5975129,162.673901 C56.5578993,156.555061 56.67153,154.402964 56.67153,154.402964 C56.67153,154.402964 49.4198256,145.451391 46.5870927,155.875572" id="Fill-1" fill="#000000"></path>
                        <path d="M62.2536665,101.509942 C62.1641393,101.838208 59.8743087,107.967379 59.307303,109.213873 C58.7402973,110.460368 60.8935416,114.425964 62.9331551,114.99297 C64.9727687,115.559976 65.9920016,115.89972 67.126013,118.618822 C68.2588766,121.337924 70.9779788,127.230651 76.8695581,127.00339 C82.7622853,126.777276 84.0087796,123.604799 83.3281432,121.791299 C82.6486546,119.978947 76.3037002,114.425964 74.2640866,108.308271 C72.2244731,102.18943 72.3381038,100.036186 72.3381038,100.036186 C72.3381038,100.036186 65.0863994,91.0857603 62.2536665,101.509942" id="Fill-3" fill="#000000"></path>
                        <path d="M47.2529227,149.615439 C47.2529227,149.615439 46.4024142,149.530503 46.232542,150.507268 C46.0626699,151.485181 46.1487537,154.246751 45.7229256,155.564408 C45.2982452,156.880917 47.1255186,159.387679 51.0773416,159.260275 C55.0280169,159.132871 57.619715,157.390533 58.0455431,155.223516 C58.4702235,153.057646 57.918139,151.612585 57.8745232,150.422332 C57.833203,149.233227 57.3660545,148.978419 56.473078,149.063355 C55.5801014,149.148291 47.2529227,149.615439 47.2529227,149.615439" id="Fill-6" fill="#065CCC"></path>
                        <path d="M62.5064088,95.7894972 C62.5064088,95.7894972 61.657048,95.7045611 61.4871759,96.681326 C61.3161559,97.6592386 61.4022398,100.420809 60.9764116,101.738466 C60.5517312,103.054975 62.3790046,105.561737 66.3308277,105.434333 C70.281503,105.306929 72.8743488,103.564591 73.2990292,101.397574 C73.7237096,99.2317038 73.1716251,97.7866427 73.129157,96.5963899 C73.086689,95.4072848 72.6195406,95.1524766 71.726564,95.2374127 C70.8347352,95.3223488 62.5064088,95.7894972 62.5064088,95.7894972" id="Fill-8" fill="#065CCC"></path>
                        <path d="M62.449823,97.1064654 C62.449823,97.1064654 61.996448,92.3477497 60.7499537,85.663051 C59.5046072,78.9772046 56.5593914,66.1047981 62.806784,60.2717558 C71.1511795,52.478297 78.3305734,52.478297 78.3305734,52.478297 C78.3305734,52.478297 77.4066066,61.9957285 76.8396009,65.6078073 C75.9339987,71.385756 72.1095798,93.4519187 72.4493241,96.1721686 C70.2960798,100.250248 62.9743606,99.2310151 62.449823,97.1064654" id="Fill-10" fill="#065CCC"></path>
                        <path d="M20.8667276,100.50563 C20.8667276,100.50563 38.2028691,110.590067 51.5722665,114.21592 C46.246545,122.940232 48.2873064,146.357337 46.8135507,150.322934 C48.3997893,154.969166 57.0116186,152.476178 57.4638458,150.889939 C57.9172208,140.805502 67.9029485,111.890508 68.0165792,107.359053 C62.0641673,102.859737 49.3857364,89.7302265 49.3857364,89.7302265 C49.3857364,89.7302265 73.7704244,73.2686969 74.1101687,58.4243961 C74.2961098,50.2820108 30.6607753,78.9743351 26.5321933,81.4707671 C21.6598469,84.4159828 14.1820289,95.5208008 20.8667276,100.50563" id="Fill-12" fill="#065CCC"></path>
                        <path d="M7.26983934,77.5610677 C7.43971149,78.4115762 6.93009504,91.837215 20.866498,100.505286 C18.4871402,92.3479792 28.344316,83.3401642 38.3725117,80.1102977 C48.3995597,76.8815791 49.9295569,71.442227 49.0801961,69.7423577 C48.2296876,68.0436362 15.2572737,67.5340197 15.2572737,67.5340197 L7.26983934,77.5610677 Z" id="Fill-14" fill="#000000"></path>
                        <path d="M70.6647483,53.5545748 C70.6647483,53.5545748 70.8346205,51.8122375 68.2429224,50.2409201 C65.6500765,48.6684549 66.0334367,55.6366564 66.0334367,55.6366564 L70.6647483,53.5545748 Z" id="Fill-16" fill="#FFFFFF"></path>
                        <path d="M45.5670564,49.291243 C45.5670564,49.291243 47.8339314,61.1317909 41.2617156,65.579457 C34.6894999,70.0259753 35.8235113,48.837868 35.8235113,48.837868 L45.5670564,49.291243 Z" id="Fill-18" fill="#FFC3A5"></path>
                        <path d="M34.236584,52.0105747 C34.236584,52.0105747 37.9163821,53.9618089 43.0745269,51.896944 C46.498369,50.5276367 47.0401234,48.8380975 47.0401234,48.8380975 C47.0401234,48.8380975 46.4742655,46.6848533 46.9264927,39.4331489 C47.2524636,34.2267971 44.5471348,30.2554617 39.6747884,30.1429788 C34.8035897,30.0293481 34.236584,34.3358366 34.236584,52.0105747" id="Fill-20" fill="#000000"></path>
                        <path d="M5.82500784,44.9294312 C5.82500784,44.9294312 7.86462142,40.2556515 20.6968554,33.7121304 C33.5290895,27.1686093 43.8109457,30.3123918 42.9604371,40.4255236 C42.1110764,50.5375077 37.8631248,64.1341664 42.0261403,68.978966 C30.8088395,73.6515979 10.0741072,74.6719786 10.0741072,74.6719786 L5.82500784,44.9294312 Z" id="Fill-22" fill="#000000"></path>
                        <path d="M35.3977979,55.296453 C35.3977979,55.296453 40.1565136,51.429566 38.9674086,46.7133183 C37.7771558,41.9970706 36.3757105,37.450695 39.6044292,33.9671682" id="Stroke-24" stroke="#F1F1F1" stroke-width="0.573892398"></path>
                        <path d="M22.2454467,31.6838799 C22.2454467,31.6838799 21.464953,32.643428 20.6454347,35.0136036 C19.9487293,37.0268181 20.2586312,39.2718851 23.2773052,40.8982962 C26.297127,42.5235595 29.5510969,41.4790753 32.1049181,39.8916889 C36.4022244,37.2196459 30.0917036,37.955376 34.814838,33.000389 C39.5379724,28.0442543 26.9169308,25.3343344 26.9169308,25.3343344 C26.9169308,25.3343344 23.3806059,29.9025179 22.2454467,31.6838799" id="Fill-26" fill="#FFC3A5"></path>
                        <path d="M26.4330247,28.5706284 C26.4330247,28.5706284 27.4947257,30.7376461 26.8152371,38.3853362 C26.1357485,46.0341741 29.5343393,51.1326341 34.3355231,54.658629 C39.1367069,58.1857717 37.4804534,61.7978504 38.8818986,69.1057962 C40.2844917,76.413742 40.4968318,84.4872603 47.6773735,80.1532249 C54.859063,75.8191895 52.0114089,70.4647734 53.7537462,63.6251238" id="Stroke-28" stroke="#F1F1F1" stroke-width="0.573892398"></path>
                        <path d="M35.0581684,66.6840851 C35.0581684,66.6840851 36.9279098,63.5391548 38.542843,62.9446022 C40.1566284,62.3500497 43.598835,61.287201 43.598835,61.287201 L41.2619452,65.5799161 L35.0581684,66.6840851 Z" id="Fill-30" fill="#FFC3A5"></path>
                        <path d="M74.2196674,38.3497548 L73.0454835,37.3902068 C76.6541189,35.9623625 50.6016996,52.0497142 48.4851845,53.1160062 C47.9124399,53.4041002 43.8389516,64.7855343 43.8389516,64.7855343 C43.8389516,64.7855343 45.8338016,68.7155494 47.1640842,70.8366557 C50.7451727,68.8613181 62.3837106,62.2122008 62.6763957,61.528121 L74.2196674,38.3497548 Z" id="Fill-32" fill="#555555"></path>
                        <polygon id="Fill-34" fill="#1A0960" points="41.3917596 13.9554255 51.2420488 19.6426991 51.2420488 18.6429786 41.3917596 12.9568527"></polygon>
                        <polygon id="Fill-36" fill="#1A0960" points="41.3917596 12.9567379 51.2420488 18.6440116 52.1063307 18.1447252 42.2560416 12.4563037"></polygon>
                        <polygon id="Fill-38" fill="#471CAF" points="51.2420488 19.6428139 51.2420488 18.6430933 52.1063307 18.143807 52.1063307 19.1423797"></polygon>
                        <path d="M27.6138657,27.7092159 C27.6138657,27.7092159 27.5105651,32.8708041 28.1820192,34.2642149 C28.8534733,35.6587734 36.0282761,40.7687113 40.6733611,37.7236382 C45.319594,34.6774174 46.7554728,33.9118449 47.074557,29.7224304 C47.3947889,25.5330159 48.8811702,22.3926767 48.4174652,18.5728489 C47.9526123,14.7518733 49.2427224,11.5518493 42.9964776,7.57707057 C36.7502327,3.60229182 32.2084483,5.15065351 28.4919211,8.09357373 C24.7742461,11.0353462 22.9676329,12.0167022 22.9676329,18.6233514 C22.9676329,25.2311485 27.6138657,25.2311485 27.6138657,27.7092159" id="Fill-40" fill="#FFC3A5"></path>
                        <path d="M50.2043365,18.0678236 L50.2043365,20.5654033 C50.2043365,22.2149078 49.0894169,24.212428 47.6841528,25.1301898 L47.5070423,25.239183 L47.268303,26.4960074 C45.4386029,27.524029 43.7583752,26.1453268 43.6638559,24.4916323 L43.6596676,24.3450587 L43.6596676,23.2649932 L42.0183354,24.2130634 L42.0183354,25.2919811 C42.0183354,26.9414856 40.902358,28.9390058 39.4970093,29.8557521 L39.3198933,29.964613 L39.1431345,31.2042206 C37.4067911,32.2978044 35.577146,30.8722398 35.4768388,29.2142645 L35.4725187,29.0716364 L35.4725187,26.5729089 L50.2043365,18.0678236 Z M41.1999648,24.2130634 L36.7809933,27.2523975 L36.6271902,28.7020497 C36.292037,29.7947409 37.1345111,30.2814016 38.1709607,29.6834057 L38.1709607,29.6834057 L39.3198933,29.0199861 C40.356343,28.4219903 41.1999648,26.962008 41.1999648,25.7648684 L41.1999648,25.7648684 L41.1999648,24.2130634 Z M49.385966,19.4853378 L45.097842,22.3192185 L45.097842,23.8721713 C45.097842,25.0203234 45.3030549,25.514756 46.2364562,25.0234051 L46.3569619,24.956828 L47.5070423,24.2934083 C48.4889419,23.7257986 49.2967472,22.3855802 49.3790594,21.2291613 L49.385966,21.0382907 L49.385966,19.4853378 Z" id="Combined-Shape" fill="#1A0960"></path>
                        <path d="M40.3571464,30.0675693 L39.2082139,30.7321367 C37.943355,31.4609801 36.919531,30.6862253 36.919531,29.0012772 L36.919531,27.3851962 L42.6458293,24.079576 L42.6458293,25.6945092 C42.6458293,27.3806051 41.6220053,29.3375782 40.3571464,30.0675693" id="Fill-44" fill="#1A0960"></path>
                        <path d="M48.5441806,25.3413359 L47.395248,26.0047555 C46.1303892,26.7347466 45.1054174,25.9599919 45.1054174,24.2750438 L45.1054174,22.6589628 L50.8328635,19.3521948 L50.8328635,20.9682758 C50.8328635,22.6543717 49.8078917,24.6113447 48.5441806,25.3413359" id="Fill-46" fill="#1A0960"></path>
                        <polyline id="Fill-48" fill="#1A0960" points="51.2420488 18.6435525 50.1929735 18.0386699 35.4611556 26.5437552 36.5102309 27.1486378"></polyline>
                        <path d="M50.0876068,21.4070739 C50.0876068,22.6030657 49.2451328,24.0641957 48.2086831,24.6621916 L47.0586027,25.3256112 C46.0221531,25.9247549 45.179679,25.4369463 45.179679,24.2409546 L45.179679,22.6891495 L50.0876068,19.8552689 L50.0876068,21.4070739 Z" id="Fill-50" fill="#741CE5"></path>
                        <path d="M41.9012613,26.1338813 C41.9012613,27.329873 41.0587873,28.7898553 40.0223376,29.3889989 L38.8722572,30.0524186 C37.8358076,30.6504144 36.9933335,30.1637537 36.9933335,28.9677619 L36.9933335,27.4148091 L41.9012613,24.5809284 L41.9012613,26.1338813 Z" id="Fill-52" fill="#741CE5"></path>
                        <path d="M49.7199713,21.2523525 C49.7199713,22.4483443 48.8774973,23.9083265 47.8410476,24.5074702 L46.6909673,25.1708898 C45.6545176,25.7688857 44.8120436,25.2822249 44.8120436,24.0862332 L44.8120436,22.5332804 L49.7199713,19.6993997 L49.7199713,21.2523525 Z" id="Fill-54" fill="#FFFFFF"></path>
                        <path d="M41.5335111,25.978586 C41.5335111,27.1757255 40.6898892,28.6357078 39.6545874,29.2337037 L38.504507,29.8982711 C37.4680573,30.4962669 36.6255833,30.0084584 36.6255833,28.8124666 L36.6255833,27.2606616 L41.5335111,24.4267809 L41.5335111,25.978586 Z" id="Fill-56" fill="#FFFFFF"></path>
                        <path d="M51.2417044,18.6434377 L51.2417044,21.1410174 C51.2417044,22.78942 50.1267848,24.7879539 48.7215207,25.7047831 L48.5444102,25.8136493 L47.3943298,26.4782167 C45.956385,27.3081416 44.7779952,26.6826282 44.7010336,25.0879309 L44.6970355,24.9195249 L44.6970355,23.8406072 L43.0557033,24.7875297 L43.0557033,25.8675952 C43.0557033,27.5170997 41.9397259,29.5146199 40.5343771,30.4313662 L40.3572612,30.5402271 L39.2083286,31.2036467 C37.7703838,32.0346812 36.5909215,31.4092048 36.5138883,29.8155455 L36.5098866,29.6472505 L36.5098866,27.148523 L51.2417044,18.6434377 Z M42.2373327,24.7875297 L37.3282571,27.6214104 L37.3282571,29.1732154 C37.3282571,30.3703549 38.171879,30.8570157 39.2083286,30.2590198 L39.2083286,30.2590198 L40.3572612,29.5956002 C41.3937109,28.9976043 42.2373327,27.5364743 42.2373327,26.3404825 L42.2373327,26.3404825 L42.2373327,24.7875297 Z M50.4233339,20.0609519 L45.5154061,22.8948326 L45.5154061,24.4477854 C45.5154061,25.5959375 46.2918302,26.0903701 47.2709284,25.5990192 L47.3943298,25.532442 L48.5444102,24.8690224 C49.5263098,24.3014126 50.3341151,22.9611942 50.4164272,21.8047754 L50.4233339,21.6139047 L50.4233339,20.0609519 Z" id="Combined-Shape" fill="#471CAF"></path>
                        <polygon id="Fill-60" fill="#471CAF" points="35.6450307 28.6474152 35.6450307 27.6476946 36.5104605 27.1484082 36.5104605 28.1481288"></polygon>
                        <polygon id="Fill-62" fill="#471CAF" points="25.7946268 22.9600267 35.644916 28.6473004 35.644916 27.6475798 25.7946268 21.961454"></polygon>
                        <polygon id="Fill-64" fill="#1A0960" points="25.7946268 21.9613392 35.644916 27.6486129 36.5103457 27.1493265 26.6600566 21.4620528"></polygon>
                        <path d="M35.4830783,16.7161922 C42.4512798,14.6765786 48.9270816,15.5844764 50.5328325,8.84238853 C47.3592076,8.91929011 46.3526003,4.89286105 40.3634592,1.69283704 C34.3766138,-1.50833476 29.4721293,0.349928825 24.9819952,2.98294715 C20.4895655,5.61596547 17.2378912,9.64124675 18.6313019,17.1270992 C20.0258604,24.6118038 22.9159826,30.1349443 22.2456762,31.6844538 C27.820467,28.6898832 26.5820072,24.7151045 28.3369702,25.6964605 L30.0919331,26.6766687 C30.0919331,26.6766687 28.5148768,18.7558058 35.4830783,16.7161922" id="Fill-66" fill="#027AFF"></path>
                        <path d="M28.6461834,25.5924712 C28.6461834,25.5924712 29.3945391,20.8440855 26.2978157,19.9924292 C23.5350977,19.2314478 24.7230549,25.8507228 26.323067,27.2441335 C27.9242267,28.638692 28.6461834,29.3606487 28.6461834,25.5924712" id="Fill-69" fill="#FFC3A5"></path>
                        <path d="M65.9621592,55.0699951 C65.9621592,55.0699951 63.0594115,55.5945327 62.1664349,55.8068729 C61.5133453,55.9618239 60.0705799,62.547813 59.9569492,63.3420801 C59.8433185,64.1340516 65.9621592,63.2284494 66.7552785,62.8887051 C67.5483978,62.547813 70.3811307,59.3753358 70.9481364,58.0163587 C71.5139943,56.6562337 70.8345057,52.1247793 69.7016421,51.6714043 C68.5687785,51.2180293 67.9879994,54.489216 65.9621592,55.0699951" id="Fill-71" fill="#FFC3A5"></path>
                        <path d="M26.5080899,23.2885228 C26.5080899,23.2885228 28.7175756,24.3926917 27.3585984,26.4323053 C26.0834095,26.0076249 27.3333471,29.3006195 26.8478342,29.9169799 C26.4346316,30.4426654 25.8113845,28.4730667 24.9298858,26.2957189 C24.048387,24.1183712 25.2351965,22.6147731 26.5080899,23.2885228" id="Fill-73" fill="#F1F1F1"></path>
                        <path d="M1.57625286,61.7549233 C1.57625286,61.7549233 1.32144464,74.7570295 4.46522719,79.5157452 C20.7809881,84.5292692 28.7695702,72.9722241 34.9733471,74.3323491 C41.1759761,75.6913263 42.7909093,76.2870266 44.2359704,75.4365181 C45.6810314,74.5871573 49.3344304,72.2077994 49.928983,71.3572909 C50.5246833,70.5079301 52.1384687,62.6892201 52.0546804,61.7549233 C51.9685965,60.8206265 50.7794915,60.8206265 50.0988551,60.9904986 C49.4193665,61.1603708 45.4262232,64.1342812 44.7455868,64.3041533 C40.4540195,65.1121938 37.6075132,64.4740255 36.5033442,65.0697258 C35.3980274,65.6642783 34.0379025,67.788828 33.0186696,68.4683166 C31.9982889,69.1478052 18.8274583,71.2723548 13.218234,70.0832498 C11.9441929,65.4094701 12.4090458,54.1921693 11.8144932,49.6033257 C11.2199407,45.014482 4.04858131,48.838901 1.57625286,61.7549233" id="Fill-75" fill="#FFC3A5"></path>
                        <path d="M17.4968314,37.7192767 C21.0710333,32.6460679 12.7323767,37.765188 5.82500784,41.4622029 C4.12628634,45.3153164 0.567005689,61.4382495 -1.96287431e-13,65.4038459 C1.44506106,70.3886753 9.81929893,69.2340038 14.0683982,65.6070038 C14.1820289,58.3552995 13.9272207,42.7867465 17.4968314,37.7192767" id="Fill-77" fill="#000000"></path>
                    </g>
                    <g id="crossedgirl" transform="translate(149.036530, 160.811304) scale(-1, 1) translate(-149.036530, -160.811304) translate(105.036530, 92.811304)">
                        <path d="M36.5598666,15.3115532 C36.5598666,15.3115532 39.1976847,24.3122727 36.4043939,31.7613958 C33.6111032,39.210519 29.1107434,58.919027 42.3019208,59.0734562 C55.4930981,59.2289289 51.6125421,26.9500908 51.6125421,26.9500908 C51.6125421,26.9500908 46.336906,9.25959712 36.5598666,15.3115532" id="Fill-1" fill="#992E43"></path>
                        <path d="M46.0261693,35.9511233 C46.0261693,35.9511233 40.1296859,38.744414 37.4908244,48.6769261 C34.8530063,58.6083947 26.6275632,74.7483354 26.6275632,74.7483354 L35.6282827,71.3341975 L39.0424207,66.5228924 C39.0424207,66.5228924 47.2678638,57.9875475 51.4583216,51.3147442 C55.647736,44.6419409 54.5615143,31.6062362 46.0261693,35.9511233" id="Fill-3" fill="#FFDBC8"></path>
                        <path d="M72.9064539,75.9085371 C72.9064539,75.9085371 83.0779139,88.0907073 85.4830447,103.456415 C87.8881755,118.822123 78.1236574,121.145865 74.8263848,121.438029 C71.5291122,121.732279 68.9768562,114.065077 68.9768562,114.065077 C68.9768562,114.065077 66.8513675,99.5049052 51.2790585,92.5806327 C35.7067495,85.6563602 21.8884643,91.4547602 20.3869531,93.2505216 C18.8843985,95.046283 -1.96354671,84.8518674 7.82705739,78.1644559 C17.6197484,71.4770445 41.513497,66.8598194 55.4225615,71.4394806 C69.3326695,76.0180984 66.7511972,69.1856487 72.9064539,75.9085371" id="Fill-5" fill="#14232E"></path>
                        <path d="M42.6120313,68.695649 C39.5756189,63.0631561 37.3353517,58.1433331 39.8187406,50.6420379 C41.5341571,45.459268 44.5778736,37.0887867 47.7854103,35.7437916 C50.9919036,34.39984 54.8202875,32.1230524 58.2344255,33.7789928 C61.6485635,35.4338897 61.7132568,34.6565264 68.7867413,39.9864215 C72.5629532,42.8308409 72.2008793,46.5037521 73.1316284,56.746166 C74.063421,66.98858 70.5219832,69.4229271 75.0452987,78.4726883 C78.1495347,84.6790736 47.7196736,90.9031974 47.2678638,81.4204083 C46.9569184,74.9030777 45.8195681,74.6443044 42.6120313,68.695649" id="Fill-7" fill="#18AA68"></path>
                        <path d="M44.3188916,55.9700549 C44.3188916,55.9700549 44.6809656,50.2290441 42.3019208,47.124808 C39.9218325,44.0205719 37.5427877,38.8482364 39.9218325,32.8474089" id="Stroke-9" stroke="#F1F1F1" stroke-width="0.52172035"></path>
                        <path d="M61.1979015,31.2551184 C61.1979015,31.2551184 61.9387444,32.1670856 62.7181946,34.4177872 C63.379736,36.330414 62.9154049,38.1814778 60.2170672,40.007499 C56.5785895,42.4689756 57.2390874,49.0238701 50.2939461,46.1930155 C43.4395842,43.4007682 56.1132149,38.1240885 49.2578095,32.5051604 C44.2284253,28.3835696 56.7601482,25.2240312 56.7601482,25.2240312 C56.7601482,25.2240312 60.1189838,29.563701 61.1979015,31.2551184" id="Fill-11" fill="#FFDBC8"></path>
                        <path d="M56.0982937,27.4797413 C56.9747839,26.8693285 56.577233,31.0952633 53.3196111,34.2443673 C52.2636491,35.2648523 46.9640138,38.9732406 42.7151233,37.2964314 C38.7844822,35.7437916 38.6884856,33.2353602 37.6126983,29.3923681 C36.5598666,25.6318078 35.8962383,22.4294883 36.3376137,18.8004015 C36.7789891,15.1723582 35.5529463,12.1328154 41.4859501,8.35660354 C47.418954,4.58143509 51.7335813,6.05164303 55.2645846,8.84702067 C58.7945445,11.6413549 60.5110044,12.5731474 60.5110044,18.8494432 C60.5110044,25.125739 56.0982937,25.125739 56.0982937,27.4797413" id="Fill-13" fill="#FFDBC8"></path>
                        <g id="Group-17" transform="translate(0.000000, 96.802081)">
                            <mask id="mask-2" fill="white">
                                <use xlink:href="#path-1"></use>
                            </mask>
                            <g id="Clip-16"></g>
                            <path d="M30.6797652,5.57614711 C30.6797652,5.57614711 27.1091111,1.18117487 21.4442716,0.767972356 C15.7815189,0.353726398 1.52498858,3.75221276 0.301032642,7.2936505 C-0.9229233,10.8350882 1.7921094,14.4840004 4.64696316,14.0019308 C7.50286036,13.5209046 21.5204427,11.464283 27.2395412,12.6798914 C32.9586397,13.8954998 36.0920921,8.51760644 30.6797652,5.57614711" id="Fill-15" fill="#14232E" mask="url(#mask-2)"></path>
                        </g>
                        <g id="Group-20" transform="translate(23.999136, 93.671759)">
                            <mask id="mask-4" fill="white">
                                <use xlink:href="#path-3"></use>
                            </mask>
                            <g id="Clip-19"></g>
                            <path d="M51.7457895,10.7042408 C43.2876592,9.51471838 41.1266935,11.3647387 31.0835768,12.8881622 C21.04046,14.4115856 7.68963625,7.23793077 5.42432648,6.67760311 C3.16006016,6.11623201 -1.97784185,9.30081303 1.66480964,14.5201034 C7.00826947,18.1502336 37.633254,28.2987379 48.2846967,28.0159654 C60.3854785,27.6935423 63.0848596,25.7037009 63.0848596,25.7037009 C63.0712949,20.9560457 63.4427598,16.3857754 60.2414837,4.15143317 C57.474279,-6.42175145 51.7457895,10.7042408 51.7457895,10.7042408" id="Fill-18" fill="#14232E" mask="url(#mask-4)"></path>
                        </g>
                        <path d="M40.6378415,111.946475 C40.6378415,111.946475 43.9716346,107.293773 48.3593027,109.795943 C49.3213551,110.344793 50.3595786,111.078332 51.4624954,112.051862 C57.6000136,117.469406 65.0460064,130.560413 59.7056769,133.57387 C54.3653474,136.587327 52.3838535,135.339372 51.4395397,133.732473 C50.4941824,132.125574 47.1040436,122.440358 41.4214655,117.351498 C36.2449562,112.71549 39.864652,114.923411 40.6378415,111.946475" id="Fill-21" fill="#14232E"></path>
                        <path d="M27.3064258,88.4206433 C32.4578925,98.4428912 45.867149,108.751042 45.867149,108.751042 C45.867149,108.751042 47.3978765,111.722761 44.9593555,114.069459 C42.5218781,116.416157 40.8471557,116.997354 40.8471557,116.997354 C40.8471557,116.997354 25.2727598,105.596721 16.3909926,100.588205 C5.99623633,94.725112 1.506311,85.6930893 0.000626064421,84.773818 C5.07696507,77.4248652 15.6052817,73.6110894 24.0957587,71.9144548 C32.5872792,70.2188637 20.4458032,75.0729498 27.3064258,88.4206433" id="Fill-23" fill="#14232E"></path>
                        <path d="M27.768983,66.5145449 C27.768983,66.5145449 26.6420671,61.954709 26.2215605,60.96031 C25.8740947,60.1422525 18.1004615,57.036973 18.1004615,57.036973 C18.1004615,57.036973 17.4065734,57.5774753 17.062238,57.9437229 C17.9731617,61.4872476 21.1379174,71.5115824 21.1379174,71.5115824 L27.4382123,77.6877079 L31.2791175,74.7671174 L27.768983,66.5145449 Z" id="Fill-25" fill="#14232E"></path>
                        <path d="M24.9291548,61.5189682 C25.4967866,61.9175625 28.3432928,74.569281 28.3432928,74.569281 L23.7625881,74.0851245 L21.1372913,71.5119998 C21.1372913,71.5119998 18.0153167,61.5993131 17.0626554,57.9441403 C19.6368236,58.8227174 23.5194664,60.5287429 24.9291548,61.5189682" id="Fill-27" fill="#14232E"></path>
                        <path d="M72.6430895,43.9577568 C70.6000326,37.3308649 61.5356632,42.0586947 62.5780605,52.0538132 C63.4660285,60.5662025 64.3362581,77.3071651 63.5035924,78.52173 C62.6719701,79.736295 60.8073416,79.366917 54.5122639,78.803459 C45.3289422,77.9801843 36.5076946,77.8320157 35.1626995,76.5903213 C34.1922996,75.6960926 32.67305,73.7615536 32.2076754,71.854144 C31.6390002,69.5230974 29.971582,68.5620885 29.1858712,67.0877068 C28.3980734,65.6122817 27.6217535,65.1771669 27.0843816,65.9649646 C26.5459662,66.7527624 27.3535893,70.3067214 28.2895556,71.2447746 C28.6631074,71.6183264 25.2041014,72.521946 24.0959674,71.9146635 C22.9888768,71.307381 22.6925397,70.5081055 21.3788478,69.9237787 C20.0661994,69.3404953 20.4199258,69.7171774 20.9875576,72.9852337 C21.5551893,76.25329 22.7968837,79.9679388 23.9384079,80.8830363 C25.079932,81.7981338 31.3134467,80.9007748 31.9969004,81.0499869 C44.118551,83.7024131 58.9301918,88.7411883 72.09737,86.2922329 C76.3838244,66.2362592 74.8343149,51.0625446 72.6430895,43.9577568" id="Fill-29" fill="#FFDBC8"></path>
                        <path d="M18.4661875,60.4693712 C18.510012,60.8022287 18.8000885,61.1799543 19.116251,61.3135147 C19.4324136,61.4470751 19.6525795,61.2842983 19.6097985,60.9514408 C19.565974,60.6185832 19.274854,60.2398142 18.9597349,60.1072972 C18.6435724,59.9737368 18.422363,60.1365136 18.4661875,60.4693712" id="Fill-31" fill="#FFFFFF"></path>
                        <path d="M53.940667,25.5538628 C53.940667,26.0192373 55.4922634,32.6920406 52.0781254,39.8312619 C48.6639874,46.9694397 44.1636277,50.3835777 44.3191003,55.9701592 C44.474573,61.5567407 50.2166272,97.0942441 39.6632679,96.0080223 C29.1109521,94.9218006 32.2151882,75.6786672 33.1459373,64.0401296 C34.0766864,52.4005486 28.180203,50.228105 25.0759669,51.7807448 C21.9727743,53.3323411 22.9035234,59.8496717 22.9035234,59.8496717" id="Stroke-33" stroke="#FFFFFF" stroke-width="0.52172035"></path>
                        <path d="M22.9538172,59.9609025 L22.9538172,59.9609025 C23.2094602,59.9400337 23.4004098,59.7146505 23.379541,59.4590075 L23.2000692,57.2552608 C23.1792004,56.9996178 22.9538172,56.8086681 22.6981743,56.829537 C22.4425313,56.8504058 22.2505382,57.075789 22.271407,57.3303885 L22.4519223,59.5351787 C22.4727911,59.7897782 22.6981743,59.9817713 22.9538172,59.9609025" id="Fill-35" fill="#F1F1F1"></path>
                        <g id="Group-39" transform="translate(32.346662, 0.805536)">
                            <mask id="mask-6" fill="white">
                                <use xlink:href="#path-5"></use>
                            </mask>
                            <g id="Clip-38"></g>
                            <path d="M5.99790584,15.1270729 C5.99790584,15.1270729 6.77422572,21.7226615 13.473115,26.3513645 C11.6105734,24.3865657 11.1963274,22.109778 11.8171746,20.5581817 C12.0237759,24.6964675 14.8181101,26.9732552 17.7147015,27.3864577 C20.6112929,27.8007036 22.8818198,27.9363509 24.9561799,33.5938864 C26.0945737,36.697079 26.8187216,46.1120445 20.7145935,47.4570396 C28.5769192,55.6303106 40.9917766,47.5603402 40.5264021,38.7150934 C40.2196305,32.8759992 39.0259343,31.3692708 33.8535988,19.7818618 C28.6802198,8.1954963 30.3810281,5.64950099 21.7496867,1.41834894 C16.473007,-1.16729711 9.7219457,0.694201098 4.98889868,5.04013162 C0.25585166,9.3850187 0.100378995,17.9203636 1.88570603,20.790869 C1.57476071,17.6094183 3.8254623,16.057822 5.99790584,15.1270729" id="Fill-37" fill="#992E43" mask="url(#mask-6)"></path>
                        </g>
                    </g>
                    <g id="glass" transform="translate(342.385845, 0.000000)">
                        <polygon id="Fill-1" fill="#471CAF" points="12.6450944 1.38705583 6.94202385 4.67970977 6.94202385 11.1222775"></polygon>
                        <polygon id="Fill-2" fill="#1A0960" points="37.4264341 57.1198928 43.1295047 53.8272388 43.1295047 47.3846711"></polygon>
                        <g id="Group-25" transform="translate(0.590810, 0.000000)">
                            <g id="Group-5" transform="translate(3.095569, 0.000000)">
                                <mask id="mask-8" fill="white">
                                    <use xlink:href="#path-7"></use>
                                </mask>
                                <g id="Clip-4"></g>
                                <path d="M24.054328,46.2667578 C15.1707319,41.1377434 7.96906176,28.6646626 7.96906176,18.4066337 C7.96906176,12.8342649 10.094686,9.06214169 13.4602578,7.600689 C16.2902961,6.37243588 19.2874952,8.42067093 22.5426583,11.7900262 C26.6449756,16.0357715 35.454966,30.9863396 36.5913839,37.3869452 C37.4866913,42.4282518 38.3451959,45.7006126 35.4429276,47.3849463 C32.5310287,49.0747832 28.503693,48.8357365 24.054328,46.2667578 M24.054328,2.9291309 C18.167243,-0.469804242 12.8342649,-0.809972918 8.95861209,1.38719342 C5.03686968,3.61015616 0.278635637,13.4127924 0.278635637,20.2921794 C0.278635637,33.9694366 8.24972671,47.1679125 20.0940629,54.0063691 C26.1311111,57.4919802 35.5454254,56.2124782 39.4430911,53.82717 C43.1925135,51.5330092 45.5011204,46.7819982 45.5011204,40.0756191 C45.5011204,26.3987059 35.8990082,9.76758755 24.054328,2.9291309" id="Fill-3" fill="#471CAF" mask="url(#mask-8)"></path>
                            </g>
                            <path d="M39.687022,37.386842 C39.687022,48.2144557 35.1791851,53.0951367 25.8020177,47.6813298 C20.9364706,44.8722726 16.4255381,40.3200659 13.3299688,34.7466653 C10.4590002,29.5777524 8.82281978,23.4829203 8.82281978,18.2730771 C8.82281978,7.44511945 17.5657395,6.50991355 26.942563,11.9240643 C33.0514971,17.1865322 37.5318178,26.1275684 39.687022,37.386842" id="Fill-6" fill="#A02FF7"></path>
                            <path d="M40.5388195,36.7415878 C40.5388195,47.5695454 36.0309826,51.7619782 26.6534712,46.3481713 C17.2763037,40.9340205 10.3625216,29.1436848 10.3625216,18.3157271 C10.3625216,7.48776951 18.417537,5.86465932 27.7943605,11.2788101 C33.9032946,16.541622 38.3836153,25.4826581 40.5388195,36.7415878" id="Fill-8" fill="#FFFFFF"></path>
                            <path d="M45.6443764,48.7684938 C45.5941594,48.6966078 45.5391271,48.6319448 45.4768717,48.580008 C45.1422063,48.3020947 44.6455394,48.3210121 44.1192926,48.6969518 C43.2453102,49.3212249 42.621037,50.6939379 42.7249106,51.7629412 C42.7634332,52.1639894 42.8992943,52.4652915 43.1001624,52.6524015 L48.8362524,59.0712365 L51.1957641,55.0156967 L45.6443764,48.7684938 Z" id="Fill-10" fill="#FFAF00"></path>
                            <path d="M49.8211594,61.9100456 C48.9746931,61.9100456 48.4023567,61.2221413 48.2909162,60.0695576 C48.1099974,58.2070567 49.2017015,55.8073026 50.7243777,54.7200698 C51.1986877,54.380933 51.6747175,54.2020779 52.1012182,54.2020779 C52.9476844,54.2020779 53.5200208,54.8899822 53.6314613,56.0422219 C53.8123801,57.9047228 52.720676,60.3048209 51.1979998,61.3920536 C50.7236898,61.7308465 50.24766,61.9100456 49.8211594,61.9100456" id="Fill-12" fill="#FFFFFF"></path>
                            <path d="M52.1011838,54.0298611 C51.6516383,54.0298611 51.1460286,54.2073404 50.6242532,54.5798405 C49.0551435,55.7011245 47.9335156,58.1662296 48.1195937,60.0861705 C48.2437604,61.3673923 48.9192824,62.0821248 49.8214689,62.0821248 C50.2710144,62.0821248 50.7762801,61.9046455 51.2983994,61.5318014 C52.8678531,60.4105174 53.9887932,57.9454123 53.8027151,56.0258154 C53.6785483,54.7442497 53.0033703,54.0298611 52.1011838,54.0298611 M52.1011838,54.3738132 L52.1011838,54.3738132 C52.8499676,54.3738132 53.3579849,55.0039335 53.4604827,56.0588348 C53.6358983,57.8666473 52.5761817,60.1962352 51.0982193,61.2521683 C50.6531452,61.5699801 50.2118546,61.7381727 49.8214689,61.7381727 C49.0723411,61.7381727 48.5643238,61.1080523 48.46217,60.0528071 C48.2867544,58.2453386 49.346471,55.9154067 50.8240894,54.8598176 C51.2691635,54.5420058 51.7107981,54.3738132 52.1011838,54.3738132" id="Fill-14" fill="#000000"></path>
                            <path d="M51.8831869,53.0066034 C51.7827529,52.8628314 51.6733761,52.7338494 51.5485215,52.6303198 C50.8812543,52.0755249 49.8899842,52.1133597 48.8398983,52.8635193 C47.0960609,54.109658 45.8502662,56.8485489 46.0573254,58.9817402 C46.1347146,59.7817729 46.405405,60.3826573 46.7369748,60.7558453 L58.5011702,73.8108931 L63.2717865,65.8662864 L51.8831869,53.0066034 Z" id="Fill-16" fill="#741CE5"></path>
                            <g id="Group-20" transform="translate(57.783961, 65.350908)">
                                <mask id="mask-10" fill="white">
                                    <use xlink:href="#path-9"></use>
                                </mask>
                                <g id="Clip-19"></g>
                                <path d="M2.77091292,0.708885381 C4.49342528,-0.521775411 6.05565595,0.18882973 6.25996352,2.2958806 C6.46392715,4.40258752 5.30171283,7.10845908 3.57954442,8.33911987 C1.85703205,9.56943672 0.226698862,8.85917553 0.0220473328,6.75212466 C-0.182260244,4.64507378 1.04840055,1.93954617 2.77091292,0.708885381" id="Fill-18" fill="#1A0960" mask="url(#mask-10)"></path>
                            </g>
                            <path d="M21.4467924,49.559515 C12.5631962,44.4305005 5.36152611,31.9574197 5.36152611,21.6993908 C5.36152611,11.4417058 12.5631962,7.28401226 21.4467924,12.4130267 C30.3300445,17.5420412 37.5320586,30.0151219 37.5320586,40.2728069 C37.5320586,50.5308358 30.3300445,54.6885294 21.4467924,49.559515 M21.4467924,6.22188802 C15.4393241,2.75347454 10.0086636,2.47005797 6.11512527,4.81753139 C2.33199558,7.09862205 0,11.8637351 0,18.6038215 C0,32.2810787 9.60176822,48.912197 21.4467924,55.7506537 C27.4322477,59.2063409 32.8453666,59.500076 36.7354654,57.1804627 C40.5437036,54.9093467 42.8935847,50.133915 42.8935847,43.3683763 C42.8935847,29.691463 33.2914725,13.0603447 21.4467924,6.22188802" id="Fill-21" fill="#741CE5"></path>
                            <path d="M26.3098286,46.6921923 C30.5373445,49.1332207 33.8410049,49.5435556 36.1987969,48.2740282 C33.6205316,48.8150649 30.5053569,48.2042059 27.1497598,46.2667234 C18.2661636,41.1380529 11.0648375,28.6646282 11.0648375,18.4069433 C11.0648375,14.3238873 12.2091663,11.2124961 14.1432092,9.2633193 C11.5976194,10.6762747 10.018535,13.6291039 10.018535,18.3157959 C10.018535,29.1434096 16.9323172,41.2780415 26.3098286,46.6921923" id="Fill-23" fill="#741CE5"></path>
                        </g>
                    </g>
                    <path d="M120,88 C126.666667,54.6666667 140,35.6666667 160,31 C190,24 209,45 261,102 C313,159 378,157 401,140 C416.333333,128.666667 420.666667,114 414,96" id="Path-3" stroke="#9DAFB7" stroke-dasharray="4,4"></path>
                </g>
            </g>
        </g>
    </g>
</svg>