<svg id="ilustra" xmlns="http://www.w3.org/2000/svg" viewBox="0 0 960.24 648"><defs><style>.cls-1,.cls-15,.cls-18,.cls-19,.cls-20,.cls-23{fill:none;}.cls-1{stroke:#a1adb6;}.cls-1,.cls-15,.cls-18,.cls-19,.cls-20,.cls-21{stroke-miterlimit:10;}.cls-2{fill:#a1adb6;}.cls-3{fill:#4b84b5;}.cls-4{fill:#67bcda;}.cls-5{fill:#ab3a47;}.cls-6{fill:#ca4d5d;}.cls-7{fill:#f2f2f2;}.cls-8{fill:#f4d03e;}.cls-9{fill:#c98200;}.cls-10{fill:#edaf00;}.cls-11{fill:#55c9b3;}.cls-12{fill:#156b5d;}.cls-13{fill:#248e7e;}.cls-14{fill:#f3f6f7;}.cls-15{stroke:#f4d03e;stroke-width:5px;}.cls-16{fill:#54636f;}.cls-17{fill:#e0e6ed;}.cls-18{stroke:#55c9b3;}.cls-19,.cls-21,.cls-23{stroke:#fff;}.cls-20{stroke:#ca4d5d;}.cls-21{fill:#7ee0db;}.cls-22{fill:#fff;}.cls-23{stroke-linecap:round;stroke-linejoin:round;}.cls-24{fill:#5d9eba;}.cls-25{fill:#73cfeb;}</style></defs><title>computer-science_art</title><polyline class="cls-1" points="715.06 289.64 881.49 289.64 881.49 266.51 938.54 233.57"/><line class="cls-1" x1="881.49" y1="289.64" x2="954.87" y2="289.64"/><polyline class="cls-1" points="838.68 289.18 838.68 302.88 893.06 334.28"/><ellipse class="cls-2" cx="938.54" cy="233.57" rx="5.37" ry="3.1"/><ellipse class="cls-2" cx="954.87" cy="289.64" rx="5.37" ry="3.1"/><ellipse class="cls-2" cx="893.06" cy="334.28" rx="5.37" ry="3.1"/><path class="cls-3" d="M160.62,535.13,53.8,473.45a6,6,0,0,1-3.3-4.27c0-.12,0-5.43,0-5.55-.1-2.24,1.51.55,4.72-1.3l104.05-60.08c5.7-3.29,14.33-3.65,19.27-.8l106.82,61.68c2.28,1.31,3.37-1.85,3.33,0,0,.07,0,5.08,0,5.15-.15,2.09-1.74,4.26-4.71,6l-104,60.08C174.19,537.62,165.56,538,160.62,535.13Z"/><path class="cls-4" d="M160.62,530.13,53.8,468.45c-2.23-1.29-3.33-3-3.33-4.82,0-2.19,1.59-4.5,4.72-6.3l104.05-60.08c5.7-3.29,14.33-3.65,19.27-.8l106.82,61.68c2.31,1.33,3.4,3.13,3.33,5-.08,2.13-1.68,4.37-4.72,6.12l-104,60.08C174.19,532.62,165.56,533,160.62,530.13Z"/><path class="cls-5" d="M809.58,511.82l-80.11-46.26a4.5,4.5,0,0,1-2.48-3.2c0-.09,0-5.07,0-5.17-.08-1.68,1.13.42,3.54-1l78-45.06c4.28-2.47,10.75-2.74,14.46-.6l80.11,46.26c1.71,1,2.53-1.39,2.5,0,0,.05,0,4.81,0,4.86-.11,1.57-1.3,3.2-3.53,4.48l-78,45.06C819.76,513.69,813.29,514,809.58,511.82Z"/><path class="cls-6" d="M809.58,507.07l-80.11-46.26a4.27,4.27,0,0,1-2.5-3.62c0-1.64,1.19-3.37,3.54-4.72l78-45.06c4.28-2.47,10.75-2.74,14.46-.6l80.11,46.26c1.73,1,2.55,2.34,2.5,3.75-.06,1.6-1.26,3.28-3.54,4.59l-78,45.06C819.76,508.94,813.29,509.21,809.58,507.07Z"/><circle class="cls-7" cx="483.87" cy="324" r="324"/><polygon class="cls-8" points="739.14 368.88 617.83 298.84 505.07 198.81 626.38 268.85 739.14 368.88"/><polygon class="cls-9" points="634.55 264.13 626.38 268.85 739.14 368.88 747.3 364.16 634.55 264.13"/><polyline class="cls-1" points="273.58 325.35 135.31 245.52 135.31 201.01 99.82 180.51"/><polyline class="cls-1" points="135.31 245.52 85.11 245.52 54.81 263.01 5.87 234.75"/><polyline class="cls-1" points="162.58 261.26 100.52 261.26 51.47 289.58 18.21 270.38"/><polyline class="cls-1" points="217.15 292.76 217.15 218.21 125.83 165.49"/><polyline class="cls-1" points="470.22 378.47 655.69 485.55 655.69 573.72 708.64 604.29"/><polyline class="cls-1" points="655.69 537.28 692.74 537.28 758.73 575.37"/><polyline class="cls-1" points="655.69 506.23 703.52 506.23 748.75 532.34"/><polyline class="cls-1" points="655.69 573.72 599.72 573.72 599.72 600.9 657.12 634.04"/><ellipse class="cls-1" cx="758.73" cy="575.37" rx="5.37" ry="3.1"/><ellipse class="cls-1" cx="708.64" cy="604.29" rx="5.37" ry="3.1"/><ellipse class="cls-2" cx="657.15" cy="633.47" rx="5.37" ry="3.1"/><ellipse class="cls-2" cx="748.75" cy="532.34" rx="5.37" ry="3.1"/><ellipse class="cls-1" cx="125.83" cy="165.49" rx="5.37" ry="3.1"/><ellipse class="cls-1" cx="99.82" cy="180.51" rx="5.37" ry="3.1"/><ellipse class="cls-1" cx="5.87" cy="234.75" rx="5.37" ry="3.1"/><ellipse class="cls-2" cx="18.21" cy="270.38" rx="5.37" ry="3.1"/><polygon class="cls-8" points="368.94 582.61 247.63 512.57 294.87 352.54 416.18 422.58 368.94 582.61"/><polygon class="cls-9" points="424.35 417.87 416.18 422.58 368.94 582.61 377.1 577.9 424.35 417.87"/><polygon class="cls-4" points="742.37 226.78 372.17 440.51 203.9 343.36 574.1 129.62 742.37 226.78"/><polygon class="cls-2" points="543.35 281.13 460.05 329.22 460.05 328.33 543.35 280.24 543.35 281.13"/><polygon class="cls-2" points="400.4 289.89 398.07 289.89 369.42 222.45 371.75 222.45 400.4 289.89"/><polygon class="cls-2" points="455.05 175.36 452.71 175.36 369.42 222.45 371.75 222.45 455.05 175.36"/><polygon class="cls-10" points="383.8 281.03 353.49 298.53 323.18 281.03 353.49 263.53 383.8 281.03"/><polygon class="cls-5" points="375.07 281.03 353.49 293.49 331.91 281.03 353.49 268.57 375.07 281.03"/><polygon class="cls-9" points="383.8 311.03 353.49 328.53 353.49 298.53 383.8 281.03 383.8 311.03"/><polygon class="cls-8" points="353.49 298.53 353.49 328.53 323.18 311.03 323.18 281.03 353.49 298.53"/><polygon class="cls-11" points="337.1 284.03 353.49 293.49 369.87 284.03 353.49 274.57 337.1 284.03"/><path class="cls-12" d="M338.14,271.49s-8.1-5.71-8-10.2c11.38-2.37,16.64,0,16.64,0s2.37-6.57,7.2-8.87c4.16,4.07,4.44,13.05,4.44,13.05,10.45-3.1,13.46-.89,13.46-.89-.52,3.37-4.41,7.53-4.41,7.53Z"/><path class="cls-13" d="M352.69,285.55s-14.42-1.9-27.49-16.73c12.91-.13,17.8,2.43,17.8,2.43-9.28-10.94-7.59-27.79-7.59-27.79,9.24,7.2,16.68,20.78,16.68,20.78,5.35-7.35,17.3-9.16,17.3-9.16-1.94,11-9.2,14.68-9.2,14.68,15.49-3.15,18.74,3.55,18.74,3.55S361.28,284.72,352.69,285.55Z"/><polygon class="cls-5" points="356.08 364.23 313.75 388.67 252.02 353.03 252.02 351.03 356.08 362.23 356.08 364.23"/><polygon class="cls-6" points="356.08 362.23 313.75 386.67 252.02 351.03 294.35 326.59 356.08 362.23"/><polygon class="cls-14" points="353.08 362.23 310.75 386.67 296.37 367.92 353.08 352.23 353.08 362.23"/><polygon class="cls-5" points="356.08 354.23 313.75 378.67 252.02 343.03 252.02 341.03 356.08 352.23 356.08 354.23"/><polygon class="cls-6" points="356.08 352.23 313.75 376.67 252.02 341.03 294.35 316.59 356.08 352.23"/><polygon class="cls-5" points="313.75 376.67 313.75 388.67 252.02 353.03 252.02 341.03 313.75 376.67"/><polygon class="cls-5" points="356.08 351.23 313.75 375.67 252.02 340.03 252.02 338.03 356.08 349.23 356.08 351.23"/><polygon class="cls-6" points="356.08 349.23 313.75 373.67 252.02 338.03 294.35 313.59 356.08 349.23"/><polygon class="cls-14" points="353.08 349.23 310.75 373.67 296.37 354.92 353.08 339.23 353.08 349.23"/><polygon class="cls-5" points="356.08 341.23 313.75 365.67 252.02 330.03 252.02 328.03 356.08 339.23 356.08 341.23"/><polygon class="cls-6" points="356.08 339.23 313.75 363.67 252.02 328.03 294.35 303.59 356.08 339.23"/><polygon class="cls-5" points="313.75 363.67 313.75 375.67 252.02 340.03 252.02 328.03 313.75 363.67"/><circle class="cls-15" cx="530.54" cy="215.76" r="6.74"/><path class="cls-8" d="M523.82,208.49c2.94,1.7,8.43-8.86,8.26-6.63,0,.14-4.13,30.29-4.15,30.44-.31,1.83-1.68,3.61-4.11,5-5.58,3.2-14.61,3.2-20.18,0-2.41-1.4-3.78-3.16-4.11-5,0-.26-4.09-29.58-4.1-29.85,0-2.13,5.39,7.61,8.21,6C509.21,205.26,518.25,205.27,523.82,208.49Z"/><path class="cls-10" d="M526.71,194c3.76,2.17,5.55,5.05,5.37,7.89-.17,2.58-2,5.14-5.37,7.11-7.17,4.14-18.81,4.14-26,0-3.14-1.81-4.9-4.12-5.3-6.49-.5-3,1.26-6.18,5.3-8.51C507.9,189.83,519.54,189.83,526.71,194Z"/><ellipse class="cls-9" cx="513.72" cy="201.47" rx="14.42" ry="8.32"/><path d="M523.92,201.58c-5.64-3.25-14.76-3.25-20.4,0a9.66,9.66,0,0,0-3.24,2.89,9.54,9.54,0,0,0,3.24,2.88c5.64,3.26,14.76,3.26,20.4,0a9.54,9.54,0,0,0,3.24-2.88A9.66,9.66,0,0,0,523.92,201.58Z"/><ellipse class="cls-16" cx="572.6" cy="157.46" rx="30.11" ry="17.39"/><ellipse class="cls-17" cx="572.6" cy="154.46" rx="30.11" ry="17.39"/><rect class="cls-2" x="560.99" y="124.16" width="23.22" height="33.49"/><rect class="cls-16" x="485.93" y="24.59" width="173.33" height="102.67"/><rect x="491.93" y="30.59" width="161.33" height="82.67"/><polygon class="cls-2" points="654.26 20.26 490.93 20.26 485.93 24.59 659.26 24.59 654.26 20.26"/><line class="cls-18" x1="502.21" y1="41.26" x2="535.87" y2="41.26"/><line class="cls-18" x1="502.21" y1="46.59" x2="586.54" y2="46.59"/><line class="cls-18" x1="502.21" y1="51.92" x2="586.54" y2="51.92"/><line class="cls-19" x1="502.21" y1="62.59" x2="607.54" y2="62.59"/><line class="cls-20" x1="502.21" y1="67.92" x2="550.87" y2="67.92"/><line class="cls-19" x1="502.21" y1="73.26" x2="607.54" y2="73.26"/><line class="cls-18" x1="502.21" y1="78.59" x2="535.87" y2="78.59"/><line class="cls-21" x1="502.21" y1="94.59" x2="580.87" y2="94.59"/><line class="cls-21" x1="502.21" y1="99.92" x2="518.54" y2="99.92"/><path class="cls-22" d="M492.31,242.84h0c.95.55.83,1.52-.27,2.15l-2.21,1.27a4.14,4.14,0,0,1-3.73.16h0c-1-.55-.83-1.52.27-2.16l2.21-1.27A4.17,4.17,0,0,1,492.31,242.84Z"/><path class="cls-16" d="M584.6,262.11a6,6,0,0,1-2.93-.68l-37.73-21.79a2.32,2.32,0,0,1-1.32-2V235.6l18-9.74a7.26,7.26,0,0,1,6.65-.25l39,21.7v2.06a3,3,0,0,1-1.75,2.44l-16.22,9.36A7.61,7.61,0,0,1,584.6,262.11Z"/><path class="cls-8" d="M604.29,249.32l-16.22,9.36a6.84,6.84,0,0,1-6.15.25l-37.73-21.79c-1.58-.91-1.38-2.5.44-3.55l16.21-9.36A6.84,6.84,0,0,1,567,224l37.74,21.79C606.31,246.68,606.11,248.27,604.29,249.32Z"/><path class="cls-16" d="M584.6,260.05a6,6,0,0,1-2.93-.69l-37.73-21.78a2.32,2.32,0,0,1-1.32-2,3,3,0,0,1,1.76-2.44l16.21-9.36a7.26,7.26,0,0,1,6.65-.25L605,245.33a2.3,2.3,0,0,1,1.31,2,3,3,0,0,1-1.75,2.44l-16.22,9.36A7.61,7.61,0,0,1,584.6,260.05Zm-20.27-36.18a6.65,6.65,0,0,0-3.24.8L544.88,234c-.8.46-1.26,1-1.26,1.57a1.39,1.39,0,0,0,.82,1.11l37.73,21.79a6.39,6.39,0,0,0,5.65-.26L604,248.88c.8-.46,1.25-1,1.25-1.57a1.38,1.38,0,0,0-.81-1.11l-37.74-21.79A5,5,0,0,0,564.33,223.87Z"/><path class="cls-16" d="M559.24,228.32l-7.53,4.35a4.3,4.3,0,0,1-3.88.16l-.94-.54,11.69-6.75.94.54C560.52,226.66,560.39,227.66,559.24,228.32Z"/><polygon class="cls-22" points="580.99 234.66 562.91 245.09 550.57 237.97 568.65 227.53 580.99 234.66"/><polygon class="cls-22" points="587.69 238.53 569.61 248.96 564.32 245.91 582.4 235.47 587.69 238.53"/><polygon class="cls-22" points="598.8 244.94 580.72 255.38 571.02 249.78 589.1 239.34 598.8 244.94"/><path class="cls-22" d="M602.14,256.82,598.93,255a3.59,3.59,0,0,0-3.23.13h0c-1,.55-.06,2.39.77,2.87l3.2,1.85S603,260.34,602.14,256.82Z"/><path class="cls-16" d="M602.14,256.82c-3.38.1-2.47,3-2.47,3S603,260.34,602.14,256.82Z"/><path class="cls-23" d="M492.31,242.84h0c4.46-2.58,4.46-6.76,0-9.34l-23.12-13.34c-9-5.17-9-13.55,0-18.72l32.75-18.91h0c8.95-5.17,23.47-5.17,32.42,0L637.8,242.24c4.46,2.58,4.46,6.76,0,9.34L621.56,261c-4.46,2.58-11.7,2.58-16.17,0l-4.47-2.58"/><polygon class="cls-17" points="543.35 280.24 460.05 328.33 400.4 289.89 483.7 241.8 543.35 280.24"/><polygon class="cls-16" points="483.7 241.8 400.4 289.89 371.75 222.45 455.05 175.36 483.7 241.8"/><polygon class="cls-2" points="509.29 266.57 439.84 306.67 414.26 289.89 483.7 249.8 509.29 266.57"/><polygon class="cls-14" points="504.22 291.23 484.29 302.74 470.5 293.78 490.43 282.27 504.22 291.23"/><polygon points="476.04 236.55 401.4 278.64 380.28 228.63 378.41 224.2 453.05 182.11 476.04 236.55"/><polygon class="cls-2" points="400.4 294.78 460.05 329.22 460.05 328.33 400.4 289.89 400.4 294.78"/><polygon class="cls-24" points="742.39 243.58 372.19 457.31 372.17 440.51 742.37 226.78 742.39 243.58"/><polygon class="cls-25" points="203.92 360.16 372.19 457.31 372.17 440.51 203.9 343.36 203.92 360.16"/><line class="cls-19" x1="387.1" y1="226.74" x2="421.07" y2="207.58"/><line class="cls-19" x1="388.67" y1="230.45" x2="422.95" y2="211.12"/><line class="cls-19" x1="390.24" y1="234.16" x2="424.37" y2="214.91"/><line class="cls-19" x1="391.81" y1="237.87" x2="425.76" y2="218.72"/><line class="cls-20" x1="394.94" y1="245.3" x2="412.58" y2="235.35"/><line class="cls-20" x1="398.08" y1="252.72" x2="415.31" y2="243"/><line class="cls-20" x1="399.64" y1="256.43" x2="416.22" y2="247.09"/><line class="cls-18" x1="401.21" y1="260.14" x2="439.35" y2="238.63"/><line class="cls-18" x1="402.78" y1="263.85" x2="440.69" y2="242.48"/><line class="cls-18" x1="404.35" y1="267.57" x2="456.02" y2="238.43"/></svg>