<svg id="ilustra" xmlns="http://www.w3.org/2000/svg" viewBox="0 0 794.75 654.9"><defs><style>.cls-1{fill:#c98200;}.cls-2{fill:#edaf00;}.cls-3{fill:#4b84b5;}.cls-4{fill:#67bcda;}.cls-14,.cls-5,.cls-7,.cls-8{fill:none;}.cls-14,.cls-5{stroke:#f4d03e;}.cls-5,.cls-7{stroke-miterlimit:10;}.cls-14,.cls-5,.cls-8{stroke-width:3px;}.cls-6{fill:#f2f2f2;}.cls-7,.cls-8{stroke:#ab3a47;}.cls-14,.cls-8{stroke-linecap:round;stroke-linejoin:round;}.cls-9{fill:#73cfeb;}.cls-10{fill:#5d9bba;}.cls-11{fill:#fff;}.cls-12{fill:#ca4d5d;}.cls-13{fill:#ab3a47;}.cls-15{fill:#f4d03e;}</style></defs><title>data-science_art</title><path class="cls-1" d="M718.08,571.57l-65.33-42a4.15,4.15,0,0,1-2-2.95c0-.09-.08-3.8-.08-3.88-.09-1.57.92.37,2.84-1l62.24-43c3.42-2.36,8.63-2.7,11.65-.75l65.33,42c1.4.89,2-1.33,2,0,0,.06.06,3.55,0,3.6a5.65,5.65,0,0,1-2.78,4.22l-62.24,43C726.31,573.17,721.1,573.51,718.08,571.57Z"/><path class="cls-2" d="M718,568.07l-65.33-42a4.05,4.05,0,0,1-2.07-3.34c0-1.53.91-3.16,2.78-4.45l62.25-43c3.41-2.35,8.62-2.69,11.65-.75l65.32,42A4,4,0,0,1,794.7,520a5.67,5.67,0,0,1-2.78,4.33l-62.25,43C726.26,569.68,721,570,718,568.07Z"/><path class="cls-3" d="M121.74,653,14.92,591.31a6,6,0,0,1-3.3-4.28c0-.12,0-5.43,0-5.55-.1-2.24,1.5.55,4.72-1.3l104.05-60.07c5.7-3.3,14.33-3.66,19.27-.8L246.45,581c2.28,1.31,3.37-1.85,3.33,0,0,.07,0,5.08,0,5.15-.15,2.09-1.74,4.26-4.71,6L141,652.18C135.31,655.47,126.68,655.83,121.74,653Z"/><path class="cls-4" d="M121.74,648,14.92,586.31c-2.23-1.29-3.33-3-3.33-4.83,0-2.19,1.59-4.5,4.72-6.3l104.05-60.07c5.7-3.3,14.33-3.66,19.27-.8L246.45,576c2.3,1.33,3.4,3.13,3.33,5-.08,2.14-1.68,4.37-4.72,6.13L141,647.18C135.31,650.47,126.68,650.83,121.74,648Z"/><path class="cls-1" d="M720.46,533.8l16.61-9.59c1.31-.75,1.14-2.08-.37-3h0a5.7,5.7,0,0,0-5.12-.21L715,530.64c-1.3.75-1.14,2.08.37,3h0A5.7,5.7,0,0,0,720.46,533.8Z"/><path class="cls-3" d="M101.45,579.83l37.13,21.44c2.78,1.61,7,1.79,9.43.4h0c2.42-1.39,2.11-3.85-.67-5.45l-37.12-21.44c-2.78-1.61-7-1.79-9.44-.4h0C98.37,575.77,98.67,578.23,101.45,579.83Z"/><path class="cls-5" d="M662.75,217.06,470.67,328c-8,4.61-14.61-.48-14.72-11.32l-.62-63.45c-.11-10.83,6.34-23.47,14.33-28.08l192.07-110.9c8-4.61,14.61.48,14.72,11.32l.63,63.45C677.18,199.81,670.74,212.45,662.75,217.06Z"/><path class="cls-5" d="M674.05,223.74,482,334.63c-8,4.62-14.61-.48-14.72-11.31l-.62-63.45C466.53,249,473,236.4,481,231.79L673,120.89c8-4.61,14.61.48,14.72,11.32l.62,63.44C688.49,206.49,682,219.13,674.05,223.74Z"/><path class="cls-5" d="M685.36,230.42,493.29,341.31c-8,4.61-14.62-.48-14.72-11.31l-.63-63.45c-.1-10.84,6.34-23.47,14.33-28.09L684.35,127.57c8-4.61,14.61.48,14.72,11.31l.62,63.45C699.8,213.17,693.35,225.81,685.36,230.42Z"/><path class="cls-5" d="M49.75,227l192.08,110.9c8,4.61,14.61-.48,14.72-11.32l.62-63.44c.11-10.84-6.34-23.48-14.33-28.09L50.77,124.11c-8-4.62-14.62.48-14.72,11.31l-.63,63.45C35.32,209.7,41.76,222.34,49.75,227Z"/><path class="cls-5" d="M38.45,233.63l192.07,110.9c8,4.61,14.61-.48,14.72-11.32l.62-63.45c.11-10.83-6.34-23.47-14.33-28.08L39.46,130.78c-8-4.61-14.61.48-14.72,11.32l-.62,63.44C24,216.38,30.46,229,38.45,233.63Z"/><path class="cls-5" d="M27.14,240.31,219.21,351.2c8,4.62,14.61-.48,14.72-11.31l.63-63.45c.1-10.83-6.35-23.47-14.33-28.08L28.15,137.46c-8-4.61-14.61.48-14.72,11.32l-.62,63.44C12.7,223.06,19.15,235.7,27.14,240.31Z"/><path class="cls-5" d="M15.83,247,207.91,357.88c8,4.61,14.61-.48,14.71-11.31l.63-63.45c.11-10.84-6.34-23.48-14.33-28.09L16.84,144.14c-8-4.61-14.61.48-14.71,11.31L1.5,218.9C1.39,229.74,7.84,242.37,15.83,247Z"/><circle class="cls-6" cx="364.69" cy="324" r="324"/><path class="cls-7" d="M387.18,465.57l97.16,56.09c8.71,5,22.84,5,31.55,0l89.86-51.88c5.63-3.25,14.75-3.25,20.38,0l88.09,50.86c5.13,3,4.47,11.28,4.47,11.28"/><path class="cls-7" d="M398.93,459l91.95,52.08c5.37,3.11,14.08,3.11,19.46,0l88.52-51.11c9.71-5.6,25.44-5.6,35.15,0l92.82,53.6c4.6,2.25,4.52,9.72,4.52,9.72"/><path class="cls-8" d="M106.84,576.41l-.12-11.86c-.1-10.84,6.34-23.48,14.33-28.09L313.13,425.57c8-4.62,14.61.48,14.72,11.31"/><path class="cls-8" d="M118.15,583.88,118,571.22c-.11-10.83,6.34-23.47,14.33-28.08l192.08-110.9c8-4.61,14.61.48,14.71,11.32"/><path class="cls-8" d="M129.47,590.88l-.13-13c-.11-10.83,6.34-23.47,14.33-28.08l192.07-110.9c8-4.61,14.61.48,14.72,11.32"/><path class="cls-8" d="M140.76,596.38l-.12-11.8c-.1-10.84,6.35-23.48,14.33-28.09L347.05,445.6c8-4.61,14.61.48,14.72,11.31"/><polygon class="cls-3" points="524.17 235.42 376.08 320.92 282.55 266.92 430.64 181.42 524.17 235.42"/><polygon class="cls-9" points="376.08 333.92 282.55 279.92 282.55 266.92 376.08 320.92 376.08 333.92"/><polygon class="cls-10" points="376.08 333.92 524.17 248.42 524.17 235.42 376.08 320.92 376.08 333.92"/><polygon class="cls-3" points="524.17 219.42 376.08 304.92 282.55 250.92 430.64 165.42 524.17 219.42"/><polygon class="cls-9" points="376.08 317.92 282.55 263.92 282.55 250.92 376.08 304.92 376.08 317.92"/><polygon class="cls-10" points="376.08 317.92 524.17 232.42 524.17 219.42 376.08 304.92 376.08 317.92"/><polygon class="cls-3" points="508.44 166.96 376.08 243.37 292.49 195.11 424.85 118.69 508.44 166.96"/><polygon class="cls-2" points="376.08 298.92 292.49 250.66 292.49 195.11 376.08 243.37 376.08 298.92"/><polygon class="cls-1" points="376.08 298.92 508.44 222.51 508.44 166.96 376.08 243.37 376.08 298.92"/><polygon class="cls-3" points="524.17 163.42 376.08 248.92 282.55 194.92 430.64 109.42 524.17 163.42"/><polygon class="cls-9" points="376.08 261.92 282.55 207.92 282.55 194.92 376.08 248.92 376.08 261.92"/><polygon class="cls-10" points="376.08 261.92 524.17 176.42 524.17 163.42 376.08 248.92 376.08 261.92"/><polygon class="cls-4" points="524.17 147.43 376.08 232.92 282.55 178.92 430.64 93.42 524.17 147.43"/><polygon class="cls-9" points="376.08 245.92 282.55 191.92 282.55 178.92 376.08 232.92 376.08 245.92"/><polygon class="cls-10" points="376.08 245.92 524.17 160.42 524.17 147.43 376.08 232.92 376.08 245.92"/><ellipse class="cls-11" cx="350.95" cy="225.84" rx="1.89" ry="3.27" transform="translate(-65.9 205.73) rotate(-30)"/><ellipse class="cls-11" cx="359.61" cy="230.84" rx="1.89" ry="3.27" transform="translate(-67.24 210.73) rotate(-30)"/><ellipse class="cls-11" cx="368.27" cy="235.84" rx="1.89" ry="3.27" transform="translate(-68.58 215.73) rotate(-30)"/><ellipse class="cls-11" cx="350.95" cy="297.92" rx="1.89" ry="3.27" transform="translate(-101.94 215.39) rotate(-30)"/><ellipse class="cls-11" cx="359.61" cy="302.92" rx="1.89" ry="3.27" transform="translate(-103.28 220.39) rotate(-30)"/><ellipse class="cls-11" cx="368.27" cy="307.92" rx="1.89" ry="3.27" transform="translate(-104.62 225.39) rotate(-30)"/><polygon class="cls-4" points="306.65 202.31 285.86 190.31 285.86 185.54 306.65 197.54 306.65 202.31"/><polygon class="cls-4" points="306.65 274.31 285.86 262.31 285.86 257.54 306.65 269.54 306.65 274.31"/><ellipse class="cls-3" cx="475.15" cy="193.78" rx="4.03" ry="2.31" transform="translate(65.56 502.9) rotate(-59.23)"/><rect class="cls-2" x="470.64" y="201.59" width="54.67" height="10.58" rx="5.29" ry="5.29" transform="translate(170.15 -221.27) rotate(30)"/><ellipse class="cls-3" cx="460.11" cy="202.55" rx="4.03" ry="2.31" transform="translate(50.68 494.27) rotate(-59.23)"/><rect class="cls-2" x="455.61" y="210.36" width="54.67" height="10.58" rx="5.29" ry="5.29" transform="translate(172.53 -212.58) rotate(30)"/><ellipse class="cls-3" cx="445.08" cy="211.32" rx="4.03" ry="2.31" transform="translate(35.81 485.63) rotate(-59.23)"/><rect class="cls-2" x="440.58" y="219.12" width="54.67" height="10.58" rx="5.29" ry="5.29" transform="translate(174.9 -203.89) rotate(30)"/><polygon class="cls-3" points="641.09 312.92 493 398.42 399.47 344.42 547.56 258.92 641.09 312.92"/><polygon class="cls-9" points="493 411.42 399.47 357.42 399.47 344.42 493 398.42 493 411.42"/><polygon class="cls-10" points="493 411.42 641.09 325.92 641.09 312.92 493 398.42 493 411.42"/><polygon class="cls-3" points="641.09 296.92 493 382.42 399.47 328.42 547.56 242.92 641.09 296.92"/><polygon class="cls-9" points="493 395.42 399.47 341.42 399.47 328.42 493 382.42 493 395.42"/><polygon class="cls-10" points="493 395.42 641.09 309.92 641.09 296.92 493 382.42 493 395.42"/><polygon class="cls-3" points="625.35 244.46 493 320.87 409.4 272.61 541.76 196.19 625.35 244.46"/><polygon class="cls-2" points="493 376.42 409.4 328.16 409.4 272.61 493 320.87 493 376.42"/><polygon class="cls-1" points="493 376.42 625.35 300.01 625.35 244.46 493 320.87 493 376.42"/><polygon class="cls-3" points="641.09 240.93 493 326.42 399.47 272.42 547.56 186.92 641.09 240.93"/><polygon class="cls-9" points="493 339.42 399.47 285.42 399.47 272.42 493 326.42 493 339.42"/><polygon class="cls-10" points="493 339.42 641.09 253.92 641.09 240.93 493 326.42 493 339.42"/><polygon class="cls-4" points="641.09 224.93 493 310.42 399.47 256.42 547.56 170.93 641.09 224.93"/><polygon class="cls-9" points="493 323.42 399.47 269.42 399.47 256.42 493 310.42 493 323.42"/><polygon class="cls-10" points="493 323.42 641.09 237.93 641.09 224.93 493 310.42 493 323.42"/><ellipse class="cls-11" cx="467.86" cy="303.34" rx="1.89" ry="3.27" transform="translate(-88.99 274.57) rotate(-30)"/><ellipse class="cls-11" cx="476.52" cy="308.34" rx="1.89" ry="3.27" transform="translate(-90.33 279.58) rotate(-30)"/><ellipse class="cls-11" cx="485.18" cy="313.34" rx="1.89" ry="3.27" transform="translate(-91.67 284.58) rotate(-30)"/><ellipse class="cls-11" cx="467.86" cy="375.42" rx="1.89" ry="3.27" transform="translate(-125.03 284.23) rotate(-30)"/><ellipse class="cls-11" cx="476.52" cy="380.42" rx="1.89" ry="3.27" transform="translate(-126.37 289.23) rotate(-30)"/><ellipse class="cls-11" cx="485.18" cy="385.42" rx="1.89" ry="3.27" transform="translate(-127.71 294.23) rotate(-30)"/><polygon class="cls-4" points="423.56 279.81 402.78 267.81 402.78 263.04 423.56 275.04 423.56 279.81"/><polygon class="cls-4" points="423.56 351.81 402.78 339.81 402.78 335.04 423.56 347.04 423.56 351.81"/><ellipse class="cls-3" cx="304.37" cy="214.08" rx="2.31" ry="4.03" transform="translate(-66.68 185.85) rotate(-30.77)"/><rect class="cls-12" x="254.21" y="221.89" width="54.67" height="10.58" rx="5.29" ry="5.29" transform="translate(638.95 283.15) rotate(150)"/><ellipse class="cls-3" cx="319.4" cy="222.85" rx="2.31" ry="4.03" transform="translate(-69.05 194.78) rotate(-30.77)"/><rect class="cls-12" x="269.24" y="230.66" width="54.67" height="10.58" rx="5.29" ry="5.29" transform="translate(671.38 292) rotate(150)"/><ellipse class="cls-3" cx="334.43" cy="231.62" rx="2.31" ry="4.03" transform="translate(-71.42 203.7) rotate(-30.77)"/><rect class="cls-12" x="284.27" y="239.42" width="54.67" height="10.58" rx="5.29" ry="5.29" transform="translate(703.82 300.85) rotate(150)"/><ellipse class="cls-3" cx="427.19" cy="294.28" rx="2.31" ry="4.03" transform="translate(-90.42 259.98) rotate(-30.77)"/><rect class="cls-12" x="377.03" y="302.09" width="54.67" height="10.58" rx="5.29" ry="5.29" transform="translate(908.23 371.4) rotate(150)"/><ellipse class="cls-3" cx="442.22" cy="303.05" rx="2.31" ry="4.03" transform="translate(-92.79 268.9) rotate(-30.77)"/><rect class="cls-12" x="392.06" y="310.86" width="54.67" height="10.58" rx="5.29" ry="5.29" transform="translate(940.67 380.24) rotate(150)"/><ellipse class="cls-3" cx="457.25" cy="311.82" rx="2.31" ry="4.03" transform="translate(-95.16 277.82) rotate(-30.77)"/><rect class="cls-12" x="407.09" y="319.62" width="54.67" height="10.58" rx="5.29" ry="5.29" transform="translate(973.1 389.09) rotate(150)"/><polygon class="cls-3" points="337.11 343.42 189.02 428.92 95.49 374.92 243.58 289.42 337.11 343.42"/><polygon class="cls-9" points="189.02 441.92 95.49 387.92 95.49 374.92 189.02 428.92 189.02 441.92"/><polygon class="cls-10" points="189.02 441.92 337.11 356.42 337.11 343.42 189.02 428.92 189.02 441.92"/><polygon class="cls-3" points="337.11 327.42 189.02 412.92 95.49 358.92 243.58 273.42 337.11 327.42"/><polygon class="cls-9" points="189.02 425.92 95.49 371.92 95.49 358.92 189.02 412.92 189.02 425.92"/><polygon class="cls-10" points="189.02 425.92 337.11 340.42 337.11 327.42 189.02 412.92 189.02 425.92"/><polygon class="cls-3" points="321.38 274.95 189.02 351.37 105.43 303.11 237.79 226.69 321.38 274.95"/><polygon class="cls-2" points="189.02 406.92 105.43 358.66 105.43 303.11 189.02 351.37 189.02 406.92"/><polygon class="cls-1" points="189.02 406.92 321.38 330.51 321.38 274.95 189.02 351.37 189.02 406.92"/><polygon class="cls-3" points="337.11 271.42 189.02 356.92 95.49 302.92 243.58 217.42 337.11 271.42"/><polygon class="cls-9" points="189.02 369.92 95.49 315.92 95.49 302.92 189.02 356.92 189.02 369.92"/><polygon class="cls-10" points="189.02 369.92 337.11 284.42 337.11 271.42 189.02 356.92 189.02 369.92"/><polygon class="cls-4" points="337.11 255.42 189.02 340.92 95.49 286.92 243.58 201.42 337.11 255.42"/><polygon class="cls-9" points="189.02 353.92 95.49 299.92 95.49 286.92 189.02 340.92 189.02 353.92"/><polygon class="cls-10" points="189.02 353.92 337.11 268.42 337.11 255.42 189.02 340.92 189.02 353.92"/><ellipse class="cls-11" cx="163.89" cy="333.84" rx="1.89" ry="3.27" transform="translate(-144.96 126.67) rotate(-30)"/><ellipse class="cls-11" cx="172.55" cy="338.84" rx="1.89" ry="3.27" transform="translate(-146.3 131.67) rotate(-30)"/><ellipse class="cls-11" cx="181.21" cy="343.84" rx="1.89" ry="3.27" transform="translate(-147.64 136.67) rotate(-30)"/><ellipse class="cls-11" cx="163.89" cy="405.92" rx="1.89" ry="3.27" transform="translate(-181.01 136.33) rotate(-30)"/><ellipse class="cls-11" cx="172.55" cy="410.92" rx="1.89" ry="3.27" transform="translate(-182.35 141.33) rotate(-30)"/><ellipse class="cls-11" cx="181.21" cy="415.92" rx="1.89" ry="3.27" transform="translate(-183.69 146.33) rotate(-30)"/><polygon class="cls-4" points="119.59 310.31 98.8 298.31 98.8 293.54 119.59 305.54 119.59 310.31"/><polygon class="cls-4" points="119.59 382.3 98.8 370.3 98.8 365.54 119.59 377.54 119.59 382.3"/><ellipse class="cls-3" cx="275.43" cy="310.78" rx="4.03" ry="2.31" transform="translate(-132.51 388.44) rotate(-59.23)"/><rect class="cls-2" x="270.92" y="318.59" width="54.67" height="10.58" rx="5.29" ry="5.29" transform="translate(201.9 -105.74) rotate(30)"/><ellipse class="cls-3" cx="260.4" cy="319.55" rx="4.03" ry="2.31" transform="translate(-147.39 379.81) rotate(-59.23)"/><rect class="cls-2" x="255.89" y="327.36" width="54.67" height="10.58" rx="5.29" ry="5.29" transform="translate(204.27 -97.05) rotate(30)"/><ellipse class="cls-3" cx="245.37" cy="328.32" rx="4.03" ry="2.31" transform="translate(-162.27 371.18) rotate(-59.23)"/><rect class="cls-2" x="240.86" y="336.12" width="54.67" height="10.58" rx="5.29" ry="5.29" transform="translate(206.64 -88.36) rotate(30)"/><polygon class="cls-3" points="454.03 420.92 305.94 506.42 212.41 452.42 360.5 366.92 454.03 420.92"/><polygon class="cls-9" points="305.94 519.42 212.41 465.42 212.41 452.42 305.94 506.42 305.94 519.42"/><polygon class="cls-10" points="305.94 519.42 454.03 433.92 454.03 420.92 305.94 506.42 305.94 519.42"/><polygon class="cls-3" points="454.03 404.92 305.94 490.42 212.41 436.42 360.5 350.92 454.03 404.92"/><polygon class="cls-9" points="305.94 503.42 212.41 449.42 212.41 436.42 305.94 490.42 305.94 503.42"/><polygon class="cls-10" points="305.94 503.42 454.03 417.92 454.03 404.92 305.94 490.42 305.94 503.42"/><polygon class="cls-3" points="438.29 352.45 305.94 428.87 222.34 380.61 354.7 304.19 438.29 352.45"/><polygon class="cls-2" points="305.94 484.42 222.34 436.16 222.34 380.61 305.94 428.87 305.94 484.42"/><polygon class="cls-1" points="305.94 484.42 438.29 408.01 438.29 352.45 305.94 428.87 305.94 484.42"/><polygon class="cls-3" points="454.03 348.92 305.94 434.42 212.41 380.42 360.5 294.92 454.03 348.92"/><polygon class="cls-9" points="305.94 447.42 212.41 393.42 212.41 380.42 305.94 434.42 305.94 447.42"/><polygon class="cls-10" points="305.94 447.42 454.03 361.92 454.03 348.92 305.94 434.42 305.94 447.42"/><polygon class="cls-4" points="454.03 332.92 305.94 418.42 212.41 364.42 360.5 278.92 454.03 332.92"/><polygon class="cls-9" points="305.94 431.42 212.41 377.42 212.41 364.42 305.94 418.42 305.94 431.42"/><polygon class="cls-10" points="305.94 431.42 454.03 345.92 454.03 332.92 305.94 418.42 305.94 431.42"/><ellipse class="cls-11" cx="280.8" cy="411.34" rx="1.89" ry="3.27" transform="translate(-168.05 195.51) rotate(-30)"/><ellipse class="cls-11" cx="289.46" cy="416.34" rx="1.89" ry="3.27" transform="translate(-169.39 200.51) rotate(-30)"/><ellipse class="cls-11" cx="298.12" cy="421.34" rx="1.89" ry="3.27" transform="translate(-170.73 205.51) rotate(-30)"/><ellipse class="cls-11" cx="280.8" cy="483.42" rx="1.89" ry="3.27" transform="translate(-204.09 205.17) rotate(-30)"/><ellipse class="cls-11" cx="289.46" cy="488.42" rx="1.89" ry="3.27" transform="matrix(0.87, -0.5, 0.5, 0.87, -205.43, 210.17)"/><ellipse class="cls-11" cx="298.12" cy="493.42" rx="1.89" ry="3.27" transform="translate(-206.77 215.17) rotate(-30)"/><polygon class="cls-4" points="236.5 387.81 215.72 375.81 215.72 371.04 236.5 383.04 236.5 387.81"/><polygon class="cls-4" points="236.5 459.81 215.72 447.81 215.72 443.04 236.5 455.04 236.5 459.81"/><path class="cls-13" d="M562.57,98.51,509.16,67.68a3,3,0,0,1-1.65-2.14c0-.06,0-5.72,0-5.78-.05-1.12.75.28,2.35-.65l52-30c2.85-1.64,7.17-1.82,9.64-.39l53.4,30.83c1.14.66,1.69-.92,1.67,0v5.58a4.09,4.09,0,0,1-2.36,3l-52,30C569.36,99.76,565,99.94,562.57,98.51Z"/><path class="cls-12" d="M562.57,93,509.16,62.18a2.88,2.88,0,0,1-1.66-2.42c0-1.09.79-2.25,2.35-3.15l52-30c2.85-1.64,7.17-1.82,9.64-.39L624.92,57a2.82,2.82,0,0,1,1.67,2.5c0,1.07-.84,2.19-2.36,3.06l-52,30C569.36,94.26,565,94.44,562.57,93Z"/><path class="cls-3" d="M264.07,277.64l-37.13,21.44c-2.78,1.6-7,1.78-9.43.39h0c-2.42-1.39-2.11-3.84.67-5.45l37.12-21.44c2.78-1.6,7-1.78,9.44-.39h0C267.15,273.58,266.85,276,264.07,277.64Z"/><path class="cls-14" d="M257.05,275l.12-11.86c.11-10.84-6.34-23.48-14.33-28.09L50.77,124.11c-8-4.62-14.62.48-14.72,11.31l-.63,63.45c-.1,10.83,6.34,23.47,14.33,28.08"/><path class="cls-14" d="M245.74,282.42l.12-12.66c.11-10.83-6.34-23.47-14.33-28.08L39.46,130.78c-8-4.61-14.61.48-14.72,11.32l-.62,63.44C24,216.38,30.46,229,38.45,233.63"/><path class="cls-14" d="M234.43,289.42l.13-13c.1-10.83-6.35-23.47-14.33-28.08L28.15,137.46c-8-4.61-14.61.48-14.72,11.32l-.62,63.44c-.11,10.84,6.34,23.48,14.33,28.09"/><path class="cls-14" d="M223.13,294.92l.12-11.8c.11-10.84-6.34-23.48-14.33-28.09L16.84,144.14c-8-4.61-14.61.48-14.71,11.31L1.5,218.9C1.39,229.74,7.84,242.37,15.83,247"/><path class="cls-3" d="M449.3,268.1l24.95,14.41c2.78,1.6,7,1.78,9.43.39h0c2.42-1.39,2.12-3.84-.67-5.45L458.06,263h0c-2.78-1.6-7-1.78-9.43-.39h0C446.21,264,446.52,266.49,449.3,268.1Z"/><path class="cls-14" d="M455.45,265.86l-.12-12.67c-.11-10.83,6.34-23.47,14.33-28.08l192.07-110.9c8-4.61,14.61.48,14.72,11.32l.63,63.45"/><path class="cls-14" d="M466.76,272.85l-.12-13C466.53,249,473,236.4,481,231.79L673,120.89c8-4.61,14.61.48,14.72,11.32l.62,63.44"/><path class="cls-14" d="M478.06,278.35l-.12-11.8c-.1-10.84,6.34-23.47,14.33-28.09L684.35,127.57c8-4.61,14.61.48,14.72,11.31l.62,63.45c.11,10.84-6.34,23.48-14.33,28.09"/><path class="cls-14" d="M257.05,275l.12-11.86c.11-10.84-6.34-23.48-14.33-28.09L50.77,124.11c-8-4.62-14.62.48-14.72,11.31l-.63,63.45c-.1,10.83,6.34,23.47,14.33,28.08"/><path class="cls-14" d="M245.74,282.42l.12-12.66c.11-10.83-6.34-23.47-14.33-28.08L39.46,130.78c-8-4.61-14.61.48-14.72,11.32l-.62,63.44C24,216.38,30.46,229,38.45,233.63"/><path class="cls-14" d="M234.43,289.42l.13-13c.1-10.83-6.35-23.47-14.33-28.08L28.15,137.46c-8-4.61-14.61.48-14.72,11.32l-.62,63.44c-.11,10.84,6.34,23.48,14.33,28.09"/><path class="cls-14" d="M223.13,294.92l.12-11.8c.11-10.84-6.34-23.48-14.33-28.09L16.84,144.14c-8-4.61-14.61.48-14.71,11.31L1.5,218.9C1.39,229.74,7.84,242.37,15.83,247"/><circle class="cls-15" cx="59.35" cy="168.92" r="7.4" transform="translate(-113.09 217.12) rotate(-86.26)"/><circle class="cls-15" cx="82.35" cy="168.92" r="7.4" transform="translate(-91.59 240.07) rotate(-86.26)"/><circle class="cls-15" cx="105.34" cy="168.92" r="7.4" transform="matrix(0.07, -1, 1, 0.07, -70.1, 263.01)"/><circle class="cls-15" cx="128.34" cy="168.92" r="7.4" transform="matrix(0.07, -1, 1, 0.07, -48.61, 285.96)"/><circle class="cls-15" cx="647.99" cy="120.38" r="7.4" transform="translate(485.55 759.12) rotate(-86.26)"/><circle class="cls-15" cx="634.81" cy="142.04" r="7.4" transform="translate(451.61 766.21) rotate(-86.26)"/><circle class="cls-15" cx="621.62" cy="163.7" r="7.4" transform="translate(417.68 773.3) rotate(-86.26)"/><circle class="cls-13" cx="486.18" cy="508.42" r="2.93" transform="translate(-209.8 406.06) rotate(-37.91)"/><circle class="cls-13" cx="477.92" cy="503.42" r="2.93" transform="translate(-208.47 399.92) rotate(-37.91)"/><circle class="cls-13" cx="469.65" cy="498.43" r="2.93" transform="translate(-207.15 393.79) rotate(-37.91)"/><circle class="cls-13" cx="438.99" cy="495.42" r="2.93" transform="translate(-211.77 374.31) rotate(-37.91)"/><circle class="cls-13" cx="430.72" cy="490.42" r="2.93" transform="translate(-210.44 368.18) rotate(-37.91)"/><circle class="cls-13" cx="422.46" cy="485.43" r="2.93" transform="translate(-209.12 362.04) rotate(-37.91)"/><circle class="cls-13" cx="178.27" cy="503.42" r="5.41"/><circle class="cls-13" cx="201" cy="503.42" r="5.41"/><circle class="cls-13" cx="223.72" cy="503.42" r="5.41"/><circle class="cls-13" cx="246.44" cy="503.42" r="5.41"/></svg>