<svg id="ilustra" xmlns="http://www.w3.org/2000/svg" viewBox="0 0 867.36 684"><defs><style>.cls-1,.cls-9{fill:#4b84b5;}.cls-2{fill:#67bcda;}.cls-3{fill:#f2f2f2;}.cls-4{fill:#248e7e;}.cls-13,.cls-4,.cls-5,.cls-6,.cls-7,.cls-8,.cls-9{fill-rule:evenodd;}.cls-5{fill:#c98200;}.cls-6{fill:#e5bd9a;}.cls-7{fill:#dd9e00;}.cls-17,.cls-8{fill:#edaf00;}.cls-10{fill:#f0cca7;}.cls-11{fill:#ab3a47;}.cls-12{fill:#ca4d5d;}.cls-13{fill:#55c9b3;}.cls-14{fill:none;stroke:#73cfeb;stroke-linecap:round;stroke-linejoin:round;stroke-width:2px;}.cls-15{fill:#fff;}.cls-16{fill:#f4d03e;}</style></defs><title>health-and-fitness_art</title><path class="cls-1" d="M164.31,224.2,57.49,162.53a6,6,0,0,1-3.3-4.28c0-.12,0-5.43,0-5.55-.1-2.24,1.51.55,4.72-1.3L162.93,91.32c5.7-3.29,14.33-3.65,19.27-.79L289,152.2c2.28,1.31,3.37-1.85,3.33,0,0,.07,0,5.08,0,5.15-.15,2.09-1.74,4.26-4.71,6l-104,60.08C177.88,226.69,169.25,227.05,164.31,224.2Z"/><path class="cls-2" d="M164.31,219.2,57.49,157.53c-2.23-1.3-3.33-3-3.33-4.83,0-2.19,1.59-4.5,4.72-6.3L162.93,86.32c5.7-3.29,14.33-3.65,19.27-.79L289,147.2c2.31,1.33,3.4,3.13,3.33,5-.08,2.14-1.68,4.37-4.72,6.12l-104,60.08C177.88,221.69,169.25,222.05,164.31,219.2Z"/><circle class="cls-3" cx="458" cy="360" r="324"/><path class="cls-4" d="M512.67,514.39s-3.44,5.4,4.05,8.78,12.26,2.14,22.08-.62,25-14.07,26.6-17.75a10.86,10.86,0,0,0,0-7.49L548,499.79Z"/><path class="cls-5" d="M510.92,496.34s-1.94,16.91,5,22.82,26.4-1.78,33-5.55,18.46-9.06,16.55-16.3-9.23-5.8-13.65-5-24,4.71-31.61,1.08S510.92,496.34,510.92,496.34Z"/><path class="cls-6" d="M447.17,242.78c-20.7-1.29-26.8-1.39-44.18,8.76s-33.5,24.47-39.47,35.22S351,329.94,351,350.43c-9,12.74-4.77,31.84,0,31.84s11.15-.4,13.93-3.19.55-12.18.55-16.81,3.88-2.39,3.58.15.6,6.72,3.88,0-4.33-10.45-4.33-18.95,7.47-43,10.15-48.06,41.19-20.89,52.53-20.89S447.17,242.78,447.17,242.78Z"/><path class="cls-7" d="M458.81,381s37.3,40.57,42,48.28,25.47,66,24.54,70.28-10.27,8.88-15.09.29-25.3-43.83-26.84-45.57c-21.49-4.62-73.32-34.71-82.77-41.83S458.81,381,458.81,381Z"/><path class="cls-8" d="M426.6,489.32c8.49-5.77,33.82-50.54,36.61-72.43a157.79,157.79,0,0,0,0-39.8l-71.63-26.66c-11.54,15.92-11.94,47.76,10.74,65.27-.4,33-1,51.06-2.78,52.53-10.35-7.16-41.39-15.12-50.55-15.12s-12.33-2.8-12.33-2.8v17.92S396.75,509.62,426.6,489.32Z"/><path class="cls-9" d="M485.74,332.13c9.08-9.16,24.23-10.45,24.88-28.66S490.1,278.1,490.1,278.1l-14.65,45.07Z"/><path class="cls-6" d="M510.57,270.44c10.43,12.18,30.24,52.13,38.6,53.92s43.58-22.08,43.58-22.08,5.37-16.72,14-13.43c9.85-5.68,11.34-5.68,12.23,1.19s-2.38,16.71-9.85,19.4-8.65,2.63-10.74,4.15-38.21,31.07-51.94,30.77S501.71,310,501.71,310s-13.43,11-17.9,6.56-9.26-32.53-1.8-38.8S507.78,267.19,510.57,270.44Z"/><path class="cls-1" d="M465.6,239s-21.89,3.38-24.68,3.08-21.09,11.25-27.45,45.07S389.19,348,389.19,348s1.09,17.93,19.5,29.45c27.66,17.31,53.33,9.16,56.91,6s6.83-36.61,20.14-51.33,1.35-4.78,1.35-33,22.28-28.65,23.48-28.65-19.33-20.69-19.33-20.69Z"/><path class="cls-10" d="M529.27,194.83s-6.36,34.81-9.95,47.25-20.29,8.06-27.06,10.45-17.51,7.56-26.66,3.19-4.38-9.16,0-16.72,7.16-31.53,7.16-31.53Z"/><path class="cls-11" d="M481.92,171s6-8.36,28.65,0,31,32.23,9.95,48.55c-6-11.94-13.73-2.79-13.23,7.56-11.05,14.73-24.18,17.51-31.74,13.13s-17.69-12.71-17.2-33.22S481.92,171,481.92,171Z"/><path class="cls-12" d="M489.87,182.09c3.06-17.24-25.86-29.05-35.41-10.74s-22.69,24.27-27.86,24.27C440.92,217.51,485.5,206.77,489.87,182.09Z"/><path class="cls-5" d="M329.77,439.15c7.84,3.33,13.87,11.69,12.39,16.24s-4.2,7.68-5.57,11.47-15.51,15.35-18.9,24.76-11.42,11.6-13.83,11,8.94-33.06,8.94-33.06Z"/><path class="cls-4" d="M320.22,436.55s3.8-1.25,9.55,2.6,4.68,13.46-3.14,28.56C319.73,481,312.3,496,309.86,499.27s-7,4.47-12.29,2.4,17.51-45.1,17.51-45.1Z"/><path class="cls-13" d="M325.39,438.13c9.31,7.59,3.61,15.44-.28,24-5.62,12.37-17.73,48.92-30.18,37.77-7.12-6.37,2-22.23,9.53-37.31S316.59,431,325.39,438.13Z"/><path class="cls-1" d="M739.31,611.52,632.5,549.85a5.93,5.93,0,0,1-3.3-4.27c0-.12,0-5.43,0-5.55-.09-2.25,1.51.55,4.72-1.3l104-60.08c5.7-3.29,14.33-3.65,19.27-.8L864,539.52c2.28,1.32,3.37-1.84,3.33,0,0,.07,0,5.08,0,5.15-.14,2.09-1.74,4.26-4.7,6l-104,60.08C752.88,614,744.25,614.38,739.31,611.52Z"/><path class="cls-2" d="M739.31,606.52,632.5,544.85c-2.24-1.29-3.34-3-3.34-4.82,0-2.19,1.6-4.5,4.72-6.3l104-60.08c5.7-3.29,14.33-3.65,19.27-.8L864,534.52c2.31,1.34,3.4,3.13,3.33,5-.08,2.13-1.67,4.37-4.71,6.12l-104,60.08C752.88,609,744.25,609.38,739.31,606.52Z"/><polygon class="cls-1" points="492.56 58.23 489.78 59.84 487 67.87 487 80.72 489.78 85.54 492.56 83.94 492.56 58.23"/><polygon class="cls-1" points="492.56 87.15 489.78 88.75 487 96.79 487 109.64 489.78 114.46 492.56 112.85 492.56 87.15"/><polygon class="cls-1" points="520.39 71.08 517.61 72.69 514.83 80.72 514.83 93.58 517.61 98.39 520.39 96.79 520.39 71.08"/><polygon class="cls-1" points="498.13 61.45 498.13 58.23 503.69 51.81 514.83 45.38 520.39 45.38 520.39 67.87 517.61 69.48 514.83 64.66 514.83 51.81 498.13 61.45"/><polygon class="cls-1" points="531.52 42.17 531.52 38.95 537.09 32.53 548.22 26.1 553.78 26.1 553.78 48.59 551 50.2 548.22 45.38 548.22 32.53 531.52 42.17"/><polygon class="cls-1" points="553.78 71.08 553.78 74.3 548.22 80.72 537.09 87.15 531.52 87.15 531.52 64.66 534.3 63.05 537.09 67.87 537.09 80.72 553.78 71.08"/><polygon class="cls-1" points="531.52 61.45 531.52 45.38 534.3 43.77 537.09 45.38 537.09 55.02 534.3 59.84 531.52 61.45"/><polygon class="cls-1" points="553.78 51.81 553.78 67.87 551 69.48 548.22 67.87 548.22 58.23 551 53.41 553.78 51.81"/><path class="cls-12" d="M601,.62A20.78,20.78,0,0,0,588.4,18.78s0-12.71-12.58-3.63-9.44,36.33,12.58,36.33C610.42,26.05,613.47-4.78,601,.62Z"/><polyline class="cls-14" points="224.85 277.85 213.37 285.29 193.5 249.39 189.13 339.73 177.88 287.11 173.19 311.31"/><polyline class="cls-14" points="328.16 210.93 332.85 186.72 344.1 239.34 348.47 149 368.34 184.9 379.82 177.46 431.48 144"/><polyline class="cls-14" points="328.16 210.93 316.68 218.36 296.82 182.47 292.44 272.81 281.19 220.18 276.51 244.39"/><polyline class="cls-14" points="276.51 244.39 265.03 251.82 245.16 215.93 240.78 306.27 229.54 253.65 224.85 277.85"/><polyline class="cls-14" points="173.19 311.31 161.71 318.75 141.84 282.85 137.47 373.2 126.22 320.57 121.53 344.78"/><polyline class="cls-14" points="121.53 344.78 110.06 352.21 90.19 316.32 85.81 406.66 74.56 354.03 69.88 378.24 1 422.86"/><ellipse class="cls-15" cx="749.34" cy="533.99" rx="46.34" ry="26.75"/><path class="cls-16" d="M714.75,554c-19.07-11-19.07-28.92,0-39.93s50.1-11,69.17,0,19.07,28.92,0,39.93S733.82,565,714.75,554Zm65.53-37.83c-17.06-9.85-44.83-9.85-61.89,0s-17.06,25.88,0,35.73,44.83,9.85,61.89,0S797.34,526,780.28,516.12Z"/><polyline class="cls-15" points="773.91 519.8 749.34 533.99 773.91 533.99"/><path class="cls-17" d="M747.92,532.7l23.43-13.52a1.45,1.45,0,0,1,1.48,0l.67.38a1.49,1.49,0,0,1,0,2.58l-13.15,7.59a1.49,1.49,0,0,0,.75,2.77h11.32a1.49,1.49,0,0,1,1.49,1.49h0a1.49,1.49,0,0,1-1.49,1.48H748.67A1.49,1.49,0,0,1,747.92,532.7Z"/></svg>