<svg xmlns="http://www.w3.org/2000/svg" viewBox="0 0 415 415"><defs><style>.cls-1{fill:#1a0960;}.cls-2{fill:#f2b640;}.cls-3{fill:#471caf;}.cls-4{fill:#e36e81;}.cls-5{fill:#2b0e87;}.cls-6{fill:#5d3acc;}.cls-13,.cls-14,.cls-7{fill:none;}.cls-7{stroke:#a0b3c1;stroke-dasharray:8;}.cls-13,.cls-14,.cls-7,.cls-8{stroke-miterlimit:10;}.cls-12,.cls-8{fill:#fff;}.cls-14,.cls-8{stroke:#471caf;}.cls-9{fill:#dee4eb;}.cls-10{fill:#d5dbe0;}.cls-11{fill:#ffeea4;}.cls-13{stroke:#000;}.cls-15{fill:#4b84b5;}.cls-16{fill:#f2bf40;}.cls-17{fill:#c6590e;}.cls-18{fill:#dd7c12;}.cls-19{fill:#7a270e;}.cls-20{fill:#741ce5;}</style></defs><title>health-and-fitness</title><g id="health_and_fitness"><polygon class="cls-1" points="407.49 147.46 369.4 244.72 354.11 145.4 369.4 128.18 407.49 147.46"/><ellipse class="cls-2" cx="343.03" cy="94.1" rx="33.08" ry="33.24"/><path class="cls-1" d="M281.84,334.41c-99.35,70.89-197.58,41.16-198,41a208.15,208.15,0,0,0,64,31.32,10,10,0,0,1,19.62,2.55,10.12,10.12,0,0,1-.22,2.08A208.93,208.93,0,0,0,206,415c110.36,0,208.72-83.9,208.72-194.68C414.76,220.32,381.36,263.4,281.84,334.41Z"/><path class="cls-1" d="M106.72,14.66s6.71,44.94-2,64.73S121,88.93,121,88.93l12.5-64.52,5.68-14.65Z"/><path class="cls-1" d="M326.6,33.91c-10.34,38.66.52,78.12.52,78.12L282.59,71.51l1.68-31.81Z"/><path class="cls-3" d="M412.31,220.41a36.65,36.65,0,0,1-4.82-72.95c-9.83-35-77.51-48.61-99.2-76.43-25.05-32.12,27.34-32,16.95-39.22C309.75,21,292.73,19.26,274.59,12.94a12.35,12.35,0,0,1-24.15-3.72,36.18,36.18,0,0,1,1.11-5.08C237.12,1,221.41,0,206,0,151,0,106.72,10.51,106.72,14.66S127.58,12.42,127.58,27A36.42,36.42,0,0,1,63.42,50.81c-28.48,26-17.1,49.12-28.48,72.79C21.68,151.21,0,152.42,0,204.7,0,275,31.09,337.24,83.83,375.42c.43.15,115.69,58.95,201.85-27.62,43-43.23,64.91-15.59,93.45-37.89,37.61-29.39,35.63-89.59,35.63-89.59C414,220.37,413.13,220.41,412.31,220.41Z"/><circle class="cls-4" cx="49.69" cy="122.15" r="24.3"/><path class="cls-5" d="M29.45,215.71s29.37,27.51,15.32,55.9c23-18,20.23-37.9,20.23-37.9L57.71,214S39,199.23,29.45,215.71Z"/><circle class="cls-5" cx="110.79" cy="134.93" r="31.01"/><path class="cls-6" d="M215.66,190.57C192.3,159.52,192.82,128,151,128a128,128,0,0,0-41.16,6.76,25.82,25.82,0,0,1-44.32,26,128.09,128.09,0,0,0-36,55A22,22,0,1,1,23,255.15c0,.29,0,.58,0,.87a128,128,0,1,0,256,0C279,208.07,231.75,212,215.66,190.57Z"/><path class="cls-7" d="M286.15,399.23c12.71,6.78,25.74,8.54,35-3.58,20-26.2-32.94-85.37-107-97.66C43,269.58-45.6,82.31,40.52,33c19-10.9,41.44-9.85,64.7,1"/><circle class="cls-8" cx="59.12" cy="347.87" r="36.15"/><circle class="cls-3" cx="145.24" cy="258.87" r="2.65"/><circle class="cls-9" cx="35.21" cy="56.04" r="2.65"/><circle class="cls-10" cx="385.74" cy="235.76" r="2.65"/><circle class="cls-1" cx="92.62" cy="278.51" r="2.65"/><circle class="cls-11" cx="412.35" cy="203.22" r="2.65"/><circle class="cls-9" cx="369.4" cy="31.9" r="2.65"/><path d="M219.14,197.82c11.68,34.75-23,60.22-23,60.22l2.47-45.71Z"/><path class="cls-12" d="M226.75,108.91s27.16,24.24,37,50.07c-10.66,19.24-39.06,22.9-39.06,22.9-2.66-4-2.22-6.39-2.22-6.39,15.34-4.18,13.89-11.44,27.08-17.66-16.45-21.84-28.65-31.92-28.65-31.92Z"/><path d="M132.21,216l-3-18.15C110.46,201.21,92.09,218,92.09,218c1.59,3.56,4.79,2.84,12.18,0s19,3.42,21.64,5.75S132.21,216,132.21,216Z"/><path d="M201.67,347.88s-2.69,13.57-2.69,17c6.73,10.1,21.88,22,30.82,21.88s9.68-3.89,9.16-6.31-23-14-26.77-33.94S201.67,347.88,201.67,347.88Z"/><path class="cls-12" d="M198.61,212.33c3.93,42.49-17.75,56.73-17.75,56.73-18.91-13.58-55-45.28-55-45.28-.67-6.52,6.3-7.81,6.3-7.81,23,19.4,45.1,25.92,45.1,25.92l21.3-29.56Z"/><path d="M138.15,234.39h0c-.8-7.54,7.36-8.42,7.36-8.42h0c17.53,11.7,31.8,15.92,31.8,15.92l21.3-29.56c3.93,42.49-17.75,56.73-17.75,56.73C169,260.53,150.37,244.87,138.15,234.39Z"/><path class="cls-12" d="M179.78,206.74c-8.79,18.91,18.3,78.83,18.3,78.83-5.86,18.37,2.66,40.21,3.59,49s0,13.31,0,13.31c6.78,3.58,10.52-1.33,10.52-1.33,2.4-56.72,3.47-67.37,3.47-67.37-3.47-34.09-16.42-64.72-24.14-66.85S179.78,206.74,179.78,206.74Z"/><path d="M198.08,285.57s-41.28-59.92-32.49-78.83c0,0,25.3,3.46,33,5.59s13.58,32.76,17,66.85c0,0-.84,8.34-2.69,49.55h0s-5.63,5.58-12.39,0h0C198.16,318.12,193.26,300.68,198.08,285.57Z"/><path class="cls-4" d="M226.75,108.91c-27.17.27-58.76,19.27-58.76,19.27-1.87,16.51,17.31,29.65,17.31,52.19,0,5.33-14.12,13-19.71,26.37C176.77,219.26,193,220,205.73,218.59c15.19-1.68,17.65-8.39,17.65-8.39-3.46-15.71-3.73-24.5-3.73-26.1s9.85-22.37,9.85-22.37c4.8-1.33,8.26-5.59,8.26-9.32s-8.26-13.32-8.26-25.3S226.75,108.91,226.75,108.91Z"/><path class="cls-13" d="M216.19,111.79s-5.22,37.53-26.18,53"/><path class="cls-12" d="M161.59,202.74l5.42.49c1.9,1.11,5.12,5.19,5.12,5.19,1.4.4,2.91,2.48,2.91,2.48L171.93,218,163,216.61s-5.61-4.48-7-7.84-.81-8.54-.81-8.54Z"/><path class="cls-12" d="M168,128.18c-29.83,19.7-36,42.07-36,42.07,5.33,23.71,24,38.52,24,38.52-.53-4.69,5.59-6,5.59-6-11.71-13.58-12.81-25.62-18.73-32.31,15.45-15.18,24.25-19.21,28.95-22.12C180,136.7,168,128.18,168,128.18Z"/><path class="cls-12" d="M224.71,181.88l-15.24,4.17c-4-2.19-4.4-9.6-4.4-9.6a32.76,32.76,0,0,1,6.13-4.2l11.29,3.24,4.82-.24Z"/><path d="M189.1,81.81c-2.79,12.19,5.6,23.37,5.6,23.37l31-16.18a18.14,18.14,0,0,0-7.79-17.17c-12.14-8.6-25.16,3.41-25.16,3.41s.84-11.72-13.32-15.74S157,68,145.36,61.75C151.43,76.93,168.69,90.44,189.1,81.81Z"/><path class="cls-12" d="M195.3,108.18l-2.1,8s4,11.41,16.13,12c7.39-11.72,1.53-27.7,1.53-27.7l-15.56,7.7"/><path class="cls-12" d="M197.1,101.59c-.8-6-5.59-6.4-7.59-3s3.79,9.39,5.79,9.59a12.11,12.11,0,0,0,1.8,4.39c13,9.19,22.1,8.79,22.1,8.79,8-9.5,6.46-32.36,6.46-32.36-9,4.2-10.47.8-18.22,2.8S197.1,101.59,197.1,101.59Z"/><path class="cls-4" d="M168,128.18l-11,6.12c0,7.56,10.26,17.35,10.26,17.35l14.51-7.56-7.12-15.91Z"/><path class="cls-4" d="M226.75,108.91l15.59,13.81c1.94,11.78-11,14.78-15,14.78s-.56-28.59-.56-28.59"/><path d="M194,103.48l2.88,7.67c-.33,1-1.44.5-1.44.5s-1.85-5.26-2.86-8-.16-4.42,1-4.79C195.47,100,195.39,103.31,194,103.48Z"/><path class="cls-13" d="M195.9,110.86s16.34,37-5.89,53.9c-20.63,15.65-12.48,25.81-12.48,25.81"/><rect x="151.95" y="202.62" width="5.81" height="6.76" rx="1.23" transform="translate(109.63 459.71) rotate(-132.96)"/><polygon points="157.69 206 161.59 202.74 159.64 200.38 154.85 203.61 157.69 206"/><polygon class="cls-14" points="52.35 342.5 52.35 331.78 63.07 331.78 63.07 342.5 73.8 342.5 73.8 353.23 63.07 353.23 63.07 363.95 52.35 363.95 52.35 353.23 41.62 353.23 41.62 342.5 52.35 342.5"/><polygon class="cls-15" points="369.4 275.64 325.71 300.87 280.52 274.78 324.21 249.55 369.4 275.64"/><path class="cls-16" d="M346.19,200.72s1.16-4-2.36-6S329.9,194,329.9,194Z"/><path class="cls-17" d="M326,274.64s3.88,4,17.57-7.28c11.8-9.7,16-29.19.4-44.75-21.55-21.55,4.41-32.42,2.21-21.89,2.6-10.39-17-16.06-25.18-14.27-10.34,2.25-24.28,19.38-12.1,39.76S334.4,273.64,326,274.64Z"/><path class="cls-18" d="M335.1,256.25c-6.3-11.87-17.84-27.7-25.38-28.5s-10.13,4.09-9.15,8.78c.75,3.61,2.92,5.42,4.95,7.3,2.42,2.24,4.65,4.59,4.1,10.18-1,10.29,14.33,16.1,18.24,11.2S335.1,256.25,335.1,256.25Z"/><path class="cls-18" d="M301,261.17c1.4-8.61,7.05-13.49,8.25-23.47,0,0,12.78,25.17,10.79,30.36s-9.39,2.4-11.19,3.6-1,4.4-1,4.4c-2.4,2.6-7.34,1.93-8.68,1.4-.46-.87.14-4,2.68-4.74C302,269.86,299.62,269.38,301,261.17Z"/><path class="cls-16" d="M307.19,238.82c7.79,1.47,9.89,8.41,9.1,19.16-1,13.94,2.31,14.68,3.91,16.27-9.46.14-16-4.74-14.39-17.58,1.19-9.35,2-10.78-.29-12.84S303.21,238.07,307.19,238.82Z"/><path class="cls-18" d="M314.52,260.84c-.83,13.39,11.91,16.35,12.31,20.35a4,4,0,0,0-1.86,5.55,10.28,10.28,0,0,0,9.35-3.19,29.91,29.91,0,0,1-.67-4.64c1.15-4.1,6.66-12,1.45-22.66C328.94,243.62,315.32,247.9,314.52,260.84Z"/><path class="cls-18" d="M297.78,211.68h6.74a8.12,8.12,0,0,1,8.12,8.12v14.86a0,0,0,0,1,0,0h-23a0,0,0,0,1,0,0V219.8A8.12,8.12,0,0,1,297.78,211.68Z" transform="translate(558.96 495.23) rotate(-170)"/><path class="cls-18" d="M313.4,219.84l2.05-11.65c-5.66-1-7,4.6-7,4.6S307.74,218.84,313.4,219.84Z"/><path class="cls-18" d="M290.77,215.85l2.05-11.65c5.66,1,5,6.71,5,6.71S296.43,216.85,290.77,215.85Z"/><path class="cls-19" d="M298.93,225.32a1.76,1.76,0,0,1,1.95-.67,1.81,1.81,0,0,1,1.61,1.3c-.17,1-.93,2.58-2.25,2.35S298.75,226.31,298.93,225.32Z"/><path class="cls-19" d="M306.33,222.84a.87.87,0,0,0,.71,1,.89.89,0,0,0,1-.71c.08-.48-.16-1.37-.64-1.46S306.41,222.36,306.33,222.84Z"/><path class="cls-19" d="M294.65,220.78a.88.88,0,0,0,.72,1,.87.87,0,0,0,1-.71c.09-.48-.15-1.37-.63-1.45S294.74,220.31,294.65,220.78Z"/><path class="cls-18" d="M333.79,242.28s1-.56,3.48-1.95c1.41-.8,1.63-3.33-.15-5.53-6.48-8-13.54-9.3-18.75-9.61a25.05,25.05,0,0,0-10,1.32,3.41,3.41,0,0,0,2.48,6.36c.12-.05,12.86-5.14,21.62,7A17.1,17.1,0,0,1,333.79,242.28Z"/><path class="cls-18" d="M298.76,248.5c-1.92.55-9.25,2.34-13.58-.55a6.85,6.85,0,0,1-3.05-5.14c-.33-3,1-7.13,8.9-10a43,43,0,0,1,8.11-2,3,3,0,0,1,.79,5.95h0c-5.66.76-12.07,3.29-11.84,5.41a.9.9,0,0,0,.42.79c1.62,1.08,6.19.49,8.77-.27h0c.84-.24,2.83-1,2.83-1s.65,2.26.87,3a3,3,0,0,1-2,3.72Z"/><path d="M291.26,247.19l-2.38.24a1.26,1.26,0,0,1-1-1.91l1.15-2.1a2.66,2.66,0,0,1,2.29-1.34l1.32-.07a1.27,1.27,0,0,1,1,1.92l-.93,1.73C292.25,246.54,292.17,247.14,291.26,247.19Z"/><path d="M288.26,246.11a4.39,4.39,0,0,0,.68,3.3c.76.81,2.57.47,3.47.11a3.19,3.19,0,0,1-.53-3.43C292.28,245.2,288.26,246.11,288.26,246.11Z"/><polygon class="cls-4" points="369.4 275.64 325.71 300.87 280.52 274.78 324.21 340.24 369.4 275.64"/><polygon class="cls-20" points="324.21 340.24 325.71 300.87 369.4 275.64 324.21 340.24"/><circle class="cls-1" cx="145.91" cy="383.82" r="15.25"/><circle class="cls-3" cx="248.37" cy="338.03" r="10.09"/><circle class="cls-3" cx="257.74" cy="215.96" r="23.31"/><circle class="cls-6" cx="283.39" cy="179.15" r="6.9"/><circle class="cls-6" cx="276.58" cy="114.18" r="2.39"/></g></svg>