<svg id="ilustra" xmlns="http://www.w3.org/2000/svg" viewBox="0 0 905.04 723.5"><defs><style>.cls-1{fill:#ab3a47;}.cls-2{fill:#ca4d5d;}.cls-3{fill:#248e7e;}.cls-4{fill:#55c9b3;}.cls-5{fill:#7ee0db;}.cls-16,.cls-6{fill:none;}.cls-6{stroke:#248e7e;stroke-linecap:round;stroke-linejoin:round;stroke-width:16px;}.cls-7{fill:#f2f2f2;}.cls-17,.cls-21,.cls-8{fill:#4b84b5;}.cls-9{fill:#5caabc;}.cls-10{fill:#73cfeb;}.cls-11{fill:#edaf00;}.cls-12{fill:#67bcda;}.cls-13{fill:#f4d03e;}.cls-14{fill:#f7db66;}.cls-15{fill:#edc33e;}.cls-16{stroke:#fff;stroke-miterlimit:10;}.cls-17,.cls-21,.cls-24{font-size:24px;}.cls-17,.cls-23{font-family:ProximaNova-Regular, Proxima Nova;}.cls-18,.cls-19,.cls-21,.cls-24,.cls-27,.cls-28{font-family:ProximaNova-Bold, Proxima Nova;}.cls-18,.cls-19,.cls-22,.cls-24,.cls-27,.cls-28{font-weight:700;}.cls-19{letter-spacing:-0.01em;}.cls-20,.cls-23{letter-spacing:0em;}.cls-24,.cls-25,.cls-27,.cls-28{fill:#fff;}.cls-25{font-size:37.87px;font-family:AdobeArabic-Regular, Adobe Arabic;}.cls-26{fill:#c98200;}.cls-27{font-size:27.5px;}.cls-28{font-size:27.5px;}</style></defs><title>language-and-communication_art</title><path class="cls-1" d="M95.71,386.85,15.6,340.59a4.47,4.47,0,0,1-2.48-3.2c0-.09,0-5.07,0-5.17-.07-1.68,1.14.42,3.54-1l78-45.06c4.28-2.47,10.75-2.74,14.46-.6l80.11,46.26c1.71,1,2.53-1.39,2.5,0,0,0,0,4.81,0,4.86-.11,1.57-1.3,3.2-3.53,4.48l-78,45.06C105.89,388.72,99.41,389,95.71,386.85Z"/><path class="cls-2" d="M95.71,382.1,15.6,335.84a4.31,4.31,0,0,1-2.51-3.62c0-1.64,1.2-3.37,3.54-4.72l78-45.06c4.28-2.47,10.75-2.74,14.46-.6l80.11,46.26c1.73,1,2.55,2.34,2.5,3.75-.06,1.6-1.26,3.28-3.54,4.59l-78,45.06C105.89,384,99.41,384.23,95.71,382.1Z"/><path class="cls-3" d="M127.53,343.82c-13.87,8-36.36,8-50.23,0-6.14-3.54-9.56-8.07-10.26-12.7-.06-.36-.12-7.43-.14-7.8-.33-5.48,3.16-4.31,10.4-8.5,13.87-8,36.36-8,50.23,0,6.94,4,10.4,3.25,10.41,8.5,0,.27,0,6.53,0,6.8C137.57,335.1,134.12,340,127.53,343.82Z"/><path class="cls-4" d="M127.53,337.82c-13.87,8-36.36,8-50.23,0-6.93-4-10.4-9.25-10.4-14.5s16.85-22.77,23.78-26.77c11.74,2.07,9.82,2.07,23.47,0,6.94,4,23.78,21.52,23.79,26.77S134.47,333.82,127.53,337.82Z"/><path class="cls-5" d="M114.15,310.1c-6.48,3.74-17,3.74-23.47,0-3.24-1.88-4.86-4.33-4.86-6.78s1.62-4.9,4.86-6.77c6.48-3.75,17-3.74,23.47,0,3.24,1.87,4.86,4.32,4.86,6.77S117.39,308.23,114.15,310.1Z"/><path class="cls-6" d="M64.48,146c-46.32-28-89.81,59.38-19.65,86.67,59.14,23,58.59,67.7,58.59,67.7"/><path class="cls-2" d="M64.48,166c-3.19-13.4-13.41-15.82-7.85-25.4,5.75-9.92,13.21-1,26.11-6.23S64.48,166,64.48,166Z"/><path class="cls-2" d="M137.47,131.71c13.83,6.34-26.69,91-41.19,86.37-24.15-7.67-31.8-40.45-31.8-52.1s8.18-25.81,18.26-31.63S115.74,121.74,137.47,131.71Z"/><ellipse class="cls-1" cx="115.74" cy="174.55" rx="48.19" ry="27.82" transform="translate(-93.3 187.51) rotate(-60)"/><circle class="cls-7" cx="469.16" cy="399.5" r="324"/><path class="cls-8" d="M540.75,446,362,334.24a6.35,6.35,0,0,0,6.93-4.33c65.51,13.86,178.75,111.72,178.75,111.72S547,449.88,540.75,446Z"/><polygon class="cls-9" points="540.75 453.75 375.17 557.24 375.17 549.45 540.75 445.96 540.75 453.75"/><polygon class="cls-9" points="713.26 345.93 547.68 449.42 547.68 441.63 713.26 338.14 713.26 345.93"/><polygon class="cls-10" points="362 334.24 196.42 437.73 375.17 549.45 540.75 445.96 362 334.24"/><polygon class="cls-10" points="534.51 226.43 368.93 329.91 547.68 441.63 713.26 338.14 534.51 226.43"/><polygon class="cls-11" points="371.74 336 209.62 437.32 375.82 541.2 537.94 439.88 371.74 336"/><polygon class="cls-11" points="692.86 322.1 371.74 336 537.94 439.88 700.06 338.55 692.86 322.1"/><path class="cls-9" d="M540.75,446s3.5,3.18,6.93-4.33c3.43,1.44,0,7.79,0,7.79l-6.93,4.33Z"/><polygon class="cls-12" points="196.42 445.53 375.17 557.24 375.17 549.45 196.42 437.73 196.42 445.53"/><polygon class="cls-11" points="375.82 541.2 379.82 520.41 392.44 474.54 499.24 402.66 537.94 422.56 537.94 439.88 375.82 541.2"/><path class="cls-13" d="M371.74,318.68s-22.36-3-52.63,15.61c-32,19.63-62.16,54.85-105.49,82.25l166.2,103.87c43.33-27.4,73.51-62.62,105.49-82.24,30.27-18.59,52.63-15.61,52.63-15.61Z"/><polygon class="cls-14" points="209.62 437.32 213.62 416.54 379.82 520.41 375.82 541.2 209.62 437.32"/><path class="cls-15" d="M526.66,218.22c-25.48,15.87-67.21,26.28-103.62,49-30.53,19.09-51.3,51.41-51.3,51.41l166.2,103.88s20.78-32.33,51.3-51.42c36.41-22.77,78.15-33.17,103.62-49Z"/><path class="cls-13" d="M589.24,371.14c36.41-22.77,78.15-33.17,103.62-49L526.66,218.22c-25.48,15.87-67.21,26.28-103.62,49Z"/><path class="cls-15" d="M319.11,334.29c-32,19.63-62.16,54.85-105.49,82.25l14.63,9.14,151.57,94.73c43.33-27.4,73.51-62.62,105.49-82.24"/><path class="cls-16" d="M247.36,412.65c45.92-29.36,71.73-63.89,95.31-74.32"/><path class="cls-16" d="M260.57,420.91c45.92-29.36,71.74-63.88,95.32-74.32"/><path class="cls-16" d="M273.79,429.17c45.92-29.36,71.74-63.88,95.32-74.32"/><path class="cls-16" d="M300.23,445.69c45.92-29.36,71.73-63.88,95.31-74.32"/><path class="cls-16" d="M313.44,454c45.92-29.36,71.74-63.88,95.32-74.32"/><path class="cls-16" d="M326.66,462.21c26-16.64,45.59-34.93,61.95-49.56,12.51-11.19,23.15-20.23,33.36-24.75"/><path class="cls-16" d="M339.88,470.47c25.29-16.17,44.48-33.91,60.56-48.32"/><path class="cls-16" d="M353.09,478.74c23-14.69,40.9-30.66,56-44.26s27.49-24.85,39.28-30.06"/><path class="cls-16" d="M366.31,487c45.92-29.37,71.74-63.89,95.32-74.32"/><path class="cls-16" d="M379.53,495.26c45.92-29.37,71.73-63.89,95.31-74.32"/><path class="cls-16" d="M411.2,308.13s16.4-20.43,39.19-32.22S495,254,495,254"/><path class="cls-16" d="M423.63,315.19S440,294.77,462.82,283s44.61-21.88,44.61-21.88"/><path class="cls-16" d="M436.05,322.26s16.4-20.43,39.19-32.22"/><path class="cls-16" d="M448.48,329.32s16.39-20.43,39.19-32.21"/><path class="cls-16" d="M460.91,336.39S477.3,316,500.09,304.17"/><path class="cls-16" d="M485.76,350.52S502.15,330.09,525,318.3s44.61-21.87,44.61-21.87"/><path class="cls-16" d="M510.61,364.64S527,344.22,549.8,332.43s44.62-21.88,44.62-21.88"/><path class="cls-16" d="M523,371.71s16.39-20.43,39.18-32.22,44.62-21.87,44.62-21.87"/><path class="cls-16" d="M535.46,378.77s16.39-20.42,39.19-32.21,44.62-21.88,44.62-21.88"/><text class="cls-17" transform="matrix(0.87, -0.5, 0, 1, 157.76, 690.62)">KLMNOP<tspan class="cls-18" x="95.52" y="0">QR</tspan><tspan class="cls-19" x="129.31" y="0">S</tspan><tspan class="cls-18" x="143.54" y="0">T</tspan><tspan class="cls-20" x="157.51" y="0">UV</tspan></text><text class="cls-21" transform="matrix(0.87, -0.5, 0, 1, 577.06, 196.2)"><tspan class="cls-22">ABC</tspan><tspan class="cls-23" x="48.81" y="0">DEFGHIJ</tspan></text><path class="cls-8" d="M777,528.51,670.18,466.84a6,6,0,0,1-3.3-4.28c0-.12,0-5.43,0-5.55-.09-2.24,1.51.55,4.72-1.3l104.05-60.08c5.71-3.29,14.34-3.65,19.28-.79L901.7,456.51c2.28,1.31,3.38-1.85,3.34,0,0,.07,0,5.08,0,5.15-.15,2.09-1.74,4.26-4.71,6L796.27,527.71C790.57,531,781.94,531.36,777,528.51Z"/><path class="cls-12" d="M777,523.51,670.18,461.84c-2.24-1.3-3.33-3-3.34-4.83,0-2.19,1.6-4.5,4.72-6.3l104.05-60.08c5.71-3.29,14.34-3.65,19.28-.79L901.7,451.51c2.31,1.33,3.41,3.13,3.34,5-.08,2.14-1.68,4.37-4.72,6.12L796.27,522.71C790.57,526,781.94,526.36,777,523.51Z"/><text class="cls-24" transform="matrix(0.87, 0.5, -0.87, 0.5, 782.57, 432.26)">123<tspan x="-2.58" y="28.8">456</tspan><tspan x="-1.93" y="57.6">789</tspan></text><ellipse class="cls-11" cx="115.74" cy="174.55" rx="42.16" ry="24.34" transform="translate(-93.3 187.51) rotate(-60)"/><path class="cls-13" d="M111.8,154.67c-4.06-2.58-7-3-9.72-2.83a71.86,71.86,0,0,0-13.52,24.27,15.62,15.62,0,0,0,5.77,6.11,16.31,16.31,0,1,0,17.47-27.55Z"/><polygon class="cls-3" points="453.95 126.78 450.64 124.87 450.64 54.43 453.95 56.34 453.95 126.78"/><polygon class="cls-3" points="462.2 150.99 458.89 149.08 465.74 116.15 469.05 118.06 462.2 150.99"/><polygon class="cls-4" points="548.22 72.35 491.16 105.3 462.2 150.99 469.05 118.06 453.95 126.78 453.95 56.34 548.22 1.91 548.22 72.35"/><polygon class="cls-3" points="548.22 1.91 544.91 0 450.64 54.43 453.95 56.34 548.22 1.91"/><text class="cls-25" transform="matrix(0.87, -0.5, 0, 1, 465.36, 85.96)">مرحبا</text><polygon class="cls-26" points="340.78 258.03 337.47 256.12 329.85 237.4 333.16 239.31 340.78 258.03"/><polygon class="cls-26" points="272.89 274.11 269.58 272.2 269.58 201.75 272.89 203.67 272.89 274.11"/><polygon class="cls-11" points="367.16 219.68 355.26 226.55 355.26 226.55 340.78 258.03 333.16 239.31 272.89 274.11 272.89 203.67 367.16 149.24 367.16 219.68"/><polygon class="cls-26" points="367.16 149.24 363.85 147.33 269.58 201.75 272.89 203.67 367.16 149.24"/><text class="cls-27" transform="matrix(0.87, -0.5, 0, 1, 287.92, 239.61)">Hello!</text><polygon class="cls-1" points="542.58 538.65 545.88 540.56 606.15 505.76 602.85 503.85 542.58 538.65"/><polygon class="cls-1" points="508.57 558.28 511.88 560.19 511.88 630.63 508.57 628.72 508.57 558.28"/><polygon class="cls-2" points="511.88 560.19 523.78 553.32 523.78 553.32 523.78 515.82 545.88 540.56 606.15 505.76 606.15 576.21 511.88 630.63 511.88 560.19"/><text class="cls-28" transform="matrix(0.87, -0.5, 0, 1, 528.09, 596.77)">Salut!</text><polygon class="cls-1" points="508.57 558.28 511.88 560.19 523.78 553.32 520.47 551.41 508.57 558.28"/><polygon class="cls-1" points="520.47 513.91 523.78 515.82 523.78 553.32 520.47 551.41 520.47 513.91"/></svg>