<svg id="ilustra" xmlns="http://www.w3.org/2000/svg" viewBox="0 0 856.57 663.35"><defs><style>.cls-1{fill:#f2f2f2;}.cls-2{fill:#edaf00;}.cls-3{fill:#d89b13;}.cls-4{fill:#67bcda;}.cls-15,.cls-18,.cls-5,.cls-7{fill:none;stroke-miterlimit:10;}.cls-5{stroke:#ab3a47;}.cls-6{fill:#4b84b5;}.cls-7{stroke:#6b2256;}.cls-8{fill:#55c9b3;}.cls-9{fill:#359e8a;}.cls-10{fill:#43af9a;}.cls-11{fill:#c98200;}.cls-12{fill:#f3f6f7;}.cls-13{fill:#e0e6ed;}.cls-14{fill:#754c24;}.cls-15{stroke:#c98200;}.cls-16{fill:#248e7e;}.cls-17{fill:#ca4d5d;}.cls-18{stroke:#359e8a;stroke-linecap:round;stroke-width:4px;}</style></defs><title>life-and-science_art</title><circle class="cls-1" cx="432.04" cy="339.35" r="324"/><polygon class="cls-2" points="384.55 543.2 246.78 463.66 246.78 402.16 384.55 481.7 384.55 543.2"/><polygon class="cls-3" points="384.55 543.2 590.15 424.5 590.15 363 384.55 481.7 384.55 543.2"/><polygon class="cls-4" points="384.55 574.7 246.78 495.16 246.78 443.66 384.55 523.2 384.55 574.7"/><polyline class="cls-5" points="319.07 431.93 307.04 461.7 291.71 470.68 291.71 496.47"/><polyline class="cls-5" points="312.06 449.28 329.71 469.14 329.71 517.14"/><polyline class="cls-5" points="329.71 481.7 341.54 489.6 341.54 506.47"/><polygon class="cls-6" points="384.55 574.7 590.15 456 590.15 404.5 384.55 523.2 384.55 574.7"/><polyline class="cls-7" points="464.04 395.14 503.04 431.93 493.71 449.28 493.71 472.68 488.45 483.21"/><line class="cls-7" x1="493.71" y1="472.68" x2="499.71" y2="483.21"/><polyline class="cls-7" points="503.04 431.93 517.71 457.81 541.04 464.2 541.04 472.68"/><line class="cls-7" x1="541.04" y1="464.2" x2="549.04" y2="459.7"/><polyline class="cls-7" points="442.96 431.93 448.38 464.2 439.04 483.21 438.96 509.47"/><polyline class="cls-7" points="442.96 475.23 461.04 483.21 461.04 499.04"/><polygon class="cls-8" points="450.38 262.45 440.01 270.6 431.3 271.63 422.44 280.74 413.82 281.72 403.85 291.47 393.54 293.43 384.26 302.79 374.37 304.5 363.42 314.81 353.38 316.62 342.94 326.64 333.81 327.91 323.34 337.96 314.43 339.1 303.2 349.58 293.05 351.44 280.69 362.58 269.04 365.31 258.45 375.42 246.78 382.16 384.55 461.7 590.15 343 577.12 335.47 566.91 324.42 557.12 323.92 548.8 313.97 540.41 314.28 534.13 306.65 526.34 306.15 518.39 296.57 510.82 297.19 502.2 287.22 492.69 286.73 483.73 276.55 475.26 276.66 467.31 267.07 460.23 267.99 450.38 262.45"/><path class="cls-9" d="M435.38,363c-4.5-1.69-11.17-7.56-11.17-7.56l-28.67,8.64L377.88,375s-13.67,5.84-14.34,11.84a91.46,91.46,0,0,0-.5,11.33h0l-9.66-7.33-11.84-8.65h7s1-9.35-1.5-11.85c9.5-.5,13.5,0,13.5,0a12.09,12.09,0,0,0-3.5-8.23c10-.77,13.5.92,13.5.92V351.81l27.17,5.66,15.85-5.66s7.23-8.12,12.61-8.81c1.37,2.81,4.87,3.81,4.87,3.81A32.75,32.75,0,0,1,446,343a31.16,31.16,0,0,0,2.5,11.31l15.5,4.5a47.25,47.25,0,0,0-9.33,5.33c-3.5,2.85-9.67-.06-9.67-.06l.87,9.06"/><polygon class="cls-9" points="590.15 343 577.78 350.14 569.07 351.17 560.21 360.28 551.59 361.26 541.62 371.02 531.31 372.97 522.03 382.33 512.13 384.04 501.19 394.36 491.15 396.16 480.72 406.18 471.58 407.45 461.11 417.5 452.2 418.64 440.97 429.13 430.82 430.98 418.46 442.12 406.81 444.85 396.22 454.96 384.55 461.7 384.55 481.7 590.15 363 590.15 343"/><polygon class="cls-10" points="246.78 382.16 254.62 386.69 261.71 385.78 269.66 395.37 278.12 395.26 287.09 405.43 296.6 405.92 305.21 415.9 312.79 415.27 320.74 424.86 328.53 425.36 334.81 432.99 343.2 432.68 351.51 442.63 361.31 443.13 371.52 454.18 384.55 461.7 384.55 481.7 246.78 402.16 246.78 382.16"/><path class="cls-2" d="M415.71,337.47s.67,15,14.67,14.67,24.33,12,24.33,12a35.38,35.38,0,0,0-8.8,9s-7.53-11.33-19.2-11.33-27.33,7.33-29-4.34,20.83-22,20.83-22"/><path class="cls-11" d="M411.38,363.71v-16.9l-10.74,15.87C403.17,364.36,407,364.28,411.38,363.71Z"/><path class="cls-2" d="M416,346.81c10.38-22.11,43.5-31.5,54.5-49s25.5-24.5,43.5-31,18.5-37.5,18.5-37.5H518s2,21.5-6.5,27.5-21.5,3.5-43,26.5-33.5,30.5-55.5,30.5-31.5-30.5-31.5-30.5-11-8.5-12.5,8.5,16.74,37,16,54c-.66,15.33-8.33,18.66-20,29s-11.66,16-11.66,16l9.66,7.33s6.34-15.67,22-21S408.38,363.14,416,346.81Z"/><path class="cls-10" d="M470.59,234.26s10.18,8.57,8.36,21.46c5.69-9,17.68-5.72,17.68-5.72-3,3.4-2.46,11-2.46,11,12.56-9.78,20.28-8.34,20.28-8.34C527,257.74,530,268,530,268c5.89-8.44,5.07-20.09,2.49-24.37a36.77,36.77,0,0,1,16,15.21c6.19-11.43-.49-24.68-.49-24.68,10.34,2.07,14.4,11.53,14.4,11.53,5-9.54-.25-22.14-.25-22.14,11.89,1.72,16.69,13.77,16.69,13.77,4.45-9.09-3.28-21.95-3.28-21.95,12,5.26,12.93,14.4,12.93,14.4,6-7.93,11.72-31-11.94-47s-105.24-24.35-110.81-23.91S470.59,234.26,470.59,234.26Z"/><path class="cls-10" d="M232.65,217.82s-16.89,3.59-22.59-1.49a49.17,49.17,0,0,0,12,17.89s-8.12,5.66-13,4.78c6.12,11.25,26.53,16.42,26.53,16.42a29.42,29.42,0,0,1-8,5.17s25.43,11.14,53.16,9.48L274,276.49s30.24,15.56,54.1,7.11c-4.36,7.35-7.93,10.27-7.93,10.27s26.35,3.18,40.55-2.41l-3.05,8.59s18.1-1.84,24-6.38c11,9.58,17.22,9.17,17.22,9.17s.1-6.59.36-8.06c12.9,7.38,26.61,1.7,26.61,1.7-8.64-5.61-9.89-15.73-9.89-15.73s8.1.17,13.14-2.48c-6.71-2.22-45.57-64.34-45.57-64.34L278,180.19S257.54,183.66,247.2,196c-9.18-2.66-14.77-2.64-14.77-2.64s5.46,12.15,8.9,12.76a31.16,31.16,0,0,1-14.62-.58Z"/><path class="cls-9" d="M392.75,221.88s-5.71,16.5-16.24,21.2c3.69,3.15,16.41,1.69,16.41,1.69-5.71,6.7-9.1,7.86-9.1,7.86s13.88-.59,20.66-2.91l-3.46,9.2s15.22,3.56,20.54-6.7c7.5,2.78,10.3,7.34,10.3,7.34,3.08-5.46,3.21-9.22,3.21-9.22s8.11,1.84,11.11,4.41c3.58-7.93,1.1-10.7,1.1-10.7s12.67,3.81,15,5.81c3.35-5.69.94-9.2.94-9.2s15.83.11,20.44,4.1L481.93,232s11.79,2.72,13.22,5.88c2.43-6.54,1-9.7,1-9.7s10.46,3.33,11,5.9c5.48-2,8.17-13.49,8.17-13.49s11.34-.35,16.43,3.94c1.59-8.13-1.81-11.74-1.81-11.74s10.24-3.48,13.43,1.37c2.95-5.89-2.48-11.81-2.48-11.81s13-2.69,16.58,1.7c4.57-8.58,1.29-12.6,1.29-12.6a38.79,38.79,0,0,1,18.36,7.24c3.28-12.4-1.51-17.92-1.51-17.92,11.36,3.51,16,7.34,16,7.34s-8-22.94-26.52-29-134.55-11.27-134.55-11.27l-34.73,64.3Z"/><path class="cls-8" d="M310.12,235.73a41.18,41.18,0,0,1-19.67.74c6.7-6.6,5.82-12.72,5.82-12.72s-10.54-.07-14.92-1.53c6.13-5.9,1.27-12.43,1.27-12.43s-7.61.73-13.92-1.43a10,10,0,0,0,3.43-9s-9.28-2.7-13.31-.1c.36-6,4.18-11.39,4.18-11.39s-9.3-2.46-13.93-1.42c4.05-7.63,7.94-11.25,7.94-11.25-6.54-2.43-11.61-4.46-11.61-4.46a68.56,68.56,0,0,1,17.77-11.5c-7.28-5-11.18-6.17-11.18-6.17s11.66-5.84,18.53-11.67l6.88-5.83s-8-2.33-9.24-5.47c7.77-2.22,18.06-9.46,18.06-9.46,1.25-22,15-33.65,15-33.65.83,6.62,6.3,7.18,6.3,7.18s8.89-13.16,16.26-16.42,13.76-11.66,13.76-11.66l2.72,5.3C353.4,53.69,370,48.85,373.18,42.14a6.13,6.13,0,0,1,5.11,4,59.83,59.83,0,0,0,16.77-21.41l3.42,5.88S410.86,12.83,413.18,0c12.8,17.39,18.43,31,18.43,31,2.07-10.34,2.53-14.32,2.53-14.32s27,25.39,28.38,31.56c3.15-6.21,3.5-9.69,3.5-9.69S489.1,61.89,499.1,69,522.3,78,522.3,78a25.89,25.89,0,0,1-7.11,4s5.66,6.94,10.76,9.48,15.71,3.62,15.71,3.62a30,30,0,0,1-7.51,4.59s16.73,10.09,20.73,13.52a22.46,22.46,0,0,0,7.26,4.39s-10.59,2-12.55,4.78c11.3,4.17,26,7.69,26,7.69A151.25,151.25,0,0,1,561.21,143s12.15,10.62,26.58,12.1c-5.25,7-20.77,6.42-24.75,6,1,4.63,5.86,6.63,5.86,6.63s-6.38,3.37-19-.94c3,5.33,10.07,9.58,10.07,9.58a81.7,81.7,0,0,1-22.14.24c2,4.73,7.45,5.79,7.45,5.79s-13.79,2.11-23.48-1.4c5.91,6.13,10.88,6.64,10.88,6.64a67.7,67.7,0,0,1-21.88-2.24,32.88,32.88,0,0,0,11.32,7.19,55.55,55.55,0,0,1-20.8,1.89c2.08,4.24,8.94,5.95,8.94,5.95s-8.76,2.11-22.64.19a34.19,34.19,0,0,0,15.07,5.06s-18.48,8.66-38.67,4.59l12.17,8.78S449.94,236,412.13,231.6s-41.43-8.27-41.43-8.27,8-4.21,8.28-7.19c-8.28,7.19-23.34,2.13-23.34,2.13a18.34,18.34,0,0,0,7.09-10.33s-16.64,10.36-25.8,11.43c2.08,4.24,9.54,5,9.54,5S332.69,246.08,310.12,235.73Z"/><ellipse class="cls-3" cx="264.05" cy="433.27" rx="2.08" ry="4.95" transform="translate(-240.16 376.51) rotate(-52.22)"/><ellipse class="cls-3" cx="282.45" cy="429.42" rx="0.96" ry="2.42" transform="translate(-230.63 399.08) rotate(-53.28)"/><ellipse class="cls-3" cx="291" cy="460.71" rx="0.97" ry="1.68" transform="translate(-191.37 207.23) rotate(-30)"/><ellipse class="cls-3" cx="310.9" cy="469.02" rx="1.27" ry="2.21" transform="translate(-192.86 218.29) rotate(-30)"/><ellipse class="cls-3" cx="345.79" cy="467.03" rx="1.57" ry="3.43" transform="translate(-234.29 432.52) rotate(-50.08)"/><ellipse class="cls-3" cx="338.09" cy="480.9" rx="0.74" ry="2.3" transform="translate(-249.66 491.95) rotate(-55.97)"/><ellipse class="cls-3" cx="359.54" cy="498.25" rx="1.12" ry="2.39" transform="translate(-252.52 444.39) rotate(-49.16)"/><ellipse class="cls-3" cx="370.28" cy="490.37" rx="0.91" ry="1.58" transform="translate(-195.58 250.84) rotate(-30)"/><ellipse class="cls-3" cx="297.29" cy="445.83" rx="1.4" ry="2.82" transform="translate(-231.8 360.91) rotate(-47.19)"/><ellipse class="cls-2" cx="407.43" cy="502.15" rx="2.08" ry="0.86" transform="matrix(0.79, -0.61, 0.61, 0.79, -221.54, 351.96)"/><ellipse class="cls-2" cx="437.22" cy="467.03" rx="2.83" ry="1.05" transform="translate(-190.25 342.28) rotate(-35.64)"/><ellipse class="cls-2" cx="444.84" cy="481.7" rx="2.83" ry="1.05" transform="translate(-197.37 349.47) rotate(-35.64)"/><ellipse class="cls-2" cx="581.62" cy="404.02" rx="2.83" ry="1.05" transform="translate(-126.48 414.62) rotate(-35.64)"/><ellipse class="cls-2" cx="471.44" cy="459.7" rx="2.1" ry="0.94" transform="translate(-184.47 401.74) rotate(-39.23)"/><ellipse class="cls-2" cx="485.6" cy="440.91" rx="2.48" ry="1.05" transform="translate(-168.58 393.3) rotate(-38.08)"/><ellipse class="cls-2" cx="533.66" cy="404.47" rx="4.05" ry="1.76" transform="translate(-135.77 420.39) rotate(-38.52)"/><ellipse class="cls-2" cx="416.76" cy="481.7" rx="4.65" ry="1.78" transform="translate(-203.87 338.38) rotate(-36.13)"/><ellipse class="cls-2" cx="557.48" cy="409.35" rx="3.93" ry="1.07" transform="translate(-132.8 366.23) rotate(-32.72)"/><ellipse class="cls-2" cx="525.59" cy="429.83" rx="2.78" ry="0.48" transform="translate(-146.34 332.33) rotate(-31.02)"/><ellipse class="cls-2" cx="574.04" cy="380.1" rx="3.05" ry="0.9" transform="translate(-114.43 377.64) rotate(-33.31)"/><path class="cls-2" d="M581.62,385.41l-2,1.12-1.95,1.13,1.95-1.13Z"/><path class="cls-12" d="M61.93,255.71s-25.58-18.14-44.62,0S.67,300.92,61.93,255.71Z"/><path class="cls-13" d="M61.93,255.71s-3.7-14.59-27.56-13.4-28.95,17.91-23.3,26.81S49.15,264,61.93,255.71Z"/><circle class="cls-11" cx="75.23" cy="255.24" r="5.44"/><path class="cls-2" d="M54.48,257.58s2.31-10.52,10.31-10.52,14.5,10.56,11.75,19.15-18.71,2.56-18.71,2.56Z"/><path class="cls-2" d="M62.71,260.81c-11.13-14.54-43,.33-34.67,31.66C32.71,291.14,83.38,287.81,62.71,260.81Z"/><path class="cls-14" d="M58.69,262.27q6,8.31,7.85,14.94c2.06-4.17,1.44-9.51-3.83-16.4a14.46,14.46,0,0,0-11.25-5.59A28.74,28.74,0,0,1,58.69,262.27Z"/><path class="cls-14" d="M57.83,268.77A44.13,44.13,0,0,0,44.7,256.16a23.82,23.82,0,0,0-5.62,2.62,38.36,38.36,0,0,1,14.6,12.79c1.41,2.1,4.42,7.21,4.83,13a25.07,25.07,0,0,0,4.64-3.12A33.23,33.23,0,0,0,57.83,268.77Z"/><path class="cls-14" d="M53.32,286.87a21.18,21.18,0,0,0-.5-4.38c-2.07-9.18-10-17.73-18.43-19.92a26.57,26.57,0,0,0-3.51,4.5,12.68,12.68,0,0,1,2.22.33c6.66,1.71,13.18,8.82,14.84,16.19a14,14,0,0,1,.27,4.94C49.94,288,51.65,287.49,53.32,286.87Z"/><path class="cls-14" d="M43.42,289.73a13.23,13.23,0,0,0,.15-1.58,15.76,15.76,0,0,0-8.43-14.21,13,13,0,0,0-6.9-1.26A29.22,29.22,0,0,0,27,278a8.21,8.21,0,0,1,6,.44A10.71,10.71,0,0,1,38.58,288a6.19,6.19,0,0,1-.8,2.89C39.55,290.54,41.45,290.17,43.42,289.73Z"/><path class="cls-14" d="M27,287.14l-.31,11.33,6.71-7.61S30.92,282.8,27,287.14Z"/><path class="cls-12" d="M75.65,255.2l-9.82-1.73s-19.71,8.47-22.25,23.74,17.87,16.63,28.13,13.65C93.38,284.57,91.92,257.27,75.65,255.2Z"/><path class="cls-13" d="M65.83,253.47s-28.11,34.67-6.28,41.34S120.29,257.47,65.83,253.47Z"/><path class="cls-15" d="M77.18,253.47s3-6.5,8.53-6.41"/><path class="cls-15" d="M75,253.35s1.49-7,6.87-8.17"/><path class="cls-16" d="M760.54,406.81l-80.11-46.26a4.47,4.47,0,0,1-2.47-3.2c0-.09,0-5.07,0-5.17-.07-1.68,1.13.42,3.54-1l78-45.06c4.28-2.47,10.76-2.73,14.46-.6l80.11,46.26c1.71,1,2.53-1.39,2.5,0v4.87c-.12,1.56-1.31,3.19-3.53,4.47l-78,45.06C770.72,408.68,764.25,409,760.54,406.81Z"/><path class="cls-8" d="M760.54,402.06,680.43,355.8a4.27,4.27,0,0,1-2.5-3.62c0-1.64,1.2-3.37,3.54-4.72l78-45.06c4.28-2.47,10.76-2.73,14.46-.6l80.11,46.26c1.73,1,2.55,2.35,2.5,3.75-.06,1.6-1.26,3.28-3.53,4.59l-78,45.06C770.72,403.93,764.25,404.2,760.54,402.06Z"/><path class="cls-17" d="M802.57,311.14a35.2,35.2,0,0,1-70.39,0c0-19.44,23.86-35.83,35.2-15.19C784.54,282.31,802.57,291.7,802.57,311.14Z"/><path class="cls-8" d="M771.28,280.3s-16.24-.2-16.49-21.85C769.54,263.56,778,267,771.28,280.3Z"/><path class="cls-18" d="M767.38,296s-1.87-14.52,10.3-19.78"/><path class="cls-6" d="M55.08,389.31,1.67,358.47A3,3,0,0,1,0,356.34c0-.07,0-5.72,0-5.78,0-1.12.76.27,2.36-.65l52-30c2.85-1.65,7.16-1.82,9.63-.4l53.41,30.84c1.14.66,1.69-.92,1.67,0,0,0,0,5.54,0,5.58a4.08,4.08,0,0,1-2.35,3l-52,30C61.86,390.55,57.55,390.73,55.08,389.31Z"/><path class="cls-4" d="M55.08,383.81,1.67,353A2.85,2.85,0,0,1,0,350.56c0-1.1.8-2.25,2.36-3.15l52-30c2.85-1.65,7.16-1.82,9.63-.4l53.41,30.84a2.82,2.82,0,0,1,1.67,2.5c0,1.07-.84,2.18-2.36,3.06l-52,30C61.86,385.05,57.55,385.23,55.08,383.81Z"/></svg>