<svg xmlns="http://www.w3.org/2000/svg" viewBox="0 0 492.54 144"><defs><style>.cls-1{fill:#fc9f03;}.cls-2{fill:#62aac1;}.cls-3{fill:#ff8c25;}.cls-4{fill:#243f52;}</style></defs><title>QueroCourses_Logo-Quero_HPNG</title><g id="textos"><g id="querocourses_logo"><g id="querio"><path id="q" class="cls-1" d="M207.24,34.65c21.49,0,36,15.34,36,34.36,0,8-2.55,13.73-6.06,19.31l1.61,1.23c3.22,2.46,3.6,5.59.85,8.62l-2.93,3.31c-3,3.41-5.68,2.93-8.14.76l-2.46-2.08A36.83,36.83,0,0,1,207.34,105c-21.49,0-36-15.62-36-35.4S185.76,34.65,207.24,34.65Zm1.33,52.44a10,10,0,0,0,3.12-.47l-1.51-1.23c-2.56-2.08-3.88-5.59-1.23-8.52l2.93-3.22c2.56-2.84,5-2.84,8-.38l2.37,2a43.69,43.69,0,0,0,.47-5.49c0-10.13-6.62-16.94-15.43-16.94-9,0-15.24,7.1-15.24,16.66C192,79.24,198.44,87.09,208.57,87.09Z"/><path id="u" class="cls-1" d="M248.23,41.94c0-4.07,2.18-6.15,6.15-6.15h7.67c4,0,6.15,2.08,6.15,6.15V78.39c0,5.67,3.69,8.42,9.28,8.42s9.37-2.75,9.37-8.33V41.94c0-4.07,2.08-6.15,6.15-6.15h7.57c4.07,0,6.16,2.08,6.16,6.15V78.39c0,15.42-11.46,26.59-29.16,26.59-17.89,0-29.34-11.17-29.34-26.59Z"/><path id="e" class="cls-1" d="M314.68,41.94c0-4.07,2.17-6.15,6.24-6.15h31.71c4,0,6.16,2.08,6.16,6.15v4.74c0,4-2.18,6.15-6.16,6.15h-18v8.23h12.87c4.07,0,6.25,2.18,6.25,6.16V72c0,4.07-2.18,6.15-6.25,6.15H334.65v8.71h19.12C357.84,86.81,360,89,360,93v4.73c0,4-2.18,6.16-6.25,6.16H320.92c-4.07,0-6.24-2.18-6.24-6.16Z"/><path id="r" class="cls-1" d="M365.41,41.94c0-4.07,2.18-6.15,6.25-6.15h18.46c6.25,0,10.51.38,13.53,1.42C411.32,39.77,417,47.62,417,57.65c0,6.92-2.84,15-9.46,19v.19a28.19,28.19,0,0,1,3,4.35l8.52,15.15c2.65,4.73.29,7.48-4.26,7.48H406a7.71,7.71,0,0,1-7.29-4.36l-8.61-16.66h-4.73V97.69c0,4-2.09,6.16-6.16,6.16h-7.57c-4.07,0-6.25-2.18-6.25-6.16ZM389.65,65.8c4.73,0,7.09-2.09,7.09-7.2,0-1.8-.28-3.88-3-5a12.92,12.92,0,0,0-5.31-.75h-3v13Z"/><path id="o" class="cls-1" d="M456.57,34.65c21.58,0,36,15.24,36,34.74,0,20-14.39,35.59-36,35.59s-35.88-15.62-35.88-35.59C420.69,49.89,435,34.65,456.57,34.65Zm0,52.16c9.08,0,15.33-7.48,15.33-17.42,0-9.46-6.25-16.56-15.33-16.56s-15.24,7.1-15.24,16.56C441.33,79.33,447.58,86.81,456.57,86.81Z"/></g></g><path class="cls-2" d="M117.05,44.41l-.54-.54c0,.1,0,.2,0,.3C116.73,44.24,116.89,44.33,117.05,44.41Z"/><path class="cls-2" d="M69,68.82A43.15,43.15,0,0,1,81.64,59.5c12.56-6.46,14-11.14,14-14.1,0-7.85,3.54-12.48,8-14.38l-31-31L54.28,18.36C63.94,28.78,67.7,44.18,69,68.82Z"/><path class="cls-2" d="M.64,72l41.54,41.54A177.1,177.1,0,0,1,27,80.58c-5-14.69-9.92-20.28-12.62-22.35Z"/><path class="cls-3" d="M117.05,44.41l-.54-.54c0,.1,0,.2,0,.3C116.73,44.24,116.89,44.33,117.05,44.41Z"/><path class="cls-4" d="M72.64,144c21-21,33-45.44,37.2-68.1,7.06,0,16.74-1.34,16.74-8.31,0-8.88-8.59-17.69-15.48-18.94A72.65,72.65,0,0,0,108.64,36c-3.41,0-7,2.4-7,9.4,0,8.36-7.3,14.31-17.28,19.43-10.17,5.22-18.4,13-20.81,33.11v-.46c0-40.2-2-63.33-14.55-75.92A29,29,0,0,0,5.15,59l7.92-7.91c1,.09,11.11,1.5,19.64,27.58C45.58,118,72.64,144,72.64,144Z"/><path class="cls-1" d="M114.76,81.67a129.41,129.41,0,0,1-12.51,32.73l4.77-4.77L144.64,72,130,57.31a22.81,22.81,0,0,1,2.63,10.28C132.58,76,125.58,81,114.76,81.67Z"/></g></svg>