<svg id="ilustra" xmlns="http://www.w3.org/2000/svg" viewBox="0 0 841.65 796.44"><defs><style>.cls-1{fill:#4b84b5;}.cls-2{fill:#67bcda;}.cls-11,.cls-15,.cls-17,.cls-3{fill:none;}.cls-3{stroke:#ca4d5d;stroke-width:16px;}.cls-15,.cls-16,.cls-17,.cls-3{stroke-miterlimit:10;}.cls-4{fill:#f2f2f2;}.cls-14,.cls-5{fill:#edaf00;}.cls-6{fill:#c98200;}.cls-7{fill:#f4d03e;}.cls-8{fill:#ab3a47;}.cls-9{fill:#73cfeb;}.cls-10{fill:#ca4d5d;}.cls-11{stroke:#c98200;stroke-linecap:round;stroke-linejoin:round;stroke-width:9px;}.cls-12{fill:#248e7e;}.cls-13{fill:#55c9b3;}.cls-14{opacity:0.5;}.cls-15{stroke:#edaf00;}.cls-16{fill:#fff;stroke:#e0e6ed;}.cls-16,.cls-17{stroke-width:2px;}.cls-17{stroke:#a1adb6;}</style></defs><title>marketing_art</title><path class="cls-1" d="M171.29,762.19,64.47,700.52a6,6,0,0,1-3.3-4.28c0-.12,0-5.43,0-5.55-.09-2.24,1.51.55,4.72-1.3L169.9,629.31c5.71-3.29,14.33-3.65,19.28-.79L296,690.19c2.28,1.31,3.37-1.85,3.33,0v5.15c-.15,2.09-1.75,4.26-4.71,6l-104,60.08C184.86,764.68,176.23,765,171.29,762.19Z"/><path class="cls-2" d="M171.29,757.19,64.47,695.52c-2.24-1.3-3.33-3-3.34-4.83,0-2.19,1.6-4.5,4.72-6.3L169.9,624.31c5.71-3.29,14.33-3.65,19.28-.79L296,685.19c2.31,1.33,3.4,3.13,3.33,5-.08,2.14-1.67,4.37-4.71,6.12l-104,60.08C184.86,759.68,176.23,760,171.29,757.19Z"/><path class="cls-3" d="M58.76,437.73c7.8,2,14.55,2.27,20.32,1.15,30.53-5.92,33.31-51.34,16.35-94a73.09,73.09,0,0,1-4.75-19.12"/><circle class="cls-4" cx="410.85" cy="419.26" r="324"/><path class="cls-3" d="M90.68,325.79c-5.08-46.28,33.37-94.41,92.58-77.65,0,0-57-65.6-132,0s-39.18,177.72,7.5,189.59"/><path class="cls-5" d="M264,509.22l-26.49-15.29a17.14,17.14,0,0,1-7.89-19.57l29.84-103.49,38.09,22Z"/><polygon class="cls-6" points="324.3 377.39 297.51 392.86 263.96 509.22 290.75 493.75 290.75 493.75 324.3 377.39"/><polygon class="cls-6" points="320.03 376.55 306.1 384.6 296.8 449.81 310.73 441.76 320.03 376.55"/><polygon class="cls-5" points="296.8 449.81 288.65 445.1 306.1 384.6 306.1 384.6 296.8 449.81"/><path class="cls-7" d="M176.71,319.2c0,16,5.24,27.54,13.84,33.58,9.84,6.91,86.9,63.39,102.74,54.25,29.69-17.13,71.24-90.13,71.23-124.4,0-17.14-86.33-54.65-96.06-60.27s-23.17-4.81-38,3.76C200.76,243.25,176.7,284.92,176.71,319.2Z"/><ellipse class="cls-5" cx="316.16" cy="337.66" rx="76" ry="43.9" transform="translate(-134.34 442.61) rotate(-60)"/><path class="cls-2" d="M566.72,307.82c-57.84-17.63-94.67,31.91-212.1-30.26-9.18-5.62-22-5-36.25,3.22-27.9,16.1-50.51,55.26-50.51,87.47,0,16.1,5.66,27.42,14.81,32.69,83,43.33,89.34,140.31,146.17,168.81C532.07,524,624.56,325.45,566.72,307.82Z"/><path class="cls-2" d="M411.28,516.14c0,29.82,9.16,51.88,24.4,64.41,19.61,16.11,49.27,16.46,82.48-2.71,59-34.08,106.88-117,106.88-185.12,0-32.58-10.94-55.89-28.8-67.64-19.5-12.83-47.27-11.86-78.08,5.94C459.13,365.1,411.28,448,411.28,516.14Z"/><ellipse class="cls-7" cx="518.15" cy="454.43" rx="128.41" ry="74.14" transform="matrix(0.5, -0.87, 0.87, 0.5, -134.47, 675.95)"/><ellipse class="cls-5" cx="472.05" cy="425.49" rx="57.86" ry="33.41" transform="translate(-132.47 621.53) rotate(-60)"/><polygon class="cls-8" points="509.94 468.73 417.26 424.55 442.21 382.25 526.84 440.23 509.94 468.73"/><path class="cls-9" d="M394.57,503.14c0,28.52,8.38,50,22.45,62.72.64.59,22.75,17.59,23.41,18.14,25.59,8.44-7.38-32.87-14.76-70.49-11.21-57.16,43-145.52,101.17-172.3,29.59-13.63,82.56-2.15,74.58-12.23-.78-1-24-18.24-25.11-18.85C557,299.41,530.6,301.2,501.45,318,442.43,352.1,394.57,435,394.57,503.14Z"/><path class="cls-10" d="M506.54,461.18c0,3.72,1.3,6.33,3.4,7.55s5,1,8.24-.82c6.43-3.72,11.8-12.77,11.66-20.21-.06-3.66-1.19-6.19-3-7.47-2.12-1.5-5.19-1.31-8.64.75C511.82,444.79,506.55,453.75,506.54,461.18Z"/><path class="cls-1" d="M596.24,325.08c-19.5-12.83-47.27-11.86-78.08,5.94-59,34.08-106.88,117-106.88,185.12,0,29.82,9.16,51.88,24.4,64.41,19.61,16.11,49.27,16.46,82.48-2.71,59-34.08,106.88-117,106.88-185.12C625,360.14,614.1,336.83,596.24,325.08ZM518.16,557.56C468.83,586,428.84,563,428.84,506s40-126.21,89.31-154.69,89.32-5.39,89.32,51.57S567.48,529.08,518.16,557.56Z"/><path class="cls-11" d="M205.33,289.24c-5.57,12.18-8.82,24.55-8.82,37.14"/><path class="cls-11" d="M222.83,298.55c-6.23,12.92-9.9,26.05-9.89,39.43"/><path class="cls-11" d="M240.52,307.6c-7,13.74-11.16,27.72-11.16,42"/><path class="cls-1" d="M572.84,173.58l-53.4-30.84a3,3,0,0,1-1.65-2.14c0-.06,0-2.71,0-2.77,0-1.12.75.27,2.36-.65l52-30c2.85-1.65,7.17-1.83,9.64-.4l53.41,30.84c1.14.65,1.68-.93,1.66,0v2.57a4.09,4.09,0,0,1-2.35,3l-52,30C579.63,174.82,575.31,175,572.84,173.58Z"/><path class="cls-2" d="M572.84,171.08l-53.4-30.84a2.85,2.85,0,0,1-1.67-2.41c0-1.1.8-2.25,2.36-3.15l52-30c2.85-1.65,7.17-1.83,9.64-.4l53.41,30.84a2.81,2.81,0,0,1,1.66,2.5c0,1.07-.83,2.18-2.35,3.06l-52,30C579.63,172.32,575.31,172.5,572.84,171.08Z"/><path class="cls-12" d="M569.31,133.89s2.11,5.61,7.31,5.61c6.82,0,8-5.63,8-5.63S576.82,124.27,569.31,133.89Z"/><ellipse class="cls-12" cx="576.94" cy="129.46" rx="10.8" ry="6.25"/><ellipse class="cls-13" cx="576.94" cy="126.67" rx="11.92" ry="6.91"/><ellipse class="cls-12" cx="576.99" cy="123.61" rx="12.93" ry="7.48"/><ellipse class="cls-13" cx="576.98" cy="120.27" rx="14.28" ry="8.26"/><ellipse class="cls-12" cx="577.06" cy="115.6" rx="16.52" ry="9.54"/><ellipse class="cls-13" cx="577.06" cy="111.34" rx="18.24" ry="10.53"/><path class="cls-7" d="M618.56,41.5c0-.59,0-1.13,0-1.66a41.49,41.49,0,0,0-82.92.21c0,.46,0,.94,0,1.45,0,26,22.79,34.51,22.79,58.89,0,3.63.39,7.36,2.33,10.16a11,11,0,0,0,4.15,3.87c6.75,3.91,17.71,3.91,24.47,0a10.09,10.09,0,0,0,4.66-4.94,19.7,19.7,0,0,0,1.82-9.09C595.78,74.4,618.56,66.25,618.56,41.5Z"/><ellipse class="cls-14" cx="577.06" cy="107.36" rx="14.5" ry="8.37"/><polyline class="cls-15" points="556.06 46.17 573.45 107.36 580.16 107.36 597.39 46.17"/><path class="cls-15" d="M560.21,63.31h16c4.16,0,4.16-8.14,0-8.14s-3.5,12.33.83,12.33.26-5.45,16-5.45"/><path class="cls-8" d="M713.61,269,606.8,207.28a6,6,0,0,1-3.3-4.28c0-.12,0-5.43,0-5.55-.09-2.24,1.51.55,4.72-1.3l104.05-60.08c5.7-3.29,14.33-3.65,19.27-.79L838.32,197c2.28,1.31,3.37-1.85,3.33,0,0,.07,0,5.08,0,5.15-.14,2.09-1.74,4.26-4.7,6L732.89,268.15C727.18,271.44,718.55,271.8,713.61,269Z"/><path class="cls-10" d="M713.61,264,606.79,202.28c-2.23-1.3-3.33-3-3.33-4.83,0-2.19,1.59-4.5,4.72-6.3l104.05-60.08c5.7-3.29,14.33-3.65,19.27-.79L838.32,192c2.31,1.33,3.4,3.13,3.33,5-.08,2.14-1.68,4.37-4.72,6.12l-104,60.08C727.18,266.44,718.55,266.8,713.61,264Z"/><path class="cls-16" d="M207.68,143a342.3,342.3,0,0,1,39.71-25.25"/><path class="cls-16" d="M181.71,143a359.52,359.52,0,0,1,74.63-47.79"/><path class="cls-16" d="M156.59,142.05A376.3,376.3,0,0,1,277.32,67.5"/><path class="cls-16" d="M425.7,761.89a342.45,342.45,0,0,1-47.05-1.16"/><path class="cls-16" d="M447.3,776.28a358.75,358.75,0,0,1-88.6-1.87"/><path class="cls-16" d="M467.61,791.1a376.19,376.19,0,0,1-141.79-5.33"/><line class="cls-17" x1="675.4" y1="535.14" x2="732.56" y2="568.14"/><line class="cls-17" x1="679.85" y1="494.71" x2="742.85" y2="478.38"/><line class="cls-17" x1="651.85" y1="564.71" x2="684.85" y2="623.59"/></svg>