<svg id="ilustra" xmlns="http://www.w3.org/2000/svg" viewBox="0 0 934.62 648"><defs><style>.cls-1,.cls-10{fill:#4b84b5;}.cls-2{fill:#67bcda;}.cls-3{fill:#f2f2f2;}.cls-4{fill:#f4d03e;}.cls-5{fill:#d89b13;}.cls-11,.cls-6{fill:#edaf00;}.cls-7{fill:none;}.cls-10,.cls-11,.cls-12,.cls-7{stroke:#5caabc;stroke-miterlimit:10;stroke-width:2px;}.cls-8{fill:#ca4d5d;}.cls-12,.cls-9{fill:#55c9b3;}.cls-13{fill:#73cfeb;}.cls-14{fill:#ab3a47;}.cls-15{fill:#fff;}.cls-16{fill:#f3f6f7;}</style></defs><title>math-and-logic_art</title><path class="cls-1" d="M190.1,159.29,110,113a4.5,4.5,0,0,1-2.48-3.2c0-.09,0-6.08,0-6.17-.08-1.68,1.13.42,3.54-1l78-45.06c4.28-2.47,10.75-2.74,14.46-.6l80.11,46.26c1.71,1,2.53-1.39,2.5,0,0,0,0,5.81,0,5.86-.11,1.57-1.3,3.2-3.53,4.48l-78,45.06C200.28,161.17,193.81,161.43,190.1,159.29Z"/><path class="cls-2" d="M190.1,153.54,110,107.29a4.28,4.28,0,0,1-2.5-3.62c0-1.64,1.19-3.37,3.54-4.72l78-45.06c4.28-2.47,10.75-2.74,14.46-.6l80.11,46.26a4.23,4.23,0,0,1,2.5,3.75c-.06,1.6-1.26,3.28-3.54,4.59l-78,45.06C200.28,155.42,193.81,155.68,190.1,153.54Z"/><path class="cls-1" d="M82.62,222.75,2.5,176.49A4.47,4.47,0,0,1,0,173.29c0-.09,0-6.07,0-6.16-.07-1.69,1.13.41,3.54-1l78-45.06c4.28-2.47,10.75-2.73,14.45-.59l80.12,46.25c1.71,1,2.53-1.39,2.5,0,0,.06,0,5.81,0,5.87-.11,1.56-1.31,3.19-3.53,4.47l-78,45.06C92.79,224.62,86.32,224.89,82.62,222.75Z"/><path class="cls-2" d="M82.62,217,2.5,170.74A4.31,4.31,0,0,1,0,167.13c0-1.65,1.2-3.38,3.54-4.73l78-45.06c4.28-2.47,10.75-2.73,14.45-.59L176.15,163c1.73,1,2.55,2.35,2.5,3.75-.06,1.6-1.26,3.28-3.54,4.59l-78,45.06C92.79,218.87,86.32,219.14,82.62,217Z"/><circle class="cls-3" cx="492.55" cy="324" r="324"/><polygon class="cls-2" points="700.08 255.59 332.47 467.83 261.03 426.58 628.63 214.34 700.08 255.59"/><polygon class="cls-4" points="586.16 70.06 600.88 288.56 571.53 271.61 571.53 61.61 586.16 70.06"/><polygon class="cls-5" points="618.21 278.56 600.88 288.56 586.16 70.06 603.48 60.06 618.21 278.56"/><polygon class="cls-6" points="603.48 60.06 586.16 70.06 571.53 61.61 588.85 51.61 603.48 60.06"/><polyline class="cls-7" points="367.54 207.4 537.99 108.98 554.76 99.31 578.85 85.4"/><circle class="cls-8" cx="571.52" cy="89.63" r="7.97"/><circle class="cls-8" cx="554.76" cy="99.31" r="7.97"/><circle class="cls-8" cx="487.7" cy="138.02" r="7.97"/><circle class="cls-8" cx="470.94" cy="147.7" r="7.97"/><circle class="cls-8" cx="454.18" cy="157.38" r="7.97"/><circle class="cls-8" cx="437.42" cy="167.05" r="7.97"/><circle class="cls-8" cx="420.65" cy="176.73" r="7.97"/><circle class="cls-8" cx="403.89" cy="186.41" r="7.97"/><circle class="cls-8" cx="387.13" cy="196.09" r="7.97"/><circle class="cls-8" cx="370.36" cy="205.77" r="7.97"/><polyline class="cls-7" points="367.54 229.93 537.99 131.51 554.76 121.83 578.85 107.92"/><circle class="cls-9" cx="571.52" cy="112.15" r="7.97"/><circle class="cls-9" cx="554.76" cy="121.83" r="7.97"/><circle class="cls-9" cx="537.99" cy="131.51" r="7.97"/><circle class="cls-9" cx="470.94" cy="170.22" r="7.97"/><circle class="cls-9" cx="454.18" cy="179.9" r="7.97"/><circle class="cls-9" cx="437.42" cy="189.58" r="7.97"/><circle class="cls-9" cx="420.65" cy="199.26" r="7.97"/><circle class="cls-9" cx="403.89" cy="208.94" r="7.97"/><circle class="cls-9" cx="387.13" cy="218.62" r="7.97"/><circle class="cls-9" cx="370.36" cy="228.29" r="7.97"/><polyline class="cls-10" points="367.54 252.45 537.99 154.04 554.76 144.36 578.85 130.45"/><circle class="cls-1" cx="571.52" cy="134.68" r="7.97"/><circle class="cls-1" cx="554.76" cy="144.36" r="7.97"/><circle class="cls-1" cx="537.99" cy="154.04" r="7.97"/><circle class="cls-1" cx="521.23" cy="163.72" r="7.97"/><circle class="cls-1" cx="454.18" cy="202.43" r="7.97"/><circle class="cls-1" cx="437.42" cy="212.11" r="7.97"/><circle class="cls-1" cx="420.65" cy="221.78" r="7.97"/><circle class="cls-1" cx="403.89" cy="231.46" r="7.97"/><circle class="cls-1" cx="387.13" cy="241.14" r="7.97"/><circle class="cls-1" cx="370.36" cy="250.82" r="7.97"/><polyline class="cls-11" points="367.54 274.98 537.99 176.56 554.76 166.88 578.85 152.98"/><circle class="cls-6" cx="571.52" cy="157.21" r="7.97"/><circle class="cls-6" cx="554.76" cy="166.88" r="7.97"/><circle class="cls-6" cx="537.99" cy="176.56" r="7.97"/><circle class="cls-6" cx="521.23" cy="186.24" r="7.97"/><circle class="cls-6" cx="504.47" cy="195.92" r="7.97"/><circle class="cls-6" cx="437.42" cy="234.46" r="7.97"/><circle class="cls-6" cx="420.65" cy="244.14" r="7.97"/><circle class="cls-6" cx="403.89" cy="253.82" r="7.97"/><circle class="cls-6" cx="387.13" cy="263.5" r="7.97"/><circle class="cls-6" cx="370.36" cy="273.17" r="7.97"/><polyline class="cls-7" points="367.54 297.5 537.99 199.09 554.76 189.41 578.85 175.5"/><circle class="cls-8" cx="571.52" cy="179.73" r="7.97"/><circle class="cls-8" cx="554.76" cy="189.41" r="7.97"/><circle class="cls-8" cx="537.99" cy="199.09" r="7.97"/><circle class="cls-8" cx="521.23" cy="208.77" r="7.97"/><circle class="cls-8" cx="504.47" cy="218.44" r="7.97"/><circle class="cls-8" cx="487.7" cy="228.12" r="7.97"/><circle class="cls-8" cx="420.65" cy="266.84" r="7.97"/><circle class="cls-8" cx="403.89" cy="276.51" r="7.97"/><circle class="cls-8" cx="387.13" cy="286.19" r="7.97"/><circle class="cls-8" cx="370.36" cy="295.87" r="7.97"/><polyline class="cls-12" points="367.54 320.03 537.99 221.61 554.76 211.94 578.85 198.03"/><circle class="cls-9" cx="571.52" cy="202.26" r="7.97"/><circle class="cls-9" cx="554.76" cy="211.94" r="7.97"/><circle class="cls-9" cx="537.99" cy="221.61" r="7.97"/><circle class="cls-9" cx="521.23" cy="231.29" r="7.97"/><circle class="cls-9" cx="504.47" cy="240.97" r="7.97"/><circle class="cls-9" cx="487.7" cy="250.65" r="7.97"/><circle class="cls-9" cx="470.94" cy="260.33" r="7.97"/><circle class="cls-9" cx="403.89" cy="299.04" r="7.97"/><circle class="cls-9" cx="387.13" cy="308.72" r="7.97"/><circle class="cls-9" cx="370.36" cy="318.4" r="7.97"/><polyline class="cls-10" points="367.54 342.55 537.99 244.14 554.76 234.46 578.85 220.55"/><circle class="cls-1" cx="571.52" cy="224.78" r="7.97"/><circle class="cls-1" cx="554.76" cy="234.46" r="7.97"/><circle class="cls-1" cx="537.99" cy="244.14" r="7.97"/><circle class="cls-1" cx="521.23" cy="253.82" r="7.97"/><circle class="cls-1" cx="504.47" cy="263.5" r="7.97"/><circle class="cls-1" cx="487.7" cy="273.17" r="7.97"/><circle class="cls-1" cx="470.94" cy="282.85" r="7.97"/><circle class="cls-1" cx="454.18" cy="292.53" r="7.97"/><circle class="cls-1" cx="387.13" cy="331.24" r="7.97"/><circle class="cls-1" cx="370.36" cy="340.92" r="7.97"/><polygon class="cls-4" points="357.53 202.06 372.25 420.56 342.9 403.61 342.9 193.61 357.53 202.06"/><polygon class="cls-6" points="374.85 192.06 357.53 202.06 342.9 193.61 360.22 183.61 374.85 192.06"/><polygon class="cls-5" points="389.57 410.56 372.25 420.56 357.53 202.06 374.85 192.06 389.57 410.56"/><polygon class="cls-1" points="700.08 269.59 332.47 481.83 332.47 467.83 700.08 255.59 700.08 269.59"/><polygon class="cls-13" points="261.03 440.58 332.47 481.83 332.47 467.83 261.03 426.58 261.03 440.58"/><path class="cls-14" d="M728.09,561.65,648,515.4a4.48,4.48,0,0,1-2.47-3.21c0-.09,0-6.07,0-6.16-.07-1.68,1.13.41,3.54-1l78-45.05c4.27-2.47,10.75-2.74,14.45-.6l80.11,46.25c1.71,1,2.53-1.38,2.5,0v5.87c-.11,1.57-1.31,3.19-3.53,4.48l-78,45C738.27,563.52,731.8,563.79,728.09,561.65Z"/><path class="cls-8" d="M728.09,555.9,648,509.65a4.31,4.31,0,0,1-2.5-3.62c0-1.64,1.2-3.38,3.54-4.73l78-45.05c4.27-2.47,10.75-2.74,14.45-.6l80.11,46.25c1.74,1,2.56,2.35,2.5,3.75-.06,1.61-1.25,3.28-3.53,4.6l-78,45C738.27,557.77,731.8,558,728.09,555.9Z"/><path class="cls-14" d="M838.59,499.15,758.48,452.9a4.47,4.47,0,0,1-2.48-3.2c0-.1,0-6.08,0-6.17-.07-1.68,1.14.42,3.54-1l78-45.05c4.28-2.47,10.75-2.74,14.46-.6l80.11,46.25c1.71,1,2.53-1.38,2.5,0,0,0,0,5.81,0,5.86-.11,1.57-1.3,3.2-3.53,4.48l-78,45.05C848.77,501,842.29,501.29,838.59,499.15Z"/><path class="cls-8" d="M838.59,493.4l-80.11-46.25a4.31,4.31,0,0,1-2.51-3.62c0-1.64,1.2-3.37,3.54-4.73l78-45.05c4.28-2.47,10.75-2.74,14.46-.6l80.11,46.25c1.73,1,2.55,2.35,2.5,3.76-.06,1.6-1.26,3.27-3.54,4.59L853,492.8C848.77,495.27,842.29,495.54,838.59,493.4Z"/><path class="cls-14" d="M620.61,625.1,540.5,578.85a4.5,4.5,0,0,1-2.48-3.2c0-.1,0-6.08,0-6.17-.08-1.68,1.13.42,3.54-1l78-45c4.28-2.47,10.75-2.74,14.46-.6l80.11,46.25c1.71,1,2.53-1.38,2.5,0,0,0,0,5.81,0,5.86-.11,1.57-1.3,3.2-3.53,4.48l-78,45C630.79,627,624.32,627.24,620.61,625.1Z"/><path class="cls-8" d="M620.61,619.35,540.5,573.1a4.28,4.28,0,0,1-2.5-3.62c0-1.64,1.19-3.37,3.54-4.73l78-45c4.28-2.47,10.75-2.74,14.46-.6l80.11,46.25c1.73,1,2.55,2.35,2.5,3.76-.06,1.6-1.26,3.27-3.54,4.59l-78,45C630.79,621.22,624.32,621.49,620.61,619.35Z"/><path class="cls-15" d="M585.7,576.3c-7.73-4.47-8.22-11.11.16-15.95s20-4.6,27.7-.14,8.06,11-.41,15.9S593.34,580.71,585.7,576.3Zm20.47-11.82c-4.52-2.61-10.11-2.61-13.89-.43s-3.7,5.36.82,8c4.35,2.52,9.94,2.52,13.64.38S610.52,567,606.17,564.48Zm30,31.08-19.81-51.87,6.25-3.6L642.33,592Zm9-19.74c-7.73-4.46-8.3-11.15.08-16s20.06-4.56,27.78-.1,8,11.06-.41,15.9S652.85,580.23,645.21,575.82ZM665.67,564c-4.52-2.61-10.1-2.61-13.89-.42s-3.69,5.36.83,8a14,14,0,0,0,13.64.38C670,569.75,670.11,566.57,665.67,564Z"/><path class="cls-15" d="M189,111.24l-8.87-5.12,19.72-11.39,8.88,5.13Z"/><path class="cls-15" d="M94.25,165.38,110.93,175l-7.15,4.12-16.69-9.63L72.3,178.05l-6.49-3.75,14.79-8.54-16.11-9.3,7.15-4.13,16.11,9.3,14.72-8.49,6.49,3.75Z"/><path class="cls-15" d="M765,511.19l-22.44-2.52,4.28,13-11.59,6.68L729,508.44,696.38,505l11.67-6.74,20.39,2.28-4-11.72,11.67-6.74,6.08,18.79,34.52,3.61Z"/><polygon class="cls-16" points="828.17 455.5 819.51 450.5 864.73 424.39 873.39 429.39 828.17 455.5"/><ellipse class="cls-16" cx="826.36" cy="428.61" rx="8.98" ry="5.19"/><ellipse class="cls-16" cx="865.23" cy="450.94" rx="8.98" ry="5.19"/><path class="cls-8" d="M259.11,580.54c2.93-.14,6.18-.23,6.25,3.45.06,3-2.41,6.07-4.06,8.41a78,78,0,0,1-11.93,14c-4.36,3.83,2,10.17,6.36,6.36a76.05,76.05,0,0,0,10.86-12.36c3-4,6.23-8.12,7.34-13.08a13.58,13.58,0,0,0-2.23-11.42c-3.14-4-7.83-4.54-12.59-4.32-5.77.28-5.8,9.28,0,9Z"/><path class="cls-8" d="M281.87,574.39c-7.19,6.6-16.62,14.23-15.08,25.2,1.19,8.36,9.5,14.52,17.82,13.49,5.67-.7,5.74-9.71,0-9s-10.47-3.71-8.49-9.56c1.92-5.68,7.86-9.86,12.11-13.76s-2.1-10.28-6.36-6.37Z"/><path class="cls-8" d="M292.73,588.31v-4.88h27.54v4.88Zm0,11.61V595.1h27.54v4.82Z"/><path class="cls-8" d="M331,594.24c0-7.29,9.08-8.15,9.08-12.42,0-1.91-1.48-3.51-4.88-3.51a9.67,9.67,0,0,0-7.59,3.82l-5-5.62a17.48,17.48,0,0,1,13.53-6c8,0,12.84,4,12.84,9.76,0,9-10.31,9.7-10.31,14.88a3.55,3.55,0,0,0,1.17,2.6l-6.79,2A8,8,0,0,1,331,594.24ZM331,608a5,5,0,1,1,5,5A5.06,5.06,0,0,1,331,608Z"/><path class="cls-8" d="M655.28,48.48V43.6h27.54v4.88Zm0,11.61V55.28h27.54v4.81Z"/></svg>