<svg xmlns="http://www.w3.org/2000/svg" viewBox="0 0 415 415"><defs><style>.cls-1{fill:#1a0960;}.cls-2{fill:#471caf;}.cls-3{fill:#2b0e87;}.cls-4{fill:#741ce5;}.cls-5{fill:#6118d3;}.cls-10,.cls-12,.cls-13,.cls-19,.cls-21,.cls-22,.cls-25,.cls-6,.cls-7,.cls-9{fill:none;}.cls-6{stroke:#a0b3c1;stroke-dasharray:8;}.cls-10,.cls-12,.cls-13,.cls-20,.cls-21,.cls-22,.cls-25,.cls-6,.cls-7,.cls-9{stroke-miterlimit:10;}.cls-19,.cls-7{stroke:#000;}.cls-20,.cls-8{fill:#fff;}.cls-9{stroke:#741ce5;}.cls-10,.cls-12,.cls-13,.cls-25{stroke:#a02ff7;}.cls-11{fill:#55c9b3;}.cls-12{stroke-dasharray:3.98 3.98;}.cls-13{stroke-dasharray:3.98 3.98;}.cls-14{fill:#dd7c12;}.cls-15{fill:#f4d03e;}.cls-16{fill:#c6590e;}.cls-17{fill:#7a270e;}.cls-18{fill:#47212d;}.cls-19{stroke-linecap:round;stroke-linejoin:round;}.cls-20,.cls-21,.cls-22{stroke:#471caf;}.cls-22{fill-rule:evenodd;}.cls-23{fill:#dee4eb;}.cls-24{fill:#f1e9fe;}.cls-25{stroke-dasharray:4;}</style></defs><title>math-and-logic</title><g id="math_and_logic"><path class="cls-1" d="M269.17,283.54s4.75,122,30.16,107.64c9.06-14.74,21.65-31.06,34.83-46.65a7.36,7.36,0,1,1,9.61-11.14c27.51-31.29,54.44-57.11,54.44-57.11Z"/><path class="cls-1" d="M336.57,45,317.72,61.48l16.21,32.75,14.32,4.27s-7.13-8.4-7.64-29.23C340.19,52.26,336.57,45,336.57,45Z"/><path class="cls-1" d="M244.4,19.44,232.25,34.88C248.52,43.09,249,24,244.4,19.44Z"/><path class="cls-1" d="M26.08,80.48c2.14,27.14,11.28,44.06,8.55,45.8s4.71,6.19,9.66,0,3.47-17.59,3.47-30.22S37.07,80.69,26.08,80.48Z"/><path class="cls-1" d="M207.5,414c-67.6,0-94.9-42.64-94.9-42.64Z"/><path class="cls-2" d="M370,78.43a23.6,23.6,0,0,1-17.47,5.94c-.66-.05-1.3-.13-1.94-.23a8.52,8.52,0,0,1-8.16,6.07c-6.69,0-11.18-4.39-11.18-9.09a8.48,8.48,0,0,1,2.24-5.75c-3.12-3.7-4.44-7.8-4.8-12.87-.48-6.72,3.83-12.89,7.91-17.46-20.45-16.28-38.18-33-69.73-30.26a100.85,100.85,0,0,0-22.44,4.66A7.94,7.94,0,0,1,229.52,25c-10.87,4.42-20.52,8.54-30.88,8.54-34.69,0-56.32-30.39-97.86,8.95C77,65,44.91,49.89,27.29,77.2c-6.47,10,15,6.15,15,24a26,26,0,0,1-36.06,23.9C2.26,140.45,0,159,0,184.35c0,21.57,4,37.32,9.41,49.75a8.68,8.68,0,0,1,8.22,15.28c10.27,16.17,21.44,26.5,22.65,41.84,4.9,62.51,26,98.21,100,101.27,17.58.73,48.83,22.51,67.23,22.51a206.78,206.78,0,0,0,86.82-19,10.83,10.83,0,0,0,5.14-14.76,60.92,60.92,0,0,1-6.33-30.18c1.42-30,28-56.53,57.95-57.94,2.13-.1,4.25-.09,6.33,0,24.32,1.33,46.5-14.27,52.08-38A207.86,207.86,0,0,0,370,78.43Z"/><path class="cls-3" d="M114.83,319c-8.38-1.93-19.6-7-23.55-13.4-8.65-13.92-1.18-30.65,0-48,2.58-36.69,19.58-83.19,30-117.45a229.65,229.65,0,0,0,8.73-43.23c1.87-16.59,2.1-34.75,13.8-37.91,10.08-2.71,24,6.07,38.23,37.91,30.67,68.78,153.21,21.5,189.23,72.15,45.94,64.58-19.27,103.58-71.77,91.6-43.1-9.83-79.18,8-102.55,30.3C173.47,313.42,146.44,326.29,114.83,319Z"/><circle class="cls-1" cx="311.39" cy="311.39" r="12.64"/><path class="cls-4" d="M310,266.7c-56.63,32.69-148.43,32.69-205.06,0S48.34,181,105,148.3s148.43-32.69,205.06,0c28.31,16.35,42.47,37.78,42.47,59.2S338.34,250.35,310,266.7Z"/><circle class="cls-2" cx="96.22" cy="155.64" r="14.32"/><path class="cls-5" d="M316.37,262.79C340.45,247,352.5,227.26,352.5,207.5c0-21.42-14.16-42.85-42.47-59.2-4.27-2.46-8.76-4.72-13.4-6.81-32.52,0-79-10.59-89.63-17.7-29.77.06-60.48,5.78-85.66,16.36-14.11,49.66-22.71,70.32-30,117.45A124.46,124.46,0,0,0,105,266.7c25.64,14.8,58.5,22.88,92,24.27C248.5,234.87,299.54,261,316.37,262.79Z"/><path class="cls-6" d="M304.12,20.19c38.74-10.38,78.67-17.79,93.57-2.88C427.35,47,370,54.91,370,207.5a163.86,163.86,0,0,1-327.72,0c0-45.4,17.74-87.35,47.57-117,21.36-21.25,49.26-35.79,79.67-42.73a164.29,164.29,0,0,1,36.62-4.11"/><circle class="cls-3" cx="352.5" cy="207.5" r="9.68"/><ellipse class="cls-7" cx="246.91" cy="193.52" rx="4.9" ry="2.72" transform="translate(-65.01 226.97) rotate(-44.21)"/><polygon class="cls-8" points="188.12 236.43 187.22 227.73 180.6 227.73 184.66 235.9 188.12 236.43"/><polygon class="cls-8" points="263.34 155.31 259.99 151.63 264.16 146.57 263.34 155.31"/><line class="cls-9" x1="310.03" y1="104.97" x2="368.25" y2="46.75"/><line class="cls-10" x1="134.99" y1="280.01" x2="280.01" y2="134.99"/><line class="cls-9" x1="59.28" y1="355.72" x2="104.68" y2="310.32"/><path class="cls-8" d="M278.79,229.46l3.21-28.1a173.12,173.12,0,0,0-7.54-39.28l2.77-19.36-9.18-3-5.77,6.4,1.26,5.66-.2,3.49,5,8.47,2.22,33.36-1.38,16.93Z"/><polygon class="cls-11" points="276.23 247.18 284.28 214.65 265.93 212.37 261.12 238.46 276.23 247.18"/><circle class="cls-10" cx="207.5" cy="207.5" r="145" transform="translate(-85.95 207.5) rotate(-45)"/><path class="cls-10" d="M62.5,207.5c0-.67,0-1.33,0-2"/><path class="cls-12" d="M62.87,201.54c2.38-19.4,16.41-38.41,42.1-53.24,56.62-32.69,148.43-32.69,205.06,0,26.56,15.34,40.66,35.14,42.31,55.21"/><path class="cls-10" d="M352.46,205.5c0,.67,0,1.33,0,2"/><path class="cls-10" d="M207.5,62.5c.67,0,1.33,0,2,0"/><path class="cls-13" d="M213.46,62.86c19.39,2.39,38.41,16.42,53.24,42.11,32.69,56.62,32.69,148.43,0,205.06-15.34,26.55-35.14,40.66-55.21,42.31"/><path class="cls-10" d="M209.5,352.46c-.67,0-1.33,0-2,0"/><path class="cls-10" d="M62.5,207.5c0,21.43,14.16,42.85,42.47,59.2,56.63,32.69,148.43,32.69,205.06,0,28.31-16.35,42.47-37.78,42.47-59.2"/><path class="cls-10" d="M207.5,62.5c-21.43,0-42.85,14.16-59.2,42.47-32.69,56.63-32.69,148.43,0,205.06,16.35,28.31,37.78,42.47,59.2,42.47"/><path class="cls-14" d="M195,41.38c-5.72,12.59-8.3,24.77,9.34,23.24,1.84,1.31,1.32,4.15,1.68,6.48,2,1.54,7.65,1.59,8.82-.17-.83-3-4.33-3.22-4.33-3.22,4.18-7.24,3.37-17.84-8-21.59C197,44,195,41.38,195,41.38Z"/><path class="cls-14" d="M209,55.09a2.3,2.3,0,0,0,2.4-.54A6.85,6.85,0,0,0,213.49,49c-.56-6.44-9.6-13-10.62-13.68a2.3,2.3,0,0,0-2.65,3.76c3.21,2.26,8.41,7.06,8.69,10.32a2.24,2.24,0,0,1-.73,1.92,2.3,2.3,0,0,0,.85,3.79Z"/><path class="cls-15" d="M176,12c7.54-2.9,9.73.81,9.73-3.18s-5.58-2.24-5.58-2.24S175,8,176,12Z"/><path class="cls-16" d="M201.08,68S187,72.63,177,62.22c-6.24-6.51-9.29-22.11.76-32.69C194.5,11.88,174.22,3.63,176,12,173.91,3.75,189.71-1.43,196.09.65s13.08,9.41,3.35,25.68S194.38,67.24,201.08,68Z"/><path class="cls-14" d="M193.8,66.38c7.56.1,12.66-3,11.49-8.24-3-13.44.59-21.65.8-28.35.21-5.64-10.53-5.32-10.53-1.38s-11.49,15.35-11.49,29.8C184.07,66,193.8,66.38,193.8,66.38Z"/><path class="cls-15" d="M196.2,56.7c-.16-11.17,1-19.23,4.62-19.87,2.36-.41,3.52,7.38,3.28,10.83a47.29,47.29,0,0,0,1,9.13c1.79,10.17-3.71,10.95-11.27,10.85C195.08,66.36,196.36,67.87,196.2,56.7Z"/><path class="cls-14" d="M197.91,17.1h5.82a5.46,5.46,0,0,1,5.46,5.46V33.84a0,0,0,0,1,0,0H192.46a0,0,0,0,1,0,0V22.56A5.46,5.46,0,0,1,197.91,17.1Z" transform="matrix(-0.96, -0.28, 0.28, -0.96, 386.56, 105.97)"/><path class="cls-14" d="M210,24l2.4-8.28c-4-1.16-5.42,2.78-5.42,2.78S205.94,22.86,210,24Z"/><path class="cls-14" d="M193.89,19.36l2.4-8.28c4,1.17,3.09,5.26,3.09,5.26S197.9,20.52,193.89,19.36Z"/><path class="cls-17" d="M199.05,26.86a1.29,1.29,0,0,1,1.47-.34,1.33,1.33,0,0,1,1.06,1.07c-.21.7-.88,1.8-1.82,1.52S198.85,27.56,199.05,26.86Z"/><path class="cls-17" d="M205.2,26.64a.64.64,0,0,0,1.23.35c.1-.33,0-1-.35-1.1S205.3,26.3,205.2,26.64Z"/><path class="cls-17" d="M195.72,23.9a.64.64,0,0,0,1.23.36c.1-.34,0-1-.34-1.1S195.82,23.56,195.72,23.9Z"/><path class="cls-18" d="M191.86,18.91l-.8,2.75a2.6,2.6,0,0,0,1.77,3.22l4.09,1.19a2.6,2.6,0,0,0,3.22-1.77l.29-1,2.06.6-.28,1A2.6,2.6,0,0,0,204,28.12l4.08,1.19a2.61,2.61,0,0,0,3.23-1.77l.8-2.76L203,22.15l-.28,1-2.07-.6.28-1Zm11.72,4.28L211,25.36l-.57,1.94a1.75,1.75,0,0,1-2.17,1.2l-4.09-1.19A1.75,1.75,0,0,1,203,25.14ZM192.44,20l7.45,2.17-.56,1.94a1.76,1.76,0,0,1-2.18,1.2l-4.08-1.19a1.76,1.76,0,0,1-1.2-2.17Z"/><path class="cls-14" d="M186.32,46.75c-5.73,12.58-7.71,24.13,9.93,22.6.39,2.62.15,6.3.65,7.67,2.22,1.27,7.59,1.11,9.19-.49a5.48,5.48,0,0,0-4.4-3.16c3.72-4.63,3.5-18.13-7.89-21.88C188.33,49.33,186.32,46.75,186.32,46.75Z"/><path class="cls-8" d="M252.77,228.58l6.33-7.24-3.23-2.15a26.7,26.7,0,0,0,10.79-16.12c2.15-10.67-14.08-22.61-26.06-7.29a27.39,27.39,0,0,1-4.67,1.47l1,2.71-3.08,9.62,6,11.54,3.26,9.18S249.67,230.72,252.77,228.58Z"/><ellipse class="cls-7" cx="239.32" cy="194.33" rx="4.9" ry="2.72" transform="translate(-67.73 221.91) rotate(-44.21)"/><path class="cls-8" d="M244.25,192a27,27,0,0,0-7.34,7.94s10.14-5.89,10-6.36S244.25,192,244.25,192Z"/><path class="cls-19" d="M238.4,191.56s10.88,11.92,12.28,13.4,0,4,0,4"/><path d="M225,311.86l1,67.47,4.64,34.27,14.25-2a110.18,110.18,0,0,0,1.53-38.4c.52-17.7,14.73-68.94,14.73-68.94Z"/><path d="M268.81,284.3s5.12,19.4,5.12,28.48c0,14.64-7.07,41-7.07,51.14,5.37,12.1,5.28,40.81,5.28,40.81l-13.87,4-7.93-34.29-11-60.53Z"/><path class="cls-11" d="M272.06,218.93c13.19,20.94-5.2,69.74,6.75,95.37,0,0-40.94,19.16-64.84,7.56,0,0,2.86-50.8,15.22-80C234.91,232.9,259.61,216.89,272.06,218.93Z"/><path class="cls-8" d="M217.28,256.65l-7.77,10.62c-5.45-7.88-17.81-18.71-21.39-30.84C182,232.08,184.2,230,184.2,230l-3.6-2.31-7.13,7.45v6.35a31.84,31.84,0,0,0,9.08,3.22c10.63,15.77,12.88,30.58,27.14,35.26,12.2-3.54,22.4-18.55,22.4-18.55Z"/><path class="cls-11" d="M229.19,241.89l-11.91,14.76c1.5,12.2,14.38,14.75,14.38,14.75l15.25-22Z"/><line class="cls-9" x1="207.5" x2="207.5" y2="207.5"/><line class="cls-9" x1="310.32" y1="310.32" x2="354.03" y2="354.03"/><circle class="cls-20" cx="55.13" cy="349.54" r="36.15"/><rect class="cls-21" x="40.28" y="334.86" width="12.58" height="12.58" rx="3.06"/><rect class="cls-21" x="57.05" y="334.86" width="12.58" height="12.58" rx="3.06"/><rect class="cls-21" x="57.4" y="351.64" width="12.58" height="12.58" rx="3.06"/><path class="cls-22" d="M49.8,364.21H43.34a3.06,3.06,0,0,1-3.06-3.06V354.7a3.05,3.05,0,0,1,3.06-3.06H49.8a3.06,3.06,0,0,1,3.06,3.06v6.45a3.07,3.07,0,0,1-3.06,3.06"/><circle class="cls-23" cx="383.51" cy="313.39" r="2.64"/><circle class="cls-24" cx="345.61" cy="54.91" r="2.64"/><line class="cls-25" x1="207.5" y1="207.5" x2="0.71" y2="0.71"/><path class="cls-14" d="M207.06,55.67a2.29,2.29,0,0,0,2.65-1.79c.12-.57.47-2.34.47-2.34s-1.57-.24-2.24-.38c-4.45-.94-8.32-2.71-9.94-5.38a8.93,8.93,0,0,1-1.27-6.63,2.29,2.29,0,1,0-4.42-1.23,13.43,13.43,0,0,0,1.76,10.24c2.31,3.81,6.39,6.35,12.14,7.56Z"/><path class="cls-4" d="M239.67,120.25c-7.72,0-7.74,12,0,12S247.4,120.25,239.67,120.25Z"/><path class="cls-4" d="M234.9,105a1.5,1.5,0,0,0,0,3A1.5,1.5,0,0,0,234.9,105Z"/><path class="cls-4" d="M271.69,91.23c-3.86,0-3.86,6,0,6S275.56,91.23,271.69,91.23Z"/><path class="cls-4" d="M269,57.48c-2.58,0-2.58,4,0,4S271.55,57.48,269,57.48Z"/><path class="cls-4" d="M327.56,24.09c-2.57,0-2.57,4,0,4S330.14,24.09,327.56,24.09Z"/><path class="cls-4" d="M326.88,8.56a.5.5,0,0,0,0,1A.5.5,0,0,0,326.88,8.56Z"/><path class="cls-24" d="M351.41,36.17a1.5,1.5,0,0,0,0,3A1.5,1.5,0,0,0,351.41,36.17Z"/><path class="cls-24" d="M93.85,395.94a1.5,1.5,0,0,0,0,3A1.5,1.5,0,0,0,93.85,395.94Z"/><path class="cls-24" d="M80.91,398.66a1.5,1.5,0,0,0,0,3A1.5,1.5,0,0,0,80.91,398.66Z"/><path class="cls-24" d="M90.45,410.25a1.5,1.5,0,0,0,0,3A1.5,1.5,0,0,0,90.45,410.25Z"/><path class="cls-24" d="M314.62,346.2a1.5,1.5,0,0,0,0,3A1.5,1.5,0,0,0,314.62,346.2Z"/><path class="cls-24" d="M376.62,348.15c-6.43,0-6.44,10,0,10S383.07,348.15,376.62,348.15Z"/><path class="cls-2" d="M359.54,150.94c-7.08,0-7.09,11,0,11S366.63,150.94,359.54,150.94Z"/><path class="cls-2" d="M375.26,184.71a1.5,1.5,0,0,0,0,3A1.5,1.5,0,0,0,375.26,184.71Z"/><path class="cls-2" d="M140.87,83.87a1.5,1.5,0,0,0,0,3A1.5,1.5,0,0,0,140.87,83.87Z"/><path class="cls-2" d="M165.4,98.86a1.5,1.5,0,0,0,0,3A1.5,1.5,0,0,0,165.4,98.86Z"/><path class="cls-2" d="M165.4,118.62a1.5,1.5,0,0,0,0,3A1.5,1.5,0,0,0,165.4,118.62Z"/><path class="cls-3" d="M172.21,321.67a1.5,1.5,0,0,0,0,3A1.5,1.5,0,0,0,172.21,321.67Z"/><path class="cls-3" d="M145.64,325.8c-4.51,0-4.51,7,0,7S150.15,325.8,145.64,325.8Z"/><path class="cls-3" d="M136.78,347.56a1.5,1.5,0,0,0,0,3A1.5,1.5,0,0,0,136.78,347.56Z"/><path class="cls-3" d="M110.21,366a1.5,1.5,0,0,0,0,3A1.5,1.5,0,0,0,110.21,366Z"/><path class="cls-15" d="M75.22,30.11c-10.65,0-10.67,16,0,16S85.9,30.11,75.22,30.11Z"/><path class="cls-15" d="M302.35,406.2c-4.5,0-4.51,7,0,7S306.87,406.2,302.35,406.2Z"/><path class="cls-2" d="M307.06,231.75c-5.15,0-5.15,4.06,0,4.06S312.22,231.75,307.06,231.75Z"/><path class="cls-2" d="M313.36,231.23c-1.28,0-1.29,1,0,1S314.65,231.23,313.36,231.23Z"/><path class="cls-2" d="M330.55,225.59c-4.5,0-4.51,3.56,0,3.56S335.06,225.59,330.55,225.59Z"/><path class="cls-2" d="M110.54,234.33c-4.5,0-4.51,3.56,0,3.56S115.05,234.33,110.54,234.33Z"/><path class="cls-2" d="M144.34,225.11c-1.28,0-1.28,1,0,1S145.63,225.11,144.34,225.11Z"/><path class="cls-2" d="M76.16,210c-1.28,0-1.29,1,0,1S77.45,210,76.16,210Z"/><path class="cls-2" d="M218.83,185.49c-1.29,0-1.29,1,0,1S220.12,185.49,218.83,185.49Z"/><path class="cls-2" d="M247.47,182.57c-1.28,0-1.28,1,0,1S248.76,182.57,247.47,182.57Z"/><path class="cls-2" d="M257.79,178.49c-1.29,0-1.29,1,0,1S259.08,178.49,257.79,178.49Z"/><path class="cls-2" d="M93.35,186.21a.5.5,0,0,0,0,1A.5.5,0,0,0,93.35,186.21Z"/><path class="cls-8" d="M96.22,224.06c-3.22,0-3.23,2.54,0,2.54S99.44,224.06,96.22,224.06Z"/><path class="cls-8" d="M145.49,217.21c-.64,0-.64.51,0,.51S146.13,217.21,145.49,217.21Z"/><path class="cls-8" d="M298.47,243.14c-.65,0-.65.51,0,.51S299.11,243.14,298.47,243.14Z"/><path class="cls-8" d="M370.09,257.83a.5.5,0,0,0,0,1A.5.5,0,0,0,370.09,257.83Z"/><circle class="cls-1" cx="45.11" cy="101.67" r="9.05"/></g></svg>