<svg id="ilustra" xmlns="http://www.w3.org/2000/svg" xmlns:xlink="http://www.w3.org/1999/xlink" viewBox="0 0 889.67 693.95"><defs><style>.cls-1{fill:none;}.cls-2{fill:#4b84b5;}.cls-3{fill:#67bcda;}.cls-4{fill:#248e7e;}.cls-5{fill:#50baa6;}.cls-6{fill:#f2f2f2;}.cls-7{fill:#55c9b3;}.cls-8{fill:#edaf00;}.cls-9{fill:#c98200;}.cls-10{fill:#467ca5;}.cls-11{fill:#3d5b72;}.cls-12{fill:#f0cca7;}.cls-13{fill:#417399;}.cls-14{fill:#fff;}.cls-15{fill:#ca4d5d;}.cls-16{fill:#e6e6e6;}.cls-17{clip-path:url(#clip-path);}.cls-18{fill:#417696;}.cls-19{fill:#e5bd9a;}.cls-20{fill:#f4d03e;}</style><clipPath id="clip-path"><polygon class="cls-1" points="475.05 391.88 348.92 464.7 301.92 105.39 429.05 32.57 475.05 391.88"/></clipPath></defs><title>personal-development_art</title><path class="cls-2" d="M133.08,440.92,79.67,410.08A3,3,0,0,1,78,407.94c0-.06,0-2.71,0-2.77,0-1.12.76.27,2.36-.65l52-30c2.85-1.65,7.16-1.83,9.63-.4l53.41,30.84c1.14.65,1.69-.93,1.67,0,0,0,0,2.54,0,2.57a4.09,4.09,0,0,1-2.35,3l-52,30C139.86,442.16,135.55,442.34,133.08,440.92Z"/><path class="cls-3" d="M133.08,438.42,79.67,407.58A2.87,2.87,0,0,1,78,405.17c0-1.1.8-2.25,2.36-3.15l52-30c2.85-1.65,7.16-1.83,9.63-.4l53.41,30.84a2.82,2.82,0,0,1,1.67,2.5c0,1.06-.84,2.18-2.36,3.06l-52,30C139.86,439.66,135.55,439.84,133.08,438.42Z"/><path class="cls-2" d="M55.08,396.17,1.67,365.34A3,3,0,0,1,0,363.2c0-.06,0-2.71,0-2.78,0-1.12.76.28,2.36-.65l52-30c2.85-1.65,7.16-1.83,9.63-.4l53.41,30.83c1.14.66,1.69-.92,1.67,0,0,0,0,2.54,0,2.58a4.09,4.09,0,0,1-2.35,3l-52,30C61.86,397.42,57.55,397.6,55.08,396.17Z"/><path class="cls-3" d="M55.08,393.67,1.67,362.84A2.87,2.87,0,0,1,0,360.42c0-1.09.8-2.25,2.36-3.15l52-30c2.85-1.65,7.16-1.83,9.63-.4l53.41,30.83a2.84,2.84,0,0,1,1.67,2.5c0,1.07-.84,2.19-2.36,3.07l-52,30C61.86,394.92,57.55,395.1,55.08,393.67Z"/><path class="cls-4" d="M793.63,585l-80.11-46.25a4.48,4.48,0,0,1-2.47-3.21c0-.09,0-5.07,0-5.16-.07-1.68,1.13.41,3.54-1l78-45.05c4.27-2.47,10.75-2.74,14.45-.6L887.16,530c1.71,1,2.53-1.38,2.5,0v4.87c-.12,1.57-1.31,3.19-3.53,4.48l-78,45.05C803.81,586.91,797.34,587.18,793.63,585Z"/><path class="cls-5" d="M793.63,580.29,713.52,534a4.28,4.28,0,0,1-2.5-3.62c0-1.64,1.2-3.38,3.54-4.73l78-45.05c4.27-2.47,10.75-2.74,14.45-.6l80.11,46.25c1.74,1,2.56,2.35,2.5,3.75-.06,1.61-1.25,3.28-3.53,4.6l-78,45.05C803.81,582.16,797.34,582.43,793.63,580.29Z"/><circle class="cls-6" cx="491.55" cy="369.95" r="324"/><path class="cls-4" d="M793.63,533.47l-80.11-46.25A4.52,4.52,0,0,1,711,484c0-.09,0-5.07,0-5.16-.07-1.68,1.13.41,3.54-1l78-45.05c4.28-2.47,10.75-2.74,14.46-.6l80.11,46.25c1.71,1,2.53-1.38,2.5,0v4.87c-.12,1.57-1.31,3.19-3.54,4.48l-78,45.05C803.81,535.34,797.34,535.61,793.63,533.47Z"/><path class="cls-7" d="M793.63,528.72l-80.11-46.25a4.29,4.29,0,0,1-2.5-3.62c0-1.64,1.19-3.38,3.54-4.73l78-45.05c4.28-2.47,10.75-2.74,14.46-.6l80.11,46.25c1.73,1,2.55,2.35,2.5,3.75-.06,1.61-1.26,3.28-3.54,4.6l-78,45.05C803.81,530.59,797.34,530.86,793.63,528.72Z"/><polygon class="cls-8" points="263.69 482.69 242.91 494.69 313.81 383.85 334.6 371.85 263.69 482.69"/><polygon class="cls-9" points="313.81 383.85 308.82 353.31 225 484.35 242.91 494.69 313.81 383.85"/><path class="cls-10" d="M634.09,279.84c15-3.68,72.89,42.93,47.76,75.09-10.08,12.88-64-13.42-64-13.42l10-16.5s33.54,22,38.06,10.8c5.66-14-28-32.3-28-32.3S619.12,283.51,634.09,279.84Z"/><polygon class="cls-11" points="509.9 307.39 507.55 331.13 517.55 340.15 522.49 311.06 509.9 307.39"/><path class="cls-11" d="M530.22,304.9s1.95.05,5.24,0c8.64-.26,26.51-1.54,42.85-7.45,22.57-8.17,18.74-1.5,18.74-1.5l-10.5,7.67s-43.33,12.95-60.83,9.81C523.22,307.4,530.22,304.9,530.22,304.9Z"/><path class="cls-12" d="M514.55,328.07s-5.5-21.5-5-24.5,4.17-4.29,11.83-4.82,14.08,1.77,14.08,6.1a41.88,41.88,0,0,1-5.24,0c1.33,6-5.17,22.49-5.17,22.49Z"/><path class="cls-12" d="M527.5,311.65s7.8-5.13,9.93-4.13-2.42,4.41-6,8.13-4.38,6.5-4.38,6.5Z"/><path class="cls-8" d="M588.18,640.12l-33.82-19.53c-4.85-2.79-5.16-10.46.44-13.69l.93,2.73c5.59-3.23,14.14-3.58,19-.79l32.82,18.53c4.85,2.8,5.23,8.73-.36,12h0C601.57,642.56,593,642.92,588.18,640.12Z"/><path class="cls-9" d="M555.73,605.55h0c-5.6,3.23-6.22,8.16-1.37,11L588.18,636c4.85,2.79,13.39,2.44,19-.79h0c4.61-2.42,3.94-4.51,3.94-4.51s1.79-13-.72-19.34-20.84-5.85-20.84-5.85-8.67,3-16.33,1.41S562.4,602.2,555.73,605.55Z"/><path class="cls-8" d="M622.18,621.15l-33.82-19.52c-4.85-2.8-5.16-10.47.44-13.7l.93,2.74c5.59-3.24,14.14-3.59,19-.79l32.82,18.52c4.85,2.8,5.23,8.74-.36,12h0C635.57,623.6,627,624,622.18,621.15Z"/><path class="cls-9" d="M589.73,586.58h0c-5.6,3.23-6.22,8.17-1.37,11l33.82,19.52c4.85,2.8,13.39,2.44,19-.79h0c4.61-2.42,3.94-4.5,3.94-4.5s1.79-13-.72-19.35-20.84-5.85-20.84-5.85-8.67,3-16.33,1.41S596.4,583.23,589.73,586.58Z"/><path class="cls-13" d="M574.55,427.9l11,184.5s2,8,12.26,8c13.91,0,12.58-9,12.58-9s-1.34-129,5.16-132.5,7.5,106,7.5,111.5,4.88,10,13.5,8.5,8.5-8,8.5-13,4-105,4-117.5V411.9C649.05,392.9,574.55,427.9,574.55,427.9Z"/><path class="cls-12" d="M569.05,225.9V272c0,6.44,8.5,13.94,17,13.94s11.69,11.5,15.85,11.5,14.65-3.5,16.65-7.5,6.5-40.5,6.5-40.5Z"/><path class="cls-14" d="M591.8,297.4l1.89-7.87s13.11-10.69,27.17-10.29-1.06,77.41-1.06,77.41Z"/><path class="cls-15" d="M602.55,278.4c-11.5,1.92-19-12.29-19-17.5,8.5-4,7-21.5,0-21.5s-8,8-8,8c-19.5-11.5-14.5-32-8.5-35.5-1.5-13.5,19.5-27.5,33.5-27.5,7.5,7.5,31,11.5,36,26.5,2.77,8.3,2.46,46.13-14.18,58.84A45.48,45.48,0,0,1,602.55,278.4Z"/><path class="cls-2" d="M606.88,289.4c26.43-8.88,24-12,35.34-7s12.33,26.33,10.66,53.33,0,96,0,96-1,9.67-25,17c-19.59,6-55-.33-57.66-14,2-36.33-4-68-4.34-94S566.22,303.07,606.88,289.4Z"/><path class="cls-10" d="M590.22,333.07,566,343.65c.7,25.44,6.18,56.09,4.26,91.08,1.24,6.39,9.65,11.17,20.25,13.85C591,417.4,590.22,333.07,590.22,333.07Z"/><path class="cls-14" d="M514.3,333.07l-2-8.92s7-4.25,14.75-2c1,2,0,18,0,18Z"/><path class="cls-2" d="M584.14,299.48c20.6-6.91,17.64,37.58-4.09,56.2s-34.58,41.38-50.3,41.12c-9-.15-15.45-14.65-15.7-34.9s-1.75-31.25-1.75-31.25,11.25-5.75,18-2c0,14,5.5,36.47,5.5,36.47s13.5-18,20.75-33.22S572,303.55,584.14,299.48Z"/><polygon class="cls-8" points="497.79 466.79 485.05 474.14 478.05 421.31 353.92 494.12 358.92 546.96 346.18 554.32 286.18 96.03 437.79 8.5 497.79 466.79"/><polygon class="cls-16" points="475.05 391.88 348.92 464.7 301.92 105.39 429.05 32.57 475.05 391.88"/><g class="cls-17"><path class="cls-8" d="M404.51,524.73,370.69,505.2c-4.85-2.8-3.9-10.41,1.7-13.64l-.34,2.68c5.6-3.23,14.15-3.59,19-.79L423.86,508c4.85,2.79,5.23,12.73-.36,16h0C417.9,527.17,409.36,527.52,404.51,524.73Z"/><path class="cls-9" d="M368.83,468.6s-4.59,27.19.25,30l35.43,22.14c4.85,2.79,13.39,2.44,19-.79h0c5.59-3.23,5.1-9,.36-12-6.53-4.11-17.6-14.36-22.44-19.11s-13.84-16.27-13.84-16.27S378.83,462.32,368.83,468.6Z"/><path class="cls-8" d="M367.23,543.25l-33.82-19.52c-4.85-2.8-3.9-10.41,1.7-13.64l-.34,2.67c5.6-3.23,14.15-3.58,19-.78l32.82,14.52c4.85,2.8,5.23,12.73-.36,16h0C380.62,545.7,372.08,546.05,367.23,543.25Z"/><path class="cls-9" d="M331.55,487.12s-4.59,27.2.26,30l35.42,22.13c4.85,2.8,13.39,2.45,19-.79h0c5.59-3.23,5.1-9,.36-12-6.53-4.1-17.6-14.35-22.44-19.1s-13.84-16.28-13.84-16.28S341.55,480.85,331.55,487.12Z"/><path class="cls-13" d="M318.93,308l11,184.5s2,8,12.26,8c13.92,0,12.59-9,12.59-9s-1.35-129,5.15-132.5,7.5,106,7.5,111.5,4.88,10,13.5,8.5,8.5-8,8.5-13,4-105,4-117.5V292C393.43,273,318.93,308,318.93,308Z"/><path class="cls-10" d="M393.27,161.53s70.28,26.87,69.28,63.37-70.64,0-70.64,0l12-13.5s31.17,11.15,32.92,5.33-44.89-29.83-44.89-29.83Z"/><path class="cls-10" d="M352.93,169.53c26.43-8.88,29-13,40.34-8s7.33,27.33,5.66,54.33,0,96,0,96-1,9.67-25,17c-19.59,6-55-.33-57.66-14,2-36.33-4.38-82.46-4.38-108.46C311.89,190.07,312.27,183.2,352.93,169.53Z"/><path class="cls-18" d="M334.44,176.11,323.55,195l16.33,9.31-8.16,18.77s45.16,50.65,45.83,68.65,0,36.34,0,36.34,1.67-39.34,2.17-44.34,11.16-68.49,11.16-68.49l-13.33-19.59,8.75-19.54-8.75-8.89Z"/><path class="cls-6" d="M334.44,176.11s-4.31,4.54,10.11,25.62c13,19,29.54,54.34,29.54,54.34s3.46-37.33,3.46-60.42c0-8.58-2-21.23-2-21.23Z"/><path class="cls-11" d="M368.19,191l-1.1-5.5h-5.5l-5.9,5.5s1.18,1.87,5.9,3.62S368.19,191,368.19,191Z"/><path class="cls-14" d="M361.59,185.53l11,9.12s.5-23.75-2-26.25S361.59,185.53,361.59,185.53Z"/><path class="cls-14" d="M361.59,185.53l-5.29,14.12s-20.5-8.5-21.75-18.75,8.05-13.68,8.05-13.68Z"/><path class="cls-12" d="M327.28,127.12s13.26,26.76,14.9,37.46c1,6.7,2.09,12.59,2.8,14,1.85,3.7,11.57,6.94,15.41,6.94s6.8-10.64,14.66-10.64S390.78,168,390.78,162V119.38l.11-8.61s-42.63,14.19-43.37,14.5S327.28,127.12,327.28,127.12Z"/><path class="cls-15" d="M341.7,161.33c-20.24,0-31.31-62-7.1-65,2.62-10,18.35-18.29,34.39-14.28s25,22.4,29.91,22.61c-8,17.67-18.76,14-29,14.68-12.34.8-20.2,8.66-20.2,13.75v5.09h-5.56s1.85-9.71-5.55-9.25S341.7,161.33,341.7,161.33Z"/><polygon class="cls-19" points="390.22 206.9 379.72 212.4 376.22 205.06 388.55 199.65 390.22 206.9"/><path class="cls-11" d="M397.22,232.73s-27.38-40.91-31-41.7-4.9-.3-4.6,3.62,29.13,44.58,29.13,44.58l8.61,6,1,20.48,6.72,7.34s4-12.34,4-14.34-3.71-20.79-3.71-20.79Z"/><path class="cls-12" d="M382.89,239.94s6.16-15,11.77-15,12.5,2,14.86,4,2,8.16,0,9.79-2.18-.73-2.18-.73a22.55,22.55,0,0,1-18.84,10.87C375.46,249,382.89,239.94,382.89,239.94Z"/><path class="cls-14" d="M370.22,242.4l11-4.33s8,5.66,8,12c-1.67,1.33-11.67,6.66-11.67,6.66Z"/><path class="cls-14" d="M390.88,215.24l-1.66,3.16,5.33,4.5s2.89,1.17,6.45-2.5,2.88-9,2.88-9L399.63,206l-5.91,2.71Z"/><path class="cls-2" d="M319.63,183.44c-9.94,7-18.08,21.14-23.08,48.05s-13.33,60.6,29.33,47.09,58-22.51,58-22.51c0-12.34-11.29-16.67-11.29-16.67-23.71,6.33-46.37,15-51.71,14.67s4.77-22.28,9.67-41.34S326.8,178.38,319.63,183.44Z"/><path class="cls-12" d="M395.08,199.21c-1.69-3.31-10.44-7.52-17.05-7.31s-10.84,3.75-10.84,7.4,4.66,11.36,8.28,11.79,7.46-4.69,7.46-4.69,3.95,11.83,11.62,10.17S396.78,202.53,395.08,199.21Z"/></g><polygon class="cls-9" points="346.18 554.32 331.46 545.82 271.46 87.53 286.18 96.03 346.18 554.32"/><polygon class="cls-20" points="437.79 8.5 423.07 0 271.46 87.53 286.18 96.03 437.79 8.5"/></svg>