<svg xmlns="http://www.w3.org/2000/svg" viewBox="0 0 415 415"><defs><style>.cls-1{fill:#2b0e87;}.cls-2{fill:#471caf;}.cls-3{fill:#f4d03e;}.cls-4{fill:#5d3acc;}.cls-5{fill:#7844bd;}.cls-6{fill:#934fae;}.cls-7{fill:#ad599f;}.cls-8{fill:#c86490;}.cls-9{fill:#d66989;}.cls-10{fill:#e36d81;}.cls-11,.cls-17{fill:none;}.cls-11{stroke:#a0b3c1;stroke-dasharray:8;}.cls-11,.cls-12,.cls-17{stroke-miterlimit:10;}.cls-12,.cls-19{fill:#fff;}.cls-12,.cls-17{stroke:#471caf;}.cls-13{fill:#dd7c12;}.cls-14{fill:#c6590e;}.cls-15{fill:#7a270e;}.cls-16{fill:#47212d;}.cls-17{stroke-width:2px;}.cls-18{fill:#55c9b3;}.cls-20{fill:#643dc8;}</style></defs><title>personal-development</title><g id="personal_development"><polygon class="cls-1" points="199.63 5.98 199.63 45.91 226.94 54.38 234.09 36.3 199.63 5.98"/><path class="cls-1" d="M325.21,42.92c-.46,38.81-14.23,84.68,19.65,98.16,16.3,6.49-70.91-10-70.91-10l8.54-76.74Z"/><path class="cls-1" d="M72.56,108.74l84,107.09L28.72,284.61s-16-34.54-12.41-97c3.51-2.09,14.41-5,19.58-5,0-47.19-7.92-70.35-7.92-85.79Z"/><path class="cls-2" d="M156.55,33.24C268.65,70.37,173.16,0,207.5,0A206.57,206.57,0,0,1,318.68,32.27,14.08,14.08,0,0,1,323,51.83a52.71,52.71,0,0,0,74.44,72.07,208.13,208.13,0,0,1,7.71,146.89,15.07,15.07,0,0,0-8.92-.46,15.32,15.32,0,0,0-2.55,28.84c-4.17,8.45-35.75,23-48.83,23.81,4.83,5.77,12.2,9,24.6,14.21,17.88,12.35,1.13,44.33-22.35,40.35-30.95-5.26-24.4,9.38-65.73,23.91-22.95,8.75-26.81-7.53-52.83-7.53-27.1,0-39.78-17.82-63.51-27.27-13.22-5.26-46.32,3.86-59.23,9.4a22.77,22.77,0,0,1-23.29-2.91C44,343.37,14.44,299,4.26,249.53a70.11,70.11,0,0,0,8.49.54,67.79,67.79,0,0,0,67.79-67.78c0-28.76-13.53-51.59-38-63.32-12.58-6-16.4-19.45-13.84-27.62,3.42-10.95,12.79-19.85,47.34-8.7C115.76,95.46,77.69,59.3,156.55,33.24Z"/><circle class="cls-3" cx="19.31" cy="295.51" r="9.41"/><circle class="cls-3" cx="368.08" cy="181.83" r="5.73"/><path class="cls-4" d="M134.39,163.1c-27.92,16.59-43.8,36.61-43.8,70.07a77.35,77.35,0,0,0,77.35,77.35c12.06,0,25.22-2.89,32.91-6.72L275.06,261l-107.44-117Z"/><polygon class="cls-5" points="134.39 163.1 234.09 105.54 211.93 92.75 112.24 150.31 134.39 163.1"/><polygon class="cls-4" points="90.08 86.36 189.78 28.8 145.47 3.22 45.78 60.77 90.08 86.36"/><polygon class="cls-6" points="156.55 201.47 256.24 143.91 234.09 131.12 134.39 188.68 156.55 201.47"/><polygon class="cls-7" points="178.7 239.84 278.39 182.29 256.24 169.5 156.55 227.05 178.7 239.84"/><polygon class="cls-8" points="200.85 278.22 300.55 220.66 278.39 207.87 178.7 265.43 200.85 278.22"/><polygon class="cls-9" points="223.01 316.59 322.7 259.03 300.55 246.24 200.85 303.8 223.01 316.59"/><polygon class="cls-10" points="245.16 354.96 344.86 297.4 322.7 284.61 223.01 342.17 245.16 354.96"/><path class="cls-11" d="M151,202.17c-45.93,16.58-79.9,37.4-98.35,81.62-24.22,58.07,19,134.79,99.9,124.9,24.62-3,31.69-22.18,31.69-22.18"/><path class="cls-11" d="M289.67,13.89s30.06-10.67,55.19,7.49c45.65,33,37.55,107.65-88.62,148.12"/><polygon class="cls-2" points="90.08 111.94 90.08 86.36 189.78 28.8 189.78 54.38 90.08 111.94"/><polygon class="cls-2" points="112.24 150.31 112.24 124.73 211.93 67.17 211.93 92.75 112.24 150.31"/><polygon class="cls-4" points="134.39 188.68 134.39 163.1 234.09 105.54 234.09 131.12 134.39 188.68"/><polygon class="cls-4" points="156.55 227.05 156.55 201.47 256.24 143.91 256.24 169.5 156.55 227.05"/><polygon class="cls-4" points="178.7 265.43 178.7 239.84 278.39 182.29 278.39 207.87 178.7 265.43"/><polygon class="cls-4" points="200.85 303.8 200.85 278.22 300.55 220.66 300.55 246.24 200.85 303.8"/><polyline class="cls-2" points="223.01 342.17 223.01 316.59 322.7 259.03 322.7 284.61"/><circle class="cls-12" cx="55.13" cy="349.54" r="36.15"/><path class="cls-13" d="M84.85,40.23A2,2,0,0,1,83,38.94c-1.78-4.68-1.69-8.48.25-11.29,2.92-4.22,8.86-4.28,9.15-4.28h0a2,2,0,0,1,0,4c-.09,0-4.17.07-5.88,2.57-1.14,1.66-1.07,4.21.21,7.58a2,2,0,0,1-1.16,2.58A1.94,1.94,0,0,1,84.85,40.23Z"/><path class="cls-3" d="M52.45,36.3c9.8-9.13,13.24-3.63,9.86-5.59S47.93,32.64,52.45,36.3Z"/><path class="cls-13" d="M101,66.65c-.57-1.86,2.14-7.47,1-11.7s-3.34-3.49-2.2-9.76c3-16.36-2.19-22.91-2.19-22.91s-4.1-5.62-4-1.09-6.62,8.2-10,15c-3.84,7.66-3.32,14.23-1.68,20.55s11.94,5.67,13,8.06c.81,1.86,1.17,3,1.44,3.7a6.24,6.24,0,0,1,.44,3c4.42,2.54,8.9-1.13,8.9-1.13A4.06,4.06,0,0,0,101,66.65Z"/><path class="cls-14" d="M94.76,64.81s-4.41,6.55-15.11,6.69c-8.45.11-20-9.7-17.53-24.16,3.37-20.05-14.93-15.92-9.67-11-5.42-4.64.42-14.15,8.85-16.55C66.69,18.21,80.51,18,80.51,33.87c0,7.81.16,17.23,2.79,20.92S91.18,52.74,94.76,64.81Z"/><path class="cls-13" d="M93.92,10.9h6.14a4.38,4.38,0,0,1,4.38,4.38V25.79a0,0,0,0,1,0,0H89.54a0,0,0,0,1,0,0V15.27A4.38,4.38,0,0,1,93.92,10.9Z" transform="translate(188.87 54.39) rotate(-169.29)"/><path class="cls-13" d="M105,16.28l1.43-7.53a3.92,3.92,0,0,0-4.57,2.93S101.29,15.59,105,16.28Z"/><path class="cls-13" d="M90.32,13.52,91.75,6c3.65.69,3.18,4.39,3.18,4.39S94,14.21,90.32,13.52Z"/><path class="cls-15" d="M95.53,19.72a1.14,1.14,0,0,1,1.27-.42,1.19,1.19,0,0,1,1,.86c-.13.63-.63,1.66-1.48,1.5S95.41,20.36,95.53,19.72Z"/><path class="cls-15" d="M102.77,18.4a.58.58,0,0,0,.46.67.57.57,0,0,0,.66-.46c.06-.31-.09-.89-.4-.94S102.83,18.09,102.77,18.4Z"/><path class="cls-15" d="M94.07,16.66a.57.57,0,0,0,.45.67.58.58,0,0,0,.67-.46c.06-.31-.09-.89-.4-1S94.13,16.35,94.07,16.66Z"/><path class="cls-16" d="M88.49,13.29,88,15.8a2.31,2.31,0,0,0,1.85,2.7l3.72.71a2.32,2.32,0,0,0,2.7-1.85l.17-.89,1.88.36-.17.89a2.31,2.31,0,0,0,1.85,2.7l3.72.71a2.32,2.32,0,0,0,2.7-1.85l.48-2.51-8.27-1.56-.17.88-1.88-.36.17-.88Zm10.75,2.8L106,17.37l-.34,1.77a1.56,1.56,0,0,1-1.82,1.25l-3.72-.71a1.56,1.56,0,0,1-1.25-1.82ZM89.09,14.17l6.79,1.28-.34,1.77a1.56,1.56,0,0,1-1.82,1.25L90,17.76a1.56,1.56,0,0,1-1.25-1.82Z"/><path class="cls-3" d="M100.45,32.79c-1.53-3.81-7.63-1.54-6.43,4,1.17,5.41,2.54,8.15,5.67,13.44-.36-1-.46-2.45,0-5.07A50.05,50.05,0,0,0,100.54,33Z"/><path class="cls-13" d="M104.54,29.17A13.81,13.81,0,0,1,98.4,27.7a2,2,0,0,1,1.9-3.51,9.37,9.37,0,0,0,7,.48c2.69-1,4.83-3.65,6.36-7.8.21-.59.64-2,.64-2s1.47.61,1.93.77a2,2,0,0,1,1.18,2.57c-2,5.32-4.9,8.74-8.74,10.18A11.59,11.59,0,0,1,104.54,29.17Z"/><line class="cls-17" x1="41.51" y1="362.28" x2="61.88" y2="341.45"/><polygon class="cls-17" points="66.21 345.77 57.41 336.97 68.41 334.77 66.21 345.77"/><polyline class="cls-17" points="41.51 339.12 41.51 362.28 64.58 362.28"/><path d="M289.23,308.47c7.63,1.34,7.63,1.34,10.89-1.1-7.06-23.92.77-38-5.06-47.07,12.43,2.82,33.35,6.27,40.86-7.8s-10.7-25.27-10.7-25.27L309.54,243S293.94,235,274,243C276.57,259.3,285.43,277,289.23,308.47Z"/><path d="M308.67,236.82l8.09,57.62,12.48,46.23s11.19-.27,11.92-4.07c-9.13-26.3-5.77-43.55-10.53-47.09-1.39-12.19,11.74-34.68,9.53-54C338.58,221.74,308.67,236.82,308.67,236.82Z"/><path d="M336.53,353.7s5.22-1.2,6.84-4.28L339,335.12s-6.93-8.56-6.81,2.53c0,1.8-1,9.05-8.15,5.47-1.54-.86-6.4-.9-5.23,4.72a28.07,28.07,0,0,0,6.44,4C330.06,354.17,336.53,353.7,336.53,353.7Z"/><path class="cls-18" d="M297.2,239.77c10.08-15.27-6.86-43.18-6.35-62.8,0,0,6.54-16.59,33-18.28,21.52,24.19,9.5,63.82,17.68,78.41C341.49,237.1,314.6,254.54,297.2,239.77Z"/><path class="cls-19" d="M294,184.15c7-4.51,14.58,9.09,16.12,16.4a43.7,43.7,0,0,0,3.67,11.17c6,18.56,6.22,28.43,6.75,32.71s5.52,9.19,6.5,11.7c-.8,2.45-4.44,5.09-6,4.8-1.78-1.42-4-4.74-4.53-12.81-2.32-7.09-8.06-28.76-10.11-31.94s-10.31-18.44-13.52-24.38S294,184.15,294,184.15Z"/><path class="cls-19" d="M311.2,157.24l2.18,3.41s-1.45,4.38-12.12,4.9l-2.11-3.35-8.07-3.66-1.41-21.83,17.93,10.82,3.6,9.71"/><path d="M311.2,157.24l5.05-12a11.23,11.23,0,0,0-1.49-8.87s-13.37-8-14-13.15c-4.85-2.21-11.63,3.16-13.66,6.69-4.17,7.26,5.94,14.59,8.93,17.05l.67,4.39,1.87,1.61a7.46,7.46,0,0,1-.15-1.72c-.07-1.53.85-2.24,1.87-2a1.87,1.87,0,0,1,1.35,2.3l-1.14,6S305.91,162,311.2,157.24Z"/><path class="cls-18" d="M290.85,177s-3.06,7.38-1.18,13.58c2.67,8.84,2.17,14.67,2.17,14.67,11.14-.35,21.54-8.33,21.54-8.33S305.32,177,290.85,177Z"/><path d="M275.93,315.26a66.31,66.31,0,0,0,15.34,9.11c6.53.08,8.57-4.56,8.57-4.56a60.88,60.88,0,0,0-1.52-14.89c-4.1,2.59-5.68,1.37-5.68,1.37s-1.83,5.62-5.17,5.47S275.93,304.47,275.93,315.26Z"/><path class="cls-1" d="M344.86,323c21.28,7.48,42.13-10.23,48.83-23.81a15.31,15.31,0,0,1,11.47-28.38,208.13,208.13,0,0,0-7.71-146.89C415,278.22,344.86,323,344.86,323h0"/><path class="cls-1" d="M281.38,401.45l-14.06-8.12-22.16-12.79h0C223,365.52,194,352.07,156.55,355c-41.83,3.23-53.09,32.07-74,18.18,24.73,18.69,51.7-15.76,82.52-6.49C182.89,372,227.41,418.56,281.38,401.45Z"/><circle class="cls-2" cx="370.28" cy="122.74" r="1.99"/><circle class="cls-2" cx="115.09" cy="289.64" r="19.3"/><path class="cls-2" d="M160.84,289.3a.5.5,0,0,0,0,1A.5.5,0,0,0,160.84,289.3Z"/><path class="cls-2" d="M161.23,270.84a.5.5,0,0,0,0,1A.5.5,0,0,0,161.23,270.84Z"/><path class="cls-2" d="M128.92,255.07a.5.5,0,0,0,0,1A.5.5,0,0,0,128.92,255.07Z"/><path class="cls-2" d="M165.08,212.76a.5.5,0,0,0,0,1A.5.5,0,0,0,165.08,212.76Z"/><path class="cls-2" d="M114.12,172.58c-6.43,0-6.44,10,0,10S120.57,172.58,114.12,172.58Z"/><polygon class="cls-1" points="45.78 60.77 90.08 111.94 90.08 86.36 45.78 60.77"/><path class="cls-19" d="M284.75,73.78c-3.22,0-3.22,5,0,5S288,73.78,284.75,73.78Z"/><path class="cls-19" d="M238.08,36.48a.5.5,0,0,0,0,1A.5.5,0,0,0,238.08,36.48Z"/><path class="cls-19" d="M304.4,36.48a.5.5,0,0,0,0,1A.5.5,0,0,0,304.4,36.48Z"/><path class="cls-19" d="M134.92,327.28c-2.58,0-2.58,4,0,4S137.5,327.28,134.92,327.28Z"/><path class="cls-2" d="M1.93,183.59c-2.57,0-2.58,4,0,4S4.51,183.59,1.93,183.59Z"/><path class="cls-2" d="M220.8,411c-2.57,0-2.58,4,0,4S223.38,411,220.8,411Z"/><polygon class="cls-20" points="112.24 124.73 211.93 67.17 189.78 54.38 90.08 111.94 112.24 124.73"/></g></svg>