<svg id="ilustra" xmlns="http://www.w3.org/2000/svg" viewBox="0 0 885.14 753.65"><defs><style>.cls-1,.cls-14,.cls-2,.cls-3{fill:none;}.cls-1,.cls-2{stroke:#67bcda;}.cls-1,.cls-14,.cls-2{stroke-miterlimit:10;}.cls-2,.cls-3{stroke-width:3px;}.cls-3{stroke:#edaf00;stroke-linecap:round;stroke-linejoin:round;}.cls-4{fill:#f2f2f2;}.cls-5{fill:#a1adb6;}.cls-6{fill:#e0e6ed;}.cls-7{fill:#4b84b5;}.cls-8{fill:#67bcda;}.cls-9{fill:#f0cca7;}.cls-10{fill:#ca4d5d;}.cls-11{fill:#c98200;}.cls-12{fill:#f4d03e;}.cls-13{fill:#edaf00;}.cls-14{stroke:#ab3a47;}.cls-15{fill:#ab3a47;}.cls-16{fill:#ffdb43;}</style></defs><title>physical-science-and-engineering_art</title><line class="cls-1" x1="397.6" y1="165.84" x2="391.27" y2="165.84"/><line class="cls-1" x1="403.94" y1="165.84" x2="397.6" y2="165.84"/><line class="cls-1" x1="394.66" y1="159.04" x2="388.33" y2="159.04"/><line class="cls-1" x1="401" y1="159.04" x2="394.66" y2="159.04"/><line class="cls-1" x1="391.77" y1="152.22" x2="385.44" y2="152.22"/><line class="cls-1" x1="398.11" y1="152.22" x2="391.77" y2="152.22"/><line class="cls-1" x1="388.94" y1="145.39" x2="382.61" y2="145.39"/><line class="cls-1" x1="395.27" y1="145.39" x2="388.94" y2="145.39"/><line class="cls-1" x1="386.17" y1="138.54" x2="379.83" y2="138.54"/><line class="cls-1" x1="392.5" y1="138.54" x2="386.17" y2="138.54"/><line class="cls-1" x1="383.46" y1="131.68" x2="377.13" y2="131.68"/><line class="cls-1" x1="389.79" y1="131.68" x2="383.46" y2="131.68"/><line class="cls-1" x1="380.83" y1="124.81" x2="374.5" y2="124.81"/><line class="cls-1" x1="387.17" y1="124.81" x2="380.83" y2="124.81"/><line class="cls-1" x1="378.29" y1="117.94" x2="371.96" y2="117.94"/><line class="cls-1" x1="384.62" y1="117.94" x2="378.29" y2="117.94"/><line class="cls-1" x1="375.83" y1="111.08" x2="369.5" y2="111.08"/><line class="cls-1" x1="382.17" y1="111.08" x2="375.83" y2="111.08"/><line class="cls-1" x1="373.48" y1="104.21" x2="367.14" y2="104.21"/><line class="cls-1" x1="379.81" y1="104.21" x2="373.48" y2="104.21"/><line class="cls-1" x1="371.22" y1="97.35" x2="364.89" y2="97.35"/><line class="cls-1" x1="377.56" y1="97.35" x2="371.22" y2="97.35"/><line class="cls-1" x1="369.08" y1="90.51" x2="362.75" y2="90.51"/><line class="cls-1" x1="375.42" y1="90.51" x2="369.08" y2="90.51"/><line class="cls-1" x1="367.06" y1="83.67" x2="360.73" y2="83.67"/><line class="cls-1" x1="373.39" y1="83.67" x2="367.06" y2="83.67"/><line class="cls-1" x1="365.16" y1="76.86" x2="358.83" y2="76.86"/><line class="cls-1" x1="371.49" y1="76.86" x2="365.16" y2="76.86"/><line class="cls-1" x1="363.05" y1="68.78" x2="356.71" y2="68.78"/><line class="cls-1" x1="369.38" y1="68.78" x2="363.05" y2="68.78"/><line class="cls-1" x1="359.58" y1="57.13" x2="353.24" y2="57.13"/><line class="cls-1" x1="365.91" y1="57.13" x2="359.58" y2="57.13"/><line class="cls-1" x1="355.96" y1="47.59" x2="349.63" y2="47.59"/><line class="cls-1" x1="362.29" y1="47.59" x2="355.96" y2="47.59"/><line class="cls-1" x1="352.21" y1="40.04" x2="345.88" y2="40.04"/><line class="cls-1" x1="358.55" y1="40.04" x2="352.21" y2="40.04"/><line class="cls-1" x1="348.35" y1="34.36" x2="342.02" y2="34.36"/><line class="cls-1" x1="354.68" y1="34.36" x2="348.35" y2="34.36"/><line class="cls-1" x1="344.39" y1="30.46" x2="338.06" y2="30.46"/><line class="cls-1" x1="350.72" y1="30.46" x2="344.39" y2="30.46"/><line class="cls-1" x1="340.35" y1="28.22" x2="334.01" y2="28.22"/><line class="cls-1" x1="346.68" y1="28.22" x2="340.35" y2="28.22"/><line class="cls-1" x1="336.24" y1="27.53" x2="329.9" y2="27.53"/><line class="cls-1" x1="342.57" y1="27.53" x2="336.24" y2="27.53"/><line class="cls-1" x1="332.07" y1="28.28" x2="325.74" y2="28.28"/><line class="cls-1" x1="338.41" y1="28.28" x2="332.07" y2="28.28"/><line class="cls-1" x1="327.88" y1="30.37" x2="321.54" y2="30.37"/><line class="cls-1" x1="334.21" y1="30.37" x2="327.88" y2="30.37"/><line class="cls-1" x1="323.66" y1="33.67" x2="317.33" y2="33.67"/><line class="cls-1" x1="330" y1="33.67" x2="323.66" y2="33.67"/><line class="cls-1" x1="319.44" y1="38.08" x2="313.11" y2="38.08"/><line class="cls-1" x1="325.78" y1="38.08" x2="319.44" y2="38.08"/><line class="cls-1" x1="315.24" y1="43.5" x2="308.9" y2="43.5"/><line class="cls-1" x1="321.57" y1="43.5" x2="315.24" y2="43.5"/><line class="cls-1" x1="311.06" y1="49.8" x2="304.73" y2="49.8"/><line class="cls-1" x1="317.39" y1="49.8" x2="311.06" y2="49.8"/><line class="cls-1" x1="306.93" y1="56.89" x2="300.6" y2="56.89"/><line class="cls-1" x1="313.26" y1="56.89" x2="306.93" y2="56.89"/><line class="cls-1" x1="302.86" y1="64.64" x2="296.52" y2="64.64"/><line class="cls-1" x1="309.19" y1="64.64" x2="302.86" y2="64.64"/><line class="cls-1" x1="298.86" y1="72.96" x2="292.53" y2="72.96"/><line class="cls-1" x1="305.19" y1="72.96" x2="298.86" y2="72.96"/><line class="cls-1" x1="294.96" y1="81.73" x2="288.63" y2="81.73"/><line class="cls-1" x1="301.29" y1="81.73" x2="294.96" y2="81.73"/><line class="cls-1" x1="291.16" y1="90.83" x2="284.83" y2="90.83"/><line class="cls-1" x1="297.5" y1="90.83" x2="291.16" y2="90.83"/><line class="cls-1" x1="287.49" y1="100.17" x2="281.16" y2="100.17"/><line class="cls-1" x1="293.83" y1="100.17" x2="287.49" y2="100.17"/><line class="cls-1" x1="283.96" y1="109.62" x2="277.63" y2="109.62"/><line class="cls-1" x1="290.3" y1="109.62" x2="283.96" y2="109.62"/><line class="cls-1" x1="280.59" y1="119.09" x2="274.26" y2="119.09"/><line class="cls-1" x1="286.92" y1="119.09" x2="280.59" y2="119.09"/><line class="cls-1" x1="277.39" y1="128.46" x2="271.05" y2="128.46"/><line class="cls-1" x1="283.72" y1="128.46" x2="277.39" y2="128.46"/><line class="cls-1" x1="274.37" y1="137.61" x2="268.04" y2="137.61"/><line class="cls-1" x1="280.71" y1="137.61" x2="274.37" y2="137.61"/><line class="cls-1" x1="271.56" y1="146.45" x2="265.23" y2="146.45"/><line class="cls-1" x1="277.9" y1="146.45" x2="271.56" y2="146.45"/><line class="cls-1" x1="268.97" y1="154.86" x2="262.64" y2="154.86"/><line class="cls-1" x1="275.31" y1="154.86" x2="268.97" y2="154.86"/><line class="cls-1" x1="266.62" y1="162.72" x2="260.29" y2="162.72"/><line class="cls-1" x1="272.95" y1="162.72" x2="266.62" y2="162.72"/><line class="cls-1" x1="264.52" y1="169.94" x2="258.18" y2="169.94"/><line class="cls-1" x1="270.85" y1="169.94" x2="264.52" y2="169.94"/><line class="cls-1" x1="262.68" y1="176.39" x2="256.35" y2="176.39"/><line class="cls-1" x1="269.02" y1="176.39" x2="262.68" y2="176.39"/><line class="cls-1" x1="261.13" y1="181.98" x2="254.8" y2="181.98"/><line class="cls-1" x1="267.46" y1="181.98" x2="261.13" y2="181.98"/><line class="cls-1" x1="259.88" y1="186.58" x2="253.54" y2="186.58"/><line class="cls-1" x1="266.21" y1="186.58" x2="259.88" y2="186.58"/><line class="cls-1" x1="258.94" y1="190.09" x2="252.61" y2="190.09"/><line class="cls-1" x1="265.28" y1="190.09" x2="258.94" y2="190.09"/><line class="cls-1" x1="258.34" y1="192.41" x2="252" y2="192.41"/><line class="cls-1" x1="264.67" y1="192.41" x2="258.34" y2="192.41"/><line class="cls-1" x1="258.08" y1="193.41" x2="251.75" y2="193.41"/><line class="cls-1" x1="264.41" y1="193.41" x2="258.08" y2="193.41"/><line class="cls-1" x1="258.07" y1="199.15" x2="251.74" y2="199.15"/><line class="cls-1" x1="264.4" y1="199.15" x2="258.07" y2="199.15"/><line class="cls-1" x1="258.07" y1="206.42" x2="251.74" y2="206.42"/><line class="cls-1" x1="264.4" y1="206.42" x2="258.07" y2="206.42"/><line class="cls-1" x1="258.07" y1="213.7" x2="251.74" y2="213.7"/><line class="cls-1" x1="264.4" y1="213.7" x2="258.07" y2="213.7"/><line class="cls-1" x1="258.07" y1="220.98" x2="251.74" y2="220.98"/><line class="cls-1" x1="264.4" y1="220.98" x2="258.07" y2="220.98"/><path class="cls-2" d="M251.74,221V195.1s13-51.5,34-104,31-63.57,44-63.57,19.5,18.07,31,55.57,30.52,82.74,30.52,82.74"/><path class="cls-2" d="M264.4,221V195.1s13-51.5,34-104,31-63.57,44-63.57,19.5,18.07,31,55.57,30.52,82.74,30.52,82.74"/><line class="cls-3" x1="637.78" y1="1.58" x2="637.78" y2="271.62"/><line class="cls-3" x1="652.78" y1="1.58" x2="652.78" y2="264.62"/><circle class="cls-4" cx="422.75" cy="429.65" r="324"/><path class="cls-5" d="M27.54,642.93.83,627.52A1.49,1.49,0,0,1,0,626.45s0-2.86,0-2.89c0-.56.38.14,1.18-.33l26-15A5.32,5.32,0,0,1,32,608l26.71,15.41c.57.33.84-.46.83,0v2.78a2.06,2.06,0,0,1-1.18,1.5l-26,15A5.32,5.32,0,0,1,27.54,642.93Z"/><path class="cls-6" d="M27.54,640.18.83,624.77A1.46,1.46,0,0,1,0,623.56,2,2,0,0,1,1.18,622l26-15a5.32,5.32,0,0,1,4.82-.2l26.71,15.41a1.44,1.44,0,0,1,.83,1.26A2,2,0,0,1,58.37,625l-26,15A5.32,5.32,0,0,1,27.54,640.18Z"/><path class="cls-5" d="M135.75,704.42,109.05,689a1.47,1.47,0,0,1-.83-1.06s0-2.86,0-2.89c0-.56.38.14,1.18-.33l26-15a5.38,5.38,0,0,1,4.82-.2l26.71,15.42c.57.33.84-.46.83,0v2.79a2.05,2.05,0,0,1-1.18,1.49l-26,15A5.35,5.35,0,0,1,135.75,704.42Z"/><path class="cls-6" d="M135.75,701.67l-26.7-15.42a1.43,1.43,0,0,1-.84-1.2,2,2,0,0,1,1.18-1.58l26-15a5.38,5.38,0,0,1,4.82-.2l26.71,15.42a1.41,1.41,0,0,1,.83,1.25,2,2,0,0,1-1.18,1.53l-26,15A5.35,5.35,0,0,1,135.75,701.67Z"/><polygon class="cls-6" points="748.67 378.14 189.9 700.74 240.95 730.22 799.72 407.61 748.67 378.14"/><polygon class="cls-5" points="189.9 700.74 189.9 704.49 240.95 733.96 240.95 730.22 189.9 700.74"/><polygon class="cls-5" points="799.72 407.61 799.72 411.36 240.95 733.96 240.95 730.22 799.72 407.61"/><line class="cls-3" x1="361.25" y1="596.76" x2="361.25" y2="633.54"/><line class="cls-3" x1="353.75" y1="595.76" x2="353.75" y2="632.54"/><line class="cls-3" x1="438.54" y1="267.33" x2="438.54" y2="590.24"/><line class="cls-3" x1="426.75" y1="266.33" x2="426.75" y2="589.24"/><line class="cls-3" x1="611.12" y1="320.47" x2="611.12" y2="493.91"/><line class="cls-3" x1="601.75" y1="317.43" x2="601.75" y2="490.87"/><line class="cls-3" x1="762.59" y1="191.1" x2="762.59" y2="409.15"/><line class="cls-3" x1="750.59" y1="191.1" x2="750.59" y2="403.15"/><line class="cls-3" x1="132.75" y1="691.34" x2="132.75" y2="615.61"/><line class="cls-3" x1="141.75" y1="610.6" x2="141.75" y2="686.34"/><line class="cls-3" x1="23.77" y1="545.45" x2="23.77" y2="626.28"/><line class="cls-3" x1="35.77" y1="541.1" x2="35.77" y2="621.93"/><line class="cls-3" x1="235.65" y1="462.55" x2="235.65" y2="707.38"/><line class="cls-3" x1="224.75" y1="459.11" x2="224.75" y2="703.93"/><line class="cls-3" x1="39.45" y1="585.87" x2="23.77" y2="593.43"/><polyline class="cls-3" points="111.7 615.15 132.75 638.1 158.75 607.6"/><polyline class="cls-3" points="123.45 615.54 141.75 633.54 152.52 603.99"/><polyline class="cls-3" points="254.6 468.58 235.65 485.6 223.19 477.09"/><polyline class="cls-3" points="235.65 462.55 223.19 482.6 212.08 474.82"/><polyline class="cls-3" points="384.96 584.97 361.25 615.61 334.13 584.97"/><polyline class="cls-3" points="322.12 584.97 353.75 614.15 368.99 587.92"/><polyline class="cls-3" points="460.53 273.9 438.54 287.6 418.75 273.9"/><polyline class="cls-3" points="403.85 273.9 426.75 287.6 452.4 269.26"/><polyline class="cls-3" points="589.63 329.97 611.12 340.1 628.22 324.72"/><polyline class="cls-3" points="575.2 332.41 601.75 340.1 616.22 324.72"/><polyline class="cls-3" points="613.95 7.41 637.78 19.1 660.39 9.9"/><polyline class="cls-3" points="675.46 11.61 652.78 19.1 630.13 2.44"/><line class="cls-1" x1="187.66" y1="375.1" x2="181.32" y2="375.1"/><line class="cls-1" x1="193.99" y1="375.1" x2="187.66" y2="375.1"/><line class="cls-1" x1="187.66" y1="383.5" x2="181.32" y2="383.5"/><line class="cls-1" x1="193.99" y1="383.5" x2="187.66" y2="383.5"/><line class="cls-1" x1="187.66" y1="391.9" x2="181.32" y2="391.9"/><line class="cls-1" x1="193.99" y1="391.9" x2="187.66" y2="391.9"/><line class="cls-1" x1="187.66" y1="400.3" x2="181.32" y2="400.3"/><line class="cls-1" x1="193.99" y1="400.3" x2="187.66" y2="400.3"/><line class="cls-1" x1="187.66" y1="408.7" x2="181.32" y2="408.7"/><line class="cls-1" x1="193.99" y1="408.7" x2="187.66" y2="408.7"/><line class="cls-1" x1="187.66" y1="417.1" x2="181.32" y2="417.1"/><line class="cls-1" x1="193.99" y1="417.1" x2="187.66" y2="417.1"/><line class="cls-1" x1="177.24" y1="420.41" x2="170.9" y2="420.41"/><line class="cls-1" x1="183.57" y1="420.41" x2="177.24" y2="420.41"/><line class="cls-1" x1="164.21" y1="422.64" x2="157.87" y2="422.64"/><line class="cls-1" x1="170.54" y1="422.64" x2="164.21" y2="422.64"/><line class="cls-1" x1="151.8" y1="425.37" x2="145.46" y2="425.37"/><line class="cls-1" x1="158.13" y1="425.37" x2="151.8" y2="425.37"/><line class="cls-1" x1="140" y1="428.57" x2="133.67" y2="428.57"/><line class="cls-1" x1="146.33" y1="428.57" x2="140" y2="428.57"/><line class="cls-1" x1="128.82" y1="432.23" x2="122.49" y2="432.23"/><line class="cls-1" x1="135.15" y1="432.23" x2="128.82" y2="432.23"/><line class="cls-1" x1="118.25" y1="436.29" x2="111.92" y2="436.29"/><line class="cls-1" x1="124.58" y1="436.29" x2="118.25" y2="436.29"/><line class="cls-1" x1="108.29" y1="440.74" x2="101.95" y2="440.74"/><line class="cls-1" x1="114.62" y1="440.74" x2="108.29" y2="440.74"/><line class="cls-1" x1="98.93" y1="445.55" x2="92.6" y2="445.55"/><line class="cls-1" x1="105.27" y1="445.55" x2="98.93" y2="445.55"/><line class="cls-1" x1="90.18" y1="450.68" x2="83.85" y2="450.68"/><line class="cls-1" x1="96.52" y1="450.68" x2="90.18" y2="450.68"/><line class="cls-1" x1="82.03" y1="456.11" x2="75.7" y2="456.11"/><line class="cls-1" x1="88.37" y1="456.11" x2="82.03" y2="456.11"/><line class="cls-1" x1="74.49" y1="461.81" x2="68.15" y2="461.81"/><line class="cls-1" x1="80.82" y1="461.81" x2="74.49" y2="461.81"/><line class="cls-1" x1="67.54" y1="467.75" x2="61.2" y2="467.75"/><line class="cls-1" x1="73.87" y1="467.75" x2="67.54" y2="467.75"/><line class="cls-1" x1="61.18" y1="473.89" x2="54.85" y2="473.89"/><line class="cls-1" x1="67.51" y1="473.89" x2="61.18" y2="473.89"/><line class="cls-1" x1="55.42" y1="480.21" x2="49.08" y2="480.21"/><line class="cls-1" x1="61.75" y1="480.21" x2="55.42" y2="480.21"/><line class="cls-1" x1="50.24" y1="486.68" x2="43.91" y2="486.68"/><line class="cls-1" x1="56.58" y1="486.68" x2="50.24" y2="486.68"/><line class="cls-1" x1="45.66" y1="493.27" x2="39.32" y2="493.27"/><line class="cls-1" x1="51.99" y1="493.27" x2="45.66" y2="493.27"/><line class="cls-1" x1="41.66" y1="499.95" x2="35.33" y2="499.95"/><line class="cls-1" x1="47.99" y1="499.95" x2="41.66" y2="499.95"/><line class="cls-1" x1="38.24" y1="506.69" x2="31.91" y2="506.69"/><line class="cls-1" x1="44.58" y1="506.69" x2="38.24" y2="506.69"/><line class="cls-1" x1="35.41" y1="513.46" x2="29.07" y2="513.46"/><line class="cls-1" x1="41.74" y1="513.46" x2="35.41" y2="513.46"/><line class="cls-1" x1="33.15" y1="520.23" x2="26.82" y2="520.23"/><line class="cls-1" x1="39.48" y1="520.23" x2="33.15" y2="520.23"/><line class="cls-1" x1="31.47" y1="526.97" x2="25.14" y2="526.97"/><line class="cls-1" x1="37.8" y1="526.97" x2="31.47" y2="526.97"/><line class="cls-1" x1="30.36" y1="533.65" x2="24.03" y2="533.65"/><line class="cls-1" x1="36.7" y1="533.65" x2="30.36" y2="533.65"/><line class="cls-1" x1="29.83" y1="540.25" x2="23.5" y2="540.25"/><line class="cls-1" x1="36.16" y1="540.25" x2="29.83" y2="540.25"/><line class="cls-1" x1="29.86" y1="546.73" x2="23.53" y2="546.73"/><line class="cls-1" x1="36.2" y1="546.73" x2="29.86" y2="546.73"/><line class="cls-1" x1="30.47" y1="553.06" x2="24.13" y2="553.06"/><line class="cls-1" x1="36.8" y1="553.06" x2="30.47" y2="553.06"/><line class="cls-1" x1="31.63" y1="559.22" x2="25.3" y2="559.22"/><line class="cls-1" x1="37.97" y1="559.22" x2="31.63" y2="559.22"/><line class="cls-1" x1="33.36" y1="565.17" x2="27.03" y2="565.17"/><line class="cls-1" x1="39.69" y1="565.17" x2="33.36" y2="565.17"/><line class="cls-1" x1="35.65" y1="570.88" x2="29.32" y2="570.88"/><line class="cls-1" x1="41.98" y1="570.88" x2="35.65" y2="570.88"/><line class="cls-1" x1="38.49" y1="576.33" x2="32.16" y2="576.33"/><line class="cls-1" x1="44.83" y1="576.33" x2="38.49" y2="576.33"/><line class="cls-1" x1="41.9" y1="581.49" x2="35.56" y2="581.49"/><line class="cls-1" x1="48.23" y1="581.49" x2="41.9" y2="581.49"/><line class="cls-1" x1="45.85" y1="586.32" x2="39.52" y2="586.32"/><line class="cls-1" x1="52.18" y1="586.32" x2="45.85" y2="586.32"/><line class="cls-1" x1="50.35" y1="590.79" x2="44.02" y2="590.79"/><line class="cls-1" x1="56.69" y1="590.79" x2="50.35" y2="590.79"/><line class="cls-1" x1="55.41" y1="594.89" x2="49.07" y2="594.89"/><line class="cls-1" x1="61.74" y1="594.89" x2="55.41" y2="594.89"/><line class="cls-1" x1="61.01" y1="598.57" x2="54.67" y2="598.57"/><line class="cls-1" x1="67.34" y1="598.57" x2="61.01" y2="598.57"/><line class="cls-1" x1="67.15" y1="601.81" x2="60.81" y2="601.81"/><line class="cls-1" x1="73.48" y1="601.81" x2="67.15" y2="601.81"/><line class="cls-1" x1="77.91" y1="606.43" x2="71.58" y2="606.43"/><line class="cls-1" x1="84.25" y1="606.43" x2="77.91" y2="606.43"/><line class="cls-1" x1="88.47" y1="610.18" x2="82.14" y2="610.18"/><line class="cls-1" x1="94.8" y1="610.18" x2="88.47" y2="610.18"/><line class="cls-1" x1="98.44" y1="612.92" x2="92.11" y2="612.92"/><line class="cls-1" x1="104.77" y1="612.92" x2="98.44" y2="612.92"/><line class="cls-1" x1="107.84" y1="614.68" x2="101.51" y2="614.68"/><line class="cls-1" x1="114.17" y1="614.68" x2="107.84" y2="614.68"/><line class="cls-1" x1="116.69" y1="615.52" x2="110.36" y2="615.52"/><line class="cls-1" x1="123.03" y1="615.52" x2="116.69" y2="615.52"/><line class="cls-1" x1="125.02" y1="615.47" x2="118.69" y2="615.47"/><line class="cls-1" x1="131.35" y1="615.47" x2="125.02" y2="615.47"/><line class="cls-1" x1="132.84" y1="614.58" x2="126.5" y2="614.58"/><line class="cls-1" x1="139.17" y1="614.58" x2="132.84" y2="614.58"/><line class="cls-1" x1="140.16" y1="612.87" x2="133.83" y2="612.87"/><line class="cls-1" x1="146.5" y1="612.87" x2="140.16" y2="612.87"/><line class="cls-1" x1="147.02" y1="610.41" x2="140.69" y2="610.41"/><line class="cls-1" x1="153.36" y1="610.41" x2="147.02" y2="610.41"/><line class="cls-1" x1="153.44" y1="607.22" x2="147.1" y2="607.22"/><line class="cls-1" x1="159.77" y1="607.22" x2="153.44" y2="607.22"/><line class="cls-1" x1="159.42" y1="603.35" x2="153.09" y2="603.35"/><line class="cls-1" x1="165.76" y1="603.35" x2="159.42" y2="603.35"/><line class="cls-1" x1="165" y1="598.84" x2="158.67" y2="598.84"/><line class="cls-1" x1="171.33" y1="598.84" x2="165" y2="598.84"/><line class="cls-1" x1="170.19" y1="593.73" x2="163.85" y2="593.73"/><line class="cls-1" x1="176.52" y1="593.73" x2="170.19" y2="593.73"/><line class="cls-1" x1="175.01" y1="588.06" x2="168.68" y2="588.06"/><line class="cls-1" x1="181.34" y1="588.06" x2="175.01" y2="588.06"/><line class="cls-1" x1="179.48" y1="581.88" x2="173.15" y2="581.88"/><line class="cls-1" x1="185.82" y1="581.88" x2="179.48" y2="581.88"/><line class="cls-1" x1="183.63" y1="575.22" x2="177.29" y2="575.22"/><line class="cls-1" x1="189.96" y1="575.22" x2="183.63" y2="575.22"/><line class="cls-1" x1="187.47" y1="568.12" x2="181.13" y2="568.12"/><line class="cls-1" x1="193.8" y1="568.12" x2="187.47" y2="568.12"/><line class="cls-1" x1="191.02" y1="560.63" x2="184.68" y2="560.63"/><line class="cls-1" x1="197.35" y1="560.63" x2="191.02" y2="560.63"/><line class="cls-1" x1="194.3" y1="552.8" x2="187.97" y2="552.8"/><line class="cls-1" x1="200.63" y1="552.8" x2="194.3" y2="552.8"/><line class="cls-1" x1="197.7" y1="543.61" x2="191.37" y2="543.61"/><line class="cls-1" x1="204.04" y1="543.61" x2="197.7" y2="543.61"/><line class="cls-1" x1="201.8" y1="531.13" x2="195.47" y2="531.13"/><line class="cls-1" x1="208.13" y1="531.13" x2="201.8" y2="531.13"/><line class="cls-1" x1="205.29" y1="519.25" x2="198.95" y2="519.25"/><line class="cls-1" x1="211.62" y1="519.25" x2="205.29" y2="519.25"/><line class="cls-1" x1="208.31" y1="508.08" x2="201.98" y2="508.08"/><line class="cls-1" x1="214.64" y1="508.08" x2="208.31" y2="508.08"/><line class="cls-1" x1="211.02" y1="497.77" x2="204.69" y2="497.77"/><line class="cls-1" x1="217.35" y1="497.77" x2="211.02" y2="497.77"/><line class="cls-1" x1="213.56" y1="488.43" x2="207.23" y2="488.43"/><line class="cls-1" x1="219.9" y1="488.43" x2="213.56" y2="488.43"/><line class="cls-1" x1="216.09" y1="480.21" x2="209.75" y2="480.21"/><line class="cls-1" x1="222.42" y1="480.21" x2="216.09" y2="480.21"/><line class="cls-1" x1="218.74" y1="473.23" x2="212.41" y2="473.23"/><line class="cls-1" x1="225.08" y1="473.23" x2="218.74" y2="473.23"/><line class="cls-1" x1="221.68" y1="467.63" x2="215.35" y2="467.63"/><line class="cls-1" x1="228.01" y1="467.63" x2="221.68" y2="467.63"/><line class="cls-1" x1="225.04" y1="463.52" x2="218.71" y2="463.52"/><line class="cls-1" x1="231.38" y1="463.52" x2="225.04" y2="463.52"/><line class="cls-1" x1="228.98" y1="461.05" x2="222.65" y2="461.05"/><line class="cls-1" x1="235.31" y1="461.05" x2="228.98" y2="461.05"/><line class="cls-1" x1="233.65" y1="460.34" x2="227.31" y2="460.34"/><line class="cls-1" x1="239.98" y1="460.34" x2="233.65" y2="460.34"/><line class="cls-1" x1="239.18" y1="461.53" x2="232.85" y2="461.53"/><line class="cls-1" x1="245.52" y1="461.53" x2="239.18" y2="461.53"/><line class="cls-1" x1="243.54" y1="463.68" x2="237.2" y2="463.68"/><line class="cls-1" x1="249.87" y1="463.68" x2="243.54" y2="463.68"/><line class="cls-1" x1="246.92" y1="466.7" x2="240.58" y2="466.7"/><line class="cls-1" x1="253.25" y1="466.7" x2="246.92" y2="466.7"/><line class="cls-1" x1="250.6" y1="471.03" x2="244.26" y2="471.03"/><line class="cls-1" x1="256.93" y1="471.03" x2="250.6" y2="471.03"/><line class="cls-1" x1="254.57" y1="476.52" x2="248.23" y2="476.52"/><line class="cls-1" x1="260.9" y1="476.52" x2="254.57" y2="476.52"/><line class="cls-1" x1="258.81" y1="483.01" x2="252.48" y2="483.01"/><line class="cls-1" x1="265.15" y1="483.01" x2="258.81" y2="483.01"/><line class="cls-1" x1="263.31" y1="490.34" x2="256.98" y2="490.34"/><line class="cls-1" x1="269.65" y1="490.34" x2="263.31" y2="490.34"/><line class="cls-1" x1="268.06" y1="498.36" x2="261.73" y2="498.36"/><line class="cls-1" x1="274.39" y1="498.36" x2="268.06" y2="498.36"/><line class="cls-1" x1="273.03" y1="506.92" x2="266.7" y2="506.92"/><line class="cls-1" x1="279.37" y1="506.92" x2="273.03" y2="506.92"/><line class="cls-1" x1="278.22" y1="515.86" x2="271.88" y2="515.86"/><line class="cls-1" x1="284.55" y1="515.86" x2="278.22" y2="515.86"/><line class="cls-1" x1="283.6" y1="525.03" x2="277.26" y2="525.03"/><line class="cls-1" x1="289.93" y1="525.03" x2="283.6" y2="525.03"/><line class="cls-1" x1="289.16" y1="534.27" x2="282.83" y2="534.27"/><line class="cls-1" x1="295.49" y1="534.27" x2="289.16" y2="534.27"/><line class="cls-1" x1="294.89" y1="543.43" x2="288.55" y2="543.43"/><line class="cls-1" x1="301.22" y1="543.43" x2="294.89" y2="543.43"/><line class="cls-1" x1="300.76" y1="552.35" x2="294.43" y2="552.35"/><line class="cls-1" x1="307.1" y1="552.35" x2="300.76" y2="552.35"/><line class="cls-1" x1="306.78" y1="560.88" x2="300.44" y2="560.88"/><line class="cls-1" x1="313.11" y1="560.88" x2="306.78" y2="560.88"/><line class="cls-1" x1="312.91" y1="568.87" x2="306.58" y2="568.87"/><line class="cls-1" x1="319.24" y1="568.87" x2="312.91" y2="568.87"/><line class="cls-1" x1="319.14" y1="576.15" x2="312.81" y2="576.15"/><line class="cls-1" x1="325.48" y1="576.15" x2="319.14" y2="576.15"/><line class="cls-1" x1="325.47" y1="582.58" x2="319.14" y2="582.58"/><line class="cls-1" x1="331.8" y1="582.58" x2="325.47" y2="582.58"/><line class="cls-1" x1="331.87" y1="588" x2="325.53" y2="588"/><line class="cls-1" x1="338.2" y1="588" x2="331.87" y2="588"/><line class="cls-1" x1="338.32" y1="592.26" x2="331.99" y2="592.26"/><line class="cls-1" x1="344.66" y1="592.26" x2="338.32" y2="592.26"/><line class="cls-1" x1="344.82" y1="595.19" x2="338.49" y2="595.19"/><line class="cls-1" x1="351.15" y1="595.19" x2="344.82" y2="595.19"/><line class="cls-1" x1="351.35" y1="596.66" x2="345.01" y2="596.66"/><line class="cls-1" x1="357.68" y1="596.66" x2="351.35" y2="596.66"/><line class="cls-1" x1="357.88" y1="596.49" x2="351.55" y2="596.49"/><line class="cls-1" x1="364.22" y1="596.49" x2="357.88" y2="596.49"/><line class="cls-1" x1="364.42" y1="594.54" x2="358.08" y2="594.54"/><line class="cls-1" x1="370.75" y1="594.54" x2="364.42" y2="594.54"/><line class="cls-1" x1="369.71" y1="591.56" x2="363.38" y2="591.56"/><line class="cls-1" x1="376.04" y1="591.56" x2="369.71" y2="591.56"/><line class="cls-1" x1="373.01" y1="589.33" x2="366.68" y2="589.33"/><line class="cls-1" x1="379.34" y1="589.33" x2="373.01" y2="589.33"/><line class="cls-1" x1="376.56" y1="586.78" x2="370.22" y2="586.78"/><line class="cls-1" x1="382.89" y1="586.78" x2="376.56" y2="586.78"/><line class="cls-1" x1="380.33" y1="583.91" x2="374" y2="583.91"/><line class="cls-1" x1="386.67" y1="583.91" x2="380.33" y2="583.91"/><line class="cls-1" x1="384.32" y1="580.71" x2="377.98" y2="580.71"/><line class="cls-1" x1="390.65" y1="580.71" x2="384.32" y2="580.71"/><line class="cls-1" x1="388.48" y1="577.2" x2="382.14" y2="577.2"/><line class="cls-1" x1="394.81" y1="577.2" x2="388.48" y2="577.2"/><line class="cls-1" x1="392.8" y1="573.36" x2="386.46" y2="573.36"/><line class="cls-1" x1="399.13" y1="573.36" x2="392.8" y2="573.36"/><line class="cls-1" x1="397.25" y1="569.2" x2="390.92" y2="569.2"/><line class="cls-1" x1="403.58" y1="569.2" x2="397.25" y2="569.2"/><line class="cls-1" x1="401.81" y1="564.71" x2="395.48" y2="564.71"/><line class="cls-1" x1="408.14" y1="564.71" x2="401.81" y2="564.71"/><line class="cls-1" x1="406.46" y1="559.9" x2="400.13" y2="559.9"/><line class="cls-1" x1="412.79" y1="559.9" x2="406.46" y2="559.9"/><line class="cls-1" x1="411.17" y1="554.76" x2="404.84" y2="554.76"/><line class="cls-1" x1="417.51" y1="554.76" x2="411.17" y2="554.76"/><line class="cls-1" x1="415.92" y1="549.29" x2="409.59" y2="549.29"/><line class="cls-1" x1="422.26" y1="549.29" x2="415.92" y2="549.29"/><line class="cls-1" x1="420.69" y1="543.49" x2="414.36" y2="543.49"/><line class="cls-1" x1="427.02" y1="543.49" x2="420.69" y2="543.49"/><line class="cls-1" x1="425.45" y1="537.36" x2="419.12" y2="537.36"/><line class="cls-1" x1="431.78" y1="537.36" x2="425.45" y2="537.36"/><line class="cls-1" x1="430.18" y1="530.9" x2="423.85" y2="530.9"/><line class="cls-1" x1="436.51" y1="530.9" x2="430.18" y2="530.9"/><line class="cls-1" x1="434.85" y1="524.1" x2="428.52" y2="524.1"/><line class="cls-1" x1="441.19" y1="524.1" x2="434.85" y2="524.1"/><line class="cls-1" x1="439.45" y1="516.97" x2="433.12" y2="516.97"/><line class="cls-1" x1="445.78" y1="516.97" x2="439.45" y2="516.97"/><line class="cls-1" x1="443.94" y1="509.51" x2="437.61" y2="509.51"/><line class="cls-1" x1="450.28" y1="509.51" x2="443.94" y2="509.51"/><line class="cls-1" x1="448.31" y1="501.71" x2="441.98" y2="501.71"/><line class="cls-1" x1="454.64" y1="501.71" x2="448.31" y2="501.71"/><line class="cls-1" x1="452.53" y1="493.57" x2="446.2" y2="493.57"/><line class="cls-1" x1="458.86" y1="493.57" x2="452.53" y2="493.57"/><line class="cls-1" x1="456.58" y1="485.09" x2="450.24" y2="485.09"/><line class="cls-1" x1="462.91" y1="485.09" x2="456.58" y2="485.09"/><line class="cls-1" x1="460.43" y1="476.28" x2="454.1" y2="476.28"/><line class="cls-1" x1="466.76" y1="476.28" x2="460.43" y2="476.28"/><line class="cls-1" x1="464.06" y1="467.12" x2="457.73" y2="467.12"/><line class="cls-1" x1="470.39" y1="467.12" x2="464.06" y2="467.12"/><line class="cls-1" x1="467.45" y1="457.62" x2="461.12" y2="457.62"/><line class="cls-1" x1="473.78" y1="457.62" x2="467.45" y2="457.62"/><line class="cls-1" x1="470.57" y1="447.78" x2="464.24" y2="447.78"/><line class="cls-1" x1="476.91" y1="447.78" x2="470.57" y2="447.78"/><line class="cls-1" x1="473.4" y1="437.6" x2="467.07" y2="437.6"/><line class="cls-1" x1="479.74" y1="437.6" x2="473.4" y2="437.6"/><line class="cls-1" x1="475.92" y1="427.07" x2="469.59" y2="427.07"/><line class="cls-1" x1="482.26" y1="427.07" x2="475.92" y2="427.07"/><line class="cls-1" x1="478.11" y1="416.19" x2="471.77" y2="416.19"/><line class="cls-1" x1="484.44" y1="416.19" x2="478.11" y2="416.19"/><line class="cls-1" x1="479.93" y1="404.97" x2="473.59" y2="404.97"/><line class="cls-1" x1="486.26" y1="404.97" x2="479.93" y2="404.97"/><line class="cls-1" x1="481.36" y1="393.4" x2="475.03" y2="393.4"/><line class="cls-1" x1="487.7" y1="393.4" x2="481.36" y2="393.4"/><line class="cls-1" x1="482.39" y1="381.48" x2="476.06" y2="381.48"/><line class="cls-1" x1="488.72" y1="381.48" x2="482.39" y2="381.48"/><line class="cls-1" x1="482.99" y1="369.21" x2="476.66" y2="369.21"/><line class="cls-1" x1="489.32" y1="369.21" x2="482.99" y2="369.21"/><line class="cls-1" x1="483.13" y1="356.27" x2="476.79" y2="356.27"/><line class="cls-1" x1="489.46" y1="356.27" x2="483.13" y2="356.27"/><line class="cls-1" x1="482.57" y1="342.59" x2="476.24" y2="342.59"/><line class="cls-1" x1="488.9" y1="342.59" x2="482.57" y2="342.59"/><line class="cls-1" x1="481.26" y1="330.13" x2="474.92" y2="330.13"/><line class="cls-1" x1="487.59" y1="330.13" x2="481.26" y2="330.13"/><line class="cls-1" x1="479.24" y1="318.85" x2="472.91" y2="318.85"/><line class="cls-1" x1="485.58" y1="318.85" x2="479.24" y2="318.85"/><line class="cls-1" x1="476.59" y1="308.74" x2="470.26" y2="308.74"/><line class="cls-1" x1="482.93" y1="308.74" x2="476.59" y2="308.74"/><line class="cls-1" x1="473.36" y1="299.77" x2="467.03" y2="299.77"/><line class="cls-1" x1="479.7" y1="299.77" x2="473.36" y2="299.77"/><line class="cls-1" x1="469.61" y1="291.92" x2="463.28" y2="291.92"/><line class="cls-1" x1="475.94" y1="291.92" x2="469.61" y2="291.92"/><line class="cls-1" x1="465.39" y1="285.17" x2="459.06" y2="285.17"/><line class="cls-1" x1="471.73" y1="285.17" x2="465.39" y2="285.17"/><line class="cls-1" x1="460.77" y1="279.49" x2="454.44" y2="279.49"/><line class="cls-1" x1="467.11" y1="279.49" x2="460.77" y2="279.49"/><line class="cls-1" x1="455.81" y1="274.88" x2="449.47" y2="274.88"/><line class="cls-1" x1="462.14" y1="274.88" x2="455.81" y2="274.88"/><line class="cls-1" x1="450.55" y1="271.3" x2="444.22" y2="271.3"/><line class="cls-1" x1="456.89" y1="271.3" x2="450.55" y2="271.3"/><line class="cls-1" x1="445.07" y1="268.73" x2="438.74" y2="268.73"/><line class="cls-1" x1="451.4" y1="268.73" x2="445.07" y2="268.73"/><line class="cls-1" x1="439.42" y1="267.15" x2="433.08" y2="267.15"/><line class="cls-1" x1="445.75" y1="267.15" x2="439.42" y2="267.15"/><line class="cls-1" x1="433.65" y1="266.55" x2="427.32" y2="266.55"/><line class="cls-1" x1="439.98" y1="266.55" x2="433.65" y2="266.55"/><line class="cls-1" x1="427.83" y1="266.89" x2="421.5" y2="266.89"/><line class="cls-1" x1="434.17" y1="266.89" x2="427.83" y2="266.89"/><line class="cls-1" x1="422.02" y1="268.15" x2="415.69" y2="268.15"/><line class="cls-1" x1="428.35" y1="268.15" x2="422.02" y2="268.15"/><line class="cls-1" x1="416.27" y1="270.33" x2="409.94" y2="270.33"/><line class="cls-1" x1="422.61" y1="270.33" x2="416.27" y2="270.33"/><line class="cls-1" x1="410.65" y1="273.38" x2="404.31" y2="273.38"/><line class="cls-1" x1="416.98" y1="273.38" x2="410.65" y2="273.38"/><line class="cls-1" x1="405.2" y1="277.29" x2="398.87" y2="277.29"/><line class="cls-1" x1="411.54" y1="277.29" x2="405.2" y2="277.29"/><line class="cls-1" x1="400" y1="282.05" x2="393.67" y2="282.05"/><line class="cls-1" x1="406.33" y1="282.05" x2="400" y2="282.05"/><line class="cls-1" x1="395.1" y1="287.62" x2="388.76" y2="287.62"/><line class="cls-1" x1="401.43" y1="287.62" x2="395.1" y2="287.62"/><line class="cls-1" x1="390.55" y1="293.99" x2="384.22" y2="293.99"/><line class="cls-1" x1="396.88" y1="293.99" x2="390.55" y2="293.99"/><line class="cls-1" x1="386.42" y1="301.13" x2="380.08" y2="301.13"/><line class="cls-1" x1="392.75" y1="301.13" x2="386.42" y2="301.13"/><line class="cls-1" x1="382.76" y1="309.03" x2="376.43" y2="309.03"/><line class="cls-1" x1="389.09" y1="309.03" x2="382.76" y2="309.03"/><line class="cls-1" x1="379.64" y1="317.66" x2="373.3" y2="317.66"/><line class="cls-1" x1="385.97" y1="317.66" x2="379.64" y2="317.66"/><line class="cls-1" x1="377.11" y1="326.99" x2="370.77" y2="326.99"/><line class="cls-1" x1="383.44" y1="326.99" x2="377.11" y2="326.99"/><line class="cls-1" x1="375.22" y1="337.02" x2="368.89" y2="337.02"/><line class="cls-1" x1="381.56" y1="337.02" x2="375.22" y2="337.02"/><line class="cls-1" x1="374.05" y1="347.71" x2="367.72" y2="347.71"/><line class="cls-1" x1="380.38" y1="347.71" x2="374.05" y2="347.71"/><line class="cls-1" x1="373.65" y1="359.04" x2="367.31" y2="359.04"/><line class="cls-1" x1="379.98" y1="359.04" x2="373.65" y2="359.04"/><line class="cls-1" x1="374.08" y1="371.68" x2="367.74" y2="371.68"/><line class="cls-1" x1="380.41" y1="371.68" x2="374.08" y2="371.68"/><line class="cls-1" x1="375.33" y1="383.54" x2="369" y2="383.54"/><line class="cls-1" x1="381.66" y1="383.54" x2="375.33" y2="383.54"/><line class="cls-1" x1="377.36" y1="394.64" x2="371.02" y2="394.64"/><line class="cls-1" x1="383.69" y1="394.64" x2="377.36" y2="394.64"/><line class="cls-1" x1="380.1" y1="404.97" x2="373.77" y2="404.97"/><line class="cls-1" x1="386.44" y1="404.97" x2="380.1" y2="404.97"/><line class="cls-1" x1="383.51" y1="414.56" x2="377.18" y2="414.56"/><line class="cls-1" x1="389.85" y1="414.56" x2="383.51" y2="414.56"/><line class="cls-1" x1="387.54" y1="423.42" x2="381.2" y2="423.42"/><line class="cls-1" x1="393.87" y1="423.42" x2="387.54" y2="423.42"/><line class="cls-1" x1="392.12" y1="431.56" x2="385.78" y2="431.56"/><line class="cls-1" x1="398.45" y1="431.56" x2="392.12" y2="431.56"/><line class="cls-1" x1="397.2" y1="439" x2="390.87" y2="439"/><line class="cls-1" x1="403.54" y1="439" x2="397.2" y2="439"/><line class="cls-1" x1="402.74" y1="445.74" x2="396.41" y2="445.74"/><line class="cls-1" x1="409.07" y1="445.74" x2="402.74" y2="445.74"/><line class="cls-1" x1="408.67" y1="451.79" x2="402.34" y2="451.79"/><line class="cls-1" x1="415.01" y1="451.79" x2="408.67" y2="451.79"/><line class="cls-1" x1="414.95" y1="457.18" x2="408.62" y2="457.18"/><line class="cls-1" x1="421.29" y1="457.18" x2="414.95" y2="457.18"/><line class="cls-1" x1="421.52" y1="461.9" x2="415.19" y2="461.9"/><line class="cls-1" x1="427.86" y1="461.9" x2="421.52" y2="461.9"/><line class="cls-1" x1="428.33" y1="465.99" x2="422" y2="465.99"/><line class="cls-1" x1="434.67" y1="465.99" x2="428.33" y2="465.99"/><line class="cls-1" x1="435.32" y1="469.44" x2="428.99" y2="469.44"/><line class="cls-1" x1="441.66" y1="469.44" x2="435.32" y2="469.44"/><line class="cls-1" x1="442.45" y1="472.27" x2="436.11" y2="472.27"/><line class="cls-1" x1="448.78" y1="472.27" x2="442.45" y2="472.27"/><line class="cls-1" x1="449.65" y1="474.49" x2="443.31" y2="474.49"/><line class="cls-1" x1="455.98" y1="474.49" x2="449.65" y2="474.49"/><line class="cls-1" x1="456.87" y1="476.11" x2="450.54" y2="476.11"/><line class="cls-1" x1="463.21" y1="476.11" x2="456.87" y2="476.11"/><line class="cls-1" x1="464.07" y1="477.15" x2="457.73" y2="477.15"/><line class="cls-1" x1="470.4" y1="477.15" x2="464.07" y2="477.15"/><line class="cls-1" x1="471.18" y1="477.62" x2="464.84" y2="477.62"/><line class="cls-1" x1="477.51" y1="477.62" x2="471.18" y2="477.62"/><line class="cls-1" x1="478.15" y1="477.53" x2="471.82" y2="477.53"/><line class="cls-1" x1="484.49" y1="477.53" x2="478.15" y2="477.53"/><line class="cls-1" x1="484.94" y1="476.9" x2="478.6" y2="476.9"/><line class="cls-1" x1="491.27" y1="476.9" x2="484.94" y2="476.9"/><line class="cls-1" x1="491.48" y1="475.73" x2="485.15" y2="475.73"/><line class="cls-1" x1="497.81" y1="475.73" x2="491.48" y2="475.73"/><line class="cls-1" x1="497.72" y1="474.04" x2="491.39" y2="474.04"/><line class="cls-1" x1="504.06" y1="474.04" x2="497.72" y2="474.04"/><line class="cls-1" x1="503.62" y1="471.84" x2="497.28" y2="471.84"/><line class="cls-1" x1="509.95" y1="471.84" x2="503.62" y2="471.84"/><line class="cls-1" x1="509.11" y1="469.14" x2="502.77" y2="469.14"/><line class="cls-1" x1="515.44" y1="469.14" x2="509.11" y2="469.14"/><line class="cls-1" x1="514.98" y1="465.27" x2="508.65" y2="465.27"/><line class="cls-1" x1="521.31" y1="465.27" x2="514.98" y2="465.27"/><line class="cls-1" x1="520.46" y1="460.33" x2="514.13" y2="460.33"/><line class="cls-1" x1="526.8" y1="460.33" x2="520.46" y2="460.33"/><line class="cls-1" x1="525.39" y1="454.55" x2="519.06" y2="454.55"/><line class="cls-1" x1="531.73" y1="454.55" x2="525.39" y2="454.55"/><line class="cls-1" x1="529.84" y1="448.03" x2="523.51" y2="448.03"/><line class="cls-1" x1="536.18" y1="448.03" x2="529.84" y2="448.03"/><line class="cls-1" x1="533.87" y1="440.86" x2="527.54" y2="440.86"/><line class="cls-1" x1="540.21" y1="440.86" x2="533.87" y2="440.86"/><line class="cls-1" x1="537.56" y1="433.15" x2="531.22" y2="433.15"/><line class="cls-1" x1="543.89" y1="433.15" x2="537.56" y2="433.15"/><line class="cls-1" x1="540.96" y1="425.01" x2="534.62" y2="425.01"/><line class="cls-1" x1="547.29" y1="425.01" x2="540.96" y2="425.01"/><line class="cls-1" x1="544.14" y1="416.52" x2="537.8" y2="416.52"/><line class="cls-1" x1="550.47" y1="416.52" x2="544.14" y2="416.52"/><line class="cls-1" x1="547.17" y1="407.79" x2="540.84" y2="407.79"/><line class="cls-1" x1="553.5" y1="407.79" x2="547.17" y2="407.79"/><line class="cls-1" x1="550.12" y1="398.93" x2="543.78" y2="398.93"/><line class="cls-1" x1="556.45" y1="398.93" x2="550.12" y2="398.93"/><line class="cls-1" x1="553.05" y1="390.04" x2="546.72" y2="390.04"/><line class="cls-1" x1="559.38" y1="390.04" x2="553.05" y2="390.04"/><line class="cls-1" x1="556.03" y1="381.2" x2="549.7" y2="381.2"/><line class="cls-1" x1="562.37" y1="381.2" x2="556.03" y2="381.2"/><line class="cls-1" x1="559.13" y1="372.54" x2="552.8" y2="372.54"/><line class="cls-1" x1="565.46" y1="372.54" x2="559.13" y2="372.54"/><line class="cls-1" x1="562.41" y1="364.14" x2="556.08" y2="364.14"/><line class="cls-1" x1="568.75" y1="364.14" x2="562.41" y2="364.14"/><line class="cls-1" x1="565.95" y1="356.11" x2="559.61" y2="356.11"/><line class="cls-1" x1="572.28" y1="356.11" x2="565.95" y2="356.11"/><line class="cls-1" x1="569.8" y1="348.55" x2="563.46" y2="348.55"/><line class="cls-1" x1="576.13" y1="348.55" x2="569.8" y2="348.55"/><line class="cls-1" x1="574.03" y1="341.56" x2="567.7" y2="341.56"/><line class="cls-1" x1="580.36" y1="341.56" x2="574.03" y2="341.56"/><line class="cls-1" x1="578.71" y1="335.24" x2="572.38" y2="335.24"/><line class="cls-1" x1="585.05" y1="335.24" x2="578.71" y2="335.24"/><line class="cls-1" x1="583.92" y1="329.69" x2="577.58" y2="329.69"/><line class="cls-1" x1="590.25" y1="329.69" x2="583.92" y2="329.69"/><line class="cls-1" x1="589.7" y1="325.02" x2="583.37" y2="325.02"/><line class="cls-1" x1="596.03" y1="325.02" x2="589.7" y2="325.02"/><line class="cls-1" x1="596.28" y1="321.26" x2="589.95" y2="321.26"/><line class="cls-1" x1="602.61" y1="321.26" x2="596.28" y2="321.26"/><line class="cls-1" x1="604.45" y1="318.78" x2="598.12" y2="318.78"/><line class="cls-1" x1="610.79" y1="318.78" x2="604.45" y2="318.78"/><line class="cls-1" x1="611.69" y1="319.08" x2="605.35" y2="319.08"/><line class="cls-1" x1="618.02" y1="319.08" x2="611.69" y2="319.08"/><line class="cls-1" x1="618.13" y1="321.73" x2="611.8" y2="321.73"/><line class="cls-1" x1="624.46" y1="321.73" x2="618.13" y2="321.73"/><line class="cls-1" x1="623.94" y1="326.28" x2="617.61" y2="326.28"/><line class="cls-1" x1="630.27" y1="326.28" x2="623.94" y2="326.28"/><line class="cls-1" x1="629.26" y1="332.32" x2="622.93" y2="332.32"/><line class="cls-1" x1="635.6" y1="332.32" x2="629.26" y2="332.32"/><line class="cls-1" x1="634.26" y1="339.4" x2="627.92" y2="339.4"/><line class="cls-1" x1="640.59" y1="339.4" x2="634.26" y2="339.4"/><line class="cls-1" x1="639.07" y1="347.1" x2="632.74" y2="347.1"/><line class="cls-1" x1="645.41" y1="347.1" x2="639.07" y2="347.1"/><line class="cls-1" x1="643.86" y1="354.98" x2="637.53" y2="354.98"/><line class="cls-1" x1="650.2" y1="354.98" x2="643.86" y2="354.98"/><line class="cls-1" x1="648.78" y1="362.61" x2="642.44" y2="362.61"/><line class="cls-1" x1="655.11" y1="362.61" x2="648.78" y2="362.61"/><line class="cls-1" x1="653.97" y1="369.56" x2="647.64" y2="369.56"/><line class="cls-1" x1="660.3" y1="369.56" x2="653.97" y2="369.56"/><line class="cls-1" x1="659.59" y1="375.39" x2="653.26" y2="375.39"/><line class="cls-1" x1="665.93" y1="375.39" x2="659.59" y2="375.39"/><line class="cls-1" x1="665.8" y1="379.68" x2="659.47" y2="379.68"/><line class="cls-1" x1="672.13" y1="379.68" x2="665.8" y2="379.68"/><line class="cls-1" x1="672.74" y1="381.98" x2="666.41" y2="381.98"/><line class="cls-1" x1="679.08" y1="381.98" x2="672.74" y2="381.98"/><line class="cls-1" x1="680.57" y1="381.88" x2="674.24" y2="381.88"/><line class="cls-1" x1="686.91" y1="381.88" x2="680.57" y2="381.88"/><line class="cls-1" x1="689.44" y1="378.93" x2="683.11" y2="378.93"/><line class="cls-1" x1="695.78" y1="378.93" x2="689.44" y2="378.93"/><line class="cls-1" x1="698.28" y1="373.59" x2="691.95" y2="373.59"/><line class="cls-1" x1="704.62" y1="373.59" x2="698.28" y2="373.59"/><line class="cls-1" x1="701.95" y1="370.68" x2="695.62" y2="370.68"/><line class="cls-1" x1="708.29" y1="370.68" x2="701.95" y2="370.68"/><line class="cls-1" x1="705.59" y1="367.3" x2="699.25" y2="367.3"/><line class="cls-1" x1="711.92" y1="367.3" x2="705.59" y2="367.3"/><line class="cls-1" x1="709.17" y1="363.48" x2="702.84" y2="363.48"/><line class="cls-1" x1="715.51" y1="363.48" x2="709.17" y2="363.48"/><line class="cls-1" x1="712.7" y1="359.23" x2="706.37" y2="359.23"/><line class="cls-1" x1="719.03" y1="359.23" x2="712.7" y2="359.23"/><line class="cls-1" x1="716.16" y1="354.56" x2="709.83" y2="354.56"/><line class="cls-1" x1="722.49" y1="354.56" x2="716.16" y2="354.56"/><line class="cls-1" x1="719.55" y1="349.51" x2="713.21" y2="349.51"/><line class="cls-1" x1="725.88" y1="349.51" x2="719.55" y2="349.51"/><line class="cls-1" x1="722.85" y1="344.08" x2="716.51" y2="344.08"/><line class="cls-1" x1="729.18" y1="344.08" x2="722.85" y2="344.08"/><line class="cls-1" x1="726.05" y1="338.28" x2="719.72" y2="338.28"/><line class="cls-1" x1="732.38" y1="338.28" x2="726.05" y2="338.28"/><line class="cls-1" x1="729.15" y1="332.15" x2="722.82" y2="332.15"/><line class="cls-1" x1="735.48" y1="332.15" x2="729.15" y2="332.15"/><line class="cls-1" x1="732.13" y1="325.69" x2="725.8" y2="325.69"/><line class="cls-1" x1="738.47" y1="325.69" x2="732.13" y2="325.69"/><line class="cls-1" x1="734.99" y1="318.92" x2="728.66" y2="318.92"/><line class="cls-1" x1="741.33" y1="318.92" x2="734.99" y2="318.92"/><line class="cls-1" x1="737.72" y1="311.86" x2="731.38" y2="311.86"/><line class="cls-1" x1="744.05" y1="311.86" x2="737.72" y2="311.86"/><line class="cls-1" x1="740.3" y1="304.53" x2="733.97" y2="304.53"/><line class="cls-1" x1="746.63" y1="304.53" x2="740.3" y2="304.53"/><line class="cls-1" x1="742.73" y1="296.94" x2="736.4" y2="296.94"/><line class="cls-1" x1="749.06" y1="296.94" x2="742.73" y2="296.94"/><line class="cls-1" x1="745" y1="289.1" x2="738.66" y2="289.1"/><line class="cls-1" x1="751.33" y1="289.1" x2="745" y2="289.1"/><line class="cls-1" x1="747.09" y1="281.05" x2="740.76" y2="281.05"/><line class="cls-1" x1="753.42" y1="281.05" x2="747.09" y2="281.05"/><line class="cls-1" x1="749" y1="272.79" x2="742.67" y2="272.79"/><line class="cls-1" x1="755.33" y1="272.79" x2="749" y2="272.79"/><line class="cls-1" x1="750.72" y1="264.34" x2="744.39" y2="264.34"/><line class="cls-1" x1="757.05" y1="264.34" x2="750.72" y2="264.34"/><line class="cls-1" x1="752.24" y1="255.71" x2="745.91" y2="255.71"/><line class="cls-1" x1="758.57" y1="255.71" x2="752.24" y2="255.71"/><line class="cls-1" x1="753.55" y1="246.94" x2="747.21" y2="246.94"/><line class="cls-1" x1="759.88" y1="246.94" x2="753.55" y2="246.94"/><line class="cls-1" x1="754.63" y1="238.02" x2="748.3" y2="238.02"/><line class="cls-1" x1="760.97" y1="238.02" x2="754.63" y2="238.02"/><line class="cls-1" x1="755.49" y1="228.99" x2="749.16" y2="228.99"/><line class="cls-1" x1="761.83" y1="228.99" x2="755.49" y2="228.99"/><line class="cls-1" x1="756.11" y1="219.85" x2="749.78" y2="219.85"/><line class="cls-1" x1="762.44" y1="219.85" x2="756.11" y2="219.85"/><line class="cls-1" x1="756.48" y1="210.62" x2="750.14" y2="210.62"/><line class="cls-1" x1="762.81" y1="210.62" x2="756.48" y2="210.62"/><line class="cls-1" x1="756.59" y1="201.33" x2="750.25" y2="201.33"/><line class="cls-1" x1="762.92" y1="201.33" x2="756.59" y2="201.33"/><line class="cls-1" x1="756.43" y1="191.98" x2="750.1" y2="191.98"/><line class="cls-1" x1="762.76" y1="191.98" x2="756.43" y2="191.98"/><line class="cls-1" x1="755.99" y1="182.59" x2="749.66" y2="182.59"/><line class="cls-1" x1="762.32" y1="182.59" x2="755.99" y2="182.59"/><line class="cls-1" x1="755.27" y1="173.19" x2="748.93" y2="173.19"/><line class="cls-1" x1="761.6" y1="173.19" x2="755.27" y2="173.19"/><line class="cls-1" x1="754.24" y1="163.79" x2="747.91" y2="163.79"/><line class="cls-1" x1="760.58" y1="163.79" x2="754.24" y2="163.79"/><line class="cls-1" x1="752.92" y1="154.4" x2="746.58" y2="154.4"/><line class="cls-1" x1="759.25" y1="154.4" x2="752.92" y2="154.4"/><line class="cls-1" x1="751.27" y1="145.04" x2="744.94" y2="145.04"/><line class="cls-1" x1="757.6" y1="145.04" x2="751.27" y2="145.04"/><line class="cls-1" x1="749.3" y1="135.74" x2="742.96" y2="135.74"/><line class="cls-1" x1="755.63" y1="135.74" x2="749.3" y2="135.74"/><line class="cls-1" x1="746.99" y1="126.5" x2="740.66" y2="126.5"/><line class="cls-1" x1="753.32" y1="126.5" x2="746.99" y2="126.5"/><line class="cls-1" x1="744.34" y1="117.35" x2="738" y2="117.35"/><line class="cls-1" x1="750.67" y1="117.35" x2="744.34" y2="117.35"/><line class="cls-1" x1="741.33" y1="108.29" x2="734.99" y2="108.29"/><line class="cls-1" x1="747.66" y1="108.29" x2="741.33" y2="108.29"/><line class="cls-1" x1="737.96" y1="99.36" x2="731.62" y2="99.36"/><line class="cls-1" x1="744.29" y1="99.36" x2="737.96" y2="99.36"/><line class="cls-1" x1="734.21" y1="90.56" x2="727.87" y2="90.56"/><line class="cls-1" x1="740.54" y1="90.56" x2="734.21" y2="90.56"/><line class="cls-1" x1="730.08" y1="81.91" x2="723.74" y2="81.91"/><line class="cls-1" x1="736.41" y1="81.91" x2="730.08" y2="81.91"/><line class="cls-1" x1="725.55" y1="73.43" x2="719.22" y2="73.43"/><line class="cls-1" x1="731.89" y1="73.43" x2="725.55" y2="73.43"/><line class="cls-1" x1="720.63" y1="65.14" x2="714.29" y2="65.14"/><line class="cls-1" x1="726.96" y1="65.14" x2="720.63" y2="65.14"/><line class="cls-1" x1="715.29" y1="57.05" x2="708.95" y2="57.05"/><line class="cls-1" x1="721.62" y1="57.05" x2="715.29" y2="57.05"/><line class="cls-1" x1="709.52" y1="49.18" x2="703.19" y2="49.18"/><line class="cls-1" x1="715.86" y1="49.18" x2="709.52" y2="49.18"/><line class="cls-1" x1="703.33" y1="41.55" x2="696.99" y2="41.55"/><line class="cls-1" x1="709.66" y1="41.55" x2="703.33" y2="41.55"/><line class="cls-1" x1="696.69" y1="34.18" x2="690.36" y2="34.18"/><line class="cls-1" x1="703.03" y1="34.18" x2="696.69" y2="34.18"/><line class="cls-1" x1="689.45" y1="26.93" x2="683.12" y2="26.93"/><line class="cls-1" x1="695.78" y1="26.93" x2="689.45" y2="26.93"/><line class="cls-1" x1="680.08" y1="18.85" x2="673.74" y2="18.85"/><line class="cls-1" x1="686.41" y1="18.85" x2="680.08" y2="18.85"/><line class="cls-1" x1="670.82" y1="12.43" x2="664.49" y2="12.43"/><line class="cls-1" x1="677.16" y1="12.43" x2="670.82" y2="12.43"/><line class="cls-1" x1="661.7" y1="7.56" x2="655.37" y2="7.56"/><line class="cls-1" x1="668.03" y1="7.56" x2="661.7" y2="7.56"/><line class="cls-1" x1="652.72" y1="4.18" x2="646.38" y2="4.18"/><line class="cls-1" x1="659.05" y1="4.18" x2="652.72" y2="4.18"/><line class="cls-1" x1="643.88" y1="2.19" x2="637.55" y2="2.19"/><line class="cls-1" x1="650.21" y1="2.19" x2="643.88" y2="2.19"/><line class="cls-1" x1="635.21" y1="1.5" x2="628.87" y2="1.5"/><line class="cls-1" x1="641.54" y1="1.5" x2="635.21" y2="1.5"/><line class="cls-1" x1="626.7" y1="2.04" x2="620.36" y2="2.04"/><line class="cls-1" x1="633.03" y1="2.04" x2="626.7" y2="2.04"/><line class="cls-1" x1="618.36" y1="3.72" x2="612.03" y2="3.72"/><line class="cls-1" x1="624.7" y1="3.72" x2="618.36" y2="3.72"/><line class="cls-1" x1="610.22" y1="6.45" x2="603.88" y2="6.45"/><line class="cls-1" x1="616.55" y1="6.45" x2="610.22" y2="6.45"/><line class="cls-1" x1="602.26" y1="10.15" x2="595.93" y2="10.15"/><line class="cls-1" x1="608.6" y1="10.15" x2="602.26" y2="10.15"/><line class="cls-1" x1="594.52" y1="14.73" x2="588.18" y2="14.73"/><line class="cls-1" x1="600.85" y1="14.73" x2="594.52" y2="14.73"/><line class="cls-1" x1="586.98" y1="20.11" x2="580.65" y2="20.11"/><line class="cls-1" x1="593.31" y1="20.11" x2="586.98" y2="20.11"/><line class="cls-1" x1="579.67" y1="26.2" x2="573.34" y2="26.2"/><line class="cls-1" x1="586" y1="26.2" x2="579.67" y2="26.2"/><line class="cls-1" x1="572.59" y1="32.92" x2="566.25" y2="32.92"/><line class="cls-1" x1="578.92" y1="32.92" x2="572.59" y2="32.92"/><line class="cls-1" x1="565.75" y1="40.19" x2="559.41" y2="40.19"/><line class="cls-1" x1="572.08" y1="40.19" x2="565.75" y2="40.19"/><line class="cls-1" x1="559.16" y1="47.91" x2="552.82" y2="47.91"/><line class="cls-1" x1="565.49" y1="47.91" x2="559.16" y2="47.91"/><line class="cls-1" x1="552.83" y1="56" x2="546.49" y2="56"/><line class="cls-1" x1="559.16" y1="56" x2="552.83" y2="56"/><line class="cls-1" x1="546.76" y1="64.38" x2="540.43" y2="64.38"/><line class="cls-1" x1="553.1" y1="64.38" x2="546.76" y2="64.38"/><line class="cls-1" x1="540.98" y1="72.97" x2="534.65" y2="72.97"/><line class="cls-1" x1="547.31" y1="72.97" x2="540.98" y2="72.97"/><line class="cls-1" x1="535.48" y1="81.67" x2="529.15" y2="81.67"/><line class="cls-1" x1="541.81" y1="81.67" x2="535.48" y2="81.67"/><line class="cls-1" x1="530.28" y1="90.41" x2="523.94" y2="90.41"/><line class="cls-1" x1="536.61" y1="90.41" x2="530.28" y2="90.41"/><line class="cls-1" x1="525.38" y1="99.09" x2="519.05" y2="99.09"/><line class="cls-1" x1="531.71" y1="99.09" x2="525.38" y2="99.09"/><line class="cls-1" x1="520.8" y1="107.64" x2="514.46" y2="107.64"/><line class="cls-1" x1="527.13" y1="107.64" x2="520.8" y2="107.64"/><line class="cls-1" x1="516.54" y1="115.96" x2="510.2" y2="115.96"/><line class="cls-1" x1="522.87" y1="115.96" x2="516.54" y2="115.96"/><line class="cls-1" x1="512.61" y1="123.97" x2="506.28" y2="123.97"/><line class="cls-1" x1="518.94" y1="123.97" x2="512.61" y2="123.97"/><line class="cls-1" x1="509.03" y1="131.6" x2="502.69" y2="131.6"/><line class="cls-1" x1="515.36" y1="131.6" x2="509.03" y2="131.6"/><line class="cls-1" x1="505.79" y1="138.74" x2="499.46" y2="138.74"/><line class="cls-1" x1="512.12" y1="138.74" x2="505.79" y2="138.74"/><line class="cls-1" x1="502.92" y1="145.33" x2="496.58" y2="145.33"/><line class="cls-1" x1="509.25" y1="145.33" x2="502.92" y2="145.33"/><line class="cls-1" x1="500.41" y1="151.26" x2="494.08" y2="151.26"/><line class="cls-1" x1="506.75" y1="151.26" x2="500.41" y2="151.26"/><line class="cls-1" x1="498.29" y1="156.47" x2="491.95" y2="156.47"/><line class="cls-1" x1="504.62" y1="156.47" x2="498.29" y2="156.47"/><line class="cls-1" x1="496.55" y1="160.85" x2="490.22" y2="160.85"/><line class="cls-1" x1="502.88" y1="160.85" x2="496.55" y2="160.85"/><line class="cls-1" x1="495.21" y1="164.34" x2="488.87" y2="164.34"/><line class="cls-1" x1="501.54" y1="164.34" x2="495.21" y2="164.34"/><line class="cls-1" x1="494.27" y1="166.83" x2="487.94" y2="166.83"/><line class="cls-1" x1="500.61" y1="166.83" x2="494.27" y2="166.83"/><line class="cls-1" x1="493.75" y1="168.26" x2="487.42" y2="168.26"/><line class="cls-1" x1="500.09" y1="168.26" x2="493.75" y2="168.26"/><line class="cls-1" x1="493.64" y1="170.9" x2="487.31" y2="170.9"/><line class="cls-1" x1="499.97" y1="170.9" x2="493.64" y2="170.9"/><line class="cls-1" x1="493.64" y1="179.3" x2="487.31" y2="179.3"/><line class="cls-1" x1="499.97" y1="179.3" x2="493.64" y2="179.3"/><line class="cls-1" x1="493.64" y1="187.7" x2="487.31" y2="187.7"/><line class="cls-1" x1="499.97" y1="187.7" x2="493.64" y2="187.7"/><line class="cls-1" x1="493.64" y1="196.1" x2="487.31" y2="196.1"/><line class="cls-1" x1="499.97" y1="196.1" x2="493.64" y2="196.1"/><path class="cls-2" d="M181.66,375.1v44c-160.5,18-195,148.49-120,183s109.5-1.5,129-55.5,17.89-96.58,45-84c23.44,10.88,76.5,162,126.94,129.74,32.85-21,114.55-96.74,114.55-233.23s-109.49-109.5-109.49,0,93,135,136.49,109.49,39-124.49,85.5-147,46.49,91.5,102,52.5,102-241.49-7.5-346.48-196.49,141-196.49,141V196.1"/><path class="cls-2" d="M193.66,375.1v44c-160.5,18-195,148.49-120,183s109.5-1.5,129-55.5,17.89-96.58,45-84c23.44,10.88,76.5,162,126.94,129.74,32.85-21,114.55-96.74,114.55-233.23s-109.49-109.5-109.49,0,93,135,136.49,109.49,39-124.49,85.5-147,46.49,91.5,102,52.5,102-241.49-7.5-346.48-196.49,141-196.49,141V196.1"/><path class="cls-4" d="M628.22,179.12a322.66,322.66,0,0,0-205.47-73.47c-178.94,0-324,145.06-324,324,0,105.82,34.38,52.48,99.48-8.79L385,228.1Z"/><path class="cls-7" d="M821.12,493.77l-53.41-30.83a3,3,0,0,1-1.65-2.14c0-.06,0-2.71,0-2.77,0-1.13.75.27,2.36-.65l52-30c2.85-1.65,7.16-1.83,9.63-.4l53.41,30.84c1.14.65,1.69-.93,1.67,0,0,0,0,2.54,0,2.57a4.09,4.09,0,0,1-2.35,3l-52,30C827.9,495,823.59,495.2,821.12,493.77Z"/><path class="cls-8" d="M821.12,491.27l-53.41-30.83A2.87,2.87,0,0,1,766,458c0-1.1.8-2.25,2.36-3.15l52-30c2.85-1.65,7.16-1.83,9.63-.4l53.41,30.84a2.84,2.84,0,0,1,1.67,2.5c0,1.06-.84,2.18-2.36,3.06l-52,30C827.9,492.52,823.59,492.7,821.12,491.27Z"/><path class="cls-7" d="M148.52,315.34,42.86,251.71a5.94,5.94,0,0,1-3.22-4.33c0-.12.07-5.43.06-5.55-.05-2.25,1.5.58,4.75-1.22l105.14-58.14c5.76-3.19,14.4-3.39,19.28-.44l105.66,63.63c2.26,1.36,3.41-1.78,3.33.06,0,.08-.09,5.08-.1,5.16-.19,2.08-1.82,4.22-4.82,5.88L167.8,314.9C162,318.09,153.41,318.29,148.52,315.34Z"/><path class="cls-8" d="M148.61,310.35,43,246.71c-2.21-1.33-3.28-3.07-3.25-4.88,0-2.19,1.68-4.47,4.84-6.22l105.14-58.14c5.76-3.19,14.4-3.38,19.28-.44l105.67,63.63c2.28,1.37,3.34,3.19,3.23,5.06-.11,2.14-1.75,4.34-4.82,6L167.9,309.9C162.13,313.09,153.5,313.29,148.61,310.35Z"/><path class="cls-9" d="M804.21,378.48c-2.36-.89-9.78-2.54-12.92,1.66-3.8,5.08,3.92,8.93,6.47,7S810,385.11,804.21,378.48Z"/><path class="cls-10" d="M824,374.58s-20.29,1-23.12,3.78-1.42,8.13,2.41,8,18.75-.84,18.75-.84Z"/><path class="cls-11" d="M827.9,462l7.45-4.3c1.66-1,1.45-2.66-.47-3.77h0a7.29,7.29,0,0,0-6.54-.27l-7.45,4.3c-1.67,1-1.45,2.66.47,3.77h0A7.29,7.29,0,0,0,827.9,462Z"/><path class="cls-11" d="M822.79,459.85l7.45-4.3c1.67-1,1.46-2.66-.47-3.77h0a7.32,7.32,0,0,0-6.54-.27l-7.45,4.3c-1.66,1-1.45,2.66.47,3.77h0A7.25,7.25,0,0,0,822.79,459.85Z"/><path class="cls-12" d="M827.9,460.85l7.45-4.3c1.66-1,.7-8.74-1.23-9.85h0c-1.92-1.12-4.11,4.84-5.78,5.8l-7.45,4.3c-1.67,1-1.45,2.66.47,3.78h0A7.32,7.32,0,0,0,827.9,460.85Z"/><path class="cls-12" d="M822.79,458.72l7.45-4.3c1.67-1,1.46-2.66-.47-3.77h0c-1.93-1.12-4.87-3.51-6.54-2.55l-7.45,6.58c-1.66,1-1.45,2.66.47,3.77h0A7.32,7.32,0,0,0,822.79,458.72Z"/><path class="cls-13" d="M835.87,416.1l6.55-3.79-6,33.49a9.5,9.5,0,0,1-4.32,5.6c-3.73,2.24-8.63-1.35-9.06-5.7s-7.78-41.52-7.78-41.52l20.64,11.92"/><polygon class="cls-7" points="815.23 404.18 835.87 416.1 842.42 412.31 821.78 400.4 815.23 404.18"/><path class="cls-10" d="M841,383.24a15.49,15.49,0,0,1,1.41,7.23v21.84l-6.55,3.79V386.21Z"/><path class="cls-10" d="M822.44,373.87l14,5.1h0a10.32,10.32,0,0,1,4.58,4.27l-6.22,8.36s-19.56-9-19.56-12.53S822.44,373.87,822.44,373.87Z"/><path class="cls-10" d="M815.23,404.18s0,4.87,7.92,9.27c8.59,4.77,12.72,2.65,12.72,2.65V389.61a5.88,5.88,0,0,0-2.94-5.1l-13.56-7.83a2.76,2.76,0,0,0-4.14,2.39Z"/><circle class="cls-9" cx="828.83" cy="365.5" r="12.86"/><path class="cls-10" d="M836.43,379c8,3.41,22.33,16.6,23.61,21.43s-2,6.67-4.82,5.25S843.15,395.43,837,391.89,836.43,379,836.43,379Z"/><path class="cls-9" d="M860,400.4s8.37,4.25,7,10.35-9.22,3.13-9.36,0S851.38,400.68,860,400.4Z"/><line class="cls-14" x1="877.68" y1="323.14" x2="839.14" y2="345.39"/><line class="cls-14" x1="877.68" y1="434.14" x2="839.14" y2="456.39"/><line class="cls-14" x1="870.25" y1="327.63" x2="870.25" y2="438.63"/><ellipse class="cls-15" cx="157.21" cy="259.54" rx="11.02" ry="6.36" transform="translate(-146.16 265.91) rotate(-60)"/><ellipse class="cls-15" cx="203.97" cy="232.54" rx="11.02" ry="6.36" transform="translate(-99.4 292.91) rotate(-60)"/><polygon class="cls-11" points="128.86 224.6 144.45 215.6 175.63 233.6 160.04 242.6 128.86 224.6"/><polygon class="cls-11" points="160.04 206.6 175.63 197.6 206.8 215.6 191.22 224.6 160.04 206.6"/><polygon class="cls-16" points="183.42 184.1 191.22 179.6 222.39 197.6 214.6 202.1 183.42 184.1"/><rect class="cls-12" x="121.07" y="211.1" width="31.18" height="36" transform="translate(-130.08 232.9) rotate(-60)"/><ellipse class="cls-11" cx="160.04" cy="260.6" rx="11.02" ry="6.36" transform="translate(-145.67 268.9) rotate(-60)"/><ellipse class="cls-11" cx="206.8" cy="233.6" rx="11.02" ry="6.36" transform="translate(-98.9 295.9) rotate(-60)"/><polygon class="cls-13" points="144.45 269.6 144.45 251.6 160.04 224.6 160.04 242.6 175.63 233.6 191.22 206.6 191.22 224.6 206.8 215.6 214.6 202.1 222.39 197.6 222.39 206.6 222.39 224.6 144.45 269.6"/><polygon class="cls-16" points="113.27 251.6 113.28 233.61 144.46 251.61 144.45 269.6 113.27 251.6"/><rect class="cls-12" x="152.24" y="193.1" width="31.18" height="36" transform="translate(-98.9 250.9) rotate(-60)"/><rect class="cls-12" x="187.32" y="181.85" width="15.59" height="36" transform="translate(-75.52 268.9) rotate(-60)"/></svg>