<svg xmlns="http://www.w3.org/2000/svg" xmlns:xlink="http://www.w3.org/1999/xlink" viewBox="0 0 415 415"><defs><style>.cls-1,.cls-14,.cls-17,.cls-21,.cls-23,.cls-25,.cls-26,.cls-6,.cls-7,.cls-8{fill:none;}.cls-1,.cls-25,.cls-26{stroke:#fff;}.cls-1,.cls-14,.cls-16,.cls-17,.cls-21,.cls-23,.cls-25,.cls-26,.cls-6,.cls-7,.cls-8{stroke-miterlimit:10;}.cls-1{clip-rule:evenodd;}.cls-2{fill:#f4d03e;}.cls-3{fill:#1a0960;}.cls-4{fill:#471caf;}.cls-5{fill:#5d3acc;}.cls-6{stroke:#a0b3c1;stroke-dasharray:8;}.cls-7,.cls-8{stroke:#741ce5;}.cls-14,.cls-8{stroke-dasharray:6;}.cls-9{fill:#f2bf40;}.cls-10{fill:#c6590e;}.cls-11{fill:#dd7c12;}.cls-12{fill:#7a270e;}.cls-13{fill:#47212d;}.cls-14,.cls-21{stroke:#a02ff7;}.cls-15,.cls-16{fill:#fff;}.cls-16,.cls-23{stroke:#471caf;}.cls-17{stroke:#000;}.cls-18{fill:#a02ff7;}.cls-19{fill:#521ee2;}.cls-20{fill:#e36e81;}.cls-22{fill:#dee4eb;}.cls-24{clip-path:url(#clip-path);}.cls-26{fill-rule:evenodd;}</style><clipPath id="clip-path"><path class="cls-1" d="M45.75,352.54A9.46,9.46,0,1,1,55.2,362,9.46,9.46,0,0,1,45.75,352.54Z"/></clipPath></defs><title>physical-science-and-engineering</title><g id="physical_science_and_engineering"><circle class="cls-2" cx="322.37" cy="60.62" r="31.57"/><path class="cls-3" d="M207.58,10C166.38,10,128,12,95.72,32.7a38.49,38.49,0,0,1,4.53,18.17c0,21.36,32.68,18.67,11.32,18.67-7.53,0-47.23,11.87-70.5,14.12C26.9,124.1,52.15,153.42.08,229.5a10.75,10.75,0,0,0,0,2.6c12.36,49.51,117.8,66.54,112.25,152.57,15-9.27,31.82-11.3,47.89.54,16.24,12,6.76,29.79,47.34,29.79C322.17,415,415,322.1,415,207.5c0-19.82-23.49-29.17-29.26-47.3-11-34.51-9.91-74.61-27.34-95.2-16.28-19.23-61.82-12.8-88.52-19-26.48-6.14-37.18-21.57-60-45.1C209,.73,207.88,10.05,207.58,10Z"/><path class="cls-4" d="M396.11,186.72A214.27,214.27,0,0,0,358.4,65C320.57,25,227,95.54,199.58,69c-9.75-9.42,21.83-69,8-69-53.9,0-90.21,18.81-111.86,32.7a38.67,38.67,0,0,1-54.65,51c-14.72,19.76-6,52.24-13,76.54-5.22,18.2-28,49.42-28,69.3,0,15.73,55.12.68,19.61,61.23,2.22,16,31.3,16,45,16,17.41,30.36,0,70.8,34.9,78,4.78,1,9.43,2.39,13.42-.43C133.5,369.78,157.23,362,180.84,362c39.47,0,76.46,29.38,108.26,10.84,46.82-27.29,101.4-64.75,117.13-117.74C412,235.64,396.11,208,396.11,186.72Z"/><path class="cls-5" d="M156.32,124.1A136.57,136.57,0,0,0,38.22,192,7.71,7.71,0,0,0,34,190.85c-9.16,0-10.17,12.66-3,15.45-15.71,46.37-14.57,76.61-11.29,84.43,5.9,14,23.56-9.79,29.1,2.45,21.67,47.87,72.45,72.93,107.53,44.17,48.92-40.1,71.89,44.71,96.61,20A136.63,136.63,0,0,0,156.32,124.1Z"/><path class="cls-6" d="M30.66,93.35C33,67,37,40.11,80.26,15.86,164.73-31.44,361,120.53,382.38,352.54c2.25,32.66-30.66,17.16-30.66,17.16"/><path d="M249.08,249.86c.39,1.41,12.37,27.85,12.57,30.05,2.28,24.93-7,96.49-12.22,130.87L180.82,306.69Z"/><path class="cls-3" d="M223.49,314.24l25.94,96.54,46.69-26.3,23.57-12.83s17.12-21.65,24.63-58C287.71,313.69,223.49,314.24,223.49,314.24Z"/><path class="cls-4" d="M336.63,335.43c-26.06,15.05-68.33,15.05-94.4,0-10.37-6-16.61-13.45-18.74-21.22-3.22-11.76,3-24.23,18.73-33.29,26.07-15.05,68.34-15.05,94.41,0,15.47,8.93,21.76,21.16,18.87,32.77C353.53,321.64,347.24,329.31,336.63,335.43Z"/><path d="M346.7,275.25s25.53,50.2-38.57,64.77c-41.82,9.52-112.63-50.46-112.63-50.46L291,218.77Z"/><polygon class="cls-4" points="55.2 230.18 180.82 306.69 374.77 189.68 55.2 230.18"/><polygon class="cls-2" points="179.91 302.18 374.77 189.68 250.06 117.68 55.2 230.18 179.91 302.18"/><polygon class="cls-7" points="179.91 293.18 359.18 189.68 250.06 126.68 70.79 230.18 179.91 293.18"/><ellipse class="cls-7" cx="211.09" cy="212.18" rx="44.09" ry="25.46"/><line class="cls-7" x1="208.32" y1="186.77" x2="167.08" y2="210.58"/><line class="cls-7" x1="222.5" y1="187.59" x2="168.5" y2="218.77"/><line class="cls-7" x1="233.49" y1="190.24" x2="173.1" y2="225.11"/><line class="cls-7" x1="242.26" y1="194.18" x2="179.91" y2="230.18"/><line class="cls-7" x1="249.08" y1="199.24" x2="188.69" y2="234.11"/><line class="cls-7" x1="253.68" y1="205.59" x2="199.68" y2="236.76"/><line class="cls-7" x1="255.09" y1="213.77" x2="213.85" y2="237.58"/><ellipse class="cls-7" cx="244.17" cy="160.58" rx="8.28" ry="4.78"/><path class="cls-8" d="M230.57,160.41c-25.8,1.24-55.43,17.89-71.75,41.91-19.64,28.89.56,58.8,28.88,65.22s54-13.1,73.68-42c16.88-24.85,14-49.5-5.11-60"/><path class="cls-9" d="M142,159.07s1.19-4.12-2.42-6.11-6.85.67-6.85.67Z"/><path class="cls-10" d="M121.31,234.87s4,4.09,18-7.46c12.1-9.95,16.36-29.94.41-45.89-22.09-22.1,4.52-33.24,2.27-22.45,2.66-10.65-17.41-16.46-25.83-14.63-10.59,2.31-24.89,19.87-12.39,40.77S129.91,233.85,121.31,234.87Z"/><path class="cls-11" d="M130.63,216c-6.47-12.17-18.3-28.41-26-29.22s-10.39,4.19-9.38,9c.77,3.7,3,5.56,5.07,7.49,2.49,2.3,4.77,4.7,4.21,10.44-1,10.55,14.7,16.5,18.71,11.48S130.63,216,130.63,216Z"/><path class="cls-11" d="M95.62,221.05c1.43-8.82,7.23-13.82,8.46-24.06,0,0,13.11,25.81,11.06,31.13s-9.63,2.46-11.47,3.69-1,4.51-1,4.51c-2.47,2.67-7.53,2-8.9,1.44-.48-.89.13-4.11,2.74-4.86C96.64,230,94.25,229.47,95.62,221.05Z"/><path class="cls-9" d="M102,198.14c8,1.51,10.14,8.62,9.33,19.64-1,14.3,2.36,15.06,4,16.69-9.69.14-16.42-4.86-14.75-18,1.22-9.59,2.08-11.06-.3-13.17S97.92,197.37,102,198.14Z"/><path class="cls-11" d="M109.52,220.72c-.84,13.73,12.22,16.77,12.63,20.86a4.13,4.13,0,0,0-1.91,5.69,10.53,10.53,0,0,0,9.59-3.27,28.84,28.84,0,0,1-.69-4.75C130.32,235,136,227,130.63,216,124.31,203.06,110.34,207.45,109.52,220.72Z"/><path class="cls-11" d="M93.59,171.13h4.15a9.53,9.53,0,0,1,9.53,9.53v13.69a0,0,0,0,1,0,0H84.06a0,0,0,0,1,0,0V180.67A9.53,9.53,0,0,1,93.59,171.13Z" transform="translate(253.39 315.67) rotate(157.76)"/><path class="cls-11" d="M104.35,173.29l-4.53-11.06c-5.37,2.2-3.49,7.7-3.49,7.7S99,175.49,104.35,173.29Z"/><path class="cls-11" d="M82.86,182.08,78.33,171c5.37-2.2,7.89,3,7.89,3S88.23,179.89,82.86,182.08Z"/><path class="cls-12" d="M94.94,185.78a1.78,1.78,0,0,1,1.3-1.63,1.83,1.83,0,0,1,2.08.25c.38.93.6,2.7-.66,3.22S95.32,186.72,94.94,185.78Z"/><path class="cls-12" d="M103.29,177.91a.89.89,0,1,0,1.65-.67c-.19-.46-.88-1.09-1.33-.9S103.11,177.46,103.29,177.91Z"/><path class="cls-12" d="M90.43,183a.89.89,0,0,0,1.64-.67c-.18-.46-.87-1.09-1.33-.9S90.24,182.56,90.43,183Z"/><path class="cls-13" d="M80.26,183.35,81.77,187a3.61,3.61,0,0,0,4.71,2l5.46-2.23a3.63,3.63,0,0,0,2-4.71l-.54-1.31,2.76-1.13.54,1.31a3.6,3.6,0,0,0,4.7,2l5.47-2.23a3.63,3.63,0,0,0,2-4.71l-1.51-3.68-12.15,5,.53,1.29-2.76,1.12-.53-1.28Zm16.44-5.46,10-4.08,1.06,2.6a2.43,2.43,0,0,1-1.33,3.17l-5.47,2.24a2.43,2.43,0,0,1-3.17-1.33ZM81.79,184l10-4.08,1.06,2.59a2.44,2.44,0,0,1-1.33,3.18L86,187.92a2.43,2.43,0,0,1-3.17-1.34Z"/><path class="cls-11" d="M109,192.46a3.5,3.5,0,0,1-4.12-5.5c.12-.13,7.4-8.37,6.62-15.83-.3-2.86-1.79-5.23-4.55-7.26-.92-.67-2.65-2.29-2.65-2.29l1.89-2.6a3.5,3.5,0,0,1,4.9-.75c4.39,3.22,6.87,7.33,7.38,12.21,1.08,10.59-8,20.78-8.39,21.21A3.37,3.37,0,0,1,109,192.46Z"/><path class="cls-11" d="M80.44,206.29a12.93,12.93,0,0,1-9.54-4,3.49,3.49,0,0,1,0-4.94,34.08,34.08,0,0,1,3.18-2.28,23.13,23.13,0,0,0,1.77,2.33c2.45,2.5,6.35,2.46,11.6-.13a41.26,41.26,0,0,0,8.29-5.6,3.5,3.5,0,0,1,4.7,5.19,48.35,48.35,0,0,1-9.9,6.69A23.2,23.2,0,0,1,80.44,206.29Z"/><path class="cls-14" d="M55.2,352.54s10-50.23,39.29-115.68c24.65-55.15,63-121.12,120.49-176.93,122-118.4,186.23-20,162.53,27.23"/><polyline class="cls-15" points="158.87 237.81 166.77 245.85 175.6 243.92 166.8 237.96 162.63 236.72 158.87 237.81"/><circle class="cls-16" cx="55.2" cy="352.54" r="36.15"/><path class="cls-17" d="M267.71,119l7.56-4.37a6.1,6.1,0,0,0,2.56-4.87v-2.51l-12.67,7.31v2.51C265.16,119,266.3,119.85,267.71,119Z"/><path class="cls-15" d="M284.62,145.24s-16.88-22.39-14.51-41.44c2.62-21,23.27-23.46,29.18-22.73s16.32,5.86,20.51,15,2.32,19.55-1.19,24.23-6.27,19.46,3.76,30c-5.33,10.68-19.21,7-19.21,7a94.6,94.6,0,0,0-10.35-14.08Z"/><path class="cls-18" d="M349,236.72c2.33-34.37,18-77.75-1.47-110,0,0-12.83,1.71-38.75,17.31S280,165.35,280,165.35c-17.64,18.58,10.51,89.89-3.38,136.83s-14.07,58.94-14.07,58.94c27.82,15.64,59.35,6.27,78.35-7.83,15.21-11.3,22.94-28.7,22.94-28.7C363.81,297.93,346.68,271.1,349,236.72Z"/><path class="cls-15" d="M174.81,251.32l.79-7.4-8.59-1.5-8.14-4.61c-4.74,7.29-1.48,19-1.13,21.19,18.12,4.74,59.71-1.8,59.71-1.8Z"/><path class="cls-18" d="M280,165.35c-12.53,14.73-37.91,83-37.91,83l-59.37,2-1.85,11.91c61.33,12.87,80,3.32,80,3.32,28.58-57,35.73-38.92,35.73-38.92S292.5,150.63,280,165.35Z"/><polygon class="cls-19" points="164.91 241.23 153.68 228.16 156.84 225.68 170.45 243.02 167.01 242.42 164.91 241.23"/><polygon class="cls-20" points="180.82 306.69 179.91 302.18 55.2 230.18 180.82 306.69"/><circle class="cls-20" cx="147.5" cy="141.39" r="6.18"/><circle class="cls-21" cx="225.02" cy="50.87" r="14.93"/><circle class="cls-22" cx="381.38" cy="50.87" r="6.18"/><path d="M267.58,99.84c1.41,17.45,22.25,30.41,32.1,30.69,10.7-1.69,15.33-6.42,18.93-10.25,10.07-14.81,6.6-30-5.45-38.91C296.58,69.15,267,74.5,267.58,99.84Z"/><path d="M281.25,122.25c14.56,12.87,6.95,17.61,3.79,16.44,9.57,5.07,31.86-1.12,37.33-13.23s7.94-23.84-3.09-38.1-40.15,23.74-40.15,23.74S277.23,118.69,281.25,122.25Z"/><line class="cls-17" x1="265.16" y1="114.6" x2="292.95" y2="131.42"/><circle class="cls-22" cx="52.15" cy="40.12" r="20.49"/><path class="cls-23" d="M74.12,355.2v-5.32H70.94a15.89,15.89,0,0,0-2.73-6.58l2.25-2.25-3.76-3.77-2.25,2.25a15.91,15.91,0,0,0-6.59-2.72v-3.18H52.54v3.18A15.87,15.87,0,0,0,46,339.53l-2.25-2.25L40,341.05l2.25,2.25a15.89,15.89,0,0,0-2.73,6.58H36.29v5.32h3.18a15.89,15.89,0,0,0,2.73,6.58L40,364l3.76,3.76L46,365.54a15.89,15.89,0,0,0,6.58,2.73v3.18h5.32v-3.18a15.93,15.93,0,0,0,6.59-2.73l2.25,2.25L70.46,364l-2.25-2.25a15.89,15.89,0,0,0,2.73-6.58Z"/><g class="cls-24"><rect class="cls-25" x="38.99" y="336.33" width="32.42" height="32.42"/></g><path class="cls-26" d="M45.75,352.54A9.46,9.46,0,1,1,55.2,362,9.46,9.46,0,0,1,45.75,352.54Z"/><path class="cls-23" d="M45.75,352.54A9.46,9.46,0,1,1,55.2,362,9.46,9.46,0,0,1,45.75,352.54Z"/><path class="cls-5" d="M153.75,98.37c-3.22,0-3.22,5,0,5S157,98.37,153.75,98.37Z"/><path class="cls-5" d="M124,71.15a.5.5,0,0,0,0,1A.5.5,0,0,0,124,71.15Z"/><path class="cls-5" d="M91.3,47.09a.5.5,0,0,0,0,1A.5.5,0,0,0,91.3,47.09Z"/><path class="cls-5" d="M17.53,146.2c-3.86,0-3.87,6,0,6S21.4,146.2,17.53,146.2Z"/><path class="cls-18" d="M368.34,358.63c-3.22,0-3.22,5,0,5S371.56,358.63,368.34,358.63Z"/><path class="cls-18" d="M377.21,386.85a.5.5,0,0,0,0,1A.5.5,0,0,0,377.21,386.85Z"/><path class="cls-18" d="M396.69,389.72a.5.5,0,0,0,0,1A.5.5,0,0,0,396.69,389.72Z"/><path class="cls-4" d="M191.57,119.23c-10.3,0-10.32,16,0,16S201.88,119.23,191.57,119.23Z"/><path class="cls-4" d="M122.81,316.62c-12.87,0-12.89,20,0,20S135.7,316.62,122.81,316.62Z"/><path class="cls-4" d="M138.28,299.41c-2.57,0-2.58,4,0,4S140.86,299.41,138.28,299.41Z"/><circle class="cls-15" cx="387.56" cy="121.01" r="10.41"/><path class="cls-4" d="M156.36,68.22c-2.57,0-2.58,4,0,4S158.94,68.22,156.36,68.22Z"/><path class="cls-5" d="M124.26,96.13c-5.79,0-5.8,9,0,9S130.06,96.13,124.26,96.13Z"/><path class="cls-5" d="M166.5,49.83c-4.51,0-4.52,7,0,7S171,49.83,166.5,49.83Z"/><path class="cls-2" d="M132.71,36.63a1.5,1.5,0,0,0,0,3A1.5,1.5,0,0,0,132.71,36.63Z"/><path class="cls-20" d="M376,236a1.5,1.5,0,0,0,0,3A1.5,1.5,0,0,0,376,236Z"/><path class="cls-20" d="M174.94,347.47a1.5,1.5,0,0,0,0,3A1.5,1.5,0,0,0,174.94,347.47Z"/></g></svg>