<?xml version="1.0" encoding="UTF-8"?>
<svg width="374px" height="233px" viewBox="0 0 374 233" version="1.1" xmlns="http://www.w3.org/2000/svg" xmlns:xlink="http://www.w3.org/1999/xlink">
    <!-- Generator: Sketch 57.1 (83088) - https://sketch.com -->
    <title>mains-illustration</title>
    <desc>Created with Sketch.</desc>
    <defs>
        <linearGradient x1="-0.000103372128%" y1="50.0000991%" x2="100.00005%" y2="50.0000991%" id="linearGradient-1">
            <stop stop-color="#2AB3FF" offset="0%"></stop>
            <stop stop-color="#3DD68C" offset="100%"></stop>
        </linearGradient>
        <linearGradient x1="-8.43859407e-05%" y1="50.0000823%" x2="99.9999852%" y2="50.0000823%" id="linearGradient-2">
            <stop stop-color="#2AB3FF" offset="0%"></stop>
            <stop stop-color="#3DD68C" offset="100%"></stop>
        </linearGradient>
        <linearGradient x1="-8.38392871e-07%" y1="50.0002337%" x2="100.000129%" y2="50.0002337%" id="linearGradient-3">
            <stop stop-color="#2AB3FF" offset="0%"></stop>
            <stop stop-color="#3DD68C" offset="100%"></stop>
        </linearGradient>
        <linearGradient x1="-8.38392871e-07%" y1="50.000259%" x2="100.000129%" y2="50.000259%" id="linearGradient-4">
            <stop stop-color="#461CAF" offset="0%"></stop>
            <stop stop-color="#CC64FF" offset="100%"></stop>
        </linearGradient>
    </defs>
    <g id="Desktop" stroke="none" stroke-width="1" fill="none" fill-rule="evenodd">
        <g id="LP-D-10-Bonus---How-it-works" transform="translate(-794.000000, -88.000000)">
            <g id="hero" transform="translate(81.000000, -7.000000)">
                <g id="illustration">
                    <g id="mains-illustration" transform="translate(713.000000, 94.882022)">
                        <path d="M53.2463316,127.908495 C53.1476959,129.246555 53.9072622,130.538081 55.5624687,131.488111 L132.878394,175.875353 C136.321281,177.852733 142.336614,177.604307 146.312997,175.321944 L221.698688,132.042236 C223.763557,130.856667 224.873027,129.355376 224.979583,127.908495 L224.979583,125.760725 L53.2463316,125.760725 L53.2463316,129.340341" id="Fill-1" fill="#1A0960"></path>
                        <g id="Group-5" transform="translate(52.557682, 76.246328)" fill="url(#linearGradient-1)">
                            <path d="M79.3555947,2.10195067 L3.96918367,45.3809431 C1.9043154,46.566512 0.795564658,48.0678031 0.689009392,49.514684 L0.689009392,49.514684 C0.590373774,50.8527445 1.34994003,52.1442701 3.0051465,53.0935843 L3.0051465,53.0935843 L80.3203519,97.480826 C83.7639589,99.458206 89.7792917,99.2104965 93.755675,96.9274173 L93.755675,96.9274173 L169.141366,53.6484248 C171.206234,52.4628559 172.315705,50.9608489 172.42154,49.514684 L172.42154,49.514684 C172.520176,48.1759075 171.75989,46.8850979 170.105403,45.9350677 L170.105403,45.9350677 L92.7901979,1.54854199 C91.2300272,0.652922006 89.1414,0.213345129 86.9548572,0.213345129 L86.9548572,0.213345129 C84.3147344,0.213345129 81.5306181,0.853380517 79.3555947,2.10195067" id="Fill-3"></path>
                        </g>
                        <g id="Group-11" transform="translate(150.473332, 132.088341)">
                            <path d="M0.127218349,51.6433386 C0.0285827303,52.9821151 0.788868956,54.2729247 2.44335546,55.2229548 L79.7585608,99.6101965 C83.2028878,101.587577 89.2175006,101.339867 93.193884,99.0567878 L168.579575,55.7770794 C170.645163,54.5915105 171.753914,53.0902195 171.859749,51.6433386 L171.859749,49.4955688 L0.127218349,49.4955688 L0.127218349,53.0751851" id="Fill-6" fill="#1A0960"></path>
                            <path d="M78.7940197,2.08262074 L3.40832859,45.3616132 C1.34274035,46.547898 0.234709573,48.0491891 0.127434339,49.4953541 L0.127434339,49.4953541 C0.0287987207,50.8341305 0.789084946,52.1249402 2.44357145,53.0749703 L2.44357145,53.0749703 L79.7587768,97.462212 C83.2023839,99.439592 89.2177166,99.1918825 93.19338,96.9080874 L93.19338,96.9080874 L168.579071,53.6290949 C170.644659,52.443526 171.75341,50.9422349 171.859965,49.4953541 L171.859965,49.4953541 C171.865005,49.4230458 171.868605,49.3507376 171.868605,49.2791452 L171.868605,49.2791452 L171.868605,49.2619631 C171.868605,48.0083815 171.101839,46.8113578 169.543828,45.9164537 L169.543828,45.9164537 L92.2279029,1.52921207 C90.6684522,0.633592078 88.5812649,0.194731125 86.3940021,0.194731125 L86.3940021,0.194731125 C83.7538794,0.194731125 80.9690431,0.834766512 78.7940197,2.08262074" id="Fill-9" fill="url(#linearGradient-2)"></path>
                        </g>
                        <path d="M0.00419276492,158.00734 C-0.0447650602,158.676729 0.334658084,159.322491 1.16190134,159.797148 L39.819864,181.990769 C41.5420275,182.979459 44.5493339,182.855605 46.5371656,181.713707 L84.2303711,160.074211 C85.2628053,159.481426 85.8171806,158.730423 85.8704583,158.00734 L85.8704583,155.501609 L0.00419276492,155.501609 L0.00419276492,158.723264" id="Fill-12" fill="#1A0960"></path>
                        <g id="Group-17" transform="translate(0.000017, 130.656495)" fill="url(#linearGradient-3)">
                            <path d="M39.3376125,1.13831797 L1.64440695,22.7785301 C0.611972814,23.3713146 0.0575974413,24.1223181 0.00359984008,24.8454005 L0.00359984008,24.8454005 C0.00143993603,24.8740375 4.40536496e-13,24.9033903 4.40536496e-13,24.9320273 L4.40536496e-13,24.9320273 L4.40536496e-13,24.9864374 C0.0107995202,25.6042792 0.393102537,26.193484 1.16274835,26.6344928 L1.16274835,26.6344928 L39.8199911,48.8288295 C41.5421546,49.8168036 44.549461,49.6929489 46.5372926,48.5517672 L46.5372926,48.5517672 L84.2304982,26.9115551 C85.2629323,26.3187706 85.8173077,25.568483 85.8705853,24.8454005 L85.8705853,24.8454005 C85.9195432,24.1760123 85.54012,23.5309655 84.7121568,23.0555924 L84.7121568,23.0555924 L46.0541941,0.861255673 C45.2744687,0.41380364 44.2305151,0.194731125 43.1376037,0.194731125 L43.1376037,0.194731125 C41.8171823,0.194731125 40.4247642,0.514032895 39.3376125,1.13831797" id="Fill-15"></path>
                        </g>
                        <g id="Group-68" transform="translate(76.316627, 0.358463)">
                            <path d="M5.04294397,63.514778 C5.04294397,63.514778 -1.75427407,54.9380174 5.04294397,51.918969 C11.840162,48.8999207 13.5356867,57.3771679 13.5356867,57.3771679 L5.58076008,56.3326359 L5.04294397,63.514778 Z" id="Fill-18" fill="#F77D00"></path>
                            <path d="M61.4947002,142.95083 C79.0885586,142.95083 107.494897,113.476986 71.0486758,105.702775 C21.316885,95.0935083 37.0553859,127.805474 37.0553859,127.805474 C37.0553859,127.805474 54.701802,133.132658 61.4947002,142.95083" id="Fill-20" fill="#4C6370"></path>
                            <path d="M91.7579798,20.9628056 C91.7579798,20.9628056 93.4117463,15.2597609 88.3935692,12.5098997 C83.3746722,9.76075444 78.8683924,13.4269974 78.8683924,13.4269974 L91.7579798,20.9628056 Z" id="Fill-22" fill="#FFBF2E"></path>
                            <path d="M62.9789143,125.798025 C62.9789143,125.798025 68.5082686,131.450239 88.0402809,115.475843 C104.865933,101.714367 110.79559,74.0689901 88.6097756,52.0078151 C57.873621,21.4443355 94.8914966,6.02692831 91.7581958,20.9625192 C95.4624312,6.22881866 67.5521511,-1.81028354 55.8411513,0.723368854 C41.0998062,3.91280694 26.7774824,28.2076625 44.1589503,57.1080524 C61.5404182,86.0084422 74.9469426,124.381213 62.9789143,125.798025" id="Fill-24" fill="#E15900"></path>
                            <path d="M36.4631402,87.9352065 C36.9750374,73.8644509 33.5422299,57.6767102 38.9376703,54.7815166 C44.3331106,51.8863229 55.3450214,53.0289364 55.3450214,53.0289364 C55.3450214,53.0289364 78.3048014,91.3251031 78.6899843,108.005399 C59.4934771,104.629821 36.4631402,87.9352065 36.4631402,87.9352065" id="Fill-26" fill="#F77D00"></path>
                            <path d="M69.6189633,64.7424431 C69.6189633,64.7424431 70.459166,58.4895695 78.6905603,59.3665754 C86.9219546,60.2442974 84.4114261,75.7612179 77.637967,78.419441 C74.2757164,69.7052231 69.6189633,64.7424431 69.6189633,64.7424431" id="Fill-28" fill="#F77D00"></path>
                            <path d="M27.2462536,106.687599 C29.242005,94.4796757 37.3034868,87.5667208 39.0134109,73.3993155 C39.0134109,73.3993155 57.2494808,109.10026 54.3998474,116.467111 C51.550214,123.833961 41.0070023,119.86703 38.4431962,121.567348 C35.8786701,123.26695 37.0550979,127.805187 37.0550979,127.805187 C33.6266102,131.498635 26.5788433,130.551469 24.6745279,129.794022 C24.0078375,128.56335 24.8653194,124.112455 28.4838786,123.070787 C28.6739502,119.015081 25.3412183,118.33567 27.2462536,106.687599" id="Fill-30" fill="#F77D00"></path>
                            <path d="M49.1195299,102.163465 C49.1195299,121.999551 52.404744,122.983945 54.6841627,125.250558 C41.1977219,125.439562 31.2528036,118.43998 34.1686741,100.317099 C37.1925398,81.5276934 39.5302759,78.3432667 38.9370223,70.943484 C38.3452086,63.5444172 48.7235475,65.1459375 50.8776918,73.3991007 C53.0325561,81.6529799 49.1195299,95.4108771 49.1195299,102.163465" id="Fill-32" fill="#FFBF2E"></path>
                            <path d="M46.5919382,106.220602 C45.4104707,125.220489 63.5803035,129.416516 64.1505182,135.083048 C59.5578422,137.245852 60.8372254,142.360408 61.4945562,142.951045 C67.1362256,143.790107 72.147203,141.612268 74.8298038,138.432853 C74.7549271,137.966787 73.6411366,132.690433 73.8758462,131.85853 C75.5144934,126.033778 83.3758242,114.843898 75.9479141,99.7078484 C67.1592645,81.7990283 47.7323676,87.8729211 46.5919382,106.220602" id="Fill-34" fill="#F77D00"></path>
                            <path d="M64.312007,31.6890541 L32.50454,26.112012 L28.0882562,51.0189819 C27.4294855,54.7317599 29.9220148,58.2712845 33.6557689,58.9256383 L51.9443964,62.1322586 C55.6774306,62.7866124 59.2369525,60.308802 59.8957232,56.5960241 L64.312007,31.6890541 Z" id="Fill-36" fill="#F77D00"></path>
                            <path d="M62.827073,40.0641391 L65.7148647,23.7818966 C57.762818,22.3872781 55.8894612,30.2116033 55.8894612,30.2116033 C55.8894612,30.2116033 54.8750263,38.6702365 62.827073,40.0641391" id="Fill-38" fill="#F77D00"></path>
                            <path d="M31.01975,34.4877413 L33.9068217,18.2047828 C41.8588685,19.5986854 40.9279498,27.5883889 40.9279498,27.5883889 C40.9279498,27.5883889 38.9717967,35.8816439 31.01975,34.4877413" id="Fill-40" fill="#F77D00"></path>
                            <path d="M42.4886245,47.7316055 C42.8522084,47.0357281 43.8544038,46.542457 45.2367424,46.785155 C46.619801,47.027137 47.4535239,47.9478143 47.4945621,48.6093274 C47.2512129,49.9839001 46.1885401,52.2125692 44.3331826,51.8868241 C42.477105,51.5617949 42.2445553,49.1061782 42.4886245,47.7316055" id="Fill-42" fill="#8D2204"></path>
                            <path d="M52.8894985,44.2617403 C52.7707037,44.9296967 53.2192438,45.5661525 53.890974,45.6842798 C54.5627041,45.8016912 55.2027557,45.355671 55.3215504,44.6884306 C55.4396252,44.0204742 55.0990803,42.7754836 54.4280701,42.6580722 C53.75562,42.5399449 53.0075732,43.5937839 52.8894985,44.2617403" id="Fill-44" fill="#8D2204"></path>
                            <path d="M36.4821473,41.3848027 C36.3640726,42.053475 36.8126127,42.6899308 37.4843428,42.8073422 C38.155353,42.9254695 38.7961245,42.4794494 38.9141993,41.811493 C39.032994,41.1435366 38.6917292,39.898546 38.020719,39.7811346 C37.3489888,39.6630073 36.6009421,40.7168463 36.4821473,41.3848027" id="Fill-46" fill="#8D2204"></path>
                            <path d="M28.3592522,35.932188 C28.3592522,35.932188 31.1808068,34.972135 36.4632122,35.9708479 C41.7456175,36.968129 43.1193165,38.5202506 43.1193165,38.5202506 L42.4425466,42.341133 C42.117841,44.169601 40.3582391,45.3945457 38.5194408,45.0723802 L30.4277203,43.6527044 C28.588922,43.3305389 27.3570567,41.5815384 27.6817623,39.7530704 L28.3592522,35.932188 Z M50.423392,39.8010373 C50.423392,39.8010373 51.8726876,38.3534405 57.9369782,39.7351724 C64.0012688,41.1176202 65.1841763,42.3898158 65.1841763,42.3898158 L64.5074064,46.2099822 C64.1827008,48.0384502 62.4230989,49.262679 60.5850206,48.9405135 L52.4933001,47.5215536 C50.6545017,47.1993882 49.4226365,45.4503877 49.7466221,43.6219197 L50.423392,39.8010373 Z M27.0337911,34.0507417 L26.0726338,39.4709967 C25.5924151,42.1814821 27.418254,44.775272 30.1440529,45.2527929 L38.2364934,46.6710368 C40.9622923,47.1492736 43.5700165,45.3336922 44.0509551,42.6232068 L44.3922199,40.6973732 L48.4794784,41.4140124 L48.1382135,43.3398459 C47.6572749,46.0503314 49.4838338,48.6434054 52.2096327,49.1216421 L60.3006332,50.5398861 C63.0264321,51.0181228 65.6348763,49.2018255 66.1150949,46.492056 L67.0762522,41.0718011 C67.0762522,41.0718011 63.9220724,39.365756 58.3977578,38.1673004 C52.8734432,36.968129 49.0993708,37.919591 49.0993708,37.919591 L48.7631458,39.8146398 L44.6758873,39.0980007 L45.0121124,37.2029518 C45.0121124,37.2029518 43.8695232,35.6093066 37.2436575,34.2146882 C30.6185118,32.8186378 27.0337911,34.0507417 27.0337911,34.0507417 L27.0337911,34.0507417 Z" id="Fill-48" fill="#501B29"></path>
                            <polygon id="Fill-50" fill="#18AA68" points="5.58076008 56.3324927 79.3011652 66.0139228 73.7379723 107.508119 0.279635578 93.2655414"></polygon>
                            <polygon id="Stroke-52" stroke="#035847" stroke-width="0.719968016" points="9.31559417 60.8866953 74.2754284 69.704722 70.0031382 101.570466 5.04258399 89.5658649"></polygon>
                            <polygon id="Fill-54" fill="#035847" points="33.2499949 76.611162 30.681149 78.4739943 29.3564079 76.5352741 34.2111522 73.0680578 36.6662432 73.4739863 34.4681808 86.6075984 31.6545458 86.1422483"></polygon>
                            <path d="M43.1368837,76.8928778 C41.2361681,76.5778716 40.2116537,78.3304517 39.8055917,80.7517041 C39.4002497,83.1736725 39.7969521,85.1825531 41.6969477,85.4982753 C43.5789441,85.8082701 44.6070584,84.03636 45.0124004,81.6136757 C45.4177424,79.1917074 45.0188801,77.2035885 43.1368837,76.8928778 M43.5515853,74.4107719 C47.3155781,75.0321933 48.4516876,78.7020159 47.8850728,82.0897647 C47.3184579,85.4753658 45.044799,88.6010867 41.2822461,87.9775175 C37.4995341,87.3518006 36.3864636,83.6669436 36.9530784,80.2799107 C37.5196932,76.8928778 39.7695933,73.785055 43.5515853,74.4107719" id="Fill-56" fill="#035847"></path>
                            <path d="M64.0166762,86.2201407 C64.0922728,85.7619498 63.6934105,85.4798761 63.1267957,85.2092571 L62.8373685,86.9382117 C63.5609364,86.9561098 63.9482792,86.6260692 64.0166762,86.2201407 M62.5263424,82.9254619 L62.7876907,81.3561581 C62.1447593,81.3132027 61.7538167,81.5795262 61.67966,82.0241145 C61.6148629,82.4078494 61.9784467,82.6834799 62.5263424,82.9254619 M62.6955348,88.4760149 L62.5069032,89.6000144 L61.3261557,89.4052833 L61.5119074,88.2934545 C60.2253246,87.9662775 59.3642428,87.3155033 58.7954681,86.5236922 L59.9747757,85.3467144 C60.3664383,85.9072823 60.9668916,86.4384973 61.7739758,86.7248666 L62.0994013,84.7847146 C60.8718559,84.2642384 59.562234,83.5397241 59.8408617,81.8723388 C60.0518123,80.611598 61.2375996,79.7166939 62.9280845,79.8312416 L63.120316,78.6821848 L64.3017835,78.8769159 L64.1052322,80.051746 C65.0944683,80.3159217 65.8727537,80.8507163 66.4415284,81.5680714 L65.2463815,82.6892072 C64.8784779,82.2102546 64.3766602,81.860884 63.840284,81.6325045 L63.5515768,83.3614592 C64.786322,83.9091405 66.1333821,84.6400981 65.8518746,86.32037 C65.6250847,87.6784764 64.5508924,88.5919945 62.6955348,88.4760149" id="Fill-58" fill="#035847"></path>
                            <path d="M17.2088915,79.0700004 C17.2808883,78.6368669 16.9029051,78.3698275 16.365809,78.1120951 L16.0915012,79.7508434 C16.7776307,79.7680256 17.1440944,79.4558831 17.2088915,79.0700004 M15.7955943,75.949291 L16.0447032,74.4623184 C15.4348903,74.4222267 15.0648268,74.6735157 14.9949899,75.0944786 C14.9337926,75.4581676 15.2779373,75.7194796 15.7955943,75.949291 M15.9554272,81.2084632 L15.7775951,82.2730411 L14.6594848,82.0883329 L14.8365969,81.0352097 C13.6169711,80.7259309 12.8012473,80.1088051 12.2612713,79.3578016 L13.3801016,78.2445409 C13.7501652,78.7736082 14.3189399,79.2769022 15.0842659,79.5489531 L15.3924122,77.7111781 C14.2282239,77.217191 12.989159,76.5313366 13.2526673,74.950578 C13.4528184,73.7578499 14.5745285,72.9094808 16.1771774,73.0175852 L16.3593293,71.928666 L17.4781596,72.114806 L17.2916878,73.2259189 C18.2290862,73.477208 18.9656135,73.9840816 19.5070294,74.6634928 L18.3730798,75.7266388 C18.0267752,75.2713116 17.5487164,74.9398392 17.0418589,74.7229144 L16.7668312,76.3630946 C17.9389391,76.8807071 19.2125625,77.5730049 18.9468943,79.1659341 C18.7309039,80.4531641 17.715029,81.3194313 15.9554272,81.2084632" id="Fill-60" fill="#035847"></path>
                            <path d="M53.4154351,80.3746274 C53.4154351,88.5812556 46.7247723,95.2343304 38.4717789,95.2343304 C30.2187856,95.2343304 23.5281228,88.5812556 23.5281228,80.3746274 C23.5281228,72.1679991 30.2187856,65.5149243 38.4717789,65.5149243 C46.7247723,65.5149243 53.4154351,72.1679991 53.4154351,80.3746274 Z" id="Stroke-62" stroke="#035847" stroke-width="0.719968016"></path>
                            <path d="M5.58076008,56.3324927 C6.04873929,59.4653729 10.8401264,60.7404322 13.5356867,57.3770247 C12.9676319,52.9748126 5.58076008,56.3324927 5.58076008,56.3324927" id="Fill-64" fill="#F77D00"></path>
                            <path d="M69.6189633,64.7424431 C68.7103636,70.564331 77.5551707,70.4218623 79.3010932,66.0139228 C76.3477844,61.6066993 69.6189633,64.7424431 69.6189633,64.7424431" id="Fill-66" fill="#F77D00"></path>
                        </g>
                        <g id="extra" transform="translate(246.652589, 104.456006)">
                            <g id="Group-7">
                                <g id="Group-3" transform="translate(0.000000, 23.540372)" fill="#1A0960">
                                    <path d="M0.00388263587,2.37520513 C-0.0416379226,2.99759647 0.311146405,3.5973554 1.08030996,4.0393531 L37.0241462,24.674788 C38.6253988,25.5933977 41.4215661,25.4782387 43.2698346,24.4171779 L78.3166481,4.29696321 C79.2765964,3.7457974 79.7920497,3.04752091 79.8415868,2.37453947 L79.8415868,0.0447322976 L0.00388263587,0.0453979568 L0.00388263587,3.04086432" id="Fill-1"></path>
                                </g>
                                <g id="Group-6" transform="translate(0.000000, 0.242300)" fill="url(#linearGradient-4)">
                                    <path d="M40.0333229,0.423359245 C38.8283669,0.435341111 37.5658409,0.73222511 36.5757687,1.30136372 L36.5757687,1.30136372 L1.52895523,21.4215784 C0.569006981,21.9727442 0.0535535982,22.6710207 0.00334709989,23.3440022 L0.00334709989,23.3440022 C0.00133883995,23.3706285 0,23.3979206 0,23.4245469 L0,23.4245469 L0,23.4744714 C0.0100412997,24.0496009 0.365503308,24.5967728 1.08111326,25.0074845 L1.08111326,25.0074845 L37.0242801,45.6429194 C38.6255327,46.5615291 41.4216999,46.4463701 43.2699685,45.3853093 L43.2699685,45.3853093 L78.316782,25.2650946 C79.2767302,24.7139288 79.7921836,24.0156523 79.8417207,23.3433365 L79.8417207,23.3433365 C79.8872413,22.7209452 79.5344569,22.1211862 78.764624,21.6791885 L78.764624,21.6791885 L42.8207877,1.04375361 C42.1138802,0.637701505 41.1733451,0.433344133 40.1846118,0.423359245 L40.1846118,0.423359245 L40.0333229,0.423359245 Z" id="Fill-4"></path>
                                </g>
                            </g>
                        </g>
                        <g id="extra-copy-2" transform="translate(294.085776, 132.756031)">
                            <g id="Group-7">
                                <g id="Group-3" transform="translate(0.000000, 23.540372)" fill="#1A0960">
                                    <path d="M0.00388263587,2.37520513 C-0.0416379226,2.99759647 0.311146405,3.5973554 1.08030996,4.0393531 L37.0241462,24.674788 C38.6253988,25.5933977 41.4215661,25.4782387 43.2698346,24.4171779 L78.3166481,4.29696321 C79.2765964,3.7457974 79.7920497,3.04752091 79.8415868,2.37453947 L79.8415868,0.0447322976 L0.00388263587,0.0453979568 L0.00388263587,3.04086432" id="Fill-1"></path>
                                </g>
                                <g id="Group-6" transform="translate(0.000000, 0.242300)" fill="url(#linearGradient-4)">
                                    <path d="M40.0333229,0.423359245 C38.8283669,0.435341111 37.5658409,0.73222511 36.5757687,1.30136372 L36.5757687,1.30136372 L1.52895523,21.4215784 C0.569006981,21.9727442 0.0535535982,22.6710207 0.00334709989,23.3440022 L0.00334709989,23.3440022 C0.00133883995,23.3706285 0,23.3979206 0,23.4245469 L0,23.4245469 L0,23.4744714 C0.0100412997,24.0496009 0.365503308,24.5967728 1.08111326,25.0074845 L1.08111326,25.0074845 L37.0242801,45.6429194 C38.6255327,46.5615291 41.4216999,46.4463701 43.2699685,45.3853093 L43.2699685,45.3853093 L78.316782,25.2650946 C79.2767302,24.7139288 79.7921836,24.0156523 79.8417207,23.3433365 L79.8417207,23.3433365 C79.8872413,22.7209452 79.5344569,22.1211862 78.764624,21.6791885 L78.764624,21.6791885 L42.8207877,1.04375361 C42.1138802,0.637701505 41.1733451,0.433344133 40.1846118,0.423359245 L40.1846118,0.423359245 L40.0333229,0.423359245 Z" id="Fill-4"></path>
                                </g>
                            </g>
                        </g>
                    </g>
                </g>
            </g>
        </g>
    </g>
</svg>