<?xml version="1.0" encoding="UTF-8"?>
<svg width="101px" height="61px" viewBox="0 0 101 61" version="1.1" xmlns="http://www.w3.org/2000/svg" xmlns:xlink="http://www.w3.org/1999/xlink">
    <!-- Generator: Sketch 57.1 (83088) - https://sketch.com -->
    <title>shape-1</title>
    <desc>Created with Sketch.</desc>
    <defs>
        <linearGradient x1="-8.38392871e-07%" y1="50.000259%" x2="100.000129%" y2="50.000259%" id="linearGradient-1">
            <stop stop-color="#461CAF" offset="0%"></stop>
            <stop stop-color="#CC64FF" offset="100%"></stop>
        </linearGradient>
    </defs>
    <g id="Desktop" stroke="none" stroke-width="1" fill="none" fill-rule="evenodd">
        <g id="LP-D-10-Bonus---How-it-works" transform="translate(-307.000000, -23.000000)">
            <g id="hero" transform="translate(81.000000, -7.000000)">
                <g id="illustration">
                    <g id="shape-1" transform="translate(225.999980, 30.094826)">
                        <path d="M0.00493122618,31.9395586 C-0.052649419,32.7268445 0.393600581,33.4855019 1.36654413,34.0446012 L46.8332377,60.1471293 C48.8587215,61.3091128 52.3956974,61.1634438 54.7336409,59.8212687 L99.065657,34.3704618 C100.279931,33.6732717 100.931947,32.7899958 100.994609,31.9387166 L100.994609,28.9916569 L0.00493122618,28.992499 L0.00493122618,32.7815756" id="Fill-1" fill="#1A0960"></path>
                        <path d="M50.639657,-2.84217094e-14 C49.1154635,0.0151563066 47.5184474,0.390695904 46.2660683,1.11062047 L46.2660683,1.11062047 L1.93405219,26.5614274 C0.719778,27.2586175 0.0677618713,28.1418933 0.00425380683,28.9931726 L0.00425380683,28.9931726 C0.00171348425,29.0268533 1.99358596e-05,29.061376 1.99358596e-05,29.0950566 L1.99358596e-05,29.0950566 L1.99358596e-05,29.1582079 C0.0127215488,29.8857106 0.462358646,30.5778486 1.36756026,31.0973731 L1.36756026,31.0973731 L46.833407,57.1999012 C48.8588909,58.3618847 52.3958667,58.2162158 54.7338103,56.8740406 L54.7338103,56.8740406 L99.0658264,31.4232337 C100.280101,30.7260436 100.932117,29.8427678 100.994778,28.9923306 L100.994778,28.9923306 C101.052359,28.2050446 100.606109,27.4463873 99.6323183,26.887288 L99.6323183,26.887288 L54.1656248,0.784759877 C53.2714312,0.271129485 52.0817135,0.0126302555 50.831028,-2.84217094e-14 L50.831028,-2.84217094e-14 L50.639657,-2.84217094e-14 Z" id="Fill-4" fill="url(#linearGradient-1)"></path>
                    </g>
                </g>
            </g>
        </g>
    </g>
</svg>