<?xml version="1.0" encoding="UTF-8"?>
<svg width="218px" height="128px" viewBox="0 0 218 128" version="1.1" xmlns="http://www.w3.org/2000/svg" xmlns:xlink="http://www.w3.org/1999/xlink">
    <!-- Generator: Sketch 57.1 (83088) - https://sketch.com -->
    <title>shape-3</title>
    <desc>Created with Sketch.</desc>
    <defs>
        <linearGradient x1="-8.43859407e-05%" y1="50.0000823%" x2="99.9999852%" y2="50.0000823%" id="linearGradient-1">
            <stop stop-color="#2AB3FF" offset="0%"></stop>
            <stop stop-color="#3DD68C" offset="100%"></stop>
        </linearGradient>
    </defs>
    <g id="Desktop" stroke="none" stroke-width="1" fill="none" fill-rule="evenodd">
        <g id="LP-D-10-Bonus---How-it-works" transform="translate(-81.000000, -200.000000)">
            <g id="hero" transform="translate(81.000000, -7.000000)">
                <g id="illustration">
                    <g id="shape-3" transform="translate(0.000000, 207.247191)">
                        <path d="M0.0107374998,65.0792545 C-0.114030357,66.7727226 0.847683928,68.4055157 2.94050536,69.6072441 L100.73938,125.754315 C105.096237,128.255576 112.704345,127.942239 117.73422,125.054288 L213.09238,70.3081769 C215.70522,68.8085067 217.10772,66.9094679 217.241595,65.0792545 L217.241595,62.3624608 L0.0107374998,62.3624608 L0.0107374998,66.8904504" id="Fill-6" fill="#1A0960"></path>
                        <path d="M99.5192964,2.3880617 L4.16113571,57.1332668 C1.54829643,58.6338425 0.146707143,60.5328813 0.0110107141,62.3621891 L0.0110107141,62.3621891 C-0.113757143,64.0556572 0.847957143,65.6884502 2.94077857,66.8901787 L2.94077857,66.8901787 L100.739654,123.037249 C105.0956,125.538511 112.704618,125.225174 117.733582,122.336317 L117.733582,122.336317 L213.091743,67.5911115 C215.704582,66.0914413 217.107082,64.1924025 217.241868,62.3621891 L217.241868,62.3621891 C217.248243,62.2707237 217.252796,62.1792583 217.252796,62.0886985 L217.252796,62.0886985 L217.252796,62.0669642 C217.252796,60.4812622 216.282886,58.9671025 214.3121,57.8351051 L214.3121,57.8351051 L116.512314,1.68803451 C114.539707,0.555131521 111.899546,0 109.132796,0 L109.132796,0 C105.793207,0 102.270564,0.809604535 99.5192964,2.3880617" id="Fill-9" fill="url(#linearGradient-1)"></path>
                    </g>
                </g>
            </g>
        </g>
    </g>
</svg>