<?xml version="1.0" encoding="UTF-8"?>
<svg width="124px" height="124px" viewBox="0 0 124 124" version="1.1" xmlns="http://www.w3.org/2000/svg" xmlns:xlink="http://www.w3.org/1999/xlink">
    <!-- Generator: Sketch 57.1 (83088) - https://sketch.com -->
    <title>img-4</title>
    <desc>Created with Sketch.</desc>
    <defs>
        <circle id="path-1" cx="62" cy="62" r="62"></circle>
        <circle id="path-3" cx="62" cy="62" r="62"></circle>
    </defs>
    <g id="Desktop" stroke="none" stroke-width="1" fill="none" fill-rule="evenodd">
        <g id="LP-D-10-Bonus---How-it-works" transform="translate(-355.000000, -938.000000)">
            <g id="howitworks" transform="translate(355.000000, 374.000000)">
                <g id="4" transform="translate(0.000000, 564.000000)">
                    <g id="img-4">
                        <mask id="mask-2" fill="white">
                            <use xlink:href="#path-1"></use>
                        </mask>
                        <use id="Mask" fill="#FFFFFF" xlink:href="#path-1"></use>
                        <rect id="frame" stroke="#9DAFB7" stroke-width="0.75" fill="#FFFFFF" mask="url(#mask-2)" x="24.375" y="21.375" width="80.25" height="80.25"></rect>
                        <g id="atom/icon/interactive/upload" mask="url(#mask-2)" fill="#027AFF">
                            <g transform="translate(57.750000, 45.000000)" id="Combined-Shape">
                                <path d="M11.625,7.5 C11.8321068,7.5 12,7.66789322 12,7.875 L12,11.625 C12,11.8062184 11.8714568,11.957414 11.7005756,11.9923813 L11.625,12 L0.375,12 C0.167893219,12 2.53632657e-17,11.8321068 0,11.625 L0,7.875 C-2.53632657e-17,7.66789322 0.167893219,7.5 0.375,7.5 C0.582106781,7.5 0.75,7.66789322 0.75,7.875 L0.75,11.25 L11.25,11.25 L11.25,7.875 C11.25,7.66789322 11.4178932,7.5 11.625,7.5 Z M6.08122633,0.00809982883 L6.0917451,0.0103277385 L6.0917451,0.0103277385 L6.16251651,0.0335217544 L6.16251651,0.0335217544 L6.227,0.069 L6.28927096,0.119819953 L6.28927096,0.119819953 L10.38018,4.21072904 C10.53994,4.37048898 10.53994,4.62951102 10.38018,4.78927096 C10.2403901,4.9290609 10.0246026,4.94653464 9.86581328,4.84169219 L9.80163813,4.78927096 L6.409,1.396 L6.40909091,8.59090909 C6.40909091,8.78860193 6.26886191,8.95354253 6.08244609,8.99168873 L6,9 C5.80230716,9 5.63736656,8.859771 5.59922036,8.67335518 L5.59090909,8.59090909 L5.59,1.397 L2.19836187,4.78927096 C2.05857192,4.9290609 1.84278443,4.94653464 1.6839951,4.84169219 L1.61981995,4.78927096 C1.48003001,4.64948101 1.46255626,4.43369352 1.56739872,4.27490419 L1.61981995,4.21072904 L5.71072904,0.119819953 L5.77127338,0.0698663023 C5.77190422,0.0694401191 5.7725363,0.0690156493 5.77316964,0.0685928995 C5.81556547,0.0403659963 5.86125783,0.021101736 5.9084943,0.0103098413 L5.95338878,0.00262744619 L5.95338878,0.00262744619 L5.91877367,0.00809982883 C5.97234301,-0.00269994294 6.02765699,-0.00269994294 6.08122633,0.00809982883 Z M6.22872662,0.0698663023 L6.23,0.07 L6.227,0.069 L6.22872662,0.0698663023 Z"></path>
                            </g>
                        </g>
                        <path d="M50.9235,67.169 L50.9235,63.497 L51.6705,63.497 L51.6705,67.151 C51.6705,68.249 52.2645,68.942 53.3715,68.942 C54.4785,68.942 55.0725,68.249 55.0725,67.151 L55.0725,63.497 L55.8195,63.497 L55.8195,67.16 C55.8195,68.654 55.0005,69.608 53.3715,69.608 C51.7425,69.608 50.9235,68.645 50.9235,67.169 Z M57.8715,71.156 L57.1965,71.156 L57.1965,65.153 L57.8715,65.153 L57.8715,65.801 C58.1865,65.36 58.7265,65.045 59.3385,65.045 C60.4815,65.045 61.2735,65.909 61.2735,67.322 C61.2735,68.726 60.4815,69.608 59.3385,69.608 C58.7445,69.608 58.2225,69.329 57.8715,68.843 L57.8715,71.156 Z M60.5625,67.322 C60.5625,66.359 60.0405,65.648 59.1675,65.648 C58.6365,65.648 58.1055,65.963 57.8715,66.341 L57.8715,68.303 C58.1055,68.681 58.6365,69.005 59.1675,69.005 C60.0405,69.005 60.5625,68.285 60.5625,67.322 Z M62.3625,69.5 L62.3625,63.497 L63.0375,63.497 L63.0375,69.5 L62.3625,69.5 Z M66.2865,69.608 C64.9635,69.608 64.1355,68.582 64.1355,67.322 C64.1355,66.062 64.9635,65.045 66.2865,65.045 C67.6095,65.045 68.4375,66.062 68.4375,67.322 C68.4375,68.582 67.6095,69.608 66.2865,69.608 Z M66.2865,69.005 C67.2135,69.005 67.7265,68.213 67.7265,67.322 C67.7265,66.44 67.2135,65.648 66.2865,65.648 C65.3595,65.648 64.8375,66.44 64.8375,67.322 C64.8375,68.213 65.3595,69.005 66.2865,69.005 Z M72.2535,69.5 L72.2535,69.005 C71.8935,69.401 71.3985,69.608 70.8135,69.608 C70.0755,69.608 69.2925,69.113 69.2925,68.168 C69.2925,67.196 70.0755,66.737 70.8135,66.737 C71.4075,66.737 71.9025,66.926 72.2535,67.331 L72.2535,66.548 C72.2535,65.963 71.7855,65.63 71.1555,65.63 C70.6335,65.63 70.2105,65.819 69.8235,66.233 L69.5085,65.765 C69.9765,65.279 70.5345,65.045 71.2455,65.045 C72.1635,65.045 72.9285,65.459 72.9285,66.512 L72.9285,69.5 L72.2535,69.5 Z M72.2535,68.582 L72.2535,67.763 C71.9925,67.403 71.5335,67.223 71.0565,67.223 C70.4265,67.223 69.9855,67.619 69.9855,68.177 C69.9855,68.726 70.4265,69.122 71.0565,69.122 C71.5335,69.122 71.9925,68.942 72.2535,68.582 Z M77.4285,69.5 L77.4285,68.852 C77.1045,69.293 76.5735,69.608 75.9615,69.608 C74.8275,69.608 74.0265,68.744 74.0265,67.331 C74.0265,65.945 74.8185,65.045 75.9615,65.045 C76.5465,65.045 77.0775,65.333 77.4285,65.81 L77.4285,63.497 L78.1035,63.497 L78.1035,69.5 L77.4285,69.5 Z M77.4285,68.321 L77.4285,66.35 C77.1855,65.972 76.6635,65.648 76.1235,65.648 C75.2505,65.648 74.7285,66.368 74.7285,67.331 C74.7285,68.294 75.2505,69.005 76.1235,69.005 C76.6635,69.005 77.1855,68.699 77.4285,68.321 Z M45.5955,78.322 C45.5955,77.035 46.4685,76.045 47.7645,76.045 C48.5565,76.045 49.0245,76.369 49.3575,76.801 L48.9075,77.215 C48.6195,76.819 48.2505,76.648 47.8005,76.648 C46.8735,76.648 46.2975,77.359 46.2975,78.322 C46.2975,79.285 46.8735,80.005 47.8005,80.005 C48.2505,80.005 48.6195,79.825 48.9075,79.438 L49.3575,79.852 C49.0245,80.284 48.5565,80.608 47.7645,80.608 C46.4685,80.608 45.5955,79.618 45.5955,78.322 Z M50.0505,78.322 C50.0505,77.062 50.9505,76.045 52.1925,76.045 C53.5065,76.045 54.2805,77.071 54.2805,78.376 L54.2805,78.547 L50.7615,78.547 C50.8155,79.366 51.3915,80.05 52.3275,80.05 C52.8225,80.05 53.3265,79.852 53.6685,79.501 L53.9925,79.942 C53.5605,80.374 52.9755,80.608 52.2645,80.608 C50.9775,80.608 50.0505,79.681 50.0505,78.322 Z M52.1835,76.603 C51.2565,76.603 50.7975,77.386 50.7615,78.052 L53.6145,78.052 C53.6055,77.404 53.1735,76.603 52.1835,76.603 Z M55.3695,80.5 L55.3695,76.153 L56.0445,76.153 L56.0445,76.855 C56.3955,76.396 56.8995,76.063 57.4935,76.063 L57.4935,76.756 C57.4125,76.738 57.3315,76.729 57.2235,76.729 C56.8095,76.729 56.2425,77.071 56.0445,77.422 L56.0445,80.5 L55.3695,80.5 Z M59.4375,80.608 C58.7985,80.608 58.4745,80.239 58.4745,79.591 L58.4745,76.747 L57.7545,76.747 L57.7545,76.153 L58.4745,76.153 L58.4745,74.965 L59.1495,74.965 L59.1495,76.153 L60.0315,76.153 L60.0315,76.747 L59.1495,76.747 L59.1495,79.447 C59.1495,79.771 59.2935,80.005 59.5905,80.005 C59.7795,80.005 59.9595,79.924 60.0495,79.825 L60.2475,80.329 C60.0765,80.491 59.8335,80.608 59.4375,80.608 Z M61.3185,75.424 C61.0755,75.424 60.8685,75.217 60.8685,74.965 C60.8685,74.713 61.0755,74.515 61.3185,74.515 C61.5705,74.515 61.7775,74.713 61.7775,74.965 C61.7775,75.217 61.5705,75.424 61.3185,75.424 Z M60.9855,80.5 L60.9855,76.153 L61.6605,76.153 L61.6605,80.5 L60.9855,80.5 Z M63.1995,80.5 L63.1995,76.747 L62.4795,76.747 L62.4795,76.153 L63.1995,76.153 L63.1995,75.82 C63.1995,74.92 63.7035,74.407 64.4595,74.407 C64.7115,74.407 64.9455,74.452 65.1165,74.56 L64.9455,75.073 C64.8465,75.01 64.7295,74.965 64.5585,74.965 C64.1175,74.965 63.8745,75.271 63.8745,75.82 L63.8745,76.153 L64.7565,76.153 L64.7565,76.747 L63.8745,76.747 L63.8745,80.5 L63.1995,80.5 Z M65.8905,75.424 C65.6475,75.424 65.4405,75.217 65.4405,74.965 C65.4405,74.713 65.6475,74.515 65.8905,74.515 C66.1425,74.515 66.3495,74.713 66.3495,74.965 C66.3495,75.217 66.1425,75.424 65.8905,75.424 Z M65.5575,80.5 L65.5575,76.153 L66.2325,76.153 L66.2325,80.5 L65.5575,80.5 Z M67.3395,78.322 C67.3395,77.035 68.2125,76.045 69.5085,76.045 C70.3005,76.045 70.7685,76.369 71.1015,76.801 L70.6515,77.215 C70.3635,76.819 69.9945,76.648 69.5445,76.648 C68.6175,76.648 68.0415,77.359 68.0415,78.322 C68.0415,79.285 68.6175,80.005 69.5445,80.005 C69.9945,80.005 70.3635,79.825 70.6515,79.438 L71.1015,79.852 C70.7685,80.284 70.3005,80.608 69.5085,80.608 C68.2125,80.608 67.3395,79.618 67.3395,78.322 Z M74.7645,80.5 L74.7645,80.005 C74.4045,80.401 73.9095,80.608 73.3245,80.608 C72.5865,80.608 71.8035,80.113 71.8035,79.168 C71.8035,78.196 72.5865,77.737 73.3245,77.737 C73.9185,77.737 74.4135,77.926 74.7645,78.331 L74.7645,77.548 C74.7645,76.963 74.2965,76.63 73.6665,76.63 C73.1445,76.63 72.7215,76.819 72.3345,77.233 L72.0195,76.765 C72.4875,76.279 73.0455,76.045 73.7565,76.045 C74.6745,76.045 75.4395,76.459 75.4395,77.512 L75.4395,80.5 L74.7645,80.5 Z M74.7645,79.582 L74.7645,78.763 C74.5035,78.403 74.0445,78.223 73.5675,78.223 C72.9375,78.223 72.4965,78.619 72.4965,79.177 C72.4965,79.726 72.9375,80.122 73.5675,80.122 C74.0445,80.122 74.5035,79.942 74.7645,79.582 Z M77.8875,80.608 C77.2485,80.608 76.9245,80.239 76.9245,79.591 L76.9245,76.747 L76.2045,76.747 L76.2045,76.153 L76.9245,76.153 L76.9245,74.965 L77.5995,74.965 L77.5995,76.153 L78.4815,76.153 L78.4815,76.747 L77.5995,76.747 L77.5995,79.447 C77.5995,79.771 77.7435,80.005 78.0405,80.005 C78.2295,80.005 78.4095,79.924 78.4995,79.825 L78.6975,80.329 C78.5265,80.491 78.2835,80.608 77.8875,80.608 Z M79.1835,78.322 C79.1835,77.062 80.0835,76.045 81.3255,76.045 C82.6395,76.045 83.4135,77.071 83.4135,78.376 L83.4135,78.547 L79.8945,78.547 C79.9485,79.366 80.5245,80.05 81.4605,80.05 C81.9555,80.05 82.4595,79.852 82.8015,79.501 L83.1255,79.942 C82.6935,80.374 82.1085,80.608 81.3975,80.608 C80.1105,80.608 79.1835,79.681 79.1835,78.322 Z M81.3165,76.603 C80.3895,76.603 79.9305,77.386 79.8945,78.052 L82.7475,78.052 C82.7385,77.404 82.3065,76.603 81.3165,76.603 Z" id="Uploadcertifcate" fill="#027AFF" fill-rule="nonzero" mask="url(#mask-2)"></path>
                        <rect id="frame" stroke="#9DAFB7" stroke-width="0.75" fill="#FFFFFF" mask="url(#mask-2)" x="-725.625" y="21.375" width="750" height="80.25"></rect>
                        <rect id="bg" fill="#027AFF" mask="url(#mask-2)" x="-71" y="36" width="85.3676471" height="22.5" rx="3"></rect>
                        <rect id="bg" stroke="#027AFF" stroke-width="0.75" mask="url(#mask-2)" x="-70.625" y="65.375" width="84.6176471" height="21.75" rx="3"></rect>
                        <mask id="mask-4" fill="white">
                            <use xlink:href="#path-3"></use>
                        </mask>
                        <circle stroke="#9DAFB7" stroke-width="0.775" cx="62" cy="62" r="61.6125"></circle>
                    </g>
                </g>
            </g>
        </g>
    </g>
</svg>