<?xml version="1.0" encoding="UTF-8"?>
<svg width="124px" height="124px" viewBox="0 0 124 124" version="1.1" xmlns="http://www.w3.org/2000/svg" xmlns:xlink="http://www.w3.org/1999/xlink">
    <!-- Generator: Sketch 57.1 (83088) - https://sketch.com -->
    <title>img-2</title>
    <desc>Created with Sketch.</desc>
    <defs>
        <circle id="path-1" cx="62" cy="62" r="62"></circle>
        <circle id="path-3" cx="62" cy="62" r="62"></circle>
    </defs>
    <g id="Desktop" stroke="none" stroke-width="1" fill="none" fill-rule="evenodd">
        <g id="LP-D-10-Bonus---How-it-works" transform="translate(-355.000000, -562.000000)">
            <g id="howitworks" transform="translate(355.000000, 374.000000)">
                <g id="2" transform="translate(0.000000, 187.000000)">
                    <g id="img-2" transform="translate(0.000000, 1.000000)">
                        <mask id="mask-2" fill="white">
                            <use xlink:href="#path-1"></use>
                        </mask>
                        <use id="Mask" fill="#FFFFFF" xlink:href="#path-1"></use>
                        <rect id="frame" stroke="#9DAFB7" stroke-width="0.5" fill="#FFFFFF" mask="url(#mask-2)" x="-331.75" y="35.25" width="442.5" height="50.5"></rect>
                        <path d="M7.69,62.48 C7.69,63.58 6.97,64.44 5.5,64.59 L5.5,65.5 L4.55,65.5 L4.55,64.6 C3.5,64.51 2.74,64.11 2.19,63.56 L2.96,62.48 C3.34,62.87 3.88,63.21 4.55,63.33 L4.55,61.76 C3.52,61.51 2.4,61.11 2.4,59.76 C2.4,58.74 3.21,57.88 4.55,57.75 L4.55,56.82 L5.5,56.82 L5.5,57.77 C6.31,57.85 6.99,58.17 7.53,58.66 L6.74,59.7 C6.39,59.37 5.95,59.16 5.5,59.05 L5.5,60.45 C6.54,60.72 7.69,61.12 7.69,62.48 Z M3.86,59.64 C3.86,59.95 4.18,60.12 4.64,60.24 L4.64,58.97 C4.13,59.02 3.86,59.28 3.86,59.64 Z M5.41,63.36 C5.98,63.28 6.24,62.97 6.24,62.64 C6.24,62.27 5.89,62.1 5.41,61.96 L5.41,63.36 Z M11.06,64.5 L11.06,63.38 C13.79,61.37 14.59,60.68 14.59,59.86 C14.59,59.28 14.06,58.99 13.5,58.99 C12.75,58.99 12.17,59.29 11.72,59.76 L10.91,58.82 C11.56,58.07 12.55,57.73 13.48,57.73 C14.9,57.73 16.03,58.53 16.03,59.86 C16.03,61 15.09,61.99 13.3,63.25 L16.08,63.25 L16.08,64.5 L11.06,64.5 Z M18.62,64.5 L18.62,59.66 L17.51,60.79 L16.7,59.94 L18.8,57.83 L20.04,57.83 L20.04,64.5 L18.62,64.5 Z M21.37,63.92 L22,62.86 C22.36,63.19 22.74,63.37 23.33,63.37 C24.4,63.37 25,62.46 25,61.45 L25,61.31 C24.68,61.76 24.01,62.17 23.28,62.17 C22.08,62.17 21,61.43 21,60.01 C21,58.71 22.04,57.72 23.56,57.72 C25.58,57.72 26.43,59.28 26.43,61.17 C26.43,63.18 25.3,64.61 23.33,64.61 C22.52,64.61 21.84,64.34 21.37,63.92 Z M24.99,60.35 C24.93,59.71 24.57,58.95 23.62,58.95 C22.86,58.95 22.45,59.48 22.45,59.95 C22.45,60.66 23.04,60.97 23.68,60.97 C24.18,60.97 24.67,60.74 24.99,60.35 Z M27.9,65.87 L27.35,65.42 C27.67,65.25 28.04,64.84 28.12,64.49 C28.09,64.5 28,64.52 27.93,64.52 C27.55,64.52 27.25,64.22 27.25,63.79 C27.25,63.35 27.61,62.99 28.03,62.99 C28.5,62.99 28.93,63.36 28.93,64.01 C28.93,64.76 28.51,65.43 27.9,65.87 Z M30.01,63.92 L30.64,62.86 C31,63.19 31.38,63.37 31.97,63.37 C33.04,63.37 33.64,62.46 33.64,61.45 L33.64,61.31 C33.32,61.76 32.65,62.17 31.92,62.17 C30.72,62.17 29.64,61.43 29.64,60.01 C29.64,58.71 30.68,57.72 32.2,57.72 C34.22,57.72 35.07,59.28 35.07,61.17 C35.07,63.18 33.94,64.61 31.97,64.61 C31.16,64.61 30.48,64.34 30.01,63.92 Z M33.63,60.35 C33.57,59.71 33.21,58.95 32.26,58.95 C31.5,58.95 31.09,59.48 31.09,59.95 C31.09,60.66 31.68,60.97 32.32,60.97 C32.82,60.97 33.31,60.74 33.63,60.35 Z M36.09,63.92 L36.72,62.86 C37.08,63.19 37.46,63.37 38.05,63.37 C39.12,63.37 39.72,62.46 39.72,61.45 L39.72,61.31 C39.4,61.76 38.73,62.17 38,62.17 C36.8,62.17 35.72,61.43 35.72,60.01 C35.72,58.71 36.76,57.72 38.28,57.72 C40.3,57.72 41.15,59.28 41.15,61.17 C41.15,63.18 40.02,64.61 38.05,64.61 C37.24,64.61 36.56,64.34 36.09,63.92 Z M39.71,60.35 C39.65,59.71 39.29,58.95 38.34,58.95 C37.58,58.95 37.17,59.48 37.17,59.95 C37.17,60.66 37.76,60.97 38.4,60.97 C38.9,60.97 39.39,60.74 39.71,60.35 Z" id="$219,99" fill="#1CC075" fill-rule="nonzero" mask="url(#mask-2)"></path>
                        <rect id="Rectangle" fill="#1CC075" mask="url(#mask-2)" x="12.5" y="47.5" width="29.5" height="7"></rect>
                        <path d="M14.12,52.5 L14.12,49.165 L16.48,49.165 L16.48,49.775 L14.83,49.775 L14.83,50.5 L16.445,50.5 L16.445,51.11 L14.83,51.11 L14.83,52.5 L14.12,52.5 Z M18.86,52.5 L18.205,51.305 L17.685,51.305 L17.685,52.5 L16.975,52.5 L16.975,49.165 L18.535,49.165 C19.23,49.165 19.655,49.62 19.655,50.24 C19.655,50.83 19.285,51.145 18.925,51.23 L19.675,52.5 L18.86,52.5 Z M18.93,50.235 C18.93,49.955 18.715,49.775 18.43,49.775 L17.685,49.775 L17.685,50.695 L18.43,50.695 C18.715,50.695 18.93,50.515 18.93,50.235 Z M20.19,52.5 L20.19,49.165 L22.55,49.165 L22.55,49.775 L20.9,49.775 L20.9,50.5 L22.515,50.5 L22.515,51.11 L20.9,51.11 L20.9,51.885 L22.55,51.885 L22.55,52.5 L20.19,52.5 Z M23.105,52.5 L23.105,49.165 L25.465,49.165 L25.465,49.775 L23.815,49.775 L23.815,50.5 L25.43,50.5 L25.43,51.11 L23.815,51.11 L23.815,51.885 L25.465,51.885 L25.465,52.5 L23.105,52.5 Z M28.07,52.5 L28.07,49.79 L27.095,49.79 L27.095,49.165 L29.755,49.165 L29.755,49.79 L28.785,49.79 L28.785,52.5 L28.07,52.5 Z M32.095,52.5 L31.44,51.305 L30.92,51.305 L30.92,52.5 L30.21,52.5 L30.21,49.165 L31.77,49.165 C32.465,49.165 32.89,49.62 32.89,50.24 C32.89,50.83 32.52,51.145 32.16,51.23 L32.91,52.5 L32.095,52.5 Z M32.165,50.235 C32.165,49.955 31.95,49.775 31.665,49.775 L30.92,49.775 L30.92,50.695 L31.665,50.695 C31.95,50.695 32.165,50.515 32.165,50.235 Z M33.425,52.5 L33.425,49.165 L34.135,49.165 L34.135,52.5 L33.425,52.5 Z M37.13,52.5 L36.92,51.925 L35.43,51.925 L35.22,52.5 L34.44,52.5 L35.73,49.165 L36.62,49.165 L37.905,52.5 L37.13,52.5 Z M36.175,49.78 L35.62,51.31 L36.725,51.31 L36.175,49.78 Z M38.215,52.5 L38.215,49.165 L38.925,49.165 L38.925,51.875 L40.335,51.875 L40.335,52.5 L38.215,52.5 Z" id="FREETRIAL" fill="#FFFFFF" fill-rule="nonzero" mask="url(#mask-2)"></path>
                        <path d="M-13.308,51.912 L-13.014,51.6 C-12.78,51.912 -12.372,52.128 -11.898,52.128 C-11.316,52.128 -10.962,51.84 -10.962,51.378 C-10.962,50.88 -11.37,50.67 -11.958,50.67 C-12.126,50.67 -12.312,50.67 -12.372,50.676 L-12.372,50.22 C-12.306,50.226 -12.12,50.226 -11.958,50.226 C-11.454,50.226 -11.028,50.028 -11.028,49.566 C-11.028,49.122 -11.436,48.882 -11.922,48.882 C-12.36,48.882 -12.684,49.05 -12.978,49.368 L-13.254,49.056 C-12.966,48.708 -12.504,48.438 -11.886,48.438 C-11.118,48.438 -10.53,48.828 -10.53,49.506 C-10.53,50.082 -11.016,50.37 -11.394,50.436 C-11.028,50.466 -10.47,50.778 -10.47,51.42 C-10.47,52.086 -11.004,52.572 -11.886,52.572 C-12.564,52.572 -13.062,52.272 -13.308,51.912 Z M-9.834,50.502 C-9.834,49.524 -9.402,48.438 -8.304,48.438 C-7.212,48.438 -6.774,49.524 -6.774,50.502 C-6.774,51.474 -7.212,52.572 -8.304,52.572 C-9.402,52.572 -9.834,51.474 -9.834,50.502 Z M-7.284,50.502 C-7.284,49.704 -7.542,48.882 -8.304,48.882 C-9.066,48.882 -9.324,49.704 -9.324,50.502 C-9.324,51.3 -9.066,52.128 -8.304,52.128 C-7.542,52.128 -7.284,51.3 -7.284,50.502 Z M-4.452,52.5 L-4.452,48.498 L-3.084,48.498 C-1.842,48.498 -1.032,49.368 -1.032,50.502 C-1.032,51.642 -1.842,52.5 -3.084,52.5 L-4.452,52.5 Z M-3.954,52.056 L-3.084,52.056 C-2.112,52.056 -1.548,51.36 -1.548,50.502 C-1.548,49.638 -2.094,48.942 -3.084,48.942 L-3.954,48.942 L-3.954,52.056 Z M2.622,52.5 L2.268,51.612 L0.24,51.612 L-0.114,52.5 L-0.666,52.5 L0.942,48.498 L1.56,48.498 L3.174,52.5 L2.622,52.5 Z M1.254,48.942 L0.384,51.168 L2.118,51.168 L1.254,48.942 Z M4.86,52.5 L4.86,50.808 L3.282,48.498 L3.864,48.498 L5.106,50.358 L6.348,48.498 L6.93,48.498 L5.358,50.808 L5.358,52.5 L4.86,52.5 Z M7.212,51.936 L7.506,51.558 C7.77,51.852 8.202,52.128 8.766,52.128 C9.48,52.128 9.708,51.744 9.708,51.438 C9.708,50.958 9.222,50.826 8.694,50.682 C8.052,50.514 7.338,50.334 7.338,49.548 C7.338,48.888 7.926,48.438 8.712,48.438 C9.324,48.438 9.798,48.642 10.134,48.996 L9.834,49.362 C9.534,49.032 9.114,48.882 8.676,48.882 C8.196,48.882 7.854,49.14 7.854,49.518 C7.854,49.92 8.316,50.04 8.826,50.178 C9.48,50.352 10.224,50.556 10.224,51.396 C10.224,51.978 9.828,52.572 8.748,52.572 C8.052,52.572 7.542,52.308 7.212,51.936 Z" id="30DAYS" fill="#4C636F" fill-rule="nonzero" mask="url(#mask-2)"></path>
                        <g id="molecule/buttom/small/flat" mask="url(#mask-2)">
                            <g transform="translate(48.000000, 44.000000)" id="molecule/buttom/small">
                                <g>
                                    <rect id="bg" fill="#027AFF" x="0" y="0" width="55.7608696" height="15" rx="2"></rect>
                                    <path d="M10.045,7.335 C10.045,6.28 10.845,5.61 11.82,5.61 C12.51,5.61 12.945,5.945 13.2,6.34 L12.61,6.66 C12.455,6.425 12.17,6.24 11.82,6.24 C11.215,6.24 10.775,6.705 10.775,7.335 C10.775,7.965 11.215,8.43 11.82,8.43 C12.125,8.43 12.395,8.305 12.54,8.175 L12.54,7.77 L11.65,7.77 L11.65,7.16 L13.24,7.16 L13.24,8.435 C12.9,8.815 12.425,9.065 11.82,9.065 C10.845,9.065 10.045,8.385 10.045,7.335 Z M13.645,7.335 C13.645,6.33 14.38,5.61 15.385,5.61 C16.395,5.61 17.13,6.33 17.13,7.335 C17.13,8.34 16.395,9.06 15.385,9.06 C14.38,9.06 13.645,8.34 13.645,7.335 Z M16.4,7.335 C16.4,6.71 16,6.24 15.385,6.24 C14.77,6.24 14.375,6.71 14.375,7.335 C14.375,7.955 14.77,8.43 15.385,8.43 C16,8.43 16.4,7.955 16.4,7.335 Z M19.68,9 L19.68,6.29 L18.705,6.29 L18.705,5.665 L21.365,5.665 L21.365,6.29 L20.395,6.29 L20.395,9 L19.68,9 Z M21.66,7.335 C21.66,6.33 22.395,5.61 23.4,5.61 C24.41,5.61 25.145,6.33 25.145,7.335 C25.145,8.34 24.41,9.06 23.4,9.06 C22.395,9.06 21.66,8.34 21.66,7.335 Z M24.415,7.335 C24.415,6.71 24.015,6.24 23.4,6.24 C22.785,6.24 22.39,6.71 22.39,7.335 C22.39,7.955 22.785,8.43 23.4,8.43 C24.015,8.43 24.415,7.955 24.415,7.335 Z M28.515,9.06 C27.54,9.06 26.765,8.36 26.765,7.335 C26.765,6.31 27.54,5.61 28.515,5.61 C29.275,5.61 29.7,6.01 29.935,6.425 L29.325,6.725 C29.185,6.455 28.885,6.24 28.515,6.24 C27.935,6.24 27.495,6.705 27.495,7.335 C27.495,7.965 27.935,8.43 28.515,8.43 C28.885,8.43 29.185,8.22 29.325,7.945 L29.935,8.24 C29.695,8.655 29.275,9.06 28.515,9.06 Z M30.2,7.335 C30.2,6.33 30.935,5.61 31.94,5.61 C32.95,5.61 33.685,6.33 33.685,7.335 C33.685,8.34 32.95,9.06 31.94,9.06 C30.935,9.06 30.2,8.34 30.2,7.335 Z M32.955,7.335 C32.955,6.71 32.555,6.24 31.94,6.24 C31.325,6.24 30.93,6.71 30.93,7.335 C30.93,7.955 31.325,8.43 31.94,8.43 C32.555,8.43 32.955,7.955 32.955,7.335 Z M34.185,7.67 L34.185,5.665 L34.905,5.665 L34.905,7.645 C34.905,8.11 35.16,8.43 35.68,8.43 C36.19,8.43 36.445,8.11 36.445,7.645 L36.445,5.665 L37.165,5.665 L37.165,7.665 C37.165,8.495 36.69,9.06 35.68,9.06 C34.66,9.06 34.185,8.49 34.185,7.67 Z M39.71,9 L39.055,7.805 L38.535,7.805 L38.535,9 L37.825,9 L37.825,5.665 L39.385,5.665 C40.08,5.665 40.505,6.12 40.505,6.74 C40.505,7.33 40.135,7.645 39.775,7.73 L40.525,9 L39.71,9 Z M39.78,6.735 C39.78,6.455 39.565,6.275 39.28,6.275 L38.535,6.275 L38.535,7.195 L39.28,7.195 C39.565,7.195 39.78,7.015 39.78,6.735 Z M40.81,8.53 L41.2,7.99 C41.435,8.235 41.8,8.44 42.26,8.44 C42.65,8.44 42.84,8.255 42.84,8.065 C42.84,7.815 42.55,7.73 42.165,7.64 C41.62,7.515 40.92,7.365 40.92,6.62 C40.92,6.065 41.4,5.615 42.185,5.615 C42.715,5.615 43.155,5.775 43.485,6.08 L43.09,6.6 C42.82,6.35 42.46,6.235 42.135,6.235 C41.815,6.235 41.645,6.375 41.645,6.575 C41.645,6.8 41.925,6.87 42.31,6.96 C42.86,7.085 43.56,7.25 43.56,7.99 C43.56,8.6 43.125,9.06 42.225,9.06 C41.585,9.06 41.125,8.845 40.81,8.53 Z M44.04,9 L44.04,5.665 L46.4,5.665 L46.4,6.275 L44.75,6.275 L44.75,7 L46.365,7 L46.365,7.61 L44.75,7.61 L44.75,8.385 L46.4,8.385 L46.4,9 L44.04,9 Z" id="GOTOCOURSE" fill="#FFFFFF" fill-rule="nonzero"></path>
                                </g>
                            </g>
                        </g>
                        <g id="molecule/buttom/small/bordered" mask="url(#mask-2)">
                            <g transform="translate(48.000000, 63.000000)" id="molecule/buttom/small">
                                <g>
                                    <rect id="bg" stroke="#027AFF" stroke-width="0.5" x="0.25" y="0.25" width="55.2608696" height="14.5" rx="2"></rect>
                                    <path d="M13.385,8.53 L13.775,7.99 C14.01,8.235 14.375,8.44 14.835,8.44 C15.225,8.44 15.415,8.255 15.415,8.065 C15.415,7.815 15.125,7.73 14.74,7.64 C14.195,7.515 13.495,7.365 13.495,6.62 C13.495,6.065 13.975,5.615 14.76,5.615 C15.29,5.615 15.73,5.775 16.06,6.08 L15.665,6.6 C15.395,6.35 15.035,6.235 14.71,6.235 C14.39,6.235 14.22,6.375 14.22,6.575 C14.22,6.8 14.5,6.87 14.885,6.96 C15.435,7.085 16.135,7.25 16.135,7.99 C16.135,8.6 15.7,9.06 14.8,9.06 C14.16,9.06 13.7,8.845 13.385,8.53 Z M16.615,9 L16.615,5.665 L18.975,5.665 L18.975,6.275 L17.325,6.275 L17.325,7 L18.94,7 L18.94,7.61 L17.325,7.61 L17.325,8.385 L18.975,8.385 L18.975,9 L16.615,9 Z M19.53,9 L19.53,5.665 L21.89,5.665 L21.89,6.275 L20.24,6.275 L20.24,7 L21.855,7 L21.855,7.61 L20.24,7.61 L20.24,8.385 L21.89,8.385 L21.89,9 L19.53,9 Z M23.725,9 L23.725,5.665 L25.04,5.665 C26.085,5.665 26.81,6.33 26.81,7.335 C26.81,8.34 26.085,9 25.04,9 L23.725,9 Z M24.435,8.375 L25.04,8.375 C25.7,8.375 26.085,7.9 26.085,7.335 C26.085,6.745 25.725,6.29 25.04,6.29 L24.435,6.29 L24.435,8.375 Z M27.315,9 L27.315,5.665 L29.675,5.665 L29.675,6.275 L28.025,6.275 L28.025,7 L29.64,7 L29.64,7.61 L28.025,7.61 L28.025,8.385 L29.675,8.385 L29.675,9 L27.315,9 Z M31,9 L31,6.29 L30.025,6.29 L30.025,5.665 L32.685,5.665 L32.685,6.29 L31.715,6.29 L31.715,9 L31,9 Z M35.475,9 L35.265,8.425 L33.775,8.425 L33.565,9 L32.785,9 L34.075,5.665 L34.965,5.665 L36.25,9 L35.475,9 Z M34.52,6.28 L33.965,7.81 L35.07,7.81 L34.52,6.28 Z M36.56,9 L36.56,5.665 L37.27,5.665 L37.27,9 L36.56,9 Z M37.93,9 L37.93,5.665 L38.64,5.665 L38.64,8.375 L40.05,8.375 L40.05,9 L37.93,9 Z M40.315,8.53 L40.705,7.99 C40.94,8.235 41.305,8.44 41.765,8.44 C42.155,8.44 42.345,8.255 42.345,8.065 C42.345,7.815 42.055,7.73 41.67,7.64 C41.125,7.515 40.425,7.365 40.425,6.62 C40.425,6.065 40.905,5.615 41.69,5.615 C42.22,5.615 42.66,5.775 42.99,6.08 L42.595,6.6 C42.325,6.35 41.965,6.235 41.64,6.235 C41.32,6.235 41.15,6.375 41.15,6.575 C41.15,6.8 41.43,6.87 41.815,6.96 C42.365,7.085 43.065,7.25 43.065,7.99 C43.065,8.6 42.63,9.06 41.73,9.06 C41.09,9.06 40.63,8.845 40.315,8.53 Z" id="SEEDETAILS" fill="#027AFF" fill-rule="nonzero"></path>
                                </g>
                            </g>
                        </g>
                        <path d="M0.772,72.212 L0.772,73.43 L0.25,73.43 L0.25,72.212 L-0.83,72.212 L-0.83,71.738 L0.25,71.738 L0.25,70.568 L0.772,70.568 L0.772,71.738 L1.846,71.738 L1.846,72.212 L0.772,72.212 Z M5.674,74 L5.674,73.7 C5.476,73.934 5.134,74.072 4.756,74.072 C4.294,74.072 3.748,73.76 3.748,73.112 C3.748,72.434 4.294,72.188 4.756,72.188 C5.14,72.188 5.482,72.308 5.674,72.542 L5.674,72.14 C5.674,71.846 5.422,71.654 5.038,71.654 C4.726,71.654 4.438,71.768 4.192,71.996 L3.904,71.486 C4.258,71.174 4.714,71.03 5.17,71.03 C5.83,71.03 6.436,71.294 6.436,72.128 L6.436,74 L5.674,74 Z M5.674,73.304 L5.674,72.944 C5.548,72.776 5.308,72.692 5.062,72.692 C4.762,72.692 4.516,72.848 4.516,73.13 C4.516,73.4 4.762,73.556 5.062,73.556 C5.308,73.556 5.548,73.472 5.674,73.304 Z M7.192,74 L7.192,69.998 L7.954,69.998 L7.954,74 L7.192,74 Z M8.71,74 L8.71,69.998 L9.472,69.998 L9.472,74 L8.71,74 Z M11.578,72.548 C11.578,71.66 12.22,71.03 13.114,71.03 C13.708,71.03 14.068,71.288 14.26,71.552 L13.762,72.02 C13.624,71.816 13.414,71.708 13.15,71.708 C12.688,71.708 12.364,72.044 12.364,72.548 C12.364,73.052 12.688,73.394 13.15,73.394 C13.414,73.394 13.624,73.274 13.762,73.082 L14.26,73.544 C14.068,73.814 13.708,74.072 13.114,74.072 C12.22,74.072 11.578,73.442 11.578,72.548 Z M16.102,74.072 C15.148,74.072 14.572,73.376 14.572,72.548 C14.572,71.726 15.148,71.03 16.102,71.03 C17.062,71.03 17.638,71.726 17.638,72.548 C17.638,73.376 17.062,74.072 16.102,74.072 Z M16.102,73.394 C16.576,73.394 16.846,73.004 16.846,72.548 C16.846,72.098 16.576,71.708 16.102,71.708 C15.628,71.708 15.364,72.098 15.364,72.548 C15.364,73.004 15.628,73.394 16.102,73.394 Z M20.158,74 L20.158,73.634 C19.96,73.856 19.612,74.072 19.138,74.072 C18.502,74.072 18.202,73.724 18.202,73.16 L18.202,71.102 L18.964,71.102 L18.964,72.86 C18.964,73.262 19.174,73.394 19.498,73.394 C19.792,73.394 20.026,73.232 20.158,73.064 L20.158,71.102 L20.92,71.102 L20.92,74 L20.158,74 Z M21.676,74 L21.676,71.102 L22.438,71.102 L22.438,71.498 C22.642,71.24 23.002,71.036 23.362,71.036 L23.362,71.78 C23.308,71.768 23.236,71.756 23.152,71.756 C22.9,71.756 22.564,71.9 22.438,72.086 L22.438,74 L21.676,74 Z M23.584,73.622 L23.914,73.088 C24.124,73.286 24.556,73.484 24.916,73.484 C25.246,73.484 25.402,73.37 25.402,73.19 C25.402,72.986 25.15,72.914 24.82,72.848 C24.322,72.752 23.68,72.632 23.68,71.942 C23.68,71.456 24.106,71.03 24.868,71.03 C25.36,71.03 25.75,71.198 26.038,71.426 L25.732,71.948 C25.558,71.762 25.228,71.612 24.874,71.612 C24.598,71.612 24.418,71.714 24.418,71.882 C24.418,72.062 24.646,72.128 24.97,72.194 C25.468,72.29 26.134,72.422 26.134,73.142 C26.134,73.67 25.684,74.072 24.88,74.072 C24.376,74.072 23.89,73.904 23.584,73.622 Z M26.512,72.548 C26.512,71.708 27.13,71.03 28.012,71.03 C28.876,71.03 29.464,71.678 29.464,72.626 L29.464,72.794 L27.31,72.794 C27.358,73.16 27.652,73.466 28.144,73.466 C28.414,73.466 28.732,73.358 28.918,73.178 L29.254,73.67 C28.966,73.934 28.51,74.072 28.06,74.072 C27.178,74.072 26.512,73.478 26.512,72.548 Z M28.012,71.636 C27.538,71.636 27.334,71.99 27.298,72.278 L28.726,72.278 C28.708,72.002 28.516,71.636 28.012,71.636 Z M29.764,73.622 L30.094,73.088 C30.304,73.286 30.736,73.484 31.096,73.484 C31.426,73.484 31.582,73.37 31.582,73.19 C31.582,72.986 31.33,72.914 31,72.848 C30.502,72.752 29.86,72.632 29.86,71.942 C29.86,71.456 30.286,71.03 31.048,71.03 C31.54,71.03 31.93,71.198 32.218,71.426 L31.912,71.948 C31.738,71.762 31.408,71.612 31.054,71.612 C30.778,71.612 30.598,71.714 30.598,71.882 C30.598,72.062 30.826,72.128 31.15,72.194 C31.648,72.29 32.314,72.422 32.314,73.142 C32.314,73.67 31.864,74.072 31.06,74.072 C30.556,74.072 30.07,73.904 29.764,73.622 Z" id="+allcourses" fill="#18AA68" fill-rule="nonzero" mask="url(#mask-2)"></path>
                        <g id="atom/icon/information/question" mask="url(#mask-2)">
                            <g transform="translate(35.000000, 69.000000)">
                                <circle id="Oval" fill="#18AA68" fill-rule="evenodd" cx="3.5" cy="3.5" r="3.5"></circle>
                                <path d="M2.87,3.748 C2.87,3.334 3.158,3.136 3.398,2.962 C3.584,2.83 3.746,2.716 3.746,2.536 C3.746,2.35 3.608,2.194 3.278,2.194 C2.978,2.194 2.726,2.344 2.54,2.566 L2.054,2.02 C2.372,1.648 2.852,1.438 3.368,1.438 C4.142,1.438 4.616,1.828 4.616,2.386 C4.616,2.884 4.298,3.124 4.01,3.322 C3.8,3.478 3.614,3.61 3.614,3.832 C3.614,3.928 3.662,4.03 3.722,4.084 L3.068,4.276 C2.942,4.138 2.87,3.958 2.87,3.748 Z" id="Path" fill="#FFFFFF" fill-rule="nonzero"></path>
                                <path d="M2.87,5.08 C2.87,4.816 3.092,4.594 3.356,4.594 C3.62,4.594 3.842,4.816 3.842,5.08 C3.842,5.344 3.62,5.566 3.356,5.566 C3.092,5.566 2.87,5.344 2.87,5.08 Z" id="Path" fill="#FFFFFF" fill-rule="nonzero"></path>
                            </g>
                        </g>
                        <path d="M7.69,7.48 C7.69,8.58 6.97,9.44 5.5,9.59 L5.5,10.5 L4.55,10.5 L4.55,9.6 C3.5,9.51 2.74,9.11 2.19,8.56 L2.96,7.48 C3.34,7.87 3.88,8.21 4.55,8.33 L4.55,6.76 C3.52,6.51 2.4,6.11 2.4,4.76 C2.4,3.74 3.21,2.88 4.55,2.75 L4.55,1.82 L5.5,1.82 L5.5,2.77 C6.31,2.85 6.99,3.17 7.53,3.66 L6.74,4.7 C6.39,4.37 5.95,4.16 5.5,4.05 L5.5,5.45 C6.54,5.72 7.69,6.12 7.69,7.48 Z M3.86,4.64 C3.86,4.95 4.18,5.12 4.64,5.24 L4.64,3.97 C4.13,4.02 3.86,4.28 3.86,4.64 Z M5.41,8.36 C5.98,8.28 6.24,7.97 6.24,7.64 C6.24,7.27 5.89,7.1 5.41,6.96 L5.41,8.36 Z M11.06,9.5 L11.06,8.38 C13.79,6.37 14.59,5.68 14.59,4.86 C14.59,4.28 14.06,3.99 13.5,3.99 C12.75,3.99 12.17,4.29 11.72,4.76 L10.91,3.82 C11.56,3.07 12.55,2.73 13.48,2.73 C14.9,2.73 16.03,3.53 16.03,4.86 C16.03,6 15.09,6.99 13.3,8.25 L16.08,8.25 L16.08,9.5 L11.06,9.5 Z M18.62,9.5 L18.62,4.66 L17.51,5.79 L16.7,4.94 L18.8,2.83 L20.04,2.83 L20.04,9.5 L18.62,9.5 Z M21.37,8.92 L22,7.86 C22.36,8.19 22.74,8.37 23.33,8.37 C24.4,8.37 25,7.46 25,6.45 L25,6.31 C24.68,6.76 24.01,7.17 23.28,7.17 C22.08,7.17 21,6.43 21,5.01 C21,3.71 22.04,2.72 23.56,2.72 C25.58,2.72 26.43,4.28 26.43,6.17 C26.43,8.18 25.3,9.61 23.33,9.61 C22.52,9.61 21.84,9.34 21.37,8.92 Z M24.99,5.35 C24.93,4.71 24.57,3.95 23.62,3.95 C22.86,3.95 22.45,4.48 22.45,4.95 C22.45,5.66 23.04,5.97 23.68,5.97 C24.18,5.97 24.67,5.74 24.99,5.35 Z M27.9,10.87 L27.35,10.42 C27.67,10.25 28.04,9.84 28.12,9.49 C28.09,9.5 28,9.52 27.93,9.52 C27.55,9.52 27.25,9.22 27.25,8.79 C27.25,8.35 27.61,7.99 28.03,7.99 C28.5,7.99 28.93,8.36 28.93,9.01 C28.93,9.76 28.51,10.43 27.9,10.87 Z M30.01,8.92 L30.64,7.86 C31,8.19 31.38,8.37 31.97,8.37 C33.04,8.37 33.64,7.46 33.64,6.45 L33.64,6.31 C33.32,6.76 32.65,7.17 31.92,7.17 C30.72,7.17 29.64,6.43 29.64,5.01 C29.64,3.71 30.68,2.72 32.2,2.72 C34.22,2.72 35.07,4.28 35.07,6.17 C35.07,8.18 33.94,9.61 31.97,9.61 C31.16,9.61 30.48,9.34 30.01,8.92 Z M33.63,5.35 C33.57,4.71 33.21,3.95 32.26,3.95 C31.5,3.95 31.09,4.48 31.09,4.95 C31.09,5.66 31.68,5.97 32.32,5.97 C32.82,5.97 33.31,5.74 33.63,5.35 Z M36.09,8.92 L36.72,7.86 C37.08,8.19 37.46,8.37 38.05,8.37 C39.12,8.37 39.72,7.46 39.72,6.45 L39.72,6.31 C39.4,6.76 38.73,7.17 38,7.17 C36.8,7.17 35.72,6.43 35.72,5.01 C35.72,3.71 36.76,2.72 38.28,2.72 C40.3,2.72 41.15,4.28 41.15,6.17 C41.15,8.18 40.02,9.61 38.05,9.61 C37.24,9.61 36.56,9.34 36.09,8.92 Z M39.71,5.35 C39.65,4.71 39.29,3.95 38.34,3.95 C37.58,3.95 37.17,4.48 37.17,4.95 C37.17,5.66 37.76,5.97 38.4,5.97 C38.9,5.97 39.39,5.74 39.71,5.35 Z" id="$219,99" fill="#1CC075" fill-rule="nonzero" mask="url(#mask-2)"></path>
                        <g id="molecule/buttom/small/flat" mask="url(#mask-2)">
                            <g transform="translate(48.000000, -12.000000)" id="molecule/buttom/small">
                                <g>
                                    <rect id="bg" fill="#027AFF" x="0" y="0" width="55.7608696" height="15" rx="2"></rect>
                                </g>
                            </g>
                        </g>
                        <g id="molecule/buttom/small/bordered" mask="url(#mask-2)">
                            <g transform="translate(48.000000, 8.000000)" id="molecule/buttom/small">
                                <g>
                                    <rect id="bg" stroke="#027AFF" stroke-width="0.5" x="0.25" y="0.25" width="55.2608696" height="14.5" rx="2"></rect>
                                    <path d="M13.385,8.53 L13.775,7.99 C14.01,8.235 14.375,8.44 14.835,8.44 C15.225,8.44 15.415,8.255 15.415,8.065 C15.415,7.815 15.125,7.73 14.74,7.64 C14.195,7.515 13.495,7.365 13.495,6.62 C13.495,6.065 13.975,5.615 14.76,5.615 C15.29,5.615 15.73,5.775 16.06,6.08 L15.665,6.6 C15.395,6.35 15.035,6.235 14.71,6.235 C14.39,6.235 14.22,6.375 14.22,6.575 C14.22,6.8 14.5,6.87 14.885,6.96 C15.435,7.085 16.135,7.25 16.135,7.99 C16.135,8.6 15.7,9.06 14.8,9.06 C14.16,9.06 13.7,8.845 13.385,8.53 Z M16.615,9 L16.615,5.665 L18.975,5.665 L18.975,6.275 L17.325,6.275 L17.325,7 L18.94,7 L18.94,7.61 L17.325,7.61 L17.325,8.385 L18.975,8.385 L18.975,9 L16.615,9 Z M19.53,9 L19.53,5.665 L21.89,5.665 L21.89,6.275 L20.24,6.275 L20.24,7 L21.855,7 L21.855,7.61 L20.24,7.61 L20.24,8.385 L21.89,8.385 L21.89,9 L19.53,9 Z M23.725,9 L23.725,5.665 L25.04,5.665 C26.085,5.665 26.81,6.33 26.81,7.335 C26.81,8.34 26.085,9 25.04,9 L23.725,9 Z M24.435,8.375 L25.04,8.375 C25.7,8.375 26.085,7.9 26.085,7.335 C26.085,6.745 25.725,6.29 25.04,6.29 L24.435,6.29 L24.435,8.375 Z M27.315,9 L27.315,5.665 L29.675,5.665 L29.675,6.275 L28.025,6.275 L28.025,7 L29.64,7 L29.64,7.61 L28.025,7.61 L28.025,8.385 L29.675,8.385 L29.675,9 L27.315,9 Z M31,9 L31,6.29 L30.025,6.29 L30.025,5.665 L32.685,5.665 L32.685,6.29 L31.715,6.29 L31.715,9 L31,9 Z M35.475,9 L35.265,8.425 L33.775,8.425 L33.565,9 L32.785,9 L34.075,5.665 L34.965,5.665 L36.25,9 L35.475,9 Z M34.52,6.28 L33.965,7.81 L35.07,7.81 L34.52,6.28 Z M36.56,9 L36.56,5.665 L37.27,5.665 L37.27,9 L36.56,9 Z M37.93,9 L37.93,5.665 L38.64,5.665 L38.64,8.375 L40.05,8.375 L40.05,9 L37.93,9 Z M40.315,8.53 L40.705,7.99 C40.94,8.235 41.305,8.44 41.765,8.44 C42.155,8.44 42.345,8.255 42.345,8.065 C42.345,7.815 42.055,7.73 41.67,7.64 C41.125,7.515 40.425,7.365 40.425,6.62 C40.425,6.065 40.905,5.615 41.69,5.615 C42.22,5.615 42.66,5.775 42.99,6.08 L42.595,6.6 C42.325,6.35 41.965,6.235 41.64,6.235 C41.32,6.235 41.15,6.375 41.15,6.575 C41.15,6.8 41.43,6.87 41.815,6.96 C42.365,7.085 43.065,7.25 43.065,7.99 C43.065,8.6 42.63,9.06 41.73,9.06 C41.09,9.06 40.63,8.845 40.315,8.53 Z" id="SEEDETAILS" fill="#027AFF" fill-rule="nonzero"></path>
                                </g>
                            </g>
                        </g>
                        <path d="M0.772,17.212 L0.772,18.43 L0.25,18.43 L0.25,17.212 L-0.83,17.212 L-0.83,16.738 L0.25,16.738 L0.25,15.568 L0.772,15.568 L0.772,16.738 L1.846,16.738 L1.846,17.212 L0.772,17.212 Z M5.674,19 L5.674,18.7 C5.476,18.934 5.134,19.072 4.756,19.072 C4.294,19.072 3.748,18.76 3.748,18.112 C3.748,17.434 4.294,17.188 4.756,17.188 C5.14,17.188 5.482,17.308 5.674,17.542 L5.674,17.14 C5.674,16.846 5.422,16.654 5.038,16.654 C4.726,16.654 4.438,16.768 4.192,16.996 L3.904,16.486 C4.258,16.174 4.714,16.03 5.17,16.03 C5.83,16.03 6.436,16.294 6.436,17.128 L6.436,19 L5.674,19 Z M5.674,18.304 L5.674,17.944 C5.548,17.776 5.308,17.692 5.062,17.692 C4.762,17.692 4.516,17.848 4.516,18.13 C4.516,18.4 4.762,18.556 5.062,18.556 C5.308,18.556 5.548,18.472 5.674,18.304 Z M7.192,19 L7.192,14.998 L7.954,14.998 L7.954,19 L7.192,19 Z M8.71,19 L8.71,14.998 L9.472,14.998 L9.472,19 L8.71,19 Z M11.578,17.548 C11.578,16.66 12.22,16.03 13.114,16.03 C13.708,16.03 14.068,16.288 14.26,16.552 L13.762,17.02 C13.624,16.816 13.414,16.708 13.15,16.708 C12.688,16.708 12.364,17.044 12.364,17.548 C12.364,18.052 12.688,18.394 13.15,18.394 C13.414,18.394 13.624,18.274 13.762,18.082 L14.26,18.544 C14.068,18.814 13.708,19.072 13.114,19.072 C12.22,19.072 11.578,18.442 11.578,17.548 Z M16.102,19.072 C15.148,19.072 14.572,18.376 14.572,17.548 C14.572,16.726 15.148,16.03 16.102,16.03 C17.062,16.03 17.638,16.726 17.638,17.548 C17.638,18.376 17.062,19.072 16.102,19.072 Z M16.102,18.394 C16.576,18.394 16.846,18.004 16.846,17.548 C16.846,17.098 16.576,16.708 16.102,16.708 C15.628,16.708 15.364,17.098 15.364,17.548 C15.364,18.004 15.628,18.394 16.102,18.394 Z M20.158,19 L20.158,18.634 C19.96,18.856 19.612,19.072 19.138,19.072 C18.502,19.072 18.202,18.724 18.202,18.16 L18.202,16.102 L18.964,16.102 L18.964,17.86 C18.964,18.262 19.174,18.394 19.498,18.394 C19.792,18.394 20.026,18.232 20.158,18.064 L20.158,16.102 L20.92,16.102 L20.92,19 L20.158,19 Z M21.676,19 L21.676,16.102 L22.438,16.102 L22.438,16.498 C22.642,16.24 23.002,16.036 23.362,16.036 L23.362,16.78 C23.308,16.768 23.236,16.756 23.152,16.756 C22.9,16.756 22.564,16.9 22.438,17.086 L22.438,19 L21.676,19 Z M23.584,18.622 L23.914,18.088 C24.124,18.286 24.556,18.484 24.916,18.484 C25.246,18.484 25.402,18.37 25.402,18.19 C25.402,17.986 25.15,17.914 24.82,17.848 C24.322,17.752 23.68,17.632 23.68,16.942 C23.68,16.456 24.106,16.03 24.868,16.03 C25.36,16.03 25.75,16.198 26.038,16.426 L25.732,16.948 C25.558,16.762 25.228,16.612 24.874,16.612 C24.598,16.612 24.418,16.714 24.418,16.882 C24.418,17.062 24.646,17.128 24.97,17.194 C25.468,17.29 26.134,17.422 26.134,18.142 C26.134,18.67 25.684,19.072 24.88,19.072 C24.376,19.072 23.89,18.904 23.584,18.622 Z M26.512,17.548 C26.512,16.708 27.13,16.03 28.012,16.03 C28.876,16.03 29.464,16.678 29.464,17.626 L29.464,17.794 L27.31,17.794 C27.358,18.16 27.652,18.466 28.144,18.466 C28.414,18.466 28.732,18.358 28.918,18.178 L29.254,18.67 C28.966,18.934 28.51,19.072 28.06,19.072 C27.178,19.072 26.512,18.478 26.512,17.548 Z M28.012,16.636 C27.538,16.636 27.334,16.99 27.298,17.278 L28.726,17.278 C28.708,17.002 28.516,16.636 28.012,16.636 Z M29.764,18.622 L30.094,18.088 C30.304,18.286 30.736,18.484 31.096,18.484 C31.426,18.484 31.582,18.37 31.582,18.19 C31.582,17.986 31.33,17.914 31,17.848 C30.502,17.752 29.86,17.632 29.86,16.942 C29.86,16.456 30.286,16.03 31.048,16.03 C31.54,16.03 31.93,16.198 32.218,16.426 L31.912,16.948 C31.738,16.762 31.408,16.612 31.054,16.612 C30.778,16.612 30.598,16.714 30.598,16.882 C30.598,17.062 30.826,17.128 31.15,17.194 C31.648,17.29 32.314,17.422 32.314,18.142 C32.314,18.67 31.864,19.072 31.06,19.072 C30.556,19.072 30.07,18.904 29.764,18.622 Z" id="+allcourses" fill="#18AA68" fill-rule="nonzero" mask="url(#mask-2)"></path>
                        <g id="atom/icon/information/question" mask="url(#mask-2)">
                            <g transform="translate(35.000000, 14.000000)">
                                <circle id="Oval" fill="#18AA68" fill-rule="evenodd" cx="3.5" cy="3.5" r="3.5"></circle>
                                <path d="M2.87,3.748 C2.87,3.334 3.158,3.136 3.398,2.962 C3.584,2.83 3.746,2.716 3.746,2.536 C3.746,2.35 3.608,2.194 3.278,2.194 C2.978,2.194 2.726,2.344 2.54,2.566 L2.054,2.02 C2.372,1.648 2.852,1.438 3.368,1.438 C4.142,1.438 4.616,1.828 4.616,2.386 C4.616,2.884 4.298,3.124 4.01,3.322 C3.8,3.478 3.614,3.61 3.614,3.832 C3.614,3.928 3.662,4.03 3.722,4.084 L3.068,4.276 C2.942,4.138 2.87,3.958 2.87,3.748 Z" id="Path" fill="#FFFFFF" fill-rule="nonzero"></path>
                                <path d="M2.87,5.08 C2.87,4.816 3.092,4.594 3.356,4.594 C3.62,4.594 3.842,4.816 3.842,5.08 C3.842,5.344 3.62,5.566 3.356,5.566 C3.092,5.566 2.87,5.344 2.87,5.08 Z" id="Path" fill="#FFFFFF" fill-rule="nonzero"></path>
                            </g>
                        </g>
                        <path d="M7.69,116.48 C7.69,117.58 6.97,118.44 5.5,118.59 L5.5,119.5 L4.55,119.5 L4.55,118.6 C3.5,118.51 2.74,118.11 2.19,117.56 L2.96,116.48 C3.34,116.87 3.88,117.21 4.55,117.33 L4.55,115.76 C3.52,115.51 2.4,115.11 2.4,113.76 C2.4,112.74 3.21,111.88 4.55,111.75 L4.55,110.82 L5.5,110.82 L5.5,111.77 C6.31,111.85 6.99,112.17 7.53,112.66 L6.74,113.7 C6.39,113.37 5.95,113.16 5.5,113.05 L5.5,114.45 C6.54,114.72 7.69,115.12 7.69,116.48 Z M3.86,113.64 C3.86,113.95 4.18,114.12 4.64,114.24 L4.64,112.97 C4.13,113.02 3.86,113.28 3.86,113.64 Z M5.41,117.36 C5.98,117.28 6.24,116.97 6.24,116.64 C6.24,116.27 5.89,116.1 5.41,115.96 L5.41,117.36 Z M11.06,118.5 L11.06,117.38 C13.79,115.37 14.59,114.68 14.59,113.86 C14.59,113.28 14.06,112.99 13.5,112.99 C12.75,112.99 12.17,113.29 11.72,113.76 L10.91,112.82 C11.56,112.07 12.55,111.73 13.48,111.73 C14.9,111.73 16.03,112.53 16.03,113.86 C16.03,115 15.09,115.99 13.3,117.25 L16.08,117.25 L16.08,118.5 L11.06,118.5 Z M18.62,118.5 L18.62,113.66 L17.51,114.79 L16.7,113.94 L18.8,111.83 L20.04,111.83 L20.04,118.5 L18.62,118.5 Z M21.37,117.92 L22,116.86 C22.36,117.19 22.74,117.37 23.33,117.37 C24.4,117.37 25,116.46 25,115.45 L25,115.31 C24.68,115.76 24.01,116.17 23.28,116.17 C22.08,116.17 21,115.43 21,114.01 C21,112.71 22.04,111.72 23.56,111.72 C25.58,111.72 26.43,113.28 26.43,115.17 C26.43,117.18 25.3,118.61 23.33,118.61 C22.52,118.61 21.84,118.34 21.37,117.92 Z M24.99,114.35 C24.93,113.71 24.57,112.95 23.62,112.95 C22.86,112.95 22.45,113.48 22.45,113.95 C22.45,114.66 23.04,114.97 23.68,114.97 C24.18,114.97 24.67,114.74 24.99,114.35 Z M27.9,119.87 L27.35,119.42 C27.67,119.25 28.04,118.84 28.12,118.49 C28.09,118.5 28,118.52 27.93,118.52 C27.55,118.52 27.25,118.22 27.25,117.79 C27.25,117.35 27.61,116.99 28.03,116.99 C28.5,116.99 28.93,117.36 28.93,118.01 C28.93,118.76 28.51,119.43 27.9,119.87 Z M30.01,117.92 L30.64,116.86 C31,117.19 31.38,117.37 31.97,117.37 C33.04,117.37 33.64,116.46 33.64,115.45 L33.64,115.31 C33.32,115.76 32.65,116.17 31.92,116.17 C30.72,116.17 29.64,115.43 29.64,114.01 C29.64,112.71 30.68,111.72 32.2,111.72 C34.22,111.72 35.07,113.28 35.07,115.17 C35.07,117.18 33.94,118.61 31.97,118.61 C31.16,118.61 30.48,118.34 30.01,117.92 Z M33.63,114.35 C33.57,113.71 33.21,112.95 32.26,112.95 C31.5,112.95 31.09,113.48 31.09,113.95 C31.09,114.66 31.68,114.97 32.32,114.97 C32.82,114.97 33.31,114.74 33.63,114.35 Z M36.09,117.92 L36.72,116.86 C37.08,117.19 37.46,117.37 38.05,117.37 C39.12,117.37 39.72,116.46 39.72,115.45 L39.72,115.31 C39.4,115.76 38.73,116.17 38,116.17 C36.8,116.17 35.72,115.43 35.72,114.01 C35.72,112.71 36.76,111.72 38.28,111.72 C40.3,111.72 41.15,113.28 41.15,115.17 C41.15,117.18 40.02,118.61 38.05,118.61 C37.24,118.61 36.56,118.34 36.09,117.92 Z M39.71,114.35 C39.65,113.71 39.29,112.95 38.34,112.95 C37.58,112.95 37.17,113.48 37.17,113.95 C37.17,114.66 37.76,114.97 38.4,114.97 C38.9,114.97 39.39,114.74 39.71,114.35 Z" id="$219,99" fill="#1CC075" fill-rule="nonzero" mask="url(#mask-2)"></path>
                        <rect id="Rectangle" fill="#1CC075" mask="url(#mask-2)" x="12.5" y="101.5" width="29.5" height="7"></rect>
                        <path d="M14.12,106.5 L14.12,103.165 L16.48,103.165 L16.48,103.775 L14.83,103.775 L14.83,104.5 L16.445,104.5 L16.445,105.11 L14.83,105.11 L14.83,106.5 L14.12,106.5 Z M18.86,106.5 L18.205,105.305 L17.685,105.305 L17.685,106.5 L16.975,106.5 L16.975,103.165 L18.535,103.165 C19.23,103.165 19.655,103.62 19.655,104.24 C19.655,104.83 19.285,105.145 18.925,105.23 L19.675,106.5 L18.86,106.5 Z M18.93,104.235 C18.93,103.955 18.715,103.775 18.43,103.775 L17.685,103.775 L17.685,104.695 L18.43,104.695 C18.715,104.695 18.93,104.515 18.93,104.235 Z M20.19,106.5 L20.19,103.165 L22.55,103.165 L22.55,103.775 L20.9,103.775 L20.9,104.5 L22.515,104.5 L22.515,105.11 L20.9,105.11 L20.9,105.885 L22.55,105.885 L22.55,106.5 L20.19,106.5 Z M23.105,106.5 L23.105,103.165 L25.465,103.165 L25.465,103.775 L23.815,103.775 L23.815,104.5 L25.43,104.5 L25.43,105.11 L23.815,105.11 L23.815,105.885 L25.465,105.885 L25.465,106.5 L23.105,106.5 Z M28.07,106.5 L28.07,103.79 L27.095,103.79 L27.095,103.165 L29.755,103.165 L29.755,103.79 L28.785,103.79 L28.785,106.5 L28.07,106.5 Z M32.095,106.5 L31.44,105.305 L30.92,105.305 L30.92,106.5 L30.21,106.5 L30.21,103.165 L31.77,103.165 C32.465,103.165 32.89,103.62 32.89,104.24 C32.89,104.83 32.52,105.145 32.16,105.23 L32.91,106.5 L32.095,106.5 Z M32.165,104.235 C32.165,103.955 31.95,103.775 31.665,103.775 L30.92,103.775 L30.92,104.695 L31.665,104.695 C31.95,104.695 32.165,104.515 32.165,104.235 Z M33.425,106.5 L33.425,103.165 L34.135,103.165 L34.135,106.5 L33.425,106.5 Z M37.13,106.5 L36.92,105.925 L35.43,105.925 L35.22,106.5 L34.44,106.5 L35.73,103.165 L36.62,103.165 L37.905,106.5 L37.13,106.5 Z M36.175,103.78 L35.62,105.31 L36.725,105.31 L36.175,103.78 Z M38.215,106.5 L38.215,103.165 L38.925,103.165 L38.925,105.875 L40.335,105.875 L40.335,106.5 L38.215,106.5 Z" id="FREETRIAL" fill="#FFFFFF" fill-rule="nonzero" mask="url(#mask-2)"></path>
                        <g id="molecule/buttom/small/flat" mask="url(#mask-2)">
                            <g transform="translate(48.000000, 98.000000)" id="molecule/buttom/small">
                                <g>
                                    <rect id="bg" fill="#027AFF" x="0" y="0" width="55.7608696" height="15" rx="2"></rect>
                                    <path d="M10.045,7.335 C10.045,6.28 10.845,5.61 11.82,5.61 C12.51,5.61 12.945,5.945 13.2,6.34 L12.61,6.66 C12.455,6.425 12.17,6.24 11.82,6.24 C11.215,6.24 10.775,6.705 10.775,7.335 C10.775,7.965 11.215,8.43 11.82,8.43 C12.125,8.43 12.395,8.305 12.54,8.175 L12.54,7.77 L11.65,7.77 L11.65,7.16 L13.24,7.16 L13.24,8.435 C12.9,8.815 12.425,9.065 11.82,9.065 C10.845,9.065 10.045,8.385 10.045,7.335 Z M13.645,7.335 C13.645,6.33 14.38,5.61 15.385,5.61 C16.395,5.61 17.13,6.33 17.13,7.335 C17.13,8.34 16.395,9.06 15.385,9.06 C14.38,9.06 13.645,8.34 13.645,7.335 Z M16.4,7.335 C16.4,6.71 16,6.24 15.385,6.24 C14.77,6.24 14.375,6.71 14.375,7.335 C14.375,7.955 14.77,8.43 15.385,8.43 C16,8.43 16.4,7.955 16.4,7.335 Z M19.68,9 L19.68,6.29 L18.705,6.29 L18.705,5.665 L21.365,5.665 L21.365,6.29 L20.395,6.29 L20.395,9 L19.68,9 Z M21.66,7.335 C21.66,6.33 22.395,5.61 23.4,5.61 C24.41,5.61 25.145,6.33 25.145,7.335 C25.145,8.34 24.41,9.06 23.4,9.06 C22.395,9.06 21.66,8.34 21.66,7.335 Z M24.415,7.335 C24.415,6.71 24.015,6.24 23.4,6.24 C22.785,6.24 22.39,6.71 22.39,7.335 C22.39,7.955 22.785,8.43 23.4,8.43 C24.015,8.43 24.415,7.955 24.415,7.335 Z M28.515,9.06 C27.54,9.06 26.765,8.36 26.765,7.335 C26.765,6.31 27.54,5.61 28.515,5.61 C29.275,5.61 29.7,6.01 29.935,6.425 L29.325,6.725 C29.185,6.455 28.885,6.24 28.515,6.24 C27.935,6.24 27.495,6.705 27.495,7.335 C27.495,7.965 27.935,8.43 28.515,8.43 C28.885,8.43 29.185,8.22 29.325,7.945 L29.935,8.24 C29.695,8.655 29.275,9.06 28.515,9.06 Z M30.2,7.335 C30.2,6.33 30.935,5.61 31.94,5.61 C32.95,5.61 33.685,6.33 33.685,7.335 C33.685,8.34 32.95,9.06 31.94,9.06 C30.935,9.06 30.2,8.34 30.2,7.335 Z M32.955,7.335 C32.955,6.71 32.555,6.24 31.94,6.24 C31.325,6.24 30.93,6.71 30.93,7.335 C30.93,7.955 31.325,8.43 31.94,8.43 C32.555,8.43 32.955,7.955 32.955,7.335 Z M34.185,7.67 L34.185,5.665 L34.905,5.665 L34.905,7.645 C34.905,8.11 35.16,8.43 35.68,8.43 C36.19,8.43 36.445,8.11 36.445,7.645 L36.445,5.665 L37.165,5.665 L37.165,7.665 C37.165,8.495 36.69,9.06 35.68,9.06 C34.66,9.06 34.185,8.49 34.185,7.67 Z M39.71,9 L39.055,7.805 L38.535,7.805 L38.535,9 L37.825,9 L37.825,5.665 L39.385,5.665 C40.08,5.665 40.505,6.12 40.505,6.74 C40.505,7.33 40.135,7.645 39.775,7.73 L40.525,9 L39.71,9 Z M39.78,6.735 C39.78,6.455 39.565,6.275 39.28,6.275 L38.535,6.275 L38.535,7.195 L39.28,7.195 C39.565,7.195 39.78,7.015 39.78,6.735 Z M40.81,8.53 L41.2,7.99 C41.435,8.235 41.8,8.44 42.26,8.44 C42.65,8.44 42.84,8.255 42.84,8.065 C42.84,7.815 42.55,7.73 42.165,7.64 C41.62,7.515 40.92,7.365 40.92,6.62 C40.92,6.065 41.4,5.615 42.185,5.615 C42.715,5.615 43.155,5.775 43.485,6.08 L43.09,6.6 C42.82,6.35 42.46,6.235 42.135,6.235 C41.815,6.235 41.645,6.375 41.645,6.575 C41.645,6.8 41.925,6.87 42.31,6.96 C42.86,7.085 43.56,7.25 43.56,7.99 C43.56,8.6 43.125,9.06 42.225,9.06 C41.585,9.06 41.125,8.845 40.81,8.53 Z M44.04,9 L44.04,5.665 L46.4,5.665 L46.4,6.275 L44.75,6.275 L44.75,7 L46.365,7 L46.365,7.61 L44.75,7.61 L44.75,8.385 L46.4,8.385 L46.4,9 L44.04,9 Z" id="GOTOCOURSE" fill="#FFFFFF" fill-rule="nonzero"></path>
                                </g>
                            </g>
                        </g>
                        <g id="molecule/buttom/small/bordered" mask="url(#mask-2)">
                            <g transform="translate(48.000000, 117.000000)" id="molecule/buttom/small">
                                <g>
                                    <rect id="bg" stroke="#027AFF" stroke-width="0.5" x="0.25" y="0.25" width="55.2608696" height="14.5" rx="2"></rect>
                                    <path d="M13.385,8.53 L13.775,7.99 C14.01,8.235 14.375,8.44 14.835,8.44 C15.225,8.44 15.415,8.255 15.415,8.065 C15.415,7.815 15.125,7.73 14.74,7.64 C14.195,7.515 13.495,7.365 13.495,6.62 C13.495,6.065 13.975,5.615 14.76,5.615 C15.29,5.615 15.73,5.775 16.06,6.08 L15.665,6.6 C15.395,6.35 15.035,6.235 14.71,6.235 C14.39,6.235 14.22,6.375 14.22,6.575 C14.22,6.8 14.5,6.87 14.885,6.96 C15.435,7.085 16.135,7.25 16.135,7.99 C16.135,8.6 15.7,9.06 14.8,9.06 C14.16,9.06 13.7,8.845 13.385,8.53 Z M16.615,9 L16.615,5.665 L18.975,5.665 L18.975,6.275 L17.325,6.275 L17.325,7 L18.94,7 L18.94,7.61 L17.325,7.61 L17.325,8.385 L18.975,8.385 L18.975,9 L16.615,9 Z M19.53,9 L19.53,5.665 L21.89,5.665 L21.89,6.275 L20.24,6.275 L20.24,7 L21.855,7 L21.855,7.61 L20.24,7.61 L20.24,8.385 L21.89,8.385 L21.89,9 L19.53,9 Z M23.725,9 L23.725,5.665 L25.04,5.665 C26.085,5.665 26.81,6.33 26.81,7.335 C26.81,8.34 26.085,9 25.04,9 L23.725,9 Z M24.435,8.375 L25.04,8.375 C25.7,8.375 26.085,7.9 26.085,7.335 C26.085,6.745 25.725,6.29 25.04,6.29 L24.435,6.29 L24.435,8.375 Z M27.315,9 L27.315,5.665 L29.675,5.665 L29.675,6.275 L28.025,6.275 L28.025,7 L29.64,7 L29.64,7.61 L28.025,7.61 L28.025,8.385 L29.675,8.385 L29.675,9 L27.315,9 Z M31,9 L31,6.29 L30.025,6.29 L30.025,5.665 L32.685,5.665 L32.685,6.29 L31.715,6.29 L31.715,9 L31,9 Z M35.475,9 L35.265,8.425 L33.775,8.425 L33.565,9 L32.785,9 L34.075,5.665 L34.965,5.665 L36.25,9 L35.475,9 Z M34.52,6.28 L33.965,7.81 L35.07,7.81 L34.52,6.28 Z M36.56,9 L36.56,5.665 L37.27,5.665 L37.27,9 L36.56,9 Z M37.93,9 L37.93,5.665 L38.64,5.665 L38.64,8.375 L40.05,8.375 L40.05,9 L37.93,9 Z M40.315,8.53 L40.705,7.99 C40.94,8.235 41.305,8.44 41.765,8.44 C42.155,8.44 42.345,8.255 42.345,8.065 C42.345,7.815 42.055,7.73 41.67,7.64 C41.125,7.515 40.425,7.365 40.425,6.62 C40.425,6.065 40.905,5.615 41.69,5.615 C42.22,5.615 42.66,5.775 42.99,6.08 L42.595,6.6 C42.325,6.35 41.965,6.235 41.64,6.235 C41.32,6.235 41.15,6.375 41.15,6.575 C41.15,6.8 41.43,6.87 41.815,6.96 C42.365,7.085 43.065,7.25 43.065,7.99 C43.065,8.6 42.63,9.06 41.73,9.06 C41.09,9.06 40.63,8.845 40.315,8.53 Z" id="SEEDETAILS" fill="#027AFF" fill-rule="nonzero"></path>
                                </g>
                            </g>
                        </g>
                        <mask id="mask-4" fill="white">
                            <use xlink:href="#path-3"></use>
                        </mask>
                        <circle stroke="#9DAFB7" stroke-width="0.775" cx="62" cy="62" r="61.6125"></circle>
                    </g>
                </g>
            </g>
        </g>
    </g>
</svg>