<?xml version="1.0" encoding="UTF-8"?>
<svg width="255px" height="155px" viewBox="0 0 255 155" version="1.1" xmlns="http://www.w3.org/2000/svg" xmlns:xlink="http://www.w3.org/1999/xlink">
    <!-- Generator: sketchtool 57.1 (101010) - https://sketch.com -->
    <title>698D41C5-2010-4603-A2D7-F0BA9659D561</title>
    <desc>Created with sketchtool.</desc>
    <defs>
        <polygon id="path-1" points="0.312740114 0.337932955 64.9711197 0.337932955 64.9711197 100.742966 0.312740114 100.742966"></polygon>
        <polygon id="path-3" points="0 0.204139091 63.0356117 0.204139091 63.0356117 98.9863636 0 98.9863636"></polygon>
        <polygon id="path-5" points="0 0.0385803409 67.5381931 0.0385803409 67.5381931 39.0319053 0 39.0319053"></polygon>
        <polygon id="path-7" points="0.15484875 0.326614432 4.65751125 0.326614432 4.65751125 65.3147727 0.15484875 65.3147727"></polygon>
    </defs>
    <g id="Pages---Home-SEO" stroke="none" stroke-width="1" fill="none" fill-rule="evenodd">
        <g id="page/desktop/d-home-seo" transform="translate(-690.000000, -2017.000000)">
            <g id="Group-2" transform="translate(240.000000, 387.000000)">
                <g id="illustration-03" transform="translate(450.000000, 1630.000000)">
                    <path d="M137.143904,91.6097692 C136.427623,122.808466 110.554836,147.519276 79.3561399,146.802995 C48.1574436,146.086714 23.4466329,120.214367 24.1629138,89.0156708 C24.8791947,57.8165345 50.7515419,33.1057239 81.9506783,33.8220047 C113.149375,34.5382856 137.860185,60.4106328 137.143904,91.6097692" id="planetshadow" fill="#DEE7ED"></path>
                    <g id="planet" transform="translate(0.000000, 6.761364)">
                        <path d="M131.563516,67.8363068 C130.729295,104.161728 100.6057,132.933114 64.2802793,132.098894 C27.9548581,131.264674 -0.816528186,101.141079 0.0176920135,64.8156578 C0.851473611,28.4902366 30.9755071,-0.281149685 67.3004897,0.553070514 C103.62635,1.38729071 132.397297,31.5108856 131.563516,67.8363068" id="Fill-1" fill="#FFAF00"></path>
                        <path d="M28.7654376,120.714332 L28.7654376,120.714332 C38.9059061,127.631518 51.0942053,131.796478 64.2803231,132.098675 C100.605744,132.932895 130.729339,104.161947 131.563559,67.8360875 C131.587244,66.8044966 131.583735,65.7786075 131.560051,64.7571045 C100.744781,136.021089 28.7654376,120.714332 28.7654376,120.714332" id="Fill-4" fill="#DD8307"></path>
                    </g>
                    <g id="platform" transform="translate(55.056818, 79.204545)">
                        <polygon id="Fill-1" fill="#243F52" points="-1.42108547e-14 38.596237 63.8130206 75.4378923 127.626041 38.5971142 127.626041 36.8427079 -1.42108547e-14 36.8418307"></polygon>
                        <polygon id="Fill-2" fill="#9DAFB7" points="63.8131084 1.42108547e-14 8.77203154e-05 36.8416553 63.8131084 73.6841877 127.626129 36.8425325"></polygon>
                    </g>
                    <g id="platform-copy" transform="translate(126.534091, 38.636364)">
                        <polygon id="Fill-1" fill="#243F52" points="-1.42108547e-14 38.596237 63.8130206 75.4378923 127.626041 38.5971142 127.626041 36.8427079 -1.42108547e-14 36.8418307"></polygon>
                        <polygon id="Fill-2" fill="#9DAFB7" points="63.8131084 1.42108547e-14 8.77203154e-05 36.8416553 63.8131084 73.6841877 127.626129 36.8425325"></polygon>
                    </g>
                    <g id="icon" transform="translate(56.022727, 0.000000)">
                        <g id="Group-3" transform="translate(35.294318, 0.067749)">
                            <mask id="mask-2" fill="white">
                                <use xlink:href="#path-1"></use>
                            </mask>
                            <g id="Clip-2"></g>
                            <path d="M1.93546739,63.0697295 L63.3483924,98.5263205 L63.3483924,38.0107636 L1.93546739,2.55457841 L1.93546739,63.0697295 Z M64.159756,100.742966 C64.0197958,100.742966 63.8794299,100.70686 63.7540742,100.634649 L0.718421932,64.240933 C0.467304886,64.0956989 0.312740114,63.8279489 0.312740114,63.5378864 L0.312740114,1.14929659 C0.312740114,0.859234091 0.467304886,0.591484091 0.718421932,0.446655682 C0.969538977,0.301421591 1.27866852,0.301421591 1.52978557,0.446655682 L64.5654378,36.8399659 C64.8161492,36.9847943 64.9711197,37.2525443 64.9711197,37.5426068 L64.9711197,99.9316023 C64.9711197,100.221665 64.8161492,100.489415 64.5654378,100.634649 C64.4396765,100.70686 64.2997163,100.742966 64.159756,100.742966 L64.159756,100.742966 Z" id="Fill-1" fill="#741CE5" mask="url(#mask-2)"></path>
                        </g>
                        <path d="M99.4532223,48.8201557 C99.3156961,48.8201557 99.1761416,48.785267 99.0483518,48.711433 L64.853837,28.969333 C63.9516007,28.4484375 63.111028,28.3360636 62.5479416,28.6606091 L56.125187,32.3685409 C55.0468848,32.9908568 53.614828,32.878483 52.19697,32.0602227 L36.0126995,22.7157477 C35.6248677,22.4918114 35.4918041,21.9956625 35.7157405,21.607425 C35.9396768,21.2191875 36.4358257,21.0865295 36.8240632,21.3100602 L53.0083336,30.6545352 C53.91057,31.1758364 54.7511427,31.2873989 55.3138234,30.9632591 L61.7369836,27.2549216 C62.8152859,26.6330114 64.2473427,26.7453852 65.6652007,27.5640511 L99.8597155,47.3061511 C100.247547,47.5300875 100.380611,48.0262364 100.156675,48.4144739 C100.006572,48.6749216 99.7335484,48.8201557 99.4532223,48.8201557" id="Fill-4" fill="#741CE5"></path>
                        <path d="M19.2197035,73.535428 L80.6326285,108.992019 L80.6326285,48.4768677 L19.2197035,13.0202768 L19.2197035,73.535428 Z M81.4439922,111.208664 C81.3040319,111.208664 81.163666,111.172559 81.0383103,111.100347 L18.0026581,74.7066314 C17.751541,74.5613973 17.5969763,74.2936473 17.5969763,74.0035848 L17.5969763,11.614995 C17.5969763,11.3249325 17.751541,11.0571825 18.0026581,10.9123541 C18.2537751,10.76712 18.5629047,10.76712 18.8140217,10.9123541 L81.849674,47.30607 C82.1003853,47.4508984 82.2553558,47.7186484 82.2553558,48.0087109 L82.2553558,110.397301 C82.2553558,110.687363 82.1003853,110.955113 81.849674,111.100347 C81.7239126,111.172559 81.5839524,111.208664 81.4439922,111.208664 L81.4439922,111.208664 Z" id="Fill-6" fill="#741CE5"></path>
                        <path d="M81.4431402,59.2181458 C81.3056141,59.2181458 81.1660595,59.1832572 81.0382698,59.1094231 L46.843755,39.3673231 C45.941113,38.8460219 45.1013516,38.7344594 44.5382652,39.0585992 L38.115105,42.7669367 C37.0368027,43.3888469 35.6051516,43.2768787 34.186888,42.4582128 L18.0026175,33.1141435 C17.6147857,32.8902072 17.481722,32.3940583 17.7056584,32.0058208 C17.9295948,31.617989 18.4261493,31.4845197 18.8139811,31.708456 L34.9982516,41.0525253 C35.900488,41.5738265 36.7414664,41.6862003 37.304147,41.3612492 L43.7269016,37.6533174 C44.8047982,37.0305958 46.2364493,37.142564 47.6551186,37.9620412 L81.8496334,57.7041412 C82.2374652,57.9280776 82.3705289,58.4242265 82.1465925,58.812464 C81.9964902,59.0729117 81.7234664,59.2181458 81.4431402,59.2181458" id="Fill-8" fill="#741CE5"></path>
                        <g id="Group-12" transform="translate(0.000000, 24.408658)">
                            <mask id="mask-4" fill="white">
                                <use xlink:href="#path-3"></use>
                            </mask>
                            <g id="Clip-11"></g>
                            <polygon id="Fill-10" fill="#741CE5" mask="url(#mask-4)" points="-4.05681818e-05 62.5927289 63.0356117 98.9864448 63.0356117 36.597855 -4.05681818e-05 0.204139091"></polygon>
                        </g>
                        <path d="M54.0304895,70.3933817 L28.8412998,55.8500942 C27.6721248,55.1750397 26.5508202,55.0642885 25.7240407,55.541776 L19.3012861,59.2497078 C18.4745066,59.7271953 17.353202,59.6160385 16.184027,58.940984 L9.00508159,54.7961328 L9.00508159,39.198884 L54.0304895,65.1945692 L54.0304895,70.3933817 Z" id="Fill-13" fill="#FFD03E"></path>
                        <path d="M54.0304895,108.609096 C53.8905293,108.609096 53.7505691,108.57299 53.6248077,108.500373 L35.6145634,98.1027481 C35.2263259,97.878406 35.093668,97.3822572 35.3176043,96.9940197 C35.5415407,96.6061878 36.0380952,96.4727185 36.425927,96.6970606 L53.2191259,106.39245 L53.2191259,87.0016708 C53.2191259,86.5537981 53.5826168,86.1903072 54.0304895,86.1903072 C54.4783623,86.1903072 54.8418532,86.5537981 54.8418532,87.0016708 L54.8418532,107.797732 C54.8418532,108.087795 54.6872884,108.355545 54.4361714,108.500373 C54.31041,108.57299 54.1704498,108.609096 54.0304895,108.609096" id="Fill-15" fill="#FFFFFF"></path>
                        <path d="M18.0093924,87.8127505 C17.8718663,87.8127505 17.7323117,87.7778618 17.6045219,87.7040277 L8.59960261,82.5052152 C8.21136511,82.2808732 8.07870716,81.78513 8.30264352,81.3968925 C8.52657989,81.008655 9.02313443,80.8755914 9.41096625,81.0995277 L18.4158856,86.2987459 C18.8037174,86.5226823 18.936781,87.0188311 18.7128447,87.4070686 C18.5627424,87.6675164 18.2897185,87.8127505 18.0093924,87.8127505" id="Fill-17" fill="#FFFFFF"></path>
                        <path d="M18.0093924,82.6137757 C17.8718663,82.6137757 17.7323117,82.578887 17.6045219,82.505053 L8.59960261,77.3062405 C8.21136511,77.0818984 8.07870716,76.5861552 8.30264352,76.1979177 C8.52657989,75.8100859 9.02313443,75.6766166 9.41096625,75.900553 L18.4158856,81.0997711 C18.8037174,81.3237075 18.936781,81.8198564 18.7128447,82.2080939 C18.5627424,82.4685416 18.2897185,82.6137757 18.0093924,82.6137757" id="Fill-19" fill="#FFFFFF"></path>
                        <path d="M18.0093924,77.4147603 C17.8718663,77.4147603 17.7323117,77.3798717 17.6045219,77.3060376 L8.59960261,72.1072251 C8.21136511,71.8828831 8.07870716,71.3871399 8.30264352,70.9989024 C8.52657989,70.6110706 9.02313443,70.4776012 9.41096625,70.7015376 L18.4158856,75.9007558 C18.8037174,76.1246922 18.936781,76.620841 18.7128447,77.0090785 C18.5627424,77.2695262 18.2897185,77.4147603 18.0093924,77.4147603" id="Fill-21" fill="#FFFFFF"></path>
                        <path d="M18.0093924,72.2157856 C17.8718663,72.2157856 17.7323117,72.1808969 17.6045219,72.1070628 L8.59960261,66.9078447 C8.21136511,66.6835026 8.07870716,66.1873537 8.30264352,65.7995219 C8.52657989,65.4112844 9.02313443,65.2786265 9.41096625,65.5021572 L18.4158856,70.701781 C18.8037174,70.9257174 18.936781,71.4222719 18.7128447,71.8101037 C18.5627424,72.0705515 18.2897185,72.2157856 18.0093924,72.2157856" id="Fill-23" fill="#FFFFFF"></path>
                        <g id="Group-27" transform="translate(0.000000, 21.974567)">
                            <mask id="mask-6" fill="white">
                                <use xlink:href="#path-5"></use>
                            </mask>
                            <g id="Clip-26"></g>
                            <polygon id="Fill-25" fill="#1A0960" mask="url(#mask-6)" points="63.0355306 39.0319053 -0.000121704545 2.63818943 4.5025408 0.0385803409 67.5381931 36.4322963"></polygon>
                        </g>
                        <g id="Group-30" transform="translate(62.880682, 58.080249)">
                            <mask id="mask-8" fill="white">
                                <use xlink:href="#path-7"></use>
                            </mask>
                            <g id="Clip-29"></g>
                            <polygon id="Fill-28" fill="#1A0960" mask="url(#mask-8)" points="-7.57242398 2.92622352 0.15484875 65.3148133 4.65751125 62.7152042 4.65751125 0.326614432"></polygon>
                        </g>
                    </g>
                    <path d="M107,22 C129.666667,10.6666667 148.666667,9.33333333 164,18 C187,31 172,71 197,83 C222,95 210,140 173,123" id="Path-4" stroke="#9DAFB7" stroke-dasharray="4,4"></path>
                </g>
            </g>
        </g>
    </g>
</svg>