<svg id="ilustra" xmlns="http://www.w3.org/2000/svg" xmlns:xlink="http://www.w3.org/1999/xlink" viewBox="0 0 979.98 836.59"><defs><style>.cls-1{fill:none;}.cls-2{fill:#ab3a47;}.cls-3{fill:#ca4d5d;}.cls-4{fill:#248e7e;}.cls-5{fill:#55c9b3;}.cls-6{fill:#edaf00;}.cls-7{fill:#f2f2f2;}.cls-8{fill:#f0cca7;}.cls-9{fill:#d8ad8d;}.cls-10{fill:#eec041;}.cls-11{fill:#5caabc;}.cls-12{fill:#4b84b5;}.cls-13{fill:#f4d03e;}.cls-14{clip-path:url(#clip-path);}.cls-15{fill:#67bcda;}.cls-16{fill:#73cfeb;}.cls-17{fill:#c69c6d;}.cls-18{fill:#417696;}.cls-19{fill:#8c6239;}.cls-20{fill:#c98200;}.cls-21{fill:#fff;}</style><clipPath id="clip-path"><circle class="cls-1" cx="486.8" cy="437.88" r="324"/></clipPath></defs><title>social-science_art</title><path class="cls-2" d="M110.16,386.68,3.34,325A5.93,5.93,0,0,1,0,320.73c0-.12,0-5.43,0-5.55-.09-2.24,1.51.55,4.72-1.3L108.77,253.8c5.71-3.29,14.34-3.65,19.28-.8l106.81,61.68c2.28,1.31,3.38-1.85,3.34,0,0,.07,0,5.08,0,5.15-.15,2.09-1.74,4.26-4.71,6l-104,60.08C123.73,389.17,115.1,389.53,110.16,386.68Z"/><path class="cls-3" d="M110.15,381.68,3.34,320C1.1,318.71,0,317,0,315.18c0-2.19,1.6-4.5,4.72-6.3L108.77,248.8c5.7-3.29,14.33-3.65,19.27-.8l106.82,61.68c2.31,1.33,3.4,3.13,3.33,5-.08,2.13-1.67,4.37-4.71,6.12l-104,60.08C123.72,384.17,115.09,384.53,110.15,381.68Z"/><path class="cls-4" d="M851.94,770,745.13,708.29a6,6,0,0,1-3.3-4.28c0-.12,0-5.43,0-5.55-.1-2.24,1.51.55,4.72-1.3l104-60.08c5.7-3.29,14.33-3.65,19.27-.79L976.65,698c2.28,1.31,3.37-1.85,3.33,0,0,.07,0,5.08,0,5.15-.15,2.09-1.74,4.26-4.7,6l-104,60.08C865.51,772.45,856.88,772.81,851.94,770Z"/><path class="cls-5" d="M851.94,765,745.12,703.29c-2.23-1.3-3.33-3-3.33-4.83,0-2.19,1.59-4.5,4.72-6.3l104-60.08c5.71-3.29,14.34-3.65,19.28-.79L976.65,693c2.3,1.33,3.4,3.13,3.33,5-.08,2.14-1.68,4.37-4.72,6.12l-104,60.08C865.51,767.45,856.88,767.81,851.94,765Z"/><path class="cls-6" d="M340.88,113.59s30.34,5.6,32.34,25-18.67,50.74-18.67,50.74L251.88,225.67l-8.66-5,33-84.34Z"/><circle class="cls-7" cx="486.8" cy="445.41" r="324"/><path class="cls-8" d="M296.55,212.33s11.67-8.66,17-15.66,5.69-16,9.84-17.34,2.26,14.49,2.26,14.49,10.23-2.15,16.57-5.15,10.66-8.67,15-6.34,4.66,24.67,1.66,28-12,10-17,10.34-33.66,5-33.66,5Z"/><path class="cls-6" d="M284.22,118.83s-32.5,12.5-45,32.5-26.5,91.5-26.5,101.5,10.06,21,30.78,13.5,64.72-33.86,64.72-33.86c8-12.64-4-28.64-8-28.64s-43.5,13-43.5,13,9-41,17-49.5,32.5-23,32.5-23Z"/><path class="cls-8" d="M362.72,79.05s3.5,34.28,6.5,34.28c-1,4.5-6.5,5-6.5,5s-1.5,14-10.5,18.5-25.5,7.5-25.5,7.5-9.5,11.5-18.5,12-30-16-25.5-31,18-54.5,18-54.5Z"/><polygon class="cls-9" points="613.21 77.93 607.22 147.83 625.1 147.83 631.22 93 628.72 64.5 617.86 76.9 613.21 77.93"/><path class="cls-10" d="M615.22,61.33l-8,35a60.72,60.72,0,0,0,42.87,12.5C675.72,106.33,615.22,61.33,615.22,61.33Z"/><path class="cls-4" d="M613.22,386.33s-.67,8.34,7.66,9,13.67.34,18.67-4.5,15.67-26.62,17.33-33.89-3.44-17.65-3.44-17.65Z"/><path class="cls-11" d="M625.1,327.67s-.45,5.66-1,18.33-11.22,33.67-10.88,40.33,13.08,5.8,16.66,5c9-2,21.67-27.33,24-41s-8-28.33-8-28.33Z"/><path class="cls-4" d="M594.88,270.67s-2.33,6.66,4.67,10.33,13.33,3.33,20.67-1.67,21-19.66,21-19.66l-12-3.32Z"/><path class="cls-11" d="M616.55,224s0,17.33-8,28.33-14,11.67-13.67,18.34,11,8,16,7S641.22,255,641.22,255l-5-43.33Z"/><path class="cls-12" d="M666.55,145c-39.83-15.17-54.95-24.72-73.33-10.56-19.34,14.89,19,88.39,18.77,91.39s15.23,3,15.23,3c-1.5,38-5,103-5,103s4.5,6.5,15,5.5,14.36-11.5,14.36-11.5,5.25-72.16,9.25-82.16,33.94-24.14,52.48-29.93c16.62-5.19,20.57-24.74,20.57-24.74Zm-28,60s-19.83-34.17-11.33-34.67,34.5,20,34.5,20Z"/><path class="cls-13" d="M618.88,69s-.66,19,16,36,31.67,34.33,31.67,40c19.67,11,16,35,35,41.67S733.88,189,733.88,189l-2-55.33-42.66-66L636.55,54.33Z"/><path class="cls-10" d="M733.88,189l-2-55.33-42.66-66-12.5-3.17c8.55,13.73,29.62,55.22,31.83,73.17,1.86,15.15,3.16,38.62,1.37,51.35C724.35,192.1,733.88,189,733.88,189Z"/><path class="cls-9" d="M740.22,106c11.33,23.33,12.66,38,12.66,41.67s-7.33,62-8,65.33,2.11,21.51-8.11,26.25c.11,7.08,3.55,16.75,0,17.08s-19.22-6.33-19.55-12-1.67-11-1.67-16,15-17,15-17,1-51.66,1-60.33-30-58-30-58Z"/><path class="cls-13" d="M644.88,36.67s32,.33,55.67,15S744.22,106,744.22,106c-15,16.67-30,15.41-30,15.41s-13.34-30.08-28-40.08S649.88,67,649.88,67l-14.66-9.67Z"/><path class="cls-9" d="M638.55,48a15.87,15.87,0,0,1,8.67,3.67c3.66,3.33,4,14,0,19.66s-9,2.67-14.34,2.67-27.33,6.67-33,5.67-14.33-18-14.33-18c-4,1.66-8.67-1-8.67-1l-3-45.67L614.22,0l18,17.33Z"/><path class="cls-2" d="M282.67,834.82l31.8-18.36c4.55-2.63,4.85-9.84-.42-12.88l-.86,2.57c-5.27-3-13.3-3.37-17.86-.74l-30.86,17.42c-4.56,2.63-4.92,8.21.34,11.25h0C270.08,837.12,278.11,837.45,282.67,834.82Z"/><path class="cls-3" d="M313.19,802.31h0c5.26,3,5.83,7.68,1.28,10.31L282.67,831c-4.56,2.63-12.59,2.3-17.86-.74h0c-4.34-2.28-3.7-4.24-3.7-4.24s-1.69-12.23.67-18.19,19.6-5.5,19.6-5.5,8.15,2.79,15.36,1.33S306.91,799.16,313.19,802.31Z"/><path class="cls-2" d="M238.64,810.91l31.8-18.36c4.56-2.63,4.85-9.84-.42-12.88l-.86,2.57c-5.27-3-13.3-3.37-17.86-.74l-30.86,17.42c-4.56,2.63-4.92,8.21.34,11.25h0C226.05,813.21,234.08,813.54,238.64,810.91Z"/><path class="cls-3" d="M269.16,778.4h0c5.26,3,5.84,7.68,1.28,10.31l-31.8,18.36c-4.56,2.63-12.59,2.3-17.86-.74h0c-4.34-2.28-3.7-4.24-3.7-4.24s-1.69-12.23.67-18.19,19.6-5.5,19.6-5.5,8.15,2.79,15.36,1.32S262.88,775.25,269.16,778.4Z"/><path class="cls-12" d="M204.05,617.54c-7.41,29.64,34.84,89.12,34.15,96.33s-18.12,52.27-22.33,68.5c3.6,13.81,18,7.81,18,7.81,26.44-52.28,31.64-75.11,32-78.11s2.81,12,2.81,25.83-7.21,64.89-7.21,69.1,10.61,7.81,18.52,4.2,20.53-81.11,20.53-92.52,2.95-61-7.61-97.13-49.47-42.26-49.47-42.26Z"/><path class="cls-8" d="M291.77,523.81s24,42.06,29.64,42.06,50.07-47.26,52.87-51.47,13.62-4.81,21.23-5.81,3.41-19.82,2.41-20.63-15.62,4.81-18.63,4.61-.4-4.2-1-7.81-3-1.2-4.81,3.2-3.4,11-5,12.82S327.82,536.23,326,536.23s-17-29.64-24.23-41.86S272.55,488.37,291.77,523.81Z"/><path class="cls-8" d="M193.64,479C180,501.38,178.82,540.24,182,544.64s33.65,3.28,50.47-2.37c9.09-3,12.52-17.66-30.74-13.15,3.1-31.34,20.33-55,20.33-55Z"/><path class="cls-5" d="M260.13,459.73c20.83,1.6,32.84,10.41,39.25,24.43s13.22,18,13.22,18S301.39,521,291.77,523.81c-3.6,16.83-11.82,29.24-11.72,45.27S293,621.55,293,621.55c-42.45,25.63-87.72.4-88.92-4,.4-16.82,17.23-40.45,17.23-59.28s-14-62.08-14-62.08c-15.62-.4-20-12-20-12,3.61-8.41,21.63-41.07,47.26-32.75Z"/><path class="cls-8" d="M278.55,400.45s9.22,56.74-18,55.4S278.55,400.45,278.55,400.45Z"/><path class="cls-3" d="M248.11,370c-15.62-13.21-44.86.41-46.46,28.44s10,78.91,4.81,80.51c8.81,18.83,26,24.84,41.65,22.83s23.64-11.21,17.63-38.45,1.36-31.37,12.41-44.06C291.77,403.65,289,368.8,248.11,370Z"/><g class="cls-14"><path class="cls-8" d="M567.59,571.76s.93-16.62,4.14-18,14.82-3,19.63-1.81-1.61,14.82,0,19.83,9.21-.2,12.41,4.21-6.53,4.56-11.21,7.21-3.3,13.62-3.3,13.62H574.93Z"/><path class="cls-15" d="M576.94,646.86c14.82-2,15.62-10,18.42-33.64s-8.41-36.85-22.43-22S576.94,646.86,576.94,646.86Z"/><path class="cls-8" d="M439.16,695.43s3.79,13,3.79,18.43.88,6.49,8.1,6.55,13.33-23.68-5.94-42.9S439.16,695.43,439.16,695.43Z"/><path class="cls-6" d="M476,521.89h37.25s12.62-10.81,12.62-32.44-4.64-36.55-20.43-41.12a193,193,0,0,1-36.05-14.76S437,479.84,476,521.89Z"/><path class="cls-16" d="M444.39,539.81s9.71-43.15,43.62-29.93,48.67,0,57.08,12-13.82,31.85-13.82,31.85Z"/><path class="cls-3" d="M455,679.89s-7,69.11-7,81.53,47.73,8.07,47.73,8.07-3.36-38.91,4.5-38.91S506,770.23,506,770.23s44.46.52,46.86-.74-10.81-86.58-10.81-86.58S482.78,668.86,455,679.89Z"/><path class="cls-15" d="M461.58,530.71s-21.63,9.61-32.85,20.82-17.62,68.5-17.62,87.32,21.67,51,25.06,54.92,17.33,2.52,14.68-10c-2.89-13.65-9.7-41.29-9.7-49.3S446.36,596,446.36,596s10.36,28.84,10.39,48.07-3.66,29.21-1.79,35.83,12,13.84,45.78,14.24,43-4.81,45-11.62-2.9-32-2.85-42,5.26-49.67,5.26-49.67,8,56.88,28.84,56.07,10-20.42,5.2-49.66-9.91-40.17-17.22-45.67c-15.55-11.68-34.52-19.94-42.46-17.59C512.74,536.83,461.58,530.71,461.58,530.71Z"/><path class="cls-16" d="M461.58,530.71c2.4,24.78,14.73,41,38.61,41s31.08-40.25,31.08-44.46S459.18,505.87,461.58,530.71Z"/><path class="cls-17" d="M694.79,535.91s-15.47-7.76-16.54-13.8-2.7-13.94,1.5-18.94-4.86-8-7.62-3.24-5.2,10.08-5.2,10.08c-12.25-4.4-15.71-5.43-18.87-2.9s-5.82,19.06-4.64,25.74,13.73,9,20.21,8.56,28,9.82,28,9.82Z"/><path class="cls-18" d="M781,454.18s42.25,4.79,42.25,79S781,653.52,781,653.52s-40.42-5.6-48.17-6,0-47,6.89-77.09,5.31-17.2,4.38-43.46,12.34-57.41,12.34-57.41Z"/><path class="cls-17" d="M751.22,383.33s-19.37-17-28,18.35c0,0-5.52,22.41-4.3,27.94s9.21,3.22,9.21,3.22-1.22,15.81,4.92,18.27,11.66,0,17.8,7.06,5.53,11.36,5.53,11.36L781,454.18c-4.91-8.6-4.3-13.44-4.3-13.44-.2-16.41,4.3-24.66,3.8-40.66S751.22,383.33,751.22,383.33Z"/><path class="cls-12" d="M789.57,471.06c18.88-2,32.29,27.18,25.43,64.71s-47.22,60.62-59.73,59.65-78.71-44.71-83.95-47.94c0-9.29,10.09-19.78,16.54-20.18,46.52,29.24,63,34.31,68.63,34.31s19.81-12.26,23.8-40.48C783.47,498.64,771.41,472.94,789.57,471.06Z"/><polygon class="cls-5" points="732.8 647.49 744.07 707.33 770.69 707.33 780.97 653.52 732.8 647.49"/></g><path class="cls-4" d="M638.55,48c-6.67-4.67-14.33-8-12-17s-3-12.33-7-10.33-6,7.66-4,20.33l-5,2.33s-3-13.66-10.67-13.33-41.66,5.67-45-22.67"/><path class="cls-12" d="M311.72,144.33s-32.5.17-43-38.16,5.5-81.84,53-83.34,75.5,45.28,49.5,62.39S276.72,80.33,311.72,144.33Z"/><path class="cls-8" d="M386.93,137.1s-10.38,3.57-10.05-3.77,9.67-3,19.67-6.66,26.67-5.19,30.67-5.26,10,25.92,5.66,26.92-24.5,10.67-27.25,6.34S396.88,135,396.88,135Z"/><path class="cls-19" d="M728.62,387.53c-5.1-3.2-13.9-12.7-6.4-26.7,9.88-18.45,35.5-30.5,65-16.91,24.27,11.17,43,59,16.25,77.91s-26.79,20.24-26.79,20.24-5.27-10.74-6.12-19.49,10.16-18.5,5.41-24.25-12,.75-11.5,7.75c-2.5,2.25-7.25-.5-7.25-.5s-4.5-7.75-4.5-16.5C738.47,395.08,733.73,390.72,728.62,387.53Z"/><polygon class="cls-20" points="334.47 418.74 330.86 416.65 338.33 380.74 341.94 382.82 334.47 418.74"/><polygon class="cls-6" points="428.28 332.97 366.05 368.9 334.47 418.74 341.94 382.82 325.47 392.33 325.47 315.5 428.28 256.14 428.28 332.97"/><path class="cls-21" d="M362,316c3-1.76,5.18-.62,5.18,2.71a10.6,10.6,0,0,1-5.18,8.6c-2.88,1.67-5.11.76-5.11-2.75A10.58,10.58,0,0,1,362,316ZM391,299.25c3.05-1.76,5.19-.62,5.19,2.71a10.6,10.6,0,0,1-5.19,8.6c-2.88,1.67-5.1.76-5.1-2.76A10.56,10.56,0,0,1,391,299.25Z"/><path class="cls-21" d="M343.92,343.09c8.15,2,18.86,1.09,33.68-7.47s25.28-19.73,33.43-31.28v6.47a102.41,102.41,0,0,1-33.51,31.8c-16.14,9.32-26.6,9-33.6,6.94Z"/><polygon class="cls-20" points="566.9 178.4 563.29 176.31 546.49 186.01 550.1 188.09 566.9 178.4"/><polygon class="cls-6" points="462 238.96 525.5 202.3 557.72 151.46 550.1 188.09 566.9 178.4 566.9 256.78 462 317.34 462 238.96"/><path class="cls-21" d="M523.09,243.69s-4.9-3.37-2.88-17.27-10.46-5.69-8.12,19l-14.38,8.3a11.52,11.52,0,0,0-5.21,9v16c0,3.33,2.33,4.67,5.21,3l14.38-8.3c5.52-3.19,11-10.69,11-10.69Z"/><polygon class="cls-21" points="535.78 255.7 526.56 261.02 526.56 241.69 535.78 236.37 535.78 255.7"/><polygon class="cls-20" points="325.47 392.33 321.86 390.25 321.86 313.42 325.47 315.5 325.47 392.33"/><polygon class="cls-20" points="462 315.79 458.39 313.7 458.39 236.87 462 238.96 462 315.79"/><polygon class="cls-20" points="428.28 256.14 424.67 254.06 321.86 313.42 325.47 315.5 428.28 256.14"/><polygon class="cls-20" points="525.5 202.3 521.89 200.21 458.39 236.87 462 238.96 525.5 202.3"/><polygon class="cls-20" points="525.5 202.3 521.89 200.21 554.11 149.37 557.72 151.46 525.5 202.3"/><path class="cls-21" d="M142,330.71c-3.17-1.82-3.55-4.24-1-5.73s6.77-1.27,9.93.55,3.7,4.16,1,5.74S145.08,332.49,142,330.71Zm-10.66-8.34L88.13,298.64l7.3-4.21,41.09,24.95Z"/><path class="cls-21" d="M814.2,707.76a13.57,13.57,0,0,1,12.94-.18c3.68,2.12,3.47,5.16-.42,7.41a13.4,13.4,0,0,1-12.83.12C810.2,713,810.52,709.88,814.2,707.76Zm17-7.17,2.53-1.7c5.05-3.64,13.15-6.13,24.72-6.74,10.31-.49,17-1.34,21.77-4.07,5.37-3.1,5.58-7.11-.94-11a35.61,35.61,0,0,0-13.89-4.25l4.1-5.29a51.71,51.71,0,0,1,19.26,6.26c12.09,7,10.09,14.45,2.1,19.07-7.15,4.13-16.31,4.8-27.35,5.34-10.1.49-16.41,2.19-21.46,5.47l-2.63,1.64Z"/></svg>