<svg xmlns="http://www.w3.org/2000/svg" width="400" height="240" viewBox="0 0 400 240">
  <defs>
    <linearGradient id="p-pai-beta-a" x1="50.258%" x2="49.781%" y1="90.143%" y2="-1.617%">
      <stop offset="0%" stop-color="#2BB3FF"/>
      <stop offset="100%" stop-color="#2BB3FF" stop-opacity="0"/>
    </linearGradient>
    <linearGradient id="p-pai-beta-b" x1="49.977%" x2="49.977%" y1="90.316%" y2="4.197%">
      <stop offset="0%" stop-color="#2BB3FF"/>
      <stop offset="100%" stop-color="#2BB3FF" stop-opacity="0"/>
    </linearGradient>
  </defs>
  <g fill="none" fill-rule="evenodd">
    <path fill="#FFAF00" fill-rule="nonzero" d="M351,149.72 L350.41,150.02 C349.75204,148.9111 348.804914,148.001998 347.67,147.39 L208.5,67 C203.56,64.15 194.94,64.51 189.24,67.8 L52.81,146.59 C51.0675009,147.491927 49.6254359,148.88187 48.66,150.59 L48.1,150.34 L48.1,153.03 L48.1,153.03 C48.18,154.77 49.27,156.42 51.43,157.66 L190.62,238.03 C195.56,240.88 204.18,240.52 209.88,237.23 L346.3,158.51 C349.48,156.68 351.07,154.33 351.011637,152.11 L351.011637,152.11 L351,149.72 Z"/>
    <path fill="#E9EEF2" fill-rule="nonzero" d="M190.62,235.61 L51.43,155.25 C46.49,152.4 47.11,147.42 52.81,144.13 L189.24,65.37 C194.94,62.07 203.56,61.72 208.5,64.57 L347.69,144.93 C352.62,147.78 352.01,152.76 346.3,156.05 L322.4,169.85 L209.88,234.85 C204.18,238.1 195.56,238.46 190.62,235.61 Z"/>
    <path fill="#FFAF00" fill-rule="nonzero" d="M77.09,180.66 L77.09,178.19 L75.48,178.9 L40.82,158.9 C39.2447586,158.181532 37.4215888,158.255795 35.91,159.1 L1.73,178.84 L-0.000544259145,178.14 L-0.000544259145,180.6 L-0.000544259145,180.6 L-0.000544259145,180.66 L-0.000544259145,180.66 C-0.0159587194,181.238078 0.320240703,181.768086 0.85,182 L36.28,202.45 C37.8518124,203.168333 39.671958,203.094041 41.18,202.25 L75.9,182.17 C76.52844,181.902828 76.9771302,181.333482 77.09,180.66 Z"/>
    <path fill="#E9EEF2" fill-rule="nonzero" d="M36.28,200 L0.85,179.5 C-0.41,178.78 -0.25,177.5 1.2,176.67 L35.92,156.67 C37.4317674,155.828898 39.251937,155.751049 40.83,156.46 L76.26,176.92 C77.51,177.64 77.36,178.92 75.9,179.75 L41.18,199.75 C39.6768307,200.599145 37.8617864,200.69175 36.28,200 L36.28,200 Z"/>
    <rect width="155.57" height="13.02" x="122.45" y="135.42" fill="#FFAF00" fill-rule="nonzero"/>
    <ellipse cx="200.23" cy="148.44" fill="#FFAF00" fill-rule="nonzero" rx="77.79" ry="44.91"/>
    <ellipse cx="200.23" cy="135.42" fill="#A02FF7" fill-rule="nonzero" rx="77.79" ry="44.91"/>
    <ellipse cx="200.23" cy="134.56" fill="#471CAF" fill-rule="nonzero" rx="73" ry="42.15"/>
    <path fill="#1A0960" fill-rule="nonzero" d="M148.61,109.28 C177.12,92.82 223.34,92.82 251.85,109.28 C265.11,116.94 272.19,126.8 273.12,136.82 C274.19,125.29 267.12,113.56 251.85,104.76 C223.34,88.3 177.12,88.3 148.61,104.76 C133.36,113.56 126.27,125.29 127.34,136.82 C128.27,126.8 135.35,116.94 148.61,109.28 Z"/>
    <path fill="#FFAF00" fill-rule="nonzero" d="M260.84,118.43 L258.24,118.43 C255.45,113.09 250.4,108.05 243.09,103.83 C219.42,90.17 181.04,90.17 157.37,103.83 C150.06,108.05 145.01,113.09 142.22,118.43 L139.62,118.43 L139.62,128.58 L139.62,128.58 C139.62,137.53 145.54,146.49 157.37,153.32 C181.04,166.99 219.37,166.99 243.09,153.32 C254.92,146.49 260.84,137.53 260.84,128.58 L260.84,128.58 L260.84,118.43 Z"/>
    <ellipse cx="200.23" cy="118.43" fill="#741CE5" fill-rule="nonzero" rx="60.61" ry="34.99"/>
    <ellipse cx="200.23" cy="117.98" fill="#027AFF" fill-rule="nonzero" rx="54.75" ry="31.61"/>
    <path fill="#1A0960" fill-rule="nonzero" d="M400,128 L400,128 L400,125.54 L397.17,125.54 L363.73,106.23 C362.155356,105.521209 360.338228,105.599086 358.83,106.44 L325.75,125.54 L322.919652,125.54 L322.919652,128 L322.919652,128 C322.907453,128.564013 323.234661,129.080449 323.75,129.31 L359.18,149.77 C360.75742,150.477262 362.575329,150.403213 364.09,149.57 L398.81,129.52 C399.429836,129.236478 399.873514,128.669763 400,128 L400,128 Z"/>
    <path fill="#741CE5" fill-rule="nonzero" d="M359.17,147.31 L323.74,126.86 C322.49,126.13 322.64,124.86 324.1,124.03 L358.82,104.03 C360.328042,103.185959 362.148188,103.111667 363.72,103.83 L399.15,124.28 C400.41,125.01 400.25,126.28 398.8,127.11 L364.08,147.16 C362.560369,147.988173 360.737351,148.043866 359.17,147.31 L359.17,147.31 Z"/>
    <path fill="#F16A24" fill-rule="nonzero" d="M338.3,90.13 C334.3,90.13 327.14,89.06 324.49,87.96 C323.327236,87.4595084 322.450572,86.4634639 322.101778,85.2465604 C321.752984,84.0296569 321.968908,82.7204504 322.69,81.68 L323.49,80.52 C323.89,80.79 337.1,87.25 346.28,81.76 L349.44,87.05 C346.079857,89.0799377 342.22568,90.145545 338.3,90.13 L338.3,90.13 Z"/>
    <path fill="#FFF" fill-rule="nonzero" d="M343.57,82.13 C340.62,83.25 332.69,82.25 330.85,82.13 C331.322942,84.5470826 331.322942,87.0329174 330.85,89.45 C330.85,89.45 339.12,91.31 343.57,91.14 C345.08,91.56 346.36,107.88 346.36,107.88 L352.51,101.05 L349.07,82.64 L343.57,82.13 Z"/>
    <path fill="#FFBF2E" fill-rule="nonzero" d="M385.5,53 C385.5,53 386.5,49.37 383.37,47.62 C381.423875,46.641514 379.088257,46.8711831 377.37,48.21 L385.5,53 Z"/>
    <path fill="#D4542B" fill-rule="nonzero" d="M367.29,119.66 C367.29,119.66 370.79,123.26 383.14,113.1 C393.79,104.34 397.54,86.76 383.51,72.73 C364.06,53.29 387.51,43.48 385.51,52.98 C387.85,43.61 370.2,38.49 362.79,40.11 C353.47,42.11 344.41,57.59 355.4,75.97 C366.39,94.35 374.86,118.76 367.29,119.66 Z"/>
    <path fill="#F16A24" fill-rule="nonzero" d="M375.5,103.07 C369.81,92.36 359.4,78.07 352.59,77.37 C345.78,76.67 343.46,81.05 344.34,85.29 C345.02,88.54 346.97,90.17 348.81,91.87 C350.99,93.87 353,96.01 352.51,101.05 C351.59,110.34 365.44,115.58 368.97,111.15 C372.5,106.72 375.5,103.07 375.5,103.07 Z"/>
    <path fill="#F16A24" fill-rule="nonzero" d="M344.69,107.51 C345.96,99.74 351.05,95.35 352.14,86.33 C352.14,86.33 363.67,109.04 361.87,113.73 C360.07,118.42 353.4,115.89 351.77,116.97 C350.14,118.05 350.9,120.97 350.9,120.97 C348.73,123.32 344.27,122.72 343.07,122.24 C342.659503,120.406789 343.69964,118.559574 345.48,117.96 C345.6,115.35 343.49,114.92 344.69,107.51 Z"/>
    <path fill="#FFBF2E" fill-rule="nonzero" d="M350.32,87.35 C357.32,88.67 359.24,94.93 358.53,104.63 C357.6,117.21 360.61,117.87 362.05,119.32 C353.52,119.44 347.6,115.04 349.05,103.46 C350.13,95.02 350.88,93.73 348.79,91.87 C346.7,90.01 346.72,86.67 350.32,87.35 Z"/>
    <path fill="#F16A24" fill-rule="nonzero" d="M356.93,107.21 C356.18,119.3 367.67,121.97 368.03,125.57 C367.124076,125.988643 366.431169,126.762709 366.115013,127.709284 C365.798857,128.65586 365.887501,129.690964 366.36,130.57 C369.475752,131.115977 372.654643,130.033721 374.79,127.7 C374.476028,126.325419 374.275355,124.927397 374.19,123.52 C375.19,119.81 380.19,112.7 375.5,103.07 C369.94,91.68 357.65,95.54 356.93,107.21 Z"/>
    <path fill="#F16A24" fill-rule="nonzero" d="M343.759629,62.9290997 L347.409629,62.9290997 C349.634796,62.9290997 351.768825,63.8130436 353.342255,65.3864738 C354.915685,66.959904 355.799629,69.0939334 355.799629,71.3190997 L355.799629,83.3190997 L335.379629,83.3190997 L335.379629,71.3190997 C335.379629,66.6854307 339.13596,62.9290997 343.769629,62.9290997 L343.759629,62.9290997 Z" transform="rotate(-170 345.59 73.124)"/>
    <path fill="#F16A24" fill-rule="nonzero" d="M356.48 70.14L358.31 59.78C353.31 58.9 352.1 63.87 352.1 63.87 352.1 63.87 351.45 69.25 356.48 70.14zM336.37 66.59L338.19 56.24C343.19 57.12 342.63 62.24 342.63 62.24 342.63 62.24 341.4 67.48 336.37 66.59z"/>
    <path fill="#8D2204" fill-rule="nonzero" d="M343.62 75C344.007665 74.4427052 344.711232 74.2000959 345.36 74.4 346.03144 74.4518528 346.600776 74.9136915 346.79 75.56 346.63 76.43 345.96 77.85 344.79 77.64 343.62 77.43 343.47 75.89 343.62 75zM349.6 72.75C349.525324 73.033295 349.615694 73.3345441 349.833974 73.5299573 350.052254 73.7253705 350.361628 73.7819879 350.634967 73.6765442 350.908306 73.5711005 351.099506 73.3213806 351.13 73.03 351.21 72.6 350.99 71.81 350.57 71.73 350.15 71.65 349.67 72.33 349.6 72.75zM339.22 70.92C339.169983 71.1950945 339.270526 71.4759762 339.483756 71.6568396 339.696987 71.837703 339.990509 71.8910707 340.253756 71.7968396 340.517004 71.7026085 340.709983 71.4750945 340.76 71.2 340.83 70.77 340.62 69.98 340.19 69.9 339.76 69.82 339.29 70.5 339.22 70.92z"/>
    <path fill="#501B29" fill-rule="nonzero" d="M333.69,66.32 L333.09,69.76 C332.941728,70.5889328 333.129369,71.442797 333.611519,72.1331916 C334.09367,72.8235863 334.830705,73.2937704 335.66,73.44 L340.78,74.34 C342.505106,74.6429705 344.150421,73.4939326 344.46,71.77 L344.67,70.54 L347.26,71 L347,72.22 C346.697435,73.9483861 347.852004,75.5952134 349.58,75.9 L354.69,76.8 C355.518933,76.9482717 356.372797,76.7606313 357.063192,76.2784806 C357.753586,75.79633 358.22377,75.0592955 358.37,74.23 L358.98,70.78 L347.61,68.78 L347.4,69.98 L344.81,69.53 L345.02,68.32 L333.69,66.32 Z M348.49,70 L357.82,71.65 L357.39,74.08 C357.292414,74.6398835 356.976126,75.1379544 356.510889,75.4643704 C356.045652,75.7907865 355.469682,75.9187355 354.91,75.82 L349.8,74.91 C349.238848,74.8149168 348.73909,74.4992084 348.412199,74.0332956 C348.085309,73.5673827 347.958479,72.9900229 348.06,72.43 L348.49,70 Z M334.49,67.54 L343.83,69.19 L343.4,71.62 C343.1734,72.7319485 342.124986,73.4789434 341,73.33 L335.88,72.42 C335.320117,72.3224136 334.822046,72.0061256 334.49563,71.5408889 C334.169213,71.0756523 334.041265,70.499682 334.14,69.94 L334.49,67.54 Z"/>
    <path fill="#F16A24" fill-rule="nonzero" d="M342.58,99.31 C339.981672,99.2799693 337.411483,98.767966 335,97.8 C333.837909,97.3539424 332.930527,96.4197697 332.518463,95.2451949 C332.106399,94.07062 332.231283,92.7743082 332.86,91.7 L333.68,90.31 C338.27,93.01 342.42,93.79 346.01,92.61 C351.88,90.69 354.75,84.15 354.78,84.08 L360.45,86.48 C360.3,86.86 356.51,95.62 347.99,98.48 C346.241745,99.0403362 344.415827,99.3204677 342.58,99.31 Z"/>
    <path fill="#DEE7ED" fill-rule="nonzero" d="M351,112.42 L305,107.31 L322.39,169.85 L336.39,161.76 L336.39,161.76 L346.91,155.68 C349.434129,154.225076 350.989646,151.533423 350.99,148.62 L351,112.42 Z"/>
    <polygon fill="#471CAF" fill-rule="nonzero" points="332.44 111.27 299.94 92.5 318.52 93.65 351.02 112.42"/>
    <polygon fill="#A02FF7" fill-rule="nonzero" points="322.39 117.07 289.89 98.3 299.94 92.5 299.94 92.5 332.44 111.27 332.44 111.27 322.39 117.07"/>
    <polygon fill="#027AFF" fill-rule="nonzero" points="340.91 109.76 320.34 97.88 312.69 71.65 333.26 83.53" opacity=".5"/>
    <polygon fill="#FFF" fill-rule="nonzero" points="322.39 117.07 289.89 98.3 289.89 151.09 322.39 169.85"/>
    <polygon fill="#027AFF" fill-rule="nonzero" points="340.03 110.19 319.46 98.31 311.81 72.08 332.38 83.96" opacity=".5"/>
    <polygon stroke="#FFF" stroke-linecap="round" stroke-linejoin="round" stroke-width=".57" points="336.42 103.25 322.07 94.97 316.74 76.68 331.08 84.96"/>
    <line x1="322.9" x2="333.72" y1="88.64" y2="94.89" stroke="#FFF" stroke-linecap="round" stroke-linejoin="round" stroke-width=".57"/>
    <line x1="323.78" x2="334.62" y1="91.28" y2="97.5" stroke="#FFF" stroke-linecap="round" stroke-linejoin="round" stroke-width=".57"/>
    <line x1="324.65" x2="335.44" y1="93.92" y2="100.15" stroke="#FFF" stroke-linecap="round" stroke-linejoin="round" stroke-width=".57"/>
    <ellipse cx="322.397" cy="84.358" stroke="#FFF" stroke-linecap="round" stroke-linejoin="round" stroke-width=".57" rx="1.04" ry="1.8" transform="rotate(-30 322.397 84.358)"/>
    <ellipse cx="323.02" cy="111.79" stroke="#FFAF00" stroke-width=".57" rx="2.36" ry="1.36"/>
    <ellipse cx="317.92" cy="108.84" stroke="#FFAF00" stroke-width=".57" rx="2.36" ry="1.36"/>
    <ellipse cx="312.82" cy="105.9" stroke="#FFAF00" stroke-width=".57" rx="2.36" ry="1.36"/>
    <ellipse cx="307.72" cy="102.95" stroke="#FFAF00" stroke-width=".57" rx="2.36" ry="1.36"/>
    <path fill="#FFAF00" fill-rule="nonzero" d="M311.15 104.93C312.200379 104.400512 313.439621 104.400512 314.49 104.93 314.92549 105.048349 315.22775 105.443715 315.22775 105.895 315.22775 106.346285 314.92549 106.741651 314.49 106.86L311.15 104.93zM306.05 102C307.100379 101.470512 308.339621 101.470512 309.39 102 309.82549 102.118349 310.12775 102.513715 310.12775 102.965 310.12775 103.416285 309.82549 103.811651 309.39 103.93L306.05 102z"/>
    <line x1="316.25" x2="319.59" y1="109.81" y2="107.88" stroke="#FFAF00" stroke-width=".57"/>
    <line x1="323.02" x2="324.69" y1="111.79" y2="112.75" stroke="#FFAF00" stroke-width=".57"/>
    <line x1="303.95" x2="302.81" y1="100.78" y2="100.12" stroke="#FFAF00" stroke-width=".57"/>
    <line x1="302.13" x2="300.99" y1="99.73" y2="99.07" stroke="#FFAF00" stroke-width=".57"/>
    <line x1="300.32" x2="299.18" y1="98.68" y2="98.03" stroke="#FFAF00" stroke-width=".57"/>
    <line x1="298.51" x2="297.37" y1="97.64" y2="96.98" stroke="#FFAF00" stroke-width=".57"/>
    <line x1="303.18" x2="302.05" y1="101.22" y2="100.56" stroke="#FFAF00" stroke-width=".57"/>
    <line x1="301.37" x2="300.23" y1="100.17" y2="99.51" stroke="#FFAF00" stroke-width=".57"/>
    <line x1="299.56" x2="298.42" y1="99.12" y2="98.47" stroke="#FFAF00" stroke-width=".57"/>
    <line x1="297.74" x2="296.61" y1="98.08" y2="97.42" stroke="#FFAF00" stroke-width=".57"/>
    <line x1="303.95" x2="302.81" y1="100.78" y2="100.12" stroke="#FFAF00" stroke-width=".57"/>
    <line x1="302.13" x2="300.99" y1="99.73" y2="99.07" stroke="#FFAF00" stroke-width=".57"/>
    <line x1="300.32" x2="299.18" y1="98.68" y2="98.03" stroke="#FFAF00" stroke-width=".57"/>
    <line x1="298.51" x2="297.37" y1="97.64" y2="96.98" stroke="#FFAF00" stroke-width=".57"/>
    <line x1="304.71" x2="303.57" y1="100.34" y2="99.68" stroke="#FFAF00" stroke-width=".57"/>
    <line x1="302.89" x2="301.76" y1="99.29" y2="98.63" stroke="#FFAF00" stroke-width=".57"/>
    <line x1="301.08" x2="299.94" y1="98.24" y2="97.59" stroke="#FFAF00" stroke-width=".57"/>
    <line x1="299.27" x2="298.13" y1="97.2" y2="96.54" stroke="#FFAF00" stroke-width=".57"/>
    <path fill="#FFD03E" fill-rule="nonzero" d="M311.15 104.93C312.200379 104.400512 313.439621 104.400512 314.49 104.93 314.92549 105.048349 315.22775 105.443715 315.22775 105.895 315.22775 106.346285 314.92549 106.741651 314.49 106.86L311.15 104.93zM306.05 102C307.100379 101.470512 308.339621 101.470512 309.39 102 309.82549 102.118349 310.12775 102.513715 310.12775 102.965 310.12775 103.416285 309.82549 103.811651 309.39 103.93L306.05 102z"/>
    <path fill="#FFF" fill-rule="nonzero" d="M355,78.08 C352.19,86.33 349.83,90.83 346.08,91.98 C342.33,93.13 340.08,92.25 340.08,92.25 L340.08,99.71 C346.19,101.13 353.6,97.21 354.79,96.71 C355.98,96.21 356.48,99.82 356.48,103.06 C356.48,107.23 356.02,123.51 355.21,126.83 C370.88,130.3 377.94,123.45 377.94,123.45 C377.94,123.45 380.58,119.45 377.94,106.91 C375.3,94.37 360.29,80.25 355,78.08 Z"/>
    <polyline stroke="#FFD03E" stroke-linecap="round" stroke-width=".57" points="351.02 113.55 332.44 112.4 322.39 118.2 289.89 99.43"/>
    <polyline stroke="#FFAF00" stroke-linecap="round" stroke-width=".57" points="322.39 118.2 332.44 112.4 351.02 113.55"/>
    <polygon fill="#027AFF" fill-rule="nonzero" points="255 31.49 255 31.61 255 31.61" opacity=".5"/>
    <path fill="url(#p-pai-beta-a)" fill-rule="nonzero" d="M161.52,96.54 C182.9,84.2 217.52,84.2 238.95,96.54 C249.07,102.38 254.44,111.54 254.950348,119.2 L254.950348,119.2 L254.950348,31.72 C255,23.59 249.66,15.46 238.95,9.26 C217.56,-3.09 182.95,-3.09 161.52,9.26 C150.78,15.46 145.44,23.59 145.519114,31.72 L145.84,119.2 L145.84,119.2 C146.34,111.54 151.39,102.38 161.52,96.54 Z" opacity=".5"/>
    <ellipse cx="199.548" cy="138.591" fill="#14232E" fill-rule="nonzero" rx="2.67" ry="4.62" transform="rotate(-89.88 199.548 138.59)"/>
    <ellipse cx="199.558" cy="97.354" fill="#14232E" fill-rule="nonzero" rx="2.67" ry="4.62" transform="rotate(-89.88 199.558 97.354)"/>
    <ellipse cx="165.366" cy="117.977" fill="#14232E" fill-rule="nonzero" rx="2.67" ry="4.62" transform="rotate(-89.88 165.366 117.977)"/>
    <ellipse cx="234.872" cy="117.968" fill="#14232E" fill-rule="nonzero" rx="2.67" ry="4.62" transform="rotate(-89.88 234.872 117.968)"/>
    <path fill="#0A367C" fill-rule="nonzero" d="M200.67,97.3600525 L198.33,97.3600525 C197.16186,97.3679778 196.18926,96.4654751 196.11,95.3 C195.72,88.48 193.11,87.4 184.38,83.86 C178.938274,81.729023 173.628804,79.2746452 168.48,76.51 C163.938398,74.1857437 160.522334,70.1326816 159.000703,65.2630867 C157.479072,60.3934917 157.979735,55.1165471 160.39,50.62 C164.83,42.12 175.74,36.77 190.48,43.06 C191.132389,43.3419838 191.63956,43.8806006 191.881836,44.5487534 C192.124113,45.2169063 192.080033,45.9554099 191.76,46.59 L191,48.05 C190.382648,49.2684115 188.922649,49.7945371 187.67,49.25 C176.28,44.43 169.12,48.52 166.38,53.77 C164.825375,56.6925673 164.513341,60.1181019 165.514326,63.2734607 C166.51531,66.4288196 168.744944,69.0480529 171.7,70.54 C176.626998,73.1722912 181.705934,75.509737 186.91,77.54 C196.29,81.35 202.17,83.75 202.86,95 C202.898425,95.6074599 202.685749,96.2040527 202.271721,96.6502197 C201.857693,97.0963866 201.278634,97.3529888 200.67,97.3600525 L200.67,97.3600525 Z"/>
    <line x1="201.06" x2="195" y1="87.4" y2="90.45" fill="#FFF" fill-rule="nonzero" stroke="#2BB3FF" stroke-width=".57"/>
    <line x1="192.91" x2="189.92" y1="80.15" y2="86.25" fill="#FFF" fill-rule="nonzero" stroke="#2BB3FF" stroke-width=".57"/>
    <line x1="184.5" x2="181.9" y1="76.57" y2="82.84" fill="#FFF" fill-rule="nonzero" stroke="#2BB3FF" stroke-width=".57"/>
    <line x1="176.54" x2="173.57" y1="73" y2="79.11" fill="#FFF" fill-rule="nonzero" stroke="#2BB3FF" stroke-width=".57"/>
    <line x1="169.47" x2="165.16" y1="69.02" y2="74.27" fill="#FFF" fill-rule="nonzero" stroke="#2BB3FF" stroke-width=".57"/>
    <line x1="165.57" x2="159.1" y1="63.35" y2="65.43" fill="#FFF" fill-rule="nonzero" stroke="#2BB3FF" stroke-width=".57"/>
    <line x1="165.39" x2="158.81" y1="56.44" y2="54.73" fill="#FFF" fill-rule="nonzero" stroke="#2BB3FF" stroke-width=".57"/>
    <line x1="168.9" x2="164.27" y1="50.49" y2="45.52" fill="#FFF" fill-rule="nonzero" stroke="#2BB3FF" stroke-width=".57"/>
    <line x1="175.12" x2="173.81" y1="47.4" y2="40.74" fill="#FFF" fill-rule="nonzero" stroke="#2BB3FF" stroke-width=".57"/>
    <line x1="182.6" x2="184.05" y1="47.63" y2="40.99" fill="#FFF" fill-rule="nonzero" stroke="#2BB3FF" stroke-width=".57"/>
    <path fill="#0A367C" fill-rule="nonzero" d="M230.79 117.77C224.24 107.06 219.4 96.7 226 76.1 226.211854 75.4390402 226.682043 74.8918726 227.303601 74.5829773 227.925158 74.2740821 228.64523 74.229726 229.3 74.46L230.87 75.01C232.181048 75.4733254 232.882521 76.8984694 232.45 78.22 226.17 97.62 231.07 105.47 238.35 117.13L235.52 118.9C233.900756 119.887501 231.788037 119.382771 230.79 117.77L230.79 117.77zM166.61 118.000008L164.26 118.000008C163.648094 117.998007 163.063639 117.745772 162.642435 117.301902 162.221231 116.858032 161.999948 116.261171 162.03 115.65 163.14 91.82 181.03 80.78 195.5 71.85 205.5 65.7 214.1 60.38 214.1 52.85 214.1 36.34 196.1 31.09 190.94 29.92 190.165274 29.749771 189.659724 29.0024362 189.79 28.22L190.37 24.46C190.433337 24.0540701 190.658299 23.6910673 190.993629 23.4536984 191.32896 23.2163295 191.746097 23.124813 192.15 23.2 202.91 25.37 220.9 33.84 220.9 52.85 220.9 64.22 210.3 70.76 199.07 77.68 185.33 86.16 169.83 95.68 168.82 115.95 168.735971 117.107659 167.770701 118.003046 166.61 118.000008zM203.39 135.69C203.303348 136.610035 202.830298 137.450067 202.088503 138.001169 201.346709 138.552271 200.405875 138.762657 199.5 138.58L196.23 137.93 199.56 138.59 198.32 138.35C197.173811 138.122969 196.397218 137.0497 196.54 135.89 197 132.12 197.19 125.83 195.2 121.54 194.742423 120.554099 195.058642 119.381979 195.95 118.76L197.81 117.44C198.35711 117.055564 199.044918 116.929461 199.692825 117.094802 200.340732 117.260143 200.884006 117.70041 201.18 118.3 204 124 203.82 131.39 203.39 135.69z"/>
    <line x1="169.64" x2="163" y1="109.75" y2="108.33" fill="#FFF" fill-rule="nonzero" stroke="#2BB3FF" stroke-width=".57"/>
    <line x1="172.4" x2="166.31" y1="101.8" y2="98.78" fill="#FFF" fill-rule="nonzero" stroke="#2BB3FF" stroke-width=".57"/>
    <line x1="177.05" x2="171.82" y1="94.71" y2="90.37" fill="#FFF" fill-rule="nonzero" stroke="#2BB3FF" stroke-width=".57"/>
    <line x1="183.19" x2="178.79" y1="88.56" y2="83.39" fill="#FFF" fill-rule="nonzero" stroke="#2BB3FF" stroke-width=".57"/>
    <line x1="190.31" x2="186.49" y1="83.19" y2="77.58" fill="#FFF" fill-rule="nonzero" stroke="#2BB3FF" stroke-width=".57"/>
    <line x1="198.01" x2="194.44" y1="78.26" y2="72.48" fill="#FFF" fill-rule="nonzero" stroke="#2BB3FF" stroke-width=".57"/>
    <line x1="205.96" x2="202.2" y1="73.24" y2="67.59" fill="#FFF" fill-rule="nonzero" stroke="#2BB3FF" stroke-width=".57"/>
    <line x1="213.78" x2="209.12" y1="67.25" y2="62.3" fill="#FFF" fill-rule="nonzero" stroke="#2BB3FF" stroke-width=".57"/>
    <line x1="219.93" x2="213.51" y1="58.36" y2="56.12" fill="#FFF" fill-rule="nonzero" stroke="#2BB3FF" stroke-width=".57"/>
    <line x1="220.38" x2="213.71" y1="47.43" y2="48.71" fill="#FFF" fill-rule="nonzero" stroke="#2BB3FF" stroke-width=".57"/>
    <line x1="216.25" x2="210.68" y1="37.63" y2="41.52" fill="#FFF" fill-rule="nonzero" stroke="#2BB3FF" stroke-width=".57"/>
    <line x1="208.85" x2="204.93" y1="30.31" y2="35.85" fill="#FFF" fill-rule="nonzero" stroke="#2BB3FF" stroke-width=".57"/>
    <line x1="199.97" x2="197.46" y1="25.55" y2="31.87" fill="#FFF" fill-rule="nonzero" stroke="#2BB3FF" stroke-width=".57"/>
    <line x1="233.99" x2="228" y1="109.73" y2="112.93" fill="#FFF" fill-rule="nonzero" stroke="#2BB3FF" stroke-width=".57"/>
    <line x1="230.66" x2="224.1" y1="101.63" y2="103.39" fill="#FFF" fill-rule="nonzero" stroke="#2BB3FF" stroke-width=".57"/>
    <line x1="229.65" x2="222.86" y1="93.13" y2="92.99" fill="#FFF" fill-rule="nonzero" stroke="#2BB3FF" stroke-width=".57"/>
    <line x1="230.81" x2="224.18" y1="84.35" y2="82.86" fill="#FFF" fill-rule="nonzero" stroke="#2BB3FF" stroke-width=".57"/>
    <line x1="203.52" x2="196.75" y1="127.76" y2="128.27" fill="#FFF" fill-rule="nonzero" stroke="#2BB3FF" stroke-width=".57"/>
    <polyline stroke="#1A0960" stroke-width="1.13" points="175.11 20.85 178.06 18.79 183.08 19.68 184.7 25.14 181.3 29.71 176.28 28.82 174.22 25.87"/>
    <line x1="184.7" x2="190.32" y1="25.14" y2="26.14" stroke="#1A0960" stroke-width="1.13"/>
    <polyline stroke="#1A0960" stroke-width="1.13" points="205 55.25 201.67 56.63 196.97 54.69 196.56 49 200.86 45.27 205.57 47.22 206.95 50.54"/>
    <line x1="196.56" x2="191.28" y1="49" y2="46.82" stroke="#1A0960" stroke-width="1.13"/>
    <polyline stroke="#1A0960" stroke-width="1.13" points="237.43 61.36 238.96 64.63 237.23 69.46 231.61 70.14 227.7 66 229.43 61.18 232.67 59.63"/>
    <line x1="231.61" x2="229.68" y1="70.14" y2="75.54" stroke="#1A0960" stroke-width="1.13"/>
    <polyline stroke="#1A0960" stroke-width="1.13" points="190.36 104.43 193.92 105.02 196.94 109.16 194.33 114.19 188.71 115.08 185.7 110.94 186.25 107.39"/>
    <line x1="194.33" x2="197.7" y1="114.19" y2="118.82" stroke="#1A0960" stroke-width="1.13"/>
    <path fill="url(#p-pai-beta-b)" fill-rule="nonzero" d="M239.25,54 C217.87,66.35 183.2,66.35 161.82,54 C151.26,47.91 145.93,39.94 145.82,32 L145.82,118.68 C145.82,118.88 145.82,119.08 145.82,119.29 L145.82,119.63 L145.82,119.63 C146.1,127.5 151.42,135.33 161.82,141.34 C183.2,153.68 217.87,153.68 239.25,141.34 C250.51,134.83 255.83,126.21 255.25,117.69 L255.25,117.69 L255.31,31.69 C255.29,39.7 249.94,47.79 239.25,54 Z" opacity=".5"/>
    <ellipse cx="244.149" cy="147.76" fill="#14232E" fill-rule="nonzero" rx="3.31" ry="1.91" transform="rotate(-60 244.149 147.76)"/>
    <ellipse cx="250.21" cy="158.26" fill="#14232E" fill-rule="nonzero" rx="3.31" ry="1.91"/>
    <path stroke="#2BB3FF" stroke-linecap="round" stroke-linejoin="round" stroke-width="2.26" d="M244.15,147.76 L245.66,148.64 C248.564645,150.169298 250.334003,153.229705 250.21,156.51 L250.21,158.26"/>
    <ellipse cx="260.522" cy="170.794" fill="#14232E" fill-rule="nonzero" rx="3.31" ry="1.91" transform="rotate(-60 260.522 170.794)"/>
    <ellipse cx="266.59" cy="181.3" fill="#14232E" fill-rule="nonzero" rx="3.31" ry="1.91"/>
    <path stroke="#2BB3FF" stroke-linecap="round" stroke-linejoin="round" stroke-width="2.26" d="M260.53,170.8 L262.04,171.68 C264.944645,173.209298 266.714003,176.269705 266.59,179.55 L266.59,181.3"/>
    <ellipse cx="154.637" cy="146.873" fill="#14232E" fill-rule="nonzero" rx="1.91" ry="3.31" transform="rotate(-30 154.637 146.873)"/>
    <ellipse cx="148.58" cy="157.37" fill="#14232E" fill-rule="nonzero" rx="3.31" ry="1.91"/>
    <path stroke="#2BB3FF" stroke-linecap="round" stroke-linejoin="round" stroke-width="2.26" d="M154.64,146.87 L153.13,147.74 C150.223759,149.272695 148.454532,152.336763 148.58,155.62 L148.58,157.37"/>
    <ellipse cx="138.262" cy="169.916" fill="#14232E" fill-rule="nonzero" rx="1.91" ry="3.31" transform="rotate(-30 138.262 169.916)"/>
    <ellipse cx="132.2" cy="180.41" fill="#14232E" fill-rule="nonzero" rx="3.31" ry="1.91"/>
    <path stroke="#2BB3FF" stroke-linecap="round" stroke-linejoin="round" stroke-width="2.26" d="M138.26,169.91 L136.75,170.78 C133.842009,172.310875 132.072081,175.376156 132.2,178.66 L132.2,180.41"/>
    <ellipse cx="295.509" cy="146.78" fill="#14232E" fill-rule="nonzero" rx="1.91" ry="3.31" transform="rotate(-30 295.51 146.78)"/>
    <ellipse cx="289.45" cy="157.27" fill="#14232E" fill-rule="nonzero" rx="3.31" ry="1.91"/>
    <path stroke="#2BB3FF" stroke-linecap="round" stroke-linejoin="round" stroke-width="2.26" d="M295.51,146.78 L294,147.65 C291.095355,149.179298 289.325997,152.239705 289.45,155.52 L289.45,157.27"/>
    <ellipse cx="302.146" cy="150.674" fill="#14232E" fill-rule="nonzero" rx="1.91" ry="3.31" transform="rotate(-30 302.146 150.674)"/>
    <ellipse cx="296.08" cy="161.17" fill="#14232E" fill-rule="nonzero" rx="3.31" ry="1.91"/>
    <path stroke="#2BB3FF" stroke-linecap="round" stroke-linejoin="round" stroke-width="2.26" d="M302.14,150.67 L300.62,151.54 C297.715885,153.073654 295.950175,156.138366 296.08,159.42 L296.08,161.17"/>
    <ellipse cx="308.773" cy="154.558" fill="#14232E" fill-rule="nonzero" rx="1.91" ry="3.31" transform="rotate(-30 308.773 154.558)"/>
    <ellipse cx="302.71" cy="165.06" fill="#14232E" fill-rule="nonzero" rx="3.31" ry="1.91"/>
    <path stroke="#2BB3FF" stroke-linecap="round" stroke-linejoin="round" stroke-width="2.26" d="M308.77,154.56 L307.25,155.44 C304.347482,156.970257 302.581641,160.031308 302.71,163.31 L302.71,165.06"/>
    <ellipse cx="316.653" cy="159.082" fill="#14232E" fill-rule="nonzero" rx="1.917" ry="3.321" transform="rotate(-29.887 316.653 159.081)"/>
    <ellipse cx="309.33" cy="168.95" fill="#14232E" fill-rule="nonzero" rx="3.31" ry="1.91"/>
    <path stroke="#2BB3FF" stroke-linecap="round" stroke-linejoin="round" stroke-width="2.26" d="M315.4,158.45 L313.88,159.33 C310.975355,160.859298 309.205997,163.919705 309.33,167.2 L309.33,169"/>
  </g>
</svg>
