<svg id="Layer_1" data-name="Layer 1" xmlns="http://www.w3.org/2000/svg" xmlns:xlink="http://www.w3.org/1999/xlink" viewBox="0 0 400 240"><defs><style>.cls-1{fill:#ffaf00;}.cls-2{fill:#e9eef2;}.cls-3{fill:#a02ff7;}.cls-4{fill:#471caf;}.cls-5{fill:#1a0960;}.cls-6{fill:#741ce5;}.cls-13,.cls-7{fill:#027aff;}.cls-8{fill:#f16a24;}.cls-22,.cls-9{fill:#fff;}.cls-10{fill:#ffbf2e;}.cls-11{fill:#d4542b;}.cls-12{fill:#dee7ed;}.cls-13,.cls-19,.cls-24{opacity:0.5;}.cls-14,.cls-15,.cls-17,.cls-18,.cls-23,.cls-25{fill:none;}.cls-14{stroke:#fff;}.cls-14,.cls-17,.cls-18,.cls-25{stroke-linecap:round;}.cls-14,.cls-25{stroke-linejoin:round;}.cls-14,.cls-15,.cls-17,.cls-18{stroke-width:0.57px;}.cls-15,.cls-18{stroke:#ffaf00;}.cls-15,.cls-17,.cls-18,.cls-22,.cls-23{stroke-miterlimit:10;}.cls-16{fill:#ffd03e;}.cls-17{stroke:#ffd03e;}.cls-19{fill:url(#linear-gradient);}.cls-20{fill:#14232e;}.cls-21{fill:#0a367c;}.cls-22,.cls-25{stroke:#2bb3ff;}.cls-22{stroke-width:0.57px;}.cls-23{stroke:#1a0960;stroke-width:1.13px;}.cls-24{fill:url(#linear-gradient-2);}.cls-25{stroke-width:2.26px;}.cls-26{fill:#8599a0;}.cls-27{fill:#4c636f;}.cls-28{fill:#243651;}.cls-29{fill:#8d2204;}</style><linearGradient id="linear-gradient" x1="200.57" y1="107.45" x2="199.95" y2="-1.93" gradientUnits="userSpaceOnUse"><stop offset="0" stop-color="#2bb3ff"/><stop offset="1" stop-color="#2bb3ff" stop-opacity="0"/></linearGradient><linearGradient id="linear-gradient-2" x1="200.54" y1="139.08" x2="200.54" y2="36.68" xlink:href="#linear-gradient"/></defs><title>Artboard 5</title><path class="cls-1" d="M351,149.72l-.59.3a7.11,7.11,0,0,0-2.74-2.63L208.5,67c-4.94-2.85-13.56-2.49-19.26.8L52.81,146.59a10.1,10.1,0,0,0-4.15,4l-.56-.25v2.69h0c.08,1.74,1.17,3.39,3.33,4.63l139.19,80.37c4.94,2.85,13.56,2.49,19.26-.8L346.3,158.51c3.18-1.83,4.77-4.18,4.71-6.4h0Z"/><path class="cls-2" d="M190.62,235.61,51.43,155.25c-4.94-2.85-4.32-7.83,1.38-11.12L189.24,65.37c5.7-3.3,14.32-3.65,19.26-.8l139.19,80.36c4.93,2.85,4.32,7.83-1.39,11.12l-23.9,13.8-112.52,65C204.18,238.1,195.56,238.46,190.62,235.61Z"/><path class="cls-1" d="M77.09,180.66v-2.47l-1.61.71-34.66-20a5.44,5.44,0,0,0-4.91.2L1.73,178.84,0,178.14v2.46H0v.06H0A1.42,1.42,0,0,0,.85,182l35.43,20.45a5.42,5.42,0,0,0,4.9-.2L75.9,182.17a2,2,0,0,0,1.19-1.51Z"/><path class="cls-2" d="M36.28,200,.85,179.5c-1.26-.72-1.1-2,.35-2.83l34.72-20a5.48,5.48,0,0,1,4.91-.21l35.43,20.46c1.25.72,1.1,2-.36,2.83l-34.72,20A5.49,5.49,0,0,1,36.28,200Z"/><rect class="cls-1" x="122.45" y="135.42" width="155.57" height="13.02"/><ellipse class="cls-1" cx="200.23" cy="148.44" rx="77.79" ry="44.91"/><ellipse class="cls-3" cx="200.23" cy="135.42" rx="77.79" ry="44.91"/><ellipse class="cls-4" cx="200.23" cy="134.56" rx="73" ry="42.15"/><path class="cls-5" d="M148.61,109.28c28.51-16.46,74.73-16.46,103.24,0,13.26,7.66,20.34,17.52,21.27,27.54,1.07-11.53-6-23.26-21.27-32.06-28.51-16.46-74.73-16.46-103.24,0-15.25,8.8-22.34,20.53-21.27,32.06C128.27,126.8,135.35,116.94,148.61,109.28Z"/><path class="cls-1" d="M260.84,118.43h-2.6c-2.79-5.34-7.84-10.38-15.15-14.6-23.67-13.66-62.05-13.66-85.72,0-7.31,4.22-12.36,9.26-15.15,14.6h-2.6v10.15h0c0,8.95,5.92,17.91,17.75,24.74,23.67,13.67,62,13.67,85.72,0,11.83-6.83,17.75-15.79,17.75-24.74h0Z"/><ellipse class="cls-6" cx="200.23" cy="118.43" rx="60.61" ry="34.99"/><ellipse class="cls-7" cx="200.23" cy="117.98" rx="54.75" ry="31.61"/><path class="cls-5" d="M400,128h0v-2.46h-2.83l-33.44-19.31a5.46,5.46,0,0,0-4.9.21l-33.08,19.1h-2.83V128h0a1.4,1.4,0,0,0,.83,1.31l35.43,20.46a5.51,5.51,0,0,0,4.91-.2l34.72-20.05A2.1,2.1,0,0,0,400,128Z"/><path class="cls-6" d="M359.17,147.31l-35.43-20.45c-1.25-.73-1.1-2,.36-2.83l34.72-20a5.42,5.42,0,0,1,4.9-.2l35.43,20.45c1.26.73,1.1,2-.35,2.83l-34.72,20.05A5.44,5.44,0,0,1,359.17,147.31Z"/><path class="cls-8" d="M338.3,90.13c-4,0-11.16-1.07-13.81-2.17a4.22,4.22,0,0,1-1.8-6.28l.8-1.16c.4.27,13.61,6.73,22.79,1.24l3.16,5.29A21.38,21.38,0,0,1,338.3,90.13Z"/><path class="cls-9" d="M343.57,82.13c-2.95,1.12-10.88.12-12.72,0a19.06,19.06,0,0,1,0,7.32s8.27,1.86,12.72,1.69c1.51.42,2.79,16.74,2.79,16.74l6.15-6.83-3.44-18.41Z"/><path class="cls-10" d="M385.5,53s1-3.63-2.13-5.38a5.64,5.64,0,0,0-6,.59Z"/><path class="cls-11" d="M367.29,119.66s3.5,3.6,15.85-6.56c10.65-8.76,14.4-26.34.37-40.37-19.45-19.44,4-29.25,2-19.75,2.34-9.37-15.31-14.49-22.72-12.87-9.32,2-18.38,17.48-7.39,35.86S374.86,118.76,367.29,119.66Z"/><path class="cls-8" d="M375.5,103.07c-5.69-10.71-16.1-25-22.91-25.7s-9.13,3.68-8.25,7.92c.68,3.25,2.63,4.88,4.47,6.58,2.18,2,4.19,4.14,3.7,9.18-.92,9.29,12.93,14.53,16.46,10.1S375.5,103.07,375.5,103.07Z"/><path class="cls-8" d="M344.69,107.51c1.27-7.77,6.36-12.16,7.45-21.18,0,0,11.53,22.71,9.73,27.4s-8.47,2.16-10.1,3.24-.87,4-.87,4c-2.17,2.35-6.63,1.75-7.83,1.27a3.67,3.67,0,0,1,2.41-4.28C345.6,115.35,343.49,114.92,344.69,107.51Z"/><path class="cls-10" d="M350.32,87.35c7,1.32,8.92,7.58,8.21,17.28-.93,12.58,2.08,13.24,3.52,14.69-8.53.12-14.45-4.28-13-15.86,1.08-8.44,1.83-9.73-.26-11.59S346.72,86.67,350.32,87.35Z"/><path class="cls-8" d="M356.93,107.21c-.75,12.09,10.74,14.76,11.1,18.36a3.62,3.62,0,0,0-1.67,5,9.26,9.26,0,0,0,8.43-2.87,25.78,25.78,0,0,1-.6-4.18c1-3.71,6-10.82,1.31-20.45C369.94,91.68,357.65,95.54,356.93,107.21Z"/><path class="cls-8" d="M342.58,99.31A21,21,0,0,1,335,97.8a4.24,4.24,0,0,1-2.14-6.1l.82-1.39c4.59,2.7,8.74,3.48,12.33,2.3,5.87-1.92,8.74-8.46,8.77-8.53l5.67,2.4c-.15.38-3.94,9.14-12.46,12A17.4,17.4,0,0,1,342.58,99.31Z"/><path class="cls-12" d="M351,112.42l-46-5.11,17.39,62.54,14-8.09h0l10.52-6.08a8.15,8.15,0,0,0,4.08-7.06Z"/><polygon class="cls-4" points="332.44 111.27 299.94 92.5 318.52 93.65 351.02 112.42 332.44 111.27"/><polygon class="cls-3" points="322.39 117.07 289.89 98.3 299.94 92.5 299.94 92.5 332.44 111.27 332.44 111.27 322.39 117.07 322.39 117.07"/><polygon class="cls-13" points="340.91 109.76 320.34 97.88 312.69 71.65 333.26 83.53 340.91 109.76"/><polygon class="cls-9" points="322.39 117.07 289.89 98.3 289.89 151.09 322.39 169.85 322.39 117.07"/><polygon class="cls-13" points="340.03 110.19 319.46 98.31 311.81 72.08 332.38 83.96 340.03 110.19"/><polygon class="cls-14" points="336.42 103.25 322.07 94.97 316.74 76.68 331.08 84.96 336.42 103.25"/><line class="cls-14" x1="322.9" y1="88.64" x2="333.72" y2="94.89"/><line class="cls-14" x1="323.78" y1="91.28" x2="334.62" y2="97.5"/><line class="cls-14" x1="324.65" y1="93.92" x2="335.44" y2="100.15"/><ellipse class="cls-14" cx="322.4" cy="84.36" rx="1.04" ry="1.8" transform="translate(1.01 172.5) rotate(-30)"/><ellipse class="cls-15" cx="323.02" cy="111.79" rx="2.36" ry="1.36"/><ellipse class="cls-15" cx="317.92" cy="108.84" rx="2.36" ry="1.36"/><ellipse class="cls-15" cx="312.82" cy="105.9" rx="2.36" ry="1.36"/><ellipse class="cls-15" cx="307.72" cy="102.95" rx="2.36" ry="1.36"/><path class="cls-1" d="M311.15,104.93a3.71,3.71,0,0,1,3.34,0,1,1,0,0,1,0,1.93Z"/><path class="cls-1" d="M306.05,102a3.71,3.71,0,0,1,3.34,0,1,1,0,0,1,0,1.93Z"/><line class="cls-15" x1="316.25" y1="109.81" x2="319.59" y2="107.88"/><line class="cls-15" x1="323.02" y1="111.79" x2="324.69" y2="112.75"/><line class="cls-15" x1="303.95" y1="100.78" x2="302.81" y2="100.12"/><line class="cls-15" x1="302.13" y1="99.73" x2="300.99" y2="99.07"/><line class="cls-15" x1="300.32" y1="98.68" x2="299.18" y2="98.03"/><line class="cls-15" x1="298.51" y1="97.64" x2="297.37" y2="96.98"/><line class="cls-15" x1="303.18" y1="101.22" x2="302.05" y2="100.56"/><line class="cls-15" x1="301.37" y1="100.17" x2="300.23" y2="99.51"/><line class="cls-15" x1="299.56" y1="99.12" x2="298.42" y2="98.47"/><line class="cls-15" x1="297.74" y1="98.08" x2="296.61" y2="97.42"/><line class="cls-15" x1="303.95" y1="100.78" x2="302.81" y2="100.12"/><line class="cls-15" x1="302.13" y1="99.73" x2="300.99" y2="99.07"/><line class="cls-15" x1="300.32" y1="98.68" x2="299.18" y2="98.03"/><line class="cls-15" x1="298.51" y1="97.64" x2="297.37" y2="96.98"/><line class="cls-15" x1="304.71" y1="100.34" x2="303.57" y2="99.68"/><line class="cls-15" x1="302.89" y1="99.29" x2="301.76" y2="98.63"/><line class="cls-15" x1="301.08" y1="98.24" x2="299.94" y2="97.59"/><line class="cls-15" x1="299.27" y1="97.2" x2="298.13" y2="96.54"/><path class="cls-16" d="M311.15,104.93a3.71,3.71,0,0,1,3.34,0,1,1,0,0,1,0,1.93Z"/><path class="cls-16" d="M306.05,102a3.71,3.71,0,0,1,3.34,0,1,1,0,0,1,0,1.93Z"/><path class="cls-9" d="M355,78.08c-2.81,8.25-5.17,12.75-8.92,13.9s-6,.27-6,.27l0,7.46c6.11,1.42,13.52-2.5,14.71-3s1.69,3.11,1.69,6.35c0,4.17-.46,20.45-1.27,23.77,15.67,3.47,22.73-3.38,22.73-3.38s2.64-4,0-16.54S360.29,80.25,355,78.08Z"/><polyline class="cls-17" points="351.02 113.55 332.44 112.4 322.39 118.2 289.89 99.43"/><polyline class="cls-18" points="322.39 118.2 332.44 112.4 351.02 113.55"/><path class="cls-13" d="M255,31.49v.12h0Z"/><path class="cls-19" d="M161.52,96.54c21.38-12.34,56-12.34,77.43,0,10.12,5.84,15.49,15,16,22.66h0V31.72c.05-8.13-5.29-16.26-16-22.46-21.39-12.35-56-12.35-77.43,0-10.74,6.2-16.08,14.33-16,22.46l.32,87.48h0C146.34,111.54,151.39,102.38,161.52,96.54Z"/><ellipse class="cls-20" cx="199.56" cy="138.59" rx="2.67" ry="4.62" transform="translate(60.54 337.86) rotate(-89.88)"/><ellipse class="cls-20" cx="199.56" cy="97.36" rx="2.67" ry="4.62" transform="translate(101.78 296.71) rotate(-89.88)"/><ellipse class="cls-20" cx="165.37" cy="117.97" rx="2.67" ry="4.62" transform="translate(47.05 283.1) rotate(-89.88)"/><ellipse class="cls-20" cx="234.88" cy="117.97" rx="2.67" ry="4.62" transform="translate(116.41 352.6) rotate(-89.88)"/><path class="cls-21" d="M200.67,97.36h-2.34a2.21,2.21,0,0,1-2.22-2.06c-.39-6.82-3-7.9-11.73-11.44a146.64,146.64,0,0,1-15.9-7.35,19,19,0,0,1-8.09-25.89c4.44-8.5,15.35-13.85,30.09-7.56a2.58,2.58,0,0,1,1.28,3.53L191,48.05a2.58,2.58,0,0,1-3.33,1.2c-11.39-4.82-18.55-.73-21.29,4.52a12.31,12.31,0,0,0,5.32,16.77,141.13,141.13,0,0,0,15.21,7c9.38,3.81,15.26,6.21,15.95,17.46A2.22,2.22,0,0,1,200.67,97.36Z"/><line class="cls-22" x1="201.06" y1="87.4" x2="195" y2="90.45"/><line class="cls-22" x1="192.91" y1="80.15" x2="189.92" y2="86.25"/><line class="cls-22" x1="184.5" y1="76.57" x2="181.9" y2="82.84"/><line class="cls-22" x1="176.54" y1="73" x2="173.57" y2="79.11"/><line class="cls-22" x1="169.47" y1="69.02" x2="165.16" y2="74.27"/><line class="cls-22" x1="165.57" y1="63.35" x2="159.1" y2="65.43"/><line class="cls-22" x1="165.39" y1="56.44" x2="158.81" y2="54.73"/><line class="cls-22" x1="168.9" y1="50.49" x2="164.27" y2="45.52"/><line class="cls-22" x1="175.12" y1="47.4" x2="173.81" y2="40.74"/><line class="cls-22" x1="182.6" y1="47.63" x2="184.05" y2="40.99"/><path class="cls-21" d="M230.79,117.77C224.24,107.06,219.4,96.7,226,76.1a2.57,2.57,0,0,1,3.3-1.64l1.57.55a2.56,2.56,0,0,1,1.58,3.21c-6.28,19.4-1.38,27.25,5.9,38.91l-2.83,1.77A3.45,3.45,0,0,1,230.79,117.77Z"/><path class="cls-21" d="M166.61,118h-2.35a2.24,2.24,0,0,1-2.23-2.35c1.11-23.83,19-34.87,33.47-43.8,10-6.15,18.6-11.47,18.6-19,0-16.51-18-21.76-23.16-22.93a1.49,1.49,0,0,1-1.15-1.7l.58-3.76a1.52,1.52,0,0,1,1.78-1.26c10.76,2.17,28.75,10.64,28.75,29.65,0,11.37-10.6,17.91-21.83,24.83-13.74,8.48-29.24,18-30.25,38.27A2.21,2.21,0,0,1,166.61,118Z"/><path class="cls-21" d="M203.39,135.69a3.26,3.26,0,0,1-3.89,2.89l-3.27-.65,3.33.66-1.24-.24a2.23,2.23,0,0,1-1.78-2.46c.46-3.77.65-10.06-1.34-14.35a2.24,2.24,0,0,1,.75-2.78l1.86-1.32a2.29,2.29,0,0,1,3.37.86C204,124,203.82,131.39,203.39,135.69Z"/><line class="cls-22" x1="169.64" y1="109.75" x2="163" y2="108.33"/><line class="cls-22" x1="172.4" y1="101.8" x2="166.31" y2="98.78"/><line class="cls-22" x1="177.05" y1="94.71" x2="171.82" y2="90.37"/><line class="cls-22" x1="183.19" y1="88.56" x2="178.79" y2="83.39"/><line class="cls-22" x1="190.31" y1="83.19" x2="186.49" y2="77.58"/><line class="cls-22" x1="198.01" y1="78.26" x2="194.44" y2="72.48"/><line class="cls-22" x1="205.96" y1="73.24" x2="202.2" y2="67.59"/><line class="cls-22" x1="213.78" y1="67.25" x2="209.12" y2="62.3"/><line class="cls-22" x1="219.93" y1="58.36" x2="213.51" y2="56.12"/><line class="cls-22" x1="220.38" y1="47.43" x2="213.71" y2="48.71"/><line class="cls-22" x1="216.25" y1="37.63" x2="210.68" y2="41.52"/><line class="cls-22" x1="208.85" y1="30.31" x2="204.93" y2="35.85"/><line class="cls-22" x1="199.97" y1="25.55" x2="197.46" y2="31.87"/><line class="cls-22" x1="233.98" y1="109.73" x2="228" y2="112.93"/><line class="cls-22" x1="230.66" y1="101.63" x2="224.1" y2="103.39"/><line class="cls-22" x1="229.65" y1="93.13" x2="222.86" y2="92.99"/><line class="cls-22" x1="230.81" y1="84.35" x2="224.18" y2="82.86"/><line class="cls-22" x1="203.52" y1="127.76" x2="196.75" y2="128.27"/><polyline class="cls-23" points="175.11 20.85 178.06 18.79 183.08 19.68 184.7 25.14 181.3 29.71 176.28 28.82 174.22 25.87"/><line class="cls-23" x1="184.7" y1="25.14" x2="190.32" y2="26.14"/><polyline class="cls-23" points="205 55.25 201.67 56.63 196.97 54.69 196.56 49 200.86 45.27 205.57 47.22 206.95 50.54"/><line class="cls-23" x1="196.56" y1="49" x2="191.28" y2="46.82"/><polyline class="cls-23" points="237.43 61.36 238.96 64.63 237.23 69.46 231.61 70.14 227.7 66 229.43 61.18 232.67 59.63"/><line class="cls-23" x1="231.61" y1="70.14" x2="229.68" y2="75.54"/><polyline class="cls-23" points="190.36 104.43 193.92 105.02 196.94 109.16 194.33 114.19 188.71 115.08 185.7 110.94 186.25 107.39"/><line class="cls-23" x1="194.33" y1="114.19" x2="197.7" y2="118.82"/><path class="cls-24" d="M239.25,54c-21.38,12.35-56.05,12.35-77.43,0-10.56-6.09-15.89-14.06-16-22v86.68c0,.2,0,.4,0,.61v.34h0c.28,7.87,5.6,15.7,16,21.71,21.38,12.34,56.05,12.34,77.43,0,11.26-6.51,16.58-15.13,16-23.65h0l.06-86C255.29,39.7,249.94,47.79,239.25,54Z"/><ellipse class="cls-20" cx="244.15" cy="147.76" rx="3.31" ry="1.91" transform="translate(-5.89 285.32) rotate(-60)"/><ellipse class="cls-20" cx="250.21" cy="158.26" rx="3.31" ry="1.91"/><path class="cls-25" d="M244.15,147.76l1.51.88a8.53,8.53,0,0,1,4.55,7.87v1.75"/><ellipse class="cls-20" cx="260.53" cy="170.8" rx="3.31" ry="1.91" transform="translate(-17.66 311.02) rotate(-60)"/><ellipse class="cls-20" cx="266.59" cy="181.3" rx="3.31" ry="1.91"/><path class="cls-25" d="M260.53,170.8l1.51.88a8.53,8.53,0,0,1,4.55,7.87v1.75"/><ellipse class="cls-20" cx="154.64" cy="146.87" rx="1.91" ry="3.31" transform="translate(-52.72 97) rotate(-30)"/><ellipse class="cls-20" cx="148.58" cy="157.37" rx="3.31" ry="1.91"/><path class="cls-25" d="M154.64,146.87l-1.51.87a8.54,8.54,0,0,0-4.55,7.88v1.75"/><ellipse class="cls-20" cx="138.26" cy="169.91" rx="1.91" ry="3.31" transform="matrix(0.87, -0.5, 0.5, 0.87, -66.43, 91.9)"/><ellipse class="cls-20" cx="132.2" cy="180.41" rx="3.31" ry="1.91"/><path class="cls-25" d="M138.26,169.91l-1.51.87a8.53,8.53,0,0,0-4.55,7.88v1.75"/><ellipse class="cls-20" cx="295.51" cy="146.78" rx="1.91" ry="3.31" transform="matrix(0.87, -0.5, 0.5, 0.87, -33.8, 167.42)"/><ellipse class="cls-20" cx="289.45" cy="157.27" rx="3.31" ry="1.91"/><path class="cls-25" d="M295.51,146.78l-1.51.87a8.53,8.53,0,0,0-4.55,7.87v1.75"/><ellipse class="cls-20" cx="302.14" cy="150.67" rx="1.91" ry="3.31" transform="translate(-34.85 171.26) rotate(-30)"/><ellipse class="cls-20" cx="296.08" cy="161.17" rx="3.31" ry="1.91"/><path class="cls-25" d="M302.14,150.67l-1.52.87a8.53,8.53,0,0,0-4.54,7.88v1.75"/><ellipse class="cls-20" cx="308.77" cy="154.56" rx="1.91" ry="3.31" transform="translate(-35.91 175.09) rotate(-30)"/><ellipse class="cls-20" cx="302.71" cy="165.06" rx="3.31" ry="1.91"/><path class="cls-25" d="M308.77,154.56l-1.52.88a8.52,8.52,0,0,0-4.54,7.87v1.75"/><ellipse class="cls-20" cx="315.4" cy="158.45" rx="1.91" ry="3.31" transform="translate(-36.97 178.93) rotate(-30)"/><ellipse class="cls-20" cx="309.33" cy="168.95" rx="3.31" ry="1.91"/><path class="cls-25" d="M315.4,158.45l-1.52.88a8.53,8.53,0,0,0-4.55,7.87V169"/><path class="cls-26" d="M356.48,70.14l.81-4.57,1-5.79c-5-.88-6.21,4.09-6.21,4.09a11,11,0,0,0-.54,3.55C351.86,69.05,353.49,69.61,356.48,70.14Z"/><path class="cls-26" d="M344.49,63.76h3.42a7.86,7.86,0,0,1,7.86,7.86V82.9a0,0,0,0,1,0,0H336.64a0,0,0,0,1,0,0V71.62a7.86,7.86,0,0,1,7.86-7.86Z" transform="translate(674.42 205.66) rotate(-170)"/><polygon class="cls-27" points="348.12 63.98 344.61 82.79 342.86 82.45 346.21 63.61 348.12 63.98"/><path class="cls-28" d="M343.48,75a1.56,1.56,0,0,1,1.74-.6,1.62,1.62,0,0,1,1.43,1.16c-.16.87-.83,2.29-2,2.08S343.33,75.88,343.48,75Z"/><circle class="cls-28" cx="350.37" cy="72.7" r="2.14"/><circle class="cls-3" cx="350.37" cy="72.7" r="0.76"/><path class="cls-8" d="M343.57,83.11,342,82.84a8.39,8.39,0,0,1-6.81-9.72l2.1-11.85L347.36,63Z"/><path class="cls-29" d="M344.65,77.65c-1.18-.21-1.32-1.77-1.17-2.64a1.56,1.56,0,0,1,1.74-.6Z"/><path class="cls-29" d="M339.22,70.92a.78.78,0,1,0,1.54.28c.07-.43-.14-1.22-.57-1.3S339.29,70.5,339.22,70.92Z"/><path class="cls-8" d="M336.37,66.59l1.82-10.35c5,.88,4.44,6,4.44,6S341.4,67.48,336.37,66.59Z"/></svg>