<svg xmlns="http://www.w3.org/2000/svg" viewBox="0 0 1984.29 1145.63"><defs><style>.cls-1{fill:#a85b07;}.cls-2{fill:#e09410;}.cls-3{fill:#4c2727;}.cls-18,.cls-20,.cls-21,.cls-27,.cls-30,.cls-4{fill:none;}.cls-4{stroke:#152126;stroke-width:19px;}.cls-20,.cls-21,.cls-30,.cls-4{stroke-miterlimit:10;}.cls-5{fill:#404a51;}.cls-6{fill:#351c1c;}.cls-7{fill:#36203f;}.cls-8{fill:#ca4d5d;}.cls-9{fill:#54636f;}.cls-10{fill:#663a3a;}.cls-11{fill:#5b97c4;}.cls-12{fill:#73b2d8;}.cls-13{fill:#2f5e82;}.cls-14{fill:#4b84b5;}.cls-15{fill:#f3f6f7;}.cls-16{fill:#67bcda;}.cls-17{fill:#232c33;}.cls-18{stroke:#4b84b5;}.cls-18,.cls-27{stroke-linecap:round;stroke-linejoin:round;}.cls-18,.cls-21{stroke-width:12px;}.cls-19{fill:#7c320d;}.cls-20{stroke:#36203f;stroke-width:10px;}.cls-21{stroke:#67bcda;}.cls-22{fill:#248e7e;}.cls-23{fill:#f2f2f2;}.cls-24{fill:#161212;}.cls-25{fill:#999;}.cls-26{fill:#ccc;}.cls-27{stroke:#54636f;stroke-width:6px;}.cls-28{fill:#ab3a47;}.cls-29{fill:#842936;}.cls-30{stroke:#f2f2f2;}</style></defs><title>kickstarter-card_gamedeveloper</title><g id="Camada_9" data-name="Camada 9"><path class="cls-1" d="M176.37,516.61s-63,8.14-111-45.83-22.65-153.87,20-192-6.52-73.45-24.52-53.95c-31.5-49.5,40.5-139.49,162-93S224.33,511.41,176.37,516.61Z"/><path class="cls-2" d="M60.91,224.83c9.94-10.77,29.38-4.81,37.62,9.09,7.08-3.89,18.66-10.5,36.57-21.33,35.41-21.41,4.48-99.22-54.53-67C54.41,168.46,45.9,201.24,60.91,224.83Z"/><path class="cls-2" d="M83.18,487.62C69.5,468.41,59.9,438.42,59.9,392.09c0-30.35-1.13-54.44-3-73.53-22.35,46.64-27.2,112.12,8.47,152.22A141,141,0,0,0,83.18,487.62Z"/><path class="cls-3" d="M91.37,431.91l9.53,5.5c3.82,2.21,10.51,1.93,14.93-.62L224.53,374c2.51-1.44,13.75,96.69,13.65,94.94-.07-1.33-10.92-102.6-12.57-103.56l-9.53-5.5c-3.83-2.21-10.51-1.93-14.93.62L92.44,423.29c-2.6,1.51-3.84,3.47-3.63,5.28A4.61,4.61,0,0,0,91.37,431.91Z"/><path class="cls-4" d="M332.17,403.32v80.39c0,52.87-3.05,63.27-37.38,86.41"/><path class="cls-3" d="M366.08,560.75,257.26,497.91c-3.83-2.21-10.51-1.93-14.93.62l-84.8,49L130,545.74l0,20.57a4.48,4.48,0,0,0,2.58,3.6l141.16,81.5c3.83,2.21,10.51,1.94,14.93-.62L397.35,588c2.31-1.33,3.54-3,3.64-4.65V563Z"/><polygon class="cls-5" points="202.68 610.4 230.3 626.35 230.3 608.24 202.68 592.4 202.68 610.4"/><path class="cls-6" d="M273.71,631.41l-141.16-81.5c-1.91-1.1-2.75-2.61-2.56-4.17s1.42-3.17,3.63-4.45l108.71-62.76c4.42-2.55,11.1-2.83,14.93-.62l141.16,81.5A4.55,4.55,0,0,1,401,563c.09,1.75-1.15,3.62-3.65,5.07L288.64,630.79C284.22,633.34,277.54,633.62,273.71,631.41Z"/><path class="cls-7" d="M168.49,497.82s-6.71,61.27,44.62,91.27,77.74,30,77.74,30l85.59-58s7.34-19.71-2.66-32.52-37.26-21.87-70-31.68S168.49,497.82,168.49,497.82Z"/><path class="cls-4" d="M168.49,497.82v80.39c0,52.87,20.44,56.22,56.27,35.46"/><path class="cls-3" d="M285.13,368.57,262.48,374v10.53a4.52,4.52,0,0,0,2.58,3.56l110.85,64c3.83,2.2,10.51,1.93,14.93-.62l7.38-4.27c2.34-1.34,3.57-3.06,3.65-4.7V432.16Z"/><polygon class="cls-8" points="1984.29 441.03 763.87 1145.63 0 704.6 1220.42 0 1984.29 441.03"/><path class="cls-9" d="M375.9,442.07l-110.85-64c-1.87-1.09-2.72-2.56-2.57-4.09s1.39-3.23,3.64-4.53l7.38-4.27c4.42-2.55,11.11-2.82,14.93-.61l110.85,64a4.45,4.45,0,0,1,2.58,3.59c.08,1.74-1.16,3.59-3.65,5l-7.38,4.27C386.41,444,379.73,444.27,375.9,442.07Z"/><path class="cls-10" d="M375.9,442.07l-110.85-64c-1.87-1.09-2.72-2.56-2.57-4.09s1.39-3.23,3.64-4.53l7.38-4.27c4.42-2.55,11.11-2.82,14.93-.61l110.85,64a4.45,4.45,0,0,1,2.58,3.59c.08,1.74-1.16,3.59-3.65,5l-7.38,4.27C386.41,444,379.73,444.27,375.9,442.07Z"/><polygon class="cls-3" points="58.39 270.3 88.81 428.57 228.18 368.97 197.79 211.15 58.39 270.3"/><path class="cls-11" d="M284,307.16c55,27.26,84.48,69.26,81.33,101.8C359.91,465,284,419.41,284,419.41l17.85-15s13.1.8,13.1-8.83-7.6-8.5-22.28-37.12S284,307.16,284,307.16Z"/><path class="cls-12" d="M133,327.3c-7-19.38,26.85-44.28,42.85-46.41s2.83,13.7,2.83,13.7l-42.54,39Z"/><path class="cls-13" d="M139.27,307.87c20.08-17.5,43.21-40,81.21-22.22,9.5,4.45,59.8,5.63,61.39,8.32,4.78,8,0,19.63,0,19.63l-99.82,13.32-30.29,2S121.33,323.5,139.27,307.87Z"/><path class="cls-14" d="M301.88,404.37c.36-29.05-.29-68.3-15.79-86.47-18.55-21.73-56.06-23.36-94.48-1.18s-36.23,67.92-34.07,96.41l-.38,72.11c0,32.72-9,34.82,2.87,41.66l25.23,14.56c31.23,16.4,48.12,16.14,58.37,10.22l78.56-46.23C338.78,493.35,301.88,481,301.88,404.37Z"/><path class="cls-15" d="M171,327.64s7.82-13.38,45.54-20.48,55.56-6.52,65.38,6.44c4.22,4.3-7.35,3.3-8.32,32.07s4.88,24,8.32,65.39-2,54.4,2.13,68.7,20.79,28.06,20.79,28.06l2.33,6.5-41.64,24.5s-18.28-13.1-27.87-31.1-.18-48.86-4.45-79.62-35.37-88.76-35.37-88.76Z"/><path class="cls-12" d="M265.48,279.76s20.08-3.84,10.54,32.66-14.22,18.32,0,76-1.63,81.87,7.91,99.16,23.19,20.6,23.19,26.7,5.55,2.88,5.55-3.26-16.17-13.14-22.43-28.14-2.21-18-3.24-49.5-8.44-53-11-75,3.68-38,10.07-40.52,16.8-26-2.16-38.74-34.3,0-34.3,0Z"/><path class="cls-10" d="M61,273.9l9.53,5.5c3.83,2.2,10.51,1.93,14.93-.62L194.13,216c2.41-1.39,3.65-3.17,3.66-4.86a4.43,4.43,0,0,0-2.58-3.75l-9.53-5.5c-3.83-2.21-10.51-1.94-14.93.61L62,265.28c-2.48,1.43-3.72,3.28-3.65,5A4.52,4.52,0,0,0,61,273.9Z"/><path class="cls-2" d="M203.12,327.74c16.36,9.44,46.17,11.07,59.24,0,4.27-3.61,2.09-20.72,3.77-29.73,4-21.42,5.4-42.3-6.12-48.95-16.35-9.44-30.1-11.83-46.46-2.38-10,5.77-8.25,26.46-9.06,47.55C204,307.65,196.76,324.07,203.12,327.74Z"/><path class="cls-4" d="M168.49,497.82v80.39"/><path class="cls-3" d="M121.46,463.07l-22.65,5.41,0,10.53a4.54,4.54,0,0,0,2.58,3.56l110.85,64c3.83,2.2,10.51,1.93,14.93-.62l7.38-4.27c2.34-1.34,3.57-3.06,3.65-4.7V526.66Z"/><path class="cls-10" d="M212.22,536.57l-110.85-64c-1.87-1.09-2.71-2.56-2.56-4.09s1.38-3.23,3.63-4.53l7.39-4.27c4.41-2.55,11.1-2.82,14.92-.61l110.86,64a4.49,4.49,0,0,1,2.58,3.59c.07,1.74-1.17,3.59-3.66,5L227.15,536C222.73,538.5,216.05,538.77,212.22,536.57Z"/><path class="cls-16" d="M134.75,89.13h14.57a0,0,0,0,1,0,0v58.62a0,0,0,0,1,0,0H134.75a23.61,23.61,0,0,1-23.61-23.61V112.74A23.61,23.61,0,0,1,134.75,89.13Z"/><rect class="cls-17" x="139.27" y="84.2" width="19.95" height="68.43" rx="9.97"/><path class="cls-16" d="M349.27,89.13h14.57a0,0,0,0,1,0,0v58.62a0,0,0,0,1,0,0H349.27a23.61,23.61,0,0,1-23.61-23.61V112.74A23.61,23.61,0,0,1,349.27,89.13Z" transform="translate(689.5 236.87) rotate(180)"/><path class="cls-18" d="M125,145.65s-10.33,15.69-9.66,54.33"/><rect class="cls-17" x="315.76" y="84.2" width="19.95" height="68.43" rx="9.97" transform="translate(651.48 236.83) rotate(180)"/><path class="cls-2" d="M148.8,84.71s-.1-13.22.57,74.81,1,132,89.16,131.31,87.81-44.75,87.14-132.77-.57-74.81-.57-74.81l-43.84,31.16-88.15.73Z"/><path class="cls-19" d="M293,193.43c.05,6.61-2.63,5.63-5.94,5.66s-6,1-6-5.56,2.59-12,5.89-12S292.94,186.83,293,193.43Z"/><path class="cls-19" d="M194,194.26c.05,6.6-2.64,5.62-5.94,5.65s-6,1.05-6-5.56,2.59-12,5.9-12S194,187.65,194,194.26Z"/><path class="cls-19" d="M251.64,227.89c.05,7.22-5.72,19.49-13,19.55s-13.2-12.11-13.26-19.34,5.82-6.77,13.06-6.83S251.58,220.66,251.64,227.89Z"/><path class="cls-2" d="M193.11,115.14a34.74,34.74,0,0,1-34.48,35c-19.19.16-3-15.51-3.17-34.67s-16.55-34.56,2.64-34.72A34.7,34.7,0,0,1,193.11,115.14Z"/><path class="cls-2" d="M318.91,114.1c.15,19.16,16.55,34.56-2.64,34.72a34.7,34.7,0,1,1-.53-69.4C334.93,79.26,318.76,94.93,318.91,114.1Z"/><path class="cls-7" d="M325.71,163c0-2.21,0-3.44,0-3.44,0,68.44-14.18,95.09-23.61,99.53-6.76,3.18-20.26,6.75-25.82-10.72s-30.61-7.84-37.56-.89c-7-6.95-34.32-16.59-39.88.89s-19.06,13.9-25.81,10.72c-9.09-4.28-22.58-29.17-23.56-92.18.7,83.12,3.44,134.67,89.1,134C325,300.11,326.33,247.71,325.71,163ZM245.27,285.65h-15.5s-34.15-2.38-27.4-23.82,14.77,1.76,25.88,1.76c9.3,0,10.34-1.23,10.43-10.27.09,9,1.13,10.27,10.43,10.27,11.11,0,16.81-23.2,23.56-1.76S245.27,285.65,245.27,285.65Z"/><path class="cls-20" d="M140.29,171.09s44.65-15,86.13,2.21c0,14.22-1.89,43-36.39,43S139.92,215.11,140.29,171.09Z"/><path class="cls-20" d="M335.77,171.09s-44.66-15-86.14,2.21c0,14.22,1.9,43,36.39,43S336.14,215.11,335.77,171.09Z"/><line class="cls-20" x1="226.42" y1="173.3" x2="249.63" y2="173.3"/><path class="cls-21" d="M344.75,118.44h0A89.48,89.48,0,0,0,255.27,29H219.71a89.48,89.48,0,0,0-89.48,89.48h0"/><circle class="cls-22" cx="115.36" cy="199.98" r="9.65"/><path class="cls-12" d="M234.77,453.56c7-50-11.5-97.14-38.15-126.47s-36.35-19.06-47.83-8.53-16.9-4.58-9.52-10.69c-11.29,5.22-7.38,26.6,0,27.57s2.34,10.31,9.52,17.65,22.66-29.62,40.86-9.17c20,22.46,46.65,80,38.53,125.08s34.91,61.77,32,72.93,7.9,9.1,8.84-3.87S224.76,524.66,234.77,453.56Z"/><circle class="cls-2" cx="276.02" cy="394.31" r="5.85"/><polygon class="cls-2" points="321.61 408.18 320.05 422.99 303.72 420.01 304.79 394.94 321.61 408.18"/><polygon class="cls-23" points="290.24 446.17 250.09 422.99 290.24 399.81 330.39 422.99 290.24 446.17"/><ellipse class="cls-24" cx="290.24" cy="422.99" rx="8.78" ry="5.08" transform="translate(-1.1 0.76) rotate(-0.15)"/><polygon class="cls-25" points="290.24 464.16 270.16 452.57 250.09 440.98 250.09 422.99 290.24 446.17 290.24 464.16"/><polygon class="cls-26" points="290.24 464.16 330.39 440.98 330.39 422.99 290.24 446.17 290.24 464.16"/><line class="cls-27" x1="290.24" y1="421.43" x2="290.24" y2="394.94"/><circle class="cls-28" cx="290.24" cy="394.94" r="14.55"/><path class="cls-2" d="M229.54,448.3s15.64-14.55,20.55-25.31,11.39-5.05,17.89-4,5.41,9.87,2.18,9.87-11.27-.26-11.27-.26v17.59l16.79,9.59s-9,4.77-17.05,4.77-22.34,3.63-22.34,3.63S225.12,462,229.54,448.3Z"/><path class="cls-2" d="M321.61,408.18s-22.6.25-23.76-8.37-11.73-6.73-13.85-18S334,363.18,321.61,408.18Z"/><path class="cls-11" d="M159.21,342.46c-12.62,19.18-67.95,124-15.92,150.3S238.18,469,238.18,469c7.8-11.22-8.64-20.67-8.64-20.67-9.56.12-40,13.77-48.43-4.72s22.6-43.89,19.4-75.52S167.65,329.64,159.21,342.46Z"/><polygon class="cls-29" points="504.43 548.73 352.45 636.48 278.37 593.71 278.37 586.64 504.43 541.66 504.43 548.73"/><polygon class="cls-28" points="504.43 541.66 352.45 629.41 278.37 586.64 278.37 586.64 430.35 498.89 504.43 541.66"/><polygon class="cls-29" points="352.45 605.57 342.25 611.46 352.45 617.34 362.64 611.46 352.45 605.57"/><polygon class="cls-29" points="367.56 596.85 357.37 602.73 367.56 608.61 377.75 602.73 367.56 596.85"/><polygon class="cls-29" points="382.67 588.12 372.48 594.01 382.67 599.89 392.86 594.01 382.67 588.12"/><polygon class="cls-29" points="397.78 579.4 387.59 585.28 397.78 591.17 407.97 585.28 397.78 579.4"/><polygon class="cls-29" points="412.89 570.67 402.7 576.56 412.89 582.44 423.08 576.56 412.89 570.67"/><polygon class="cls-29" points="428 561.95 417.81 567.83 428 573.72 438.19 567.83 428 561.95"/><polygon class="cls-29" points="443.11 553.23 432.92 559.11 443.11 564.99 453.3 559.11 443.11 553.23"/><polygon class="cls-29" points="458.22 544.5 448.03 550.38 458.22 556.27 468.41 550.39 458.22 544.5"/><polygon class="cls-29" points="473.33 535.78 463.14 541.66 473.33 547.54 483.52 541.66 473.33 535.78"/><polygon class="cls-29" points="338.51 597.53 328.32 603.41 338.51 609.29 348.7 603.41 338.51 597.53"/><polygon class="cls-29" points="353.62 588.8 343.43 594.68 353.62 600.57 363.81 594.68 353.62 588.8"/><polygon class="cls-29" points="368.73 580.08 358.54 585.96 368.73 591.84 378.92 585.96 368.73 580.08"/><polygon class="cls-29" points="383.84 571.35 373.65 577.24 383.84 583.12 394.03 577.24 383.84 571.35"/><polygon class="cls-29" points="398.95 562.63 388.76 568.51 398.95 574.4 409.14 568.51 398.95 562.63"/><polygon class="cls-29" points="414.06 553.9 403.88 559.79 414.06 565.67 424.25 559.79 414.06 553.9"/><polygon class="cls-29" points="429.18 545.18 418.99 551.06 429.18 556.95 439.37 551.06 429.18 545.18"/><polygon class="cls-29" points="444.29 536.46 434.1 542.34 444.29 548.22 454.48 542.34 444.29 536.46"/><polygon class="cls-29" points="459.4 527.73 449.21 533.62 459.4 539.5 469.59 533.62 459.4 527.73"/><polygon class="cls-29" points="339.69 580.76 329.5 586.64 339.69 592.52 349.88 586.64 339.69 580.76"/><polygon class="cls-29" points="369.91 563.31 359.72 569.19 369.91 575.08 380.1 569.19 369.91 563.31"/><polygon class="cls-29" points="385.02 554.58 374.83 560.47 385.02 566.35 395.21 560.47 385.02 554.58"/><polygon class="cls-29" points="400.13 545.86 389.94 551.74 400.13 557.63 410.32 551.74 400.13 545.86"/><polygon class="cls-29" points="415.24 537.13 405.05 543.02 415.24 548.9 425.43 543.02 415.24 537.13"/><polygon class="cls-29" points="430.35 528.41 420.16 534.29 430.35 540.18 440.54 534.29 430.35 528.41"/><polygon class="cls-29" points="445.46 519.69 435.27 525.57 445.46 531.45 455.65 525.57 445.46 519.69"/><polygon class="cls-29" points="310.64 581.43 300.45 587.32 310.64 593.2 320.83 587.32 310.64 581.43"/><polygon class="cls-29" points="325.75 572.71 315.56 578.59 325.75 584.48 335.94 578.59 325.75 572.71"/><polygon class="cls-29" points="340.86 563.99 330.67 569.87 340.86 575.75 351.05 569.87 340.86 563.99"/><polygon class="cls-29" points="355.97 555.26 345.78 561.15 355.97 567.03 366.16 561.15 355.97 555.26"/><polygon class="cls-29" points="371.08 546.54 360.89 552.42 371.08 558.3 381.27 552.42 371.08 546.54"/><polygon class="cls-29" points="386.19 537.81 376 543.7 386.19 549.58 396.38 543.7 386.19 537.81"/><polygon class="cls-29" points="401.31 529.09 391.12 534.97 401.31 540.86 411.5 534.97 401.31 529.09"/><polygon class="cls-29" points="416.42 520.37 406.23 526.25 416.42 532.13 426.61 526.25 416.42 520.37"/><polygon class="cls-29" points="431.53 511.64 421.34 517.52 431.53 523.41 441.72 517.52 431.53 511.64"/><ellipse class="cls-28" cx="561.48" cy="658.07" rx="49.51" ry="28.58"/><polygon class="cls-29" points="457.74 629.49 654.46 515.91 654.46 381.67 457.74 495.25 457.74 629.49"/><polygon class="cls-29" points="548.53 673.3 589.68 649.54 589.68 499.65 548.53 523.41 548.53 673.3"/><polygon class="cls-28" points="548.53 523.41 589.68 499.65 577.24 492.47 536.09 516.23 548.53 523.41"/><polygon class="cls-28" points="457.74 495.25 654.46 381.67 642.02 374.49 445.3 488.06 457.74 495.25"/><polygon class="cls-28" points="457.74 495.25 457.74 629.49 445.3 622.3 445.3 488.06 457.74 495.25"/><polygon class="cls-28" points="548.53 523.41 548.53 673.3 536.09 666.11 536.09 516.23 548.53 523.41"/><path class="cls-29" d="M227.83,647.49c14.46,8.35,40.71,12.73,52.22,6.08s-1.66-25.52-14.54-36.14-26.31-9.73-37.82-3.09S213.37,639.14,227.83,647.49Z"/><path class="cls-28" d="M230.39,631.65c9.12,5.27,25.67,8,32.92,3.84s2.48-13.75-6.64-19a26.25,26.25,0,0,0-26.37-.05C223,620.62,221.27,626.39,230.39,631.65Z"/><path class="cls-30" d="M310.31,443.58c12.67,8.84,13.2,10,13.2,25.42v66.78c0,13.64-5.87,16.39-14.87,21.85S270,580.5,259.31,586s-9.67,10.75,0,16.77,719.94,418.54,719.94,418.54"/></g></svg>