<?xml version="1.0" encoding="UTF-8"?>
<svg width="240px" height="210px" viewBox="0 0 240 210" version="1.1" xmlns="http://www.w3.org/2000/svg" xmlns:xlink="http://www.w3.org/1999/xlink">
    <!-- Generator: Sketch 53.2 (72643) - https://sketchapp.com -->
    <title>squerol-mobile-app-developer_character</title>
    <desc>Created with Sketch.</desc>
    <defs>
        <rect id="path-1" x="0" y="0" width="240" height="210"></rect>
        <polygon id="path-3" points="0.239017878 0.114841328 15.0719949 0.114841328 15.0719949 21.1636808 0.239017878 21.1636808"></polygon>
    </defs>
    <g id="Page-1" stroke="none" stroke-width="1" fill="none" fill-rule="evenodd">
        <g id="Group">
            <mask id="mask-2" fill="white">
                <use xlink:href="#path-1"></use>
            </mask>
            <g id="Rectangle"></g>
            <g id="Group-215" mask="url(#mask-2)">
                <g transform="translate(120.000000, 139.500000) scale(-1, 1) translate(-120.000000, -139.500000) translate(0.000000, 16.000000)">
                    <path d="M43.8753982,130.821408 C43.8753982,130.821408 24.7715803,133.29232 10.2083439,116.89796 C-4.35458913,100.503905 3.33785082,70.1484253 16.2820733,58.5634266 C29.2262958,46.9787316 14.3044248,36.2507894 8.84328698,42.1748399 C-0.713931732,27.1367021 21.1309229,-0.204952276 57.9935272,13.9217464 C94.8564349,28.0481412 58.4283186,129.240061 43.8753982,130.821408" id="Fill-1" stroke="none" fill="#DF8300" fill-rule="nonzero"></path>
                    <path d="M8.84328698,42.1747791 C11.8586094,38.9033203 17.7575727,40.7113117 20.2576991,44.935832 C22.4055626,43.752784 25.9190898,41.7445798 31.3532238,38.4551961 C42.096182,31.952078 32.7116056,8.31025879 14.8083944,18.1121788 C6.87079646,25.0476229 4.28814159,35.0072219 8.84328698,42.1747791" id="Fill-3" stroke="none" fill="#FFB000" fill-rule="nonzero"></path>
                    <path d="M15.6007585,122.014385 C11.4479393,116.176313 8.53517067,107.065872 8.53517067,92.9902137 C8.53517067,83.7673613 8.19322377,76.4509357 7.63828066,70.6496257 C0.85608091,84.8200734 -0.614867257,104.714055 10.2084956,116.897869 C11.9540329,118.863236 13.7654109,120.554563 15.6007585,122.014385" id="Fill-5" stroke="none" fill="#FFB000" fill-rule="nonzero"></path>
                    <path d="M18.0855626,105.088383 L20.9758786,106.759355 C22.1370417,107.430478 24.1647535,107.346625 25.5055373,106.571598 L58.4886979,87.5033806 C59.2481416,87.0643707 62.6582048,116.879063 62.6302908,116.348302 C62.6087484,115.942104 59.3170164,85.1758689 58.8136536,84.8851198 L55.9233375,83.2141481 C54.7624779,82.5430251 52.7344627,82.6268775 51.3939823,83.4019046 L18.4108217,102.470122 C17.619823,102.927361 17.244804,103.522834 17.3088243,104.072128 C17.353426,104.454021 17.6098104,104.813432 18.0855626,105.088383" id="Fill-7" stroke="none" fill="#552222" fill-rule="nonzero"></path>
                    <path d="M91.1459621,96.4003327 L91.1459621,120.826293 C91.1459621,136.887066 90.2214614,140.046721 79.804976,147.076651" id="Stroke-9" stroke="#091B21" stroke-width="5.76485461" fill="none"></path>
                    <path d="M101.437138,144.229528 L68.4169608,125.140347 C67.2561011,124.469224 65.228086,124.553077 63.8876056,125.328104 L38.1584526,140.202486 L29.8033578,139.670814 L29.7963793,145.921159 C29.8133704,146.331611 30.0712718,146.721099 30.5791858,147.014582 L73.4099317,171.775345 C74.5707914,172.446468 76.5988066,172.362615 77.939287,171.587588 L110.922448,152.519371 C111.623636,152.114084 111.998048,151.600032 112.028996,151.105729 L112.029603,144.903689 L101.437138,144.229528 Z" id="Fill-11" stroke="none" fill="#552222" fill-rule="nonzero"></path>
                    <polygon id="Fill-13" stroke="none" fill="#394850" fill-rule="nonzero" points="51.8586599 159.316337 60.2368142 164.160028 60.2368142 158.658278 51.8586599 153.847702"></polygon>
                    <path d="M73.4099014,165.699084 L30.5791555,140.938322 C29.9999393,140.603216 29.7459823,140.14385 29.8033274,139.670814 C29.8612794,139.196258 30.2326574,138.70803 30.9044147,138.320061 L63.8875752,119.251843 C65.2280556,118.476816 67.2560708,118.392964 68.4169305,119.064087 L111.247373,143.824849 C111.749219,144.114991 112.00712,144.49901 112.029573,144.903689 C112.059307,145.435362 111.683378,146.003492 110.922417,146.44311 L77.9392566,165.511328 C76.5987762,166.286355 74.5707611,166.370207 73.4099014,165.699084" id="Fill-15" stroke="none" fill="#391616" fill-rule="nonzero"></path>
                    <path d="M41.4839545,125.110665 C41.4839545,125.110665 39.4474437,143.725593 55.0225638,152.839985 C70.5976839,161.954376 78.608708,161.954376 78.608708,161.954376 L104.579985,144.33322 C104.579985,144.33322 106.805219,138.346584 103.771085,134.453523 C100.736951,130.560159 92.4665082,127.808525 82.5436764,124.829638 C72.6205411,121.851055 41.4839545,125.110665 41.4839545,125.110665" id="Fill-17" stroke="none" fill="#3A1A3E" fill-rule="nonzero"></path>
                    <path d="M41.4839545,125.110665 L41.4839545,149.536625 C41.4839545,165.597398 47.6872415,166.614564 58.5567231,160.309836" id="Stroke-19" stroke="#091B21" stroke-width="5.76485461" fill="none"></path>
                    <path d="M133.977922,109.802528 L3.19005815,185.412175 C1.27491277,186.519574 0.303686473,184.860451 0.303686473,186.204216 C0.303686473,186.697305 0.3042933,189.332275 0.304900126,189.357492 C0.340096081,190.434509 1.01154994,191.458359 2.34353477,192.228525 L94.3214867,245.401883 C97.3434842,247.148808 102.622574,246.929758 106.112131,244.91244 L236.899995,169.302793 C240.389552,167.28517 240.768516,164.233369 237.746518,162.48614 L145.768566,109.313086 C142.746569,107.565857 137.467479,107.784906 133.977922,109.802528" id="Fill-21" stroke="none" fill="#DF8300" fill-rule="nonzero"></path>
                    <path d="M133.977922,106.764398 L3.19005815,182.374045 C1.2642933,183.48752 0.285481669,184.916049 0.303686473,186.266801 C0.318250316,187.362959 0.989400759,188.407772 2.34353477,189.190394 L94.3214867,242.363752 C97.3434842,244.110677 102.622574,243.891628 106.112131,241.874309 L236.899995,166.264662 C240.389552,164.24704 240.768516,161.195238 237.746518,159.448009 L145.768566,106.274955 C142.746569,104.527726 137.467479,104.746776 133.977922,106.764398" id="Fill-23" stroke="none" fill="#FFB000" fill-rule="nonzero"></path>
                    <path d="M76.8754589,85.8443183 L70.0034488,87.4876431 L69.9995044,90.6861867 C70.0213502,91.0917771 70.2792516,91.4764044 70.7820076,91.7671535 L104.415686,111.211188 C105.576546,111.882311 107.604258,111.798155 108.945042,111.023128 L111.184839,109.727973 C111.893006,109.31904 112.267722,108.798609 112.292602,108.299748 L112.292905,105.165005 L76.8754589,85.8443183 Z" id="Fill-25" stroke="none" fill="#552222" fill-rule="nonzero"></path>
                    <path d="M104.415565,108.173088 L70.7818862,88.7290535 C70.2129861,88.4003278 69.9581188,87.9512921 70.0033274,87.4876734 C70.0500531,87.0046107 70.4232516,86.5060535 71.1071454,86.1104889 L73.3472465,84.8156378 C74.6874235,84.0403069 76.7154387,83.9564545 77.8762984,84.6275775 L111.510281,104.071612 C112.018195,104.365399 112.275793,104.754887 112.293087,105.165035 C112.314933,105.692454 111.939004,106.254205 111.185021,106.690177 L108.945224,107.985028 C107.60444,108.760055 105.576425,108.844211 104.415565,108.173088" id="Fill-27" stroke="none" fill="#4C6370" fill-rule="nonzero"></path>
                    <path d="M104.415565,108.173088 L70.7818862,88.7290535 C70.2129861,88.4003278 69.9581188,87.9512921 70.0033274,87.4876734 C70.0500531,87.0046107 70.4232516,86.5060535 71.1071454,86.1104889 L73.3472465,84.8156378 C74.6874235,84.0403069 76.7154387,83.9564545 77.8762984,84.6275775 L111.510281,104.071612 C112.018195,104.365399 112.275793,104.754887 112.293087,105.165035 C112.314933,105.692454 111.939004,106.254205 111.185021,106.690177 L108.945224,107.985028 C107.60444,108.760055 105.576425,108.844211 104.415565,108.173088" id="Fill-29" stroke="none" fill="#733737" fill-rule="nonzero"></path>
                    <polygon id="Fill-31" stroke="none" fill="#552222" fill-rule="nonzero" points="8.07914033 55.9872743 17.308976 104.072068 59.5960051 85.9669373 50.3737547 38.0188598"></polygon>
                    <path d="M72.4608546,70.5670493 C72.4608546,70.5670493 72.4344576,89.6686865 87.4352162,99.5438255 C92.6427004,98.4658968 97.0209558,84.9425708 97.0209558,84.9425708 C97.0209558,84.9425708 94.2975171,82.8754269 90.0287939,79.0546742 C87.693421,76.9641367 83.3691732,71.5225413 77.8212592,67.8704048 C75.5499064,68.3404036 72.4608546,70.5670493 72.4608546,70.5670493" id="Fill-33" stroke="none" fill="#3A1A3E" fill-rule="nonzero"></path>
                    <path d="M98.5938205,89.0406138 C98.365957,92.9734736 95.3312162,97.5959889 91.8152617,99.3647884 C90.0575879,100.249492 88.5123034,100.252834 87.4351858,99.5437343 C86.3577649,98.8346347 85.7485107,97.4127897 85.8622908,95.4462079 C86.0904576,91.5130443 89.1251985,86.8905289 92.6408496,85.1217294 C94.3988268,84.2370258 95.9441113,84.2336839 97.0209254,84.9427835 C98.0983464,85.6518831 98.7079039,87.0737282 98.5938205,89.0406138" id="Fill-35" stroke="none" fill="#9DAEB8" fill-rule="nonzero"></path>
                    <path d="M92.8917724,106.255268 C92.8917724,106.255268 101.411014,104.3376 98.1186751,100.053836 C94.0999646,94.8258216 87.2916713,94.9959569 87.2916713,94.9959569 C87.2916713,94.9959569 84.4307863,95.1797638 85.4757421,89.0205621 C86.520091,82.8616642 90.4465638,79.7986212 97.0209254,84.9427835 C103.59559,90.0866421 116.417841,104.3376 93.0131378,111.793476 C88.4452491,113.137849 92.8917724,106.255268 92.8917724,106.255268" id="Fill-37" stroke="none" fill="#FFB000" fill-rule="nonzero"></path>
                    <path d="M90.028885,79.0545223 C87.6938154,76.9642886 83.3704779,71.5242123 77.8234741,67.8720758 C77.8228673,67.8714681 77.8222604,67.8705567 77.8213502,67.8702529 C75.0530063,66.0476785 72.6527029,67.2553353 72.4609456,70.5668974 C72.4303009,71.0934054 72.4633729,71.6423956 72.5416536,72.1989811 C72.9200101,77.0247474 75.082134,91.4118138 87.4350038,99.5436736 C86.3575828,98.8345739 85.7486321,97.4127289 85.8624121,95.4461471 C86.0902756,91.5129835 89.1250164,86.8904681 92.6406675,85.1216686 C94.3986448,84.2372689 95.9439292,84.2336231 97.0210468,84.9427228 C97.0210468,84.9427228 94.2973047,82.875275 90.028885,79.0545223" id="Fill-39" stroke="none" fill="#00BDDC" fill-rule="nonzero"></path>
                    <path d="M81.9564501,96.7207643 C82.0665891,87.8943879 82.9801669,70.4922809 76.5308116,67.1855798 C71.1109381,64.4069058 60.1555904,63.3523707 48.4978407,70.0921592 C36.8397876,76.8316438 37.4960708,78.7155884 38.1505335,87.3703105 L38.0461593,121.288606 C38.0461593,131.231495 35.3257547,131.869199 38.9172592,133.945761 L46.571469,138.370798 C56.0476764,143.353331 61.1720253,143.273732 64.2823161,141.476071 L88.1196865,127.431401 C93.1524046,123.753745 81.9564501,120.008338 81.9564501,96.7207643" id="Fill-41" stroke="none" fill="#0385B8" fill-rule="nonzero"></path>
                    <path d="M8.86197724,57.0806063 L11.7522933,58.751578 C12.9134564,59.422701 14.9411681,59.3388486 16.281952,58.5635177 L49.2648091,39.4956038 C49.9960354,39.0733037 50.3716612,38.5322127 50.3737851,38.0190724 C50.3756056,37.5913037 50.118311,37.1823713 49.5900683,36.8773431 L46.6997522,35.2063713 C45.5388925,34.5349445 43.5108774,34.6191007 42.170397,35.3941278 L9.18723641,54.4620417 C8.43325411,54.8980134 8.05732491,55.4597637 8.07917067,55.9871831 C8.09646523,56.3973308 8.35406321,56.7868191 8.86197724,57.0806063" id="Fill-43" stroke="none" fill="#733737" fill-rule="nonzero"></path>
                    <path d="M27.213421,114.55465 L20.3414109,116.197975 L20.3374665,119.396519 C20.3593123,119.802109 20.6172137,120.186737 21.1199697,120.477486 L54.7536485,139.92152 C55.9145082,140.592643 57.94222,140.508487 59.2830038,139.73346 L61.5228015,138.438305 C62.2309684,138.029372 62.6056839,137.508941 62.6305638,137.01008 L62.6308673,133.875337 L27.213421,114.55465 Z" id="Fill-45" stroke="none" fill="#552222" fill-rule="nonzero"></path>
                    <path d="M54.7535272,136.88342 L21.1198483,117.439386 C20.5509482,117.11066 20.2960809,116.66132 20.3412895,116.198006 C20.3880152,115.714943 20.7612137,115.216386 21.4451075,114.820821 L23.6852086,113.525666 C25.0253856,112.750639 27.0534008,112.666787 28.2142604,113.33791 L61.8482427,132.781944 C62.3561568,133.075731 62.6137547,133.46522 62.6310493,133.875367 C62.6528951,134.402787 62.2769659,134.964537 61.5229836,135.400205 L59.2831858,136.69536 C57.942402,137.470387 55.9143869,137.554543 54.7535272,136.88342" id="Fill-47" stroke="none" fill="#733737" fill-rule="nonzero"></path>
                    <path d="M51.9910999,73.439632 C56.9543363,76.3088423 66.0009102,76.8010194 69.9653097,73.4393282 C71.2599747,72.3416517 70.5991403,67.1431068 71.1109987,64.4069665 C72.3276865,57.8989875 72.7482174,51.555675 69.2541087,49.5353183 C64.2905689,46.666108 60.1207585,45.9421215 55.1572187,48.8116357 C52.1242984,50.5649407 52.6543616,56.8511363 52.4079899,63.257338 C52.2514286,67.3354204 50.0604804,72.3234229 51.9910999,73.439632" id="Fill-49" stroke="none" fill="#F79500" fill-rule="nonzero"></path>
                    <path d="M44.551555,1.11490271 C44.551555,1.11490271 45.2178508,-2.84560406 40.7807332,23.5274943 C36.3439191,49.9008966 34.1253603,63.0872938 60.5035145,67.5190146 C86.8816688,71.9507354 89.0999241,58.7640343 93.5370417,32.3909359 C97.9738559,6.01783752 97.3075601,9.97834428 97.3075601,9.97834428 L82.5665234,16.9885263 L56.1886726,12.5568055 L44.551555,1.11490271 Z" id="Fill-51" stroke="none" fill="#FFB000" fill-rule="nonzero"></path>
                    <path d="M81.9087535,41.2517647 C81.5756056,43.2311066 80.8240506,42.7954387 79.8340126,42.629253 C78.8442781,42.4627635 77.9913831,42.6289492 78.324531,40.6499111 C78.6573755,38.6705691 79.7296384,37.2007216 80.7193729,37.3672112 C81.7094109,37.5333969 82.2419014,39.2727266 81.9087535,41.2517647" id="Fill-53" stroke="none" fill="#8F2E07" fill-rule="nonzero"></path>
                    <path d="M52.2954235,36.2765224 C51.9622756,38.2558643 51.2107206,37.8201964 50.2206827,37.6540107 C49.2309482,37.4875212 48.3780531,37.6537069 48.711201,35.6746688 C49.0440455,33.6953268 50.1163085,32.2254793 51.106043,32.3919689 C52.0960809,32.5581546 52.6285714,34.2974843 52.2954235,36.2765224" id="Fill-55" stroke="none" fill="#8F2E07" fill-rule="nonzero"></path>
                    <path d="M67.7360101,49.3778824 C67.371914,51.5434617 64.9998281,54.9094064 62.8337598,54.5454384 C60.6676915,54.1817742 59.5277674,50.2258246 59.8918635,48.0599415 C60.2565664,45.8943621 61.9872364,46.3388406 64.1530013,46.7028086 C66.3193729,47.0670804 68.1004096,47.2123031 67.7360101,49.3778824" id="Fill-57" stroke="none" fill="#8F2E07" fill-rule="nonzero"></path>
                    <g id="Group-61" stroke="none" stroke-width="1" fill="none" fill-rule="evenodd" transform="translate(41.264223, 0.188972)">
                        <g id="Fill-59-Clipped">
                            <mask id="mask-4" fill="white">
                                <use xlink:href="#path-3"></use>
                            </mask>
                            <g id="path-1"></g>
                            <path d="M14.9242984,12.3678946 C13.9582301,18.1087458 8.52045512,21.9811467 2.77835651,21.0162365 C-2.96404551,20.0516301 2.6921871,16.2159905 3.65795196,10.4751394 C4.62371681,4.73398438 0.533704172,-0.73890369 6.27580278,0.225702706 C12.0182048,1.19061292 15.8900632,6.62673961 14.9242984,12.3678946" id="Fill-59" fill="#FFB000" fill-rule="nonzero" mask="url(#mask-4)"></path>
                        </g>
                    </g>
                    <path d="M93.8328394,18.88116 C92.8667712,24.622315 96.9567838,30.0952031 91.2146852,29.1302929 C85.4725866,28.1659903 81.6007282,22.7295598 82.566493,16.9887086 C83.5325613,11.2472498 88.9703363,7.37545646 94.7124349,8.34006285 C100.454534,9.30466925 94.7986043,13.1403089 93.8328394,18.88116" id="Fill-62" stroke="none" fill="#FFB000" fill-rule="nonzero"></path>
                    <path d="M62.9572491,32.9915439 L69.8908521,34.2156066" id="Stroke-67" stroke="#3A1A3E" stroke-width="3.03413401" fill="none"></path>
                    <path d="M79.6627661,54.0062614 L77.6790493,53.6562688 C71.6738913,52.5956574 67.6636764,46.8614902 68.7225891,40.8481187 L69.8907307,34.2155763 C69.8907307,34.2155763 71.8019317,31.4678911 82.9751302,33.440853 C94.1483287,35.4135111 93.621603,38.4054619 93.621603,38.4054619 L92.4534614,45.0380043 C91.3945487,51.0513758 85.6679241,55.0665689 79.6627661,54.0062614 Z" id="Stroke-69" stroke="#3A1A3E" stroke-width="3.03413401" fill="none"></path>
                    <path d="M48.9981694,48.5922219 L47.014756,48.2422293 C41.009598,47.181618 36.9993831,41.4474507 38.0582958,35.4340792 L39.2264374,28.8015368 C39.2264374,28.8015368 40.452531,25.9329341 51.6187509,27.9043769 C62.7846675,29.8761235 62.9573097,32.9914224 62.9573097,32.9914224 L61.7891681,39.6239648 C60.7302554,45.6373363 55.0036308,49.6525294 48.9981694,48.5922219 Z" id="Stroke-71" stroke="#3A1A3E" stroke-width="3.03413401" fill="none"></path>
                    <path d="M25.4708875,103.478235 C25.5619115,117.185671 31.1656536,126.284872 44.8007484,124.231096 C55.8043388,122.573492 64.6743262,114.906466 65.1294463,112.884894 C68.1302048,112.126273 73.3816839,109.496163 73.3816839,109.496163 C73.3816839,109.496163 72.2302301,103.840076 68.6038331,103.781744 C64.9777396,103.723716 61.6480809,108.736631 59.5960961,110.103789 C57.5441113,111.470948 39.7191808,118.015992 40.8187509,104.337722 C41.9183211,90.659755 25.4077775,93.9664561 25.4708875,103.478235" id="Fill-73" stroke="none" fill="#FFB000" fill-rule="nonzero"></path>
                    <path d="M46.0137952,78.3383134 C46.0137952,81.6559518 43.6878281,85.6896775 40.8187509,87.3484967 C37.9496738,89.0073159 35.6237067,87.6626394 35.6237067,84.345001 C35.6237067,81.0279702 37.9496738,76.9936369 40.8187509,75.3351215 C43.6878281,73.6763023 46.0137952,75.0209788 46.0137952,78.3383134" id="Fill-75" stroke="none" fill="#00BDDC" fill-rule="nonzero"></path>
                    <path d="M40.8187509,75.3351823 C40.8187509,75.3351823 24.8640607,85.8064025 24.8640607,103.782108 C28.624263,107.54696 42.314579,103.781805 42.314579,103.781805 C42.314579,103.781805 42.5436561,100.366946 43.386842,94.6965796 C43.8483338,91.5940408 46.0137952,84.9867149 46.0137952,78.3383742 C44.3738458,76.6959609 40.8187509,75.3351823 40.8187509,75.3351823" id="Fill-77" stroke="none" fill="#00BDDC" fill-rule="nonzero"></path>
                    <path d="M39.7588673,107.3486 C36.3518382,109.318524 30.827287,109.318524 27.4196511,107.348904 C25.7159848,106.363942 24.864,105.07304 24.864,103.782139 C24.864,102.491237 25.7159848,101.200336 27.4196511,100.215374 C30.8269836,98.2451462 36.3515348,98.2451462 39.7588673,100.21507 C41.4625335,101.200032 42.3145183,102.490933 42.3145183,103.781835 C42.3145183,105.072737 41.4625335,106.363638 39.7588673,107.3486" id="Fill-79" stroke="none" fill="#00BDDC" fill-rule="nonzero"></path>
                    <path d="M63.0073426,123.845587 L63.0073426,123.845587 L106.675509,82.3994127 C105.83111,81.7623167 104.688152,81.6927435 103.772147,82.2219859 L74.3680506,99.220933 C73.9648142,99.4539576 73.6362174,99.7972663 73.4201871,100.210148 L62.4229684,121.247986 C61.956622,122.140589 62.2039039,123.239784 63.0073426,123.845587" id="Fill-81" stroke="none" fill="#62316A" fill-rule="nonzero"></path>
                    <path d="M63.0073426,123.845587 L94.5389735,105.616805 L106.675509,82.3994127 L75.8022857,100.247821 C75.3720455,100.49634 75.021603,100.862435 74.7913123,101.30266 L63.0073426,123.845587 Z" id="Fill-83" stroke="none" fill="#3A1A3E" fill-rule="nonzero"></path>
                    <path d="M100.628814,107.780562 C89.7238331,114.554681 83.6376637,114.554681 83.4319494,111.160785 C83.2999646,108.979712 83.4064627,106.153946 84.1143262,105.951303 C84.8221896,105.748964 86.4894463,106.579589 87.2234033,105.45548 C87.9576637,104.331068 87.9576637,103.536293 88.9689406,103.781774 C89.9802174,104.027255 90.3018357,107.833121 98.6074741,103.816105 C101.014453,102.652197 105.13511,104.981228 100.628814,107.780562" id="Fill-85" stroke="none" fill="#FFB000" fill-rule="nonzero"></path>
                    <polygon id="Fill-87" stroke="none" fill="#3A1A3E" fill-rule="nonzero" points="59.5945183 115.309444 54.107287 112.137635 54.107287 110.922383 65.0814463 110.922383 65.0814463 112.137635"></polygon>
                    <polygon id="Fill-89" stroke="none" fill="#62316A" fill-rule="nonzero" points="59.5945183 114.094191 54.107287 110.922383 59.5945183 107.749968 65.0814463 110.922383"></polygon>
                    <polygon id="Fill-91" stroke="none" fill="#F2F6F7" fill-rule="nonzero" points="59.5915449 113.139429 55.7642882 110.924631 59.5939722 108.709531 63.4212288 110.924631"></polygon>
                    <path d="M61.5249254,114.094191 C61.5249254,114.094191 62.3037876,116.339674 60.6914488,117.465301 C63.5313982,116.048621 64.5945588,114.193842 64.2517016,112.32205 C62.7801466,113.040568 61.5249254,114.094191 61.5249254,114.094191" id="Fill-93" stroke="none" fill="#3A1A3E" fill-rule="nonzero"></path>
                    <polygon id="Fill-95" stroke="none" fill="#B24500" fill-rule="nonzero" points="161.037997 143.741483 114.924925 170.399558 83.425153 152.189308 83.425153 150.041654 161.037997 141.594132"></polygon>
                    <polygon id="Fill-97" stroke="none" fill="#DF8300" fill-rule="nonzero" points="161.037997 141.594011 114.924925 168.252086 83.425153 150.041836 129.538528 123.383761"></polygon>
                    <polygon id="Fill-101" stroke="none" fill="#B24500" fill-rule="nonzero" points="119.509775 158.360116 116.417992 160.147752 119.509775 161.935084 122.601558 160.147752"></polygon>
                    <polygon id="Fill-103" stroke="none" fill="#B24500" fill-rule="nonzero" points="124.094746 155.709742 121.002963 157.497074 124.094746 159.28471 127.186225 157.497074"></polygon>
                    <polygon id="Fill-105" stroke="none" fill="#B24500" fill-rule="nonzero" points="128.679444 153.059095 125.587965 154.846731 128.679444 156.634063 131.771226 154.846731"></polygon>
                    <polygon id="Fill-107" stroke="none" fill="#B24500" fill-rule="nonzero" points="133.264415 150.408751 130.172632 152.196083 133.264415 153.983719 136.356197 152.196083"></polygon>
                    <polygon id="Fill-109" stroke="none" fill="#B24500" fill-rule="nonzero" points="137.849386 147.758104 134.757603 149.545436 137.849386 151.333072 140.940865 149.54574"></polygon>
                    <polygon id="Fill-111" stroke="none" fill="#B24500" fill-rule="nonzero" points="142.434083 145.107457 139.342604 146.895093 142.434083 148.682425 145.525866 146.895093"></polygon>
                    <polygon id="Fill-113" stroke="none" fill="#B24500" fill-rule="nonzero" points="147.019054 142.457083 143.927272 144.244415 147.019054 146.032051 150.110837 144.244415"></polygon>
                    <polygon id="Fill-115" stroke="none" fill="#B24500" fill-rule="nonzero" points="151.603752 139.806436 148.512273 141.594072 151.603752 143.381404 154.695535 141.594072"></polygon>
                    <polygon id="Fill-117" stroke="none" fill="#B24500" fill-rule="nonzero" points="110.69686 158.566314 107.605077 160.353949 110.69686 162.141282 113.788339 160.353949"></polygon>
                    <polygon id="Fill-119" stroke="none" fill="#B24500" fill-rule="nonzero" points="115.281558 155.91594 112.190078 157.703272 115.281558 159.490908 118.37334 157.703272"></polygon>
                    <polygon id="Fill-121" stroke="none" fill="#B24500" fill-rule="nonzero" points="119.866528 153.265292 116.774746 155.052928 119.866528 156.840261 122.958311 155.052928"></polygon>
                    <polygon id="Fill-123" stroke="none" fill="#B24500" fill-rule="nonzero" points="124.451499 150.614949 121.359717 152.402281 124.451499 154.189917 127.542979 152.402281"></polygon>
                    <polygon id="Fill-125" stroke="none" fill="#B24500" fill-rule="nonzero" points="129.036197 147.964302 125.944718 149.751634 129.036197 151.53927 132.12798 149.751938"></polygon>
                    <polygon id="Fill-127" stroke="none" fill="#B24500" fill-rule="nonzero" points="133.621168 145.313655 130.529386 147.101291 133.621168 148.888623 136.712951 147.101291"></polygon>
                    <polygon id="Fill-129" stroke="none" fill="#B24500" fill-rule="nonzero" points="138.206139 142.663281 135.114357 144.450613 138.206139 146.238249 141.297618 144.450613"></polygon>
                    <polygon id="Fill-131" stroke="none" fill="#B24500" fill-rule="nonzero" points="142.790837 140.012634 139.699054 141.800269 142.790837 143.587602 145.882619 141.800269"></polygon>
                    <polygon id="Fill-133" stroke="none" fill="#B24500" fill-rule="nonzero" points="147.375808 137.36229 144.284025 139.149622 147.375808 140.936954 150.467287 139.149622"></polygon>
                    <polygon id="Fill-135" stroke="none" fill="#B24500" fill-rule="nonzero" points="111.053613 153.47149 107.961831 155.259126 111.053613 157.046458 114.145092 155.259126"></polygon>
                    <polygon id="Fill-137" stroke="none" fill="#B24500" fill-rule="nonzero" points="120.223282 148.1705 117.131499 149.957832 120.223282 151.745468 123.315064 149.957832"></polygon>
                    <polygon id="Fill-139" stroke="none" fill="#B24500" fill-rule="nonzero" points="124.808253 145.519853 121.71647 147.307488 124.808253 149.094821 127.899732 147.307488"></polygon>
                    <polygon id="Fill-141" stroke="none" fill="#B24500" fill-rule="nonzero" points="129.392951 142.869509 126.301472 144.656841 129.392951 146.444477 132.484733 144.656841"></polygon>
                    <polygon id="Fill-143" stroke="none" fill="#B24500" fill-rule="nonzero" points="133.977922 140.218862 130.886139 142.006498 133.977922 143.79383 137.069704 142.006498"></polygon>
                    <polygon id="Fill-145" stroke="none" fill="#B24500" fill-rule="nonzero" points="138.562589 137.568184 135.47111 139.35582 138.562893 141.143152 141.654372 139.35582"></polygon>
                    <polygon id="Fill-147" stroke="none" fill="#B24500" fill-rule="nonzero" points="143.14759 134.917841 140.055808 136.705173 143.14759 138.492809 146.239373 136.705173"></polygon>
                    <polygon id="Fill-149" stroke="none" fill="#B24500" fill-rule="nonzero" points="102.240394 153.677719 99.1489153 155.465355 102.240394 157.252687 105.332177 155.465355"></polygon>
                    <polygon id="Fill-151" stroke="none" fill="#B24500" fill-rule="nonzero" points="106.825365 151.027345 103.733583 152.814677 106.825365 154.602009 109.917148 152.814677"></polygon>
                    <polygon id="Fill-153" stroke="none" fill="#B24500" fill-rule="nonzero" points="111.410367 148.376698 108.318584 150.16403 111.410367 151.951666 114.501846 150.16403"></polygon>
                    <polygon id="Fill-155" stroke="none" fill="#B24500" fill-rule="nonzero" points="115.995034 145.72605 112.903555 147.513686 115.995034 149.301018 119.086817 147.513686"></polygon>
                    <polygon id="Fill-157" stroke="none" fill="#B24500" fill-rule="nonzero" points="120.580035 143.075707 117.488253 144.863039 120.580035 146.650675 123.671818 144.863039"></polygon>
                    <polygon id="Fill-159" stroke="none" fill="#B24500" fill-rule="nonzero" points="125.165006 140.42506 122.073224 142.212392 125.165006 144.000028 128.256485 142.212696"></polygon>
                    <polygon id="Fill-161" stroke="none" fill="#B24500" fill-rule="nonzero" points="129.749674 137.774413 126.658195 139.562048 129.749674 141.349381 132.841456 139.562048"></polygon>
                    <polygon id="Fill-163" stroke="none" fill="#B24500" fill-rule="nonzero" points="134.334675 135.124039 131.242893 136.911371 134.334675 138.699007 137.426154 136.911371"></polygon>
                    <polygon id="Fill-165" stroke="none" fill="#B24500" fill-rule="nonzero" points="138.919343 132.473392 135.827863 134.261027 138.919343 136.04836 142.011125 134.261027"></polygon>
                    <polygon id="Fill-167" stroke="none" fill="#B24500" fill-rule="nonzero" points="115.783767 135.001815 103.522225 142.090077 110.989836 146.40726 123.251378 139.318998"></polygon>
                    <polygon id="Fill-169" stroke="none" fill="#B24500" fill-rule="nonzero" points="161.037997 141.594011 114.924925 168.252086 139.435267 143.556035 185.548035 116.89796"></polygon>
                    <polyline id="Fill-171" stroke="none" fill="#B24500" fill-rule="nonzero" points="185.548096 116.89793 187.053937 118.086447 140.940865 144.744522 139.435327 143.556005"></polyline>
                    <path d="M84.6077674,175.541563 L97.6011429,168.029786 C98.0095373,167.794027 98.2240506,167.493556 98.2349735,167.206149 C98.2349735,167.200984 98.2352769,165.971453 98.2352769,165.965984 C98.238311,165.719895 98.0908521,166.708199 97.7874387,166.532595 L78.4172238,155.33435 C77.7530518,154.950938 76.5934058,154.998941 75.8269836,155.442204 L62.8333047,162.953374 C62.4103464,163.198247 62.1955297,162.290454 62.1994741,162.586975 C62.1994741,162.592748 62.1994741,163.820152 62.1997775,163.825621 C62.2097901,164.060469 62.3569456,164.28286 62.6476157,164.450868 L82.0178306,175.649113 C82.6813957,176.032829 83.8413451,175.984826 84.6077674,175.541563" id="Fill-183" stroke="none" fill="#B24500" fill-rule="nonzero"></path>
                    <path d="M84.6077674,174.326311 L97.6011429,166.814534 C98.021067,166.572091 98.2361871,166.260986 98.2352769,165.965984 C98.23467,165.723237 98.0875145,165.49082 97.7874387,165.317343 L78.4172238,154.119098 C77.7530518,153.735686 76.5934058,153.783689 75.8269836,154.226952 L62.8333047,161.738122 C62.4133805,161.981172 62.1985638,162.292277 62.1994741,162.586975 C62.1997775,162.83033 62.3475398,163.062443 62.6476157,163.235616 L82.0178306,174.433861 C82.6813957,174.817577 83.8413451,174.769574 84.6077674,174.326311" id="Fill-185" stroke="none" fill="#DF8300" fill-rule="nonzero"></path>
                    <polygon id="Fill-187" stroke="none" fill="#B24500" fill-rule="nonzero" points="95.6672465 165.513667 82.3574109 173.20834 64.7673224 163.03911 78.077158 155.344741"></polygon>
                    <path d="M161.680961,126.200412 L163.667712,127.348825 C164.534564,127.850117 164.534564,128.670412 163.667712,129.171703 C162.800253,129.672995 161.381795,129.672995 160.514336,129.171703 L158.527889,128.02329 L161.680961,126.200412 Z" id="Fill-201" stroke="none" fill="#B24500" fill-rule="nonzero"></path>
                    <polyline id="Stroke-203" stroke="#B24500" stroke-width="0.910240202" fill="none" points="163.364268 128.867981 232.476076 168.82213 232.476076 194"></polyline>
                    <path d="M156.330357,129.682413 L164.296779,125.077215 C164.546791,124.932296 164.678473,124.748185 164.685148,124.572278 C164.685148,124.568936 164.685451,123.815176 164.685451,123.811834 C164.687272,123.660839 164.596855,124.266946 164.410559,124.159092 L148.862746,115.170479 C148.455565,114.935328 147.744364,114.965102 147.274377,115.236407 L139.308258,119.841605 C139.048839,119.991992 138.916855,119.435103 138.919585,119.617087 L138.919585,120.376316 C138.925957,120.520323 139.016374,120.657039 139.194174,120.760032 L154.742291,129.74834 C155.149168,129.983492 155.860369,129.954326 156.330357,129.682413" id="Fill-205" stroke="none" fill="#B24500" fill-rule="nonzero"></path>
                    <path d="M156.330357,128.937403 L164.296779,124.332205 C164.554073,124.183336 164.685755,123.992542 164.685451,123.811773 C164.685148,123.662905 164.594731,123.520416 164.410559,123.414082 L148.862746,114.425469 C148.455565,114.190318 147.744668,114.219788 147.274377,114.491397 L139.308258,119.096595 C139.05066,119.245767 138.918979,119.436561 138.919282,119.617026 C138.919889,119.766199 139.010306,119.908383 139.194174,120.014718 L154.742291,129.00333 C155.149168,129.238481 155.860369,129.209012 156.330357,128.937403" id="Fill-207" stroke="none" fill="#DF8300" fill-rule="nonzero"></path>
                    <polygon id="Fill-209" stroke="none" fill="#B24500" fill-rule="nonzero" points="141.12531 120.259469 154.319241 127.886696 162.479848 123.169391 149.285917 115.541861"></polygon>
                    <path d="M139.435206,143.556035 L185.547975,116.89796" id="Fill-211" stroke="none" fill="#B24500" fill-rule="nonzero"></path>
                    <polygon id="Fill-213" stroke="none" fill="#DF8300" fill-rule="nonzero" points="162.543808 142.782284 116.431039 169.440359 140.941077 144.744613 187.053846 118.086538"></polygon>
                </g>
            </g>
        </g>
    </g>
</svg>