<?xml version="1.0" encoding="UTF-8"?>
<svg width="240px" height="210px" viewBox="0 0 240 210" version="1.1" xmlns="http://www.w3.org/2000/svg" xmlns:xlink="http://www.w3.org/1999/xlink">
    <!-- Generator: Sketch 53.2 (72643) - https://sketchapp.com -->
    <title>squerol-software-developer_character</title>
    <desc>Created with Sketch.</desc>
    <defs>
        <rect id="path-1" x="0" y="0" width="240" height="210"></rect>
        <polygon id="path-3" points="0 0.0909379385 239.786414 0.0909379385 239.786414 138.588126 0 138.588126"></polygon>
        <polygon id="path-5" points="0.149516596 0.300882353 13.613402 0.300882353 13.613402 21.3918903 0.149516596 21.3918903"></polygon>
    </defs>
    <g id="Page-1" stroke="none" stroke-width="1" fill="none" fill-rule="evenodd">
        <g id="Group">
            <mask id="mask-2" fill="white">
                <use xlink:href="#path-1"></use>
            </mask>
            <g id="Rectangle"></g>
            <g id="Group-219" mask="url(#mask-2)">
                <g transform="translate(120.000000, 140.000000) scale(-1, 1) translate(-120.000000, -140.000000) translate(0.000000, 16.000000)">
                    <path d="M43.6271696,131.898131 C43.6271696,131.898131 24.4991696,134.369925 9.91780253,117.96971 C-4.66386835,101.569798 3.03800506,71.2034745 15.9986127,59.6143373 C28.9592203,48.0255039 14.0187646,37.2937294 8.55071392,43.2198961 C-1.01860253,28.1763863 20.8539038,0.824964706 57.7634734,14.9567098 C94.6727392,29.088151 58.1982076,130.31622 43.6271696,131.898131" id="Fill-1" stroke="none" fill="#BE5B00" fill-rule="nonzero"></path>
                    <path d="M8.55056203,43.2198353 C11.5700051,39.9472078 17.4761316,41.7558451 19.9797266,45.9818745 C21.398157,45.1828647 23.6040304,43.8848157 27.4045367,41.7072176 C30.6858532,39.8274627 28.2074734,29.4558353 25.7491443,24.175502 C22.638562,17.4940902 16.8481823,17.0758941 14.5235241,19.1486392 C6.57587848,26.0865608 3.98995443,36.0497176 8.55056203,43.2198353" id="Fill-3" stroke="none" fill="#F79500" fill-rule="nonzero"></path>
                    <path d="M15.3168911,123.087962 C11.1588152,117.247805 8.24235949,108.134109 8.24235949,94.0534225 C8.24235949,84.8272755 7.89997975,77.5082363 7.34433418,71.7048539 C0.553549367,85.8803637 -0.919260759,105.781452 9.91780253,117.969619 C11.6655494,119.935687 13.4792203,121.627619 15.3168911,123.087962" id="Fill-5" stroke="none" fill="#F79500" fill-rule="nonzero"></path>
                    <path d="M17.8046582,106.155914 L20.6986329,107.827482 C21.8612658,108.498845 23.8918481,108.414963 25.2340253,107.639659 L58.2589367,88.5646294 C59.0193418,88.1254627 62.4337215,117.950806 62.4057722,117.419855 C62.3842025,117.013512 59.0883038,86.2362863 58.5843038,85.9454333 L55.6903291,84.2738647 C54.528,83.602502 52.4974177,83.6863843 51.1552405,84.4616882 L18.1303291,103.536718 C17.3383291,103.99412 16.9628354,104.589806 17.0269367,105.139296 C17.0715949,105.521325 17.3283038,105.880865 17.8046582,106.155914" id="Fill-7" stroke="none" fill="#004741" fill-rule="nonzero"></path>
                    <path d="M90.9575696,97.4647598 L90.9575696,121.899446 C90.9575696,137.965956 90.0318987,141.12674 79.6022278,148.159181" id="Stroke-9" stroke="#091B21" stroke-width="5.7721519" fill="none"></path>
                    <path d="M101.261894,145.311041 L68.199919,126.215041 C67.0372861,125.543678 65.0070076,125.627561 63.6648304,126.402865 L37.9028051,141.282561 L29.537438,140.750698 L29.5304506,147.003276 C29.5474633,147.413875 29.8056911,147.803502 30.3142481,148.09709 L73.1989063,172.866698 C74.3612354,173.538061 76.3918177,173.454178 77.7339949,172.678875 L110.758906,153.603845 C111.460982,153.198414 111.835868,152.684178 111.867159,152.189698 L111.867767,145.985443 L101.261894,145.311041 Z" id="Fill-11" stroke="none" fill="#004741" fill-rule="nonzero"></path>
                    <polygon id="Fill-13" stroke="none" fill="#394850" fill-rule="nonzero" points="51.6203848 160.403239 60.0094481 165.248661 60.0094481 159.744945 51.6203848 154.932651"></polygon>
                    <path d="M73.1989063,166.788267 L30.3142481,142.018659 C29.7339949,141.683433 29.4797165,141.223904 29.537438,140.750698 C29.5951595,140.275973 29.9673114,139.787571 30.639919,139.399463 L63.6648304,120.324433 C65.0070076,119.549129 67.0372861,119.465247 68.1996152,120.13661 L111.084577,144.906218 C111.587058,145.196463 111.844982,145.58062 111.867767,145.985443 C111.897235,146.517306 111.52083,147.085639 110.758906,147.525414 L77.7339949,166.600443 C76.3918177,167.375747 74.3612354,167.459629 73.1989063,166.788267" id="Fill-15" stroke="none" fill="#002722" fill-rule="nonzero"></path>
                    <path d="M41.2326684,126.185348 C41.2326684,126.185348 39.1935797,144.806926 54.7884152,153.924574 C70.3835544,163.042221 78.404719,163.042221 78.404719,163.042221 L104.408871,145.41477 C104.408871,145.41477 106.636618,139.425995 103.598643,135.531544 C100.560668,131.636789 92.279757,128.884172 82.3443646,125.904221 C72.4086684,122.924574 41.2326684,126.185348 41.2326684,126.185348" id="Fill-17" stroke="none" fill="#3A1A3E" fill-rule="nonzero"></path>
                    <path d="M41.2326684,126.185348 L41.2326684,150.620034 C41.2326684,166.686544 47.4438076,167.704074 58.3270481,161.397093" id="Stroke-19" stroke="#091B21" stroke-width="5.7721519" fill="none"></path>
                    <path d="M133.843595,110.871743 L2.89048101,186.5084 C0.972607595,187.616194 0.000151898734,185.956478 0.000151898734,187.300724 C0.000151898734,187.793988 0.000759493671,190.4299 0.00167088608,190.455125 C0.0366075949,191.532527 0.708911392,192.556743 2.04288608,193.327184 L94.136962,246.519537 C97.1630886,248.267086 102.448557,248.047959 105.942835,246.02992 L236.895949,170.393263 C240.389924,168.37492 240.769671,165.322027 237.743544,163.574175 L145.649468,110.382125 C142.623342,108.634273 137.337873,108.8534 133.843595,110.871743" id="Fill-21" stroke="none" fill="#008F7E" fill-rule="nonzero"></path>
                    <g id="Group-25" stroke="none" stroke-width="1" fill="none" fill-rule="evenodd" transform="translate(0.000000, 106.071971)">
                        <g id="Fill-23-Clipped">
                            <mask id="mask-4" fill="white">
                                <use xlink:href="#path-3"></use>
                            </mask>
                            <g id="path-1"></g>
                            <path d="M133.843595,1.76055686 L2.89048101,77.3972137 C0.961974684,78.5110863 -0.0177721519,79.9401255 0.000151898734,81.2913608 C0.0150379747,82.3879098 0.687037975,83.4330961 2.04288608,84.215998 L94.136962,137.408351 C97.1630886,139.1559 102.448557,138.936773 105.942835,136.918733 L236.895949,61.2820765 C240.389924,59.2637333 240.769671,56.2108412 237.743544,54.4629882 L145.649468,1.27093922 C142.623342,-0.476913725 137.337873,-0.257786275 133.843595,1.76055686" id="Fill-23" fill="#00CAB3" fill-rule="nonzero" mask="url(#mask-4)"></path>
                        </g>
                    </g>
                    <path d="M76.6690025,86.9049745 L69.7879899,88.5488863 L69.7843443,91.7485725 C69.8062177,92.1543078 70.0641418,92.5390725 70.567838,92.8299255 L104.244091,112.280906 C105.40642,112.952269 107.437003,112.868082 108.77918,112.092778 L111.022116,110.797161 C111.730876,110.388082 112.106066,109.867465 112.130977,109.368425 L112.131281,106.232563 L76.6690025,86.9049745 Z" id="Fill-26" stroke="none" fill="#004741" fill-rule="nonzero"></path>
                    <path d="M104.24397,109.241721 L70.5677165,89.7907402 C69.9984,89.4618971 69.7429063,89.012701 69.7881722,88.5489167 C69.834957,88.0656814 70.2083241,87.5669461 70.8933873,87.1712402 L73.1360203,85.8759265 C74.4781975,85.1003186 76.5087797,85.0164363 77.6711089,85.687799 L111.347666,105.138779 C111.856223,105.432672 112.114451,105.822299 112.131463,106.232593 C112.153337,106.760201 111.776932,107.322152 111.021995,107.758279 L108.779058,109.053593 C107.436881,109.828897 105.406603,109.913083 104.24397,109.241721" id="Fill-28" stroke="none" fill="#4C6370" fill-rule="nonzero"></path>
                    <path d="M104.24397,109.241721 L70.5677165,89.7907402 C69.9984,89.4618971 69.7429063,89.012701 69.7881722,88.5489167 C69.834957,88.0656814 70.2083241,87.5669461 70.8933873,87.1712402 L73.1360203,85.8759265 C74.4781975,85.1003186 76.5087797,85.0164363 77.6711089,85.687799 L111.347666,105.138779 C111.856223,105.432672 112.114451,105.822299 112.131463,106.232593 C112.153337,106.760201 111.776932,107.322152 111.021995,107.758279 L108.779058,109.053593 C107.436881,109.828897 105.406603,109.913083 104.24397,109.241721" id="Fill-30" stroke="none" fill="#09665F" fill-rule="nonzero"></path>
                    <polygon id="Fill-32" stroke="none" fill="#004741" fill-rule="nonzero" points="7.78556962 57.0372647 17.0267848 105.139235 59.3676456 87.0276373 50.1337215 39.0624314"></polygon>
                    <path d="M81.7564253,97.7853059 C81.8667038,88.9557765 82.781438,71.5474529 76.3242228,68.2395706 C70.8971848,65.4599039 59.9279696,64.4049922 48.2554633,71.1471882 C36.5826532,77.8890804 37.2394633,79.773698 37.8950582,88.4315118 L37.7905519,122.361924 C37.7905519,132.308365 35.0667038,132.946296 38.6627544,135.0236 L46.3266532,139.450218 C55.8148557,144.434531 60.9456911,144.354904 64.059919,142.5566 L87.9274633,128.506914 C92.9668557,124.827943 81.7564253,121.081198 81.7564253,97.7853059" id="Fill-34" stroke="none" fill="#DEE7EE" fill-rule="nonzero"></path>
                    <path d="M8.56939747,58.1309873 L11.4633722,59.8025559 C12.6260051,60.4739186 14.6562835,60.3900363 15.9987646,59.6144284 L49.0236759,40.5397029 C49.7555241,40.117252 50.1316253,39.5759676 50.1337519,39.0626441 C50.1358785,38.6347225 49.8776506,38.2256441 49.349043,37.9205069 L46.4550684,36.2489382 C45.2927392,35.5772716 43.262157,35.6614578 41.9199797,36.4367618 L8.89506835,55.5114873 C8.13982785,55.9476147 7.76372658,56.5095657 7.7856,57.0371735 C7.80291646,57.4474676 8.06084051,57.8370951 8.56939747,58.1309873" id="Fill-36" stroke="none" fill="#09665F" fill-rule="nonzero"></path>
                    <path d="M51.7531443,74.4958569 C54.7051443,76.2008569 60.4150177,73.2345824 64.1034228,72.1009549 C64.5806886,71.9544647 67.4327392,80.5931314 67.7997266,80.5782392 C67.698562,78.3495824 68.3316759,74.084651 68.9641823,71.5265431 C70.2604861,70.4284745 71.2426633,68.725298 70.8972456,65.4599647 C72.1154734,58.9496608 72.5365367,52.6040824 69.0380051,50.5830039 C64.0681823,47.7127686 59.8927899,46.9885235 54.9232709,49.8590627 C51.8865114,51.6129941 52.4172456,57.9014353 52.1708658,64.3099255 C52.0138025,68.3894647 49.820081,73.379249 51.7531443,74.4958569" id="Fill-38" stroke="none" fill="#F79500" fill-rule="nonzero"></path>
                    <path d="M26.9441013,115.625563 L20.0630886,117.269475 L20.059443,120.469161 C20.0813165,120.874896 20.3392405,121.259661 20.8429367,121.550514 L54.5191899,141.001494 C55.681519,141.672857 57.7121013,141.588671 59.0542785,140.813367 L61.2972152,139.517749 C62.0059747,139.108671 62.3811646,138.588053 62.4060759,138.089014 L62.4063797,134.953151 L26.9441013,115.625563 Z" id="Fill-40" stroke="none" fill="#004741" fill-rule="nonzero"></path>
                    <path d="M54.5190684,137.962309 L20.8428152,118.511328 C20.2734987,118.182485 20.0180051,117.732985 20.0632709,117.269505 C20.1100557,116.78627 20.4834228,116.287534 21.1684861,115.891828 L23.411119,114.596211 C24.7532962,113.820907 26.7838785,113.737025 27.9462076,114.408387 L61.6227646,133.859368 C62.1313215,134.15326 62.3892456,134.542887 62.406562,134.953181 C62.4284354,135.480789 62.0520304,136.04274 61.2970937,136.478564 L59.054157,137.774181 C57.7119797,138.549485 55.6817013,138.633672 54.5190684,137.962309" id="Fill-42" stroke="none" fill="#09665F" fill-rule="nonzero"></path>
                    <path d="M34.9465215,1.91142353 C34.9465215,1.91142353 34.915838,-2.10641961 35.1202937,24.6474922 C35.3244456,51.4011 35.4268253,64.7779039 62.2062684,64.5554333 C88.9860152,64.3332667 88.8839392,50.9564627 88.6797873,24.2028549 C88.4753316,-2.55075294 88.5060152,1.46678627 88.5060152,1.46678627 L75.1875342,10.9369824 L48.4077873,11.1594529 L34.9465215,1.91142353 Z" id="Fill-44" stroke="none" fill="#F79500" fill-rule="nonzero"></path>
                    <path d="M78.7521114,34.9548706 C78.7673013,36.9625765 77.9503899,36.6644294 76.9457316,36.6726353 C75.9407696,36.6811451 75.1284152,36.9929686 75.1132253,34.9852627 C75.0977316,32.9772529 75.9000608,31.3427627 76.904719,31.3345569 C77.909681,31.326351 78.7369215,32.9471647 78.7521114,34.9548706" id="Fill-46" stroke="none" fill="#8F2E07" fill-rule="nonzero"></path>
                    <path d="M48.6878886,35.2044814 C48.7030785,37.2118833 47.8861671,36.9137363 46.8815089,36.9219422 C45.8765468,36.9307559 45.0641924,37.2422755 45.0486987,35.2345696 C45.0335089,33.2268637 45.835838,31.5923735 46.8404962,31.5841676 C47.8454582,31.5759618 48.6723949,33.1967755 48.6878886,35.2044814" id="Fill-48" stroke="none" fill="#8F2E07" fill-rule="nonzero"></path>
                    <path d="M66.1881114,45.4253333 C66.2048203,47.6223824 64.4506937,51.3508922 62.2515038,51.3691275 C60.0526177,51.3873627 58.2413772,47.6883333 58.2246684,45.4915882 C58.2079595,43.2945392 59.6880608,43.4316078 61.8869468,43.4133725 C64.0861367,43.3951373 66.1714025,43.2282843 66.1881114,45.4253333" id="Fill-50" stroke="none" fill="#8F2E07" fill-rule="nonzero"></path>
                    <path d="M48.4078177,11.1593618 C48.4521722,16.9834108 43.7624506,21.7437343 37.9331848,21.7920578 C32.1036152,21.8406853 37.0145013,17.0782343 36.9701468,11.2541853 C36.9257924,5.4304402 31.9422987,0.750351961 37.7718684,0.702028431 C43.601438,0.653704902 48.3634633,5.33561667 48.4078177,11.1593618" id="Fill-52" stroke="none" fill="#F79500" fill-rule="nonzero"></path>
                    <g id="Group-56" stroke="none" stroke-width="1" fill="none" fill-rule="evenodd" transform="translate(75.037975, 0.003343)">
                        <g id="Fill-54-Clipped">
                            <mask id="mask-6" fill="white">
                                <use xlink:href="#path-5"></use>
                            </mask>
                            <g id="path-3"></g>
                            <path d="M11.5875038,10.8387549 C11.6318582,16.6628039 16.6150481,21.3431961 10.7854785,21.3915196 C4.95590886,21.4398431 0.194187342,16.7579314 0.149832911,10.9335784 C0.105174684,5.10983333 4.7948962,0.349509804 10.6244658,0.301186275 C16.4543392,0.252862745 11.5431494,5.0150098 11.5875038,10.8387549" id="Fill-54" fill="#F79500" fill-rule="nonzero" mask="url(#mask-6)"></path>
                        </g>
                    </g>
                    <path d="M73.6633519,51.6382196 C72.0763139,46.2964941 64.3641114,49.2554745 62.2515038,51.3689451 C60.1388962,49.2554745 52.0305418,46.3973961 50.1363646,51.6382196 C48.9436557,54.9385039 51.2221367,55.7414647 51.2221367,55.7414647 C53.2730734,49.2244745 55.7064911,56.2781902 59.0844152,56.2781902 C61.9082127,56.2781902 62.2238582,55.9040627 62.2515038,53.1553961 C62.2791494,55.9040627 62.5947949,56.2781902 65.4188962,56.2781902 C68.7965165,56.2781902 70.526643,49.2244745 72.5775797,55.7414647 C72.5775797,55.7414647 74.5604658,54.6570725 73.6633519,51.6382196" id="Fill-57" stroke="none" fill="#3A1A3E" fill-rule="nonzero"></path>
                    <path d="M59.1061367,29.7392422 L65.1860354,29.7392422" id="Stroke-59" stroke="#3A1A3E" stroke-width="3.03797468" fill="none"></path>
                    <path d="M37.7060658,41.8756206 L51.6215089,41.8756206 C54.2350785,41.8756206 56.5132557,40.0964637 57.1481924,37.5605422 L59.1061671,29.7391206 L32.5035342,29.7391206 L32.5035342,36.6709637 C32.5035342,39.5454539 34.8327494,41.8756206 37.7060658,41.8756206 Z" id="Stroke-61" stroke="#3A1A3E" stroke-width="3.03797468" fill="none"></path>
                    <path d="M72.6705114,41.8756206 L86.5859544,41.8756206 C89.4592709,41.8756206 91.7884861,39.5454539 91.7884861,36.6709637 L91.7884861,29.7391206 L65.1858532,29.7391206 L67.1438278,37.5605422 C67.7784608,40.0964637 70.0569418,41.8756206 72.6705114,41.8756206 Z" id="Stroke-63" stroke="#3A1A3E" stroke-width="3.03797468" fill="none"></path>
                    <path d="M61.8435949,59.2611804 C58.7099241,59.2611804 59.1607595,58.789798 59.1671392,61.874602 C50.2427848,61.4804157 44.0283038,59.1672686 40.1375696,57.0613961 C43.8843038,62.1484353 50.4937215,64.652749 62.2063291,64.5554941 C73.9155949,64.4585431 80.4852152,61.8460333 84.154481,56.7006412 C80.3396962,58.8949549 73.9541772,61.4576216 64.5200506,61.874602 C64.5267342,58.789798 64.9772658,59.2611804 61.8435949,59.2611804" id="Fill-65" stroke="none" fill="#3A1A3E" fill-rule="nonzero"></path>
                    <path d="M48.2553114,71.1470667 L51.9974886,66.0879882 C55.7490835,71.0552824 59.6984506,72.842949 64.1035139,72.1010765 C64.8630076,73.1827333 63.042957,81.0846941 63.042957,81.0846941 C55.7490835,81.0846941 48.5083747,75.6460176 48.2553114,71.1470667" id="Fill-67" stroke="none" fill="#F2F6F7" fill-rule="nonzero"></path>
                    <path d="M68.9642734,71.5266647 C68.8123747,71.9670471 70.6992608,78.0454784 70.6992608,78.0454784 C74.8883241,73.7905765 70.8970329,65.4597824 70.8970329,65.4597824 C70.6351595,69.9757529 68.9642734,71.5266647 68.9642734,71.5266647" id="Fill-69" stroke="none" fill="#F2F6F7" fill-rule="nonzero"></path>
                    <path d="M68.9321013,83.7633676 C68.7902278,84.2469069 68.4311392,84.3827598 68.1300759,84.0669853 C67.8293165,83.7512108 67.7002025,83.10325 67.8420759,82.6197108 C67.9836456,82.1361716 68.343038,82.0003186 68.6437975,82.3160931 C68.9448608,82.6318676 69.0739747,83.2798284 68.9321013,83.7633676" id="Fill-71" stroke="none" fill="#9DAEB8" fill-rule="nonzero"></path>
                    <path d="M69.5735089,89.8073951 C69.4614076,90.2979245 69.1114329,90.454748 68.7915342,90.1572088 C68.4719392,89.8602775 68.3036354,89.2211304 68.4157367,88.730601 C68.527838,88.2400716 68.8778127,88.083248 69.1977114,88.3807873 C69.5173063,88.6777186 69.6856101,89.3165618 69.5735089,89.8073951" id="Fill-73" stroke="none" fill="#9DAEB8" fill-rule="nonzero"></path>
                    <path d="M45.7682734,79.3962882 C45.7682734,82.7151118 43.439362,86.7502784 40.5666532,88.4096902 C37.6936405,90.069102 35.3647291,88.7239451 35.3647291,85.4051216 C35.3647291,82.0869059 37.6936405,78.0511314 40.5666532,76.3920235 C43.439362,74.7326118 45.7682734,76.0777686 45.7682734,79.3962882" id="Fill-75" stroke="none" fill="#F2F6F7" fill-rule="nonzero"></path>
                    <path d="M40.5666228,76.3920843 C40.5666228,76.3920843 24.5917367,86.8670451 24.5917367,104.849173 C28.3566987,108.615369 42.0643443,104.848869 42.0643443,104.848869 C42.0643443,104.848869 42.2937114,101.43279 43.1379646,95.760398 C43.6000405,92.656751 45.768243,86.0470647 45.768243,79.396349 C44.1262177,77.753349 40.5666228,76.3920843 40.5666228,76.3920843" id="Fill-77" stroke="none" fill="#F2F6F7" fill-rule="nonzero"></path>
                    <path d="M39.5055797,108.416938 C36.0939342,110.387566 30.5623899,110.387566 27.1507443,108.417242 C25.4446177,107.431928 24.5918582,106.140566 24.5918582,104.849203 C24.5915544,103.55784 25.4446177,102.266477 27.1504405,101.281164 C30.5623899,99.3102324 36.0936304,99.3102324 39.5055797,101.28086 C41.2114025,102.266174 42.064162,103.557536 42.064162,104.848899 C42.064162,106.140262 41.2114025,107.431625 39.5055797,108.416938" id="Fill-79" stroke="none" fill="#F2F6F7" fill-rule="nonzero"></path>
                    <polygon id="Fill-81" stroke="none" fill="#006658" fill-rule="nonzero" points="160.937924 144.822822 114.766785 171.49042 83.2271392 153.273665 83.2271392 151.125243 160.937924 142.674704"></polygon>
                    <polygon id="Fill-83" stroke="none" fill="#008F7E" fill-rule="nonzero" points="160.937924 142.674582 114.766785 169.34218 83.2271392 151.125425 129.398582 124.457827"></polygon>
                    <polygon id="Fill-87" stroke="none" fill="#006658" fill-rule="nonzero" points="119.357286 159.446676 116.26159 161.234951 119.357286 163.022922 122.452982 161.234951"></polygon>
                    <polygon id="Fill-89" stroke="none" fill="#006658" fill-rule="nonzero" points="123.947909 156.795356 120.852213 158.583326 123.947909 160.371601 127.043605 158.583326"></polygon>
                    <polygon id="Fill-91" stroke="none" fill="#006658" fill-rule="nonzero" points="128.538562 154.143762 125.442866 155.932036 128.538562 157.720007 131.634258 155.932036"></polygon>
                    <polygon id="Fill-93" stroke="none" fill="#006658" fill-rule="nonzero" points="133.129337 151.492472 130.033641 153.280442 133.129337 155.068717 136.225033 153.280442"></polygon>
                    <polygon id="Fill-95" stroke="none" fill="#006658" fill-rule="nonzero" points="137.719959 148.840877 134.624263 150.628848 137.719959 152.417123 140.815656 150.629152"></polygon>
                    <polygon id="Fill-97" stroke="none" fill="#006658" fill-rule="nonzero" points="142.310613 146.189283 139.214916 147.977558 142.310613 149.765528 145.406309 147.977558"></polygon>
                    <polygon id="Fill-99" stroke="none" fill="#006658" fill-rule="nonzero" points="146.901235 143.537963 143.805539 145.325933 146.901235 147.114208 149.996932 145.325933"></polygon>
                    <polygon id="Fill-101" stroke="none" fill="#006658" fill-rule="nonzero" points="151.492041 140.886369 148.396344 142.674643 151.492041 144.462614 154.587737 142.674643"></polygon>
                    <polygon id="Fill-103" stroke="none" fill="#006658" fill-rule="nonzero" points="110.533063 159.652948 107.437367 161.441223 110.533063 163.229193 113.628759 161.441223"></polygon>
                    <polygon id="Fill-105" stroke="none" fill="#006658" fill-rule="nonzero" points="115.123838 157.001627 112.028142 158.789598 115.123838 160.577873 118.219534 158.789598"></polygon>
                    <polygon id="Fill-107" stroke="none" fill="#006658" fill-rule="nonzero" points="119.714491 154.350033 116.618795 156.138308 119.714491 157.926278 122.810187 156.138308"></polygon>
                    <polygon id="Fill-109" stroke="none" fill="#006658" fill-rule="nonzero" points="124.305114 151.698743 121.209418 153.486714 124.305114 155.274988 127.40081 153.486714"></polygon>
                    <polygon id="Fill-111" stroke="none" fill="#006658" fill-rule="nonzero" points="128.895767 149.047149 125.800071 150.83512 128.895767 152.623394 131.991463 150.835424"></polygon>
                    <polygon id="Fill-113" stroke="none" fill="#006658" fill-rule="nonzero" points="133.486542 146.395555 130.390846 148.183829 133.486542 149.9718 136.582238 148.183829"></polygon>
                    <polygon id="Fill-115" stroke="none" fill="#006658" fill-rule="nonzero" points="138.077165 143.744234 134.981468 145.532205 138.077165 147.320479 141.172861 145.532205"></polygon>
                    <polygon id="Fill-117" stroke="none" fill="#006658" fill-rule="nonzero" points="142.667818 141.09264 139.572122 142.880915 142.667818 144.668885 145.763514 142.880915"></polygon>
                    <polygon id="Fill-119" stroke="none" fill="#006658" fill-rule="nonzero" points="147.258441 138.44135 144.162744 140.229321 147.258441 142.017291 150.354137 140.229321"></polygon>
                    <polygon id="Fill-121" stroke="none" fill="#006658" fill-rule="nonzero" points="110.890268 154.556305 107.794572 156.344579 110.890268 158.13255 113.985965 156.344579"></polygon>
                    <polygon id="Fill-123" stroke="none" fill="#006658" fill-rule="nonzero" points="120.071696 149.253421 116.976 151.041391 120.071696 152.829666 123.167392 151.041391"></polygon>
                    <polygon id="Fill-125" stroke="none" fill="#006658" fill-rule="nonzero" points="124.662319 146.601826 121.566623 148.390101 124.662319 150.178072 127.758015 148.390101"></polygon>
                    <polygon id="Fill-127" stroke="none" fill="#006658" fill-rule="nonzero" points="129.252942 143.950536 126.157246 145.738507 129.252942 147.526781 132.348638 145.738507"></polygon>
                    <polygon id="Fill-129" stroke="none" fill="#006658" fill-rule="nonzero" points="133.843747 141.298942 130.748051 143.087217 133.843747 144.875187 136.939443 143.087217"></polygon>
                    <polygon id="Fill-131" stroke="none" fill="#006658" fill-rule="nonzero" points="138.43437 138.647318 135.338673 140.435592 138.43437 142.223563 141.530066 140.435592"></polygon>
                    <polygon id="Fill-133" stroke="none" fill="#006658" fill-rule="nonzero" points="143.024992 135.996027 139.929296 137.783998 143.024992 139.572273 146.120689 137.783998"></polygon>
                    <polygon id="Fill-135" stroke="none" fill="#006658" fill-rule="nonzero" points="102.066197 154.762607 98.9705013 156.550881 102.066197 158.338852 105.161894 156.550881"></polygon>
                    <polygon id="Fill-137" stroke="none" fill="#006658" fill-rule="nonzero" points="106.65682 152.111286 103.561124 153.899257 106.65682 155.687227 109.752516 153.899257"></polygon>
                    <polygon id="Fill-139" stroke="none" fill="#006658" fill-rule="nonzero" points="111.247473 149.459692 108.151777 151.247663 111.247473 153.035937 114.34317 151.247663"></polygon>
                    <polygon id="Fill-141" stroke="none" fill="#006658" fill-rule="nonzero" points="115.838096 146.808098 112.7424 148.596373 115.838096 150.384343 118.933792 148.596373"></polygon>
                    <polygon id="Fill-143" stroke="none" fill="#006658" fill-rule="nonzero" points="120.428871 144.156808 117.333175 145.944778 120.428871 147.733053 123.524567 145.944778"></polygon>
                    <polygon id="Fill-145" stroke="none" fill="#006658" fill-rule="nonzero" points="125.019524 141.505214 121.923828 143.293184 125.019524 145.081459 128.11522 143.293488"></polygon>
                    <polygon id="Fill-147" stroke="none" fill="#006658" fill-rule="nonzero" points="129.610147 138.85362 126.514451 140.641894 129.610147 142.429865 132.705843 140.641894"></polygon>
                    <polygon id="Fill-149" stroke="none" fill="#006658" fill-rule="nonzero" points="134.2008 136.202299 131.105104 137.99027 134.2008 139.778544 137.296496 137.99027"></polygon>
                    <polygon id="Fill-151" stroke="none" fill="#006658" fill-rule="nonzero" points="138.791575 133.550705 135.695878 135.338979 138.791575 137.12695 141.887271 135.338979"></polygon>
                    <polygon id="Fill-153" stroke="none" fill="#006658" fill-rule="nonzero" points="115.62641 136.080031 103.349347 143.170825 110.826714 147.489551 123.103777 140.398757"></polygon>
                    <polygon id="Fill-155" stroke="none" fill="#006658" fill-rule="nonzero" points="160.937924 142.674582 114.766785 169.34218 139.307848 144.637308 185.478987 117.96971"></polygon>
                    <polygon id="Fill-157" stroke="none" fill="#006658" fill-rule="nonzero" points="186.987068 119.158651 140.815625 145.826249 139.307878 144.637308 185.479018 117.96971"></polygon>
                    <polygon id="Fill-159" stroke="none" fill="#008F7E" fill-rule="nonzero" points="162.445792 143.86328 116.274653 170.530878 140.815716 145.82631 186.987159 119.158712"></polygon>
                    <path d="M70.7032709,71.5569353 C70.7032709,71.5569353 75.2681316,90.111651 92.2209418,96.0891804 C97.0230684,93.788798 98.028638,79.6032588 98.028638,79.6032588 C98.028638,79.6032588 94.8843342,78.2511118 89.8176,75.5690039 C87.0451443,74.1013667 81.534562,69.8583176 75.2647899,67.6475922 C73.1701063,68.6508373 70.7032709,71.5569353 70.7032709,71.5569353" id="Fill-161" stroke="none" fill="#3A1A3E" fill-rule="nonzero"></path>
                    <path d="M100.542015,83.2036049 C101.265661,87.0776931 99.4270785,92.2969382 96.435281,94.8608206 C94.9393823,96.1427618 93.438319,96.5184088 92.2206987,96.0889676 C91.0033823,95.6595265 90.0692051,94.4259088 89.7073823,92.4887127 C88.9837367,88.6146245 90.822319,83.3953794 93.8141165,80.8311931 C95.3100152,79.5495559 96.8110785,79.1739088 98.0286987,79.6030461 C99.2460152,80.0321833 100.180192,81.2664088 100.542015,83.2036049" id="Fill-163" stroke="none" fill="#4C6370" fill-rule="nonzero"></path>
                    <path d="M94.3924861,79.4633637 C108.167271,85.6174716 108.44798,96.8321775 105.814967,102.595138 C103.182258,108.357795 94.4131443,110.485246 94.3924861,113.828383 C94.3721316,117.171521 96.8037266,121.229785 92.5493468,121.784138 C88.2946633,122.338187 84.2453468,120.413452 84.2453468,114.537432 C84.2453468,108.661717 93.1536,106.036138 96.2438278,102.080903 C99.3340557,98.1256676 92.1771949,93.8865696 88.7099544,91.9925304 C81.2073722,87.8938441 79.8308658,72.9579225 94.3924861,79.4633637" id="Fill-165" stroke="none" fill="#F79500" fill-rule="nonzero"></path>
                    <path d="M75.2648203,67.6475314 C78.3933266,68.7507667 81.4234025,72.2893255 82.0328203,75.5519235 C82.642238,78.8139137 80.6001114,80.564198 77.4713013,79.4609627 C74.3427949,78.3577275 71.3124152,74.8191686 70.7033013,71.5568745 C70.0938835,68.2945804 72.1363139,66.5442961 75.2648203,67.6475314" id="Fill-167" stroke="none" fill="#F2F6F7" fill-rule="nonzero"></path>
                    <path d="M89.7075038,92.488652 C88.9838582,88.6145637 90.8224405,83.3953186 93.814238,80.8314363 C95.3101367,79.5494951 96.8112,79.173848 98.0285165,79.6032892 C98.0285165,79.6032892 94.8845165,78.2511422 89.8174785,75.5687304 C87.0450228,74.1010931 81.5344405,69.858348 75.2646684,67.6476225 C73.1699848,68.6505637 70.7031494,71.5566618 70.7031494,71.5566618 C70.7031494,71.5566618 75.2683139,90.1116814 92.2208203,96.0892108 C91.0035038,95.6597696 90.0693266,94.4255441 89.7075038,92.488652" id="Fill-169" stroke="none" fill="#F2F6F7" fill-rule="nonzero"></path>
                    <path d="M60.6217215,111.53332 C60.6217215,111.53332 62.7346329,107.155025 66.1122532,107.155025 C69.4901772,107.155025 65.6298228,111.04279 65.6298228,111.04279 L60.6217215,111.53332 Z" id="Fill-171" stroke="none" fill="#F79500" fill-rule="nonzero"></path>
                    <path d="M67.1377823,107.154934 C69.0744911,107.154934 69.3093266,108.742013 68.9475038,109.194552 C68.5853772,109.647091 67.4980861,109.862572 67.4980861,109.862572 L67.1377823,107.154934 Z" id="Fill-173" stroke="none" fill="#DF8300" fill-rule="nonzero"></path>
                    <path d="M69.6146127,115.234385 C68.7181063,115.234385 67.9883848,114.50467 67.9883848,113.607493 L67.9883848,109.085748 C67.9883848,108.188572 68.7181063,107.458856 69.6146127,107.458856 L70.7887899,107.458856 L70.7887899,115.234385 L69.6146127,115.234385 Z M70.7887899,100.844611 L70.7887899,104.92415 L69.6146127,104.924454 C67.3212456,104.924454 65.4550177,106.791444 65.4550177,109.085748 L65.4550177,113.607493 C65.4550177,115.901797 67.3212456,117.768787 69.6146127,117.768787 L70.7887899,117.768787 L70.7887899,118.761091 L70.7890937,118.761091 C70.7890937,118.763219 70.7887899,118.765042 70.7887899,118.766866 C70.7915241,120.284954 71.7952709,121.802434 73.800638,122.960983 C77.8162329,125.280209 84.3269165,125.280209 88.3425114,122.960983 C90.3503089,121.800915 91.3543595,120.281003 91.3543595,118.761091 L91.3543595,100.844611 L70.7887899,100.844611 Z" id="Fill-175" stroke="none" fill="#E84C5D" fill-rule="nonzero"></path>
                    <path d="M88.3425114,105.038759 C84.3269165,107.358288 77.8162329,107.358288 73.800638,105.038759 C71.7952709,103.880514 70.7915241,102.362729 70.7887899,100.844641 C70.7863595,99.3229059 71.7904101,97.8008667 73.800638,96.6395824 C77.8162329,94.3200529 84.3269165,94.3200529 88.3425114,96.6395824 C90.3503089,97.7993471 91.3543595,99.3192588 91.3543595,100.839171 C91.3543595,102.359386 90.3503089,103.879298 88.3425114,105.038759" id="Fill-177" stroke="none" fill="#C63746" fill-rule="nonzero"></path>
                    <path d="M86.7916253,104.143041 C83.6324354,105.967786 78.5107139,105.967786 75.3515241,104.143041 C72.1923342,102.318296 72.1923342,99.3602275 75.3515241,97.5354824 C78.5104101,95.7107373 83.6324354,95.7107373 86.7916253,97.5354824 C89.9505114,99.3602275 89.9505114,102.318296 86.7916253,104.143041" id="Fill-179" stroke="none" fill="#821A27" fill-rule="nonzero"></path>
                    <path d="M86.7914734,100.069763 C83.6325873,98.2450176 78.510562,98.2450176 75.3513722,100.069763 C74.3357772,100.656331 73.6513215,101.360822 73.2885873,102.106341 C73.6513215,102.851861 74.3357772,103.556351 75.3513722,104.14292 C78.510562,105.967665 83.6325873,105.967665 86.7914734,104.14292 C87.8070684,103.556351 88.4918278,102.851861 88.8542582,102.106341 C88.4918278,101.360822 87.8070684,100.656331 86.7914734,100.069763" id="Fill-181" stroke="none" fill="#000000" fill-rule="nonzero"></path>
                    <path d="M29.3176709,105.996537 C28.7377215,114.005782 32.9368101,124.396557 42.9800506,124.396557 C53.0229873,124.396557 61.3701266,116.466027 61.3701266,116.466027 C61.3701266,116.466027 67.4731139,118.825675 70.7887595,114.930616 C70.7887595,109.965753 70.5217215,109.085596 67.9886582,109.085596 C67.9886582,110.448684 67.3895696,109.965753 65.4197468,109.965753 C63.4499241,109.965753 60.6215696,111.53338 60.6215696,111.53338 C56.2863797,111.667714 48.9539241,112.989165 46.6007089,111.788371 C42.9800506,109.940224 43.9938228,106.696773 44.9334684,99.6290765 C46.2291646,89.8883902 29.8386835,98.8024098 29.3176709,105.996537" id="Fill-183" stroke="none" fill="#F79500" fill-rule="nonzero"></path>
                    <polygon id="Fill-185" stroke="none" fill="#008F7E" fill-rule="nonzero" points="100.184962 177.105583 98.1039494 172.116407 70.2277975 159.802417 48.9078987 172.116407 78.8653671 189.419574"></polygon>
                    <polygon id="Fill-193" stroke="none" fill="#008F7E" fill-rule="nonzero" points="100.184962 169.32975 70.2277975 152.026583 48.9078987 164.340574 78.8653671 181.64374"></polygon>
                    <polygon id="Fill-203" stroke="none" fill="#008F7E" fill-rule="nonzero" points="95.309681 169.100927 93.7265924 165.305555 72.5184911 155.937173 56.2987443 165.305555 79.0899342 178.46931"></polygon>
                    <polygon id="Fill-207" stroke="none" fill="#006658" fill-rule="nonzero" points="56.2988354 166.695084 79.0900253 179.858839 79.0900253 172.553476 56.2988354 159.389722"></polygon>
                    <polygon id="Fill-211" stroke="none" fill="#008F7E" fill-rule="nonzero" points="95.309681 163.185125 72.5184911 150.02137 56.2987443 159.389752 79.0899342 172.553507"></polygon>
                </g>
            </g>
        </g>
    </g>
</svg>