<?xml version="1.0" encoding="UTF-8"?>
<svg width="240px" height="210px" viewBox="0 0 240 210" version="1.1" xmlns="http://www.w3.org/2000/svg" xmlns:xlink="http://www.w3.org/1999/xlink">
    <!-- Generator: Sketch 53.2 (72643) - https://sketchapp.com -->
    <title>squerol-game-developer_character</title>
    <desc>Created with Sketch.</desc>
    <defs>
        <rect id="path-1" x="0" y="0" width="240" height="210"></rect>
        <polygon id="path-3" points="0 0.0909008058 239.786353 0.0909008058 239.786353 138.531537 0 138.531537"></polygon>
    </defs>
    <g id="Page-1" stroke="none" stroke-width="1" fill="none" fill-rule="evenodd">
        <g id="Group">
            <mask id="mask-2" fill="white">
                <use xlink:href="#path-1"></use>
            </mask>
            <g id="Rectangle"></g>
            <g id="Group-204" mask="url(#mask-2)">
                <g transform="translate(120.000000, 135.500000) scale(-1, 1) translate(-120.000000, -135.500000) translate(0.000000, 3.000000)">
                    <path d="M43.6271089,148.148476 C43.6271089,148.148476 24.4991089,150.619261 9.91774177,134.225742 C-4.66392911,117.832527 3.0379443,87.4786025 15.9985519,75.8941975 C28.9591595,64.3100962 14.0187038,53.5827038 8.55065316,59.5064506 C-1.01835949,44.4690835 20.853843,17.1288304 57.7634127,31.2548051 C94.6729823,45.3804759 58.1984506,146.56721 43.6271089,148.148476" id="Fill-1" stroke="none" fill="#BE5B00" fill-rule="nonzero"></path>
                    <path d="M8.55050127,59.5063899 C11.5699443,56.2350987 17.4760709,58.0429975 19.9796658,62.2673013 C22.1302481,61.0843139 25.6482228,59.0762127 31.0889316,55.7869975 C41.8454886,49.2842127 32.4490329,25.6436051 14.5234633,35.4450228 C6.57581772,42.3801114 3.98989367,52.3392 8.55050127,59.5063899" id="Fill-3" stroke="none" fill="#F79500" fill-rule="nonzero"></path>
                    <path d="M15.3168304,139.341904 C11.1587544,133.504132 8.24229873,124.394157 8.24229873,110.31922 C8.24229873,101.096841 7.89991899,93.7807899 7.34427342,87.9797772 C0.553488608,102.149499 -0.919321519,122.042461 9.91774177,134.225651 C11.6654886,136.190916 13.4791595,137.882157 15.3168304,139.341904" id="Fill-5" stroke="none" fill="#F79500" fill-rule="nonzero"></path>
                    <path d="M17.8047797,122.41677 L20.6987544,124.087656 C21.8613873,124.758744 23.8916658,124.674896 25.2341468,123.899909 L58.2587544,104.832668 C59.0194633,104.393681 62.433843,134.206846 62.4058937,133.676111 C62.3843241,133.269934 59.0881215,102.505276 58.5844253,102.214542 L55.6904506,100.543656 C54.5278177,99.8725671 52.4975392,99.9564152 51.155362,100.731403 L18.1304506,119.798643 C17.3384506,120.255858 16.962957,120.851301 17.0270582,121.400567 C17.0714127,121.782441 17.3281215,122.141833 17.8047797,122.41677" id="Fill-7" stroke="none" fill="#552222" fill-rule="nonzero"></path>
                    <path d="M90.9576608,113.729165 L90.9576608,138.153873 C90.9576608,154.213823 90.0319899,157.373316 79.602319,164.402886" id="Stroke-9" stroke="#091B21" stroke-width="5.7721519" fill="none"></path>
                    <path d="M101.261863,161.555909 L68.1998886,142.467706 C67.0372557,141.796618 65.0069772,141.880466 63.6648,142.655453 L37.9030785,157.529073 L29.5374076,156.997428 L29.5304203,163.247453 C29.5474329,163.657884 29.8056608,164.047352 30.3142177,164.34082 L73.1988759,189.100314 C74.3612051,189.771403 76.3917873,189.687554 77.7339646,188.912567 L110.758876,169.845327 C111.460952,169.440061 111.835838,168.926035 111.867129,168.431757 L111.867737,162.230035 L101.261863,161.555909 Z" id="Fill-11" stroke="none" fill="#552222" fill-rule="nonzero"></path>
                    <polygon id="Fill-13" stroke="none" fill="#394850" fill-rule="nonzero" points="51.6203241 176.641944 60.0093873 181.485387 60.0093873 175.983919 51.6203241 171.17359"></polygon>
                    <path d="M73.1988456,183.024365 L30.3141873,158.264871 C29.734238,157.929782 29.4796557,157.470441 29.5373772,156.997428 C29.5950987,156.522896 29.9672506,156.034694 30.6398582,155.646744 L63.6647696,136.579504 C65.0069468,135.804516 67.0372253,135.720668 68.1998582,136.391757 L111.084516,161.151251 C111.586997,161.441377 111.844922,161.825377 111.867706,162.230035 C111.897175,162.761681 111.52077,163.329782 110.758846,163.769377 L77.7339342,182.836618 C76.391757,183.611605 74.3614785,183.695453 73.1988456,183.024365" id="Fill-15" stroke="none" fill="#391616" fill-rule="nonzero"></path>
                    <path d="M41.2327595,142.438025 C41.2327595,142.438025 39.1936709,161.052 54.7885063,170.165924 C70.3833418,179.279848 78.4045063,179.279848 78.4045063,179.279848 L104.408658,161.659595 C104.408658,161.659595 106.636709,155.673266 103.598734,151.780405 C100.560759,147.887241 92.2798481,145.135747 82.3441519,142.157013 C72.4087595,139.178582 41.2327595,142.438025 41.2327595,142.438025" id="Fill-17" stroke="none" fill="#3A1A3E" fill-rule="nonzero"></path>
                    <path d="M41.2327595,142.438025 L41.2327595,166.862734 C41.2327595,182.922684 47.4438987,183.939797 58.3268354,177.635392" id="Stroke-19" stroke="#091B21" stroke-width="5.7721519" fill="none"></path>
                    <g id="Group-23" stroke="none" stroke-width="1" fill="none" fill-rule="evenodd" transform="translate(0.000000, 125.370835)">
                        <g id="Fill-21-Clipped">
                            <mask id="mask-4" fill="white">
                                <use xlink:href="#path-3"></use>
                            </mask>
                            <g id="path-1"></g>
                            <path d="M133.843686,1.75983797 L2.89057215,77.3656101 C0.972698734,78.4729519 -6.07594937e-05,76.8139139 -6.07594937e-05,78.1576101 C-6.07594937e-05,78.6506734 0.000546835443,81.2855089 0.00145822785,81.3107241 C0.0366987342,82.3876861 0.709002532,83.4114835 2.04297722,84.1816101 L94.1370532,137.352243 C97.1628759,139.099078 102.448648,138.880041 105.942927,136.862825 L236.895737,61.2570532 C240.390015,59.2395342 240.769458,56.1878886 237.743635,54.4407494 L145.649559,1.27042025 C142.623433,-0.476718987 137.337661,-0.257681013 133.843686,1.75983797" id="Fill-21" fill="#C63746" fill-rule="nonzero" mask="url(#mask-4)"></path>
                        </g>
                    </g>
                    <path d="M133.843686,124.092699 L2.89057215,199.698471 C0.961762025,200.811889 -0.0176810127,202.240344 0.000243037975,203.591028 C0.0148253165,204.687129 0.687129114,205.731889 2.04297722,206.514471 L94.1370532,259.685104 C97.1628759,261.431939 102.448648,261.212901 105.942927,259.195686 L236.895737,183.589914 C240.390015,181.572395 240.769458,178.520749 237.743635,176.77361 L145.649559,123.603281 C142.623433,121.856142 137.337661,122.07518 133.843686,124.092699" id="Fill-24" stroke="none" fill="#E84C5D" fill-rule="nonzero"></path>
                    <path d="M76.6689418,103.173691 L69.7879291,104.816932 L69.7842835,108.015311 C69.806157,108.420881 70.0643848,108.805489 70.5677772,109.096223 L104.24403,128.539261 C105.406359,129.210349 107.436942,129.126197 108.779119,128.35121 L111.022056,127.056122 C111.731119,126.64721 112.106005,126.126805 112.130916,125.62797 L112.13122,122.493387 L76.6689418,103.173691 Z" id="Fill-26" stroke="none" fill="#552222" fill-rule="nonzero"></path>
                    <path d="M104.244061,125.501316 L70.5675038,106.058278 C69.9981873,105.72957 69.7429975,105.280557 69.7879595,104.816962 C69.8350481,104.333924 70.2084152,103.835392 70.8931747,103.439848 L73.1361114,102.145063 C74.4782886,101.369772 76.5088709,101.285924 77.6712,101.957013 L111.347453,121.400051 C111.856314,121.693823 112.114238,122.083291 112.131251,122.493418 C112.153428,123.02081 111.777023,123.582532 111.022086,124.018481 L108.779149,125.313266 C107.436972,126.088253 105.40639,126.172405 104.244061,125.501316" id="Fill-28" stroke="none" fill="#4C6370" fill-rule="nonzero"></path>
                    <path d="M104.244061,125.501316 L70.5675038,106.058278 C69.9981873,105.72957 69.7429975,105.280557 69.7879595,104.816962 C69.8350481,104.333924 70.2084152,103.835392 70.8931747,103.439848 L73.1361114,102.145063 C74.4782886,101.369772 76.5088709,101.285924 77.6712,101.957013 L111.347453,121.400051 C111.856314,121.693823 112.114238,122.083291 112.131251,122.493418 C112.153428,123.02081 111.777023,123.582532 111.022086,124.018481 L108.779149,125.313266 C107.436972,126.088253 105.40639,126.172405 104.244061,125.501316" id="Fill-30" stroke="none" fill="#733737" fill-rule="nonzero"></path>
                    <polygon id="Fill-32" stroke="none" fill="#552222" fill-rule="nonzero" points="7.78553924 73.3181772 17.0270582 121.400506 59.367919 103.296304 50.1336911 55.3506835"></polygon>
                    <path d="M76.3240405,84.5159696 C93.0268253,92.7990076 101.988851,105.558501 101.0328,115.444982 C99.3859139,132.474046 76.3340658,118.618754 76.3340658,118.618754 L81.756243,114.049641 C81.756243,114.049641 85.7356861,114.291767 85.7356861,111.368324 C85.7356861,108.444577 83.4283443,108.785742 78.9679899,100.090754 C74.5073316,91.3954633 76.3240405,84.5159696 76.3240405,84.5159696" id="Fill-34" stroke="none" fill="#2698C7" fill-rule="nonzero"></path>
                    <path d="M30.4378633,90.6361215 C28.3179646,84.7482228 38.5963443,77.183362 43.4571038,76.535362 C48.3178633,75.887362 44.317762,80.6973873 44.317762,80.6973873 L31.3936101,92.5567291 L30.4378633,90.6361215 Z" id="Fill-36" stroke="none" fill="#46B3DA" fill-rule="nonzero"></path>
                    <path d="M32.3551595,84.7316658 C38.4548051,79.4158177 45.4825519,72.5870582 57.0268557,77.9840203 C59.9129316,79.3331848 75.1942481,79.692881 75.6785013,80.5091848 C77.130957,82.9565772 75.6785013,86.4730329 75.6785013,86.4730329 L45.3537418,90.5205266 L36.1517165,91.1193114 C36.1517165,91.1193114 26.9059443,89.4809316 32.3551595,84.7316658" id="Fill-38" stroke="none" fill="#005E84" fill-rule="nonzero"></path>
                    <path d="M81.7563646,114.04958 C81.8669468,105.223656 81.6679595,93.2986937 76.9587949,87.7802127 C71.3254785,81.1780861 59.9282127,80.6828962 48.2554025,87.4223392 C36.5825924,94.1614785 37.250643,108.055959 37.906238,116.709934 L37.7904911,138.616162 C37.7904911,148.558542 35.0669468,149.196213 38.6629975,151.272668 L46.3265924,155.697478 C55.8147949,160.679757 60.9456304,160.600162 64.0598582,158.802592 L87.9274025,144.758643 C92.9667949,141.081175 81.7563646,137.335959 81.7563646,114.04958" id="Fill-40" stroke="none" fill="#0385B8" fill-rule="nonzero"></path>
                    <path d="M41.9809823,90.7399595 C41.9809823,90.7399595 44.3563747,86.674238 55.8150076,84.5160608 C67.2733367,82.3575797 72.6942987,82.5374278 75.6785013,86.4731241 C76.9590076,87.7803646 73.4458937,87.4774785 73.1509063,96.2162127 C72.855919,104.955251 74.6337418,103.514035 75.6785013,116.083048 C76.722957,128.652061 75.0760709,132.60963 76.3240709,136.953934 C77.5720709,141.298542 82.6409316,145.476061 82.6409316,145.476061 L83.3499949,147.451959 L70.6992608,154.895605 C70.6992608,154.895605 65.1452354,150.914643 62.2302987,145.445681 C59.3156658,139.976415 62.1756152,130.603048 60.8796152,121.258542 C59.5836152,111.914339 50.1336911,94.2943899 50.1336911,94.2943899 L41.9809823,90.7399595 Z" id="Fill-42" stroke="none" fill="#F2F6F7" fill-rule="nonzero"></path>
                    <path d="M70.6990481,76.1935899 C70.6990481,76.1935899 76.7980861,75.0267038 73.8998582,86.1153114 C71.0016304,97.203919 69.5795544,91.6820962 73.8998582,109.214856 C78.2198582,126.747919 73.4040608,134.087666 76.3041114,139.341843 C79.204162,144.596324 83.3500861,145.598856 83.3500861,147.45202 C83.3500861,149.305185 85.0337316,148.326349 85.0337316,146.461337 C85.0337316,144.596324 80.1216304,142.469742 78.2198582,137.91278 C76.3180861,133.355818 77.549681,132.444425 77.2373772,122.874805 C76.925681,113.305185 74.6715038,106.774451 73.8998582,100.090603 C73.1282127,93.4064506 75.0175291,88.533843 76.9587949,87.7804253 C78.9003646,87.0267038 82.0622886,79.8838177 76.3041114,76.0122228 C70.5459342,72.1406278 65.882643,76.0122228 65.882643,76.0122228 L70.6990481,76.1935899 Z" id="Fill-44" stroke="none" fill="#46B3DA" fill-rule="nonzero"></path>
                    <path d="M8.56948861,74.4114532 L11.4634633,76.0823392 C12.6260962,76.7534278 14.6563747,76.6695797 15.9985519,75.8942886 L49.0234633,56.8273519 C49.7553114,56.4050734 50.1317165,55.8640101 50.133843,55.3508962 C50.1356658,54.9231494 49.8777418,54.514238 49.3491342,54.2092253 L46.4551595,52.5383392 C45.2925266,51.8669468 43.2622481,51.9510987 41.9197671,52.7260861 L8.89515949,71.7930228 C8.13991899,72.2289722 7.76351392,72.7906937 7.78538734,73.3180861 C7.8027038,73.7282127 8.06093165,74.117681 8.56948861,74.4114532" id="Fill-46" stroke="none" fill="#733737" fill-rule="nonzero"></path>
                    <path d="M51.7530835,90.7696405 C56.7229063,93.6387038 65.7806278,94.1308557 69.7500456,90.7693367 C71.0463494,89.6717165 70.3849823,84.473438 70.8971848,81.737438 C72.1154127,75.2297924 72.5364759,68.8868051 69.0379443,66.8665519 C64.0681215,63.9974886 59.8927291,63.2735392 54.9232101,66.1429063 C51.8864506,67.8961215 52.4171848,74.1819949 52.1708051,80.5878684 C52.0137418,84.6657418 49.8200203,89.6534886 51.7530835,90.7696405" id="Fill-48" stroke="none" fill="#F79500" fill-rule="nonzero"></path>
                    <path d="M26.9440709,131.882552 L20.0630582,133.525792 L20.0594127,136.724172 C20.0812861,137.129742 20.3392101,137.514349 20.8429063,137.805084 L54.5191595,157.248122 C55.6814886,157.91921 57.7120709,157.835058 59.0542481,157.060071 L61.2971848,155.764982 C62.0062481,155.356071 62.3811342,154.835666 62.4060456,154.33683 L62.4063494,151.202248 L26.9440709,131.882552 Z" id="Fill-50" stroke="none" fill="#552222" fill-rule="nonzero"></path>
                    <path d="M54.5191595,154.210177 L20.8426025,134.767139 C20.2732861,134.43843 20.0177924,133.989114 20.0630582,133.525823 C20.1101468,133.042785 20.4835139,132.544253 21.1682734,132.148709 L23.4112101,130.85362 C24.7533873,130.078633 26.7839696,129.994785 27.9462987,130.665873 L61.6225519,150.108911 C62.1311089,150.402684 62.3893367,150.792152 62.4063494,151.202278 C62.4285266,151.729671 62.0521215,152.291392 61.2971848,152.727038 L59.0542481,154.022127 C57.7120709,154.797114 55.6814886,154.881266 54.5191595,154.210177" id="Fill-52" stroke="none" fill="#733737" fill-rule="nonzero"></path>
                    <path d="M35.4086886,36.0875848 L30.9820557,36.0875848 C27.0205367,36.0875848 23.8087899,32.8761418 23.8087899,28.9146228 L23.8087899,25.4528506 C23.8087899,21.4913316 27.0205367,18.2798886 30.9820557,18.2798886 L35.4086886,18.2798886 L35.4086886,36.0875848 Z" id="Fill-54" stroke="none" fill="#00BDDC" fill-rule="nonzero"></path>
                    <path d="M35.3851139,37.5712405 L35.3851139,37.5712405 C33.7187848,37.5712405 32.355038,36.2077975 32.355038,34.5411646 L32.355038,19.8115443 C32.355038,18.1452152 33.7187848,16.7814684 35.3851139,16.7814684 C37.051443,16.7814684 38.4151899,18.1452152 38.4151899,19.8115443 L38.4151899,34.5411646 C38.4151899,36.2077975 37.051443,37.5712405 35.3851139,37.5712405" id="Fill-56" stroke="none" fill="#182830" fill-rule="nonzero"></path>
                    <path d="M88.980881,36.0875848 L93.4075139,36.0875848 C97.3690329,36.0875848 100.58078,32.8761418 100.58078,28.9146228 L100.58078,25.4528506 C100.58078,21.4913316 97.3690329,18.2798886 93.4075139,18.2798886 L88.980881,18.2798886 L88.980881,36.0875848 Z" id="Fill-58" stroke="none" fill="#00BDDC" fill-rule="nonzero"></path>
                    <path d="M28.0257418,35.4494278 C28.0257418,35.4494278 24.8899443,40.2166177 25.0925772,51.9565671" id="Stroke-60" stroke="#0385B8" stroke-width="3.64556962" fill="none" stroke-linecap="round" stroke-linejoin="round"></path>
                    <path d="M89.0044861,37.5712405 L89.0044861,37.5712405 C90.6708152,37.5712405 92.034562,36.2077975 92.034562,34.5411646 L92.034562,19.8115443 C92.034562,18.1452152 90.6708152,16.7814684 89.0044861,16.7814684 C87.338157,16.7814684 85.9744101,18.1452152 85.9744101,19.8115443 L85.9744101,34.5411646 C85.9744101,36.2077975 87.338157,37.5712405 89.0044861,37.5712405" id="Fill-62" stroke="none" fill="#182830" fill-rule="nonzero"></path>
                    <path d="M35.2514734,16.9376506 C35.2514734,16.9376506 35.2207899,12.9217519 35.4249418,39.6644354 C35.6293975,66.407119 35.7317772,79.7784608 62.5112203,79.556081 C89.2909671,79.3340051 89.1888911,65.9626633 88.9847392,39.2202835 C88.7802835,12.4772962 88.8109671,16.4931949 88.8109671,16.4931949 L75.4924861,25.9598278 L48.7127392,26.1819038 L35.2514734,16.9376506 Z" id="Fill-64" stroke="none" fill="#F79500" fill-rule="nonzero"></path>
                    <path d="M79.0570329,49.9676051 C79.0722228,51.9744911 78.2553114,51.6764658 77.2506532,51.6846684 C76.2456911,51.6931747 75.4333367,52.0048709 75.4181468,49.9979848 C75.4026532,47.9907949 76.2049823,46.3572759 77.2096405,46.3490734 C78.2146025,46.3405671 79.041843,47.9610228 79.0570329,49.9676051" id="Fill-66" stroke="none" fill="#8F2E07" fill-rule="nonzero"></path>
                    <path d="M48.9928101,50.2171139 C49.008,52.224 48.1910886,51.9259747 47.1864304,51.9341772 C46.1814684,51.9426835 45.3691139,52.2543797 45.3536203,50.2474937 C45.3384304,48.2403038 46.1407595,46.606481 47.1454177,46.5982785 C48.1503797,46.5900759 48.9773165,48.2102278 48.9928101,50.2171139" id="Fill-68" stroke="none" fill="#8F2E07" fill-rule="nonzero"></path>
                    <path d="M66.4930633,60.4340962 C66.5097722,62.6302481 64.7553418,66.3569316 62.5564557,66.3751595 C60.3572658,66.3933873 58.5463291,62.6958684 58.5296203,60.5000203 C58.5126076,58.3038684 60.2968101,58.440881 62.4956962,58.4226532 C64.6948861,58.4044253 66.4763544,58.2379443 66.4930633,60.4340962" id="Fill-70" stroke="none" fill="#8F2E07" fill-rule="nonzero"></path>
                    <path d="M48.7127392,26.1818127 C48.7570937,32.0034835 44.0673722,36.7618633 38.2381063,36.8101671 C32.4082329,36.8587747 37.3194228,32.0985722 37.2750684,26.2765975 C37.2304101,20.4552304 32.2472203,15.7770532 38.0767899,15.7287494 C43.9063595,15.6804456 48.6683848,20.3604456 48.7127392,26.1818127" id="Fill-72" stroke="none" fill="#F79500" fill-rule="nonzero"></path>
                    <path d="M86.9304,25.8649519 C86.9747544,31.686319 91.9579443,36.3648 86.1283747,36.4131038 C80.2988051,36.4614076 75.5370835,31.7814076 75.4924253,25.9597367 C75.4480709,20.1380658 80.1377924,15.3796861 85.967362,15.3313823 C91.7969316,15.2830785 86.8860456,20.043281 86.9304,25.8649519" id="Fill-74" stroke="none" fill="#F79500" fill-rule="nonzero"></path>
                    <path d="M64.5585722,77.9840203 L59.8512304,77.9840203 C59.8512304,77.9840203 49.476243,77.2600709 51.5271797,70.7457418 C53.5778127,64.2311089 56.0112304,71.2819443 59.3891544,71.2819443 C62.2132557,71.2819443 62.5289013,70.9082734 62.5565468,68.1607291 C62.5838886,70.9082734 62.899838,71.2819443 65.7236354,71.2819443 C69.1015595,71.2819443 70.8316861,64.2311089 72.8826228,70.7457418 C74.9332557,77.2600709 64.5585722,77.9840203 64.5585722,77.9840203 M88.9957367,40.7080709 C88.987838,40.0388051 88.9844962,39.6642228 88.9844962,39.6642228 C88.9844962,60.4573367 84.6751291,68.5529316 81.8097114,69.9014886 C79.7590785,70.8663494 75.6572051,71.9524253 73.9683949,66.6441722 C72.279281,61.335919 64.6691544,64.2624 62.5565468,66.3750076 C60.4439392,64.2624 52.1302177,61.335919 50.4414076,66.6441722 C48.7522937,71.9524253 44.6507241,70.8663494 42.5997873,69.9014886 C39.8394835,68.6021468 35.7394329,61.0394127 35.4429266,41.8962228 C35.6564962,67.1496911 36.4876861,82.8101468 62.511281,82.5941468 C88.7891544,82.3760203 89.1831797,66.4579443 88.9957367,40.7080709" id="Fill-76" stroke="none" fill="#3A1A3E" fill-rule="nonzero"></path>
                    <path d="M32.664881,43.1808304 C32.664881,43.1808304 46.2312608,38.6256911 58.8333873,43.8513114 C58.8333873,48.1716152 58.2564759,56.9149063 47.7781975,56.9149063 C37.2996152,56.9149063 32.5521722,56.5542987 32.664881,43.1808304 Z" id="Stroke-78" stroke="#3A1A3E" stroke-width="3.03797468" fill="none"></path>
                    <path d="M92.0510582,43.1808304 C92.0510582,43.1808304 78.4846785,38.6256911 65.8825519,43.8513114 C65.8825519,48.1716152 66.4594633,56.9149063 76.9377418,56.9149063 C87.4163241,56.9149063 92.1634633,56.5542987 92.0510582,43.1808304 Z" id="Stroke-80" stroke="#3A1A3E" stroke-width="3.03797468" fill="none"></path>
                    <path d="M58.8332962,43.8513114 L65.8826127,43.8513114" id="Stroke-82" stroke="#3A1A3E" stroke-width="3.03797468" fill="none"></path>
                    <path d="M94.7808,27.1837063 L94.7808,27.1837063 C94.7808,12.1703392 82.6100658,0.000212658228 67.5973063,0.000212658228 L56.7924456,0.000212658228 C41.7793823,0.000212658228 29.6089519,12.1703392 29.6089519,27.1837063" id="Stroke-84" stroke="#00BDDC" stroke-width="3.64556962" fill="none"></path>
                    <path d="M28.0257418,51.9565367 C28.0257418,53.5763848 26.7124253,54.8893975 25.0925772,54.8893975 C23.4727291,54.8893975 22.1594127,53.5763848 22.1594127,51.9565367 C22.1594127,50.3363848 23.4727291,49.0233722 25.0925772,49.0233722 C26.7124253,49.0233722 28.0257418,50.3363848 28.0257418,51.9565367" id="Fill-86" stroke="none" fill="#008F7E" fill-rule="nonzero"></path>
                    <path d="M61.3700354,128.992314 C63.5090734,113.809428 57.8745418,99.4823392 49.7798582,90.5707443 C41.6851747,81.6594532 38.7368203,84.7806684 35.2489215,87.9796557 C31.7610228,91.1783392 30.1138329,86.5885671 32.3552506,84.731757 C28.925681,86.3175797 30.1138329,92.8127696 32.3552506,93.1095797 C34.5963646,93.4063899 33.0661367,96.2417316 35.2489215,98.4694785 C37.4320101,100.697529 42.1329722,89.4716051 47.6605671,95.6836557 C53.7334785,102.50877 61.8345418,119.982896 59.3677063,133.682643 C56.9011747,147.382694 69.9720608,152.450947 69.0943899,155.840111 C68.216719,159.228972 71.4931747,158.603453 71.7790481,154.6632 C72.0649215,150.722643 58.3268962,150.592314 61.3700354,128.992314" id="Fill-88" stroke="none" fill="#46B3DA" fill-rule="nonzero"></path>
                    <path d="M75.6784709,110.993803 C75.6784709,111.97598 74.8819139,112.772233 73.8997367,112.772233 C72.9175595,112.772233 72.1210025,111.97598 72.1210025,110.993803 C72.1210025,110.011625 72.9175595,109.215068 73.8997367,109.215068 C74.8819139,109.215068 75.6784709,110.011625 75.6784709,110.993803" id="Fill-90" stroke="none" fill="#F79500" fill-rule="nonzero"></path>
                    <polygon id="Fill-92" stroke="none" fill="#F79500" fill-rule="nonzero" points="87.7508658 115.208111 87.2772456 119.705833 82.3162329 118.802035 82.6409924 111.18401"></polygon>
                    <polygon id="Fill-94" stroke="none" fill="#F2F2F2" fill-rule="nonzero" points="78.2198278 126.74798 66.0223595 119.705651 78.2198278 112.663625 90.4169924 119.705651"></polygon>
                    <path d="M80.1063797,120.793641 C79.0655696,121.398197 77.3770633,121.401539 76.3353418,120.800932 C75.2936203,120.200324 75.2930127,119.223311 76.3341266,118.618754 C77.3749367,118.014197 79.0631392,118.010856 80.1048608,118.611159 C81.1465823,119.212071 81.1471899,120.189084 80.1063797,120.793641" id="Fill-96" stroke="none" fill="#110E0E" fill-rule="nonzero"></path>
                    <polygon id="Fill-98" stroke="none" fill="#9A9A9A" fill-rule="nonzero" points="78.2198278 132.214542 72.1210937 128.693225 66.0223595 125.172213 66.0223595 119.705681 78.2198278 126.74801"></polygon>
                    <polygon id="Fill-100" stroke="none" fill="#CDCDCD" fill-rule="nonzero" points="78.2198278 132.214542 90.4172962 125.172213 90.4172962 119.705681 78.2198278 126.74801"></polygon>
                    <path d="M78.2196759,119.232243 L78.2196759,111.184041" id="Stroke-102" stroke="#4C6370" stroke-width="1.82278481" fill="none" stroke-linecap="round" stroke-linejoin="round"></path>
                    <path d="M82.6409013,111.18398 C82.6409013,113.6256 80.661357,115.605144 78.2197367,115.605144 C75.7781165,115.605144 73.7985722,113.6256 73.7985722,111.18398 C73.7985722,108.742359 75.7781165,106.762815 78.2197367,106.762815 C80.661357,106.762815 82.6409013,108.742359 82.6409013,111.18398" id="Fill-104" stroke="none" fill="#C63746" fill-rule="nonzero"></path>
                    <path d="M59.7792608,127.395008 C59.7792608,127.395008 64.5327797,122.976577 66.0222987,119.70559 C67.5118177,116.434906 69.4843747,118.170805 71.4569316,118.486451 C73.4297924,118.802096 73.1007797,121.484628 72.1210329,121.484628 C71.1412861,121.484628 68.6954127,121.405641 68.6954127,121.405641 L68.6954127,126.747919 L73.7986025,129.661944 C73.7986025,129.661944 71.0626025,131.110754 68.6164253,131.110754 C66.1705519,131.110754 61.8308051,132.214451 61.8308051,132.214451 C61.8308051,132.214451 58.4376911,131.569185 59.7792608,127.395008" id="Fill-106" stroke="none" fill="#F79500" fill-rule="nonzero"></path>
                    <path d="M87.7508658,115.208111 C87.7508658,115.208111 80.8862582,115.283453 80.531119,112.663504 C80.1759797,110.043554 76.9681823,110.618947 76.3232203,107.194846 C75.678562,103.770744 91.5088405,101.534795 87.7508658,115.208111" id="Fill-108" stroke="none" fill="#F79500" fill-rule="nonzero"></path>
                    <path d="M38.4150684,95.2423291 C34.5808405,101.069772 17.7720304,132.904709 33.5767899,140.902481 C49.3812456,148.899949 62.4056506,133.676051 62.4056506,133.676051 C64.7737519,130.267139 59.7793215,127.395038 59.7793215,127.395038 C56.8750177,127.431797 47.6362329,131.577114 45.0658025,125.959899 C42.4950684,120.342987 51.9334481,112.628658 50.9609924,103.017722 C49.9888405,93.406481 40.9785114,91.3461266 38.4150684,95.2423291" id="Fill-110" stroke="none" fill="#2698C7" fill-rule="nonzero"></path>
                    <polygon id="Fill-112" stroke="none" fill="#9A2433" fill-rule="nonzero" points="143.2896 157.9056 97.1184608 184.562309 74.6146633 171.570106 74.6149671 169.422562 143.2896 155.758359"></polygon>
                    <polygon id="Fill-114" stroke="none" fill="#C63746" fill-rule="nonzero" points="143.2896 155.758238 97.1184608 182.414947 74.6149671 169.422744 120.786106 142.765732"></polygon>
                    <polygon id="Fill-116" stroke="none" fill="#9A2433" fill-rule="nonzero" points="97.1183089 175.173995 94.0226127 176.961539 97.1183089 178.74878 100.214005 176.961539"></polygon>
                    <polygon id="Fill-118" stroke="none" fill="#9A2433" fill-rule="nonzero" points="101.708932 172.523787 98.6132354 174.311028 101.708932 176.098268 104.804628 174.311028"></polygon>
                    <polygon id="Fill-120" stroke="none" fill="#9A2433" fill-rule="nonzero" points="106.299585 169.873276 103.203889 171.660516 106.299585 173.448061 109.395281 171.660516"></polygon>
                    <polygon id="Fill-122" stroke="none" fill="#9A2433" fill-rule="nonzero" points="110.890208 167.222734 107.794511 169.010278 110.890208 170.797519 113.985904 169.010278"></polygon>
                    <polygon id="Fill-124" stroke="none" fill="#9A2433" fill-rule="nonzero" points="115.480982 164.572527 112.385286 166.359767 115.480982 168.147311 118.576678 166.359767"></polygon>
                    <polygon id="Fill-126" stroke="none" fill="#9A2433" fill-rule="nonzero" points="120.071635 161.922015 116.975939 163.709256 120.071635 165.4968 123.167332 163.709559"></polygon>
                    <polygon id="Fill-128" stroke="none" fill="#9A2433" fill-rule="nonzero" points="124.662258 159.271504 121.566562 161.059048 124.662258 162.846289 127.757954 161.059048"></polygon>
                    <polygon id="Fill-130" stroke="none" fill="#9A2433" fill-rule="nonzero" points="129.253033 156.621296 126.157337 158.408537 129.253033 160.196081 132.348729 158.408537"></polygon>
                    <polygon id="Fill-132" stroke="none" fill="#9A2433" fill-rule="nonzero" points="133.843686 153.970754 130.74799 155.758299 133.843686 157.545539 136.939382 155.758299"></polygon>
                    <polygon id="Fill-134" stroke="none" fill="#9A2433" fill-rule="nonzero" points="92.8847089 172.729671 89.7890127 174.517215 92.8847089 176.304456 95.9804051 174.517215"></polygon>
                    <polygon id="Fill-136" stroke="none" fill="#9A2433" fill-rule="nonzero" points="97.4755139 170.079463 94.3798177 171.866704 97.4755139 173.654248 100.57121 171.866704"></polygon>
                    <polygon id="Fill-138" stroke="none" fill="#9A2433" fill-rule="nonzero" points="102.066137 167.428952 98.9704405 169.216496 102.066137 171.003737 105.161833 169.216496"></polygon>
                    <polygon id="Fill-140" stroke="none" fill="#9A2433" fill-rule="nonzero" points="106.65679 164.778714 103.561094 166.565954 106.65679 168.353499 109.752486 166.565954"></polygon>
                    <polygon id="Fill-142" stroke="none" fill="#9A2433" fill-rule="nonzero" points="111.247413 162.128203 108.151716 163.915443 111.247413 165.702987 114.343109 163.915747"></polygon>
                    <polygon id="Fill-144" stroke="none" fill="#9A2433" fill-rule="nonzero" points="115.838187 159.477691 112.742491 161.265235 115.838187 163.052476 118.933884 161.265235"></polygon>
                    <polygon id="Fill-146" stroke="none" fill="#9A2433" fill-rule="nonzero" points="120.428841 156.827484 117.333144 158.614724 120.428841 160.402268 123.524537 158.614724"></polygon>
                    <polygon id="Fill-148" stroke="none" fill="#9A2433" fill-rule="nonzero" points="125.019463 154.176972 121.923767 155.964516 125.019463 157.751757 128.115159 155.964516"></polygon>
                    <polygon id="Fill-150" stroke="none" fill="#9A2433" fill-rule="nonzero" points="129.610086 151.526734 126.51439 153.313975 129.610086 155.101215 132.705782 153.313975"></polygon>
                    <polygon id="Fill-152" stroke="none" fill="#9A2433" fill-rule="nonzero" points="93.2419139 167.635139 90.1462177 169.422684 93.2419139 171.209924 96.3376101 169.422684"></polygon>
                    <polygon id="Fill-154" stroke="none" fill="#9A2433" fill-rule="nonzero" points="102.423342 162.33439 99.3276456 164.12163 102.423342 165.909175 105.519038 164.121934"></polygon>
                    <polygon id="Fill-156" stroke="none" fill="#9A2433" fill-rule="nonzero" points="107.013965 159.683878 103.918268 161.471423 107.013965 163.258663 110.109661 161.471423"></polygon>
                    <polygon id="Fill-158" stroke="none" fill="#9A2433" fill-rule="nonzero" points="111.604618 157.033671 108.508922 158.820911 111.604618 160.608456 114.700314 158.820911"></polygon>
                    <polygon id="Fill-160" stroke="none" fill="#9A2433" fill-rule="nonzero" points="116.195392 154.383159 113.099696 156.170704 116.195392 157.957944 119.291089 156.170704"></polygon>
                    <polygon id="Fill-162" stroke="none" fill="#9A2433" fill-rule="nonzero" points="120.786015 151.732922 117.690319 153.520162 120.786015 155.307403 123.881711 153.520162"></polygon>
                    <polygon id="Fill-164" stroke="none" fill="#9A2433" fill-rule="nonzero" points="125.376668 149.08241 122.280972 150.869651 125.376668 152.657195 128.472365 150.869651"></polygon>
                    <polygon id="Fill-166" stroke="none" fill="#9A2433" fill-rule="nonzero" points="84.417843 167.841327 81.3221468 169.628871 84.417843 171.416111 87.5135392 169.628871"></polygon>
                    <polygon id="Fill-168" stroke="none" fill="#9A2433" fill-rule="nonzero" points="89.0084962 165.191089 85.9128 166.978329 89.0084962 168.76557 92.1041924 166.978329"></polygon>
                    <polygon id="Fill-170" stroke="none" fill="#9A2433" fill-rule="nonzero" points="93.599119 162.540577 90.5034228 164.327818 93.599119 166.115362 96.6948152 164.327818"></polygon>
                    <polygon id="Fill-172" stroke="none" fill="#9A2433" fill-rule="nonzero" points="98.1897418 159.890066 95.0940456 161.67761 98.1897418 163.464851 101.285438 161.67761"></polygon>
                    <polygon id="Fill-174" stroke="none" fill="#9A2433" fill-rule="nonzero" points="102.780547 157.239858 99.6848506 159.027099 102.780547 160.814643 105.876243 159.027099"></polygon>
                    <polygon id="Fill-176" stroke="none" fill="#9A2433" fill-rule="nonzero" points="107.37117 154.589347 104.275473 156.376891 107.37117 158.164132 110.466866 156.376891"></polygon>
                    <polygon id="Fill-178" stroke="none" fill="#9A2433" fill-rule="nonzero" points="111.961823 151.938835 108.866127 153.72638 111.961823 155.51362 115.057519 153.72638"></polygon>
                    <polygon id="Fill-180" stroke="none" fill="#9A2433" fill-rule="nonzero" points="116.552446 149.288597 113.456749 151.075838 116.552446 152.863382 119.648142 151.075838"></polygon>
                    <polygon id="Fill-182" stroke="none" fill="#9A2433" fill-rule="nonzero" points="121.14322 146.638086 118.047524 148.42563 121.14322 150.212871 124.238916 148.42563"></polygon>
                    <polygon id="Fill-186" stroke="none" fill="#9A2433" fill-rule="nonzero" points="129.107241 182.438734 188.870278 147.934633 188.870278 107.153468 129.107241 141.657266"></polygon>
                    <polygon id="Fill-188" stroke="none" fill="#9A2433" fill-rule="nonzero" points="156.687676 195.748557 169.188638 188.530937 169.188638 142.995342 156.687676 150.212962"></polygon>
                    <polygon id="Fill-190" stroke="none" fill="#C63746" fill-rule="nonzero" points="156.687676 150.213053 169.188638 142.995433 165.409094 140.813863 152.908435 148.030876"></polygon>
                    <polygon id="Fill-192" stroke="none" fill="#C63746" fill-rule="nonzero" points="129.107241 141.657175 188.870278 107.153377 185.091038 104.9712 125.328 139.475301"></polygon>
                    <polygon id="Fill-194" stroke="none" fill="#C63746" fill-rule="nonzero" points="129.107241 141.657175 129.107241 182.438643 125.328 180.25677 125.328 139.475301"></polygon>
                    <polygon id="Fill-196" stroke="none" fill="#C63746" fill-rule="nonzero" points="156.687676 150.213053 156.687676 195.748648 152.908435 193.566471 152.908435 148.030876"></polygon>
                    <path d="M59.2608,187.908577 C63.6534076,190.444678 71.6274835,191.775615 75.1241924,189.756577 C78.6209013,187.737843 74.6214076,182.002147 70.7081924,178.77521 C66.8305215,175.577438 62.7140658,175.819868 59.2170532,177.838603 C55.7206481,179.857337 54.8681924,185.372476 59.2608,187.908577" id="Fill-198" stroke="none" fill="#9A2433" fill-rule="nonzero"></path>
                    <path d="M84.3184709,125.95999 C88.1660658,128.647078 88.3285975,128.988243 88.3285975,133.682825 L88.3285975,153.970724 C88.3285975,158.115433 86.5459139,158.949357 83.8117367,160.608395 C81.0775595,162.267129 72.0648,167.558066 68.8244962,169.216496 C65.5838886,170.874927 65.8876861,172.481408 68.8244962,174.310876 C71.7610025,176.140648 126.157154,207.532952 126.157154,207.532952" id="Stroke-202" stroke="#F2F2F2" stroke-width="0.5" fill="none"></path>
                </g>
            </g>
        </g>
    </g>
</svg>