<?xml version="1.0" encoding="UTF-8"?>
<svg width="450px" height="284px" viewBox="0 0 450 284" version="1.1" xmlns="http://www.w3.org/2000/svg" xmlns:xlink="http://www.w3.org/1999/xlink">
    <!-- Generator: Sketch 52.5 (67469) - http://www.bohemiancoding.com/sketch -->
    <title>desk_ilustracao_landingpage</title>
    <desc>Created with Sketch.</desc>
    <defs>
        <polygon id="path-1" points="0.413715058 0.437535014 87.3080255 0.437535014 87.3080255 177.163575 0.413715058 177.163575"></polygon>
        <polygon id="path-3" points="0.0186184901 0.147290375 109.454154 0.147290375 109.454154 63.6414566 0.0186184901 63.6414566"></polygon>
        <path d="M3.64076377,2.38735014 C-0.246181172,4.62116527 -0.246181172,8.24236415 3.64076377,10.4753838 C7.52850799,12.7091989 13.8293073,12.7091989 17.7170515,10.4753838 C21.6039964,8.24077311 21.6039964,4.62036975 17.7170515,2.38735014 C15.7731794,1.26964706 13.2258437,0.711988796 10.6793073,0.711988796 C8.13197158,0.711988796 5.58463588,1.26964706 3.64076377,2.38735014 Z" id="path-5"></path>
        <path d="M2.10133215,1.06360784 L1.91909414,1.16941176 C-2.14928952,3.61881232 1.27246892,9.44916527 9.62744227,14.2501176 C18.0119893,19.0677759 28.1997336,21.0311148 32.435968,18.654902 L32.5318828,18.5992157 C36.6650089,16.1641345 33.2464476,10.311507 24.8642984,5.49543978 C18.8952043,2.06436975 12.0109236,0.0811428571 7.01136767,0.0811428571 C5.01554174,0.0811428571 3.31865009,0.397759104 2.10133215,1.06360784 Z M10.6617229,13.6566611 C2.96216696,9.2319888 -0.526731794,3.7620056 3.0428952,1.71036415 C6.61172291,-0.339686275 16.1320604,1.66422409 23.8308171,6.08889636 C31.530373,10.5127731 35.0192718,15.9835518 31.450444,18.0343978 C30.4960924,18.5825098 29.1173179,18.8410532 27.4619893,18.8410532 C22.9220249,18.8410532 16.3023091,16.8983978 10.6617229,13.6566611 Z" id="path-7"></path>
        <path d="M9.62664298,5.49543978 C1.2508881,10.3075294 -2.1660746,16.1561793 1.95026643,18.5944426 L2.07095915,18.6628571 C6.31758437,21.0271373 16.4901421,19.0622073 24.8642984,14.2501176 C33.2424512,9.43564146 36.6610124,3.58619608 32.5374778,1.14872829 L32.5190941,1.13759104 L32.4143872,1.07713165 C31.1954707,0.401736695 29.4905861,0.0819383754 27.4811723,0.0819383754 C22.4824156,0.0811428571 15.5973357,2.06436975 9.62664298,5.49543978 Z M3.0428952,18.0343978 C-0.526731794,15.9827563 2.96216696,10.5127731 10.6609236,6.08889636 C14.5734458,3.83996639 18.9887211,2.16858263 23.0954707,1.38261064 C26.8041741,0.672212885 29.8502664,0.791540616 31.450444,1.71036415 C35.0192718,3.7620056 31.530373,9.2319888 23.8308171,13.6566611 C19.9190941,15.9047955 15.5030195,17.5761793 11.39627,18.3621513 C9.79689165,18.6684258 8.31980462,18.8203697 7.02975133,18.8203697 C5.32966252,18.8203697 3.95248668,18.5570532 3.0428952,18.0343978 Z" id="path-9"></path>
        <path d="M0.0791296625,13.0544538 C0.0791296625,17.9055238 2.50497336,22.1042689 6.04023091,24.1352269 C7.48854352,24.9681345 9.12309059,25.4366947 10.8519538,25.4366947 C16.8026643,25.4366947 21.6255773,19.8935238 21.6255773,13.0544538 C21.6263766,8.20338375 19.1989343,4.00384314 15.6628774,1.97208964 C14.2161634,1.13997759 12.5816163,0.672212885 10.8519538,0.672212885 C4.90124334,0.672212885 0.078330373,6.21538375 0.0791296625,13.0544538 Z M7.07371226,23.5417703 C3.71269982,21.6102521 1.54023091,17.4934454 1.54023091,13.0544538 C1.54023091,6.79770308 5.80523979,1.51148459 10.8519538,1.51148459 C12.1412078,1.51148459 13.4128774,1.86708123 14.631794,2.56713725 C17.9920071,4.49785994 20.1652753,8.61546218 20.164476,13.0544538 C20.164476,19.310409 15.8994671,24.5966275 10.8519538,24.5966275 C9.56269982,24.5966275 8.29262877,24.2418263 7.07371226,23.5417703 Z" id="path-11"></path>
        <path d="M0.493960924,6.69030812 C0.493960924,7.68391036 1.30843694,8.62341737 2.75674956,9.45552941 C6.2920071,11.4864874 13.5999112,12.8810308 22.0412078,12.8810308 C33.9426288,12.8810308 43.5900533,10.1094454 43.5900533,6.69030812 C43.5900533,5.69591036 42.774778,4.75719888 41.3272647,3.92508683 C37.7928064,1.89412885 30.4833037,0.499585434 22.0420071,0.499585434 C10.1413854,0.499585434 0.493960924,3.27117087 0.493960924,6.69030812 Z M3.79023091,8.86127731 C2.57291297,8.16201681 1.95586146,7.43173109 1.95586146,6.69030812 C1.95586146,3.78905322 11.153286,1.33965266 22.0420071,1.33965266 C29.7671403,1.33965266 36.9319716,2.58702521 40.2937833,4.51854342 C41.5126998,5.21939496 42.128952,5.94968067 42.128952,6.69030812 C42.1281528,9.59156303 32.929929,12.0417591 22.0412078,12.0417591 C14.3168739,12.0417591 7.15284192,10.793591 3.79023091,8.86127731 Z" id="path-13"></path>
        <path d="M1.66731794,1.44466106 C-0.313321492,2.58304762 -0.313321492,4.43262745 1.66731794,5.57101401 C3.64715808,6.70860504 6.86669627,6.70860504 8.8473357,5.57101401 C10.8263766,4.43342297 10.8279751,2.58304762 8.8473357,1.44466106 C7.85781528,0.875865546 6.55737123,0.591865546 5.25772647,0.591865546 C3.95728242,0.591865546 2.65683837,0.876661064 1.66731794,1.44466106 Z" id="path-15"></path>
        <path d="M1.94866785,1.14872829 C-0.319715808,2.45178711 -0.319715808,4.56468347 1.94866785,5.8677423 C4.2178508,7.17080112 7.89458259,7.17080112 10.162167,5.8677423 C12.4321492,4.56468347 12.4321492,2.45178711 10.162167,1.14872829 C9.02877442,0.496403361 7.54209591,0.171036415 6.0562167,0.171036415 C4.56953819,0.171036415 3.08285968,0.496403361 1.94866785,1.14872829 Z M2.98294849,5.27428571 C1.28765542,4.30057143 1.28765542,2.71589916 2.98294849,1.74218487 C4.67824156,0.768470588 7.43499112,0.768470588 9.1294849,1.74218487 C10.8239787,2.71589916 10.8239787,4.30057143 9.1294849,5.27428571 C8.28223801,5.76114286 7.16882771,6.00457143 6.0562167,6.00457143 C4.94360568,6.00457143 3.83019538,5.76114286 2.98294849,5.27428571 Z" id="path-17"></path>
        <path d="M32.8324156,0.700056022 L1.57380107,18.6612661 C0.375666075,19.3493894 0.377264654,20.4766387 1.57380107,21.1647619 L4.2330373,22.6921569 C5.430373,23.3810756 7.3910302,23.3810756 8.58916519,22.6921569 L39.8469805,4.73094678 C41.0459147,4.04282353 41.0459147,2.91636975 39.8469805,2.22745098 L37.1877442,0.700056022 C36.5890764,0.356392157 35.7993783,0.183764706 35.0096803,0.183764706 C34.2207815,0.183764706 33.4310835,0.355596639 32.8324156,0.700056022 Z" id="path-19"></path>
        <path d="M0.457992895,1.02860504 C0.413232682,3.43107003 4.63907638,3.43107003 4.63907638,3.43107003 C4.99955595,2.96648739 5.89955595,0.486061625 5.89955595,0.486061625 L5.35923623,0.175809524 C5.35923623,0.175809524 5.16181172,0.0715966387 4.6142984,0.0715966387 C3.91172291,0.0715966387 2.63285968,0.243428571 0.457992895,1.02860504 Z" id="path-21"></path>
        <path d="M6.6125222,3.57903641 C-1.00550622,7.95756863 -3.10284192,13.8507675 9.09431616,20.8592829 L36.6857904,5.00380952 C30.5272647,1.46534454 24.8650977,0.0206834734 19.7856128,0.0206834734 C14.8052398,0.0214789916 10.3851687,1.4112493 6.6125222,3.57903641 Z" id="path-23"></path>
        <path d="M4.66465364,2.81931653 C-1.43232682,6.32277871 -1.43232682,12.0019832 4.66385435,15.5038543 C10.7600355,19.006521 20.6416519,19.006521 26.737833,15.5030588 C32.8324156,12.0003922 32.8332149,6.32118768 26.737833,2.81931653 C23.6901421,1.06838095 19.6952931,0.192515406 15.700444,0.192515406 C11.7063943,0.192515406 7.71234458,1.06758543 4.66465364,2.81931653 Z" id="path-25"></path>
        <path d="M4.66465364,2.81931653 C-1.43232682,6.32277871 -1.43232682,12.0019832 4.66385435,15.5038543 C6.32877442,16.4600672 8.28063943,17.1458039 10.355595,17.5809524 C12.2515098,15.1068908 0.525932504,9.95511485 0.525932504,9.95511485 L8.11438721,5.59408403 C11.5625222,3.61244818 15.7020426,1.23464426 21.909325,4.80095238 C26.3198046,7.33547339 29.3283304,7.06897479 30.7063055,6.7022409 C30.0029307,5.28064986 28.6857016,3.93781513 26.737833,2.81931653 C23.6901421,1.06838095 19.6952931,0.192515406 15.700444,0.192515406 C11.7063943,0.192515406 7.71154529,1.06838095 4.66465364,2.81931653 Z" id="path-27"></path>
        <path d="M4.66465364,2.81931653 C-1.43232682,6.32277871 -1.43232682,12.0019832 4.66385435,15.5038543 C6.32877442,16.4600672 8.28063943,17.1458039 10.355595,17.5809524 C12.2515098,15.1068908 0.525932504,9.95511485 0.525932504,9.95511485 L8.11438721,5.59408403 C11.5625222,3.61244818 15.7020426,1.23464426 21.909325,4.80095238 C26.3198046,7.33547339 29.3283304,7.06897479 30.7063055,6.7022409 C30.0029307,5.28064986 28.6857016,3.93781513 26.737833,2.81931653 C23.6901421,1.06838095 19.6952931,0.192515406 15.700444,0.192515406 C11.7063943,0.192515406 7.71154529,1.06838095 4.66465364,2.81931653 Z" id="path-29"></path>
    </defs>
    <g id="Desktop" stroke="none" stroke-width="1" fill="none" fill-rule="evenodd">
        <g id="9.0-Campanha" transform="translate(-1100.000000, -188.000000)">
            <g id="desk_ilustracao_landingpage" transform="translate(1100.000000, 188.000000)">
                <g id="Group-65" transform="translate(69.538188, 0.357983)">
                    <path d="M143.834547,238.916392 L4.66545293,158.945333 C2.0517762,157.443395 0.6330373,155.48642 0.3660746,153.405345 C0.346092362,153.246241 0.326909414,149.789714 0.319715808,149.62902 C0.194227353,146.71981 2.28436945,150.344986 6.46865009,147.94093 L142.030551,70.0461737 C149.463144,65.7758319 160.70595,65.3112493 167.142629,69.010409 L306.311723,148.981468 C309.281083,150.687854 310.706217,146.589345 310.653464,148.985445 C310.651066,149.082499 310.649467,152.146039 310.642274,152.243092 C310.447247,154.951832 308.37389,157.764784 304.508526,159.985871 L168.946625,237.880627 C161.514032,242.150969 150.271226,242.614756 143.834547,238.916392" id="Fill-1" fill="#9DAEB8"></path>
                    <path d="M144.035089,235.858659 L123.721146,224.185225 L4.86599467,155.8876 C1.95338366,154.213034 0.524253996,151.975241 0.520257549,149.628463 C0.515461812,146.790054 2.59920959,143.794928 6.66919183,141.4569 L142.231092,63.5621434 C149.663686,59.2918017 160.906492,58.8280146 167.343171,62.5263787 L306.512265,142.498233 C309.519192,144.226099 310.945124,146.556967 310.853206,148.985684 C310.748499,151.754883 308.669547,154.652956 304.709067,156.928138 L169.147167,234.822894 C161.714574,239.093236 150.471767,239.557023 144.035089,235.858659" id="Fill-3" fill="#DEE7EE"></path>
                    <polygon id="Fill-5" fill="#C9D7DE" points="130.700861 204.632262 55.9425133 161.674279 105.780613 133.035624 180.53976 175.993607"></polygon>
                    <path d="M205.745115,29.992707 C202.993961,40.806186 182.965364,38.7434073 182.965364,28.7994297 C182.965364,18.8554521 195.354352,16.4688975 195.354352,16.4688975 C195.354352,16.4688975 208.302842,19.9373569 205.745115,29.992707" id="Fill-7" fill="#FFD126"></path>
                    <g id="Group-11" transform="translate(134.280639, 0.000000)">
                        <mask id="mask-2" fill="white">
                            <use xlink:href="#path-1"></use>
                        </mask>
                        <g id="Clip-10"></g>
                        <path d="M31.1003552,177.163575 C31.1003552,177.163575 41.6389876,176.446018 46.258881,175.993368 C51.6468917,170.618847 51.6812611,174.596438 66.2491119,162.67162 C89.848135,143.354052 98.1655417,104.544696 67.0484014,73.573581 C23.9395204,30.6688975 75.8589698,9.02523361 71.464476,29.992707 C76.6598579,9.30923361 37.0750444,-3.59168515 21.089254,1.57918319 C5.10346359,6.75005154 -11.6816163,25.0469703 12.696714,65.6183989 C37.0750444,106.189827 47.8854352,175.17478 31.1003552,177.163575" id="Fill-9" fill="#E36A00" mask="url(#mask-2)"></path>
                    </g>
                    <path d="M182.565719,168.810634 L180.53952,175.993368 C185.015542,173.579766 193.955595,168.054096 200.529751,162.67162 C209.184458,155.587531 215.355773,146.261671 218.32833,135.626388 C211.340142,159.662175 182.565719,168.810634 182.565719,168.810634" id="Fill-12" fill="#FFD126"></path>
                    <path d="M139.385382,120.109169 C139.517265,120.137012 125.204387,113.69411 123.663357,133.035544 C122.382096,149.126491 150.046306,150.536945 150.046306,150.536945 L139.385382,120.109169 Z" id="Fill-14" fill="#F79500"></path>
                    <path d="M158.886767,80.8530499 C176.620604,91.7675597 200.447425,111.837689 200.447425,137.640322 C200.447425,177.625453 169.816252,179.640501 165.550444,179.640501 C157.821314,187.330775 154.26048,186.931425 150.045826,185.937823 C145.831972,184.944221 145.274067,173.983571 152.50524,169.828579 C159.736412,165.672792 129.998845,123.068815 132.258437,94.5001647 C134.51643,65.9323104 141.15373,69.9385401 158.886767,80.8530499" id="Fill-16" fill="#F79500"></path>
                    <path d="M144.760284,144.769517 C144.760284,144.769517 126.645187,98.8450465 144.760284,105.181349 C165.608952,112.473864 165.550604,139.399769 165.550604,139.399769 C154.360551,137.312329 155.984707,150.139265 155.984707,150.139265 L144.760284,144.769517 Z" id="Fill-18" fill="#FFD126"></path>
                    <polygon id="Fill-20" fill="#4C6370" points="130.700861 182.357752 55.9425133 139.399769 105.780613 110.761114 180.53976 153.719097"></polygon>
                    <polygon id="Fill-22" fill="#344B56" points="152.50492 159.088845 96.4371581 126.870357 71.5177087 141.189685 127.585471 173.408173"></polygon>
                    <polygon id="Fill-24" fill="#344B56" points="143.160107 139.399769 130.700782 132.240105 121.356288 137.609853 133.815613 144.769517"></polygon>
                    <polygon id="Fill-26" fill="#6A8B9B" points="180.539361 157.298929 180.539361 153.719097 130.700462 182.357752 130.700462 185.937584"></polygon>
                    <polygon id="Fill-28" fill="#344B56" points="130.700861 182.357752 130.700861 185.937584 55.9425133 142.979601 55.9425133 139.399769"></polygon>
                    <path d="M117.257371,43.2376078 L117.257371,61.9537647 C117.257371,83.9784818 117.257371,94.9900448 139.385702,94.9900448 C161.514032,94.9900448 161.514032,83.9784818 161.514032,61.9537647 L161.514032,43.2376078 L150.449467,50.9429972 L128.321936,50.9429972 L117.257371,43.2376078 Z" id="Fill-30" fill="#F79500"></path>
                    <path d="M150.046226,73.1239541 C150.046226,74.7762454 149.373224,74.5256571 148.542762,74.5256571 C147.7123,74.5256571 147.039298,74.7762454 147.039298,73.1239541 C147.039298,71.4708672 147.7123,70.130419 148.542762,70.130419 C149.373224,70.130419 150.046226,71.4708672 150.046226,73.1239541" id="Fill-32" fill="#8F2E07"></path>
                    <path d="M125.204227,73.1239541 C125.204227,74.7762454 124.530426,74.5256571 123.700764,74.5256571 C122.870302,74.5256571 122.196501,74.7762454 122.196501,73.1239541 C122.196501,71.4708672 122.870302,70.130419 123.700764,70.130419 C124.530426,70.130419 125.204227,71.4708672 125.204227,73.1239541" id="Fill-34" fill="#8F2E07"></path>
                    <path d="M141.882362,79.262809 C141.882362,81.0710218 140.409272,84.1281983 138.592487,84.1281983 C136.774902,84.1281983 135.302611,81.0710218 135.302611,79.262809 C135.302611,77.4545961 136.774902,77.5794924 138.592487,77.5794924 C140.409272,77.5794924 141.882362,77.4545961 141.882362,79.262809" id="Fill-36" fill="#8F2E07"></path>
                    <path d="M125.82008,76.9204852 L121.507114,76.9204852 C116.724165,76.9204852 112.810844,73.025628 112.810844,68.2652471 L112.810844,65.9319922 C112.810844,63.9105804 114.472567,62.2559025 116.503561,62.2559025 L130.823632,62.2559025 C132.854627,62.2559025 134.51635,63.9105804 134.51635,65.9319922 L134.51635,68.2652471 C134.51635,73.025628 130.603028,76.9204852 125.82008,76.9204852 Z" id="Stroke-38" stroke="#3A1A3E" stroke-width="2.4"></path>
                    <path d="M156.853455,76.9204852 L152.540488,76.9204852 C147.75754,76.9204852 143.844218,73.025628 143.844218,68.2652471 L143.844218,65.9319922 C143.844218,63.9105804 145.506741,62.2559025 147.537735,62.2559025 L161.857806,62.2559025 C163.888801,62.2559025 165.550524,63.9105804 165.550524,65.9319922 L165.550524,68.2652471 C165.550524,73.025628 161.636403,76.9204852 156.853455,76.9204852 Z" id="Stroke-40" stroke="#3A1A3E" stroke-width="2.4"></path>
                    <path d="M128.321776,50.9425994 C128.321776,55.7363922 124.416448,59.6232941 119.599929,59.6232941 C114.782611,59.6232941 118.870977,55.7363922 118.870977,50.9425994 C118.870977,46.1480112 114.782611,42.2611092 119.599929,42.2611092 C124.416448,42.2611092 128.321776,46.1480112 128.321776,50.9425994" id="Fill-42" fill="#F79500"></path>
                    <path d="M159.900746,50.9425994 C159.900746,55.7363922 163.989112,59.6232941 159.171794,59.6232941 C154.355275,59.6232941 150.449947,55.7363922 150.449947,50.9425994 C150.449947,46.1480112 154.355275,42.2611092 159.171794,42.2611092 C163.989112,42.2611092 159.900746,46.1480112 159.900746,50.9425994" id="Fill-44" fill="#F79500"></path>
                    <path d="M133.600684,67.0037143 L144.760364,67.0037143" id="Stroke-46" stroke="#3A1A3E" stroke-width="2.4"></path>
                    <path d="M163.682504,91.0727541 C163.682504,91.0727541 171.050355,131.175622 137.792718,136.315466" id="Stroke-48" stroke="#F79500" stroke-width="8" stroke-linecap="round" stroke-linejoin="round"></path>
                    <path d="M132.318224,96.76413 C132.318224,96.76413 128.568757,128.19585 96.4365187,126.870517" id="Stroke-50" stroke="#F79500" stroke-width="8" stroke-linecap="round" stroke-linejoin="round"></path>
                    <polygon id="Fill-52" fill="#4C6370" points="127.58571 184.147668 52.8281616 141.189685 29.2491208 87.8899653 104.00667 130.847948"></polygon>
                    <polygon id="Fill-54" fill="#6A8B9B" points="130.700861 182.357752 127.58603 184.147668 104.006989 130.847948 107.121821 129.058032"></polygon>
                    <polygon id="Fill-56" fill="#6A8B9B" points="107.121821 129.058032 104.006989 130.847948 29.2486412 87.8899653 32.3634725 86.1000493"></polygon>
                    <g id="Group-60" transform="translate(33.570160, 219.563025)">
                        <mask id="mask-4" fill="white">
                            <use xlink:href="#path-3"></use>
                        </mask>
                        <g id="Clip-59"></g>
                        <path d="M50.6275577,62.7612157 L1.55277975,34.5608908 C0.630399645,34.0318711 0.130044405,33.3413613 0.0357282416,32.6078936 C0.0285346359,32.5514118 0.0221403197,29.5149188 0.0205417407,29.458437 C-0.0242184725,28.433014 0.712726465,29.7106162 2.18741563,28.8633894 L49.9913233,1.39255462 C52.6121936,-0.112565826 56.5766696,-0.276442577 58.8466519,1.02741176 L107.923028,29.2277367 C108.969298,29.829944 109.472052,28.3836919 109.453668,29.2293277 C109.452869,29.263535 109.452069,32.1608123 109.449671,32.1950196 C109.380933,33.150437 108.649583,34.1424482 107.286794,34.9260336 L59.4828863,62.3952773 C56.862016,63.9019888 52.89754,64.0658655 50.6275577,62.7612157" id="Fill-58" fill="#9DAEB8" mask="url(#mask-4)"></path>
                    </g>
                    <path d="M84.1977176,279.428077 L35.1229396,251.228548 C34.0950533,250.638273 33.5915009,249.848324 33.5907016,249.020985 C33.589103,248.020223 34.3236501,246.963775 35.7575755,246.139618 L83.5614831,218.669579 C86.1823535,217.163663 90.1468295,216.999786 92.4168117,218.304436 L141.493188,246.503965 C142.553046,247.113332 143.055799,247.935103 143.023828,248.791876 C142.98706,249.768772 142.253313,250.790217 140.856954,251.592895 L93.0530462,279.062934 C90.4321758,280.56885 86.4676998,280.732727 84.1977176,279.428077" id="Fill-61" fill="#DEE7EE"></path>
                    <path d="M99.5067496,256.698292 L103.465631,254.423906 L101.098934,253.064365 C102.600799,251.853587 103.55595,250.488477 103.968384,249.082001 L107.317407,249.081206 L107.316607,245.86413 L103.968384,245.86413 C103.55595,244.456858 102.600799,243.092545 101.098934,241.881766 L103.465631,240.522225 L99.5075488,238.247839 L97.1408526,239.608175 C95.0339254,238.745038 92.6600355,238.195334 90.2102131,237.959066 L90.2102131,236.034707 L84.6119893,236.033911 L84.6111901,237.959066 C82.162167,238.195334 79.7874778,238.745038 77.6805506,239.608175 L75.3138544,238.247839 L71.3549734,240.522225 L73.7216696,241.882561 C72.2206039,243.092545 71.2654529,244.456858 70.8530195,245.86413 L67.5047957,245.864925 L67.5047957,249.082001 L70.8530195,249.082001 C71.2646536,250.488477 72.2206039,251.852791 73.7216696,253.064365 L71.3549734,254.423906 L75.3130551,256.698292 L77.6797513,255.338752 C79.7874778,256.201094 82.162167,256.750001 84.6111901,256.98627 L84.6111901,258.910629 L90.2102131,258.911424 L90.2102131,256.987066 C92.6592362,256.750001 95.0331261,256.201094 97.1408526,255.338752 L99.5067496,256.698292 Z" id="Stroke-63" stroke="#00536C" stroke-width="0.8" stroke-linecap="round" stroke-linejoin="round"></path>
                </g>
                <g id="Group-68" transform="translate(146.269982, 241.400000)">
                    <mask id="mask-6" fill="white">
                        <use xlink:href="#path-5"></use>
                    </mask>
                    <g id="Clip-67"></g>
                    <polygon id="Fill-66" fill="#DEE6EC" mask="url(#mask-6)" points="-13.4514032 6.43088964 10.6783481 20.296772 34.8088988 6.43088964 10.6791474 -7.4341972"></polygon>
                </g>
                <g id="Group-75" transform="translate(146.269982, 154.688515)">
                    <path d="M3.64116341,89.0987552 C7.52810835,86.8641445 13.8297069,86.8641445 17.7166519,89.0987552 C21.6035968,91.3317748 21.6043961,94.9521782 17.7166519,97.1867888 C13.8297069,99.4206039 7.52810835,99.4206039 3.64116341,97.1867888 C-0.245781528,94.9529737 -0.245781528,91.3325703 3.64116341,89.0987552 Z" id="Stroke-69" stroke="#00536C" stroke-width="0.8" stroke-linecap="round" stroke-linejoin="round"></path>
                    <path d="M244.836927,65.5835552 L195.762149,37.3840258 C194.839769,36.8550062 194.339414,36.1644964 194.245098,35.4310286 C194.237904,35.3745468 194.23151,32.3380538 194.229911,32.281572 C194.185151,31.2553535 194.922096,32.5337513 196.396785,31.6857289 L244.200693,4.21568964 C246.821563,2.70977367 250.786039,2.54669244 253.056021,3.85054678 L302.132398,32.0508717 C303.178668,32.6522835 303.681421,31.2068269 303.663037,32.0524627 C303.662238,32.08667 303.661439,34.9839473 303.659041,35.0181546 C303.590302,35.973572 302.858952,36.9655832 301.496163,37.7491686 L253.692256,65.2184123 C251.071385,66.7251238 247.106909,66.888205 244.836927,65.5835552" id="Fill-71" fill="#9DAEB8"></path>
                    <path d="M244.836927,62.6881871 L195.762149,34.4878622 C194.734263,33.8983832 194.23071,33.1076381 194.229911,32.2810947 C194.228313,31.2803328 194.96286,30.2238846 196.396785,29.3989322 L244.200693,1.92968852 C246.821563,0.422977031 250.786039,0.259895798 253.056021,1.56454566 L302.132398,29.7640751 C303.192256,30.373442 303.695009,31.1952123 303.663037,32.0519854 C303.62627,33.0288818 302.892522,34.0503272 301.496163,34.853005 L253.692256,62.3222487 C251.071385,63.8289602 247.106909,63.992837 244.836927,62.6881871" id="Fill-73" fill="#DEE7EE"></path>
                </g>
                <g id="Group-78" transform="translate(376.465364, 176.167507)">
                    <mask id="mask-8" fill="white">
                        <use xlink:href="#path-7"></use>
                    </mask>
                    <g id="Clip-77"></g>
                    <polygon id="Fill-76" fill="#00526D" mask="url(#mask-8)" points="-15.9437478 5.49480336 24.864778 28.9442936 50.4364476 14.2502768 9.62712256 -9.20000896"></polygon>
                </g>
                <g id="Group-81" transform="translate(376.465364, 176.167507)">
                    <mask id="mask-10" fill="white">
                        <use xlink:href="#path-9"></use>
                    </mask>
                    <g id="Clip-80"></g>
                    <polygon id="Fill-79" fill="#00526D" mask="url(#mask-10)" points="-15.9437478 14.2501176 9.62792185 28.9441345 50.4364476 5.49464426 24.864778 -9.20016807"></polygon>
                </g>
                <g id="Group-84" transform="translate(382.859680, 172.985434)">
                    <mask id="mask-12" fill="white">
                        <use xlink:href="#path-11"></use>
                    </mask>
                    <g id="Clip-83"></g>
                    <polygon id="Fill-82" fill="#00526D" mask="url(#mask-12)" points="-23.5792007 13.0545333 10.851794 32.8390711 45.2827886 13.0545333 10.851794 -6.7308"></polygon>
                </g>
                <g id="Group-87" transform="translate(371.669627, 179.349580)">
                    <mask id="mask-14" fill="white">
                        <use xlink:href="#path-13"></use>
                    </mask>
                    <g id="Clip-86"></g>
                    <polygon id="Fill-85" fill="#00526D" mask="url(#mask-14)" points="-12.3891474 6.68959216 22.0418472 26.4749255 56.4728419 6.69038768 22.0418472 -13.0949457"></polygon>
                </g>
                <g id="Group-90" transform="translate(388.454707, 182.531653)">
                    <mask id="mask-16" fill="white">
                        <use xlink:href="#path-15"></use>
                    </mask>
                    <g id="Clip-89"></g>
                    <polygon id="Fill-88" fill="#DAE7ED" mask="url(#mask-16)" points="-12.257984 3.50831485 5.25684725 13.5724157 22.7716785 3.50831485 5.25684725 -6.55658151"></polygon>
                </g>
                <g id="Group-93" transform="translate(387.655417, 182.531653)">
                    <mask id="mask-18" fill="white">
                        <use xlink:href="#path-17"></use>
                    </mask>
                    <g id="Clip-92"></g>
                    <polygon id="Fill-91" fill="#00526D" mask="url(#mask-18)" points="-12.4921758 3.50831485 6.05613677 14.1658723 24.6044494 3.50831485 6.05613677 -7.1500381"></polygon>
                </g>
                <g id="Group-98" transform="translate(338.099467, 77.523249)">
                    <path d="M50.8765364,65.6053524 L1.80095915,37.405823 C0.878579041,36.8768034 0.378223801,36.1862936 0.284706927,35.4528258 C0.277513321,35.396344 0.271119005,32.359851 0.268721137,32.3033692 C0.223960924,31.2771507 0.960905861,32.5555485 2.43639432,31.7075261 L50.240302,4.23748683 C52.860373,2.73157087 56.8256483,2.56848964 59.0956306,3.87234398 L108.171208,32.0726689 C109.217478,32.6740807 109.720231,31.2286241 109.701847,32.0742599 C109.701048,32.1084672 109.701048,35.0057445 109.697851,35.0399518 C109.629112,35.9953692 108.898561,36.9873804 107.535773,37.7709658 L59.7310657,65.2402095 C57.1109947,66.746921 53.1457194,66.9100022 50.8765364,65.6053524" id="Fill-94" fill="#9DAEB8"></path>
                    <path d="M50.8765364,62.7099048 L1.80095915,34.5095798 C0.773072824,33.9201008 0.270319716,33.1293557 0.268721137,32.3028123 C0.267122558,31.3020504 1.00166963,30.2456022 2.43639432,29.4206499 L50.240302,1.95140616 C52.860373,0.444694678 56.8256483,0.281613445 59.0956306,1.58626331 L108.171208,29.7857927 C109.231865,30.3951597 109.734618,31.21693 109.701847,32.0737031 C109.66508,33.0505994 108.932131,34.0720448 107.535773,34.8747227 L59.7310657,62.3439664 C57.1109947,63.8506779 53.1457194,64.0137591 50.8765364,62.7099048" id="Fill-96" fill="#DEE7EE"></path>
                </g>
                <g id="Group-101" transform="translate(364.476021, 93.433613)">
                    <mask id="mask-20" fill="white">
                        <use xlink:href="#path-19"></use>
                    </mask>
                    <g id="Clip-100"></g>
                    <polygon id="Fill-99" fill="#DEE6EC" mask="url(#mask-20)" points="-11.39627 19.9119798 6.41110124 30.1447305 52.8170515 3.47975574 35.0104796 -6.75299496"></polygon>
                </g>
                <g id="Group-130" transform="translate(364.476021, 93.433613)" stroke="#00536C" stroke-linecap="round" stroke-linejoin="round" stroke-width="0.8">
                    <path d="M39.8473002,2.22800784 L37.1880639,0.699817367 C35.9907282,0.0124896359 34.0308703,0.0116941176 32.8327353,0.699817367 L1.57412078,18.6610275 C0.37598579,19.3491507 0.37678508,20.4756045 1.57412078,21.1645232 L4.23255773,22.6927137 C5.43069272,23.380837 7.39134991,23.380837 8.5894849,22.6927137 L39.8473002,4.73070812 C41.0454352,4.04258487 41.0454352,2.91613109 39.8473002,2.22800784 Z" id="Stroke-102"></path>
                    <path d="M37.1684014,6.27011541 L33.3909591,4.09914622" id="Stroke-104"></path>
                    <path d="M34.4707993,7.8207395 L32.3127176,6.57973109" id="Stroke-106"></path>
                    <path d="M31.7723979,9.37056807 L29.6143162,8.13035518" id="Stroke-108"></path>
                    <path d="M29.0747957,10.9211922 L26.916714,9.68018375" id="Stroke-110"></path>
                    <path d="M26.3763943,12.4711003 L24.2183126,11.2308874" id="Stroke-112"></path>
                    <path d="M23.6787922,14.0217244 L19.9005506,11.8507552" id="Stroke-114"></path>
                    <path d="M20.9804707,15.5723485 L18.822389,14.3313401" id="Stroke-116"></path>
                    <path d="M18.2828686,17.1222566 L16.1239876,15.8820437" id="Stroke-118"></path>
                    <path d="M15.5844671,18.6728807 L13.4263854,17.4318723" id="Stroke-120"></path>
                    <path d="M12.8860657,20.2227092 L10.727984,18.9824964" id="Stroke-122"></path>
                    <path d="M10.1884636,21.7733333 L6.41102131,19.6023641" id="Stroke-124"></path>
                    <path d="M36.1091829,20.5226196 L45.7837833,14.9635384 C46.981119,14.2746196 51.8376021,9.11807059 50.6394671,8.42994734 L50.1391119,8.14196975 C48.9409769,7.4538465 39.9657549,10.2437289 38.7684192,10.9326476 L29.0946181,16.4917289" id="Stroke-126"></path>
                    <path d="M12.9055684,28.2960258 L15.5648046,29.8242162 C16.7621403,30.5123395 18.7227975,30.5123395 19.9209325,29.8242162 L45.7835435,14.9631406 C46.9808792,14.2750174 41.5848757,15.6289894 40.38754,14.9408661 L38.8065453,14.0331798 C37.6092096,13.3450566 39.9655151,10.2441266 38.7681794,10.9330454 L12.9055684,25.7933255 C11.7082327,26.4814487 11.7082327,27.6079025 12.9055684,28.2960258 Z" id="Stroke-128"></path>
                </g>
                <g id="Group-133" transform="translate(409.236234, 101.388796)">
                    <mask id="mask-22" fill="white">
                        <use xlink:href="#path-21"></use>
                    </mask>
                    <g id="Clip-132"></g>
                    <polygon id="Fill-131" fill="#00536C" mask="url(#mask-22)" points="-11.273659 1.56764818 3.70023091 10.1719731 18.6245648 1.59708235 3.65067496 -7.0080381"></polygon>
                </g>
                <g id="Group-142" transform="translate(0.000000, 79.114286)">
                    <path d="M405.422345,29.5817423 L380.420568,43.9480056" id="Stroke-134" stroke="#00536C" stroke-width="0.5" stroke-linecap="round" stroke-linejoin="round"></path>
                    <path d="M402.723943,28.0311182 L377.722966,42.3973815" id="Stroke-136" stroke="#00536C" stroke-width="0.5" stroke-linecap="round" stroke-linejoin="round"></path>
                    <path d="M50.6095737,65.0910499 L1.53479574,36.8915204 C0.612415631,36.3617053 0.112060391,35.671991 0.0177442274,34.9377277 C0.0105506217,34.8812459 0.00415630551,31.8447529 0.00255772647,31.7882711 C-0.0422024867,30.7628482 0.694742451,32.0404504 2.16943162,31.1932235 L49.9733393,3.72318431 C52.5942096,2.21726835 56.5586856,2.05418711 58.8286679,3.35724594 L107.905044,31.5583664 C108.951314,32.1597782 109.454067,30.7143216 109.435684,31.5591619 C109.434885,31.5933692 109.434085,34.491442 109.431687,34.5256493 C109.362948,35.4802711 108.631599,36.4722824 107.26881,37.2566633 L59.4649023,64.725907 C56.844032,66.231823 52.879556,66.3956997 50.6095737,65.0910499" id="Fill-138" fill="#9DAEB8"></path>
                    <path d="M50.6095737,62.1948863 L1.53479574,33.9953569 C0.506909414,33.4050824 0.00335701599,32.6151328 0.00255772647,31.7877938 C0.000959147425,30.7878275 0.735506217,29.7305838 2.16943162,28.9064269 L49.9733393,1.43718319 C52.5942096,-0.0695282913 56.5586856,-0.233405042 58.8286679,1.07124482 L107.905044,29.2715697 C108.964902,29.8809367 109.467655,30.702707 109.435684,31.5586846 C109.398917,32.5363765 108.665169,33.5578218 107.26881,34.3604997 L59.4649023,61.8297434 C56.844032,63.3364549 52.879556,63.4995361 50.6095737,62.1948863" id="Fill-140" fill="#DEE7EE"></path>
                </g>
                <g id="Group-145" transform="translate(48.756661, 105.366387)">
                    <mask id="mask-24" fill="white">
                        <use xlink:href="#path-23"></use>
                    </mask>
                    <g id="Clip-144"></g>
                    <polygon id="Fill-143" fill="#DEE7EE" mask="url(#mask-24)" points="49.5909591 5.00380952 9.09415631 28.2758992 -20.0895027 11.5071709 20.4080995 -11.7649188"></polygon>
                </g>
                <path d="M57.8508171,126.225351 C45.653659,119.216836 47.7509947,113.323637 55.3698224,108.945105 C62.9886501,104.566573 73.2451332,103.362158 85.4422913,110.369878 L57.8508171,126.225351 Z" id="Stroke-146" stroke="#00536C" stroke-width="0.8" stroke-linecap="round" stroke-linejoin="round"></path>
                <g id="Group-150" transform="translate(32.770870, 95.820168)">
                    <mask id="mask-26" fill="white">
                        <use xlink:href="#path-25"></use>
                    </mask>
                    <g id="Clip-149"></g>
                    <polygon id="Fill-148" fill="#DEE7EE" mask="url(#mask-26)" points="50.6806306 9.16007395 15.700524 29.2620235 -19.2787833 9.1624605 15.700524 -10.9394891"></polygon>
                </g>
                <path d="M37.4345648,111.324182 C43.530746,114.826053 53.4123623,114.826053 59.5085435,111.323386 C65.6031261,107.820719 65.6039254,102.141515 59.5085435,98.6396437 C53.4131616,95.136977 43.530746,95.1361815 37.4353641,98.6396437 C31.3391829,102.143106 31.3391829,107.82231 37.4345648,111.324182 Z" id="Stroke-151" stroke="#00536C" stroke-width="0.8" stroke-linecap="round" stroke-linejoin="round"></path>
                <g id="Group-159" transform="translate(32.770870, 95.820168)">
                    <g id="Group-155">
                        <mask id="mask-28" fill="white">
                            <use xlink:href="#path-27"></use>
                        </mask>
                        <g id="Clip-154"></g>
                        <polygon id="Fill-153" fill="#FFFFFF" mask="url(#mask-28)" points="45.0059947 5.90027899 10.0258881 26.0014331 -19.2792629 9.16269916 15.7008437 -10.9392504"></polygon>
                    </g>
                    <g id="Group-158">
                        <mask id="mask-30" fill="white">
                            <use xlink:href="#path-29"></use>
                        </mask>
                        <g id="Clip-157"></g>
                        <polygon id="Fill-156" fill="#DEE6EC" mask="url(#mask-30)" points="45.0059947 5.90027899 10.0258881 26.0014331 -19.2792629 9.16269916 15.7008437 -10.9392504"></polygon>
                    </g>
                </g>
                <path d="M37.4345648,111.324182 C31.3391829,107.82231 31.3391829,102.143106 37.4353641,98.6396437 C43.5299467,95.136977 53.4131616,95.136977 59.5085435,98.6396437 C61.4564121,99.7581423 62.7736412,101.100182 63.477016,102.522568 C62.0990409,102.888506 59.0905151,103.155005 54.6800355,100.62128 C48.4727531,97.0549714 44.3332327,99.4327754 40.8842984,101.414411 L33.296643,105.774646 C33.296643,105.774646 45.0222202,110.927218 43.1263055,113.400484 C41.0513499,112.966131 39.0994849,112.280394 37.4345648,111.324182 Z" id="Stroke-160" stroke="#00536C" stroke-width="0.8" stroke-linecap="round" stroke-linejoin="round"></path>
            </g>
        </g>
    </g>
</svg>