<svg xmlns="http://www.w3.org/2000/svg" viewBox="0 0 1984.29 1145.63"><defs><style>.cls-1{fill:#a85b07;}.cls-2{fill:#e09410;}.cls-3{fill:#264943;}.cls-13,.cls-4{fill:none;stroke-miterlimit:10;}.cls-4{stroke:#152126;stroke-width:19px;}.cls-5{fill:#404a51;}.cls-6{fill:#152b27;}.cls-7{fill:#36203f;}.cls-8{fill:#55c9b3;}.cls-9{fill:#54636f;}.cls-10{fill:#3b665f;}.cls-11{fill:#e0e6ed;}.cls-12{fill:#7c320d;}.cls-13{stroke:#36203f;stroke-width:10px;}.cls-14{fill:#f3f6f7;}.cls-15{fill:#a1adb6;}.cls-16{fill:#196659;}.cls-17{fill:#248e7e;}.cls-18{fill:#c98200;}.cls-19{fill:#ca4d5d;}.cls-20{fill:#ab3a47;}.cls-21{fill:#70202b;}.cls-22{fill:#7ee0db;}</style></defs><title>kickstarter-card_softwaredeveloper</title><g id="Camada_9" data-name="Camada 9"><path class="cls-1" d="M176.37,516.61s-63,8.14-111-45.83-22.65-153.87,20-192-6.52-73.45-24.52-53.95c-31.5-49.5,40.5-139.49,162-93S224.33,511.41,176.37,516.61Z"/><path class="cls-2" d="M60.91,224.83c9.94-10.77,29.38-4.81,37.62,9.09,4.67-2.63,11.93-6.9,24.44-14.06,10.8-6.19,2.64-40.32-5.45-57.69-10.24-22-29.3-23.36-36.95-16.54C54.41,168.46,45.9,201.24,60.91,224.83Z"/><path class="cls-2" d="M83.18,487.62C69.5,468.41,59.9,438.42,59.9,392.09c0-30.35-1.13-54.44-3-73.53-22.35,46.64-27.2,112.12,8.47,152.22A141,141,0,0,0,83.18,487.62Z"/><path class="cls-3" d="M91.37,431.91l9.53,5.5c3.82,2.21,10.51,1.93,14.93-.62L224.53,374c2.51-1.44,13.75,96.69,13.65,94.94-.07-1.33-10.92-102.6-12.57-103.56l-9.53-5.5c-3.83-2.21-10.51-1.93-14.93.62L92.44,423.29c-2.6,1.51-3.84,3.47-3.63,5.28A4.61,4.61,0,0,0,91.37,431.91Z"/><path class="cls-4" d="M332.17,403.32v80.39c0,52.87-3.05,63.27-37.38,86.41"/><path class="cls-3" d="M366.08,560.75,257.26,497.91c-3.83-2.21-10.51-1.93-14.93.62l-84.8,49L130,545.74l0,20.57a4.48,4.48,0,0,0,2.58,3.6l141.16,81.5c3.83,2.21,10.51,1.94,14.93-.62L397.35,588c2.31-1.33,3.54-3,3.64-4.65V563Z"/><polygon class="cls-5" points="202.68 610.4 230.3 626.35 230.3 608.24 202.68 592.4 202.68 610.4"/><path class="cls-6" d="M273.71,631.41l-141.16-81.5c-1.91-1.1-2.75-2.61-2.56-4.17s1.42-3.17,3.63-4.45l108.71-62.76c4.42-2.55,11.1-2.83,14.93-.62l141.16,81.5A4.55,4.55,0,0,1,401,563c.09,1.75-1.15,3.62-3.65,5.07L288.64,630.79C284.22,633.34,277.54,633.62,273.71,631.41Z"/><path class="cls-7" d="M168.49,497.82s-6.71,61.27,44.62,91.27,77.74,30,77.74,30l85.59-58s7.34-19.71-2.66-32.52-37.26-21.87-70-31.68S168.49,497.82,168.49,497.82Z"/><path class="cls-4" d="M168.49,497.82v80.39c0,52.87,20.44,56.22,56.27,35.46"/><polygon class="cls-8" points="1984.29 441.03 763.87 1145.63 0 704.6 1220.42 0 1984.29 441.03"/><path class="cls-3" d="M285.13,368.57,262.48,374v10.53a4.52,4.52,0,0,0,2.58,3.56l110.85,64c3.83,2.2,10.51,1.93,14.93-.62l7.38-4.27c2.34-1.34,3.57-3.06,3.65-4.7V432.16Z"/><path class="cls-9" d="M375.9,442.07l-110.85-64c-1.87-1.09-2.72-2.56-2.57-4.09s1.39-3.23,3.64-4.53l7.38-4.27c4.42-2.55,11.11-2.82,14.93-.61l110.85,64a4.45,4.45,0,0,1,2.58,3.59c.08,1.74-1.16,3.59-3.65,5l-7.38,4.27C386.41,444,379.73,444.27,375.9,442.07Z"/><path class="cls-10" d="M375.9,442.07l-110.85-64c-1.87-1.09-2.72-2.56-2.57-4.09s1.39-3.23,3.64-4.53l7.38-4.27c4.42-2.55,11.11-2.82,14.93-.61l110.85,64a4.45,4.45,0,0,1,2.58,3.59c.08,1.74-1.16,3.59-3.65,5l-7.38,4.27C386.41,444,379.73,444.27,375.9,442.07Z"/><polygon class="cls-3" points="58.39 270.3 88.81 428.57 228.18 368.97 197.79 211.15 58.39 270.3"/><path class="cls-11" d="M301.88,404.37c.36-29.05,3.37-86.33-17.88-97.21-17.87-9.15-54-12.62-92.39,9.56s-36.27,28.39-34.11,56.87l-.34,111.65c0,32.72-9,34.82,2.87,41.66l25.23,14.56c31.23,16.4,48.12,16.14,58.37,10.22l78.56-46.23C338.78,493.35,301.88,481,301.88,404.37Z"/><path class="cls-10" d="M61,273.9l9.53,5.5c3.83,2.2,10.51,1.93,14.93-.62L194.13,216c2.41-1.39,3.65-3.17,3.66-4.86a4.43,4.43,0,0,0-2.58-3.75l-9.53-5.5c-3.83-2.21-10.51-1.94-14.93.61L62,265.28c-2.48,1.43-3.72,3.28-3.65,5A4.52,4.52,0,0,0,61,273.9Z"/><path class="cls-2" d="M203.12,327.74c9.72,5.61,28.51-4.15,40.65-7.88,1.57-.48,11,27.94,12.17,27.89-.33-7.33,1.75-21.36,3.83-29.78,4.27-3.61,7.5-9.22,6.36-20,4-21.42,5.4-42.3-6.12-48.95-16.35-9.44-30.1-11.83-46.46-2.38-10,5.77-8.25,26.46-9.06,47.55C204,307.65,196.76,324.07,203.12,327.74Z"/><path class="cls-4" d="M168.49,497.82v80.39"/><path class="cls-3" d="M121.46,463.07l-22.65,5.41,0,10.53a4.54,4.54,0,0,0,2.58,3.56l110.85,64c3.83,2.2,10.51,1.93,14.93-.62l7.38-4.27c2.34-1.34,3.57-3.06,3.65-4.7V526.66Z"/><path class="cls-10" d="M212.22,536.57l-110.85-64c-1.87-1.09-2.71-2.56-2.56-4.09s1.38-3.23,3.63-4.53l7.39-4.27c4.41-2.55,11.1-2.82,14.92-.61l110.86,64a4.49,4.49,0,0,1,2.58,3.59c.07,1.74-1.17,3.59-3.66,5L227.15,536C222.73,538.5,216.05,538.77,212.22,536.57Z"/><path class="cls-2" d="M147.8,88.91s-.1-13.21.57,74.81,1,132,89.16,131.31,87.81-44.74,87.14-132.77-.57-74.81-.57-74.81l-43.84,31.16-88.15.73Z"/><path class="cls-12" d="M292,197.64c.05,6.6-2.64,5.62-5.95,5.65s-6,1.05-6-5.55,2.59-12,5.9-12S291.94,191,292,197.64Z"/><path class="cls-12" d="M193,198.46c.05,6.61-2.64,5.62-5.95,5.65s-6,1-6-5.55,2.59-12,5.9-12S193,191.85,193,198.46Z"/><path class="cls-12" d="M250.63,232.09c.06,7.23-5.72,19.5-12.95,19.56s-13.2-12.11-13.26-19.34,4.82-6.78,12.06-6.84S250.58,224.86,250.63,232.09Z"/><path class="cls-2" d="M192.11,119.34a34.75,34.75,0,0,1-34.48,35c-19.19.16-3-15.51-3.17-34.67s-16.55-34.57,2.64-34.73A34.7,34.7,0,0,1,192.11,119.34Z"/><path class="cls-2" d="M317.91,118.3c.14,19.16,16.55,34.56-2.64,34.72a34.7,34.7,0,1,1-.53-69.39C333.93,83.47,317.76,99.14,317.91,118.3Z"/><path class="cls-7" d="M275.24,252.53c-5.22-17.57-30.61-7.84-37.56-.88-7-7-33.65-16.36-39.88.88-3.93,10.86,3.57,13.5,3.57,13.5,6.75-21.44,14.76,1.77,25.88,1.77,9.3,0,10.33-1.23,10.43-10.28.09,9.05,1.13,10.28,10.42,10.28,11.12,0,16.82-23.21,23.57-1.77C271.67,266,278.19,262.46,275.24,252.53Zm49.43-88.81"/><line class="cls-13" x1="227.32" y1="180.48" x2="247.34" y2="180.48"/><path class="cls-13" d="M156.88,220.41h45.81a18.75,18.75,0,0,0,18.19-14.2l6.44-25.73H139.76v22.8A17.12,17.12,0,0,0,156.88,220.41Z"/><path class="cls-13" d="M272,220.41h45.81a17.13,17.13,0,0,0,17.12-17.13v-22.8H247.34l6.44,25.73A18.75,18.75,0,0,0,272,220.41Z"/><path class="cls-7" d="M236.33,277.61c-10.31,0-8.83-1.55-8.81,8.6-29.37-1.29-49.83-8.91-62.64-15.83,12.34,16.73,34.09,25,72.65,24.65s60.17-8.91,72.24-25.84c-12.55,7.22-33.57,15.65-64.63,17C245.16,276.06,246.65,277.61,236.33,277.61Z"/><path class="cls-14" d="M191.61,316.72l12.31-16.64c12.35,16.34,25.35,22.22,39.85,19.78,2.5,3.56-3.49,29.56-3.49,29.56C216.27,349.42,192.44,331.53,191.61,316.72Z"/><path class="cls-14" d="M259.77,318c-.5,1.45,5.71,21.45,5.71,21.45,13.79-14,.65-41.41.65-41.41C265.27,312.87,259.77,318,259.77,318Z"/><ellipse class="cls-15" cx="257.87" cy="356.35" rx="1.96" ry="3.46" transform="translate(-39.78 32.49) rotate(-6.69)"/><ellipse class="cls-15" cx="259.87" cy="376.35" rx="1.95" ry="3.46" transform="translate(-62.85 52.28) rotate(-10.25)"/><ellipse class="cls-14" cx="166.3" cy="353.75" rx="24.21" ry="13.98" transform="translate(-223.21 320.89) rotate(-60)"/><path class="cls-14" d="M166.3,334s-52.59,34.47-52.59,93.63c12.4,12.4,57.52,0,57.52,0s.75-11.24,3.53-29.9c1.52-10.21,8.66-32,8.66-53.84C178,338.46,166.3,334,166.3,334Z"/><path class="cls-14" d="M162.8,439.35c-11.23,6.49-29.43,6.49-40.66,0-5.62-3.24-8.43-7.49-8.43-11.74s2.81-8.5,8.42-11.74c11.24-6.48,29.44-6.48,40.67,0,5.62,3.24,8.43,7.49,8.43,11.74S168.42,436.11,162.8,439.35Z"/><polygon class="cls-16" points="562.52 559.14 410.54 646.88 306.72 586.95 306.72 579.88 562.52 552.07 562.52 559.14"/><polygon class="cls-17" points="562.52 552.07 410.54 639.82 306.72 579.88 458.7 492.13 562.52 552.07"/><polygon class="cls-16" points="410.54 615.98 400.35 621.86 410.54 627.75 420.73 621.86 410.54 615.98"/><polygon class="cls-16" points="425.65 607.26 415.46 613.14 425.65 619.02 435.84 613.14 425.65 607.26"/><polygon class="cls-16" points="440.76 598.53 430.57 604.42 440.76 610.3 450.95 604.42 440.76 598.53"/><polygon class="cls-16" points="455.87 589.81 445.68 595.69 455.87 601.58 466.06 595.69 455.87 589.81"/><polygon class="cls-16" points="470.98 581.08 460.79 586.97 470.98 592.85 481.17 586.97 470.98 581.08"/><polygon class="cls-16" points="486.09 572.36 475.9 578.24 486.09 584.13 496.28 578.24 486.09 572.36"/><polygon class="cls-16" points="501.2 563.64 491.01 569.52 501.2 575.4 511.39 569.52 501.2 563.64"/><polygon class="cls-16" points="516.32 554.91 506.13 560.79 516.32 566.68 526.5 560.79 516.32 554.91"/><polygon class="cls-16" points="531.43 546.19 521.24 552.07 531.43 557.95 541.62 552.07 531.43 546.19"/><polygon class="cls-16" points="396.6 607.93 386.41 613.82 396.6 619.7 406.79 613.82 396.6 607.93"/><polygon class="cls-16" points="411.71 599.21 401.52 605.09 411.71 610.98 421.9 605.1 411.71 599.21"/><polygon class="cls-16" points="426.82 590.49 416.63 596.37 426.82 602.25 437.01 596.37 426.82 590.49"/><polygon class="cls-16" points="441.94 581.76 431.75 587.65 441.94 593.53 452.13 587.65 441.94 581.76"/><polygon class="cls-16" points="457.05 573.04 446.86 578.92 457.05 584.8 467.24 578.92 457.05 573.04"/><polygon class="cls-16" points="472.16 564.31 461.97 570.2 472.16 576.08 482.35 570.2 472.16 564.31"/><polygon class="cls-16" points="487.27 555.59 477.08 561.47 487.27 567.36 497.46 561.47 487.27 555.59"/><polygon class="cls-16" points="502.38 546.87 492.19 552.75 502.38 558.63 512.57 552.75 502.38 546.87"/><polygon class="cls-16" points="517.49 538.14 507.3 544.02 517.49 549.91 527.68 544.02 517.49 538.14"/><polygon class="cls-16" points="397.78 591.17 387.59 597.05 397.78 602.93 407.97 597.05 397.78 591.17"/><polygon class="cls-16" points="428 573.72 417.81 579.6 428 585.48 438.19 579.6 428 573.72"/><polygon class="cls-16" points="443.11 564.99 432.92 570.88 443.11 576.76 453.3 570.88 443.11 564.99"/><polygon class="cls-16" points="458.22 556.27 448.03 562.15 458.22 568.03 468.41 562.15 458.22 556.27"/><polygon class="cls-16" points="473.33 547.54 463.14 553.43 473.33 559.31 483.52 553.43 473.33 547.54"/><polygon class="cls-16" points="488.44 538.82 478.25 544.7 488.44 550.59 498.63 544.7 488.44 538.82"/><polygon class="cls-16" points="503.56 530.1 493.37 535.98 503.56 541.86 513.75 535.98 503.56 530.1"/><polygon class="cls-16" points="368.73 591.84 358.54 597.73 368.73 603.61 378.92 597.73 368.73 591.84"/><polygon class="cls-16" points="383.84 583.12 373.65 589 383.84 594.89 394.03 589 383.84 583.12"/><polygon class="cls-16" points="398.95 574.4 388.76 580.28 398.95 586.16 409.14 580.28 398.95 574.4"/><polygon class="cls-16" points="414.06 565.67 403.88 571.55 414.06 577.44 424.25 571.55 414.06 565.67"/><polygon class="cls-16" points="429.18 556.95 418.99 562.83 429.18 568.71 439.37 562.83 429.18 556.95"/><polygon class="cls-16" points="444.29 548.22 434.1 554.11 444.29 559.99 454.48 554.11 444.29 548.22"/><polygon class="cls-16" points="459.4 539.5 449.21 545.38 459.4 551.26 469.59 545.38 459.4 539.5"/><polygon class="cls-16" points="474.51 530.77 464.32 536.66 474.51 542.54 484.7 536.66 474.51 530.77"/><polygon class="cls-16" points="489.62 522.05 479.43 527.93 489.62 533.82 499.81 527.93 489.62 522.05"/><polygon class="cls-16" points="413.37 530.37 372.96 553.7 397.57 567.91 437.98 544.58 413.37 530.37"/><polygon class="cls-16" points="562.52 552.07 410.54 639.82 491.32 558.53 643.3 470.78 562.52 552.07"/><polygon class="cls-16" points="648.26 474.69 496.28 562.44 491.32 558.53 643.3 470.78 648.26 474.69"/><polygon class="cls-17" points="567.48 555.98 415.5 643.73 496.28 562.44 648.26 474.69 567.48 555.98"/><path class="cls-7" d="M265.5,318.07s15,61.05,70.82,80.72c15.81-7.57,19.12-54.24,19.12-54.24s-10.35-4.45-27-13.28c-9.12-4.83-27.26-18.79-47.9-26.06C273.62,308.51,265.5,318.07,265.5,318.07Z"/><path class="cls-9" d="M363.72,356.39c2.38,12.75-3.67,29.92-13.52,38.36-4.93,4.22-9.87,5.45-13.88,4s-7.08-5.47-8.27-11.85c-2.38-12.74,3.67-29.92,13.52-38.35,4.92-4.22,9.86-5.46,13.87-4S362.52,350,363.72,356.39Z"/><path class="cls-2" d="M343.47,344.09c45.35,20.24,46.27,57.15,37.6,76.11s-37.53,26-37.6,37,7.94,24.35-6.06,26.17-27.34-4.51-27.34-23.84,29.33-28,39.5-41-13.39-27-24.8-33.19C300.07,371.82,295.54,322.68,343.47,344.09Z"/><ellipse class="cls-14" cx="284.14" cy="324.64" rx="13.98" ry="24.21" transform="matrix(0.76, -0.65, 0.65, 0.76, -142.85, 262.95)"/><path class="cls-14" d="M328.05,386.94c-2.38-12.74,3.67-29.92,13.52-38.35,4.92-4.22,9.86-5.46,13.87-4,0,0-10.35-4.45-27-13.28-9.12-4.83-27.26-18.79-47.9-26.06-6.89,3.3-15,12.86-15,12.86s15,61.05,70.82,80.72C332.32,397.38,329.24,393.32,328.05,386.94Z"/><path class="cls-2" d="M232.31,449.61s7-14.41,18.07-14.41S248.8,448,248.8,448Z"/><path class="cls-18" d="M253.76,435.2c6.37,0,7.15,5.22,6,6.71s-4.77,2.2-4.77,2.2Z"/><path class="cls-19" d="M265.78,414.44v13.42h-3.87a13.7,13.7,0,0,0-13.69,13.69v14.88a13.7,13.7,0,0,0,13.69,13.69h3.87v3.27h0v0c0,5,3.31,10,9.91,13.8,13.22,7.63,34.65,7.63,47.87,0,6.61-3.82,9.91-8.82,9.91-13.82V414.44Zm-3.87,47.34a5.36,5.36,0,0,1-5.35-5.35V441.55a5.36,5.36,0,0,1,5.35-5.35h3.87v25.58Z"/><path class="cls-20" d="M323.56,428.24c-13.22,7.63-34.65,7.63-47.87,0-6.6-3.81-9.9-8.81-9.91-13.8s3.29-10,9.91-13.84c13.22-7.63,34.65-7.63,47.87,0,6.61,3.82,9.91,8.82,9.91,13.82S330.17,424.42,323.56,428.24Z"/><ellipse class="cls-21" cx="299.62" cy="414.42" rx="26.63" ry="15.37"/><path d="M318.45,411.89c-10.4-6-27.25-6-37.65,0a16.24,16.24,0,0,0-6.79,6.7,16.29,16.29,0,0,0,6.79,6.7c10.4,6,27.25,6,37.65,0a16.29,16.29,0,0,0,6.79-6.7A16.24,16.24,0,0,0,318.45,411.89Z"/><path class="cls-2" d="M129.27,431.39c-1.91,26.35,11.91,60.54,45,60.54s60.53-26.09,60.53-26.09,20.09,7.76,31-5.06c0-16.33-.88-19.23-9.22-19.23,0,4.49-2,2.9-8.46,2.9s-15.79,5.16-15.79,5.16c-14.27.44-38.41,4.79-46.15.83-11.92-6.08-8.58-16.75-5.49-40C184.94,378.39,131,407.72,129.27,431.39Z"/><polygon class="cls-17" points="362.54 665.36 355.69 648.94 263.93 608.43 193.75 648.94 292.36 705.88 362.54 665.36"/><polygon class="cls-22" points="202.41 634.37 292.36 686.3 292.36 701.88 202.41 649.95 202.41 634.37"/><polygon class="cls-16" points="193.75 629.37 292.36 686.3 292.36 680.29 193.75 623.36 193.75 629.37"/><polygon class="cls-16" points="193.75 654.95 292.36 711.89 292.36 705.88 193.75 648.94 193.75 654.95"/><polygon class="cls-17" points="362.54 639.77 263.93 582.84 263.93 582.84 193.75 623.36 292.36 680.29 362.54 639.77"/><polygon class="cls-22" points="350.95 652.55 292.36 686.3 292.36 701.88 350.95 668.12 350.95 652.55"/><polygon class="cls-16" points="362.54 645.78 292.36 686.3 292.36 680.29 362.54 639.77 362.54 645.78"/><polygon class="cls-16" points="362.54 671.37 292.36 711.89 292.36 705.88 362.54 665.36 362.54 671.37"/><polygon class="cls-16" points="354.71 644.29 354.71 675.89 362.54 671.37 362.54 639.77 354.71 644.29"/><polygon class="cls-17" points="346.49 639.02 341.28 626.53 271.47 595.71 218.08 626.53 293.1 669.85 346.49 639.02"/><polygon class="cls-14" points="224.67 615.45 293.1 654.96 293.1 666.8 224.67 627.29 224.67 615.45"/><polygon class="cls-16" points="218.08 631.11 293.1 674.42 293.1 650.38 218.08 607.07 218.08 631.11"/><polygon class="cls-16" points="218.08 631.11 293.1 674.42 293.1 669.85 218.08 626.53 218.08 631.11"/><polygon class="cls-17" points="346.49 619.56 271.47 576.24 271.47 576.24 218.08 607.07 293.1 650.38 346.49 619.56"/><polygon class="cls-22" points="337.67 629.27 293.1 654.96 293.1 666.8 337.67 641.13 337.67 629.27"/><polygon class="cls-16" points="346.49 624.13 293.1 654.96 293.1 650.38 346.49 619.56 346.49 624.13"/><polygon class="cls-16" points="346.49 643.6 293.1 674.42 293.1 669.85 346.49 639.02 346.49 643.6"/></g></svg>