<?xml version="1.0" encoding="UTF-8"?>
<svg width="240px" height="210px" viewBox="0 0 240 210" version="1.1" xmlns="http://www.w3.org/2000/svg" xmlns:xlink="http://www.w3.org/1999/xlink">
    <!-- Generator: Sketch 53.2 (72643) - https://sketchapp.com -->
    <title>squerol-data-scientist_character</title>
    <desc>Created with Sketch.</desc>
    <defs>
        <rect id="path-1" x="0" y="0" width="240" height="210"></rect>
        <polygon id="path-3" points="0.000211508097 0.0903858984 238.48958 0.0903858984 238.48958 137.746825 0.000211508097 137.746825"></polygon>
        <polygon id="path-5" points="0.000257085573 0.0903858984 238.48958 0.0903858984 238.48958 137.746825 0.000257085573 137.746825"></polygon>
    </defs>
    <g id="Page-1" stroke="none" stroke-width="1" fill="none" fill-rule="evenodd">
        <g id="squerol-data-scientist-hero">
            <mask id="mask-2" fill="white">
                <use xlink:href="#path-1"></use>
            </mask>
            <g id="Rectangle"></g>
            <g id="Group-190" mask="url(#mask-2)">
                <g transform="translate(120.000000, 138.990000) scale(-1, 1) translate(-120.000000, -138.990000) translate(0.000000, 16.000000)">
                    <path d="M43.6932822,129.294347 C43.6932822,129.294347 24.6687332,131.751135 10.1662273,115.450478 C-4.33658072,99.1501219 3.32394039,68.9681376 16.2144524,57.4493523 C29.1049644,45.9308691 14.2450099,35.264242 8.80653241,41.1544338 C-0.710727636,26.2022459 21.0431823,-0.983138531 57.7531319,13.0628196 C74.1652537,19.3420861 69.9459694,42.9243007 65.6499377,67.2233431 C60.3371565,97.2757366 51.7067196,128.424668 43.6932822,129.294347" id="Fill-1" stroke="none" fill="#DF8300" fill-rule="nonzero"></path>
                    <path d="M8.80653241,41.1543734 C11.8096452,37.9016125 17.6838294,39.6992704 20.1735818,43.8996457 C22.3128352,42.7233594 25.8114813,40.7266329 31.223067,37.4560495 C41.9214487,30.9900997 32.5758123,7.48340424 14.7468884,17.2293018 C6.8422265,24.1251066 4.27028804,34.027782 8.80653241,41.1543734" id="Fill-3" stroke="none" fill="#FFB000" fill-rule="nonzero"></path>
                    <path d="M15.5362669,120.537659 C11.4006792,114.732955 8.49999675,105.674583 8.49999675,91.6793747 C8.49999675,82.5092351 8.15946871,75.2346262 7.60682827,69.4664734 C0.852770431,83.5559305 -0.612074217,103.336209 10.1663784,115.450387 C11.9043707,117.404521 13.7082326,119.086181 15.5362669,120.537659" id="Fill-5" stroke="none" fill="#FFB000" fill-rule="nonzero"></path>
                    <path d="M18.0107303,103.708398 L20.8887511,105.369819 C22.0453983,106.037106 24.0646963,105.953733 25.3996146,105.183135 L58.2459155,86.2239013 C59.0025102,85.7874006 62.3981216,115.431689 62.3706256,114.903961 C62.3488704,114.500084 59.0707971,83.9096925 58.5695229,83.6206051 L55.6911998,81.9591838 C54.5351571,81.2918965 52.5155569,81.3752697 51.1806386,82.1458671 L18.3343376,101.105102 C17.5466211,101.559726 17.1734603,102.151796 17.2369127,102.697952 C17.2813295,103.077661 17.5366499,103.435018 18.0107303,103.708398" id="Fill-7" stroke="none" fill="#283C46" fill-rule="nonzero"></path>
                    <path d="M90.7677026,95.0700034 L90.7677026,119.356359 C90.7677026,135.325336 89.8470381,138.466933 79.4737746,145.456684" id="Stroke-9" stroke="#091B21" stroke-width="5.76485461" fill="none"></path>
                    <path d="M101.016448,142.625834 L68.1332845,123.645756 C66.9769395,122.978469 64.9573393,123.061842 63.6224211,123.832439 L38.0000281,138.621808 L29.6796018,138.093174 L29.6729544,144.307796 C29.6895728,144.715902 29.9464041,145.103164 30.4525127,145.39497 L73.1052356,170.014213 C74.2612784,170.681501 76.2808785,170.598127 77.6157968,169.82753 L110.462098,150.868296 C111.160377,150.465326 111.533235,149.954212 111.564055,149.462733 L111.564659,143.296141 L101.016448,142.625834 Z" id="Fill-11" stroke="none" fill="#283C46" fill-rule="nonzero"></path>
                    <polygon id="Fill-13" stroke="none" fill="#394850" fill-rule="nonzero" points="51.6434183 157.626414 59.9871106 162.442421 59.9871106 156.972116 51.6434183 152.189035"></polygon>
                    <path d="M73.1052356,163.972681 L30.4525127,139.353437 C29.8753978,139.020247 29.6224945,138.563507 29.6796018,138.093174 C29.7373132,137.62133 30.1074524,137.135893 30.7761202,136.750141 L63.6224211,117.790907 C64.9573393,117.020309 66.9769395,116.936936 68.1332845,117.604224 L110.786008,142.223467 C111.28577,142.511951 111.542299,142.893775 111.564659,143.296141 C111.594271,143.824775 111.219901,144.389658 110.462098,144.826763 L77.6157968,163.785997 C76.2808785,164.556595 74.2612784,164.639968 73.1052356,163.972681" id="Fill-15" stroke="none" fill="#142329" fill-rule="nonzero"></path>
                    <path d="M41.3117313,123.616243 C41.3117313,123.616243 39.2836707,142.124779 54.7941638,151.187077 C70.304959,160.249375 78.2827423,160.249375 78.2827423,160.249375 L104.146254,142.728932 C104.146254,142.728932 106.361953,136.776513 103.340409,132.905703 C100.318865,129.034591 92.0827391,126.298683 82.2010808,123.336822 C72.3191204,120.375262 41.3117313,123.616243 41.3117313,123.616243" id="Fill-17" stroke="none" fill="#3A1A3E" fill-rule="nonzero"></path>
                    <path d="M41.3117313,123.616243 L41.3117313,147.902598 C41.3117313,163.871576 47.4892784,164.882928 58.3136585,158.614235" id="Stroke-19" stroke="#091B21" stroke-width="5.76485461" fill="none"></path>
                    <g id="Group-23" stroke="none" stroke-width="1" fill="none" fill-rule="evenodd" transform="translate(0.302154, 106.645730)">
                        <g id="Fill-21-Clipped">
                            <mask id="mask-4" fill="white">
                                <use xlink:href="#path-3"></use>
                            </mask>
                            <g id="path-1"></g>
                            <path d="M133.119782,1.74986937 L2.87490869,76.9273729 C0.967407819,78.0284421 0.000211508097,76.3788018 0.000211508097,77.7148866 C0.000211508097,78.2051569 0.000815816945,80.8250673 0.00172228021,80.8501398 C0.0367721934,81.9210013 0.705137779,82.9389994 2.03189786,83.7047636 L93.6278964,136.574212 C96.6376566,138.311152 101.894539,138.093355 105.369617,136.087567 L235.614793,60.9100627 C239.08987,58.9039721 239.467563,55.8696125 236.457803,54.13237 L144.861502,1.26322397 C141.852045,-0.474018614 136.595161,-0.256221379 133.119782,1.74986937" id="Fill-21" fill="#4C6370" fill-rule="nonzero" mask="url(#mask-4)"></path>
                        </g>
                    </g>
                    <g id="Group-26" stroke="none" stroke-width="1" fill="none" fill-rule="evenodd" transform="translate(0.302154, 103.624964)">
                        <g id="Fill-24-Clipped">
                            <mask id="mask-6" fill="white">
                                <use xlink:href="#path-5"></use>
                            </mask>
                            <g id="path-3"></g>
                            <path d="M133.119782,1.74986937 L2.87490869,76.9273729 C0.956832414,78.0344837 -0.0179177574,79.4548479 0.00051366252,80.7978805 C0.0147149204,81.8877728 0.68338266,82.9266143 2.03189786,83.7047636 L93.6278964,136.574212 C96.6376566,138.311152 101.894539,138.093355 105.369617,136.087567 L235.614793,60.9100627 C239.08987,58.9039721 239.467563,55.8696125 236.457803,54.13237 L144.861502,1.26322397 C141.852045,-0.474018614 136.595161,-0.256221379 133.119782,1.74986937" id="Fill-24" fill="#6F8790" fill-rule="nonzero" mask="url(#mask-6)"></path>
                        </g>
                    </g>
                    <path d="M76.5564131,84.5743214 L69.7129176,86.2082538 L69.7092918,89.3885164 C69.7307447,89.7917886 69.987576,90.1742176 70.4882459,90.4633049 L103.982366,109.796207 C105.138711,110.463495 107.158009,110.379819 108.492927,109.609223 L110.723733,108.32147 C111.428962,107.914875 111.80182,107.397417 111.826597,106.901407 L111.8269,103.784582 L76.5564131,84.5743214 Z" id="Fill-27" stroke="none" fill="#283C46" fill-rule="nonzero"></path>
                    <path d="M103.982215,106.775472 L70.4880948,87.442569 C69.9218574,87.1157221 69.6677455,86.6692529 69.7127665,86.208284 C69.7596005,85.7279822 70.1309483,85.2322745 70.8120044,84.8389708 L73.0428105,83.5515202 C74.3774266,82.7806207 76.3970268,82.6972476 77.5533717,83.3645348 L111.047492,102.697438 C111.553299,102.989545 111.810129,103.376808 111.82705,103.784612 C111.848805,104.309016 111.474738,104.867556 110.723884,105.301036 L108.493079,106.588487 C107.15816,107.359084 105.13856,107.442759 103.982215,106.775472" id="Fill-29" stroke="none" fill="#4C6370" fill-rule="nonzero"></path>
                    <path d="M103.982215,106.775472 L70.4880948,87.442569 C69.9218574,87.1157221 69.6677455,86.6692529 69.7127665,86.208284 C69.7596005,85.7279822 70.1309483,85.2322745 70.8120044,84.8389708 L73.0428105,83.5515202 C74.3774266,82.7806207 76.3970268,82.6972476 77.5533717,83.3645348 L111.047492,102.697438 C111.553299,102.989545 111.810129,103.376808 111.82705,103.784612 C111.848805,104.309016 111.474738,104.867556 110.723884,105.301036 L108.493079,106.588487 C107.15816,107.359084 105.13856,107.442759 103.982215,106.775472" id="Fill-31" stroke="none" fill="#445C67" fill-rule="nonzero"></path>
                    <polygon id="Fill-33" stroke="none" fill="#283C46" fill-rule="nonzero" points="8.0455565 54.8879239 17.2370941 102.697891 59.3489605 84.6962395 50.1646746 37.0222071"></polygon>
                    <path d="M85.1208897,93.1882171 C75.6571109,88.3549913 72.6174374,75.8052187 72.2406509,71.0067318 C72.162695,70.4533274 72.1300624,69.907777 72.1602778,69.3842783 C72.3515415,66.0916433 74.7412809,64.8908887 77.4981379,66.7027443 C77.4990443,66.7033484 77.4999508,66.7042546 77.5005551,66.7048588 C83.0245423,70.3361217 89.3395698,74.465811 91.7259854,76.4734121 C101.355042,84.5742006 108.392823,92.671062 101.235087,99.7097487 C95.7881495,105.066473 76.2997934,101.445179 85.1208897,93.1882171" id="Fill-35" stroke="none" fill="#00CAB3" fill-rule="nonzero"></path>
                    <path d="M81.6163214,95.3886035 C81.7260034,86.612674 82.6357904,69.3100279 76.2134982,66.022226 C70.8158115,63.2594334 59.9059217,62.2109255 48.2965444,68.912193 C36.686865,75.6131583 37.340425,77.4863355 37.9921721,86.0915917 L37.888231,119.816028 C37.888231,129.70209 35.1794166,130.336149 38.7557163,132.400842 L46.3781659,136.800588 C55.815053,141.754644 60.918139,141.6755 64.015524,139.888113 L87.7539842,125.923716 C92.7661218,122.267078 81.6163214,118.543078 81.6163214,95.3886035" id="Fill-37" stroke="none" fill="#00AC96" fill-rule="nonzero"></path>
                    <path d="M8.82511491,55.975007 L11.703438,57.6364284 C12.8600851,58.3037156 14.8793831,58.2203425 16.2143013,57.4494429 L49.0606023,38.4905108 C49.7884923,38.0706244 50.1628617,37.532626 50.1646746,37.0224185 C50.1667897,36.5970946 49.9102606,36.1904995 49.3842097,35.8872147 L46.5058867,34.2257932 C45.3498438,33.558204 43.3302436,33.6418792 41.9953254,34.4124766 L9.14902445,53.3714087 C8.3981707,53.8048886 8.02380137,54.3634283 8.0455565,54.8878333 C8.0627793,55.2956368 8.3193084,55.6828989 8.82511491,55.975007" id="Fill-39" stroke="none" fill="#445C67" fill-rule="nonzero"></path>
                    <path d="M27.1004418,113.120561 L20.2569463,114.754493 L20.2533204,117.934755 C20.2747734,118.338028 20.5316046,118.720457 21.0322745,119.009545 L54.5263946,138.342447 C55.6827395,139.009734 57.7020375,138.926059 59.0369558,138.155462 L61.2677619,136.86771 C61.9726882,136.461115 62.3458489,135.943657 62.3706256,135.447647 L62.3709277,132.330821 L27.1004418,113.120561 Z" id="Fill-41" stroke="none" fill="#283C46" fill-rule="nonzero"></path>
                    <path d="M54.5262737,135.321711 L21.0321536,115.988809 C20.4659162,115.661962 20.2118043,115.215191 20.2568254,114.754524 C20.3033572,114.274222 20.6750071,113.778514 21.3560632,113.38521 L23.5868693,112.097458 C24.9214854,111.32686 26.9410856,111.243487 28.0971283,111.910774 L61.5915505,131.243678 C62.0973571,131.535785 62.3541884,131.923048 62.371109,132.33085 C62.3928641,132.855256 62.0187969,133.413796 61.2679432,133.846974 L59.0371371,135.134726 C57.7022189,135.905323 55.6826187,135.988998 54.5262737,135.321711" id="Fill-43" stroke="none" fill="#445C67" fill-rule="nonzero"></path>
                    <path d="M51.7753087,72.2405334 C56.7179508,75.0933449 65.7269872,75.5827091 69.6749369,72.2402314 C70.9642297,71.1488286 70.3064396,65.9799958 70.815872,63.2594938 C72.0275112,56.7887108 72.4462972,50.4816533 68.9666868,48.4728438 C64.0237426,45.6200323 59.8712344,44.9001838 54.9282901,47.7532973 C51.9079546,49.4965815 52.4361205,55.7468485 52.1907711,62.1164359 C52.0345572,66.1712103 49.8527001,71.130704 51.7753087,72.2405334" id="Fill-45" stroke="none" fill="#F79500" fill-rule="nonzero"></path>
                    <path d="M35.6339475,1.59765298 C35.6339475,1.59765298 35.6031277,-2.39579979 35.8064776,24.195702 C36.0098276,50.7865996 36.1113514,64.0825016 62.7462639,63.8613815 C89.3811764,63.6405634 89.2796525,50.3449636 89.0763026,23.7537639 C88.8729526,-2.83773787 88.9037724,1.15571489 88.9037724,1.15571489 L75.6573225,10.5684221 L49.02241,10.7895421 L35.6339475,1.59765298 Z" id="Fill-47" stroke="none" fill="#FFB000" fill-rule="nonzero"></path>
                    <path d="M79.2026212,34.4405396 C79.2177289,36.4360576 78.4052356,36.1397205 77.406011,36.1478766 C76.4064841,36.1563347 75.5985233,36.4659632 75.5831134,34.4707472 C75.5680056,32.474927 76.3656933,30.8503591 77.3652201,30.842203 C78.364747,30.8340469 79.1872113,32.4450214 79.2026212,34.4405396" id="Fill-49" stroke="none" fill="#8F2E07" fill-rule="nonzero"></path>
                    <path d="M49.3008453,34.6886351 C49.3162552,36.6838511 48.5034598,36.3875139 47.5042351,36.39567 C46.5047083,36.4041281 45.6967473,36.7140587 45.6813375,34.7185407 C45.6665319,32.7230225 46.4642196,31.0984546 47.4637464,31.0902985 C48.4632732,31.0821424 49.2854354,32.693117 49.3008453,34.6886351" id="Fill-51" stroke="none" fill="#8F2E07" fill-rule="nonzero"></path>
                    <path d="M66.7065718,44.8474412 C66.7231902,47.031153 64.9782485,50.7370288 62.7912548,50.7551534 C60.604261,50.773278 58.8028164,47.0967036 58.7861978,44.9132939 C58.7692772,42.7295821 60.5438301,42.8655166 62.7308239,42.8476941 C64.9178176,42.8295694 66.6896512,42.6637294 66.7065718,44.8474412" id="Fill-53" stroke="none" fill="#8F2E07" fill-rule="nonzero"></path>
                    <path d="M49.0222892,10.7894817 C49.0664037,16.5778737 44.402348,21.3096016 38.6043067,21.3576319 C32.8062655,21.405964 37.6905918,16.6724236 37.6464772,10.8837296 C37.6023627,5.09503554 32.6461237,0.443659915 38.4438627,0.395629735 C44.2422062,0.347599553 48.9781746,5.00108971 49.0222892,10.7894817" id="Fill-55" stroke="none" fill="#FFB000" fill-rule="nonzero"></path>
                    <path d="M87.0332552,10.4741137 C87.0773698,16.2628078 92.033911,20.9147875 86.2355675,20.9628177 C80.4378285,21.0108479 75.7015578,16.3573577 75.6574434,10.5683616 C75.6130266,4.77996963 80.2776866,0.048543711 86.0754257,0.000513530234 C91.8737691,-0.0478187271 86.9891406,4.68572173 87.0332552,10.4741137" id="Fill-57" stroke="none" fill="#FFB000" fill-rule="nonzero"></path>
                    <path d="M56.7753299,34.3290128 C56.7753299,34.3290128 57.0330676,29.6283988 59.1898459,29.6283988 L66.2010371,29.6283988 C67.447122,29.6283988 68.5451512,33.5279057 68.5451512,33.5279057" id="Stroke-62" stroke="#3A1A3E" stroke-width="3.03413401" fill="none"></path>
                    <path d="M56.8063008,33.527815 C56.8063008,39.3705809 52.0685194,44.10684 46.2245507,44.10684 C40.3799777,44.10684 35.6421962,39.3705809 35.6421962,33.527815 C35.6421962,27.6847473 40.3799777,22.9484881 46.2245507,22.9484881 C52.0685194,22.9484881 56.8063008,27.6847473 56.8063008,33.527815 Z" id="Stroke-64" stroke="#3A1A3E" stroke-width="3.03413401" fill="none"></path>
                    <path d="M89.7095579,33.527815 C89.7095579,39.3705809 84.9717764,44.10684 79.1275056,44.10684 C73.2832347,44.10684 68.5451512,39.3705809 68.5451512,33.527815 C68.5451512,27.6847473 73.2832347,22.9484881 79.1275056,22.9484881 C84.9717764,22.9484881 89.7095579,27.6847473 89.7095579,33.527815 Z" id="Stroke-66" stroke="#3A1A3E" stroke-width="3.03413401" fill="none"></path>
                    <path d="M74.171327,50.7299603 C72.5928723,45.4206618 64.9226822,48.3616797 62.8215003,50.4623204 C60.7200163,48.3616797 52.6555148,45.5209512 50.7718841,50.7299603 C49.5853237,54.0102101 51.851784,54.8082965 51.851784,54.8082965 C53.8913264,48.3308678 56.3115833,55.3417638 59.6712383,55.3417638 C62.4800659,55.3417638 62.7940043,54.9699076 62.8215003,52.2379267 C62.8486942,54.9699076 63.1626328,55.3417638 65.9714602,55.3417638 C69.3308131,55.3417638 71.0518848,48.3308678 73.0917292,54.8082965 C73.0917292,54.8082965 75.063589,53.7304872 74.171327,50.7299603" id="Fill-68" stroke="none" fill="#3A1A3E" fill-rule="nonzero"></path>
                    <path d="M50.7717633,50.7299603 C48.5119503,56.3419395 51.2712245,65.8585609 61.9306283,65.8585609 C72.5897299,65.8585609 76.5772619,58.086734 74.1712061,50.7299603 C71.985421,50.9985064 73.0916084,51.6706268 73.0916084,54.8082965 C73.0916084,57.9462683 69.1983486,61.1180727 62.6603312,61.1180727 C56.1223138,61.1180727 51.5087178,58.4673505 51.8516632,54.2041433 C52.1943063,49.9412382 50.7717633,50.7299603 50.7717633,50.7299603" id="Fill-70" stroke="none" fill="#3A1A3E" fill-rule="nonzero"></path>
                    <path d="M101.235117,99.7097188 C92.4179492,107.04293 80.8505714,100.743123 79.4736537,99.3306127 C77.9075874,97.0828607 77.2289485,94.3955871 79.4736537,91.3757272 C81.7189632,88.3558674 109.13283,93.1413651 101.235117,99.7097188" id="Fill-72" stroke="none" fill="#00CAB3" fill-rule="nonzero"></path>
                    <path d="M48.2963933,68.9120722 L51.9847924,64.1135852 C55.3668069,69.8781131 62.3704442,69.8602906 62.3704442,69.8602906 L59.9870502,77.2789901 C59.9870502,77.2789901 50.7441464,78.3679762 48.2963933,68.9120722" id="Fill-74" stroke="none" fill="#00CAB3" fill-rule="nonzero"></path>
                    <path d="M63.4244797,74.4760212 C63.4244797,74.4760212 67.5661104,73.8473998 69.6751483,72.2403522 C70.2229543,74.4092623 70.6628911,79.8387872 70.7955369,82.6369228 C70.9278806,85.4350585 72.3881929,106.127306 75.7623513,115.340642 C79.1365098,124.55398 81.1422109,129.005078 81.1210601,129.825217 C79.4752249,130.793975 69.396562,136.722532 69.396562,136.722532 C69.396562,136.722532 70.6559415,129.991359 69.7092918,119.217192 C68.7623399,108.443026 66.608583,87.5610737 65.7912554,82.9142291 C64.9739276,78.2670827 63.4244797,74.4760212 63.4244797,74.4760212" id="Fill-76" stroke="none" fill="#F2F2F2" fill-rule="nonzero"></path>
                    <path d="M68.893354,69.2893659 C68.893354,69.2893659 70.7038633,65.8535465 70.8156604,63.2593126 C73.4960723,68.5187684 72.6974781,74.1253103 72.6974781,74.1253103 L68.893354,69.2893659 Z" id="Fill-78" stroke="none" fill="#00CAB3" fill-rule="nonzero"></path>
                    <path d="M62.3705047,69.8602 C62.3705047,69.8602 64.5481317,74.1499899 65.7911949,82.9141385 C67.0345603,91.6779852 59.9871106,77.2792015 59.9871106,77.2792015 L62.3705047,69.8602 Z" id="Fill-80" stroke="none" fill="#00AC96" fill-rule="nonzero"></path>
                    <polygon id="Fill-82" stroke="none" fill="#00AC96" fill-rule="nonzero" points="68.893354 69.2893659 72.6974781 74.1253103 70.7954161 82.6369228"></polygon>
                    <path d="M45.8231083,77.1112167 C45.8231083,80.4098933 43.5067925,84.4205644 40.6493181,86.0699027 C37.7921458,87.719241 35.47583,86.3822499 35.47583,83.0835733 C35.47583,79.7855009 37.7921458,75.7742256 40.6493181,74.1251895 C43.5067925,72.4758511 45.8231083,73.8128422 45.8231083,77.1112167" id="Fill-84" stroke="none" fill="#00CAB3" fill-rule="nonzero"></path>
                    <path d="M45.8231083,77.1112167 C44.1896615,75.4784927 40.6493181,74.1251895 40.6493181,74.1251895 C24.6478241,84.5290099 21.0322442,115.988778 41.3116406,123.616212 C61.5916413,131.243647 68.3324042,109.038297 68.893505,105.674372 C69.4543037,102.309843 63.4139346,97.2956736 61.3402487,100.941738 C53.6658286,114.435198 42.1836583,115.043278 43.1877174,102.236741 C43.9270893,92.8143672 46.2243694,95.0699732 45.8231083,77.1112167" id="Fill-86" stroke="none" fill="#00CAB3" fill-rule="nonzero"></path>
                    <path d="M80.647282,98.2096668 C80.647282,98.2096668 77.2226637,97.5182134 74.7048109,92.4835026 C72.186958,87.4487918 67.0343186,91.6778643 67.0343186,91.6778643 C67.0343186,91.6778643 66.1166757,87.6502769 67.389048,87.0461237 C68.6617224,86.4419704 72.2875755,85.0321789 76.41712,86.2404853 C80.5463624,87.4487918 83.8981613,92.2191856 83.5316481,95.0698826 C83.1651347,97.9208816 82.1450614,98.8509755 80.647282,98.2096668" id="Fill-88" stroke="none" fill="#FFB000" fill-rule="nonzero"></path>
                    <path d="M63.4244797,102.23665 C63.4244797,102.23665 63.5942906,91.0737111 67.0343186,89.7648132 C70.4746489,88.4559152 73.9998845,89.6642216 75.3091197,91.2751962 C76.6183549,92.8861707 77.4242007,96.3274274 76.3162004,96.8219269 C75.2085022,97.3167283 74.6041934,95.0698826 74.6041934,95.0698826 C73.6977301,98.9277029 69.7697226,104.566567 68.0574135,104.566567 C66.3451045,104.566567 63.4244797,102.23665 63.4244797,102.23665" id="Fill-90" stroke="none" fill="#F79500" fill-rule="nonzero"></path>
                    <polygon id="Fill-92" stroke="none" fill="#30454E" fill-rule="nonzero" points="160.36973 142.140578 114.4483 168.646289 83.0792322 150.54012 83.0792322 148.40474 160.36973 140.0055"></polygon>
                    <polygon id="Fill-94" stroke="none" fill="#4C6370" fill-rule="nonzero" points="160.36973 140.005379 114.4483 166.511091 83.0792322 148.404921 129.000964 121.899209"></polygon>
                    <polygon id="Fill-98" stroke="none" fill="#30454E" fill-rule="nonzero" points="119.013823 156.675658 115.935172 158.453077 119.013823 160.230194 122.092777 158.453077"></polygon>
                    <polygon id="Fill-100" stroke="none" fill="#30454E" fill-rule="nonzero" points="123.579769 154.040432 120.500816 155.817549 123.579769 157.594967 126.658723 155.817549"></polygon>
                    <polygon id="Fill-102" stroke="none" fill="#30454E" fill-rule="nonzero" points="128.145745 151.404934 125.066792 153.182353 128.145745 154.95947 131.224398 153.182353"></polygon>
                    <polygon id="Fill-104" stroke="none" fill="#30454E" fill-rule="nonzero" points="132.71139 148.769739 129.632436 150.546856 132.71139 152.324274 135.790344 150.546856"></polygon>
                    <polygon id="Fill-106" stroke="none" fill="#30454E" fill-rule="nonzero" points="137.277336 146.134241 134.198382 147.911358 137.277336 149.688777 140.355987 147.91166"></polygon>
                    <polygon id="Fill-108" stroke="none" fill="#30454E" fill-rule="nonzero" points="141.84301 143.498744 138.764359 145.276162 141.84301 147.053279 144.921963 145.276162"></polygon>
                    <polygon id="Fill-110" stroke="none" fill="#30454E" fill-rule="nonzero" points="146.408957 140.863518 143.330003 142.640635 146.408957 144.418054 149.48791 142.640635"></polygon>
                    <polygon id="Fill-112" stroke="none" fill="#30454E" fill-rule="nonzero" points="150.974903 138.228021 147.895949 140.005439 150.974903 141.782556 154.053554 140.005439"></polygon>
                    <polygon id="Fill-114" stroke="none" fill="#30454E" fill-rule="nonzero" points="110.237476 156.880677 107.158522 158.658096 110.237476 160.435213 113.31643 158.658096"></polygon>
                    <polygon id="Fill-116" stroke="none" fill="#30454E" fill-rule="nonzero" points="114.803422 154.245452 111.724468 156.022569 114.803422 157.799987 117.882074 156.022569"></polygon>
                    <polygon id="Fill-118" stroke="none" fill="#30454E" fill-rule="nonzero" points="119.369097 151.609954 116.290445 153.387373 119.369097 155.16449 122.44805 153.387373"></polygon>
                    <polygon id="Fill-120" stroke="none" fill="#30454E" fill-rule="nonzero" points="123.935043 148.974759 120.856089 150.751875 123.935043 152.529294 127.013996 150.751875"></polygon>
                    <polygon id="Fill-122" stroke="none" fill="#30454E" fill-rule="nonzero" points="128.500717 146.339261 125.422065 148.116378 128.501019 149.893797 131.57967 148.11668"></polygon>
                    <polygon id="Fill-124" stroke="none" fill="#30454E" fill-rule="nonzero" points="133.066663 143.703764 129.98771 145.481182 133.066663 147.258299 136.145617 145.481182"></polygon>
                    <polygon id="Fill-126" stroke="none" fill="#30454E" fill-rule="nonzero" points="137.632609 141.068538 134.553656 142.845654 137.632609 144.623074 140.711261 142.845654"></polygon>
                    <polygon id="Fill-128" stroke="none" fill="#30454E" fill-rule="nonzero" points="142.198283 138.43304 139.119632 140.210459 142.198283 141.987575 145.277237 140.210459"></polygon>
                    <polygon id="Fill-130" stroke="none" fill="#30454E" fill-rule="nonzero" points="146.764229 135.797845 143.685276 137.574961 146.764229 139.352078 149.843183 137.574961"></polygon>
                    <polygon id="Fill-132" stroke="none" fill="#30454E" fill-rule="nonzero" points="110.592749 151.814973 107.513796 153.592393 110.592749 155.369509 113.671703 153.592393"></polygon>
                    <polygon id="Fill-134" stroke="none" fill="#30454E" fill-rule="nonzero" points="119.724369 146.54428 116.645718 148.321397 119.724369 150.098815 122.803323 148.321397"></polygon>
                    <polygon id="Fill-136" stroke="none" fill="#30454E" fill-rule="nonzero" points="124.290316 143.908783 121.211363 145.686201 124.290316 147.463318 127.36927 145.686201"></polygon>
                    <polygon id="Fill-138" stroke="none" fill="#30454E" fill-rule="nonzero" points="128.85596 141.273587 125.777309 143.050704 128.85596 144.828122 131.934913 143.050704"></polygon>
                    <polygon id="Fill-140" stroke="none" fill="#30454E" fill-rule="nonzero" points="133.421936 138.638089 130.342982 140.415508 133.421936 142.192625 136.500889 140.415508"></polygon>
                    <polygon id="Fill-142" stroke="none" fill="#30454E" fill-rule="nonzero" points="137.987882 136.002562 134.908928 137.779981 137.987882 139.557098 141.066534 137.779981"></polygon>
                    <polygon id="Fill-144" stroke="none" fill="#30454E" fill-rule="nonzero" points="142.553526 133.367366 139.474875 135.144483 142.553526 136.921902 145.63248 135.144483"></polygon>
                    <polygon id="Fill-146" stroke="none" fill="#30454E" fill-rule="nonzero" points="101.816402 152.020023 98.7374486 153.797441 101.816402 155.574558 104.895053 153.797441"></polygon>
                    <polygon id="Fill-148" stroke="none" fill="#30454E" fill-rule="nonzero" points="106.382046 149.384797 103.303395 151.161914 106.382046 152.939031 109.461 151.161914"></polygon>
                    <polygon id="Fill-150" stroke="none" fill="#30454E" fill-rule="nonzero" points="110.948023 146.7493 107.869069 148.526417 110.948023 150.303835 114.026976 148.526417"></polygon>
                    <polygon id="Fill-152" stroke="none" fill="#30454E" fill-rule="nonzero" points="115.513666 144.113802 112.435015 145.891221 115.513969 147.668338 118.59262 145.891221"></polygon>
                    <polygon id="Fill-154" stroke="none" fill="#30454E" fill-rule="nonzero" points="120.079612 141.478607 117.000659 143.255724 120.079612 145.033142 123.158566 143.255724"></polygon>
                    <polygon id="Fill-156" stroke="none" fill="#30454E" fill-rule="nonzero" points="124.645589 138.843109 121.566635 140.620226 124.645589 142.397645 127.724241 140.620528"></polygon>
                    <polygon id="Fill-158" stroke="none" fill="#30454E" fill-rule="nonzero" points="129.211233 136.207612 126.132582 137.98503 129.211233 139.762147 132.290187 137.98503"></polygon>
                    <polygon id="Fill-160" stroke="none" fill="#30454E" fill-rule="nonzero" points="133.777179 133.572386 130.698226 135.349502 133.777179 137.126922 136.856133 135.349502"></polygon>
                    <polygon id="Fill-162" stroke="none" fill="#30454E" fill-rule="nonzero" points="138.343155 130.936888 135.264202 132.714307 138.343155 134.491423 141.421806 132.714307"></polygon>
                    <polygon id="Fill-164" stroke="none" fill="#30454E" fill-rule="nonzero" points="115.303277 133.45086 103.092611 140.498609 110.529237 144.791119 122.739901 137.743369"></polygon>
                    <polygon id="Fill-166" stroke="none" fill="#30454E" fill-rule="nonzero" points="160.36973 140.005379 114.4483 166.511091 138.856637 141.956189 184.778066 115.450478"></polygon>
                    <polygon id="Fill-168" stroke="none" fill="#30454E" fill-rule="nonzero" points="186.277991 116.632202 140.356259 143.137913 138.856667 141.956189 184.778096 115.450478"></polygon>
                    <polygon id="Fill-170" stroke="none" fill="#425863" fill-rule="nonzero" points="161.869594 141.186861 115.947863 167.692573 140.356199 143.137974 186.27793 116.632261"></polygon>
                    <polygon id="Fill-172" stroke="none" fill="#4C6370" fill-rule="nonzero" points="143.065799 164.726694 215.586487 122.867335 215.587998 73.3941338 143.06731 115.253494"></polygon>
                    <polygon id="Fill-174" stroke="none" fill="#30454E" fill-rule="nonzero" points="143.067249 115.253403 215.587937 73.3943452 213.588883 72.2401106 141.068498 114.099773"></polygon>
                    <polygon id="Fill-176" stroke="none" fill="#30454E" fill-rule="nonzero" points="143.067249 115.253403 143.065739 164.726604 141.066685 163.572973 141.068498 114.099773"></polygon>
                    <polygon id="Fill-180" stroke="none" fill="#4C6370" fill-rule="nonzero" points="178.887898 175.828312 191.320948 168.651878 191.320948 123.374219 178.887898 130.550653"></polygon>
                    <polygon id="Fill-182" stroke="none" fill="#30454E" fill-rule="nonzero" points="178.887898 130.550744 191.320948 123.374309 187.56245 121.204796 175.129097 128.380928"></polygon>
                    <polygon id="Fill-184" stroke="none" fill="#30454E" fill-rule="nonzero" points="178.887898 130.550744 178.887898 175.828402 175.129097 173.658888 175.129097 128.380928"></polygon>
                    <path d="M68.0137523,167.247735 C72.382603,169.769471 80.3135524,171.092868 83.7913498,169.085267 C87.2691472,167.077968 83.2915863,161.374762 79.3995352,158.166104 C75.542534,154.986446 71.4483416,155.227502 67.9705441,157.234802 C64.4927467,159.242101 63.6452036,164.725999 68.0137523,167.247735" id="Fill-186" stroke="none" fill="#425863" fill-rule="nonzero"></path>
                    <path d="M68.7871467,162.463476 C71.5412842,164.053607 76.5416378,164.887641 78.7343725,163.622242 C80.9271071,162.356541 79.4819025,159.470501 76.7271606,157.88037 C73.9730231,156.29054 70.9523853,156.59896 68.7596507,157.864662 C66.566916,159.130363 66.0327069,160.873647 68.7871467,162.463476" id="Fill-188" stroke="none" fill="#4C6370" fill-rule="nonzero"></path>
                </g>
            </g>
        </g>
    </g>
</svg>