<?xml version="1.0" encoding="UTF-8"?>
<svg width="539px" height="311px" viewBox="0 0 539 311" version="1.1" xmlns="http://www.w3.org/2000/svg" xmlns:xlink="http://www.w3.org/1999/xlink">
    <!-- Generator: Sketch 55.2 (78181) - https://sketchapp.com -->
    <title>404</title>
    <desc>Created with Sketch.</desc>
    <defs>
        <polygon id="path-1" points="0.244093578 0.230064792 76.9352657 0.230064792 76.9352657 79.1848531 0.244093578 79.1848531"></polygon>
    </defs>
    <g id="Desktop" stroke="none" stroke-width="1" fill="none" fill-rule="evenodd">
        <g id="9.0-D-ERROR-404" transform="translate(-430.000000, -137.000000)">
            <g id="404" transform="translate(430.000000, 138.000000)">
                <g transform="translate(0.000000, 92.751825)">
                    <path d="M211.694673,39.8402209 C210.436062,39.8402209 210.434105,41.7926513 211.694673,41.7926513 C212.95361,41.7926513 212.955567,39.8402209 211.694673,39.8402209" id="Fill-1" fill="#170762"></path>
                    <path d="M251.238346,214.050769 C283.299999,200.332017 343.549326,187.944497 343.549326,187.944497 L301.239121,152.849561 L256.623637,191.905328 L251.238346,214.050769 Z" id="Fill-3" fill="#C63746"></path>
                    <path d="M307.90425,11.1048058 C338.695554,36.2963645 343.582943,78.7220263 343.582943,78.7220263 L290.633561,74.0989965 L307.90425,11.1048058 Z" id="Fill-5" fill="#C63746"></path>
                    <path d="M215.128529,187.702493 C215.128529,187.702493 196.887471,177.66993 184.498628,166.151567 C182.910039,164.674879 227.712033,170.391595 227.712033,170.391595 C227.712033,170.391595 229.664511,187.702493 215.128529,187.702493" id="Fill-7" fill="#C63746"></path>
                    <path d="M160.08056,78.7219937 C159.828838,103.78339 174.947823,125.160876 175.181612,140.123977 C175.414748,155.080896 181.533686,162.800155 181.533686,162.800155 L212.181195,87.9670771 L160.08056,78.7219937" id="Fill-9" fill="#C63746"></path>
                    <polygon id="Fill-11" fill="#C63746" points="374.516411 116.690159 338.695554 160.679392 319.144692 134.664234 331.363654 107.477616"></polygon>
                    <path d="M226.363787,21.6060829 C217.660131,46.7963399 215.078674,74.0988012 215.078674,74.0988012 L256.623604,67.6971074 L241.960783,25.321558 L226.363787,21.6060829 Z" id="Fill-13" fill="#C63746"></path>
                    <g id="Group-17" transform="translate(159.790003, 0.296769)" fill="#FFB000">
                        <path d="M49.9798096,57.1998653 C45.7367247,55.4530909 42.0913171,52.5374615 39.8753789,48.588671 C38.2858116,45.7556945 34.5826905,44.8969506 31.9637358,46.8230231 C21.0535983,54.8455597 4.76371298,62.0295273 0.710397987,73.3415836 C-3.15021255,84.1167216 20.8863269,104.094315 20.8863269,116.193851 C20.8863269,135.075155 11.5341283,145.29385 21.7530078,162.518842 C24.2555573,166.737393 29.1537069,169.037682 33.9709924,168.08034 C35.1953668,167.836937 36.4768025,167.751356 37.7931273,167.846374 C44.7125543,168.344894 50.3179391,173.910623 50.8490991,180.81344 C50.9798512,182.514007 50.808341,185.347635 50.3821739,188.299059 C49.2637707,196.049556 52.697236,203.775649 59.1732145,208.196928 C73.1369515,217.73032 88.3299538,221.934553 109.868509,203.963408 C135.57874,182.511404 175.024463,198.069346 191.449665,183.16254 C197.461979,177.706473 197.508607,168.237185 191.578461,162.692283 C186.310228,157.767277 183.017948,150.764235 183.017948,142.99161 C183.017948,128.07797 195.132244,115.988195 210.075807,115.988195 C211.66244,115.988195 213.214509,116.132025 214.727451,116.393325 L214.727451,112.417526 C214.727451,102.97004 206.941995,95.4509055 204.541178,86.7651935 C203.526138,83.0923465 203.391147,79.2317408 203.268546,75.4160409 C203.043887,68.4250385 196.618775,63.1746277 189.742389,64.5296144 C187.922945,64.8882108 186.031768,65.0476593 184.092333,64.9842053 C171.073859,64.5575993 160.506089,53.954926 160.143831,40.9608509 C160.125245,40.2823813 160.133723,39.609769 160.168938,38.9443157 C160.732052,28.2287268 156.211486,17.8642501 148.112356,10.8065396 C141.309008,4.87733384 134.275784,0.0287983484 123.319345,0.0287983484 C107.295529,0.0287983484 82.4761075,12.2926645 67.5749334,20.0659407 C66.230241,20.7671887 66.1268784,22.640871 67.3792943,23.4960355 C72.6511145,27.095341 76.0275184,33.2555843 75.7030837,40.1834582 C75.3166965,48.4217382 69.6043624,55.3499375 61.9574842,57.5988119 C56.4173124,59.2723702 51.2984168,57.742641 49.9798096,57.1998653" id="Fill-15"></path>
                    </g>
                    <path d="M270.63762,142.89132 L268.731118,141.198888 C267.436965,143.395047 266.691255,145.952405 266.691255,148.684831 C266.691255,155.51183 271.327248,161.255555 277.627803,162.959701 C270.733157,158.301853 270.63762,142.89132 270.63762,142.89132" id="Fill-18" fill="#BA2BFC"></path>
                    <path d="M193.76142,168.377142 C194.985468,168.133739 196.266904,168.048158 197.583228,168.143176 C204.502329,168.641371 210.108366,174.20775 210.639526,181.110893 C210.782017,182.965377 210.564531,186.16899 210.049675,189.402865 C208.931271,196.431615 211.870422,203.484769 217.685141,207.604397 C232.00331,217.749226 247.460751,222.780964 269.65861,204.259884 C291.950375,185.660381 324.56373,194.879107 343.549522,187.944725 C303.666219,197.284827 301.229535,152.845884 267.298877,140.656861 C233.358763,128.464584 201.841312,141.168072 176.786146,105.878543 C179.0836,109.743054 180.676754,113.377829 180.676754,116.490653 C180.676754,135.371957 171.323903,145.590652 181.542783,162.81597 C184.045659,167.034195 188.943808,169.334809 193.76142,168.377142" id="Fill-20" fill="#FF8600"></path>
                    <path d="M297.059097,149.045413 C297.059097,157.214707 290.422695,163.837676 282.236831,163.837676 C274.050967,163.837676 267.414891,157.214707 267.414891,149.045413 C267.414891,140.876119 274.050967,134.253475 282.236831,134.253475 C290.422695,134.253475 297.059097,140.876119 297.059097,149.045413" id="Fill-22" fill="#FFB000"></path>
                    <path d="M222.654144,130.033036 C222.654144,135.805397 217.965328,140.485047 212.18126,140.485047 C206.397191,140.485047 201.70805,135.805397 201.70805,130.033036 C201.70805,124.260676 206.397191,119.581025 212.18126,119.581025 C217.965328,119.581025 222.654144,124.260676 222.654144,130.033036" id="Fill-24" fill="#FF8600"></path>
                    <path d="M259.860898,121.711077 C259.795221,120.247931 258.671865,119.010503 257.154846,119.010503 C255.739375,119.010503 254.383383,120.252669 254.448795,121.711077 C254.514472,123.174222 255.637828,124.411782 257.154846,124.411782 C258.570317,124.411782 259.92631,123.169484 259.860898,121.711077" id="Fill-26" fill="#C63746"></path>
                    <path d="M314.257107,91.0397144 C309.370369,91.0397144 309.362218,98.6190492 314.257107,98.6190492 C319.143844,98.6190492 319.151996,91.0397144 314.257107,91.0397144" id="Fill-28" fill="#FF8600"></path>
                    <path d="M198.763193,121.732018 C193.876455,121.732018 193.868304,129.311353 198.763193,129.311353 C203.64993,129.311353 203.658082,121.732018 198.763193,121.732018" id="Fill-30" fill="#FFB000"></path>
                    <path d="M284.648485,63.2408759 C280.925148,63.2408759 280.918953,69.0155142 284.648485,69.0155142 C288.371822,69.0155142 288.378017,63.2408759 284.648485,63.2408759" id="Fill-32" fill="#FF8600"></path>
                    <path d="M293.89206,22.1170665 C291.332123,22.1170665 291.327884,26.0870083 293.89206,26.0870083 C296.451671,26.0870083 296.45591,22.1170665 293.89206,22.1170665" id="Fill-34" fill="#FF8600"></path>
                    <path d="M250.324426,86.9562044 C248.462594,86.9562044 248.459334,89.8435235 250.324426,89.8435235 C252.185932,89.8435235 252.189192,86.9562044 250.324426,86.9562044" id="Fill-36" fill="#FF8600"></path>
                    <path d="M262.17784,61.9233577 C260.316334,61.9233577 260.313074,64.8106768 262.17784,64.8106768 C264.039346,64.8106768 264.042606,61.9233577 262.17784,61.9233577" id="Fill-38" fill="#FF8600"></path>
                    <path d="M256.829068,187.087591 C248.056064,187.087591 248.041633,200.262774 256.829068,200.262774 C265.602606,200.262774 265.617037,187.087591 256.829068,187.087591" id="Fill-40" fill="#FFB000"></path>
                    <path d="M248.273827,155.817496 C244.318006,155.817496 244.311484,161.953008 248.273827,161.953008 C252.229975,161.953008 252.23617,155.817496 248.273827,155.817496" id="Fill-42" fill="#FFB000"></path>
                    <path d="M228.586261,197.444633 C226.724756,197.444633 226.721495,200.331952 228.586261,200.331952 C230.448093,200.331952 230.451027,197.444633 228.586261,197.444633" id="Fill-44" fill="#FFB000"></path>
                    <path d="M201.373963,80.3728387 C196.715798,80.3728387 196.707972,87.2720769 201.373963,87.2720769 C206.032129,87.2720769 206.039955,80.3728387 201.373963,80.3728387" id="Fill-46" fill="#E0317B"></path>
                    <path d="M199.510208,64.8309395 C197.411979,64.8309395 197.408718,68.0849902 199.510208,68.0849902 C201.608437,68.0849902 201.611697,64.8309395 199.510208,64.8309395" id="Fill-48" fill="#E0317B"></path>
                    <path d="M215.512243,88.3703841 C214.462965,88.3703841 214.461335,89.9974094 215.512243,89.9974094 C216.561194,89.9974094 216.563151,88.3703841 215.512243,88.3703841" id="Fill-50" fill="#E0317B"></path>
                    <path d="M215.512243,100.654751 C214.462965,100.654751 214.461335,102.281776 215.512243,102.281776 C216.561194,102.281776 216.563151,100.654751 215.512243,100.654751" id="Fill-52" fill="#E0317B"></path>
                    <path d="M301.239024,151.222503 C300.190072,151.222503 300.188116,152.849528 301.239024,152.849528 C302.288301,152.849528 302.289931,151.222503 301.239024,151.222503" id="Fill-54" fill="#E0317B"></path>
                    <path d="M234.591517,100.654751 C233.542566,100.654751 233.540609,102.281776 234.591517,102.281776 C235.640794,102.281776 235.642425,100.654751 234.591517,100.654751" id="Fill-56" fill="#E0317B"></path>
                    <path d="M326.263573,152.036016 C325.214621,152.036016 325.212665,153.663041 326.263573,153.663041 C327.31285,153.663041 327.314481,152.036016 326.263573,152.036016" id="Fill-58" fill="#E0317B"></path>
                    <path d="M231.90521,119.894161 C230.016967,119.894161 230.013707,122.822806 231.90521,122.822806 C233.793453,122.822806 233.796714,119.894161 231.90521,119.894161" id="Fill-60" fill="#E0317B"></path>
                    <path d="M338.749224,171.154832 C336.860981,171.154832 336.857721,174.083478 338.749224,174.083478 C340.637467,174.083478 340.640728,171.154832 338.749224,171.154832" id="Fill-62" fill="#E0317B"></path>
                    <g id="Group-68" transform="translate(383.796713, 11.035137)" fill="#FFAF00">
                        <path d="M39.5663996,114.0234 L90.468093,114.0234 L90.468093,35.5669365 L39.5663996,114.0234 Z M90.468093,149.300563 L0.258602214,149.300563 L0.258602214,117.692342 L75.1974872,0.00764701907 L130.624638,0.00764701907 L130.624638,114.0234 L154.944528,114.0234 L154.944528,149.300563 L130.624638,149.300563 L130.624638,188.246668 L90.468093,188.246668 L90.468093,149.300563 Z" id="Fill-66"></path>
                    </g>
                    <path d="M39.4954422,124.347814 L90.6401265,124.347814 L90.6401265,45.6224423 L39.4954422,124.347814 Z M90.6401265,159.745889 L0,159.745889 L0,128.029331 L75.2966229,9.94127405 L130.988368,9.94127405 L130.988368,124.347814 L155.424354,124.347814 L155.424354,159.745889 L130.988368,159.745889 L130.988368,198.825481 L90.6401265,198.825481 L90.6401265,159.745889 Z" id="Fill-64" fill="#FFAF00"></path>
                </g>
                <g id="squirrel" transform="translate(287.902439, 0.000000)">
                    <path d="M135.074207,125.557301 L145.540056,130.819027 C145.540056,130.819027 140.548598,114.992329 135.074207,125.557301" id="Fill-1" fill="#BDC4D0"></path>
                    <polygon id="Fill-3" fill="#A24502" points="148.259538 70.5705683 144.896159 63.4614806 143.544288 56.6995222 141.751944 57.4982192 145.698189 71.0281284"></polygon>
                    <path d="M146.551686,69.7675911 L148.383488,68.2926127 C148.37491,65.1838582 147.660803,61.4065267 145.448144,58.5802695 L142.367834,58.7604685 L143.544288,56.6995222 C143.16772,56.4153128 142.765418,56.1512206 142.333951,55.913666 C139.803911,56.2244131 138.109355,57.2572404 138.109355,57.2572404 L138.309648,59.2775242 L142.095058,73.7349663 L143.615055,74.6967412 C146.314079,74.4305089 147.67753,73.1840965 147.67753,73.1840965 C147.919855,72.5827197 148.132157,71.6701677 148.259538,70.5705683 L146.551686,69.7675911 Z" id="Fill-5" fill="#F87D00"></path>
                    <path d="M132.365791,74.9181592 C140.159635,76.643961 143.800937,72.0559478 143.800937,72.0559478 C145.650753,62.9364209 140.441847,58.1215538 139.593925,58.2080151 C130.817058,60.3888087 131.167892,70.7984067 131.167892,70.7984067 L132.365791,74.9181592 Z" id="Fill-7" fill="#FFFFFF"></path>
                    <path d="M99.9110668,64.6638919 C111.948808,56.817315 125.151852,68.7083118 130.464979,68.2259262 C132.236308,71.6004851 131.59211,75.6735827 131.59211,75.6735827 C128.049883,75.6735827 112.793728,88.1539716 107.568095,87.3133281 C102.287992,86.464124 99.9110668,64.6638919 99.9110668,64.6638919" id="Fill-9" fill="#FFFFFF"></path>
                    <path d="M98.0807228,64.5180206 C114.001233,56.5892626 127.236444,76.2788974 114.022249,87.9905512 C103.898228,73.368319 98.0807228,64.5180206 98.0807228,64.5180206" id="Fill-11" fill="#F87D00"></path>
                    <path d="M119.425486,74.4336763 L131.167721,70.7984495" id="Stroke-13" stroke="#D9E0EE" stroke-width="0.658536546" stroke-linecap="round" stroke-linejoin="round"></path>
                    <path d="M133.941672,68.3882338 L134.932844,74.1152248 C135.176026,75.5208629 134.222597,76.8695736 132.814112,77.1126925 C131.405199,77.3553834 130.053757,76.4043091 129.810145,74.9978149 L128.818974,69.2712519 C128.575791,67.8651857 129.52922,66.5164751 130.938134,66.2737842 C132.346619,66.0306653 133.69849,66.9825956 133.941672,68.3882338" id="Fill-15" fill="#F87D00"></path>
                    <path d="M123.670627,147.268803 C105.066533,149.878051 96.9827565,124.555591 105.865132,111.06078 C114.747507,97.5663969 118.415829,88.4074915 116.436059,79.1822421 C114.456289,69.9561367 105.719737,73.86102 105.719737,73.86102 L102.93665,86.7304847 C102.93665,86.7304847 92.629492,106.766821 93.7141626,123.673429 C94.7988331,140.580465 103.911953,153.513706 120.96517,153.513706 C138.018815,153.513706 129.587207,146.439716 123.670627,147.268803" id="Fill-17" fill="#D9E0EE"></path>
                    <g id="Group-21" transform="translate(90.067542, 89.169421)">
                        <mask id="mask-2" fill="white">
                            <use xlink:href="#path-1"></use>
                        </mask>
                        <g id="Clip-20"></g>
                        <path d="M14.8549255,0.547787973 C2.12023283,29.3518133 4.846706,45.141701 16.8835897,54.2411107 C28.9204734,63.3409484 49.3169116,57.2381504 51.0234771,39.9814168 C51.5840403,34.3117813 46.6899417,33.6470566 45.0065364,36.3877085 C54.1278051,18.6717028 78.1548231,28.2423693 76.8870152,47.4346376 C75.2769507,71.802171 41.6388681,85.9993731 22.2790644,75.8923897 C2.41616904,65.5230262 -4.11544334,40.7154818 3.0800955,18.0288074 C9.9380955,-3.59379386 14.8549255,0.547787973 14.8549255,0.547787973" id="Fill-19" fill="#FFFFFF" mask="url(#mask-2)"></path>
                    </g>
                    <path d="M102.586201,39.0199415 C89.3243992,41.0868801 90.4193632,50.1653165 84.580842,52.6898153 C83.6437107,53.2111512 83.1753594,54.3706743 83.4249752,55.9680682 C83.8680217,58.7977496 86.3972041,61.9283335 89.0743546,62.9603047 C90.6616878,63.5723822 91.9397891,63.3035818 92.6290202,62.3978782 C95.4970281,57.7495134 96.3955591,52.4235829 102.553606,51.6176095 C103.39638,49.2608971 102.586201,39.0199415 102.586201,39.0199415" id="Fill-22" fill="#FFFFFF"></path>
                    <g id="Group-27" transform="translate(102.505441, 38.662326)">
                        <path d="M0.124002439,0.357615918 C1.58463659,5.96903983 0.0739536585,12.955284 0.0739536585,12.955284" id="Fill-24" fill="#FFFFFF"></path>
                        <path d="M0.124002439,0.357615918 C1.58463659,5.96903983 0.0739536585,12.955284 0.0739536585,12.955284" id="Stroke-26" stroke="#878EA0" stroke-width="0.658536546"></path>
                    </g>
                    <path d="M99.7491597,49.5362464 C98.5392523,46.9394112 98.8943758,42.9335137 100.543041,40.5896421 C102.191277,38.2457704 104.509015,38.451223 105.718922,41.0480582 C106.928829,43.6448933 106.573706,47.6507908 104.925041,49.9946625 C103.276805,52.3385341 100.959067,52.1330815 99.7491597,49.5362464" id="Fill-28" fill="#D9E0EE"></path>
                    <path d="M100.710824,48.1715275 C99.891209,46.4127677 100.131818,43.6986534 101.248656,42.10982 C102.365922,40.5209867 103.936099,40.6592391 104.755714,42.4184269 C105.575329,44.1776148 105.33472,46.8917291 104.217882,48.4801345 C103.100616,50.0689678 101.530867,49.9307154 100.710824,48.1715275" id="Fill-30" fill="#878EA0"></path>
                    <path d="M99.9110668,52.3614774 C99.9110668,52.3614774 96.4318863,52.3807375 95.0714375,47.2208813 C94.1780533,43.8330536 95.6019782,41.309411 95.6019782,41.309411" id="Stroke-32" stroke="#D9E0EE" stroke-width="0.658536546" stroke-linecap="round" stroke-linejoin="round"></path>
                    <path d="M94.723305,58.4688114 C94.723305,57.2202589 93.825203,54.9054931 92.1876893,53.452344 C89.8120506,51.3438868 86.9882187,50.9779243 86.9882187,50.9779243" id="Stroke-34" stroke="#D9E0EE" stroke-width="0.658536546" stroke-linecap="round" stroke-linejoin="round"></path>
                    <path d="M102.214866,48.1874073 C99.1264069,46.256153 99.2362036,40.1041319 101.753377,38.2250967 C104.27055,36.3452055 104.93705,38.653123 103.869535,39.8854105 C105.371519,38.6719561 109.434423,35.0919447 110.896519,36.5956009 C112.359044,38.0996851 114.222585,40.2107104 114.004707,41.3317111 C113.787258,42.4531399 107.711988,51.1232392 102.214866,48.1874073" id="Fill-36" fill="#FFFFFF"></path>
                    <path d="M102.631621,46.9355162 C103.40706,47.8664732 104.791527,47.993597 105.72394,47.2197256 C106.656354,46.4462822 106.783735,45.0646135 106.008725,44.1336565 C105.232858,43.2031274 103.848391,43.0755756 102.915977,43.849447 C101.983564,44.6233185 101.856183,46.0045591 102.631621,46.9355162" id="Fill-38" fill="#D9E0EE"></path>
                    <path d="M81.698166,55.110646 C82.2694515,54.0161829 83.5321127,52.4393343 86.3053352,52.8172815 C89.699166,53.2791218 93.6938759,56.3228163 94.5645288,59.5077595 C95.433895,62.6871384 93.76979,62.7915768 92.74688,63.6142432 C91.6171757,64.7078502 89.9942444,64.5023976 89.9942444,64.5023976 L80.9737656,57.0093704 C80.9737656,57.0093704 81.0582575,55.8905098 81.698166,55.110646" id="Fill-40" fill="#F87D00"></path>
                    <path d="M95.7764519,49.1466997 C94.3992763,49.9697942 92.1879037,53.4526436 92.1879037,53.4526436 C94.232008,55.482772 94.6896369,57.3772161 94.7758444,58.3651007 C96.0286411,55.8885409 97.3127469,53.6473955 99.7428549,52.4429297 C97.6399923,51.9447072 96.6428159,50.4615963 95.7764519,49.1466997" id="Fill-42" fill="#D9E0EE"></path>
                    <path d="M61.7129504,91.6939197 C61.7129504,91.6939197 79.9614922,107.19275 97.3440989,102.613297 C114.726277,98.0338443 118.675524,84.8964351 114.022463,72.069773 C109.272044,63.323485 101.108922,69.47465 87.297708,56.7875244 C73.4864937,44.1012549 54.0675027,82.4665302 54.0675027,82.4665302 C54.0675027,82.4665302 59.9973781,90.3559097 61.7129504,91.6939197" id="Fill-44" fill="#FFFFFF"></path>
                    <path d="M63.5453959,78.3770392 C68.827214,84.8898863 81.1450226,88.6877631 85.952056,95.0841871" id="Stroke-46" stroke="#D9E0EE" stroke-width="0.658536546" stroke-linecap="round" stroke-linejoin="round"></path>
                    <path d="M108.300429,67.132576 C108.310723,67.1360002 108.321445,67.1389964 108.331739,67.1419926 C110.627603,67.9954769 112.500579,69.2675709 114.022292,72.0698586 C119.910565,82.9126192 115.783327,95.2170893 102.29078,100.930383 C102.29078,100.930383 109.069864,93.0230268 102.936693,86.7306132 C98.0147161,81.6803316 92.187775,81.3032405 83.3538647,76.1827627 C79.430351,73.9086593 78.2624752,68.8797791 81.2462842,65.4688381 C81.8330099,64.798549 82.4115867,64.1890396 82.9622854,63.6433062 C85.0201143,61.6033332 88.1711916,61.0875615 90.7604189,62.3917575 C98.251894,66.1652367 103.939874,66.1113054 108.300429,67.132576" id="Fill-48" fill="#D9E0EE"></path>
                    <path d="M55.9629098,90.0783775 C55.9629098,90.0783775 54.4965244,82.8948133 58.3874423,81.3873049 C61.8983608,80.0274655 65.5726877,82.4539462 68.4063841,85.6136359 C71.2396516,88.7741816 72.2063766,92.2981216 72.2080943,94.1172331 C72.2115233,96.8108021 68.017807,98.1483841 64.4116741,97.4596899 C60.8055413,96.7714237 55.9629098,90.0783775 55.9629098,90.0783775" id="Fill-50" fill="#F87D00"></path>
                    <path d="M54.0674598,82.4667014 C48.4884189,75.3768749 48.0153499,70.5050803 48.0153499,70.5050803 L75.7059724,47.6959904 C80.3701844,50.5368005 82.5969971,54.0748653 82.5969971,54.0748653 C76.533736,73.2970954 59.6696609,81.6500274 54.0674598,82.4667014" id="Fill-52" fill="#1A106A"></path>
                    <path d="M60.6191873,4.41419174 C55.0723134,1.72404686 48.845215,0.213970314 42.2638511,0.213970314 C19.0405786,0.213970314 0.214317861,19.0021818 0.214317861,42.1785182 C0.214317861,61.2676322 12.987182,77.3772555 30.4680053,82.4664874 C9.4488143,68.4160983 12.7135483,3.37408799 60.6191873,4.41419174" id="Fill-54" fill="#100644"></path>
                    <path d="M84.3134272,42.1783042 C84.3134272,65.3546407 65.4871664,84.1428522 42.263894,84.1428522 C19.0406215,84.1428522 0.21436075,65.3546407 0.21436075,42.1783042 C0.21436075,19.0023958 19.0406215,0.213756301 42.263894,0.213756301 C65.4871664,0.213756301 84.3134272,19.0023958 84.3134272,42.1783042 Z" id="Stroke-56" stroke="#6E27F9"></path>
                    <path d="M55.5698293,76.5512505 C52.8605119,76.5512505 50.7040376,75.6100208 49.334582,73.8285756 C47.7309509,71.7428038 47.3723963,68.6396136 48.3253967,65.089992 C50.5016,56.9844593 58.8800259,48.6229668 67.0019738,46.4511617 C68.3058087,46.1023203 69.5551741,45.9255455 70.7157588,45.9255455 C73.4250762,45.9255455 75.5815505,46.8672032 76.951006,48.6490764 C78.5546372,50.7344202 78.9127629,53.8380384 77.9601914,57.387232 C75.783988,65.4927647 67.4055621,73.8542572 59.2836143,76.0260623 C57.9797794,76.3749037 56.7304139,76.5512505 55.5698293,76.5512505" id="Fill-58" fill="#000000"></path>
                    <path d="M70.7163592,45.711618 L70.7155014,45.711618 C69.5364744,45.711618 68.2682376,45.890961 66.9463892,46.2445106 C58.7583919,48.4338648 50.3122009,56.8634134 48.1184129,65.0348623 C47.147399,68.6495438 47.5192493,71.81865 49.164483,73.9583532 C50.576399,75.7945857 52.7912027,76.7653492 55.5700009,76.7653492 C56.7490279,76.7653492 58.0172647,76.5864342 59.3391131,76.2328846 C67.5266815,74.0431024 75.9733014,65.6139818 78.1675183,57.4421049 C79.1376744,53.8274234 78.766253,50.6583172 77.1210192,48.518614 C75.7091033,46.6823815 73.4947284,45.711618 70.7163592,45.711618 M70.7159303,46.1396442 C76.4995532,46.1396442 79.5635652,50.5872648 77.7527787,57.3316741 C75.5907288,65.3841317 67.2967949,73.661731 59.2280298,75.8194112 C57.9169037,76.1699647 56.6919851,76.337323 55.5700009,76.337323 C49.7855202,76.337323 46.7215082,71.8897024 48.5322947,65.145293 C50.6943446,57.0928355 58.9882785,48.8156642 67.0574725,46.657984 C68.3685986,46.3074305 69.5935172,46.1396442 70.7159303,46.1396442" id="Fill-60" fill="#5E18E7"></path>
                    <path d="M69.9245368,50.711264 C69.9245368,41.3400577 54.7447248,64.907182 54.7447248,64.907182 L56.701335,76.278555 C57.5016494,76.2040784 58.3439954,76.0555533 59.227944,75.8192828 C66.4599387,73.8854603 73.8694952,67.0353285 76.8859001,59.8367833 C76.8859001,59.8367833 69.9245368,60.0824703 69.9245368,50.711264" id="Fill-62" fill="#592015"></path>
                    <path d="M30.0827307,48.3458198 L58.788543,26.810964 L74.3637944,47.4854871 C76.2976732,50.0527884 76.8007648,53.2492883 76.0085993,56.1239125 C75.4433183,58.1745862 74.2179708,60.0613258 72.3823085,61.4387143 L59.639038,70.9986802 C57.4349565,72.6517175 54.7685284,73.2573746 52.2384883,72.8995447 C49.708877,72.5417147 47.3156537,71.2208258 45.6588398,69.021627 L30.0827307,48.3458198 Z" id="Fill-64" fill="#F87D00"></path>
                    <path d="M35.7961438,55.9298882 L24.6891002,41.1860966 C31.8653389,35.8028107 37.6845599,42.6435259 37.6845599,42.6435259 C37.6845599,42.6435259 42.9728113,50.5466023 35.7961438,55.9298882" id="Fill-66" fill="#F87D00"></path>
                    <path d="M64.5022564,34.3952464 L53.3947839,19.6514548 C46.2181164,25.0351688 51.1868425,32.5136431 51.1868425,32.5136431 C51.1868425,32.5136431 57.3255888,39.7789604 64.5022564,34.3952464" id="Fill-68" fill="#F87D00"></path>
                    <path d="M59.8399315,53.3324966 C59.1275401,52.8244295 57.8833214,52.8368423 56.6356714,53.7729356 C55.3880215,54.709029 55.0277514,56.0436148 55.3215431,56.7224644 C56.2595322,57.9671647 58.4413112,59.6493078 60.1161386,58.3926228 C61.7901082,57.1367938 60.7779206,54.577625 59.8399315,53.3324966" id="Fill-70" fill="#8E220A"></path>
                    <path d="M47.7728966,55.10979 C48.2283811,55.714591 48.1065754,56.5732117 47.5001206,57.0277755 C46.8940947,57.4827674 46.0333064,57.361208 45.577822,56.7564069 C45.1223375,56.1520339 44.8294036,54.7421154 45.4354295,54.2871236 C46.0414553,53.8329877 47.3174122,54.5049889 47.7728966,55.10979" id="Fill-72" fill="#8E220A"></path>
                    <path d="M62.5799577,44.0016104 C63.0354421,44.6064114 62.9136365,45.4654601 62.3076106,45.9195959 C61.7011558,46.3745878 60.8403674,46.2530284 60.384883,45.6486553 C59.9293986,45.0438543 59.6364646,43.6343639 60.2424905,43.179372 C60.8489453,42.7248081 62.1244732,43.3968093 62.5799577,44.0016104" id="Fill-74" fill="#8E220A"></path>
                    <path d="M47.7728966,111.060866 C60.9720805,108.628392 59.6262141,99.5841981 65.3931101,96.8996176 C66.3148013,96.352172 66.7514144,95.1802362 66.4571938,93.5909748 C65.9360887,90.7741342 63.3211278,87.7146027 60.6165281,86.757108 C59.012897,86.1891172 57.7425158,86.4930158 57.0790182,87.4175525 C54.340536,92.1429621 53.5895443,97.4911498 47.4563735,98.4674777 C46.6792193,100.846447 47.7728966,111.060866 47.7728966,111.060866" id="Fill-76" fill="#FFFFFF"></path>
                    <g id="Group-81" transform="translate(47.178236, 98.157972)">
                        <path d="M0.913060975,12.9028936 C-0.785963415,7.31971941 0.427060975,0.309505769 0.427060975,0.309505769" id="Fill-78" fill="#FFFFFF"></path>
                        <path d="M0.913060975,12.9028936 C-0.785963415,7.31971941 0.427060975,0.309505769 0.427060975,0.309505769" id="Stroke-80" stroke="#878EA0" stroke-width="0.658536546"></path>
                    </g>
                    <path d="M50.3173476,100.470127 C51.59888,103.03272 51.354411,107.04675 49.7717956,109.435136 C48.1887513,111.823523 45.8667243,111.682274 44.5851919,109.119681 C43.3036594,106.557088 43.5476995,102.543486 45.1307438,100.1551 C46.7137881,97.7662851 49.0358151,97.9075338 50.3173476,100.470127" id="Fill-82" fill="#D9E0EE"></path>
                    <path d="M49.3938122,101.860784 C50.2618917,103.596858 50.096339,106.316109 49.0241063,107.934904 C47.9514448,109.554128 46.3782651,109.459106 45.5097566,107.723459 C44.6416771,105.987813 44.8072298,103.268134 45.8798913,101.649339 C46.9525529,100.030544 48.5257326,100.12471 49.3938122,101.860784" id="Fill-84" fill="#878EA0"></path>
                    <path d="M48.6715134,105.034213 C49.1617381,101.43066 44.3555625,97.5775683 41.2971261,98.3043569 C38.2386897,99.0315735 39.5888451,101.019327 41.2203543,100.989365 C39.3250758,101.364316 33.9686304,102.187839 34.1903681,104.271043 C34.4121059,106.354674 34.8444301,109.134277 35.8467531,109.684718 C36.8495051,110.235588 47.4127122,111.127167 48.6715134,105.034213" id="Fill-86" fill="#FFFFFF"></path>
                    <path d="M47.4409763,104.552256 C47.6609984,105.742169 46.8731219,106.884999 45.6803703,107.105004 C44.4880476,107.32501 43.3429031,106.538298 43.1224521,105.347957 C42.9024299,104.158044 43.6907354,103.015214 44.8830581,102.795636 C46.0753808,102.575631 47.2209541,103.362343 47.4409763,104.552256" id="Fill-88" fill="#D9E0EE"></path>
                    <path d="M60.5006412,92.9073741 C58.2776885,100.732978 54.9970855,101.873668 54.8173793,102.353485 C54.6376731,102.832874 55.9835395,106.243815 53.9999092,108.972055 C59.479018,106.002837 60.5173681,101.279567 63.2344056,98.4674349 C63.1602071,95.3120255 60.8566225,92.7113381 60.5006412,92.9073741" id="Fill-90" fill="#D9E0EE"></path>
                    <path d="M55.0576023,102.655415 C54.02011,97.046987 50.0772961,97.650504 50.0772961,97.650504" id="Stroke-92" stroke="#D9E0EE" stroke-width="0.658536546" stroke-linecap="round" stroke-linejoin="round"></path>
                    <path d="M60.8227399,93.4403096 C58.8905767,91.1820432 56.1280765,91.1824712 55.0940153,91.4024767" id="Stroke-94" stroke="#D9E0EE" stroke-width="0.658536546" stroke-linecap="round" stroke-linejoin="round"></path>
                    <path d="M85.5318266,79.5929761 C85.5318266,80.2645493 84.9862746,80.8089986 84.3133414,80.8089986 C83.6404082,80.8089986 83.0948562,80.2645493 83.0948562,79.5929761 C83.0948562,78.9214029 83.6404082,78.3769536 84.3133414,78.3769536 C84.9862746,78.3769536 85.5318266,78.9214029 85.5318266,79.5929761" id="Fill-96" fill="#D9E0EE"></path>
                    <path d="M71.7842171,84.8965207 C75.9869402,69.693457 83.6688438,61.1312202 89.6995091,58.8554047" id="Stroke-98" stroke="#D9E0EE" stroke-width="0.658536546" stroke-linecap="round" stroke-linejoin="round"></path>
                    <polygon id="Fill-100" fill="#A24502" points="113.989567 132.799505 121.170524 129.566622 127.968908 128.335619 127.199902 126.532773 113.575685 130.235627"></polygon>
                    <path d="M114.823893,131.109101 L116.27012,132.962882 C119.384313,133.008253 123.181303,132.361077 126.051026,130.202541 L125.924074,127.12546 L127.969036,128.335919 C128.260255,127.96482 128.530886,127.56804 128.7775,127.140869 C128.509441,124.611234 127.504116,122.902554 127.504116,122.902554 L125.476739,123.067344 L110.926971,126.592996 L109.936656,128.093228 C110.156679,130.791505 111.381597,132.173174 111.381597,132.173174 C111.979903,132.425281 112.890443,132.652563 113.989696,132.799376 L114.823893,131.109101 Z" id="Fill-102" fill="#F87D00"></path>
                    <path d="M109.357565,118.384951 C109.284224,125.298859 111.018239,127.714639 111.018239,127.714639 C120.114632,129.751615 126.328863,124.551097 126.259812,123.703177 C124.259454,114.900389 114.749609,115.815937 114.749609,115.815937 L109.357565,118.384951 Z" id="Fill-104" fill="#FFFFFF"></path>
                    <path d="M92.4091696,110.005438 C79.1486541,108.446139 74.2129528,89.4101002 89.6994233,83.0166723 C102.936779,77.5520614 108.746993,94.1577671 108.713258,98.7551969 C108.679228,103.352627 99.1668087,110.799855 92.4091696,110.005438" id="Fill-106" fill="#F87D00"></path>
                    <path d="M92.4091696,110.005438 C82.6801595,104.712466 81.6885588,92.3455041 89.1568736,88.4714386 C96.1667017,84.8353558 104.389439,90.1839716 108.501237,95.7748503 C113.69213,102.833859 112.481794,111.777039 114.61039,114.109782 C114.197366,116.970709 111.443872,118.215838 109.357737,118.384908 C106.771511,114.40298 99.5013453,113.864095 92.4091696,110.005438" id="Fill-108" fill="#FFFFFF"></path>
                    <path d="M85.0038592,93.0591094 C85.161263,101.950498 93.370705,106.267571 102.186602,109.387026 C111.002928,112.506909 111.380782,117.151422 111.380782,117.151422" id="Stroke-110" stroke="#D9E0EE" stroke-width="0.658536546" stroke-linecap="round" stroke-linejoin="round"></path>
                    <path d="M116.093373,117.118421 L111.136227,120.168108 C109.919458,120.916726 108.309822,120.535355 107.559688,119.321044 C106.809554,118.106734 107.191269,116.500351 108.408468,115.751733 L113.365614,112.702475 C114.582383,111.953429 116.192019,112.334372 116.942153,113.54911 C117.692287,114.763421 117.310572,116.369803 116.093373,117.118421" id="Fill-112" fill="#F87D00"></path>
                    <path d="M111.917756,164.633956 C132.230132,173.29421 151.980657,162.153116 159.70931,143.834877 C167.437534,125.51621 157.910103,116.727976 149.873505,116.221621" id="Stroke-114" stroke="#D9E0EE" stroke-width="0.658536546" stroke-linecap="round" stroke-linejoin="round"></path>
                </g>
                <path d="M177,246 C165,256.666667 160.666667,266.666667 164,276 C169,290 187,303 227,276 C267,249 274,193 257,155 C240,117 253,86 278,80 C303,74 323,101 344,83" id="Path-4" stroke="#FFFFFF"></path>
            </g>
        </g>
    </g>
</svg>