<?xml version="1.0" encoding="UTF-8"?>
<svg width="540px" height="311px" viewBox="0 0 540 311" version="1.1" xmlns="http://www.w3.org/2000/svg" xmlns:xlink="http://www.w3.org/1999/xlink">
    <!-- Generator: Sketch 59.1 (86144) - https://sketch.com -->
    <title>503-illustration</title>
    <desc>Created with Sketch.</desc>
    <defs>
        <polygon id="path-1" points="0 0.0627316514 163.871794 0.0627316514 163.871794 212.407823 0 212.407823"></polygon>
        <polygon id="path-3" points="0.301211009 0.0314587156 164.798463 0.0314587156 164.798463 215.504463 0.301211009 215.504463"></polygon>
    </defs>
    <g id="Desktop" stroke="none" stroke-width="1" fill="none" fill-rule="evenodd">
        <g id="9.3-D---Error-503" transform="translate(-450.000000, -112.000000)">
            <g id="503-illustration" transform="translate(450.000000, 112.000000)">
                <path d="M344.179466,117.925165 C354.782539,125.386702 349.988181,136.887092 347.197768,138.020349 C344.407975,139.153606 339.844603,130.631266 339.844603,130.631266 L344.179466,117.925165 Z" id="Fill-1" fill="#FFFFFF"></path>
                <g id="Group-5" transform="translate(0.000000, 98.284151)">
                    <mask id="mask-2" fill="white">
                        <use xlink:href="#path-1"></use>
                    </mask>
                    <g id="Clip-4"></g>
                    <path d="M24.3932615,151.11225 C38.7788119,165.81053 58.1686514,173.628764 80.0597064,173.628764 C104.765945,173.628764 118.838766,159.555943 118.838766,142.355828 C118.838766,123.279337 105.078055,110.457433 81.3112431,110.457433 C64.1111284,110.457433 50.0370688,115.773833 37.5285138,127.657548 L6.56768807,119.213236 L6.56768807,0.0627316514 L149.799592,0.0627316514 L149.799592,38.2157133 L50.0370688,38.2157133 L50.0370688,90.4421353 C60.9832156,80.7475252 77.8699817,72.9292913 96.947711,72.9292913 C132.286128,72.9292913 163.871794,98.2603693 163.871794,140.479452 C163.871794,184.574291 130.721862,212.407823 80.3724358,212.407823 C44.0958303,212.407823 17.825945,200.524108 -0.000247706422,181.134268 L24.3932615,151.11225 Z" id="Fill-3" fill="#007BFF" mask="url(#mask-2)"></path>
                </g>
                <g id="Group-8" transform="translate(374.655963, 95.187821)">
                    <mask id="mask-4" fill="white">
                        <use xlink:href="#path-3"></use>
                    </mask>
                    <g id="Clip-7"></g>
                    <path d="M23.4438028,152.957353 C37.8287339,167.968362 60.6592156,176.725404 80.9860046,176.725404 C106.317702,176.725404 120.390523,165.779876 120.390523,149.83006 C120.390523,132.942674 107.568619,125.12444 78.484789,125.12444 C69.7277477,125.12444 55.6555459,125.12444 52.527633,125.437789 L52.527633,86.6581101 C56.2803853,86.9708394 70.666555,86.9708394 78.484789,86.9708394 C101.626142,86.9708394 116.9505,79.4653349 116.9505,63.828867 C116.9505,47.254211 100.062495,38.8105183 78.1714404,38.8105183 C58.1567615,38.8105183 39.7057294,46.6287523 25.006211,60.7015734 L3.11577523,33.1813899 C20.0025413,14.1042798 46.2730459,0.0314587156 82.8617615,0.0314587156 C131.648161,0.0314587156 161.670798,21.9225138 161.670798,56.6360917 C161.670798,82.9053578 139.154904,100.105472 116.011693,104.171573 C137.277289,106.360679 164.798711,122.935335 164.798711,154.20889 C164.798711,190.172766 132.586968,215.504463 82.5496514,215.504463 C44.0839404,215.504463 15.6255688,200.806183 0.301211009,182.041803 L23.4438028,152.957353 Z" id="Fill-6" fill="#007BFF" mask="url(#mask-4)"></path>
                </g>
                <polygon id="Fill-9" fill="#005CD0" points="185.297222 136.153014 185.297222 183.888518 221.609126 176.716798 210.851856 138.069023 196.342452 132.491294"></polygon>
                <path d="M181.303452,211.802617 C172.696273,201.043489 172.632489,192.544681 174.851938,179.546287 C181.76914,176.716241 188.127764,173.440943 194.117305,168.349337 C202.08664,161.576424 204.477007,143.248626 185.297099,136.153076 C200.288911,109.652823 216.844369,105.327869 257.239094,111.035644 C270.469094,112.905828 286.775608,111.672869 308.641273,103.613741 C327.224828,112.518167 342.417282,127.785553 353.154117,145.89475 C309.773291,189.866356 371.007557,187.826493 371.007557,209.362089 C371.007557,214.532961 365.673819,239.899337 364.95547,244.918489 C343.751181,263.911998 322.180906,273.781241 268.473819,273.781241 C243.286411,273.781241 237.108612,297.805667 221.609002,277.416952 C210.055975,262.218305 204.317856,256.695071 192.18086,249.27936 C181.071227,242.490346 193.15992,226.623511 181.303452,211.802617" id="Fill-11" fill="#007BFF"></path>
                <path d="M345.971374,177.63356 C345.404745,177.856495 344.789195,177.983445 344.1433,177.983445 C341.383851,177.983445 339.146443,175.746656 339.146443,172.987206 C339.146443,170.41106 341.096511,168.291931 343.600204,168.021312 C343.717865,162.15872 346.389998,155.016106 353.154241,145.894936 C343.669562,153.567023 302.485892,176.717046 283.674447,176.717046 C249.129929,176.717046 251.745089,198.377115 250.409333,230.982092 C249.656305,249.359431 215.381167,263.878743 192.180984,249.278927 C208.852245,259.345096 215.8772,304.214018 261.057612,297.672711 C280.40658,294.870532 293.243346,306.939408 318.706947,299.342872 C330.538644,295.813055 341.33369,283.909523 349.581695,273.239569 C340.428323,265.733445 338.576718,238.654179 364.955594,244.918055 C368.908369,233.728537 371.007681,221.709821 371.007681,209.361656 C371.007681,195.909959 352.637773,189.874592 345.971374,177.63356" id="Fill-13" fill="#005CD0"></path>
                <path d="M322.202828,165.72594 C322.202828,169.736307 318.9523,172.987454 314.941933,172.987454 C310.932186,172.987454 307.681039,169.736307 307.681039,165.72594 C307.681039,161.715573 310.932186,158.465046 314.941933,158.465046 C318.9523,158.465046 322.202828,161.715573 322.202828,165.72594" id="Fill-15" fill="#007BFF"></path>
                <path d="M308.251755,202.95572 C308.251755,205.330606 306.326456,207.255904 303.951571,207.255904 C301.576686,207.255904 299.651388,205.330606 299.651388,202.95572 C299.651388,200.580835 301.576686,198.656156 303.951571,198.656156 C306.326456,198.656156 308.251755,200.580835 308.251755,202.95572" id="Fill-17" fill="#007BFF"></path>
                <path d="M364.684789,210.093009 C364.684789,213.92317 361.579789,217.02755 357.750248,217.02755 C353.920087,217.02755 350.815706,213.92317 350.815706,210.093009 C350.815706,206.262849 353.920087,203.158468 357.750248,203.158468 C361.579789,203.158468 364.684789,206.262849 364.684789,210.093009" id="Fill-19" fill="#007BFF"></path>
                <path d="M322.334608,196.732778 C322.334608,198.337915 321.03353,199.638374 319.429011,199.638374 C317.823874,199.638374 316.522796,198.337915 316.522796,196.732778 C316.522796,195.12764 317.823874,193.826562 319.429011,193.826562 C321.03353,193.826562 322.334608,195.12764 322.334608,196.732778" id="Fill-21" fill="#007BFF"></path>
                <path d="M311.043901,189.866479 C311.043901,190.568727 310.474796,191.137833 309.773167,191.137833 C309.07092,191.137833 308.502433,190.568727 308.502433,189.866479 C308.502433,189.164851 309.07092,188.595745 309.773167,188.595745 C310.474796,188.595745 311.043901,189.164851 311.043901,189.866479" id="Fill-23" fill="#007BFF"></path>
                <path d="M236.529413,252.176472 C236.529413,256.780716 232.797716,260.512413 228.193472,260.512413 C223.589229,260.512413 219.856913,256.780716 219.856913,252.176472 C219.856913,247.572229 223.589229,243.839913 228.193472,243.839913 C232.797716,243.839913 236.529413,247.572229 236.529413,252.176472" id="Fill-25" fill="#005CD0"></path>
                <path d="M220.393383,255.921112 C220.393383,258.509644 218.29469,260.607718 215.706778,260.607718 C213.117626,260.607718 211.018933,258.509644 211.018933,255.921112 C211.018933,253.33258 213.117626,251.234507 215.706778,251.234507 C218.29469,251.234507 220.393383,253.33258 220.393383,255.921112" id="Fill-27" fill="#007BFF"></path>
                <path d="M258.66031,236.661567 C263.78969,241.990351 263.628062,250.468722 258.299278,255.598103 C252.970493,260.728103 244.492122,260.567094 239.362741,255.23769 C234.23336,249.909525 234.394369,241.430534 239.723154,236.301154 C245.051938,231.171773 253.53031,231.333401 258.66031,236.661567" id="Fill-29" fill="#007BFF"></path>
                <path d="M216.844122,144.572369 C216.844122,146.265443 215.471209,147.638356 213.778135,147.638356 C212.084443,147.638356 210.712768,146.265443 210.712768,144.572369 C210.712768,142.879296 212.084443,141.507002 213.778135,141.507002 C215.471209,141.507002 216.844122,142.879296 216.844122,144.572369" id="Fill-31" fill="#005CD0"></path>
                <path d="M206.081339,189.145592 C206.081339,192.425225 203.42345,195.083115 200.143817,195.083115 C196.864183,195.083115 194.205674,192.425225 194.205674,189.145592 C194.205674,185.865959 196.864183,183.208069 200.143817,183.208069 C203.42345,183.208069 206.081339,185.865959 206.081339,189.145592" id="Fill-33" fill="#005CD0"></path>
                <path d="M219.276413,190.84492 C219.276413,191.783727 218.515335,192.544805 217.577147,192.544805 C216.63772,192.544805 215.877261,191.783727 215.877261,190.84492 C215.877261,189.906112 216.63772,189.145654 217.577147,189.145654 C218.515335,189.145654 219.276413,189.906112 219.276413,190.84492" id="Fill-35" fill="#005CD0"></path>
                <path d="M281.218748,151.506415 C281.218748,151.973961 280.839757,152.352333 280.37283,152.352333 C279.905284,152.352333 279.526913,151.973961 279.526913,151.506415 C279.526913,151.039489 279.905284,150.660498 280.37283,150.660498 C280.839757,150.660498 281.218748,151.039489 281.218748,151.506415" id="Fill-37" fill="#005CD0"></path>
                <path d="M318.074181,181.956284 C318.074181,183.02328 317.209686,183.888394 316.142071,183.888394 C315.075076,183.888394 314.209961,183.02328 314.209961,181.956284 C314.209961,180.88867 315.075076,180.024174 316.142071,180.024174 C317.209686,180.024174 318.074181,180.88867 318.074181,181.956284" id="Fill-39" fill="#007BFF"></path>
                <path d="M271.614674,264.850248 C271.614674,266.901876 269.950706,268.565844 267.898459,268.565844 C265.84683,268.565844 264.182862,266.901876 264.182862,264.850248 C264.182862,262.798 265.84683,261.134651 267.898459,261.134651 C269.950706,261.134651 271.614674,262.798 271.614674,264.850248" id="Fill-41" fill="#007BFF"></path>
                <path d="M316.141947,281.546837 C316.141947,284.757112 313.539791,287.359268 310.330135,287.359268 C307.120479,287.359268 304.517704,284.757112 304.517704,281.546837 C304.517704,278.337181 307.120479,275.735025 310.330135,275.735025 C313.539791,275.735025 316.141947,278.337181 316.141947,281.546837" id="Fill-43" fill="#007BFF"></path>
                <path d="M273.12717,186.132119 C273.12717,193.528633 267.130817,199.524986 259.734303,199.524986 C252.337789,199.524986 246.341436,193.528633 246.341436,186.132119 C246.341436,178.735606 252.337789,172.739252 259.734303,172.739252 C267.130817,172.739252 273.12717,178.735606 273.12717,186.132119" id="Fill-45" fill="#007BFF"></path>
                <path d="M318.998188,136.471688 C333.772018,132.789532 338.836995,127.421115 344.368899,132.982124 C349.900183,138.543752 352.777913,114.629555 335.951835,115.775817 C319.125757,116.922697 318.998188,136.471688 318.998188,136.471688" id="Fill-47" fill="#FFFFFF"></path>
                <path d="M245.10117,144.237904 L243.849633,130.899532 L271.785344,130.899532 C283.794151,130.899532 273.524243,128.702376 273.524243,128.702376 L283.794151,125.386826 L317.622179,130.555839 C317.622179,130.555839 339.901514,123.810794 344.368899,132.982124 C339.478555,128.241642 336.561812,136.471688 318.998188,136.471688 C329.552959,136.471688 322.760849,140.307422 313.863234,140.307422 C305.443073,140.307422 300.384289,140.788592 286.63039,140.829463 C273.647477,140.868477 258.429014,139.628706 245.10117,144.237904" id="Fill-49" fill="#005CD0"></path>
                <path d="M279.174117,111.124138 C285.025562,104.349367 289.788337,108.178289 293.279759,105.766248 C293.906456,105.420697 294.728842,105.564986 295.546273,106.271569 C296.994736,107.523106 297.878429,110.060858 297.518635,111.94095 C297.305608,113.056248 296.702443,113.684803 295.9457,113.754161 C292.296984,113.734344 288.960378,112.359573 286.330356,115.55994 C284.696112,115.203862 279.174117,111.124138 279.174117,111.124138" id="Fill-51" fill="#FFFFFF"></path>
                <g id="Group-56" transform="translate(278.669725, 110.669472)">
                    <path d="M0.504392202,0.454665138 C3.35177752,2.97755505 7.66063073,4.89046789 7.66063073,4.89046789" id="Fill-53" fill="#FFFFFF"></path>
                    <path d="M0.504392202,0.454665138 C3.35177752,2.97755505 7.66063073,4.89046789 7.66063073,4.89046789" id="Stroke-55" stroke="#878EA0" stroke-width="0.619266055"></path>
                </g>
                <path d="M286.139002,113.237135 C285.093681,111.633856 282.695883,110.418236 280.784828,110.522892 C278.874392,110.626929 278.173383,112.011608 279.218704,113.614268 C280.265264,115.217548 282.661823,116.432548 284.572878,116.328511 C286.483933,116.224475 287.184943,114.840415 286.139002,113.237135" id="Fill-57" fill="#D9E0EE"></path>
                <path d="M285.026243,113.298814 C284.317183,112.212622 282.693468,111.389617 281.398583,111.459594 C280.103697,111.53081 279.627482,112.467759 280.335922,113.553952 C281.044362,114.640144 282.668078,115.463149 283.963583,115.392553 C285.258468,115.322576 285.734683,114.385007 285.026243,113.298814" id="Fill-59" fill="#878EA0"></path>
                <path d="M293.933085,109.930317 C288.671181,108.566693 286.906892,110.069651 286.570011,110.010821 C286.232511,109.951991 284.719644,108.026073 282.477901,108.245294 C286.036823,106.095202 289.11086,107.093459 291.647993,106.479147 C293.442626,107.587633 294.165929,109.791601 293.933085,109.930317" id="Fill-61" fill="#D9E0EE"></path>
                <path d="M286.47706,109.77067 C289.360982,112.261977 287.684009,114.327229 287.684009,114.327229" id="Stroke-63" stroke="#D9E0EE" stroke-width="0.619266055" stroke-linecap="round" stroke-linejoin="round"></path>
                <path d="M293.734115,109.565073 C294.385583,111.440211 293.454206,113.029867 292.977991,113.55067" id="Stroke-65" stroke="#D9E0EE" stroke-width="0.619266055" stroke-linecap="round" stroke-linejoin="round"></path>
                <polygon id="Fill-67" fill="#BB2240" points="275.518961 132.630938 273.467952 127.793232 270.697356 124.111076 271.89192 123.574791 276.885062 131.560227"></polygon>
                <path d="M275.876959,131.423803 L274.328174,131.678321 C272.781867,130.291165 271.215743,128.254399 270.789069,125.895615 L272.24744,124.443436 L270.697417,124.11089 C270.722807,123.797541 270.769872,123.479858 270.842945,123.158459 C272.122349,122.038826 273.388748,121.6555 273.388748,121.6555 L274.307739,122.653757 L279.834688,130.971739 L279.639,132.156394 C278.307578,133.380683 277.080193,133.503917 277.080193,133.503917 C276.672716,133.357151 276.123427,133.056807 275.519023,132.630752 L275.876959,131.423803 Z" id="Fill-69" fill="#E53953"></path>
                <path d="M284.326596,127.653216 C281.22655,131.080234 279.281436,131.480899 279.281436,131.480899 C273.901872,128.362275 273.216963,122.996335 273.635587,122.611151 C278.608913,119.196518 282.851505,123.951243 282.851505,123.951243 L284.326596,127.653216 Z" id="Fill-71" fill="#FFFFFF"></path>
                <path d="M296.42947,131.213995 C303.632154,136.452367 314.684814,129.343193 310.000067,119.194661 C305.995273,110.519362 295.616993,116.038881 293.548025,118.310968 C291.478438,120.582436 292.75908,128.544339 296.42947,131.213995" id="Fill-73" fill="#E53953"></path>
                <path d="M296.42947,131.213995 C303.595617,133.020394 309.691672,127.399936 307.791144,122.117596 C306.007658,117.159133 299.553667,116.061794 295.0033,116.944248 C289.258989,118.058927 285.794195,122.995716 283.693644,123.176541 C282.597544,124.768674 283.382154,126.625853 284.326534,127.653216 C287.399952,126.869844 291.205342,129.896817 296.42947,131.213995" id="Fill-75" fill="#FFFFFF"></path>
                <path d="M307.74439,126.248968 C303.633083,130.542339 297.654069,128.944014 291.920904,126.48367 C286.187739,124.023326 283.895216,126.131927 283.895216,126.131927" id="Stroke-77" stroke="#D9E0EE" stroke-width="0.619266055" stroke-linecap="round" stroke-linejoin="round"></path>
                <path d="M281.565908,123.852904 L282.683064,127.852743 C282.919624,128.699899 283.806413,129.199647 284.653569,128.963087 L284.911803,128.890633 C285.758959,128.654073 286.258706,127.767284 286.022147,126.919509 L284.906229,122.920289 C284.66905,122.073133 283.782261,121.573385 282.935106,121.809945 L282.676872,121.88178 C281.829096,122.118959 281.329349,123.005748 281.565908,123.852904" id="Fill-79" fill="#E53953"></path>
                <path d="M296.763874,104.03156 C295.774906,103.801812 294.136328,103.728739 293.024126,105.554954 C291.662979,107.789266 291.680938,111.712317 293.318278,113.871697 C294.951901,116.026743 295.833736,115.102179 296.867291,114.926307 C298.128117,114.827225 298.789493,113.767041 298.789493,113.767041 L298.347956,104.587041 C298.347956,104.587041 297.581924,104.058807 296.763874,104.03156" id="Fill-81" fill="#E53953"></path>
                <path d="M318.197539,100.179291 C318.197539,100.179291 319.577264,104.25592 320.017562,105.34397 C320.017562,105.34397 322.129259,110.911791 322.654397,116.704406 C323.285429,123.643901 325.678892,131.400209 321.007149,135.100943 C313.228548,141.263259 305.369443,137.135851 298.957562,135.232846 C297.526438,132.230644 297.596415,129.444567 295.999328,121.003351 C295.320612,117.414085 294.715589,111.096333 294.530429,104.228672 C294.345888,97.3603922 303.942034,102.019131 303.942034,102.019131 L318.197539,100.179291" id="Fill-83" fill="#FFFFFF"></path>
                <path d="M312.960963,104.923612 C315.375482,109.976204 314.133234,118.48492 316.612775,123.218589" id="Stroke-85" stroke="#D9E0EE" stroke-width="0.619266055" stroke-linecap="round" stroke-linejoin="round"></path>
                <path d="M310.085959,129.34889 C305.250729,126.046344 305.719514,113.844326 302.302404,112.782284 C298.884055,111.719624 298.934835,111.915312 297.499995,111.125748 C296.065156,110.336803 295.704124,114.529234 295.819927,118.73467 C295.999514,125.290839 297.942151,130.70756 297.646142,132.711505 C297.332174,134.838064 297.646142,132.711505 297.646142,132.711505 C297.646142,132.711505 291.406417,130.363867 295.788344,132.112674 C304.340408,135.52545 312.097335,139.232995 312.097335,139.232995 L312.097335,128.979807 L310.085959,129.34889 Z" id="Fill-87" fill="#C2C7D0"></path>
                <path d="M320.01781,105.343908 C318.239897,97.8315917 317.276938,96.8073257 317.276938,96.8073257 L292.8407,98.9629908 C291.662236,102.412303 294.695401,107.077853 294.695401,107.077853 C306.018062,114.372188 316.795768,107.313174 320.01781,105.343908" id="Fill-89" fill="#100644"></path>
                <path d="M278.24336,69.2613807 C279.938911,65.5142018 282.48781,62.0828486 285.864048,59.2769541 C297.775011,49.3755092 315.458773,51.0047982 325.360218,62.9157615 C333.515952,72.7267936 333.84664,86.4522064 327.055149,96.5214725 C333.515952,72.7267936 298.789369,48.9401651 278.24336,69.2613807" id="Fill-91" fill="#100644"></path>
                <path d="M282.224436,98.7732477 C292.1265,110.684211 309.809642,112.3135 321.720606,102.412055 C333.632807,92.5106101 335.262096,74.8274679 325.360032,62.9158853 C315.458587,51.0043028 297.774826,49.3750138 285.863862,59.277078 C273.95228,69.1785229 272.322991,86.8616651 282.224436,98.7732477 Z" id="Stroke-93" stroke="#5E18E7" stroke-width="0.619266055"></path>
                <path d="M302.987993,107.579087 C307.39531,107.579087 311.907282,106.123812 314.763956,103.780509 C316.888039,102.037894 317.88258,100.013514 317.563658,98.0814037 C317.244736,96.1486743 315.653222,94.5509679 313.08203,93.5818165 C311.463268,92.9724587 309.524346,92.6504404 307.475195,92.6504404 C303.067878,92.6504404 298.555287,94.1057156 295.699232,96.4483991 C293.57453,98.191633 292.579989,100.215394 292.898911,102.148124 C293.217833,104.080853 294.809346,105.67856 297.380539,106.647092 C298.99992,107.25645 300.938842,107.579087 302.987993,107.579087" id="Fill-95" fill="#000000"></path>
                <path d="M307.474638,92.5074518 C303.035739,92.5074518 298.489087,93.9751124 295.608881,96.3382317 C293.442688,98.114906 292.430188,100.186351 292.75778,102.171099 C293.085372,104.157085 294.709087,105.793805 297.33044,106.780915 C298.965922,107.397085 300.922183,107.7222 302.988055,107.7222 C307.426954,107.7222 311.974225,106.254539 314.853812,103.89142 C317.020005,102.114745 318.032505,100.042681 317.705532,98.0579335 C317.377321,96.0725665 315.753606,94.4352271 313.132252,93.4487362 C311.496771,92.8325665 309.540509,92.5074518 307.474638,92.5074518 M307.474638,92.7935528 C309.453193,92.7935528 311.369821,93.0901812 313.031312,93.7162592 C318.245532,95.6799518 318.980601,100.13619 314.672367,103.670342 C311.737665,106.078048 307.2195,107.436099 302.988055,107.436099 C301.0095,107.436099 299.092872,107.138851 297.431381,106.513392 C292.217161,104.5497 291.482711,100.092842 295.790326,96.5593096 C298.725028,94.1509839 303.243812,92.7935528 307.474638,92.7935528" id="Fill-97" fill="#5E18E7"></path>
                <path d="M296.877571,99.691867 C291.787204,96.0425321 310.4878,96.9912477 310.4878,96.9912477 L315.904521,102.479803 C315.552158,102.884183 315.144681,103.282991 314.672181,103.670651 C310.811677,106.837578 304.211539,108.186959 299.129222,107.019023 C299.129222,107.019023 301.967938,103.341202 296.877571,99.691867" id="Fill-99" fill="#592015"></path>
                <path d="M307.38695,118.511734 C307.79195,118.704945 308.276835,118.532789 308.470665,118.127789 C308.663876,117.722789 308.491101,117.237284 308.086101,117.044693 C307.681101,116.850862 307.195596,117.023638 307.003005,117.428638 C306.809794,117.833638 306.98195,118.318523 307.38695,118.511734" id="Fill-101" fill="#D9E0EE"></path>
                <polygon id="Fill-103" fill="#BB2240" points="285.068601 139.956298 283.017592 135.118592 280.246995 131.436436 281.44156 130.899532 286.434702 138.885587"></polygon>
                <path d="M285.427218,138.748606 L283.877814,139.003743 C282.331507,137.615968 280.766002,135.579821 280.339328,133.221037 L281.79708,131.768239 L280.247057,131.436312 C280.272447,131.122963 280.319511,130.80528 280.392585,130.483881 C281.671989,129.363628 282.938388,128.980303 282.938388,128.980303 L283.857378,129.979179 L289.384328,138.297161 L289.18864,139.481197 C287.857218,140.705486 286.629833,140.829339 286.629833,140.829339 C286.222975,140.682573 285.673686,140.382229 285.068663,139.956174 L285.427218,138.748606 Z" id="Fill-105" fill="#E53953"></path>
                <path d="M293.876794,134.978576 C290.776128,138.404975 288.831014,138.80564 288.831014,138.80564 C283.45145,135.687635 282.767161,130.321076 283.185165,129.936511 C288.158491,126.521878 292.401083,131.276603 292.401083,131.276603 L293.876794,134.978576 Z" id="Fill-107" fill="#FFFFFF"></path>
                <path d="M305.97911,138.538736 C313.181794,143.777108 324.234454,136.668553 319.549706,126.520021 C315.544913,117.844722 305.166633,123.364241 303.097665,125.635709 C301.028697,127.907796 302.30872,135.86908 305.97911,138.538736" id="Fill-109" fill="#E53953"></path>
                <path d="M305.97911,138.538736 C313.145876,140.345755 319.241312,134.725296 317.341404,129.442956 C315.557298,124.484493 309.103307,123.386534 304.55294,124.269608 C298.808628,125.383667 295.343835,130.320456 293.243284,130.501901 C292.147803,132.093415 292.931794,133.951213 293.876794,134.978576 C296.949592,134.194585 300.754982,137.221557 305.97911,138.538736" id="Fill-111" fill="#FFFFFF"></path>
                <path d="M317.29403,133.574328 C313.182722,137.86708 307.203709,136.269374 301.470544,133.80903 C295.737378,131.348686 293.444856,133.457287 293.444856,133.457287" id="Stroke-113" stroke="#D9E0EE" stroke-width="0.619266055" stroke-linecap="round" stroke-linejoin="round"></path>
                <path d="M291.116106,131.178326 L292.232642,135.177546 C292.469202,136.024702 293.355991,136.52445 294.203147,136.28789 L294.461381,136.216055 C295.309156,135.979495 295.808904,135.092087 295.571725,134.244931 L294.455807,130.245711 C294.219248,129.398555 293.331839,128.898188 292.484683,129.135367 L292.22645,129.207202 C291.379294,129.443761 290.878927,130.33117 291.116106,131.178326" id="Fill-115" fill="#E53953"></path>
                <path d="M313.863296,112.334245 C313.863296,112.334245 308.354305,114.287411 302.302218,112.782594 C296.281094,111.284589 294.752745,109.269498 294.752745,109.269498" id="Stroke-117" stroke="#D9E0EE" stroke-width="0.619266055" stroke-linecap="round" stroke-linejoin="round"></path>
                <path d="M321.518229,111.824404 C320.952839,109.629106 318.293092,107.015183 315.653161,107.899495 C313.271463,108.697729 311.56972,110.776606 311.466303,113.609128 C311.363505,116.441032 312.999606,119.873005 314.91128,120.540573 C316.610546,121.13383 318.782931,120.539954 320.338528,118.648716 C321.893505,116.756858 322.083619,114.020321 321.518229,111.824404" id="Fill-119" fill="#E53953"></path>
                <path d="M302.122011,121.003351 C302.122011,121.003351 304.903755,114.72647 306.14786,113.609314 C310.017034,115.08936 312.237722,112.243833 315.398456,110.421952 C317.202378,109.327089 319.39458,110.721677 319.837975,113.352319 C320.281989,115.982961 319.054603,118.826011 317.03208,118.68358 C312.804351,118.313878 310.558892,123.997502 302.122011,121.003351" id="Fill-121" fill="#FFFFFF"></path>
                <g id="Group-126" transform="translate(301.582569, 113.146537)">
                    <path d="M0.539442661,7.85681422 C1.76620872,4.25640138 4.56529128,0.462777523 4.56529128,0.462777523" id="Fill-123" fill="#FFFFFF"></path>
                    <path d="M0.539442661,7.85681422 C1.76620872,4.25640138 4.56529128,0.462777523 4.56529128,0.462777523" id="Stroke-125" stroke="#878EA0" stroke-width="0.619266055"></path>
                </g>
                <path d="M307.131193,115.722064 C307.01539,117.633119 305.532248,119.874243 303.819977,120.72883 C302.107706,121.583417 300.81344,120.727592 300.929243,118.816537 C301.045665,116.906101 302.528188,114.664358 304.240459,113.809771 C305.953349,112.955183 307.246995,113.811628 307.131193,115.722064" id="Fill-127" fill="#D9E0EE"></path>
                <path d="M306.13275,116.219149 C306.054103,117.513415 305.049654,119.031856 303.889149,119.611489 C302.728644,120.190502 301.851764,119.611489 301.930411,118.317222 C302.009057,117.022956 303.013507,115.503897 304.174011,114.924264 C305.334516,114.34525 306.211397,114.924883 306.13275,116.219149" id="Fill-129" fill="#878EA0"></path>
                <path d="M315.76822,114.746596 C311.869321,118.534028 309.365009,118.094968 309.100583,118.31295 C308.837394,118.530312 308.474505,120.9535 306.416683,121.871252 C310.573817,121.980243 312.752394,119.592353 315.261661,118.870908 C316.272922,117.019922 316.077853,115.863133 315.76822,114.746596" id="Fill-131" fill="#D9E0EE"></path>
                <path d="M309.138915,118.568025 C310.413984,114.975663 307.935062,114.010227 307.935062,114.010227" id="Stroke-133" stroke="#D9E0EE" stroke-width="0.619266055" stroke-linecap="round" stroke-linejoin="round"></path>
                <path d="M315.54869,115.156612 C315.187039,113.205305 313.59119,112.284456 312.920525,112.067094" id="Stroke-135" stroke="#D9E0EE" stroke-width="0.619266055" stroke-linecap="round" stroke-linejoin="round"></path>
                <path d="M288.70617,81.6273188 L313.068716,78.3600711 L315.428119,95.9422729 C315.721032,98.1264243 314.948807,100.206539 313.511491,101.660576 C312.485367,102.697846 311.121124,103.416195 309.56367,103.624888 L298.747569,105.075209 C296.876766,105.326631 295.082133,104.7953 293.6925,103.733878 C292.302248,102.672456 291.316995,101.081562 291.066193,99.2113784 L288.70617,81.6273188 Z" id="Fill-137" fill="#F87D00"></path>
                <path d="M289.571594,88.0770367 L287.888429,75.5381376 C293.97953,74.7213257 295.157993,80.7616468 295.157993,80.7616468 C295.157993,80.7616468 295.662076,87.260844 289.571594,88.0770367" id="Fill-139" fill="#F87D00"></path>
                <path d="M313.934016,84.8101606 L312.25147,72.2706422 C306.160369,73.0874541 306.617388,79.225 306.617388,79.225 C306.617388,79.225 307.843534,85.6263532 313.934016,84.8101606" id="Fill-141" fill="#F87D00"></path>
                <path d="M304.79625,94.5756766 C304.541732,94.0331995 303.794278,93.6238647 302.735333,93.7656766 C301.676388,93.9081078 301.013773,94.5862041 300.961755,95.0902867 C301.103567,96.1492317 301.841732,97.8856537 303.262328,97.6949197 C304.683544,97.5041858 304.938062,95.6346216 304.79625,94.5756766" id="Fill-143" fill="#8E220A"></path>
                <path d="M296.996099,91.5978739 C297.064837,92.1118647 296.703805,92.5849839 296.189814,92.6537225 C295.675204,92.722461 295.202704,92.3614289 295.133346,91.8474381 C295.064608,91.332828 295.362475,90.3921628 295.876466,90.322805 C296.391076,90.2540665 296.92736,91.0832638 296.996099,91.5978739" id="Fill-145" fill="#8E220A"></path>
                <path d="M309.562865,89.9124174 C309.631603,90.4264083 309.270571,90.8995275 308.75658,90.9682661 C308.24197,91.0370046 307.76947,90.6759725 307.700112,90.1619817 C307.631374,89.6473716 307.929241,88.7067064 308.443851,88.6373486 C308.957842,88.5686101 309.494126,89.3978073 309.562865,89.9124174" id="Fill-147" fill="#8E220A"></path>
                <path d="M228.961548,117.941514 L244.648796,117.941514 L252.493039,139.961376 C252.493039,139.961376 252.493039,144.854197 236.805172,144.854197 C221.117305,144.854197 221.117305,139.961376 221.117305,139.961376 L228.961548,117.941514 Z" id="Fill-149" fill="#170762"></path>
                <path d="M247.815289,130.174433 L225.794807,130.174433 L217.232216,130.174433 C217.232216,130.174433 216.010404,121.008677 214.563179,107.913057 C214.029991,103.09269 213.467078,97.7385161 212.923362,92.1137225 C211.324417,75.5731261 210.51194,69.0714518 210.51194,54.4815436 C223.061986,24.510305 236.805358,37.3545023 236.805358,37.3545023 C236.805358,37.3545023 251.827514,22.3162454 263.718041,54.4815436 C263.718041,67.1250986 262.642376,73.6942729 261.315289,85.9854656 C261.110931,87.8785619 260.900381,89.9072775 260.686734,92.1143417 C260.367193,95.4187454 260.040839,98.6302592 259.718821,101.693768 C259.495885,103.806704 259.275427,105.849044 259.059303,107.804686 C257.607124,120.957897 256.377881,130.174433 256.377881,130.174433 L247.815289,130.174433 Z" id="Fill-151" fill="#FFFFFF"></path>
                <path d="M236.805172,60.5977248 C262.163498,60.5977248 263.717856,54.4812339 263.717856,54.4812339 C263.717856,32.8868073 236.805172,0.000247706422 236.805172,0.000247706422 C236.805172,0.000247706422 210.511755,33.8435734 210.511755,54.4812339 C210.511755,54.4812339 211.446846,60.5977248 236.805172,60.5977248 Z" id="Fill-153" fill="#8716EA"></path>
                <path d="M248.98242,60.5976628 C248.98242,67.3228922 243.530401,72.7749106 236.805172,72.7749106 C230.079943,72.7749106 224.627924,67.3228922 224.627924,60.5976628 C224.627924,53.8730528 230.079943,48.4210344 236.805172,48.4210344 C243.530401,48.4210344 248.98242,53.8730528 248.98242,60.5976628" id="Fill-155" fill="#013D52"></path>
                <path d="M236.805172,50.4046055 C231.184713,50.4046055 226.612053,54.9772661 226.612053,60.5977248 C226.612053,66.2181835 231.184713,70.7914633 236.805172,70.7914633 C242.425631,70.7914633 246.998291,66.2181835 246.998291,60.5977248 C246.998291,54.9772661 242.425631,50.4046055 236.805172,50.4046055 M236.805172,74.7578624 C228.997466,74.7578624 222.645654,68.4060505 222.645654,60.5977248 C222.645654,52.7900183 228.997466,46.4382064 236.805172,46.4382064 C244.612878,46.4382064 250.96469,52.7900183 250.96469,60.5977248 C250.96469,68.4060505 244.612878,74.7578624 236.805172,74.7578624" id="Fill-157" fill="#FFB000"></path>
                <polygon id="Fill-159" fill="#97B0B9" points="225.794931 130.174495 247.815413 130.174495 247.815413 119.165183 225.794931 119.165183"></polygon>
                <path d="M242.241894,81.318305 L231.368202,81.318305 C228.29045,81.318305 225.794807,83.813328 225.794807,86.8916995 L225.794807,119.16475 L247.815289,119.16475 L247.815289,86.8916995 C247.815289,83.813328 245.320266,81.318305 242.241894,81.318305 M242.241894,81.9375711 C244.972858,81.9375711 247.196023,84.1594977 247.196023,86.8916995 L247.196023,118.545484 L226.414073,118.545484 L226.414073,86.8916995 C226.414073,84.1594977 228.637239,81.9375711 231.368202,81.9375711 L242.241894,81.9375711" id="Fill-161" fill="#97B0B9"></path>
                <path d="M212.923486,92.1137225 C212.923486,92.1137225 202.621376,95.9686537 197.396009,107.23558 C192.170642,118.501888 203.035046,151.29636 203.035046,151.29636 L206.052729,151.29636 C206.052729,151.29636 202.028739,134.114204 202.431881,120.876154 C202.833784,107.637484 214.562683,107.913057 214.562683,107.913057 C214.562683,107.913057 217.983509,99.9276216 212.923486,92.1137225" id="Fill-162" fill="#5016B4"></path>
                <path d="M261.315165,85.985156 C261.315165,85.985156 271.617275,89.8407064 276.842642,101.107633 C282.068009,112.37394 271.203606,145.167794 271.203606,145.167794 L268.185922,145.167794 C268.185922,145.167794 272.209294,127.986257 271.806771,114.747587 C271.404867,101.509537 259.718697,101.693459 259.718697,101.693459 C259.718697,101.693459 256.255142,93.799055 261.315165,85.985156" id="Fill-163" fill="#5016B4"></path>
                <polygon id="Fill-164" fill="#6F98A2" points="257.667317 103.096034 253.362179 103.096034 250.929083 122.848144 255.203257 122.848144"></polygon>
                <path d="M289.379869,118.949617 L288.226796,118.446154 C288.226796,118.446154 288.226796,116.923998 292.978424,117.752576 C295.99425,118.278952 295.022002,116.299778 295.022002,116.299778 L293.958103,115.983333 C293.958103,115.983333 292.99019,115.711475 292.622966,116.342507 C292.255741,116.973539 292.962323,117.823172 291.8848,118.252943 C290.807897,118.682713 289.379869,118.949617 289.379869,118.949617" id="Fill-165" fill="#616A7B"></path>
                <path d="M295.455798,117.337915 C295.455798,117.337915 293.339766,120.466447 289.37956,118.949865 C290.887472,116.961401 292.974399,118.352892 292.997312,117.159567 C293.020225,115.966241 293.47167,113.70592 294.831578,114.542548 C296.268894,115.428099 295.455798,117.337915 295.455798,117.337915" id="Fill-166" fill="#878EA0"></path>
                <path d="M255.505892,103.591943 C255.505892,103.591943 253.293255,115.912241 266.118255,114.601255 C278.943255,113.290888 285.249241,112.610314 289.231122,115.559878 C293.213002,118.510062 291.160135,125.204947 291.160135,125.204947" id="Stroke-167" stroke="#5016B4" stroke-width="0.619266055"></path>
                <path d="M256.847842,103.591943 C256.847842,103.591943 254.635823,115.912241 267.460823,114.601255 C280.285823,113.290888 286.59181,112.610314 290.57369,115.559878 C294.554952,118.510062 292.502704,125.204947 292.502704,125.204947" id="Stroke-168" stroke="#F87D00" stroke-width="0.619266055"></path>
                <path d="M254.163385,103.591943 C254.163385,103.591943 251.950748,115.912241 264.775748,114.601255 C277.600748,113.290888 283.907353,112.610314 287.888615,115.559878 C291.870495,118.510062 289.817628,125.204947 289.817628,125.204947" id="Stroke-169" stroke="#E53953" stroke-width="0.619266055"></path>
                <path d="M288.497539,117.528463 L287.506094,116.992179 C287.506094,116.992179 289.277195,114.212913 292.364236,114.212913 C293.723525,114.212913 293.723525,114.230252 293.723525,114.230252 L293.957608,116.797729 C293.957608,116.797729 293.298709,116.79711 292.584076,116.667064 C291.868823,116.537018 291.844053,115.691101 290.772103,116.187133 C289.699534,116.683784 288.497539,117.528463 288.497539,117.528463" id="Fill-170" fill="#616A7B"></path>
                <path d="M293.957856,114.228333 C293.957856,114.228333 290.203865,113.79175 288.497787,117.528401 C290.999622,117.691268 291.470264,115.356016 292.347764,116.076222 C293.225264,116.797048 294.834117,117.349433 295.191433,115.871245 C295.569805,114.307599 293.957856,114.228333 293.957856,114.228333" id="Fill-171" fill="#878EA0"></path>
                <path d="M280.246933,110.308936 C280.246933,110.308936 277.369204,109.765839 277.599571,114.228271 C277.830557,118.690083 284.509342,116.519555 284.579938,115.274211 C284.524204,113.335289 285.214067,113.342101 285.214067,113.342101 L286.809296,113.550174 C286.809296,113.550174 286.237094,109.172583 280.246933,110.308936" id="Fill-172" fill="#FFFFFF"></path>
                <path d="M261.134959,141.486319 C261.134959,142.980608 259.923674,144.191892 258.429385,144.191892 C256.935096,144.191892 255.724431,142.980608 255.724431,141.486319 C255.724431,139.99203 256.935096,138.780745 258.429385,138.780745 C259.923674,138.780745 261.134959,139.99203 261.134959,141.486319" id="Fill-173" fill="#007BFF"></path>
                <path d="M336.543296,134.904759 C336.543296,136.399048 335.332011,137.610333 333.837722,137.610333 C332.344053,137.610333 331.132768,136.399048 331.132768,134.904759 C331.132768,133.41047 332.344053,132.199805 333.837722,132.199805 C335.332011,132.199805 336.543296,133.41047 336.543296,134.904759" id="Fill-174" fill="#007BFF"></path>
                <path d="M279.221862,139.956298 C279.221862,141.246849 278.175922,142.292789 276.885372,142.292789 C275.594202,142.292789 274.548261,141.246849 274.548261,139.956298 C274.548261,138.665748 275.594202,137.619807 276.885372,137.619807 C278.175922,137.619807 279.221862,138.665748 279.221862,139.956298" id="Fill-175" fill="#005CD0"></path>
                <path d="M299.345594,113.869096 C299.345594,113.869096 297.474172,113.870954 295.123438,116.141183 C297.453736,118.133362 299.783415,116.836619 299.783415,116.836619" id="Stroke-176" stroke="#878EA0" stroke-width="1.23853211"></path>
                <path d="M305.428211,115.763741 C305.428211,115.763741 302.849587,112.809222 301.186858,112.658741 C299.524128,112.508878 297.499748,113.654521 297.571583,114.014933 C297.644037,114.374727 297.704106,117.53608 298.92406,117.789979 C300.144633,118.045117 303.736376,121.621378 305.428211,115.763741" id="Fill-177" fill="#FFFFFF"></path>
            </g>
        </g>
    </g>
</svg>