<svg id="arts_and_design" xmlns="http://www.w3.org/2000/svg" viewBox="0 0 415 415"><defs><style>.cls-1{fill:#f4d03e;}.cls-2{fill:#1a0960;}.cls-20,.cls-3{fill:#471caf;}.cls-4{fill:#e09410;}.cls-5{fill:#220b6b;}.cls-11,.cls-6,.cls-7{fill:none;}.cls-6,.cls-7{stroke:#edaf00;}.cls-11,.cls-17,.cls-6,.cls-7{stroke-miterlimit:10;}.cls-7{stroke-dasharray:7.98 7.98;}.cls-17,.cls-8{fill:#fff;}.cls-9{fill:#521ee2;}.cls-10{fill:#a02ff7;}.cls-11{stroke:#a542b3;}.cls-12{fill:#f2bf40;}.cls-13{fill:#c6590e;}.cls-14{fill:#dd7c12;}.cls-15{fill:#7a270e;}.cls-16{fill:#47212d;}.cls-17{stroke:#471caf;}.cls-18{fill:#bcc8d3;}.cls-19{fill:#2b0e87;}.cls-20{fill-rule:evenodd;}</style></defs><title>arts-and-design</title><circle class="cls-1" cx="324.07" cy="77.67" r="20.27"/><path class="cls-2" d="M415,207.5c0,52-48.69,46.72-37.72,93.69C393.33,369.9,285.17,415,208.5,415c-35.34,0-21.31-19.68-33.85-22C98.54,378.68,20.07,342.18,44.53,279.32,54.3,254.2,0,236.15,0,207.5c0-25.37,25.43-39.95,12.79-87.27C34.55,89.55,79.26,70.86,76.85,31.76,114.35,42,149.82,0,207.5,0c-15.18,47.62,12.07,49.06,45,71.05C308.22,108.26,415,135.47,415,207.5Z"/><path class="cls-3" d="M12.79,120.23c2.93-12.39,16-38.62,28.36-54.72a25.83,25.83,0,1,0,35.7-33.75,161.3,161.3,0,0,1,15.81-9.49C121.45,7.14,172.71,0,207.5,0c42.9,0,77.67,14.65,98.63,51,32.66,56.69,81.45,35.93,92.15,74.76,4.13,15,3.52,26.37,3.52,40A227.22,227.22,0,0,1,83.6,374c-39-29.07,9.34-62.73-11.86-108.31C55.13,229.92,0,241.75,0,207.5c0-18.41,4.64-32,7.63-49.13C10.39,142.75,9.86,132.62,12.79,120.23Z"/><circle class="cls-4" cx="373.87" cy="81.08" r="3.41"/><circle class="cls-5" cx="350.86" cy="209.67" r="16.05"/><path class="cls-6" d="M27.23,77.67q-.39-1.9-.72-3.93"/><path class="cls-7" d="M25.6,65.81c-1.07-16.12,2.63-35.16,22-46.27,38.3-22,97.34,32.2,132,122.23s106.26,194.7,159.44,224c47.89,26.41,60.21-15.28,46-34.86"/><path class="cls-6" d="M382.37,327.9a22.14,22.14,0,0,0-3.09-2.53"/><path class="cls-8" d="M161.32,344.71a509.66,509.66,0,0,1-7.46,52.52h7.46l2,1.18v-8.93s3.8-19.42,8.86-31.53S161.32,344.71,161.32,344.71Z"/><path class="cls-2" d="M301,392.79c6.79-33,11.8-68.15,11.8-77.1,0-27.72-96-27.72-96,0,0,10.84,7.34,56.26,16.28,97.75A206.16,206.16,0,0,0,301,392.79Z"/><path class="cls-9" d="M298.71,335.29c-18.76,10.83-49.16,10.83-67.91,0-9.38-5.41-14.07-12.51-14.07-19.6s4.69-14.19,14.07-19.6c18.75-10.83,49.15-10.83,67.91,0,9.37,5.41,14.06,12.5,14.06,19.6S308.08,329.88,298.71,335.29Z"/><path d="M306.13,270.36,298,318c-8.39,11.88-17.51,15.87-38.05,15.87s-71.84-32.66-71.84-32.66c-3,33.43-22,78.14-22,78.14s-2.32,1.49-6.2,0-2.88-3.5-2.88-3.5l7.84-101.28c7.46-5.93,28.18-4.19,51.88-1.56C231.57,232.12,289.76,282.23,306.13,270.36Z"/><polygon class="cls-1" points="352.85 205.5 150.43 322.37 55.13 197.94 119.98 160.5 257.55 81.08 352.85 205.5"/><polygon class="cls-10" points="147.95 325.8 55.13 197.94 55.13 197.94 150.43 322.37 147.95 325.8"/><polygon class="cls-3" points="350.37 208.94 352.85 205.5 150.43 322.37 147.95 325.8 350.37 208.94"/><polyline class="cls-11" points="159.11 81.24 145.64 89.02 145.64 169.58 159.11 161.8"/><polyline class="cls-11" points="252.5 107.88 265.97 100.1 265.97 19.54 252.5 27.32"/><polygon class="cls-8" points="186.3 245.24 147.83 267.57 115.35 225.18 153.83 202.84 186.3 245.24"/><polygon class="cls-8" points="230.97 219.42 192.49 241.75 160.02 199.36 198.5 177.02 230.97 219.42"/><polyline class="cls-11" points="152.37 94.11 258.94 32.59 258.94 95.11 152.37 156.63 152.37 94.11"/><path d="M93.69,211.62c-12.65,0-33.07-21.3-6.87-26.93,35.75-7.67,24.44,16,24.44,16S98.57,204.53,93.69,211.62Z"/><path class="cls-8" d="M175.38,169.05c-3.84-2.88-15.32.91-15.32.91l-5-3.39-10.32,6.77a8.47,8.47,0,0,1,3.84-7.8c15.85-10.36,21.74-7.35,26-10.17s2.65-12.06,5-13.6,3.36,0,3.36,0c-.62,7.94,2.1,33.63,2.1,33.63S183,175.72,175.38,169.05Z"/><path class="cls-8" d="M270,51c-2-3.73-.07-14.22-.07-14.22L267.73,32l5.15-8.33s-2.89-1.37-6.06,2.09S258.36,44,255.33,47.35s-10.8.61-12.45,2.41-.46,2.91-.46,2.91c7,.57,28.92,8,28.92,8S274.75,58.53,270,51Z"/><path d="M254.44,133.8s-2.45-2.44,0-6.64,18.86-7,18.86-7c0,3.84,22,20.92,22,20.92-9.78,16.8-10.13,30.07-10.13,30.07l-2.51,22.45-11.44.73-17.87-24.77Z"/><path class="cls-8" d="M267.71,194.57,259.48,181l-13.77-4.93a150.82,150.82,0,0,0,1.76-16.47L245,158.25l5.39-10.13a23.2,23.2,0,0,1,4-14.32c0,8.38,7.33,20.26,7.33,20.26l-5.41,13.62,2.88,1.9s3.25-7.23,5.51-13,6.45-2.9,6.45,1.63S266,168,266,168l5.23,10.13,14-7v9.08Z"/><path class="cls-10" d="M305.89,286.65c-14.43,26.55-52.7,8.63-52.7,8.63,1.4-36.32-8.77-59.85-8.77-59.85s-38.49,12.58-66,14c-15.06-9.78-3.08-80.35-3.08-80.35a24.36,24.36,0,0,0,10.84,3s-1.6,34.12,3.87,52.78c20,.47,54.33-21.58,54.33-21.58a620.57,620.57,0,0,1,52.79-34.77c4.65-11.18,2.85-16.08,2.85-16.08A222.74,222.74,0,0,1,297.2,113c-11.49-13.89-33.71-52.79-33.71-52.79L270,51l44.11,58.43s10.37,34.24,9.9,80.34S305.89,286.65,305.89,286.65Z"/><line class="cls-11" x1="192.32" y1="71.05" x2="192.32" y2="133.57"/><line class="cls-11" x1="152.37" y1="125.41" x2="192.32" y2="102.31"/><path d="M165.15,394.25l-3.54,18.87c-29.14.3-44.94-10.87-44.94-10.87-.75-5.58,12.26-4.66,14.09-4.77a72.73,72.73,0,0,0,12.62-1.43c6.78-1.34,9.72-9,9.72-9,2.46-.76.68,8.15,5.19,9S161.81,391.58,165.15,394.25Z"/><polygon points="261.77 154.06 258.08 163.33 246.23 171.17 245.71 176.11 259.48 181.04 259.24 169.58 261.77 154.06"/><polygon points="247.47 159.65 250.4 161.04 250.4 166.3 246.57 161.96 247.47 159.65"/><path class="cls-12" d="M71.93,123.43s-1.19-4.13,2.42-6.11,6.85.66,6.85.66Z"/><path class="cls-13" d="M92.62,199.22s-4,4.09-18-7.46c-12.09-9.95-16.36-29.94-.41-45.89,22.1-22.09-4.51-33.24-2.26-22.44C69.27,112.78,89.33,107,97.75,108.8c10.6,2.3,20.9,19.87,8.4,40.76S84,198.2,92.62,199.22Z"/><path class="cls-14" d="M105.9,155.42a3.07,3.07,0,0,0,.65-6.07c-.2,0-16.47-3.88-15.55-12.9a3.08,3.08,0,1,0-6.12-.62c-.44,4.36,1,10.62,10.1,15.63a42.22,42.22,0,0,0,10.27,3.89A2.94,2.94,0,0,0,105.9,155.42Z"/><path class="cls-14" d="M83.3,180.36c6.46-12.17,18.29-28.4,26-29.21s10.39,4.19,9.38,9c-.77,3.69-3,5.55-5.08,7.48-2.48,2.3-4.77,4.71-4.2,10.44,1,10.55-14.7,16.51-18.71,11.48S83.3,180.36,83.3,180.36Z"/><path class="cls-14" d="M118.31,185.41c-1.43-8.83-7.23-13.83-8.46-24.07,0,0-13.11,25.81-11.06,31.14s9.63,2.46,11.47,3.68,1,4.51,1,4.51c2.46,2.67,7.53,2,8.9,1.44.48-.89-.14-4.11-2.74-4.86C117.28,194.32,119.68,193.83,118.31,185.41Z"/><path class="cls-12" d="M111.92,162.49c-8,1.51-10.15,8.62-9.34,19.65,1.06,14.3-2.36,15.05-4,16.69,9.7.13,16.43-4.87,14.75-18-1.22-9.59-2.08-11.06.3-13.17S116,161.72,111.92,162.49Z"/><path class="cls-14" d="M104.4,185.07c.85,13.74-12.21,16.77-12.62,20.87a4.12,4.12,0,0,1,1.91,5.68,10.53,10.53,0,0,1-9.59-3.26,29,29,0,0,0,.69-4.76c-1.18-4.21-6.83-12.3-1.49-23.24C89.62,167.41,103.58,171.8,104.4,185.07Z"/><path class="cls-14" d="M105.68,134.69H128.9a0,0,0,0,1,0,0v13.69a9.53,9.53,0,0,1-9.53,9.53h-4.15a9.53,9.53,0,0,1-9.53-9.53V134.69a0,0,0,0,1,0,0Z" transform="translate(-23.62 22.59) rotate(-10)"/><path class="cls-14" d="M104.91,142.93l-2.08-11.77c5.72-1,7.07,4.65,7.07,4.65S110.62,141.93,104.91,142.93Z"/><path class="cls-14" d="M127.78,138.9l-2.08-11.77c-5.72,1-5,6.78-5,6.78S122.06,139.91,127.78,138.9Z"/><path class="cls-15" d="M119.53,148.48a1.78,1.78,0,0,0-2-.69,1.84,1.84,0,0,0-1.62,1.32c.18,1,.94,2.61,2.27,2.37S119.71,149.47,119.53,148.48Z"/><path class="cls-15" d="M112.05,146a.88.88,0,0,1-.72,1,.9.9,0,0,1-1-.72c-.08-.49.16-1.39.65-1.47S112,145.49,112.05,146Z"/><path class="cls-15" d="M105,148.41a.9.9,0,0,1-1-.72c-.08-.48.16-1.38.64-1.47"/><path class="cls-15" d="M123.85,143.89a.9.9,0,0,1-.72,1,.89.89,0,0,1-1-.72c-.09-.49.16-1.39.64-1.47S123.76,143.41,123.85,143.89Z"/><path class="cls-16" d="M117.72,140.87l.24,1.37-2.94.51-.24-1.37-12.93,2.28.69,3.92a3.62,3.62,0,0,0,4.18,2.93l5.82-1a3.61,3.61,0,0,0,2.93-4.18l-.25-1.39,2.94-.52.25,1.39a3.61,3.61,0,0,0,4.18,2.93l5.81-1a3.6,3.6,0,0,0,2.93-4.17l-.69-3.92Zm-3.41,4.64a2.44,2.44,0,0,1-2,2.82l-5.82,1a2.44,2.44,0,0,1-2.82-2l-.49-2.77,10.61-1.87Zm15.86-2.8a2.43,2.43,0,0,1-2,2.82l-5.82,1a2.43,2.43,0,0,1-2.82-2l-.48-2.76L129.69,140Z"/><path class="cls-14" d="M133.83,171.72c1.62,0,2.14-1.11,2.23-2.74a12.06,12.06,0,0,0-.89-5c-7.78,1.78-16.52-7.75-16.59-7.84a3.07,3.07,0,0,0-4.76,3.89c.37.45,9.19,11.1,19.84,11.68Z"/><polyline class="cls-11" points="92.66 136.97 132.9 113.73 132.9 167.34 92.66 190.58 92.66 136.97"/><circle class="cls-17" cx="55.13" cy="349.54" r="36.15"/><circle class="cls-9" cx="375.06" cy="53.29" r="3.41"/><circle class="cls-18" cx="303.72" cy="23.43" r="3.41"/><circle class="cls-18" cx="153.72" cy="43.43" r="3.41"/><circle class="cls-19" cx="53.72" cy="143.43" r="3.41"/><circle class="cls-18" cx="243.72" cy="373.43" r="3.41"/><path class="cls-3" d="M49.71,370.65H46.59a3.06,3.06,0,0,1-3.06-3.06V330.85a3.06,3.06,0,0,1,3.06-3.06h3.12a3.06,3.06,0,0,1,3.06,3.06v36.74A3.06,3.06,0,0,1,49.71,370.65Zm-3.12-41.86a2.06,2.06,0,0,0-2.06,2.06v36.74a2.06,2.06,0,0,0,2.06,2.06h3.12a2.06,2.06,0,0,0,2.06-2.06V330.85a2.06,2.06,0,0,0-2.06-2.06Z"/><path class="cls-3" d="M52.27,334.5H47.83a.5.5,0,1,1,0-1h4.44a.5.5,0,0,1,0,1Z"/><path class="cls-3" d="M52.27,337.67H49.74a.5.5,0,0,1,0-1h2.53a.5.5,0,0,1,0,1Z"/><path class="cls-3" d="M52.27,340.84H49.74a.5.5,0,0,1-.5-.5.5.5,0,0,1,.5-.5h2.53a.5.5,0,0,1,.5.5A.5.5,0,0,1,52.27,340.84Z"/><path class="cls-3" d="M52.27,344H49.74a.5.5,0,0,1-.5-.5.5.5,0,0,1,.5-.5h2.53a.5.5,0,0,1,.5.5A.5.5,0,0,1,52.27,344Z"/><path class="cls-3" d="M52.27,347.18H49.74a.5.5,0,0,1-.5-.5.5.5,0,0,1,.5-.5h2.53a.5.5,0,0,1,.5.5A.5.5,0,0,1,52.27,347.18Z"/><path class="cls-3" d="M52.27,350.36H47.83a.51.51,0,0,1-.5-.5.5.5,0,0,1,.5-.5h4.44a.5.5,0,0,1,.5.5A.5.5,0,0,1,52.27,350.36Z"/><path class="cls-3" d="M52.27,353.53H49.74a.5.5,0,0,1-.5-.5.5.5,0,0,1,.5-.5h2.53a.5.5,0,0,1,.5.5A.5.5,0,0,1,52.27,353.53Z"/><path class="cls-3" d="M52.27,356.7H49.74a.5.5,0,0,1,0-1h2.53a.5.5,0,0,1,0,1Z"/><path class="cls-3" d="M52.27,359.87H49.74a.5.5,0,0,1,0-1h2.53a.5.5,0,0,1,0,1Z"/><path class="cls-3" d="M52.27,363H49.74a.5.5,0,0,1-.5-.5.5.5,0,0,1,.5-.5h2.53a.5.5,0,0,1,.5.5A.5.5,0,0,1,52.27,363Z"/><path class="cls-3" d="M52.27,366.21H47.83a.5.5,0,0,1-.5-.5.51.51,0,0,1,.5-.5h4.44a.5.5,0,0,1,.5.5A.5.5,0,0,1,52.27,366.21Z"/><path class="cls-3" d="M66.23,349.7a.5.5,0,0,1-.5-.5V337.83c0-1.51-2.38-8.73-3.36-9h-.56c-1,.31-3.33,7.52-3.33,9V349.2a.5.5,0,0,1-.5.5.5.5,0,0,1-.5-.5V337.83c0-1.1,2.27-10,4.33-10h.59c2.06,0,4.33,8.94,4.33,10V349.2A.5.5,0,0,1,66.23,349.7Z"/><path class="cls-3" d="M63.67,371.29H60.54a3.07,3.07,0,0,1-3.06-3.06v-30.4c0-.52.24-.69.44-.75.48-.14.76.28,1.35,1.21.42.65,1.4,2.19,1.91,2.19H63c.51,0,1.49-1.54,1.91-2.19.59-.93.86-1.35,1.35-1.21.2.06.44.23.44.75v30.4A3.07,3.07,0,0,1,63.67,371.29Zm-5.19-32.37v29.31a2.07,2.07,0,0,0,2.06,2.06h3.13a2.07,2.07,0,0,0,2.06-2.06V338.91c-.75,1.17-1.67,2.57-2.7,2.57H61.18C60.15,341.48,59.23,340.08,58.48,338.92Z"/><path class="cls-20" d="M64.69,332s-2.48,2.49-4.91,0c.84-3.7,2-3.75,2-3.75h.63s2,3.07,2.27,3.75"/><path class="cls-3" d="M63.19,341a.5.5,0,0,1,1,0v29.38a.5.5,0,0,1-1,0"/><path class="cls-3" d="M60,341a.5.5,0,0,1,1,0v29.38a.5.5,0,0,1-1,0"/><path class="cls-14" d="M92.72,140.54a3.14,3.14,0,0,0,1.26-.27c1.54-.7,2.91-4,2.91-5.75-3-3.56-7-2.46-10.07-1.24L89.06,139h0a2.71,2.71,0,0,1,.94-.15A3.11,3.11,0,0,0,92.72,140.54Z"/></svg>