<?xml version="1.0" encoding="UTF-8"?>
<svg width="1110px" height="356px" viewBox="0 0 1110 356" version="1.1" xmlns="http://www.w3.org/2000/svg" xmlns:xlink="http://www.w3.org/1999/xlink">
    <!-- Generator: Sketch 55.2 (78181) - https://sketchapp.com -->
    <title>STONES</title>
    <desc>Created with Sketch.</desc>
    <defs>
        <polygon id="path-1" points="0 0.0181333333 76.5174171 0.0181333333 76.5174171 67.4961447 0 67.4961447"></polygon>
        <polygon id="path-3" points="8.50391063e-05 0.00463309353 64.6946512 0.00463309353 64.6946512 69.4963687 8.50391063e-05 69.4963687"></polygon>
        <polygon id="path-5" points="0 0.43586755 13.0793098 0.43586755 13.0793098 14.0252715 0 14.0252715"></polygon>
        <polygon id="path-7" points="0 0.43586755 13.0793098 0.43586755 13.0793098 14.0252715 0 14.0252715"></polygon>
        <polygon id="path-9" points="9.31287101e-08 0.127312752 37.9841332 0.127312752 37.9841332 37.8724832 9.31287101e-08 37.8724832"></polygon>
        <polygon id="path-11" points="0.0559343284 0.0362666667 18.7053565 0.0362666667 18.7053565 5.35181636 0.0559343284 5.35181636"></polygon>
        <polygon id="path-13" points="0 0.0751303818 26.992493 0.0751303818 26.992493 16.5878788 0 16.5878788"></polygon>
    </defs>
    <g id="Desktop" stroke="none" stroke-width="1" fill="none" fill-rule="evenodd">
        <g id="9.0-D-ERROR-505" transform="translate(-145.000000, -132.000000)">
            <g id="STONES" transform="translate(145.000000, 132.000000)">
                <path d="M932.9066,349 C929.034143,349 929.028125,355.039735 932.9066,355.039735 C936.778555,355.039735 936.785075,349 932.9066,349" id="Fill-6" fill="#5E18E7"></path>
                <g id="Group-28" transform="translate(117.000000, 65.000000)">
                    <path d="M6.5434,54.1436148 C18.3319,66.3569185 41.4009,67.6489185 41.4009,67.6489185 L41.4009,60.8962667 L6.5434,54.1436148 Z" id="Fill-1" fill="#170762"></path>
                    <g id="Group-5" transform="translate(0.000000, 0.485570)">
                        <mask id="mask-2" fill="white">
                            <use xlink:href="#path-1"></use>
                        </mask>
                        <g id="Clip-4"></g>
                        <path d="M24.56925,59.4117511 C-1.84425,56.0726993 5.98625,48.77504 1.76275,36.86144 C-2.46075,24.9488474 -0.17475,0.271395556 20.64375,5.37744 C34.95675,8.88724741 44.42025,-0.674056296 53.60325,0.0583288889 C57.77725,0.391277037 57.49825,4.12724741 61.98575,10.9081067 C64.26025,14.3453807 70.59075,16.6689659 72.14225,20.318803 C80.38275,39.708877 77.77175,60.493203 57.51175,65.6375289 C33.43825,71.7499733 36.82075,60.9601363 24.56925,59.4117511" id="Fill-3" fill="#5E18E7" mask="url(#mask-2)"></path>
                    </g>
                    <path d="M75.819,47.5010222 C72.1645,54.6762815 67.648,53.9403704 45.686,39.3118074 C23.7245,24.6832444 6.0965,53.6764296 0.386,31.5749185 C0.6885,33.6773778 1.159,35.6433333 1.763,37.347363 C5.986,49.2604593 -1.8445,56.5581185 24.569,59.8971704 C36.8205,61.4460593 33.4385,72.2353926 57.5115,66.1234519 C68.1685,63.4175556 73.939,56.3828296 75.819,47.5010222" id="Fill-6" fill="#3A18B2"></path>
                    <path d="M60.50165,44.5382874 C60.50165,48.744717 57.11665,52.1547911 52.94115,52.1547911 C48.76565,52.1547911 45.38065,48.744717 45.38065,44.5382874 C45.38065,40.3313541 48.76565,36.92128 52.94115,36.92128 C57.11665,36.92128 60.50165,40.3313541 60.50165,44.5382874" id="Fill-8" fill="#3A18B2"></path>
                    <path d="M28.4179,36.3639319 C28.4179,39.4652356 25.9219,41.9792207 22.8439,41.9792207 C19.7649,41.9792207 17.2694,39.4652356 17.2694,36.3639319 C17.2694,33.2631319 19.7649,30.7491467 22.8439,30.7491467 C25.9219,30.7491467 28.4179,33.2631319 28.4179,36.3639319" id="Fill-10" fill="#5E18E7"></path>
                    <path d="M43.57465,24.0182548 C40.67915,24.0182548 40.67415,28.5515881 43.57465,28.5515881 C46.47015,28.5515881 46.47465,24.0182548 43.57465,24.0182548" id="Fill-12" fill="#3A18B2"></path>
                    <path d="M38.08415,14.1375022 C36.15365,14.1375022 36.15065,17.1597244 38.08415,17.1597244 C40.01465,17.1597244 40.01765,14.1375022 38.08415,14.1375022" id="Fill-14" fill="#3A18B2"></path>
                    <path d="M35.1674,43.455123 C31.6069,43.455123 31.6009,49.0291081 35.1674,49.0291081 C38.7279,49.0291081 38.7334,43.455123 35.1674,43.455123" id="Fill-16" fill="#5E18E7"></path>
                    <path d="M14.663,15.810957 C11.7675,15.810957 11.7625,20.3442904 14.663,20.3442904 C17.5585,20.3442904 17.5635,15.810957 14.663,15.810957" id="Fill-18" fill="#BA2BFC"></path>
                    <path d="M31.7691545,25 C30.7445709,25 30.7426599,26.604248 31.7691545,26.604248 C32.7937382,26.604248 32.7956491,25 31.7691545,25" id="Fill-20" fill="#BA2BFC"></path>
                    <path d="M24.4362,28.0233037 C24.1142,28.0233037 24.1137,28.5270074 24.4362,28.5270074 C24.7582,28.5270074 24.7587,28.0233037 24.4362,28.0233037" id="Fill-22" fill="#BA2BFC"></path>
                    <path d="M59.4913354,31.3873896 C57.8604451,31.3873896 57.857065,33.9412303 59.4913354,33.9412303 C61.1230708,33.9412303 61.1256059,31.3873896 59.4913354,31.3873896" id="Fill-24" fill="#BA2BFC"></path>
                    <path d="M63.17985,40.8810459 C62.21485,40.8810459 62.21285,42.392157 63.17985,42.392157 C64.14535,42.392157 64.14685,40.8810459 63.17985,40.8810459" id="Fill-26" fill="#BA2BFC"></path>
                </g>
                <g id="Group-30" transform="translate(164.000000, 0.000000)">
                    <path d="M772.761626,225 C763.753626,225 763.738626,238 772.761626,238 C781.769626,238 781.784626,225 772.761626,225" id="Fill-27" fill="#5E18E7"></path>
                    <path d="M70.7616262,339 C61.7536262,339 61.7386262,352 70.7616262,352 C79.7696262,352 79.7846262,339 70.7616262,339" id="Fill-27" fill="#5E18E7"></path>
                    <g id="Group-26" transform="translate(269.000000, 0.000000)">
                        <path d="M315,113 C316.606,121.993385 322.3165,131.64041 330.1455,132.48321 C337.9745,133.326513 354.124,129.397467 356.1515,129.164277 C358.179,128.931087 349.4385,111.686103 349.4385,111.686103 L315,113 Z" id="Fill-1" fill="#170762"></path>
                        <path d="M320.6722,118.791602 C297.0082,105.279664 351.6532,99.3886072 360.9272,110.974217 C370.2012,122.56033 371.0962,147.581992 320.6722,118.791602" id="Fill-3" fill="#5E18E7"></path>
                        <path d="M336.02205,111.350789 C322.41955,108.203732 315.38705,112.551917 314.82205,112.921804 C315.10005,114.655148 316.87855,116.625199 320.67205,118.791753 C338.11055,128.748553 349.40805,132.266502 356.34705,132.132819 C344.96555,132.227302 349.98505,114.581271 336.02205,111.350789" id="Fill-5" fill="#3A18B2"></path>
                        <path d="M282.7525,138.911764 C282.7525,142.729241 279.674,145.823528 275.8765,145.823528 C272.0785,145.823528 269,142.729241 269,138.911764 C269,135.094287 272.0785,132 275.8765,132 C279.674,132 282.7525,135.094287 282.7525,138.911764" id="Fill-7" fill="#5E18E7"></path>
                        <path d="M446.454734,0 C457.874234,0 465.708234,25.3895385 446.454734,14.5080205 C435.329234,8.22044103 435.035234,0 446.454734,0 Z" id="Fill-11" fill="#3A18B2"></path>
                        <path d="M4.60530186,184 C-1.52977096,184 -1.54042797,192.54359 4.60530186,192.54359 C10.7409356,192.54359 10.7510317,184 4.60530186,184" id="Fill-15" fill="#5E18E7"></path>
                        <path d="M104.6644,30.4185897 C101.4469,30.4185897 101.4419,35.4442308 104.6644,35.4442308 C107.8819,35.4442308 107.8869,30.4185897 104.6644,30.4185897" id="Fill-17" fill="#170762"></path>
                        <path d="M22.44905,33.6882215 C20.51855,33.6882215 20.51555,36.7036062 22.44905,36.7036062 C24.37905,36.7036062 24.38255,33.6882215 22.44905,33.6882215" id="Fill-19" fill="#170762"></path>
                        <g id="Group-23" transform="translate(429.500000, 81.000000)" fill="#5E18E7">
                            <path d="M4.449,-1.27009514e-13 C-0.812244549,-1.27009514e-13 -0.820420531,8.21791032 4.449,8.21791032 C9.71024455,8.21791032 9.71842053,-1.27009514e-13 4.449,-1.27009514e-13" id="Fill-21"></path>
                        </g>
                        <path d="M370.1844,81.0426164 C368.2539,81.0426164 368.2509,84.058001 370.1844,84.058001 C372.1149,84.058001 372.1179,81.0426164 370.1844,81.0426164" id="Fill-24" fill="#5E18E7"></path>
                    </g>
                    <g id="Group-29" transform="translate(0.000000, 185.944000)" fill="#5E18E7">
                        <path d="M6.76162617,0.056 C-2.24637383,0.056 -2.26137383,13.056 6.76162617,13.056 C15.7696262,13.056 15.7846262,0.056 6.76162617,0.056" id="Fill-27"></path>
                    </g>
                </g>
                <g id="Group-30" transform="translate(1045.000000, 142.000000)">
                    <g id="Group-3" transform="translate(0.000000, 0.499065)">
                        <mask id="mask-4" fill="white">
                            <use xlink:href="#path-3"></use>
                        </mask>
                        <g id="Clip-2"></g>
                        <path d="M21.4998333,0.00463309353 C-1.52175581,0.00463309353 1.76653876,17.9805324 0.122391473,31.4537698 C-1.52175581,44.9270072 13.7537481,42.1879424 25.3005698,50.4051367 C36.8473915,58.6228345 39.0402597,76.153554 53.2918876,66.8405324 C67.5435155,57.5275108 67.5435155,32.3199568 58.2253372,25.2016115 C48.906655,18.0827626 36.8473915,0.00463309353 21.4998333,0.00463309353" id="Fill-1" fill="#5E18E7" mask="url(#mask-4)"></path>
                    </g>
                    <path d="M53.2917868,67.3394964 C57.7591512,64.4201439 60.8252364,59.9386331 62.6442287,54.942446 C60.0371744,59.8404317 55.9900426,51.2656835 46.7968256,44.0118705 C37.0589186,36.3279856 10.7218256,43.195036 1.6843062,39.3641727 C5.78484884,44.7385612 16.5995388,44.7118705 25.3009729,50.9041007 C36.8477946,59.1223022 39.0401589,76.652518 53.2917868,67.3394964" id="Fill-4" fill="#3A18B2"></path>
                    <path d="M63.7348682,51.2568705 C63.5968062,51.6738489 63.4899845,52.0867986 63.4174264,52.4957194 C63.5313023,52.0847842 63.6366124,51.6718345 63.7348682,51.2568705" id="Fill-6" fill="#3A18B2"></path>
                    <path d="M49.2255581,44.0117698 C49.2255581,47.5157986 46.3831938,50.3565899 42.8772248,50.3565899 C39.3712558,50.3565899 36.5288915,47.5157986 36.5288915,44.0117698 C36.5288915,40.507741 39.3712558,37.6669496 42.8772248,37.6669496 C46.3831938,37.6669496 49.2255581,40.507741 49.2255581,44.0117698" id="Fill-8" fill="#5E18E7"></path>
                    <path d="M31.9006395,27.5789424 C26.7132364,27.5789424 26.7041667,35.6364964 31.9006395,35.6364964 C37.0880426,35.6364964 37.0966085,27.5789424 31.9006395,27.5789424" id="Fill-10" fill="#3A18B2"></path>
                    <path d="M30.198093,15.3819712 C27.9286357,15.3819712 27.9246047,18.9071511 30.198093,18.9071511 C32.4675504,18.9071511 32.4715814,15.3819712 30.198093,15.3819712" id="Fill-12" fill="#3A18B2"></path>
                    <path d="M18.7066473,7.62979856 C17.4096705,7.62979856 17.407655,9.64418705 18.7066473,9.64418705 C20.003624,9.64418705 20.0056395,7.62979856 18.7066473,7.62979856" id="Fill-14" fill="#3A18B2"></path>
                    <path d="M46.3713527,56.5657914 C43.453407,56.5657914 43.4488721,61.0981655 46.3713527,61.0981655 C49.2892984,61.0981655 49.2943372,56.5657914 46.3713527,56.5657914" id="Fill-16" fill="#5E18E7"></path>
                    <path d="M9.76133721,25.6570144 C8.78885659,25.6570144 8.78684109,27.1678058 9.76133721,27.1678058 C10.7343217,27.1678058 10.7358333,25.6570144 9.76133721,25.6570144" id="Fill-18" fill="#BA2BFC"></path>
                    <path d="M19.962155,21.7900432 C18.9896744,21.7900432 18.9876589,23.3008345 19.962155,23.3008345 C20.9346357,23.3008345 20.9366512,21.7900432 19.962155,21.7900432" id="Fill-20" fill="#BA2BFC"></path>
                    <path d="M20.8137671,30.6265612 C18.8155421,30.6265612 18.8119929,33.6265612 20.8137671,33.6265612 C22.8119921,33.6265612 22.8155413,30.6265612 20.8137671,30.6265612" id="Fill-22" fill="#BA2BFC"></path>
                    <path d="M42.1223682,35.1491151 C41.1493837,35.1491151 41.1478721,36.6599065 42.1223682,36.6599065 C43.0948488,36.6599065 43.0968643,35.1491151 42.1223682,35.1491151" id="Fill-24" fill="#BA2BFC"></path>
                    <path d="M44.9362132,45.1448633 C44.6117171,45.1448633 44.6112132,45.6484604 44.9362132,45.6484604 C45.2607093,45.6484604 45.2612132,45.1448633 44.9362132,45.1448633" id="Fill-26" fill="#BA2BFC"></path>
                    <path d="M54.7851744,45.1448633 C54.4606783,45.1448633 54.4601744,45.6484604 54.7851744,45.6484604 C55.1096705,45.6484604 55.1101744,45.1448633 54.7851744,45.1448633" id="Fill-28" fill="#BA2BFC"></path>
                </g>
                <g id="Group-10" transform="translate(155.000000, 175.000000)">
                    <g id="Group-3" transform="translate(0.000000, 4.101483)">
                        <mask id="mask-6" fill="white">
                            <use xlink:href="#path-5"></use>
                        </mask>
                        <g id="Clip-2"></g>
                        <path d="M-7.46033825,42.8985166 C-16.1726142,42.8985166 -16.1871572,56.4879205 -7.46033825,56.4879205 C1.25193771,56.4879205 1.26648074,42.8985166 -7.46033825,42.8985166" id="Fill-1" fill="#8E220A" mask="url(#mask-6)"></path>
                    </g>
                    <path d="M81.0920172,0.000150993377 C75.2838332,0.000150993377 75.2738036,9.05975364 81.0920172,9.05975364 C86.9002012,9.05975364 86.9097294,0.000150993377 81.0920172,0.000150993377" id="Fill-4" fill="#5E18E7"></path>
                    <path d="M111.5907,69.5318464 C107.718243,69.5318464 107.712225,75.5715815 111.5907,75.5715815 C115.462655,75.5715815 115.469175,69.5318464 111.5907,69.5318464" id="Fill-6" fill="#5E18E7"></path>
                    <path d="M167.504927,64.2396795 C165.568698,64.2396795 165.565689,67.259547 167.504927,67.259547 C169.441155,67.259547 169.444164,64.2396795 167.504927,64.2396795" id="Fill-8" fill="#5E18E7"></path>
                </g>
                <g id="Group-10-Copy" transform="translate(194.500000, 68.500000) scale(1, -1) translate(-194.500000, -68.500000) translate(100.000000, 16.000000)">
                    <g id="Group-3" transform="translate(0.000000, 11.101483)">
                        <mask id="mask-8" fill="white">
                            <use xlink:href="#path-7"></use>
                        </mask>
                        <g id="Clip-2"></g>
                    </g>
                    <path d="M80.3598999,0.940397351 C74.5517159,0.940397351 74.5416863,10 80.3598999,10 C86.1680839,10 86.1776121,0.940397351 80.3598999,0.940397351" id="Fill-4" fill="#5E18E7"></path>
                    <path d="M111.5907,76.5318464 C107.718243,76.5318464 107.712225,82.5715815 111.5907,82.5715815 C115.462655,82.5715815 115.469175,76.5318464 111.5907,76.5318464" id="Fill-6" fill="#5E18E7"></path>
                    <path d="M187.504927,101.239679 C185.568698,101.239679 185.565689,104.259547 187.504927,104.259547 C189.441155,104.259547 189.444164,101.239679 187.504927,101.239679" id="Fill-8" fill="#5E18E7"></path>
                </g>
                <g id="Group-36" transform="translate(0.000000, 27.000000)">
                    <polygon id="Fill-1" fill="#170762" points="14.5755208 0.12752953 11.501534 8.16899262 24.4727023 9.03240872"></polygon>
                    <g id="Group-35" transform="translate(0.000000, 0.000255)">
                        <path d="M0.138656106,18.2096765 C4.77603564,25.7406899 22.2229267,37.452851 27.0501809,37.4448216 C31.877435,37.4366564 21.3770191,17.4427906 21.3770191,17.4427906 L3.63540858,14.7107436 L0.138656106,18.2096765 Z" id="Fill-2" fill="#170762"></path>
                        <g id="Group-6">
                            <mask id="mask-10" fill="white">
                                <use xlink:href="#path-9"></use>
                            </mask>
                            <g id="Clip-5"></g>
                            <path d="M37.2404389,26.7285879 C35.4654752,26.999306 33.8107822,25.7556349 33.5445314,23.9507624 C33.2816667,22.1678228 34.4732112,20.5069168 36.2133102,20.2058497 C35.4011386,14.4176081 35.1360165,8.73431275 30.2416667,2.50907114 C29.6381815,1.74154765 28.4924125,1.83284966 27.9592838,2.6524 C24.6683333,7.71188322 15.2843399,8.67731275 14.5755083,0.127312752 C8.66694719,1.02821879 -6.02212211,19.7572456 2.70019472,18.9489168 C18.5048086,17.4841315 20.7143267,34.6390913 27.0501683,37.444843 C31.2207624,39.2916685 39.9740561,35.0582389 37.5747888,26.6590913 C37.4656799,26.687655 37.3543135,26.7112456 37.2404389,26.7285879" id="Fill-4" fill="#5E18E7" mask="url(#mask-10)"></path>
                        </g>
                        <path d="M37.684901,31.6439007 C36.0154092,36.7563034 28.998703,32.6250148 25.7831254,24.4949275 C22.5662937,16.3613973 12.9744917,17.555847 4.40542904,18.8623839 L4.40768647,18.8688872 C18.6696007,18.7522094 20.9507294,34.7438336 27.0501683,37.4447664 C30.2884455,38.8788201 36.2869274,36.6452362 37.684901,31.6439007" id="Fill-7" fill="#3A18B2"></path>
                        <path d="M28.4221314,25.9225161 C28.5775175,26.9756772 27.8636693,27.9574289 26.8280125,28.1152946 C25.7922304,28.2732879 24.8266792,27.5475899 24.6712931,26.4944289 C24.5160323,25.4412678 25.2297551,24.4595161 26.2655373,24.3016503 C27.3011941,24.143657 28.2668706,24.869355 28.4221314,25.9225161" id="Fill-9" fill="#5E18E7"></path>
                        <path d="M32.4461056,32.0149872 C32.5535842,32.7441282 32.0594587,33.4239201 31.3423498,33.5333295 C30.6251155,33.6426114 29.9565413,33.1401953 29.8490627,32.4109268 C29.7414587,31.6817859 30.2357096,31.001994 30.9528185,30.8925846 C31.6700528,30.7833027 32.3386271,31.2857188 32.4461056,32.0149872" id="Fill-11" fill="#3A18B2"></path>
                        <path d="M10.2780343,14.390906 C9.29191551,14.5412483 9.52016634,16.0996309 10.5079155,15.9490336 C11.4939089,15.7988188 11.2657835,14.2403087 10.2780343,14.390906" id="Fill-13" fill="#3A18B2"></path>
                        <path d="M12.753402,11.7377027 C12.4246957,11.7878168 12.5008211,12.3073201 12.830029,12.2570785 C13.1587353,12.2069644 13.0826099,11.6874611 12.753402,11.7377027" id="Fill-15" fill="#3A18B2"></path>
                        <path d="M10.4276891,6.04683289 C10.0989828,6.09694698 10.1749828,6.61645034 10.5043162,6.56620872 C10.832897,6.51609463 10.756897,5.99659128 10.4276891,6.04683289" id="Fill-17" fill="#3A18B2"></path>
                        <path d="M27.6998429,20.2133349 C26.3850178,20.4137913 26.6892686,22.4916772 28.0062257,22.2908383 C29.3210508,22.0905094 29.0168,20.012496 27.6998429,20.2133349" id="Fill-19" fill="#3A18B2"></path>
                        <path d="M27.534499,16.932902 C27.2057927,16.9830161 27.2819182,17.5025195 27.6111261,17.4522779 C27.9398323,17.4021638 27.8637069,16.8826604 27.534499,16.932902" id="Fill-21" fill="#3A18B2"></path>
                        <path d="M22.6451281,14.0166315 C21.6590092,14.1669738 21.8872601,15.7253564 22.8750092,15.5747591 C23.8610026,15.4244168 23.6327518,13.8660342 22.6451281,14.0166315" id="Fill-23" fill="#3A18B2"></path>
                        <path d="M21.8444568,10.0276899 C21.5157505,10.077804 21.5918759,10.5973074 21.9210838,10.5470658 C22.2497901,10.4969517 22.1736647,9.97744832 21.8444568,10.0276899" id="Fill-25" fill="#3A18B2"></path>
                        <path d="M19.6167287,20.8390342 C19.2880224,20.8891483 19.3640224,21.4086517 19.6933558,21.3584101 C20.0219366,21.308296 19.9459366,20.7887926 19.6167287,20.8390342" id="Fill-27" fill="#5E18E7"></path>
                        <path d="M22.7162244,22.4175517 C22.3875182,22.4676658 22.4636436,22.9871691 22.7928515,22.9369275 C23.1215578,22.8868134 23.0454323,22.3673101 22.7162244,22.4175517" id="Fill-29" fill="#5E18E7"></path>
                        <path d="M23.1897069,28.5074725 C22.2035881,28.6578148 22.4318389,30.2161973 23.4195881,30.0656 C24.4055815,29.9153852 24.1773307,28.3568752 23.1897069,28.5074725" id="Fill-31" fill="#5E18E7"></path>
                        <path d="M28.6761294,31.8724745 C28.3474231,31.9225886 28.4235485,32.4420919 28.7527564,32.3918503 C29.0814627,32.3417362 29.0053373,31.8222329 28.6761294,31.8724745" id="Fill-33" fill="#5E18E7"></path>
                    </g>
                </g>
                <g id="Group-27" transform="translate(1041.000000, 303.000000)">
                    <g id="Group-3" transform="translate(3.727612, 0.066764)">
                        <mask id="mask-12" fill="white">
                            <use xlink:href="#path-11"></use>
                        </mask>
                        <g id="Clip-2"></g>
                        <path d="M0.706755224,0.28458 C9.0464306,0.0464769697 15.0085948,-0.639910909 18.2098075,2.18651939 C21.4110201,5.01305273 8.05518806,5.35181636 8.05518806,5.35181636 L0.0559343284,4.48151939 L0.706755224,0.28458 Z" id="Fill-1" fill="#170762" mask="url(#mask-12)"></path>
                    </g>
                    <path d="M21.762131,14.8698176 C21.762131,14.8698176 16.293019,12.2644903 13.4963026,14.9568782 C10.8984593,9.60043576 18.8459295,7.66830848 18.8459295,7.66830848 C18.8459295,7.66830848 22.8061646,14.05186 21.762131,14.8698176" id="Fill-4" fill="#170762"></path>
                    <g id="Group-8" transform="translate(0.000000, 0.272824)">
                        <mask id="mask-14" fill="white">
                            <use xlink:href="#path-13"></use>
                        </mask>
                        <g id="Clip-7"></g>
                        <path d="M2.18414888,11.9682061 C-1.26580634,5.68026667 -1.38609739,-1.65559394 7.43564888,0.440351515 C16.2573951,2.5364 19.5025332,-1.8302303 25.1385817,4.80698182 C30.774731,11.4441939 21.7621713,14.5970242 21.7621713,14.5970242 C20.377716,10.9765394 15.1866638,11.6728182 14.8910743,15.8108242 C8.57176455,17.2081212 5.02882052,17.152897 2.18414888,11.9682061" id="Fill-6" fill="#5E18E7" mask="url(#mask-14)"></path>
                    </g>
                    <path d="M26.7109489,7.66830848 C26.7143743,7.68252667 27.4349116,10.6402176 24.9730757,10.6402176 C22.5051951,10.6402176 19.2714414,9.24776303 13.1443556,11.4234539 C7.01726978,13.5991448 3.04554963,13.6241812 0.826512313,9.24003576 C1.18234813,10.2391206 1.64205336,11.2529388 2.18416903,12.2409994 C5.02884067,17.4257933 8.5717847,17.4809145 14.8910944,16.0836176 C15.186684,11.9456115 20.3777362,11.2494358 21.7620907,14.8698176 C21.7620907,14.8698176 28.4232325,12.5394782 26.7109489,7.66830848" id="Fill-9" fill="#3A18B2"></path>
                    <path d="M11.1020172,12.6372539 C11.1020172,13.9183327 10.0864948,14.9568782 8.83381567,14.9568782 C7.58113657,14.9568782 6.56561418,13.9183327 6.56561418,12.6372539 C6.56561418,11.3561752 7.58113657,10.3176297 8.83381567,10.3176297 C10.0864948,10.3176297 11.1020172,11.3561752 11.1020172,12.6372539" id="Fill-11" fill="#3A18B2"></path>
                    <path d="M23.5263795,10.4027842 C23.5263795,10.9694509 23.0772526,11.42876 22.5231481,11.42876 C21.9691444,11.42876 21.5199168,10.9694509 21.5199168,10.4027842 C21.5199168,9.83622061 21.9691444,9.37680848 22.5231481,9.37680848 C23.0772526,9.37680848 23.5263795,9.83622061 23.5263795,10.4027842" id="Fill-13" fill="#5E18E7"></path>
                    <path d="M11.9813306,8.78766061 C11.0738082,8.78766061 11.072297,10.2300848 11.9813306,10.2300848 C12.888853,10.2300848 12.8903642,8.78766061 11.9813306,8.78766061" id="Fill-15" fill="#3A18B2"></path>
                    <path d="M9.71208134,6.73751212 C8.99899925,6.73751212 8.9977903,7.87084545 9.71208134,7.87084545 C10.4251634,7.87084545 10.4262716,6.73751212 9.71208134,6.73751212" id="Fill-17" fill="#3A18B2"></path>
                    <path d="M11.8679004,3.69454303 C11.4141392,3.69454303 11.4133332,4.41575515 11.8679004,4.41575515 C12.3216616,4.41575515 12.3224675,3.69454303 11.8679004,3.69454303" id="Fill-19" fill="#3A18B2"></path>
                    <path d="M8.23704515,11.6110309 C7.52396306,11.6110309 7.5227541,12.7443642 8.23704515,12.7443642 C8.95012724,12.7443642 8.95123545,11.6110309 8.23704515,11.6110309" id="Fill-21" fill="#5E18E7"></path>
                    <path d="M11.8679004,12.7453636 C11.4141392,12.7453636 11.4133332,13.4665758 11.8679004,13.4665758 C12.3216616,13.4665758 12.3224675,12.7453636 11.8679004,12.7453636" id="Fill-23" fill="#5E18E7"></path>
                    <path d="M11.1871175,14.8210636 C10.8630168,14.8210636 10.8624123,15.3362152 11.1871175,15.3362152 C11.5112183,15.3362152 11.511722,14.8210636 11.1871175,14.8210636" id="Fill-25" fill="#5E18E7"></path>
                </g>
                <circle id="Oval" fill="#D8D8D8" cx="329" cy="119" r="3"></circle>
                <circle id="Oval" fill="#D8D8D8" cx="819" cy="219" r="3"></circle>
                <circle id="Oval" fill="#D8D8D8" cx="946" cy="85" r="3"></circle>
                <circle id="Oval" fill="#D8D8D8" cx="329" cy="119" r="3"></circle>
                <circle id="Oval" fill="#D8D8D8" cx="329" cy="119" r="3"></circle>
                <path d="M77,136 C67.6744517,136 67.6588849,150 77,150 C86.3255483,150 86.3411151,136 77,136" id="Fill-1" fill="#3A18B2"></path>
            </g>
        </g>
    </g>
</svg>