<svg id="Layer_1" data-name="Layer 1" xmlns="http://www.w3.org/2000/svg" viewBox="0 0 64 64"><defs><style>.cls-1{fill:#dee7ed;}.cls-2{fill:#9dafb7;}.cls-3{fill:#4c636f;}</style></defs><title>avatar copy</title><rect class="cls-1" width="64" height="64"/><path class="cls-2" d="M49,10c-8.5,0-9,8.5-9,8.5H24S23.5,10,15,10V42.39A10.11,10.11,0,0,0,25.11,52.5H38.89A10.11,10.11,0,0,0,49,42.39Z"/><path class="cls-3" d="M29.32,39.22A2.62,2.62,0,0,1,32,37.73a2.69,2.69,0,0,1,2.68,1.49c0,1.48-.69,4-2.68,4S29.32,40.7,29.32,39.22Z"/><path class="cls-3" d="M39.48,33.7a1.3,1.3,0,1,0,2.6,0c0-.72-.58-2-1.3-2S39.48,33,39.48,33.7Z"/><path class="cls-3" d="M21.92,33.7a1.3,1.3,0,1,0,2.6,0c0-.72-.58-2-1.3-2S21.92,33,21.92,33.7Z"/></svg>