<svg xmlns="http://www.w3.org/2000/svg" width="16" height="16" viewBox="0 0 16 16">
  <g fill="none" fill-rule="evenodd">
    <polygon fill="#FFF" points="11.592 1.749 14.149 4.305 15.587 .311"/>
    <path fill="#000" d="M11.7483042,1.78368451 L14.1142761,4.14988169 L15.4452056,0.452980282 L11.7483042,1.78368451 Z M14.1489803,4.39100845 C14.1266704,4.39100845 14.1048113,4.38221972 14.0885859,4.36599437 L11.5319662,1.80937465 C11.5112338,1.78864225 11.5026704,1.75889577 11.5089803,1.73027606 C11.5155155,1.70165634 11.5360225,1.67844507 11.5635155,1.66852958 L15.558107,0.230332394 C15.589431,0.219290141 15.6243606,0.226952113 15.6477972,0.250388732 C15.6710085,0.273825352 15.6788958,0.30875493 15.6678535,0.339853521 L14.2296563,4.33444507 C14.2197408,4.36216338 14.1963042,4.38267042 14.1676845,4.38898028 C14.1616,4.39033239 14.1552901,4.39100845 14.1489803,4.39100845 L14.1489803,4.39100845 Z"/>
    <polygon fill="#000" points="13.59 1.03 14.868 2.308 15.587 .311"/>
    <path fill="#6AAF35" d="M8.13034366,15.8123944 C8.13034366,15.8123944 11.7001465,13.0234366 10.5600901,7.89442254 L8.00369577,5.33780282 C2.87445634,4.19774648 0.0854985915,7.76732394 0.0854985915,7.76732394 C0.0854985915,7.76732394 4.30589296,6.60630986 6.79873803,9.09915493 C9.25462535,11.5552676 8.13034366,15.8123944 8.13034366,15.8123944"/>
    <path fill="#000" d="M2.35195493,7.4183662 C3.76558873,7.4183662 5.55218028,7.73183099 6.85922254,9.03864789 C8.97054648,11.1501972 8.46485634,14.6055211 8.27060282,15.5745352 C8.99037746,14.8993803 11.4271099,12.24 10.4819831,7.93712676 L7.96074366,5.41588732 C5.35409577,4.84349296 3.3728,5.52315493 2.16941972,6.19605634 C1.23127887,6.7204507 0.606377465,7.32191549 0.324461972,7.62456338 C0.701250704,7.54569014 1.45077183,7.4183662 2.35195493,7.4183662 M8.1304338,15.8979155 C8.1139831,15.8979155 8.09753239,15.8931831 8.08333521,15.8837183 C8.05268732,15.863662 8.03826479,15.8260282 8.04750423,15.7906479 C8.0504338,15.7800563 8.32603944,14.7184225 8.30012394,13.3739718 C8.27601127,12.1399437 7.98575775,10.4072113 6.73820845,9.15966197 C4.30846197,6.72969014 0.150039437,7.83842254 0.108123944,7.84991549 C0.0722929577,7.85983099 0.034884507,7.84540845 0.0143774648,7.81476056 C-0.00612957746,7.78411268 -0.00455211268,7.74377465 0.0182084507,7.71470423 C0.0463774648,7.67864789 2.89865915,4.11583099 8.02203944,5.25408451 C8.03781408,5.25769014 8.05268732,5.26580282 8.06418028,5.27729577 L10.6205746,7.83391549 C10.6320676,7.84540845 10.6399549,7.85983099 10.6435606,7.87583099 C11.2384901,10.551662 10.5387718,12.5845634 9.84739155,13.8185915 C9.09764507,15.156507 8.21989859,15.8508169 8.18294085,15.879662 C8.1676169,15.891831 8.14913803,15.8979155 8.1304338,15.8979155"/>
    <path fill="#FFF" d="M4.40191549,8.93926761 L11.5924507,1.74895775 C11.7689014,1.57250704 12.484169,2.00157746 13.1901972,2.70760563 C13.8962254,3.4136338 14.3255211,4.12912676 14.1490704,4.30557746 L6.95853521,11.4958873 L4.40191549,8.93926761 Z"/>
    <path fill="#000" d="M4.52295211,8.93926761 L6.95855775,11.3750986 L14.0884732,4.24495775 C14.1765859,4.15707042 13.9176563,3.55605634 13.1296,2.76822535 C12.7929239,2.4315493 12.4445296,2.14828169 12.1488676,1.97070423 C11.8243606,1.776 11.6823887,1.77960563 11.653093,1.80935211 L4.52295211,8.93926761 Z M6.95855775,11.5815211 C6.93579718,11.5815211 6.91393803,11.572507 6.89793803,11.556507 L4.34131831,8.99988732 C4.3079662,8.96630986 4.3079662,8.91222535 4.34131831,8.87864789 L11.5320789,1.68833803 C11.8108394,1.41002817 12.7124732,2.10907042 13.2506141,2.64721127 C13.7887549,3.18535211 14.4884732,4.08721127 14.2094873,4.36619718 L7.01895211,11.556507 C7.00295211,11.572507 6.98109296,11.5815211 6.95855775,11.5815211 L6.95855775,11.5815211 Z"/>
    <path fill="#6AAF35" d="M6.95846761,11.4959324 C7.13491831,11.3194817 6.70584789,10.6039887 5.99981972,9.89796056 C5.2935662,9.19193239 4.57829859,8.76286197 4.40184789,8.93931268 L2.9636507,10.3775099 L5.52027042,12.9339042 L6.95846761,11.4959324 Z"/>
    <path fill="#000" d="M3.08489014,10.3775099 L5.52027042,12.8131155 L6.89784789,11.4353127 C6.92736901,11.4060169 6.9316507,11.2644958 6.73694648,10.939538 C6.55936901,10.6434254 6.27610141,10.295031 5.93942535,9.95858028 C5.15091831,9.17029859 4.54990423,8.91136901 4.46246761,8.99970704 L3.08489014,10.3775099 Z M5.52027042,13.019538 C5.49841127,13.019538 5.47655211,13.0112 5.45987606,12.9945239 L2.90325634,10.4379042 C2.86967887,10.4045521 2.86967887,10.3504676 2.90325634,10.3168901 L4.34145352,8.87869296 C4.62066479,8.60015775 5.52184789,9.2992 6.06043944,9.8375662 C6.59835493,10.375707 7.29784789,11.2775662 7.01908732,11.5565521 L5.58089014,12.9945239 C5.56421408,13.0112 5.54212958,13.019538 5.52027042,13.019538 L5.52027042,13.019538 Z"/>
    <path fill="#FFF" d="M3.66708732,12.8483831 C2.22889014,14.2863549 1.12105915,14.7764958 1.12105915,14.7764958 C1.12105915,14.7764958 1.6860169,13.5940732 3.04939718,12.230693 L3.61367887,11.6664113 L4.23136901,12.2841014 L3.66708732,12.8483831 Z"/>
    <path fill="#000" d="M3.61367887,11.7874254 L3.10979155,12.2913127 C2.13198873,13.2691155 1.56410141,14.1608338 1.32815775,14.5730028 C1.7283831,14.3494535 2.5872,13.8072563 3.60646761,12.7877634 L4.11035493,12.2841014 L3.61367887,11.7874254 Z M1.12105915,14.8621296 C1.09852394,14.8621296 1.07621408,14.8531155 1.05976338,14.8359887 C1.0347493,14.8105239 1.02843944,14.7719887 1.04376338,14.7397634 C1.04962254,14.7275944 1.63080563,13.5282704 2.98877746,12.1702986 L3.55305915,11.6060169 C3.58663662,11.5726648 3.64072113,11.5726648 3.67407324,11.6060169 L4.29176338,12.223707 C4.30798873,12.239707 4.31700282,12.2615662 4.31700282,12.2841014 C4.31700282,12.306862 4.30798873,12.3284958 4.29176338,12.3447211 L3.72770704,12.9090028 C2.29446761,14.3415662 1.20150986,14.8344113 1.15553803,14.854693 C1.14472113,14.8596507 1.13277746,14.8621296 1.12105915,14.8621296 L1.12105915,14.8621296 Z"/>
    <path fill="#6AAF35" d="M5.52031549,12.9339944 C5.6967662,12.7575437 5.26769577,12.0420507 4.56166761,11.3362479 C3.85563944,10.6302197 3.14014648,10.2009239 2.96369577,10.3773746 C2.78724507,10.5538254 3.21631549,11.2693183 3.92234366,11.9753465 C4.62837183,12.6811493 5.34386479,13.1104451 5.52031549,12.9339944"/>
    <path fill="#000" d="M3.07927887 10.4215437C3.05358873 10.4215437 3.03510986 10.4269521 3.02429296 10.4379944 2.93618028 10.5258817 3.19488451 11.1268958 3.98294085 11.9147268 4.77077183 12.7027831 5.37201127 12.9621634 5.45967324 12.8733746 5.54778592 12.7854873 5.28930704 12.1844732 4.5012507 11.3966423 3.81009577 10.7054873 3.26271549 10.4215437 3.07927887 10.4215437M5.40739155 13.057938C5.02789859 13.057938 4.31556056 12.4893746 3.86192676 12.0357408 3.32378592 11.4976 2.62429296 10.5957408 2.90327887 10.3169803 3.18294085 10.0386704 4.08389859 10.7377127 4.62226479 11.2756282 5.16018028 11.813769 5.85967324 12.7156282 5.58091268 12.9943887 5.53696901 13.038107 5.47815211 13.057938 5.40739155 13.057938M5.98224225 8.47501972C5.9603831 8.47501972 5.93852394 8.46668169 5.92162254 8.45000563 5.88827042 8.41665352 5.88827042 8.36234366 5.92162254 8.32899155L12.295031 1.95580845C12.3283831 1.92245634 12.3824676 1.92245634 12.4160451 1.95580845 12.4493972 1.98916056 12.4493972 2.04324507 12.4160451 2.07682254L6.04286197 8.45000563C6.02596056 8.46668169 6.00410141 8.47501972 5.98224225 8.47501972M7.45649577 9.94938592C7.43463662 9.94938592 7.41277746 9.94104789 7.39587606 9.92437183 7.36252394 9.89101972 7.36252394 9.83670986 7.39587606 9.80335775L13.7695099 3.43017465C13.802862 3.39682254 13.8569465 3.39682254 13.8905239 3.43017465 13.9238761 3.46352676 13.9238761 3.51761127 13.8905239 3.55118873L7.51711549 9.92437183C7.50021408 9.94104789 7.47835493 9.94938592 7.45649577 9.94938592"/>
    <path fill="#6AAF35" d="M9.23332958,7.43749859 C8.76955493,7.90127324 8.22059718,8.10409014 8.00718873,7.89068169 C7.79355493,7.67727324 7.99659718,7.12809014 8.46014648,6.66431549 C8.92414648,6.20054085 9.47310423,5.99772394 9.68673803,6.21113239 C9.90014648,6.42454085 9.69732958,6.97372394 9.23332958,7.43749859"/>
    <path fill="#000" d="M9.44944225 6.21282254C9.22409014 6.21282254 8.86330141 6.38228732 8.5207662 6.72482254 8.06149859 7.18431549 7.91344225 7.6760338 8.0675831 7.83017465 8.14465352 7.90747042 8.30104789 7.9104 8.49665352 7.83783662 8.71704789 7.75648451 8.95704789 7.59287887 9.17270986 7.3772169L9.17270986 7.37699155C9.38859718 7.16132958 9.55242817 6.92110423 9.63378028 6.70093521 9.70611831 6.50510423 9.70341408 6.34893521 9.62611831 6.27163944 9.58690704 6.23242817 9.52606197 6.21282254 9.44944225 6.21282254M8.24470986 8.06116056C8.12144225 8.06116056 8.01980845 8.02442817 7.94656901 7.95118873 7.69597746 7.70059718 7.89518873 7.10882254 8.39975211 6.6040338 8.90454085 6.09947042 9.49654085 5.90025915 9.74713239 6.15062535 9.87535775 6.2788507 9.8920338 6.49541408 9.79423099 6.76020282 9.70454085 7.00313239 9.52673803 7.2652169 9.2939493 7.49800563L9.2939493 7.49800563 9.2939493 7.49800563C9.06093521 7.73079437 8.7988507 7.90859718 8.55592113 7.99828732 8.44234366 8.04020282 8.33732958 8.06116056 8.24470986 8.06116056M7.83060282 10.7092958C7.79770141 10.7092958 7.76637746 10.6903662 7.75218028 10.6581408 7.49956056 10.0839437 7.15860282 9.57983099 6.73809577 9.15977465 6.31578592 8.73723944 5.81302535 8.39402817 5.24401127 8.14005634 5.20096901 8.12067606 5.18158873 8.07019718 5.20074366 8.02692958 5.2203493 7.98388732 5.27105352 7.96473239 5.31364507 7.98366197 5.90181408 8.24642254 6.42192676 8.60135211 6.85910986 9.03853521 7.29449014 9.47391549 7.6476169 9.99560563 7.90902535 10.5894085 7.92795493 10.6326761 7.9083493 10.6831549 7.86485634 10.7020845 7.85403944 10.7070423 7.84209577 10.7092958 7.83060282 10.7092958"/>
  </g>
</svg>
