<svg xmlns="http://www.w3.org/2000/svg" viewBox="0 0 415 415"><defs><style>.cls-1{fill:#1a0960;}.cls-2{fill:#471caf;}.cls-3{fill:#2b0e87;}.cls-15,.cls-16,.cls-17,.cls-18,.cls-19,.cls-4{fill:none;}.cls-4{stroke:#a0b3c1;stroke-dasharray:8;}.cls-12,.cls-15,.cls-16,.cls-17,.cls-18,.cls-19,.cls-4{stroke-miterlimit:10;}.cls-12,.cls-5{fill:#fff;}.cls-6{fill:#55c9b3;}.cls-7{fill:#ca4d5d;}.cls-8{fill:#f4d03e;}.cls-9{fill:#c6590e;}.cls-10{fill:#dd7c12;}.cls-11{fill:#ab3a47;}.cls-12,.cls-19{stroke:#471caf;}.cls-13{fill:#a542b3;}.cls-14{fill:#4b84b5;}.cls-15{stroke:#dd7c12;stroke-width:6px;}.cls-16{stroke:#521ee2;}.cls-17{stroke:#a542b3;}.cls-18{stroke:#fff;}.cls-20{fill:#bcc8d3;}.cls-21{fill:#e09410;}.cls-22{fill:#7a270e;}.cls-23{fill:#47212d;}</style></defs><title>business</title><g id="business"><path class="cls-1" d="M317.59,31.6a33.36,33.36,0,0,1-29.61,18c-18.44,0-4,16.06-20.37,7.59-3.54-1.83-8-11.55-8-49.1C243.94,4.3,224.3,0,207.5,0c-31.39,0-58.25,11.84-84.92,24.31C148.43,182.09,15.61,106,1.91,174.11,1.53,194.17,0,227.08,0,241c0,33.53,32.67,56.56,70,86.43C108.51,358.24,124.26,415,171.23,415c46.3,0,41.18-84.72,150.61-44.21,13.68,5.06,21,5.72,25.16,1.95,32.56-29.44,41.21-47.18,41.21-60,0-16-16.57-1.15-12.28-20,7.61-33.47,12.45-54.19,39.07-85.24-6.83-30.53-24.71-37.75-49.64-72C349.75,114.07,340.12,45.73,317.59,31.6Z"/><path class="cls-2" d="M1.53,182.27C4,294.73,95.92,385.15,209,385.15c21.93,0,55-30.71,93.37-39.87,28.08-6.71,57.84-1.93,70.23-9C428.47,304.59,309.72,207.5,415,207.5c-.84-38.17-32-58.43-50.82-88.85C347.43,91.52,344.6,48.54,317.59,31.6a33.36,33.36,0,0,1-29.61,18c-18.44,0-62.07-22.76-47.08-31.93,3.11-1.89,27.41-8.31,15.36-11.86A207.81,207.81,0,0,0,207.5,0c-43.43,0-106.21,11.87-77.83,36.71C234.28,128.32,1.53,62.45,1.53,182.27Z"/><path class="cls-3" d="M76.26,285.89s25.22-93.12,89.62-119.68,41.87-96.38,61-96.38,113.4,173.09,113,216.06S76.26,285.89,76.26,285.89Z"/><path class="cls-1" d="M350.49,271.14c0,38.23-29.46,48.1-29.46,48.1l-223.81-6.5s-31.54-3.9-31.54-41.6S350.49,271.14,350.49,271.14Z"/><path class="cls-4" d="M392.1,319.24c26.41-34.09,41.18-114.43-75-162.33-98.45-40.58-181.5,43.84-249.53,7C1.94,128.32,17,81.78,29.79,72c36-27.56,75.88,3.59,88.22,20.31"/><path class="cls-5" d="M138.23,145.46s2.07-1.13,5.68-2.77,8.43-5.87,8.43-5.87c.88,2-.49,3.48-1.46,4.4s-1.94,2.09-1.61,2.81,5.75.13,5.75.13,6.31-3.9,7.79-4.57c1.78,1.32,1.22,7.2.66,9.67-1.37,1.24-7.37,4.26-8.21,4.64-.52.23-5.12-.24-9.82-.58-5.38,3.42-6.41,6.28-7.3,8.11-3.93,8.13-7.15,5-4.07-2.77C134.91,156.53,135.76,149.73,138.23,145.46Z"/><path class="cls-6" d="M127.35,285.89c-14.11,8.15-37,8.15-51.09,0-7.05-4.07-10.58-9.41-10.58-14.75s3.53-10.67,10.58-14.74c14.11-8.15,37-8.15,51.09,0,7.05,4.07,10.58,9.41,10.58,14.74S134.4,281.82,127.35,285.89Z"/><path class="cls-7" d="M288.82,285.89c14.11,8.15,37,8.15,51.09,0,7-4.07,10.58-9.41,10.58-14.75S347,260.47,339.91,256.4c-14.11-8.15-37-8.15-51.09,0-7.05,4.07-10.58,9.41-10.58,14.74S281.77,281.82,288.82,285.89Z"/><path class="cls-7" d="M108.51,167.84l13.25,26.22,12-37.75a23.11,23.11,0,0,0,7,1c-11.41,42.94-8,51.21-16.38,57.89-10.09-2.73-15.87-12.56-15.87-12.56Z"/><path class="cls-8" d="M175,191.82c26.2-17,11.09,3.28,10.7-1.44s-6.32-5.37-6.32-5.37S173.44,187.15,175,191.82Z"/><path class="cls-9" d="M199.75,260.05s-3.35,4.06-17.14-5.52c-11.88-8.26-17.3-26.34-3.81-42.21,18.68-22-6.65-30.27-3.77-20.5-3.25-9.6,14.79-16.46,22.68-15.4,9.93,1.33,20.72,16.73,10.78,36.9S191.75,259.75,199.75,260.05Z"/><path class="cls-10" d="M191.73,240.29s2.84-36,12.76-36.33,15.43,36.33,15.43,36.33Z"/><path d="M304.3,106.75s-4.49-4.49-3.58-10.71c3.36,1.75,19.79-4.54,23.92-5.09,7.16-1,8.57,6.23,8.57,6.23,10.22-.1,8.86,11.15,8.86,11.15-10.69,21.67-11.18,25.29-11.18,25.29,0,2.34-7.3,3.53-7.3,3.53l-16.67-12.5Z"/><path d="M69.87,238.64c-14,35.15,17.07,68.6,79.28,50.64s-35.23-53.57-35.23-53.57Z"/><path class="cls-7" d="M58.75,164.69s1.64-6.06,21.41-17.32c1.32-.75,2.57-1.94,4.22-2.33,19-4.46,21.13-5.37,21.13-5.37,12.29,18,16.61,33.26,16.61,33.26-1.65,9.5-9,16.92-9.83,34.67s3.18,28.29,3.18,28.29S97,262.71,69.87,238.64C82.32,211.86,70.31,187.58,58.75,164.69Z"/><polygon class="cls-11" points="97.82 147.37 101.53 163.87 108.5 151.37 92.64 141.88 97.82 147.37"/><path d="M342.86,255.64v5.44c-1.2,30.41-31.24,46.56-44.75,46.56s-21.52-62.45-21.52-62.45h63.22Z"/><path d="M80.16,147.37c-11.47,0-16.63-7.15-16.63-10,11.68-3.24,1.93-18.25,8.12-39.69,19.81-12.06,48,0,48,0,.72,11.35-12.56,18.43-12.56,18.43l-18.58,35.3Z"/><path class="cls-6" d="M298.64,137.15s10.85-5,30.23,5.37C343,150.08,349,155.88,358.8,168.61c.78,33.72-15.94,87-15.94,87s-39.73,6.79-49.11-19.24C311.18,197.23,289.21,164.87,298.64,137.15Z"/><circle class="cls-12" cx="55.13" cy="348.89" r="36.15"/><path class="cls-13" d="M301.61,347.86c-25.71,14.84-36.79,66.24-67.12,51.55-16.87-8.18-25.36-28.9-40.75-34-16.44-5.49-54.56-11.64-75.51-18.35-9.11-2.92-7.7-6.49-12.43-24.85-7.57-29.44-27.91-63.17,9.59-84.82,51.42-29.69,134.8-29.69,186.22,0S353,318.17,301.61,347.86Z"/><path class="cls-8" d="M302.34,345.28a158.16,158.16,0,0,1-39.15,15.66c-20.9,5.45-6.91-10.93-29.36-12.05-30-1.5-96.19,9.66-119.17-3.61-8.32-4.8,1.06-13.07-6.15-16.42C49,301.27,71.14,262,114.66,236.92c51.82-29.92,135.85-29.92,187.68,0S354.17,315.36,302.34,345.28Z"/><polygon class="cls-14" points="318.63 149.88 310.71 154.13 316.34 132.92 317.18 139.13 318.63 149.88"/><polygon class="cls-6" points="280.59 221.31 304.54 213.96 304.54 198.06 276.92 214.21 280.59 221.31"/><polygon points="315.52 151.55 317.07 156.91 321.03 154.46 318.63 149.88 315.52 151.55"/><path d="M317.07,156.91s-8.85,61-11.68,63.83l3.14,7.55,6.14-3.15C316.61,207.54,317.07,156.91,317.07,156.91Z"/><path class="cls-5" d="M316.18,123.13l3.3-.1v-1.91c0-3.91,5.68-5.65,5.82,0,0,8.26-.56,12.5,5.59,12.5l2.32,8.59-14.58,7.67-3.45-10.75-11.93-.3V128.22l-4.61-1.17a38.33,38.33,0,0,0,5.53-11.42c-.07-2.57.08-6.27.13-8.88,3.73,0,6,.81,6.41,4.2.52,4.45,3.68,4.87,4.81,7.23A9.16,9.16,0,0,1,316.18,123.13Z"/><path class="cls-5" d="M80.16,147.37l21.36,16.5-3.7-16.5,3-5.7h8.42a47.9,47.9,0,0,1,1-12l4.07-1.11S110,122.22,110,118.33s-.84-11.82-.84-11.82c-4.71,13.32-10.82,21.09-18,22.57S84.13,143,88,143.33A11.45,11.45,0,0,1,80.16,147.37Z"/><polygon class="cls-11" points="101.53 163.87 81.37 163.87 80.16 147.37 101.53 163.87"/><path class="cls-14" d="M318.63,149.88l6.16,11.76,12.93-13.8c-2.38-5.19-3.51-7.63-3.51-7.63Z"/><path class="cls-15" d="M200,207.1s-11,7-11,10.7S205.24,223,205.24,223s14.82-2.18,16.15-6-11.16-9.44-11.16-9.44"/><path class="cls-10" d="M208.55,222c0,1.83-1.48,1.31-3.31,1.31s-3.31.52-3.31-1.31a3.31,3.31,0,1,1,6.62,0Z"/><polygon class="cls-16" points="186.9 253.15 176.57 247.19 176.57 298.86 186.9 304.82 186.9 253.15"/><polygon class="cls-16" points="165.88 257.14 155.18 250.97 155.18 286.51 165.88 292.68 165.88 257.14"/><polygon class="cls-16" points="197.74 275.54 187.05 269.37 187.05 304.9 197.74 311.08 197.74 275.54"/><polygon class="cls-16" points="176.57 279.23 165.88 273.05 165.88 292.68 176.57 298.86 176.57 279.23"/><polygon class="cls-17" points="155.18 215.43 144.86 209.47 144.86 280.55 155.18 286.51 155.18 215.43"/><line class="cls-17" x1="155.18" y1="215.43" x2="144.86" y2="209.47"/><line class="cls-17" x1="155.18" y1="219.61" x2="144.86" y2="213.64"/><line class="cls-17" x1="155.18" y1="223.78" x2="144.86" y2="217.82"/><line class="cls-17" x1="155.18" y1="227.95" x2="144.86" y2="221.99"/><line class="cls-17" x1="155.18" y1="232.12" x2="144.86" y2="226.16"/><line class="cls-17" x1="155.18" y1="236.3" x2="144.86" y2="230.33"/><line class="cls-17" x1="155.18" y1="240.47" x2="144.86" y2="234.51"/><line class="cls-17" x1="155.18" y1="244.64" x2="144.86" y2="238.68"/><line class="cls-17" x1="155.18" y1="248.81" x2="144.86" y2="242.85"/><line class="cls-17" x1="155.18" y1="252.99" x2="144.86" y2="247.02"/><line class="cls-17" x1="155.18" y1="257.16" x2="144.86" y2="251.2"/><line class="cls-17" x1="155.18" y1="261.33" x2="144.86" y2="255.37"/><line class="cls-17" x1="155.18" y1="265.51" x2="144.86" y2="259.54"/><line class="cls-17" x1="155.18" y1="269.68" x2="144.86" y2="263.72"/><line class="cls-17" x1="155.18" y1="273.85" x2="144.86" y2="267.89"/><line class="cls-17" x1="155.18" y1="278.02" x2="144.86" y2="272.06"/><line class="cls-17" x1="155.18" y1="282.2" x2="144.86" y2="276.23"/><line class="cls-18" x1="140.76" y1="288.12" x2="199.74" y2="322.17"/><polygon class="cls-16" points="276.42 287.01 266.1 281.04 266.1 302.71 276.42 308.68 276.42 287.01"/><polygon class="cls-16" points="255.4 231 244.7 224.83 244.7 290.36 255.4 296.54 255.4 231"/><polygon class="cls-16" points="287.26 257.4 276.57 251.22 276.57 308.76 287.26 314.94 287.26 257.4"/><polygon class="cls-16" points="266.1 263.08 255.4 256.91 255.4 296.54 266.1 302.71 266.1 263.08"/><polygon class="cls-17" points="244.7 190.08 234.38 184.12 234.38 284.4 244.7 290.36 244.7 190.08"/><line class="cls-17" x1="244.7" y1="219.29" x2="234.38" y2="213.33"/><line class="cls-17" x1="244.7" y1="223.46" x2="234.38" y2="217.5"/><line class="cls-17" x1="244.7" y1="215.12" x2="234.38" y2="209.15"/><line class="cls-17" x1="244.7" y1="210.94" x2="234.38" y2="204.98"/><line class="cls-17" x1="244.7" y1="206.77" x2="234.38" y2="200.81"/><line class="cls-17" x1="244.7" y1="202.6" x2="234.38" y2="196.63"/><line class="cls-17" x1="244.7" y1="198.42" x2="234.38" y2="192.46"/><line class="cls-17" x1="244.7" y1="194.25" x2="234.38" y2="188.29"/><line class="cls-17" x1="244.7" y1="190.08" x2="234.38" y2="184.12"/><line class="cls-17" x1="244.7" y1="227.63" x2="234.38" y2="221.67"/><line class="cls-17" x1="244.7" y1="231.81" x2="234.38" y2="225.84"/><line class="cls-17" x1="244.7" y1="235.98" x2="234.38" y2="230.02"/><line class="cls-17" x1="244.7" y1="240.15" x2="234.38" y2="234.19"/><line class="cls-17" x1="244.7" y1="244.32" x2="234.38" y2="238.36"/><line class="cls-17" x1="244.7" y1="248.5" x2="234.38" y2="242.53"/><line class="cls-17" x1="244.7" y1="252.67" x2="234.38" y2="246.71"/><line class="cls-17" x1="244.7" y1="256.84" x2="234.38" y2="250.88"/><line class="cls-17" x1="244.7" y1="261.02" x2="234.38" y2="255.05"/><line class="cls-17" x1="244.7" y1="265.19" x2="234.38" y2="259.23"/><line class="cls-17" x1="244.7" y1="269.36" x2="234.38" y2="263.4"/><line class="cls-17" x1="244.7" y1="273.53" x2="234.38" y2="267.57"/><line class="cls-17" x1="244.7" y1="277.71" x2="234.38" y2="271.74"/><line class="cls-17" x1="244.7" y1="281.88" x2="234.38" y2="275.92"/><line class="cls-17" x1="244.7" y1="286.05" x2="234.38" y2="280.09"/><line class="cls-18" x1="230.29" y1="291.98" x2="289.26" y2="326.03"/><path class="cls-6" d="M358.8,168.61s-.2,26.81-.2,52.8c-14.2,14.47-70.62,9.85-70.62,9.85v-6.95l50.15-10.18C338.11,186.32,349.87,167.05,358.8,168.61Z"/><path class="cls-5" d="M275.08,211.51s.32-2.17-1.08-2.71c-.64.87-3.47,4-5.33,4s-9.8,1.2-9.8,1.2a14.45,14.45,0,0,0-.55,12.42c.77.54,2.18,0,2.18,0l1.75-3.49,4.7-1.64c7.55.49,11.56-2,11.56-2L276.3,215l-1.22-3.48"/><path class="cls-5" d="M288,231.26v-6.95s-10.38-9.5-11.76-14.65c-2.18,1.39-3.09,3-2.3,4.55a44.45,44.45,0,0,0,2.58,4.16s-4,4-5.35,4-10.85-3.24-10.85-3.24c-1.19,3.37,0,9.16,0,9.16a45.76,45.76,0,0,0,11.08,5.51C281.33,232.52,288,231.26,288,231.26Z"/><path class="cls-5" d="M118,224.66l13.75-6s8.17,7.61,10.42,7.61a12.63,12.63,0,0,1-5.63,7.6,13.14,13.14,0,0,1-6.46-5.63c-4.52,3.09-12.29,1.55-12.29,1.55S99.49,226.54,118,224.66Z"/><path class="cls-7" d="M118,230.94s-36.78,4.64-57.61-4c-10.52-28.58-1.65-62.21-1.65-62.21L71.91,180S70.85,201.2,71,214.15c9.2,3.95,38.48,10.73,47,10.51Z"/><polyline class="cls-19" points="61.26 338.49 61.26 334.45 48.99 334.45 48.99 338.49"/><path class="cls-19" d="M39,363.33H71.22A2.33,2.33,0,0,0,73.54,361V340.91a2.33,2.33,0,0,0-2.32-2.34H39a2.33,2.33,0,0,0-2.32,2.34V361A2.33,2.33,0,0,0,39,363.33Z"/><line class="cls-19" x1="37.54" y1="343.52" x2="73.54" y2="343.52"/><circle class="cls-20" cx="394.31" cy="121.11" r="9.84"/><circle class="cls-5" cx="178.41" cy="90.52" r="1.84"/><circle class="cls-8" cx="374.53" cy="148.04" r="1.84"/><circle class="cls-20" cx="280.35" cy="185.75" r="1.84"/><circle class="cls-21" cx="17.26" cy="280.82" r="4.81"/><path class="cls-10" d="M203,186h3.27a9.53,9.53,0,0,1,9.53,9.53v12.8a0,0,0,0,1,0,0H193.46a0,0,0,0,1,0,0v-12.8A9.53,9.53,0,0,1,203,186Z" transform="translate(468.66 302.22) rotate(157.76)"/><path class="cls-10" d="M213,188.09l-4.35-10.64c-5.17,2.11-3.36,7.4-3.36,7.4S207.8,190.2,213,188.09Z"/><path class="cls-10" d="M192.3,196.54,188,185.9c5.16-2.11,7.58,2.93,7.58,2.93S197.47,194.43,192.3,196.54Z"/><path class="cls-22" d="M203.92,200.1a1.71,1.71,0,0,1,1.26-1.57,1.75,1.75,0,0,1,2,.24c.37.9.58,2.6-.63,3.09S204.29,201,203.92,200.1Z"/><path class="cls-22" d="M212,192.53a.85.85,0,1,0,1.58-.65c-.18-.43-.84-1-1.28-.86S211.78,192.09,212,192.53Z"/><path class="cls-22" d="M199.58,197.44a.85.85,0,1,0,1.58-.65c-.18-.43-.84-1-1.27-.86S199.4,197,199.58,197.44Z"/><path class="cls-23" d="M189.81,197.76l1.44,3.54a3.49,3.49,0,0,0,4.53,1.9l5.26-2.15a3.49,3.49,0,0,0,1.9-4.53l-.52-1.26,2.66-1.09.51,1.26a3.48,3.48,0,0,0,4.53,1.9l5.26-2.15a3.48,3.48,0,0,0,1.9-4.53l-1.45-3.54-11.68,4.78.5,1.24L202,194.22l-.51-1.24Zm15.81-5.25,9.59-3.92,1,2.49a2.34,2.34,0,0,1-1.28,3.06l-5.26,2.15a2.35,2.35,0,0,1-3.05-1.28Zm-14.34,5.86,9.59-3.92,1,2.5a2.34,2.34,0,0,1-1.28,3.05l-5.26,2.15a2.34,2.34,0,0,1-3-1.28Z"/><circle class="cls-2" cx="257.19" cy="104.3" r="19.4"/><path class="cls-8" d="M112.06,55.83c-9,0-9,14,0,14S121.08,55.83,112.06,55.83Z"/><path class="cls-8" d="M371.64,113.44c-3.87,0-3.87,6,0,6S375.5,113.44,371.64,113.44Z"/><path class="cls-2" d="M240.9,169.81c-5.14,0-5.15,8,0,8S246.06,169.81,240.9,169.81Z"/><path class="cls-3" d="M182.59,126.55c-5.14,0-5.15,8,0,8S187.75,126.55,182.59,126.55Z"/><path class="cls-13" d="M242.69,314.27c-5.14,0-5.15,8,0,8S247.85,314.27,242.69,314.27Z"/><path class="cls-13" d="M117.47,257.39a1.5,1.5,0,0,0,0,3A1.5,1.5,0,0,0,117.47,257.39Z"/><path class="cls-5" d="M214.63,280.06a1.5,1.5,0,0,0,0,3A1.5,1.5,0,0,0,214.63,280.06Z"/><path class="cls-2" d="M211.39,300.08c-2.58,0-2.58,4,0,4S214,300.08,211.39,300.08Z"/><path class="cls-5" d="M135.82,303.23a1,1,0,0,0,0,2A1,1,0,0,0,135.82,303.23Z"/></g></svg>