<svg xmlns="http://www.w3.org/2000/svg" viewBox="0 0 415 415"><defs><style>.cls-1{fill:#1a0960;}.cls-2{fill:#471caf;}.cls-3{fill:#2b0e87;}.cls-4{fill:#d0d8dd;}.cls-12,.cls-13,.cls-14,.cls-15,.cls-16,.cls-5{fill:none;}.cls-5{stroke:#a02ff7;}.cls-12,.cls-13,.cls-14,.cls-15,.cls-16,.cls-5,.cls-6{stroke-miterlimit:10;}.cls-10,.cls-6{fill:#fff;}.cls-16,.cls-6{stroke:#471caf;}.cls-7{fill:#f2b640;}.cls-8{fill:#521ee2;}.cls-9{fill:#a02ff7;}.cls-11{fill:#e36e81;}.cls-12{stroke:#fff;}.cls-13{stroke:#ca4d5d;}.cls-14{stroke:#55c9b3;}.cls-15{stroke:#a0b3c1;stroke-dasharray:8;}</style></defs><title>computer-science</title><g id="computer_science"><path class="cls-1" d="M163.3,4.74C184.23,23.37,185,41.22,216.82,32.81s-45.69,29.58-45.69,29.58l-19-42.53Z"/><path class="cls-1" d="M258.92,6.43c35,55.19,21.2,134.65,94,146C327.67,191.7,209.54,66.27,209.54,66.27l13-59.84Z"/><path class="cls-1" d="M297,313.81c-97.63,97.64-211.48,60.62-214.44,59.47,20.49,21.42,37.68,32.27,77.49,25.87C196.34,393.32,192,415,207.5,415c94.26,0,174.09-59.26,191.68-149.87C402.81,246.44,415,227.5,415,207.5a206.44,206.44,0,0,0-24.27-97.43C390.79,110.32,395.63,215.18,297,313.81Z"/><path class="cls-2" d="M390.73,110.07A207.33,207.33,0,0,0,365,72.4a63,63,0,0,1-106.06-66A207.79,207.79,0,0,0,217.48.26,28.2,28.2,0,1,1,162.81,10a28.43,28.43,0,0,1,.49-5.26A207.55,207.55,0,0,0,43.58,80.27,11.31,11.31,0,0,1,30.7,98.85,206.52,206.52,0,0,0,0,207.5c0,50.36,33.5,59.21,33.5,113.07a207.48,207.48,0,0,0,49.06,52.71c3,1.15,137,52.63,234.62-45,21.42-21.42,31.6-55,47.4-73.92C415,193.91,390.78,110.26,390.73,110.07Z"/><path class="cls-3" d="M213.21,243.85c-72.71,1.66-131.76-106.63-165-67.42C3,229.71,47.87,262.49,80.84,297.79a22.3,22.3,0,1,1,25,36.23,54,54,0,0,1,1.71,5.61C132.14,440.47,285.93,242.19,213.21,243.85Z"/><circle class="cls-4" cx="204.86" cy="3.52" r="3.52"/><polyline class="cls-5" points="129.82 59.84 134.28 57.27 138.74 54.69 143.21 52.12 147.67 49.54 152.13 46.96 156.59 44.39"/><polyline class="cls-5" points="85.2 85.61 89.66 83.03 94.12 80.45 98.58 77.88 103.05 75.3 107.51 72.72 111.97 70.15 116.43 67.57 120.89 65"/><polyline class="cls-5" points="58.43 101.06 62.89 98.49 67.35 95.91 71.81 93.33 76.28 90.76"/><polyline class="cls-5" points="134.28 66.27 138.74 63.69 143.21 61.12 147.67 58.54 152.13 55.96 156.59 53.39"/><polyline class="cls-5" points="58.43 110.06 62.89 107.49 67.35 104.91 71.81 102.33 76.28 99.76 80.74 97.18 85.2 94.61 89.66 92.03 94.12 89.45 98.58 86.88 103.05 84.3 107.51 81.72 111.97 79.15 116.43 76.57 120.89 74 125.36 71.42"/><polyline class="cls-5" points="98.58 95.88 103.05 93.3 107.51 90.72 111.97 88.15 116.43 85.57 120.89 83 125.36 80.42 129.82 77.84 134.28 75.27 138.74 72.69 143.21 70.12 147.67 67.54 152.13 64.96 156.59 62.39"/><polyline class="cls-5" points="58.43 119.06 62.89 116.49 67.35 113.91 71.81 111.33 76.28 108.76 80.74 106.18 85.2 103.61 89.66 101.03"/><polyline class="cls-5" points="147.67 76.54 152.13 73.96 156.59 71.39"/><polyline class="cls-5" points="80.74 115.18 85.2 112.61 89.66 110.03 94.12 107.45 98.58 104.88 103.05 102.3 107.51 99.72 111.97 97.15 116.43 94.57 120.89 92 125.36 89.42 129.82 86.84 134.28 84.27 138.74 81.69"/><polyline class="cls-5" points="58.43 128.06 62.89 125.49 67.35 122.91 71.81 120.33"/><polyline class="cls-5" points="120.89 101 125.36 98.42 129.82 95.84 134.28 93.27 138.74 90.69 143.21 88.12 147.67 85.54 152.13 82.96 156.59 80.39"/><polyline class="cls-5" points="58.43 137.06 62.89 134.49 67.35 131.91 71.81 129.33 76.28 126.76 80.74 124.18 85.2 121.61 89.66 119.03 94.12 116.45 98.58 113.88 103.05 111.3 107.51 108.72 111.97 106.15 116.43 103.57"/><polyline class="cls-5" points="111.97 115.15 116.43 112.57 120.89 110 125.36 107.42 129.82 104.84 134.28 102.27 138.74 99.69 143.21 97.12 147.67 94.54 152.13 91.96 156.59 89.39"/><line class="cls-5" x1="98.59" y1="122.88" x2="103.05" y2="120.3"/><line class="cls-5" x1="85.2" y1="130.61" x2="89.66" y2="128.03"/><polyline class="cls-5" points="58.43 146.06 62.89 143.49 67.35 140.91 71.81 138.33 76.28 135.76"/><polyline class="cls-5" points="143.21 106.12 147.67 103.54 152.13 100.96 156.59 98.39"/><polyline class="cls-5" points="58.43 155.06 62.89 152.49 67.35 149.91 71.81 147.33 76.28 144.76 80.74 142.18 85.2 139.6 89.66 137.03 94.12 134.45 98.58 131.88 103.05 129.3 107.51 126.72 111.97 124.15 116.43 121.57 120.89 119 125.36 116.42 129.82 113.84 134.28 111.27"/><line class="cls-5" x1="152.13" y1="109.96" x2="156.59" y2="107.39"/><polyline class="cls-5" points="120.89 128 125.36 125.42 129.82 122.84 134.28 120.27 138.74 117.69 143.21 115.12"/><polyline class="cls-5" points="89.66 146.03 94.12 143.45 98.58 140.88 103.05 138.3 107.51 135.72 111.97 133.15"/><polyline class="cls-5" points="58.43 164.06 62.89 161.49 67.35 158.91 71.81 156.33 76.28 153.76 80.74 151.18"/><polyline class="cls-5" points="120.89 137 125.36 134.42 129.82 131.84 134.28 129.27 138.74 126.69 143.21 124.12 147.67 121.54 152.13 118.96 156.59 116.39"/><polyline class="cls-5" points="94.12 152.45 98.58 149.88 103.05 147.3 107.51 144.72 111.97 142.15"/><polyline class="cls-5" points="58.43 173.06 62.89 170.49 67.35 167.91 71.81 165.33 76.28 162.76 80.74 160.18 85.2 157.6"/><line class="cls-5" x1="152.13" y1="127.96" x2="156.59" y2="125.39"/><polyline class="cls-5" points="58.43 182.06 62.89 179.49 67.35 176.91 71.81 174.33 76.28 171.76 80.74 169.18 85.2 166.6 89.66 164.03 94.12 161.45 98.58 158.88 103.05 156.3 107.51 153.72 111.97 151.15 116.43 148.57 120.89 146 125.36 143.42 129.82 140.84 134.28 138.27"/><polyline class="cls-5" points="116.43 157.57 120.89 155 125.36 152.42 129.82 149.84 134.28 147.27 138.74 144.69 143.21 142.12 147.67 139.54 152.13 136.96 156.59 134.39"/><polyline class="cls-5" points="98.58 167.88 103.05 165.3 107.51 162.72"/><polyline class="cls-5" points="58.43 191.06 62.89 188.49 67.35 185.91 71.81 183.33 76.28 180.76 80.74 178.18 85.2 175.6 89.66 173.03"/><polyline class="cls-5" points="129.82 158.84 134.28 156.27 138.74 153.69 143.21 151.12 147.67 148.54 152.13 145.96 156.59 143.39"/><polyline class="cls-5" points="76.28 189.76 80.74 187.18 85.2 184.6 89.66 182.03 94.12 179.45 98.58 176.88 103.05 174.3 107.51 171.72 111.97 169.15 116.43 166.57 120.89 164"/><polyline class="cls-5" points="58.43 200.06 62.89 197.49 67.35 194.91"/><polyline class="cls-5" points="147.67 157.54 152.13 154.96 156.59 152.39"/><polyline class="cls-5" points="98.58 185.88 103.05 183.3 107.51 180.72 111.97 178.15 116.43 175.57 120.89 173 125.36 170.42 129.82 167.84 134.28 165.27 138.74 162.69"/><polyline class="cls-5" points="58.43 209.06 62.89 206.49 67.35 203.91 71.81 201.33 76.28 198.76 80.74 196.18 85.2 193.6 89.66 191.03"/><polygon class="cls-5" points="161.05 158.81 53.97 220.64 53.97 94.64 161.05 32.81 161.05 158.81"/><path class="cls-6" d="M91,350a36.16,36.16,0,1,1-36.15-36.15A36.15,36.15,0,0,1,91,350Z"/><polygon points="190.05 284.8 279.82 378.89 253.05 293.8 190.05 284.8"/><path class="cls-7" d="M235.21,310.74c0,21.1,45.61,68.15,45.61,68.15s50.43-41.11,50.43-70.22C293.11,308.67,235.21,310.74,235.21,310.74Z"/><path class="cls-8" d="M317.18,328.28c-18.75,10.82-49.15,10.82-67.9,0-9.38-5.42-14.07-12.51-14.07-19.61s4.69-14.19,14.07-19.6c18.75-10.83,49.15-10.83,67.9,0,9.38,5.41,14.07,12.51,14.07,19.6S326.56,322.86,317.18,328.28Z"/><path d="M183.32,267.53c7.47-5.93,28.19-4.19,51.89-1.56,14.83-40.87,73,9.24,89.39-2.63,0,0,2.82,34.38,0,43s-25.66,20.48-46.2,20.48-71.84-32.66-71.84-32.66L181.05,266.8"/><polygon class="cls-8" points="371.58 206.19 176.06 319.07 177.06 324.07 371.58 206.19"/><polygon class="cls-7" points="250.36 136.21 371.58 206.19 176.06 319.07 54.85 249.09 250.36 136.21"/><polygon class="cls-2" points="277.36 215.2 209.54 254.36 160.97 223.06 228.79 183.9 277.36 215.2"/><polygon points="228.79 183.9 160.97 223.06 137.64 168.15 205.46 129.8 228.79 183.9"/><polygon points="249.63 204.07 193.08 236.72 172.25 223.06 228.79 190.42 249.63 204.07"/><polygon points="222.56 179.63 161.78 213.9 144.58 173.18 143.06 169.57 203.83 135.3 222.56 179.63"/><polygon class="cls-9" points="160.97 227.04 209.54 255.09 209.54 254.36 160.97 223.06 160.97 227.04"/><path class="cls-10" d="M264,219.18s2.25,11-12.11,4.5L246,220.3l-3.42-6.19-8.45-3.94,10.14-7.33h9.85Z"/><path class="cls-10" d="M251.88,223.68l-11.26-2c.28-2.68,9.37-2.53,9.37-2.53Z"/><polyline class="cls-9" points="54.85 249.09 177.06 324.07 176.06 319.07"/><path class="cls-10" d="M282.1,181.09l-10.64-7.6-12.08.73a123.81,123.81,0,0,0-4-13.08l-2.32-.26.8-9.45a19.14,19.14,0,0,1-1.59-12.19c2.73,6.37,12.16,13,12.16,13l-.66,6.7,3.83,1.92s.08-2.55-.06-7.63,4-4.3,5.43-.86-.8,9.95-.8,9.95l7.27,5.16,9.71-6.64,1.58,3.69Z"/><path class="cls-11" d="M313.68,171.51c-11,1.83-21.44,3.36-50.78,24.78,0,0-8.26,16.87,0,32.13,0,0,8.21,6.05,9.87,27.68,1.05,13.71-12.48,21.57-5.37,35.11,6.42,12.2,50.7,14.9,65.14-11.64,0,0-6.68-8,1.89-80.07C337.28,175.51,322.18,170.1,313.68,171.51Z"/><path class="cls-10" d="M200.55,237.24l-5.87-3.38-3.43-6.19-9.44-4.94,11.13-6.32h9.86l3.66,8.72s.56-6,3.38-6c-.28,6.54,2.81,13.58,2.81,13.58S214.91,243.72,200.55,237.24Z"/><line class="cls-12" x1="162.13" y1="179.46" x2="183.81" y2="167.23"/><line class="cls-12" x1="163.13" y1="181.83" x2="185.01" y2="169.49"/><line class="cls-12" x1="164.13" y1="184.2" x2="185.91" y2="171.91"/><line class="cls-12" x1="165.13" y1="186.56" x2="186.8" y2="174.34"/><line class="cls-13" x1="167.13" y1="191.3" x2="178.39" y2="184.95"/><line class="cls-13" x1="169.13" y1="196.04" x2="180.13" y2="189.84"/><line class="cls-13" x1="170.13" y1="198.41" x2="180.71" y2="192.44"/><line class="cls-14" x1="171.13" y1="200.78" x2="195.48" y2="187.05"/><line class="cls-14" x1="172.13" y1="203.15" x2="196.33" y2="189.5"/><line class="cls-14" x1="173.13" y1="205.52" x2="206.11" y2="186.92"/><path class="cls-11" d="M205.23,241.32l8.42-8.58c17.57,16.35,25.18,14.27,35.6,16.88,7.51-22.37,2.73-45.47,13.65-53.33,25.29,40.24-6,70.77-6,70.77C230.14,268,205.23,241.32,205.23,241.32Z"/><polyline class="cls-5" points="338.27 24 341.19 25.69 344.12 27.38 347.04 29.07 349.96 30.75 352.88 32.44 355.81 34.13 358.73 35.82 361.65 37.51"/><polyline class="cls-5" points="320.73 13.88 323.66 15.57 326.58 17.26 329.5 18.94 332.43 20.63"/><polyline class="cls-5" points="320.73 22.88 323.66 24.57 326.58 26.25 329.5 27.94 332.43 29.63 335.35 31.32 338.27 33.01 341.19 34.69 344.12 36.38 347.04 38.07 349.96 39.76 352.88 41.44 355.81 43.13 358.73 44.82 361.65 46.51"/><polyline class="cls-5" points="320.73 31.88 323.66 33.57 326.58 35.26 329.5 36.94 332.43 38.63 335.35 40.32 338.27 42.01 341.19 43.69"/><polyline class="cls-5" points="335.35 49.32 338.27 51.01 341.19 52.69 344.12 54.38 347.04 56.07 349.96 57.76 352.88 59.44 355.81 61.13 358.73 62.82 361.65 64.5"/><polyline class="cls-5" points="320.73 40.88 323.66 42.57 326.58 44.26 329.5 45.94"/><polyline class="cls-5" points="320.73 49.88 323.66 51.57 326.58 53.26 329.5 54.94 332.43 56.63 335.35 58.32 338.27 60.01 341.19 61.69 344.12 63.38 347.04 65.07 349.96 66.75 352.88 68.44 355.81 70.13 358.73 71.82"/><line class="cls-5" x1="347.04" y1="74.07" x2="355.81" y2="79.13"/><line class="cls-5" x1="338.27" y1="69.01" x2="341.19" y2="70.69"/><polyline class="cls-5" points="320.73 58.88 323.66 60.57 326.58 62.26 329.5 63.94 332.43 65.63"/><polyline class="cls-5" points="320.73 67.88 323.66 69.57 326.58 71.25 329.5 72.94 332.43 74.63 335.35 76.32 338.27 78 341.19 79.69 344.12 81.38 347.04 83.07 349.96 84.75 352.88 86.44 355.81 88.13 358.73 89.82 361.65 91.5"/><polyline class="cls-5" points="338.27 87 344.12 90.38 347.04 92.07 349.96 93.75 352.88 95.44 355.81 97.13"/><polyline class="cls-5" points="320.73 76.88 323.66 78.57 326.58 80.25 329.5 81.94 332.43 83.63 335.35 85.32"/><polyline class="cls-5" points="344.12 99.38 347.04 101.07 349.96 102.75 352.88 104.44 355.81 106.13"/><polyline class="cls-5" points="320.73 85.88 323.66 87.57 326.58 89.25 329.5 90.94 332.43 92.63 335.35 94.32 338.27 96"/><polyline class="cls-5" points="320.73 94.88 323.66 96.57 326.58 98.25 329.5 99.94 332.43 101.63 335.35 103.32 338.27 105 341.19 106.69 344.12 108.38 347.04 110.07 349.96 111.75 352.88 113.44 355.81 115.13 358.73 116.82 361.65 118.5"/><polyline class="cls-5" points="347.04 119.07 349.96 120.75 352.88 122.44"/><polyline class="cls-5" points="320.73 103.88 323.66 105.57 326.58 107.25 329.5 108.94 332.43 110.63 335.35 112.32 338.27 114 341.19 115.69"/><polyline class="cls-5" points="332.43 119.63 335.35 121.32 338.27 123 341.19 124.69 344.12 126.38 347.04 128.07 349.96 129.75 352.88 131.44 355.81 133.13 358.73 134.82 361.65 136.5"/><polyline class="cls-5" points="320.73 112.88 323.66 114.57 326.58 116.25"/><polyline class="cls-5" points="347.04 137.07 349.96 138.75 352.88 140.44 355.81 142.13 358.73 143.82 361.65 145.5"/><polyline class="cls-5" points="320.73 121.88 323.66 123.57 326.58 125.25 329.5 126.94 332.43 128.63 335.35 130.32 338.27 132 341.19 133.69"/><polygon class="cls-5" points="364.58 156.19 317.81 129.19 317.81 3.19 364.58 30.19 364.58 156.19"/><line class="cls-5" x1="361.65" y1="55.51" x2="344.12" y2="45.38"/><line class="cls-5" x1="355.81" y1="79.13" x2="361.65" y2="82.51"/><circle cx="324.82" cy="378.89" r="7.22"/><circle class="cls-5" cx="178.39" cy="287.88" r="8.89"/><path class="cls-15" d="M69.58,48c-69.86,4.14-109.36,147.6,0,188.55S191,288.82,207.22,338.1c18.83,57.16,168.17,129.18,181.76-19"/><circle class="cls-10" cx="204.86" cy="97.48" r="3.52"/><circle class="cls-8" cx="231.32" cy="62.39" r="3.52"/><path class="cls-8" d="M144,224c1.87,1.08,5.35-5.62,5.24-4.21,0,.09-2.62,19.24-2.63,19.33a4.86,4.86,0,0,1-2.61,3.19,14.19,14.19,0,0,1-12.82,0,4.81,4.81,0,0,1-2.6-3.15c0-.17-2.61-18.79-2.61-18.95,0-1.36,3.42,4.83,5.21,3.8A14.16,14.16,0,0,1,144,224Z"/><path class="cls-8" d="M145.78,214.8c2.39,1.38,3.53,3.2,3.41,5-.1,1.64-1.24,3.26-3.41,4.51-4.55,2.64-11.94,2.64-16.5,0a6.21,6.21,0,0,1-3.36-4.11c-.32-1.93.8-3.93,3.36-5.41C133.84,212.17,141.23,212.17,145.78,214.8Z"/><ellipse cx="137.53" cy="219.56" rx="9.16" ry="5.29"/><rect class="cls-16" x="37.3" y="334.56" width="34.65" height="30.8" rx="2.59"/><rect class="cls-2" x="41.15" y="346.11" width="14.12" height="1.28"/><rect class="cls-2" x="41.15" y="355.09" width="4.49" height="1.28"/><rect class="cls-2" x="47.57" y="355.09" width="4.49" height="1.28"/><rect class="cls-2" x="53.98" y="355.09" width="4.49" height="1.28"/><rect class="cls-2" x="41.15" y="350.6" width="20.53" height="1.28"/><path class="cls-11" d="M298.41,193.3c-5.52,4.53-18.65,6.74-21.05,4.94,10.05-14.45-22.29-43.71-28.66-56.81-1-21,22.38-30.29,38.46-21.17,20.71,11.75,13.09,52.89,16.38,57.39S305.6,187.39,298.41,193.3Z"/></g></svg>