<svg xmlns="http://www.w3.org/2000/svg" viewBox="0 0 415 415"><defs><style>.cls-1{fill:#f4d03e;}.cls-2{fill:#1a0960;}.cls-3{fill:#471caf;}.cls-4{fill:#2b0e87;}.cls-5{fill:#dee4eb;}.cls-6{fill:#a02ff7;}.cls-12,.cls-7{fill:#fff;}.cls-13,.cls-7{stroke:#471caf;}.cls-10,.cls-13,.cls-7,.cls-8,.cls-9{stroke-miterlimit:10;}.cls-10,.cls-13,.cls-8,.cls-9{fill:none;}.cls-8{stroke:#a0b3c1;stroke-dasharray:8;}.cls-9{stroke:#a02ff7;}.cls-10{stroke:#fff;}.cls-11{fill:#521ee2;}.cls-14{fill:#f2bf40;}.cls-15{fill:#c6590e;}.cls-16{fill:#dd7c12;}.cls-17{fill:#7a270e;}.cls-18{fill:#47212d;}</style></defs><title>data-science</title><g id="data_science"><circle class="cls-1" cx="150.26" cy="33.57" r="31.96"/><path class="cls-2" d="M280.35,9.13c16.66,31.55,15.75,80.48,38.25,114s28.89,24.11,37.07,14,39.07-40.72,55.43,28.23-35.87,85.76-35.87,85.76,17.64,44.06,17,48.2-9.39,7.32-9.39,7.32l-81.48,76.8L283.4,399.84S226,415,205.74,398.71C185.29,382.28,143.6,405,143.6,405l-21.13-51.23s-20.31-40.31-65.24-40.31c-62.95-62.3-7.61-189.23-7.61-189.23L35.16,91.91l53-15.34Z"/><path class="cls-3" d="M35.16,91.91a22.56,22.56,0,0,0,29-34.48C85.66,36.94,114.35,41,152.59,31.13,180.75,23.89,217.93,0,241.5,0c116.14,0-80.13,63.58,95.37,117.6C402,137.63,415,156.51,415,190.82c0,28.12-15.18,46.35-31.37,70.76-32.12,48.42,15.9,26.55,7.9,41.85a208.24,208.24,0,0,1-103,95.15,16.13,16.13,0,0,1-21.26-8.42A64.69,64.69,0,0,0,143.6,405C81.1,384.75,55.13,353.73,54.66,278,54.41,238.3,0,230.58,0,207.5c0-32,12.44-36.71,12.44-66.75C12.44,119.65,25.92,94.58,35.16,91.91Z"/><path class="cls-4" d="M303.71,343.05c-53.13,30.68-139.28,30.68-192.42,0S44.66,256.62,147,117.11c36.3-49.47,64.61,43.07,119.09,71.29C366.83,240.58,356.85,312.37,303.71,343.05Z"/><circle class="cls-5" cx="167.5" cy="410.67" r="4.33"/><circle class="cls-6" cx="375.23" cy="86.57" r="8.4"/><circle class="cls-7" cx="55.13" cy="349.54" r="36.15"/><path class="cls-8" d="M391,316.33c-10,56.95-61.47,85-135.59,65.11C156.62,355,55,253.38,28.56,154.55c-22.37-83.47,16-138.28,88-137.34"/><path class="cls-6" d="M303.71,343.05c-26.57,15.34-73.41,69.32-96.21,43-17.92-20.69-69.64-27.67-96.21-43S81.44,307.6,81.44,287.5s3.28-30.21,29.85-45.55c53.13-30.68,122.53-36.46,147.71-26.09,39.89,16.43,49.24,40.66,49.24,60.76S330.28,327.71,303.71,343.05Z"/><path class="cls-1" d="M303.71,343.05c-34.34,19.82-82.36,16.47-126.46,10.68-24.13-3.18-47.16.17-66-10.68-53.14-30.68-53.14-80.42,0-111.1,11.23-6.48,31.54-7.42,45.1-11.16,31.6-8.72,60.21-14.18,93.15-8,19.81,3.71,23.33,18.73,39.06,27.81C311.85,254,340,262.44,342.94,280,346.68,302.5,333.6,325.79,303.71,343.05Z"/><path class="cls-9" d="M86.67,121.34c-26.57,29.59-18.37,66.89,24.62,91.71,16,9.25,35.08,15.7,55.3,19.37v110c-20.22-3.67-39.27-10.12-55.3-19.37C68.12,298.12,60,260.61,87,231Z"/><path class="cls-9" d="M91.28,298.38c-21.67-20.49-25.59-45.48-11.77-67.59"/><path class="cls-9" d="M151.67,329.14a162.31,162.31,0,0,1-40.38-16.09"/><path class="cls-9" d="M98.9,294.84c-28.24-21.54-34.7-49.55-19.39-74"/><path class="cls-9" d="M151.67,319.14a179.59,179.59,0,0,1-22.9-7.56"/><path class="cls-9" d="M151.67,309.14a162.31,162.31,0,0,1-40.38-16.09c-38.53-22.25-49.12-54.51-31.78-82.26"/><path class="cls-9" d="M105,279.15c-33.33-22-41.81-52.19-25.46-78.36"/><path class="cls-9" d="M151.67,299.14a167.7,167.7,0,0,1-35.12-13.21"/><path class="cls-9" d="M74.74,234.76c-5.65-14.55-4.06-29.85,4.77-44"/><path class="cls-9" d="M151.67,289.14a162.31,162.31,0,0,1-40.38-16.09c-13.26-7.66-23.21-16.5-29.85-25.94"/><path class="cls-9" d="M151.67,279.14a162.31,162.31,0,0,1-40.38-16.09c-38.53-22.25-49.12-54.51-31.78-82.26"/><path class="cls-9" d="M111.29,253.05c-38.53-22.25-49.12-54.51-31.78-82.26"/><path class="cls-9" d="M151.67,269.14a179.59,179.59,0,0,1-22.9-7.56"/><path class="cls-9" d="M93.92,230.79c-24-20.93-28.77-47-14.41-70"/><path class="cls-9" d="M151.67,259.14a162.31,162.31,0,0,1-40.38-16.09"/><path class="cls-9" d="M151.67,249.14a162.31,162.31,0,0,1-40.38-16.09c-38.53-22.25-49.12-54.51-31.78-82.26"/><path class="cls-9" d="M111.25,223.05c-38.5-22.3-49-54.57-31.68-82.3"/><path class="cls-9" d="M151.61,239.19A175.48,175.48,0,0,1,124.89,230"/><path class="cls-9" d="M343.56,59.11c-.17-20-13.45-39.92-39.85-55.16V212c26.57,15.34,39.85,35.45,39.85,55.55Z"/><path class="cls-9" d="M338.92,247.11c-5.08-11-14.36-21.43-27.82-30.54"/><path class="cls-9" d="M338.92,197.11c-5.08-11-14.36-21.43-27.82-30.54"/><path class="cls-9" d="M338.92,207.11c-5.08-11-14.36-21.43-27.82-30.54"/><path class="cls-9" d="M338.92,217.11c-5.08-11-14.36-21.43-27.82-30.54"/><path class="cls-9" d="M338.92,227.11c-5.08-11-14.36-21.43-27.82-30.54"/><path class="cls-9" d="M338.92,237.11c-5.08-11-14.36-21.43-27.82-30.54"/><path class="cls-9" d="M338.92,187.11c-5.08-11-14.36-21.43-27.82-30.54"/><path class="cls-9" d="M338.92,177.11c-5.08-11-14.36-21.43-27.82-30.54"/><path class="cls-9" d="M338.92,167.11c-5.08-11-14.36-21.43-27.82-30.54"/><path class="cls-9" d="M338.92,157.11c-5.08-11-14.36-21.43-27.82-30.54"/><path class="cls-9" d="M338.92,147.11c-5.08-11-14.36-21.43-27.82-30.54"/><path class="cls-9" d="M338.92,137.11c-5.08-11-14.36-21.43-27.82-30.54"/><path class="cls-9" d="M338.92,127.11c-5.08-11-14.36-21.43-27.82-30.54"/><path class="cls-9" d="M338.92,117.11c-5.08-11-14.36-21.43-27.82-30.54"/><path class="cls-9" d="M338.92,107.11c-5.08-11-14.36-21.43-27.82-30.54"/><path class="cls-9" d="M338.92,97.11c-5.08-11-14.36-21.43-27.82-30.54"/><path class="cls-9" d="M338.92,87.11c-5.08-11-14.36-21.43-27.82-30.54"/><path class="cls-9" d="M338.92,77.11c-5.08-11-14.36-21.43-27.82-30.54"/><path class="cls-9" d="M338.92,67.11c-5.08-11-14.36-21.43-27.82-30.54"/><path class="cls-9" d="M338.92,57.11c-5.08-11-14.36-21.43-27.82-30.54"/><path class="cls-10" d="M286.72,53.64C233.56,31.6,159.08,34.36,111.29,62c-2.2,1.27-4.3,2.58-6.32,3.91v150c2-1.33,4.12-2.64,6.32-3.91,47.79-27.59,122.27-30.35,175.43-8.31Z"/><path class="cls-10" d="M138.53,179.76a158.68,158.68,0,0,0-22,9.31"/><path class="cls-10" d="M275.42,179.43c-33.27-11.08-72.93-13.37-108.83-6.87"/><path class="cls-10" d="M166.59,182.56c-18.06,3.28-35.17,8.78-50,16.51"/><path class="cls-10" d="M275.42,189.43c-29.72-9.9-64.53-12.79-97.22-8.65"/><path class="cls-10" d="M191.81,159.47c-27.18,1.81-53.6,8.34-75.26,19.6"/><path class="cls-10" d="M275.42,169.43a201.78,201.78,0,0,0-35.16-8.17"/><path class="cls-10" d="M275.42,159.43c-50-16.66-114.43-13.45-158.87,9.64"/><path class="cls-10" d="M142.42,148.49a161,161,0,0,0-25.87,10.58"/><path class="cls-10" d="M275.42,149.43C241.5,138.13,200.94,136,164.49,143"/><path class="cls-10" d="M275.42,139.43c-50-16.66-114.43-13.45-158.87,9.64"/><path class="cls-10" d="M128.39,133.57q-6.12,2.53-11.84,5.5"/><path class="cls-10" d="M275.42,129.43c-40.91-13.63-91.47-14-132.84-1"/><path class="cls-10" d="M147,117.11a164.29,164.29,0,0,0-30.46,12"/><path class="cls-10" d="M275.42,119.43C241.5,108.13,200.94,106,164.49,113"/><path class="cls-10" d="M244,101.82c-3.21-.52-6.46-1-9.72-1.34a232.5,232.5,0,0,0-72.88,3.1,174.53,174.53,0,0,0-44.82,15.49"/><path class="cls-10" d="M275.42,109.43c-1.94-.65-3.9-1.26-5.88-1.85"/><path class="cls-10" d="M169,92.14c-18.95,3.21-36.93,8.86-52.46,16.93"/><path class="cls-10" d="M275.42,99.43A199.51,199.51,0,0,0,246,92.15"/><path class="cls-10" d="M156.39,84.68a170.5,170.5,0,0,0-39.84,14.39"/><path class="cls-10" d="M275.42,89.43a213.22,213.22,0,0,0-57.64-10.25"/><path class="cls-10" d="M174.19,71.33c-20.85,3-40.7,8.93-57.64,17.74"/><path class="cls-10" d="M275.42,79.43a208.16,208.16,0,0,0-47.18-9.56"/><path class="cls-10" d="M141,69a159.37,159.37,0,0,0-24.42,10.12"/><path class="cls-10" d="M246,62.15a232.66,232.66,0,0,0-84.61,1.43"/><path class="cls-10" d="M275.42,69.43c-5.52-1.84-11.21-3.43-17-4.79"/><path class="cls-10" d="M191.78,49.47c-27.17,1.81-53.57,8.34-75.23,19.6"/><path class="cls-10" d="M275.42,59.43A215.48,215.48,0,0,0,212.52,49"/><path class="cls-10" d="M323.64,158.45a106.57,106.57,0,0,1-19.93,14.6A160.49,160.49,0,0,1,266.1,188.4v150a160.49,160.49,0,0,0,37.61-15.35,106.57,106.57,0,0,0,19.93-14.6Z"/><path class="cls-10" d="M272.18,326.62a156.3,156.3,0,0,0,31.53-13.57,112.44,112.44,0,0,0,15.59-10.76"/><path class="cls-10" d="M272.18,316.62a156.3,156.3,0,0,0,31.53-13.57,112.44,112.44,0,0,0,15.59-10.76"/><path class="cls-10" d="M272.18,306.62q8.16-2.55,15.81-5.78"/><path class="cls-10" d="M272.18,296.62a171.72,171.72,0,0,0,16.42-6"/><path class="cls-10" d="M272.18,286.62a171.72,171.72,0,0,0,16.42-6"/><path class="cls-10" d="M272.18,276.62a156.3,156.3,0,0,0,31.53-13.57,112.44,112.44,0,0,0,15.59-10.76"/><path class="cls-10" d="M272.18,266.62a156.3,156.3,0,0,0,31.53-13.57,112.44,112.44,0,0,0,15.59-10.76"/><path class="cls-10" d="M272.18,256.62a156.3,156.3,0,0,0,31.53-13.57,112.44,112.44,0,0,0,15.59-10.76"/><path class="cls-10" d="M272.18,246.62a171.72,171.72,0,0,0,16.42-6"/><path class="cls-10" d="M272.18,236.62a156.3,156.3,0,0,0,31.53-13.57,112.44,112.44,0,0,0,15.59-10.76"/><path class="cls-10" d="M272.18,226.62a156.3,156.3,0,0,0,31.53-13.57,112.44,112.44,0,0,0,15.59-10.76"/><path class="cls-10" d="M272.18,216.62a156.3,156.3,0,0,0,31.53-13.57,112.44,112.44,0,0,0,15.59-10.76"/><path class="cls-10" d="M288.6,200.58a141.8,141.8,0,0,0,15.11-7.53,112.44,112.44,0,0,0,15.59-10.76"/><path class="cls-10" d="M297.19,186.58c2.22-1.13,4.4-2.31,6.52-3.53a112.44,112.44,0,0,0,15.59-10.76"/><circle class="cls-11" cx="263.31" cy="383.42" r="7.36"/><path d="M185.46,173s-1.28,11.22-1.28,16.57,3.84,31.75,3.84,33.7-2.92,11.14-2.92,18.93-1,34.64-1,34.64c8,3.16,10.22-1.22,10.22-1.22,7.79-43.57,8.79-53.57,8.79-53.57l3.49-22.15,2.62,18.2-1,12.39L213,266.66s8.79,0,9.21-2.92c.6-23.89.6-49.05.6-49.05-.62-22.7-3-58.18-3-58.18Z"/><path d="M195.91,94.5l-16.87-7c-2.23-11,6.07-19.7,11.2-22.6C197.16,61,195,59.42,195,59.42c3.5.55,5.82,4.87,4.9,7s6,20.33,6,20.33Z"/><polygon class="cls-6" points="236.82 139.9 216.69 136.94 218.66 126.1 239.78 134.83 236.82 139.9"/><path class="cls-6" d="M221,164.32s3-46.71,3-53.73-8.85-21-8.85-21-22.4,7.8-36.7,20.82c-5.68,22.86,10.67,42.68,7,62.59C199,178.66,221,174.25,221,164.32Z"/><polygon points="223.94 148.92 226.39 143.99 232.97 129.64 255.47 115.71 256.8 116.03 250.66 136.49 223.87 153.29 223.55 152.8 223.94 148.92"/><path class="cls-12" d="M219.53,154.26l2.15-6.93,4.68-3.34-2.43,4.93,4.32-.77s.75-2.61,2.82-3.08a39.17,39.17,0,0,0,1.31,8.45,40.49,40.49,0,0,1-1.69,4.63c-6.57.06-14.73,3.54-14.73,3.54Z"/><path class="cls-12" d="M245.23,139.9s2.11-5.9,2.6-6.25a19.37,19.37,0,0,1,3.88-.65l1.4-4.69,1,.65c-.56,1.69,1.13,4.23,1.13,4.23.44,3.92-1.82,8.07-1.82,8.07A31.07,31.07,0,0,0,245.23,139.9Z"/><path class="cls-6" d="M217.53,155.26l2.25,7.43c-19.19,9.45-52.68-3-52.68-3-3.4-31.82,11.36-49.28,11.36-49.28,10,3.83,4.39,32.82-1.3,40.78C188.45,153.29,194.63,162.91,217.53,155.26Z"/><path class="cls-12" d="M193.34,99.84s4.25-3.84,1.83-7.73-4.67-4.68-6.15-7.06,2.46-4,3.49-3.25a17.27,17.27,0,0,1,2.54,3.07l2.81-1.53s1.39,2.11-1.89-3.16-7-10,3.93-13.74a35.25,35.25,0,0,0,4,7.17l5.46,3.21a4.61,4.61,0,0,1-2,2.62l4,6.4-5.05,5.61L205,108.75Z"/><path d="M184.1,276.88v8.21c8.28,7.69,13.12,10.51,19.34,9.57s6.21-3.4,6.21-3.4c0-3-14.71-2.12-15.33-15.6S184.1,276.88,184.1,276.88Z"/><path d="M213,266.66v7.72c7.79,7.24,12.34,9.89,18.19,9s5.85-3.2,5.85-3.2c0-2.81-14.84-3-15.43-15.68S213,266.66,213,266.66Z"/><rect class="cls-13" x="44.66" y="332.79" width="20.94" height="8.37"/><rect class="cls-13" x="44.66" y="345.35" width="20.94" height="8.37"/><rect class="cls-13" x="44.66" y="357.91" width="20.94" height="8.37"/><polyline class="cls-13" points="44.66 336.98 36.28 336.98 36.28 349.54 44.66 349.54"/><polyline class="cls-13" points="65.59 349.54 73.97 349.54 73.97 362.1 65.59 362.1"/><path class="cls-14" d="M218.45,286a3.89,3.89,0,0,0-1.74-4.41,4.65,4.65,0,0,0-5,.48Z"/><path class="cls-15" d="M203.51,340.74s2.87,2.95,13-5.39c8.74-7.18,11.82-21.62.3-33.14-16-15.95,3.26-24,1.63-16.21,1.93-7.69-12.56-11.89-18.64-10.56-7.66,1.66-18,14.35-9,29.44S209.72,340,203.51,340.74Z"/><path class="cls-16" d="M210.24,327.12c-4.66-8.79-13.21-20.51-18.79-21.1s-7.51,3-6.78,6.5c.56,2.67,2.16,4,3.67,5.41,1.79,1.66,3.44,3.39,3,7.53-.75,7.63,10.62,11.92,13.51,8.3S210.24,327.12,210.24,327.12Z"/><path class="cls-16" d="M185,330.76c1-6.37,5.22-10,6.11-17.38,0,0,9.47,18.64,8,22.49s-7,1.77-8.29,2.66-.72,3.26-.72,3.26c-1.78,1.93-5.44,1.43-6.43,1a3,3,0,0,1,2-3.51C185.7,337.2,184,336.84,185,330.76Z"/><path class="cls-14" d="M189.58,314.21c5.76,1.09,7.32,6.23,6.74,14.19-.76,10.33,1.7,10.87,2.89,12.05-7,.1-11.87-3.51-10.66-13,.89-6.93,1.51-8-.21-9.51S186.63,313.66,189.58,314.21Z"/><path class="cls-16" d="M195,330.52c-.61,9.92,8.82,12.11,9.12,15.07a3,3,0,0,0-1.38,4.11,7.62,7.62,0,0,0,6.92-2.36,23,23,0,0,1-.49-3.44c.85-3,4.93-8.88,1.07-16.78C205.68,317.77,195.6,320.94,195,330.52Z"/><path class="cls-16" d="M184.71,294.12h.77a8.12,8.12,0,0,1,8.12,8.12v8.89a0,0,0,0,1,0,0h-17a0,0,0,0,1,0,0v-8.89A8.12,8.12,0,0,1,184.71,294.12Z" transform="translate(314.83 632.79) rotate(-170)"/><path class="cls-16" d="M194.17,300.16l1.52-8.63c-4.19-.74-5.17,3.41-5.17,3.41S190,299.42,194.17,300.16Z"/><path class="cls-16" d="M177.41,297.21l1.53-8.63c4.19.74,3.69,5,3.69,5S181.6,297.94,177.41,297.21Z"/><path class="cls-17" d="M183.46,304.22a1.29,1.29,0,0,1,1.44-.5,1.34,1.34,0,0,1,1.19,1c-.12.73-.68,1.91-1.66,1.73S183.33,305,183.46,304.22Z"/><path class="cls-17" d="M188.94,302.38a.65.65,0,0,0,.52.76.66.66,0,0,0,.76-.53c.06-.35-.12-1-.47-1.08S189,302,188.94,302.38Z"/><path class="cls-17" d="M180.29,300.86a.65.65,0,0,0,.53.75.64.64,0,0,0,.75-.52c.07-.36-.11-1-.47-1.08S180.36,300.51,180.29,300.86Z"/><path class="cls-18" d="M210.54,313.38l-.58,2.81a2.61,2.61,0,0,0,2,3.09l4.14.88a2.59,2.59,0,0,0,3.06-2l.21-1,2.09.45-.21,1a2.6,2.6,0,0,0,2,3.08l4.13.88a2.58,2.58,0,0,0,3.06-2l.59-2.82-9.19-2-.21,1-2.09-.45.21-1Zm11.94,3.4,7.54,1.6-.41,2a1.74,1.74,0,0,1-2.06,1.36l-4.14-.88a1.76,1.76,0,0,1-1.35-2.08Zm-11.29-2.39,7.55,1.6-.41,2a1.75,1.75,0,0,1-2.07,1.36l-4.13-.88a1.76,1.76,0,0,1-1.35-2.08Z"/><polygon class="cls-18" points="218.88 327.3 218.16 327.3 218.16 326.39 210.69 314.31 211.3 313.93 218.88 326.18 218.88 327.3"/><polygon class="cls-18" points="238.51 331.18 237.79 331.18 237.79 330.27 230.31 318.18 230.93 317.81 238.51 330.06 238.51 331.18"/><path class="cls-16" d="M210.25,315.91a2.53,2.53,0,0,1-2-.92c-7-8.55-15.92-5.22-16-5.18a2.53,2.53,0,1,1-1.84-4.71,18.47,18.47,0,0,1,7.4-1,18.25,18.25,0,0,1,13.89,7.12,10,10,0,0,1,1.54,2.74s-1,1-1.43,1.35A2.5,2.5,0,0,1,210.25,315.91Z"/><path class="cls-16" d="M176.12,320.16a2.14,2.14,0,0,1-.91-.2,2.18,2.18,0,0,1-1.05-2.88c3.26-7,12-9.91,12.32-10a2.17,2.17,0,0,1,1.34,4.12c-.08,0-7.28,2.46-9.73,7.74A2.17,2.17,0,0,1,176.12,320.16Z"/><path class="cls-6" d="M254.26,342.59c-5.15,0-5.15,8,0,8S259.42,342.59,254.26,342.59Z"/><path class="cls-6" d="M175.48,245.75a1,1,0,0,0,0,2A1,1,0,0,0,175.48,245.75Z"/><path class="cls-12" d="M250.36,257.51c-3.21,0-3.22,5,0,5S253.58,257.51,250.36,257.51Z"/><path class="cls-12" d="M380.62,171.65a1,1,0,0,0,0,2A1,1,0,0,0,380.62,171.65Z"/><path class="cls-12" d="M253.48,13.44c-5.15,0-5.15,8,0,8S258.64,13.44,253.48,13.44Z"/><path class="cls-3" d="M239.44,245.53c-2.57,0-2.58,4,0,4S242,245.53,239.44,245.53Z"/><path class="cls-1" d="M384.52,224.47c-2.57,0-2.58,4,0,4S387.1,224.47,384.52,224.47Z"/><path class="cls-1" d="M399.34,233c-7.72,0-7.74,12,0,12S407.07,233,399.34,233Z"/><path class="cls-4" d="M51.59,120.18c-7.72,0-7.73,12,0,12S59.32,120.18,51.59,120.18Z"/><path class="cls-4" d="M206.17,6.46c-5.15,0-5.16,8,0,8S211.32,6.46,206.17,6.46Z"/></g></svg>