<svg xmlns="http://www.w3.org/2000/svg" xmlns:xlink="http://www.w3.org/1999/xlink" viewBox="0 0 1920 573"><defs><style>.cls-1,.cls-12,.cls-42{fill:none;}.cls-2{clip-path:url(#clip-path);}.cls-3{fill:#0c4977;}.cls-4{fill:#0d5c91;}.cls-5{opacity:0.5;}.cls-6{opacity:0.2;}.cls-7{opacity:0.75;}.cls-8{fill:#003575;}.cls-15,.cls-9{fill:#269bc4;}.cls-10,.cls-11,.cls-13,.cls-16,.cls-17,.cls-32,.cls-33,.cls-34,.cls-35,.cls-36,.cls-9{fill-rule:evenodd;}.cls-10,.cls-20{fill:#0d3f75;}.cls-11,.cls-26{fill:#196fa3;}.cls-12{stroke:#0e1d4c;}.cls-12,.cls-42{stroke-miterlimit:10;stroke-width:0.5px;}.cls-13,.cls-19{fill:#0e2d72;}.cls-14{fill:#2081b7;}.cls-16,.cls-18{fill:#070a51;}.cls-17,.cls-48{fill:#1a57a0;}.cls-21{fill:#9fcae9;}.cls-22{fill:#ff9300;}.cls-23{fill:#e45c30;}.cls-24,.cls-34{fill:#135291;}.cls-25{fill:#00508b;}.cls-27{fill:#94914a;}.cls-28,.cls-36{fill:#1880ad;}.cls-29{fill:#05093a;}.cls-30{fill:#193a84;}.cls-31,.cls-35{fill:#0d2875;}.cls-32{fill:#003564;}.cls-33{fill:#004c7c;}.cls-37{fill:#082051;}.cls-38{fill:#102f66;}.cls-39{fill:#512207;}.cls-40{fill:#703711;}.cls-41{fill:#528ceb;}.cls-42{stroke:#070a51;}.cls-43{fill:#20124c;}.cls-44{fill:#082463;}.cls-45{fill:#bf5035;}.cls-46{fill:#fccca6;}.cls-47{fill:#1b4d9e;}</style><clipPath id="clip-path"><rect class="cls-1" width="1920" height="573"/></clipPath></defs><title>Artboard 1 copy</title><g id="Layer_4" data-name="Layer 4"><g class="cls-2"><path class="cls-3" d="M88,289.94l-141.48-81.6c-5.31-3.06-4.64-8.45,1.49-12L86.54,116.48c6.13-3.53,15.48-3.92,20.79-.86l141.48,81.6c5.3,3.06,4.63,8.45-1.49,12l-138.5,79.88C102.7,292.61,93.34,293,88,289.94Z"/><path class="cls-3" d="M-84,388.69l-141.48-81.6c-5.3-3.06-4.63-8.45,1.5-12l138.49-79.88c6.12-3.53,15.48-3.92,20.78-.86L76.78,296c5.31,3.06,4.64,8.45-1.49,12L-63.2,387.83C-69.33,391.36-78.68,391.75-84,388.69Z"/><path class="cls-3" d="M88,487.9-53.44,406.31c-5.31-3.06-4.64-8.46,1.49-12L86.54,314.45c6.13-3.54,15.48-3.93,20.79-.87l141.48,81.6c5.3,3.06,4.63,8.46-1.49,12L108.82,487C102.7,490.58,93.34,491,88,487.9Z"/><path class="cls-3" d="M260.06,587.12l-141.48-81.6c-5.3-3.06-4.63-8.45,1.5-12l138.49-79.87c6.13-3.53,15.48-3.92,20.79-.86l141.47,81.6c5.31,3.06,4.64,8.45-1.49,12L280.85,586.26C274.72,589.79,265.37,590.18,260.06,587.12Z"/><path class="cls-3" d="M432.89,487.44l-141.48-81.6c-5.3-3.06-4.63-8.45,1.5-12L431.4,314c6.13-3.53,15.48-3.92,20.78-.86l141.48,81.6c5.31,3.06,4.64,8.45-1.49,12L453.68,486.58C447.55,490.11,438.2,490.5,432.89,487.44Z"/><path class="cls-4" d="M88,287.16l-141.48-81.6c-5.31-3.06-4.64-8.45,1.49-12L86.54,113.7c6.13-3.53,15.48-3.92,20.79-.86l141.48,81.6c5.3,3.06,4.63,8.45-1.49,12L108.82,286.3C102.7,289.83,93.34,290.22,88,287.16Z"/><path class="cls-3" d="M262,191.53l-141.48-81.6c-5.3-3.06-4.63-8.45,1.49-12l138.5-79.88c6.12-3.53,15.48-3.92,20.78-.86l141.48,81.6c5.31,3.06,4.64,8.45-1.49,12L282.83,190.67C276.7,194.2,267.35,194.59,262,191.53Z"/><path class="cls-4" d="M262,188.75l-141.48-81.6c-5.3-3.06-4.63-8.45,1.49-12l138.5-79.88c6.12-3.53,15.48-3.92,20.78-.86L422.81,96c5.31,3.06,4.64,8.45-1.49,12L282.83,187.89C276.7,191.42,267.35,191.81,262,188.75Z"/><g class="cls-5"><path class="cls-3" d="M777.75,487l-141.48-81.6c-5.31-3.06-4.64-8.45,1.49-12l138.49-79.87c6.13-3.53,15.48-3.92,20.79-.86l141.48,81.6c5.3,3.06,4.63,8.45-1.49,12l-138.5,79.88C792.41,489.65,783.05,490,777.75,487Z"/><path class="cls-4" d="M777.75,484.2,636.27,402.6c-5.31-3.06-4.64-8.45,1.49-12l138.49-79.87c6.13-3.54,15.48-3.92,20.79-.86l141.48,81.59c5.3,3.06,4.63,8.46-1.49,12l-138.5,79.88C792.41,486.87,783.05,487.26,777.75,484.2Z"/></g><g class="cls-6"><path class="cls-4" d="M777.75,683.53l-141.48-81.6c-5.31-3.06-4.64-8.45,1.49-12l138.49-79.87c6.13-3.53,15.48-3.92,20.79-.86l141.48,81.6c5.3,3.06,4.63,8.45-1.49,12l-138.5,79.88C792.41,686.2,783.05,686.59,777.75,683.53Z"/><path class="cls-4" d="M1122.68,683.53,981.2,601.93c-5.3-3.06-4.63-8.45,1.5-12l138.49-79.87c6.13-3.53,15.48-3.92,20.79-.86l141.47,81.6c5.31,3.06,4.64,8.45-1.49,12l-138.49,79.88C1137.34,686.2,1128,686.59,1122.68,683.53Z"/></g><g class="cls-6"><path class="cls-3" d="M949.77,586.19,808.29,504.6c-5.3-3.06-4.63-8.46,1.5-12l138.49-79.88c6.13-3.53,15.48-3.92,20.78-.86l141.48,81.6c5.31,3.06,4.64,8.45-1.49,12L970.56,585.33C964.43,588.87,955.08,589.25,949.77,586.19Z"/><path class="cls-4" d="M949.77,583.41l-141.48-81.6c-5.3-3.06-4.63-8.45,1.5-12L948.28,410c6.13-3.53,15.48-3.92,20.78-.86l141.48,81.6c5.31,3.06,4.64,8.45-1.49,12L970.56,582.55C964.43,586.08,955.08,586.47,949.77,583.41Z"/></g><g class="cls-7"><path class="cls-3" d="M260.87,388.23l-141.48-81.6c-5.31-3.06-4.64-8.45,1.49-12l138.49-79.87c6.13-3.54,15.48-3.92,20.79-.86L421.64,295.5c5.3,3.06,4.63,8.46-1.49,12l-138.5,79.88C275.53,390.9,266.17,391.29,260.87,388.23Z"/><path class="cls-4" d="M260.87,385.45l-141.48-81.6c-5.31-3.06-4.64-8.46,1.49-12L259.37,212c6.13-3.54,15.48-3.92,20.79-.86l141.48,81.59c5.3,3.06,4.63,8.46-1.49,12l-138.5,79.87C275.53,388.12,266.17,388.51,260.87,385.45Z"/></g><path class="cls-4" d="M-84,385.91l-141.48-81.6c-5.3-3.06-4.63-8.45,1.5-12l138.49-79.87c6.12-3.53,15.48-3.92,20.78-.86l141.48,81.6c5.31,3.06,4.64,8.45-1.49,12L-63.2,385.05C-69.33,388.58-78.68,389-84,385.91Z"/><path class="cls-4" d="M88,485.12-53.44,403.53c-5.31-3.06-4.64-8.46,1.49-12L86.54,311.66c6.13-3.53,15.48-3.92,20.79-.86l141.48,81.6c5.3,3.06,4.63,8.45-1.49,12l-138.5,79.87C102.7,487.8,93.34,488.18,88,485.12Z"/><path class="cls-4" d="M260.06,584.34l-141.48-81.6c-5.3-3.06-4.63-8.45,1.5-12l138.49-79.87c6.13-3.54,15.48-3.92,20.79-.86l141.47,81.59c5.31,3.06,4.64,8.46-1.49,12L280.85,583.48C274.72,587,265.37,587.4,260.06,584.34Z"/><path class="cls-4" d="M432.89,484.66l-141.48-81.6c-5.3-3.06-4.63-8.45,1.5-12L431.4,311.2c6.13-3.53,15.48-3.92,20.78-.86l141.48,81.6c5.31,3.06,4.64,8.45-1.49,12L453.68,483.8C447.55,487.33,438.2,487.72,432.89,484.66Z"/><path class="cls-8" d="M92.21,100S95.41,110.93,92,120,83.19,152.81,99.17,153s11.28-38.88,11.28-38.88S104.06,92.71,92.21,100Z"/><path class="cls-9" d="M103.68,125s-7.14,3.38-10.34,15.4S80.18,172,80.18,172l10.9-4.13L95.22,162s10-10.33,15-18.41S114,119.76,103.68,125Z"/><path class="cls-10" d="M136.25,173.38s12.32,14.74,15.23,33.34-8.91,21.4-12.91,21.76-7.08-8.93-7.08-8.93a36.52,36.52,0,0,0-21.44-26c-18.87-8.38-35.61-1.36-37.43.81S45.54,184.2,57.4,176.11s40.81-13.69,57.67-8.14S128.79,165.24,136.25,173.38Z"/><path class="cls-11" d="M99.54,164.65c-3.67-6.82-6.39-12.77-3.38-21.85,2.08-6.28,5.77-16.4,9.65-18s8.53-4.38,12.66-2.38,4.22,1.06,12.79,7.51c4.57,3.44,4.13,7.89,5.26,20.28s-3.16,15.35,2.32,26.3c3.76,7.51-33.11,15-33.65,3.57C104.81,172.16,103.43,171.85,99.54,164.65Z"/><path class="cls-12" d="M101.61,149.25s.44-6.95-2.44-10.71-5.77-10-2.88-17.28"/><path class="cls-13" d="M70.93,186c.4-4,22.94-5.25,41.12,1.81a53,53,0,0,1,26.17,22.57l-.83,7.61-6.28-.16a36.91,36.91,0,0,0-21.06-24.25c-15.4-6.83-29.38-3.42-35-.75C72.62,190,70.79,187.36,70.93,186Z"/><path class="cls-14" d="M122.06,119.33a13.67,13.67,0,0,1,1.84,3.83c.81,2.32.24,4.56-3,6.77-4.4,3-3.6,10.91-12,7.48s7.05-9.76-1.25-16.56c-6.1-5,9.09-8.81,9.09-8.81S120.75,117.29,122.06,119.33Z"/><path class="cls-15" d="M115.88,114.77c1.07-.74.58,4.37-3.36,8.18-1.28,1.24-7.7,5.73-12.85,3.7-4.76-1.88-4.88-4.92-6.18-9.57s-2.08-8.43-1.55-12.82-1-8.07,6.24-12.64,12.42-2.79,16.69.59,6.36,4.52,6.36,12.11S115.88,111.92,115.88,114.77Z"/><path class="cls-13" d="M85.09,205.41s-4.33-5.32-11.19-5.82-24.13,3.61-25.62,7.9,1.81,8.7,5.27,8.12S74,212.54,80.92,214,91.65,209,85.09,205.41Z"/><path class="cls-10" d="M137.16,206.57s9.84,1.55,12.5,7-1.27,14.65-14.17,15.22-50-11.94-56.48-16.33c-4.41-6.32,1.81-10.17,4.56-9.5s17.65,8.1,29.82,6.26S126.91,205.13,137.16,206.57Z"/><path class="cls-16" d="M73.9,199.59a14.66,14.66,0,0,1,3.76.79,111.3,111.3,0,0,0-19,3.15c-12.11,3.07-9.62,6.13-9.22,7.71a20.37,20.37,0,0,0,1.16,3.66,6.51,6.51,0,0,1-2.3-7.41C49.77,203.2,67,199.09,73.9,199.59Z"/><path class="cls-13" d="M83.57,203c2.12.53,11.55,5.1,21.34,6.27,3.66,2.76,9.8,9.17,13.44,13.08a14.5,14.5,0,0,1,2.76,4.56C105,223.27,83.77,215.67,79,212.45,74.6,206.13,80.82,202.28,83.57,203Z"/><path class="cls-17" d="M124.49,141.17S123,177.48,115,180.74,126,182,126,182l9.28-4.51Z"/><path class="cls-13" d="M97.15,217s4-5.63,9.36-2.6a22.78,22.78,0,0,1,3.76,2.73c7.43,6.55,16.45,22.4,10,26s-8.87,2.13-10,.19S105,229.69,98.1,223.53C91.83,217.92,96.22,220.59,97.15,217Z"/><path class="cls-16" d="M111,244.37a23.5,23.5,0,0,0,4.81-1.08c3.14-1.09,6.78-1.41,4.16-9.64-1.88-5.89-9-14.53-13-19a24.84,24.84,0,0,1,3.23,2.42c7.43,6.55,16.45,22.4,10,26C115,246.13,112.42,245.69,111,244.37Z"/><path class="cls-10" d="M103.49,213.12a5.61,5.61,0,0,1-1.1,6.44,15.66,15.66,0,0,1-5,3.54S78.8,208.81,67.78,203.24,48.33,183,56,177.2s18.43-.63,25,11.32S103.49,213.12,103.49,213.12Z"/><path class="cls-18" d="M81.56,162s-1.36-5.52-1.87-6.72c-.42-1-7-3.78-9.84-4.75-.6-.21-1.34.78-1.3.93,1.1,4.29,5,16.58,5,16.58l7.63,7.48L85.82,172Z"/><path class="cls-19" d="M78.12,156c.69.48,4.14,15.8,4.14,15.8l-5.55-.59-3.18-3.12s-3.78-12-4.94-16.42A51.79,51.79,0,0,1,78.12,156Z"/><path class="cls-15" d="M112.2,177.93c-11.13-1-20-2.23-21.68-3.73a13.06,13.06,0,0,1-3.58-5.73c-.69-2.82-2.71-4-3.66-5.77s-1.9-2.31-2.55-1.36.33,5.26,1.46,6.39c.45.45-3.74,1.55-5.08.81s-1.7-1.7-3.29-2.41-1.16-.25-.47,3.71,2.19,8.45,3.57,9.56,8.92.31,9.76.2c2.16-.28,18.66,6.41,21.8,7.23,11.39,3,23.44,5.53,28.05-2.33s4-42.8-.6-49.79-13.35-.5-12.2,9.8,2.13,30.56,1.13,32S119.83,178.62,112.2,177.93Z"/><ellipse class="cls-18" cx="71.87" cy="157.34" rx="0.52" ry="0.91" transform="translate(-82.08 78.47) rotate(-38.32)"/><ellipse class="cls-18" cx="70.98" cy="154.98" rx="0.52" ry="0.91" transform="translate(-80.81 77.41) rotate(-38.32)"/><path class="cls-12" d="M113.27,112.43A29.38,29.38,0,0,1,111,129.71c-4.13,8.64-9.59,12.77-9.4,19.54S108.76,199,96,197.7,87,173.1,88.08,159s-6-16.71-9.78-14.84-2.63,9.77-2.63,9.77"/><rect class="cls-18" x="75.01" y="150.28" width="1.13" height="3.8" rx="0.56" transform="translate(163.28 297.7) rotate(175.33)"/><path class="cls-8" d="M94.37,100.79a21,21,0,0,0,9.06,13.59c-2.26-2.38-2.76-5.14-2-7a8.34,8.34,0,0,0,7.15,8.27c3.51.5,6.26.66,8.77,7.51,1.38,3.76,2.26,15.15-5.14,16.78,9.53,9.89,24.57.12,24-10.58-.38-7.07-1.82-8.89-8.09-22.92s-4.21-17.1-14.66-22.22c-6.39-3.13-14.57-.88-20.31,4.38s-5.92,15.59-3.76,19.07C89,103.8,91.74,101.92,94.37,100.79Z"/><path class="cls-3" d="M1468.26,287.16l-141.48-81.6c-5.31-3.06-4.63-8.45,1.49-12l138.5-79.88c6.12-3.53,15.47-3.92,20.78-.86L1629,194.44c5.3,3.06,4.63,8.45-1.49,12L1489,286.3C1482.92,289.83,1473.56,290.22,1468.26,287.16Z"/><path class="cls-3" d="M1812.31,485.59,1670.83,404c-5.3-3.06-4.63-8.45,1.49-12l138.5-79.88c6.12-3.53,15.48-3.92,20.78-.86l141.48,81.6c5.31,3.06,4.64,8.45-1.49,12L1833.1,484.73C1827,488.26,1817.62,488.65,1812.31,485.59Z"/><path class="cls-3" d="M1467.46,486.05,1326,404.46c-5.31-3.06-4.64-8.46,1.49-12L1466,312.59c6.13-3.53,15.48-3.92,20.79-.86l141.48,81.6c5.3,3.06,4.63,8.45-1.5,12l-138.49,79.87C1482.11,488.73,1472.76,489.11,1467.46,486.05Z"/><path class="cls-3" d="M1639.48,585.27,1498,503.67c-5.3-3.06-4.63-8.45,1.49-12L1638,411.81c6.12-3.54,15.48-3.92,20.78-.86l141.48,81.59c5.31,3.06,4.64,8.46-1.49,12l-138.49,79.88C1654.14,587.94,1644.79,588.33,1639.48,585.27Z"/><path class="cls-4" d="M1468.26,284.38l-141.48-81.6c-5.31-3.06-4.63-8.45,1.49-12l138.5-79.87c6.12-3.53,15.47-3.92,20.78-.86L1629,191.66c5.3,3.06,4.63,8.45-1.49,12L1489,283.52C1482.92,287.05,1473.56,287.44,1468.26,284.38Z"/><path class="cls-4" d="M1812.31,482.81l-141.48-81.6c-5.3-3.06-4.63-8.45,1.49-12l138.5-79.87c6.12-3.53,15.48-3.92,20.78-.86l141.48,81.59c5.31,3.06,4.64,8.46-1.49,12L1833.1,482C1827,485.48,1817.62,485.87,1812.31,482.81Z"/><g class="cls-7"><path class="cls-3" d="M1295.43,386.84,1154,305.24c-5.3-3.06-4.63-8.45,1.49-12l138.5-79.87c6.12-3.53,15.48-3.92,20.78-.86l141.48,81.59c5.31,3.06,4.63,8.46-1.49,12L1316.21,386C1310.09,389.51,1300.74,389.9,1295.43,386.84Z"/><path class="cls-4" d="M1295.43,384.06,1154,302.46c-5.3-3.06-4.63-8.45,1.49-12l138.5-79.87c6.12-3.54,15.48-3.92,20.78-.86l141.48,81.59c5.31,3.06,4.63,8.46-1.49,12l-138.5,79.88C1310.09,386.73,1300.74,387.12,1295.43,384.06Z"/></g><path class="cls-4" d="M1467.46,483.27,1326,401.67c-5.31-3.06-4.64-8.45,1.49-12L1466,309.81c6.13-3.53,15.48-3.92,20.79-.86l141.48,81.6c5.3,3.06,4.63,8.45-1.5,12l-138.49,79.87C1482.11,485.94,1472.76,486.33,1467.46,483.27Z"/><path class="cls-3" d="M1639.92,387.89l-141.47-81.6c-5.31-3.06-4.64-8.45,1.49-12l138.49-79.87c6.13-3.53,15.48-3.92,20.79-.86l141.48,81.6c5.3,3.06,4.63,8.45-1.5,12L1660.71,387C1654.58,390.56,1645.23,391,1639.92,387.89Z"/><path class="cls-4" d="M1639.92,385.11l-141.47-81.6c-5.31-3.06-4.64-8.45,1.49-12l138.49-79.87c6.13-3.54,15.48-3.92,20.79-.86l141.48,81.59c5.3,3.06,4.63,8.46-1.5,12l-138.49,79.88C1654.58,387.78,1645.23,388.17,1639.92,385.11Z"/><path class="cls-4" d="M1639.48,582.49,1498,500.89c-5.3-3.06-4.63-8.46,1.49-12L1638,409c6.12-3.54,15.48-3.92,20.78-.86l141.48,81.59c5.31,3.06,4.64,8.46-1.49,12l-138.49,79.87C1654.14,585.16,1644.79,585.55,1639.48,582.49Z"/><g class="cls-5"><path class="cls-3" d="M1122.6,486.52l-141.48-81.6c-5.3-3.06-4.63-8.46,1.49-12l138.5-79.87c6.12-3.54,15.48-3.92,20.78-.86l141.48,81.59c5.31,3.06,4.64,8.46-1.49,12l-138.49,79.87C1137.26,489.19,1127.91,489.58,1122.6,486.52Z"/><path class="cls-4" d="M1122.6,483.73,981.12,402.14c-5.3-3.06-4.63-8.46,1.49-12l138.5-79.88c6.12-3.53,15.48-3.92,20.78-.86L1283.37,391c5.31,3.06,4.64,8.45-1.49,12l-138.49,79.87C1137.26,486.41,1127.91,486.79,1122.6,483.73Z"/></g><g class="cls-5"><path class="cls-3" d="M1294.63,585.73l-141.48-81.6c-5.31-3.06-4.64-8.45,1.49-12l138.49-79.88c6.13-3.53,15.48-3.92,20.79-.86L1455.4,493c5.3,3.06,4.63,8.45-1.49,12l-138.5,79.88C1309.29,588.4,1299.93,588.79,1294.63,585.73Z"/><path class="cls-4" d="M1294.63,583l-141.48-81.6c-5.31-3.06-4.64-8.45,1.49-12l138.49-79.87c6.13-3.53,15.48-3.92,20.79-.86l141.48,81.6c5.3,3,4.63,8.45-1.49,12l-138.5,79.88C1309.29,585.62,1299.93,586,1294.63,583Z"/></g><path class="cls-4" d="M1467.62,683.53l-141.48-81.6c-5.3-3.06-4.63-8.45,1.49-12l138.5-79.87c6.12-3.53,15.48-3.92,20.78-.86l141.48,81.6c5.31,3.06,4.64,8.45-1.49,12l-138.49,79.88C1482.28,686.2,1472.93,686.59,1467.62,683.53Z"/><polygon class="cls-4" points="1892.26 223.64 1815.75 179.51 1815.75 132.46 1892.26 176.58 1892.26 223.64"/><path class="cls-20" d="M1859,174.22s-3-11.19,5-9.07,8.71,10.1,12.48,10.82c3.15,5.93-.75,10.74-4.93,9.62C1863.73,183.47,1860.69,179.06,1859,174.22Z"/><path class="cls-20" d="M1852.15,200.5l31.13,18c-2.21-9.86-8.34-19.57-15.57-23.74S1854.36,193.2,1852.15,200.5Z"/><path class="cls-19" d="M1867.71,198.47h0a7,7,0,0,1-2.93-5.6v-2c0-2.15,1.32-3.15,2.93-2.21h0a7,7,0,0,1,2.94,5.6v2C1870.65,198.41,1869.33,199.41,1867.71,198.47Z"/><path class="cls-19" d="M1875.89,185.41c0,5.28-3.7,11.05-8.28,8.41s-8.28-12.69-8.28-18,3.7-7.41,8.28-4.77S1875.89,180.13,1875.89,185.41Z"/><path class="cls-20" d="M1860.48,170.23s.94,2.72,7.44,6.47,8.08,1.39,8.08,1.39-4.51-7.44-9.75-8.89S1860.48,170.23,1860.48,170.23Z"/><path class="cls-20" d="M1847.46,197.8c-3.78-7.67-7.08-17.51-9.45-19.24-2.91-2.13-4.56-.54-4.56-.54,3.54,6.34,3.88,11,3.55,13.75Z"/><path class="cls-19" d="M1829.12,178c-.76,1.79-.15,2.81,1,4.49s3,3.21,4.87,1.91c3.31-2.36,6.45.63,6.61-1.27s-1.09-3.93-3.15-6.17c-1.77-1.93-2.67-2.09-4.09-3.54s-1.41-2.63-2-3.09-1.18.5-.24,2.54,1,2.36.31,2.54A3.92,3.92,0,0,0,1829.12,178Z"/><path class="cls-21" d="M1842.3,156.24l-17.86-10.3a1.88,1.88,0,0,1-.77-1.48h0c0-.56.35-.82.77-.58l17.86,10.3a1.86,1.86,0,0,1,.77,1.47h0C1843.07,156.22,1842.72,156.48,1842.3,156.24Z"/><path class="cls-21" d="M1842.3,160.23l-17.86-10.3a1.88,1.88,0,0,1-.77-1.48h0c0-.56.35-.82.77-.58l17.86,10.3a1.87,1.87,0,0,1,.77,1.47h0C1843.07,160.21,1842.72,160.47,1842.3,160.23Z"/><path class="cls-21" d="M1842.3,164.22l-17.86-10.3a1.86,1.86,0,0,1-.77-1.47h0c0-.57.35-.83.77-.59l17.86,10.3a1.88,1.88,0,0,1,.77,1.48h0C1843.07,164.2,1842.72,164.46,1842.3,164.22Z"/><path class="cls-21" d="M1842.3,168.21l-17.86-10.3a1.86,1.86,0,0,1-.77-1.47h0c0-.57.35-.83.77-.58l17.86,10.29a1.88,1.88,0,0,1,.77,1.48h0C1843.07,168.19,1842.72,168.46,1842.3,168.21Z"/><path class="cls-21" d="M1842.3,172.2l-17.86-10.3a1.84,1.84,0,0,1-.77-1.47h0c0-.57.35-.83.77-.58l17.86,10.3a1.84,1.84,0,0,1,.77,1.47h0C1843.07,172.19,1842.72,172.45,1842.3,172.2Z"/><path class="cls-3" d="M1891.34,223.83l-75.7-43.66a1,1,0,0,1-.52-.89V133.16a1,1,0,0,1,1.55-.9l75.7,43.66a1,1,0,0,1,.52.9v46.12A1,1,0,0,1,1891.34,223.83Zm-74.44-44.38,73.18,42.21a1,1,0,0,0,1.55-.9V177.54a1,1,0,0,0-.51-.89l-73.19-42.21a1,1,0,0,0-1.55.89v43.22A1,1,0,0,0,1816.9,179.45Z"/><path class="cls-22" d="M1764.62,389.9s-1.55,5.85-1,8.6c3.44,4.12,9.47,1.37,15.84-2.93s7.4-6,7-7.73-2.41-2.24-4.82-2.24-7.57,4.47-11.18.69S1766,382.68,1764.62,389.9Z"/><path class="cls-23" d="M1786.51,388c-.62,2-4,3.1-9,6.67-5.71,4-9,5.07-11.35,4.13a5.81,5.81,0,0,1-2.64-2,8.94,8.94,0,0,0,.1,1.7c3.44,4.12,9.47,1.37,15.84-2.93C1785.54,391.45,1786.73,389.7,1786.51,388Z"/><path class="cls-24" d="M1757.61,276.14c-.27.7-4.76,13.27,2.26,21.53,6.65,7.84,5.51,28.55,2.25,39.57s0,24.79,2,34.56.25,16.27-.5,17c2.25,5.13,10.46,1.94,10.84-1.32-.5-8.51.69-38.5,1.94-42.76s.5-8.26,1.5-12,14.29-36.81,8.28-58.35S1763.88,260.11,1757.61,276.14Z"/><path class="cls-25" d="M1774.47,387.51c0-.35,0-.76-.06-1.19,0,.6-.05,1.21-.11,1.81A2.29,2.29,0,0,0,1774.47,387.51Z"/><path class="cls-26" d="M1770.2,297.77s5,10,1.5,25-4.76,22.79-2,37.57c1.93,10.37,4.24,16.92,4.66,23.19-.11-11.43,1-35.07,2.05-38.82,1.25-4.26.5-8.26,1.5-12,.81-3,9.58-25.05,9.83-44.76Z"/><path class="cls-27" d="M1777.32,337.14c0-.1,0-.2,0-.3C1777.25,337.15,1777.24,337.25,1777.32,337.14Z"/><path class="cls-22" d="M1776.41,395.66s-1.55,5.85-1,8.6c3.45,4.12,9.47,1.37,15.84-2.93s7.4-6,7-7.73-2.41-2.24-4.81-2.24-7.58,4.47-11.19.69S1777.78,388.44,1776.41,395.66Z"/><path class="cls-23" d="M1798.29,393.8c-.62,2-4,3.1-9,6.67-5.71,4-9,5.07-11.35,4.13a5.71,5.71,0,0,1-2.63-2,8.23,8.23,0,0,0,.09,1.7c3.45,4.12,9.47,1.37,15.84-2.93C1797.32,397.21,1798.51,395.46,1798.29,393.8Z"/><path class="cls-24" d="M1769.39,281.9c-.27.7-4.76,13.27,2.26,21.53,6.65,7.84,5.51,28.55,2.25,39.57s0,24.79,2,34.56.25,16.27-.5,17c2.25,5.14,10.46,1.95,10.84-1.31-.5-8.51.69-38.5,1.94-42.76s.5-8.26,1.51-12,14.29-36.81,8.27-58.35S1775.66,265.87,1769.39,281.9Z"/><path class="cls-27" d="M1789.11,342.9c0-.1,0-.2,0-.3C1789,342.91,1789,343,1789.11,342.9Z"/><path class="cls-26" d="M1791.57,315.07c-4.52,18.28-5,25.54-5,30.05,0,1.81.53,5.19,1,9.32a28.72,28.72,0,0,1,.6-3.93c1.26-4.26.5-8.26,1.51-12,.92-3.47,12.33-31.93,9.32-53.23l-5.2.51S1796.08,296.79,1791.57,315.07Z"/><path class="cls-18" d="M1791.51,292.34c8.75-3.52,8.84-10.9,8.28-14.09s-7.52-8.83-6.58-19.53,6.39-11.27,6-22.73-32.33-30.8-32.33-30.8c-7.34-.38-10.34,7.49-6.58,26.86,3,15.52,4.76,21.53,1.75,31.05s-5.77,14.52-6.52,20.78C1760.31,294.9,1778.6,297.53,1791.51,292.34Z"/><path class="cls-19" d="M1788.51,249.51c-1.58,6,2.71,14.44,7.12,21.21a21.52,21.52,0,0,1-2.42-12c.94-10.71,6.39-11.27,6-22.73a7.93,7.93,0,0,0-.48-2.39l-8-6.81S1791.33,238.81,1788.51,249.51Z"/><path class="cls-28" d="M1794.15,210.51A6,6,0,0,0,1801,208c2.51-4-5.89-5.26-5.89-5.26A77,77,0,0,0,1794.15,210.51Z"/><path class="cls-15" d="M1808.19,214.39s-2.39-12.39-3.64-14.15-9.15-.37-11.15,1.76.25,6,.12,7.89c.88,1.75,2.26-.25,1.76-1.88a3.85,3.85,0,0,1-.26-2.26,17.84,17.84,0,0,0,4.77,5.39,9.85,9.85,0,0,1,4,6.13C1804.3,218.9,1808.06,215.9,1808.19,214.39Z"/><path class="cls-19" d="M1813.2,252.71s4-.75,3-7.64-6.9-26.8-7.77-31.8c-2.76-1.88-6.4-.5-6.52,2.25,1.75,5.76,3.51,14.65,2.5,22.16S1805.68,253.33,1813.2,252.71Z"/><path class="cls-18" d="M1803.39,213.05a3.07,3.07,0,0,0-1.47,2.47c1.75,5.76,3.51,14.65,2.51,22.16a24.67,24.67,0,0,0-.23,3.42c3.46,4.27,4.42,5.08,6,4,3-2.13-1-6.51-4-18.66C1804.77,220.74,1804,215.31,1803.39,213.05Z"/><path class="cls-18" d="M1790.57,213.39s8.28.94,13.17,13.9,10.52,17.65,11.84,19.72-.38,6.76-4.51,7-16.78-7.5-23.13-25.54C1781.47,210,1788.21,212.36,1790.57,213.39Z"/><path class="cls-15" d="M1799.41,208.38c0,.28-4-.62-5.54,1.66-.76,2.57.47,2.19,1.12,1.44s4.8.57,6.68.94S1799.41,208.38,1799.41,208.38Z"/><path class="cls-19" d="M1803.74,227.29c-4.89-13-13.17-13.9-13.17-13.9l-.65-.26,0,1.14s7.39-1.38,11.9,13.52,11.28,19.66,12.16,21.66a5.3,5.3,0,0,1,.51,3c1.55-1.6,2-4.07,1.12-5.42C1814.26,244.94,1808.62,240.25,1803.74,227.29Z"/><path class="cls-18" d="M1791.77,218c-9.57-8.92-24.88-12.83-24.88-12.83-7.34-.38-10.34,7.49-6.58,26.86.24,1.27.48,2.47.71,3.63a24,24,0,0,0,9.44.88C1785.61,235.33,1792,228.42,1791.77,218Z"/><path class="cls-15" d="M1786.25,207.44s6.89-1.69,8.65-8.7-1.5-25.29-4.51-28S1769.08,191,1769.08,191,1773.72,212,1786.25,207.44Z"/><path class="cls-29" d="M1756.64,172.14s-1.13-5.86-.47-9.46,6.49-4.25,9.4-3.6-2.16-1.12-3.85-.47-3.48,4.32-1.88,12.68S1757.39,175.61,1756.64,172.14Z"/><path class="cls-30" d="M1767.7,159.68c-12.45,7.46-17.67,10-16,29.8s14,26.42,9.27,31.17-6.52.63-6.77-.5c-1.12,6.26,4.39,12.4,17.8,13.27s22.94-9.89,19-22-11-20.47-8.77-22.16c3.42-2.64,3.51.5,3.26,3s3.13.63,3.13.63a14,14,0,0,0,2-8.89c3.63-2,5.26-4.38,5.26-4.64C1797.16,163.56,1780.86,151.79,1767.7,159.68Z"/><path class="cls-18" d="M1792.67,194.11c0,3.13-3,8-5.71,9.6s-6.5-1.89-6.5-5a10.84,10.84,0,0,1,4.91-8.5C1788.09,188.63,1792.67,191,1792.67,194.11Z"/><ellipse class="cls-19" cx="1787.88" cy="197.62" rx="6.94" ry="4.01" transform="matrix(0.5, -0.87, 0.87, 0.5, 721.47, 1646.18)"/><path class="cls-31" d="M1777.23,186.6c3-12,21.13-16.69,3.63-25.67-9.27-4.76-10.95-1.06-13.92-.8-11.9,7.12-16.88,10-15.28,29.35,1.63,19.78,14,26.42,9.27,31.17s-6.52.63-6.77-.5c-1.12,6.26,4.39,12.4,17.8,13.27,11.12.73,19.56-6.54,19.91-16C1786,206.66,1772.34,206,1777.23,186.6Z"/><path class="cls-18" d="M1793.79,196.65c0,2.19-2.15,5.48-4,6.58s-4.32-1.21-4.32-3.4a7.6,7.6,0,0,1,3.44-6C1790.76,192.77,1793.79,194.45,1793.79,196.65Z"/><ellipse class="cls-19" cx="1790.62" cy="199.07" rx="4.87" ry="2.81" transform="matrix(0.5, -0.87, 0.87, 0.5, 721.52, 1649.23)"/><path class="cls-18" d="M1788.38,194.61s4.14-20.53-12.91-29.8-19.3-2.13-19.3-2.13,0-2,4.14-4.13,10.15-1.13,18.29,3.26,15.78,13.35,12.77,31.88C1790.12,193.31,1788.51,195.74,1788.38,194.61Z"/><path class="cls-15" d="M1794.71,245.76s1.27-3.51,4.42-1.13a23.45,23.45,0,0,1,5.73,7s-2.91,4.89-5,4.51-4.89-3.1-5.54-4.6S1794.24,247.73,1794.71,245.76Z"/><path class="cls-19" d="M1793.21,258.72a26.77,26.77,0,0,1,.6-3.84l-4.43-9.81c-.25,1.75-8.77,18.53-2.25,28.05a47.9,47.9,0,0,1,7.73,17.42,12.18,12.18,0,0,0,4.93-12.29C1799.22,275.06,1792.27,269.42,1793.21,258.72Z"/><path class="cls-32" d="M1459.66,329.17s-2,1.35-.88,5.4,8.88,5.74,11,5.17,11.14-7,14.26-11.15,7.22-2.66,9.69-7.13-5-15.91-5-15.91S1464.83,328.68,1459.66,329.17Z"/><path class="cls-33" d="M1490.21,303.08s3.15,8.88,2.78,13a8.66,8.66,0,0,1-7.29,7.72c-3.45.33-7,6.33-11.35,9.24s-5.43,4.44-10.07,2.55-5.43-2.56-5.67-4.68c-.51-4.5,6.38-6.76,9.68-11.1S1483,297.06,1483,297.06,1490.61,297.62,1490.21,303.08Z"/><path class="cls-32" d="M1589.83,336.79s-2,1.36-1.38,4.89,7.43,6.08,10.79,6.22c2.34.1,7-1.61,11.65-9.79,2.76-4.85,2.58-7.92,5.34-10.62s-.93-10.65-3.09-10.28S1593,336.45,1589.83,336.79Z"/><path class="cls-33" d="M1597.14,313.17c.32,1,1.51,11.86-1.52,16.16s-6.83,5.76-7.25,8,.6,5,8.21,6.93,14.87-12.27,15.8-17.81,3.63-5.48,1.11-10.7-6.57-9.92-11-10.5S1594.78,305.77,1597.14,313.17Z"/><path class="cls-9" d="M1495.87,150.12a32.54,32.54,0,0,1-10.29,8.91c-6.88,4-14,10.63-15.86,13.7a6.55,6.55,0,0,0-.09,7.17c1,1.83,0,3.89.79,5.6s-1.56,1.79-2.23,1.37-.52-4.36-1.53-5.28-3.88,1.24-4.68,2.46-1.53,6.91-2.4,7-5.39-3.88-5.68-7.56a14.78,14.78,0,0,1,1.88-8.28c.8-1.22,8.66-7.33,8.66-7.33S1483,142.52,1489.83,141C1501.48,138.35,1497.94,146.51,1495.87,150.12Z"/><path class="cls-34" d="M1491.28,142.57a5.28,5.28,0,0,0-2.6-3.41c-2.92-1.4-4.86,1.74-8.51,6.18-1.62,2-5.05,5.74-1.11,11.55s10.11,3.43,13.28,1.89,2.26-3.26,4.3-4.57,1.34-4.58-.29-5.78S1491.28,142.57,1491.28,142.57Z"/><path class="cls-11" d="M1539.73,127.37c2.39,6.44-3.36,13.83-11.8,17.75s-25.66,1.5-35,10.32c-4,3.73-10.19-3.92-8.26-9.61s2.92-6.26,9.69-10.13C1505.37,129.37,1533,109.26,1539.73,127.37Z"/><path class="cls-34" d="M1499.7,146a34.5,34.5,0,0,0-11.67,9.53c1.58,1.11,3.39,1.32,4.88-.08,5.33-5,13.19-6.39,20.54-7.37l-.85-14.82A27.9,27.9,0,0,1,1499.7,146Z"/><path class="cls-11" d="M1538.41,120.71s7.5,3.56,11.25,6.55-6.79.09-6.79.09l-6.06-4.61Z"/><path class="cls-32" d="M1510.76,202c-.79.85,7.19-17.76,25.25-4.07s14.61-21,14.61-21l-2.14-49-10.12-6.26-12.42-.91-11.64,8.56s-4.84,10.85.4,27.89S1516.78,195.53,1510.76,202Z"/><path class="cls-13" d="M1526.09,192.78s-33,53.19-36.18,59.06-10.24,48.49-13,52.39c2.45,7.55,12.55,6,14.24,1,5.27-15.73,17.55-32.67,18.1-42.64s22.62-29.74,41.3-38.28,13-26.17,13-26.17S1531.33,183.52,1526.09,192.78Z"/><path class="cls-16" d="M1536.27,211s-25.74,29.23-30.86,39.23-1.53,14.23-7.75,24.42c-5.56,9.12-15.36,26.71-15.19,34.63,3.61.73,7.67-1,8.69-4.06,5.27-15.73,17.55-32.67,18.1-42.64.49-8.81,17.75-25.24,34.64-34.85Z"/><path class="cls-13" d="M1535.57,225.05c3.67,3.86,4,12.52,9.32,30.21s8.95,23.15,12.85,25.89,36,28,38.21,34.05c10.37,2.77,12.6-6.35,10.54-9.42-13.21-14.81-20.92-26.39-29.35-35.58s-9-12.5-8-28.63,3.45-30.6-.93-42.76-42.12-6-42.12-6-9.33,12.22-2.34,24.91C1525.43,220.76,1530,219.18,1535.57,225.05Z"/><path class="cls-11" d="M1517.27,133a41.81,41.81,0,0,0,0,22.3c3.31,12.54,6,46.39-7.14,51.09-6.17,2.21-8-3.46-8-3.46s2.13.51,7-2.62c9-5.83,9.31-23.08,5.23-35.94-8-25.29-3.28-36.88,3.79-40.86s11.44-2,11.44-2S1519.38,120.23,1517.27,133Z"/><path class="cls-16" d="M1606.49,305.78c-13.21-14.81-20.92-26.39-29.35-35.58s-9-12.5-8-28.63c.76-12.07,2.31-23.21,1.21-33.15l-8.29-9.08-12.17,2.91s9.09,7.32,11,16.95,1.34,37.3,5.42,43.79c7.25,11.54,3.83,21.48-7.15,19.24,7.38,5.57,34.75,27.38,36.76,33C1606.32,318,1608.55,308.85,1606.49,305.78Z"/><path class="cls-10" d="M1523.18,155.11c5.19,12.89,6.84,25.78-3.66,46.19-2.67,5.19,5.08,12.87,15.6,15.35,15.19,3.58,31.66-4.12,34.33-16.7,1.18-5.53-26-72.67-26-72.67l-4.38-3.69-14.3,1.61S1514.05,132.39,1523.18,155.11Z"/><path class="cls-9" d="M1589.24,184.4c0,.39,1.35,6.57,6.67,13.69s9.72,17.07,10.29,21.06a7.34,7.34,0,0,1-3.06,7.42c-1.79,1.45-1.74,4-3.28,5.41s.82,2.54,1.69,2.39,2.46-4.25,3.9-4.76,3.45,3,3.73,4.59-1.46,7.78-.61,8.27,7.25-1.64,9.17-5.29a16.43,16.43,0,0,0,1.71-9.35c-.28-1.61-5.69-11.34-5.69-11.34s-7.92-34.26-14.28-38.85C1588.65,169.82,1588.7,179.77,1589.24,184.4Z"/><path class="cls-34" d="M1582.51,174.3s-2.07,2.92-1.13,5,5.06,4.54,5.77,7,7.18,1.9,12-3.21,1.16-10.6-1-13.35-3.68-1.5-5.4-3.2-4.76-.32-5.59,1.53S1582.51,174.3,1582.51,174.3Z"/><path class="cls-35" d="M1537.42,118.55s1.53,2.62,2.76.72a5.5,5.5,0,0,0,1-3.17s-.42,1.75,2,1.45,6.17-1.07,6.67-5.83,5.16-2.81,4-14.13-10.13-16.24-15.73-15.28-7.56-2.77-12.65-.93-4.78,7.06-.89,10.11S1539.9,113.45,1537.42,118.55Z"/><path class="cls-9" d="M1515.12,103.22c-.17.33-2.95,3.74-3.58,6.37s9,2.73,12.71,6.4,3,9.58,2.56,12.65,6.25,6.94,9.56-1.45c2-5,1.52-7.52,3.26-10s2.62-1.53,5.36-4.4-.3-5.23-1.93-4.23-1.9.81-2.16-2.74.44-4.4.44-4.4,3.66-3.15,2.53-6.19-8.08-5.8-11.21-5.86a13.19,13.19,0,0,0-8.45,3.26C1521.68,94.65,1516.1,101.25,1515.12,103.22Z"/><path class="cls-36" d="M1520.63,118.21c3.76,3.67,2.94,9.57,2.51,12.64s11.37,4.8,15.41-3.26c1.58-3.17-.66-7.92,1.08-10.38,1.2-1.69,2-1.78,3.26-2.61-.61-2.16-1.6-2.84-3.19,0-4.77,8.5-9.83,4.26-12.83.78s-15.33-5.79-15.33-5.79C1510.91,112.22,1516.88,114.54,1520.63,118.21Z"/><path class="cls-16" d="M1515,84.2c-2.07,1.67-2.71,2.38-2,5s2.4,11.55,5.24,11.29,5.34-1.76,8.07.17,8,9,12.74,5.6c5.34-3.8,2.62-8.36,2.6-15.53-1.25-3.74-5.17-5.94-13.87-8.4C1523,81,1518.6,81.3,1515,84.2Z"/><path class="cls-11" d="M1521.5,90.4c4.29.29,8.37,6.6,14.16,5.4,3.85-.81,5.88-2.81,6-5v0c-1.25-3.75-5.14-6.07-13.85-8.53-4.8-1.35-9.18-1-12.76,1.85-1.56,1.26-2.31,2-2.28,3.39C1513.45,88.32,1515.83,90,1521.5,90.4Z"/><path class="cls-13" d="M1516,84.42c4.08-3.21,9.65-2.5,15.3-.36s11.86,5.31,7.35,9.16c-5.28,4.51-11.2-2.32-16-3.65S1511,88.42,1516,84.42Z"/><path class="cls-11" d="M1538.79,103.33c-.16.31,3.22,8.19,1.79,15.88,2-1.06,4.47-8.81,1.71-18.53A5.42,5.42,0,0,0,1538.79,103.33Z"/><path class="cls-18" d="M1548.48,110.41c.48,2.72-1.49,7.27-3.61,9s-5.62-.57-6.09-3.29a9.55,9.55,0,0,1,3-8.12C1543.9,106.26,1548,107.69,1548.48,110.41Z"/><ellipse class="cls-26" cx="1545.07" cy="114.1" rx="6.12" ry="3.54" transform="translate(903.64 1524.36) rotate(-69.77)"/><path class="cls-11" d="M1541.43,176.46c13.28,34.92,24.87,30.23,23,53.59,2.82-.2,9.78-11.09,12.26-19.78s-5.38-11.33-4.49-24.3,3.67-36-4-45.48-20.77-14.8-20.77-14.8c-1.45-.9-6.09-2.86-6.09-2.86s2,1.75-1.42,5.43S1530.18,146.89,1541.43,176.46Z"/><path class="cls-34" d="M1572.84,160.41l-22-16.92s4.93,4,3.38,19a42.41,42.41,0,0,0,9.82,32.6,45.19,45.19,0,0,1,10.15,21.69,46.38,46.38,0,0,0,2.46-6.48c2.49-8.7-5.38-11.33-4.49-24.3C1572.65,178.91,1573.44,169.26,1572.84,160.41Z"/><path class="cls-11" d="M1547.75,137.76c4.84-4.89,14-2.79,21.09,3.19s19.53,24.61,24.13,27.37.75,10.89-5.23,11.54-3.89-2.1-10.26-6.59C1567.08,166,1534.16,151.5,1547.75,137.76Z"/><path class="cls-37" d="M1672.1,346.36s-3-10.83-8.06-8.08-29.83,15.28-32.58,17.78,15.54,39.06,16.79,58.85-3.76,51.08-3.26,52.33,3.26,1.26,3.76-.5,5.52-32.3,7-33.05,24.07,12,26.57,14.27,3.26,42.57,4.52,44.33,3.76.5,3.76-2.26-2.26-41.07-1.76-43.07,28.58-18,30.58-18.53,14,35.81,15.8,36.56,2.75-3.76,2.75-3.76-12-42.07-15-46.32-37.1-20-37.1-20S1676.15,358.2,1672.1,346.36Z"/><path class="cls-38" d="M1658.28,392.37s2.76,28.3,8.52,34.56,47.38,16.52,47.38,16.52l20.56-31.8-37.1-16Z"/><path class="cls-3" d="M1745,1067.67,2845.73,432.83a4.19,4.19,0,0,0,0-7.27L2253.54,84.67a4.23,4.23,0,0,0-4.2,0L1148.62,719.51a4.2,4.2,0,0,0,0,7.28l592.19,340.88A4.2,4.2,0,0,0,1745,1067.67Z"/><path class="cls-15" d="M1741.38,386.14c2.07.09,5.17,6.86,6.86,7.23s4.51-2.63,5.36-4.13S1750,383.32,1748,382s-9.09-2.72-9.09-2.72a69.67,69.67,0,0,1-9.66-3.45l-15.06,2,12,6.82,8.54,1.34Z"/><path class="cls-24" d="M1697,335.53c-10.11,7.85,1.78,40,9.59,43.85s19,5.32,19.56,5.23c-1.51-1.69-.15-7.93,3-8.77-4.64-1.63-14.62-5-15.94-7s-2.64-18.63-4.79-25.92C1706.79,337.22,1700.39,332.9,1697,335.53Z"/><path class="cls-26" d="M1691.48,340.36S1705,356.62,1704.34,372c-.33,7.7-4.12,8.77-4.12,17.58,0,4.12,2,6.49.92,7.81-2.25,2.63-15.41,12.3-22.37,11.27s-14.48-3.66-18-7-8-23.29-7.15-33.44,14.57-18.59,14.57-18.59S1687.35,338.39,1691.48,340.36Z"/><path class="cls-24" d="M1670.06,351.8a16.72,16.72,0,0,0,8.4,5.64c5.26,1.37,10-1.76,11.53-7a7.77,7.77,0,0,0-3.38-8.76S1668.56,345.17,1670.06,351.8Z"/><polygon class="cls-37" points="1720.4 434.72 1768.81 406.8 1690.58 415.52 1690.58 417.52 1720.4 434.72"/><polygon class="cls-38" points="1720.4 432.72 1768.81 404.8 1738.99 387.6 1690.58 415.52 1720.4 432.72"/><path class="cls-15" d="M1734.7,386s1.78,4.79,1.66,5.57,3.44,3.1,3.75,0-3-6.16,1.27-5.38-4.4-3.72-4.4-3.72Z"/><path class="cls-37" d="M1724.82,398.79a2.64,2.64,0,0,0-1.1,2.11l-3.56,32.61c0,.82,1.15,2.36,2.21,1.75l45-27.49a2.66,2.66,0,0,0,1.1-2.11l4.66-31.7a1.81,1.81,0,0,0-2.21-1.75"/><path class="cls-38" d="M1722.37,435.26l46.09-26.58a2.63,2.63,0,0,0,1.1-2.11l3.56-32.61c0-.81-.5-1.19-1.11-.84l-46.09,26.59a2.62,2.62,0,0,0-1.1,2.1l-3.55,32.62C1721.27,435.24,1721.76,435.62,1722.37,435.26Z"/><path class="cls-15" d="M1696,399.76a6.28,6.28,0,0,0,3.82.31,7.16,7.16,0,0,1,4.7.19,10.19,10.19,0,0,1,4.07,2c1.07.88-.19,1.82-1.5,1.25a5.19,5.19,0,0,0-2.38-.44,24.57,24.57,0,0,1,3.88,3.95c1.38,1.94,1.88,2.75.57,4.51s-5,3.56-6.08,2.94-4.58-4.57-4.58-4.57a6.82,6.82,0,0,1-4.57-2.63c-2.76-.56-10.6-2.38-12.73-3.69s-2.32-8.46,5.32-7.2C1687.12,396.48,1695.42,399.59,1696,399.76Z"/><path class="cls-24" d="M1674.26,340.22a65.57,65.57,0,0,0-18.43,14.84c-8.27,9.76-.9,38.94,6.9,42.79s21.29,7.16,21.85,7.06c-1.5-1.69-1.24-7.68,2-8.53-4.63-1.63-14.81-5.07-16.12-7.05s-1.32-19.15-4.8-25.91,8.65-12.31,13.63-13.06S1683.75,336,1674.26,340.22Z"/><path class="cls-15" d="M1675,341.44a17.92,17.92,0,0,0-2.91,4.92c-.84,2.3-.53,4.89,2.91,6.82s6.27,3.05,9.24,1.27c5-3,4.49-5.12,3.26-7.86-3.21-7.19-8.93-9-8.93-9A20.19,20.19,0,0,0,1675,341.44Z"/><path class="cls-15" d="M1694.16,352.14c-6.08,2-11.64-4.11-12.38-5.72s-2.45-6.06-2.45-6.06c.05-2.85-5.29-2.94-5.16-10.53s2.23-8.69,6.57-12,9.28-4.49,16.7-.3c5.58,3.16,7.54,6,7.75,10.48C1705.75,340.13,1705.41,348.46,1694.16,352.14Z"/><path class="cls-31" d="M1704.36,330.27c-12,8.24-20.4-4.3-21.92-7.59-.38,9.64,2.14,30.5-7.43,30.5-8.43,0-17.08-6.95-16.55-16.35s8.55-9.91,8.79-19.63,15.54-20.86,32.16-13C1713.11,310.61,1710.82,325.85,1704.36,330.27Z"/><path class="cls-39" d="M446,531.38a6.93,6.93,0,0,0-.7,3.76c.1,2.49,2.3,5.28,4.29,5.78s3.73.24,5.89,7.48c1.7,5.68,9.68,8.47,15.07,6.08,4.82-2.14,4.19-2.89,4.29-5.09s-.2-3.88-2.19-4.28S446,531.38,446,531.38Z"/><path class="cls-40" d="M449.49,522.34c-.11.39-2.8,7.58-3.46,9s1.86,6.12,4.26,6.78,3.59,1.06,4.92,4.26,4.53,10.1,11.44,9.83,8.39-4,7.59-6.11-8.25-8.64-10.65-15.82-2.26-9.71-2.26-9.71S452.82,510.11,449.49,522.34Z"/><path class="cls-39" d="M461.92,524.51c-.15-.65-.26-1.21-.34-1.68l-11-3.34a15.09,15.09,0,0,0-1.05,2.85c-.07.24-1.09,3-2,5.46a5.24,5.24,0,0,0,4.76,1.45C458,528.59,460.76,526.08,461.92,524.51Z"/><path class="cls-18" d="M464.43,467.6a6.91,6.91,0,0,0-.7,3.75c.1,2.5,2.3,5.29,4.29,5.79s3.73.23,5.89,7.47c1.7,5.69,9.68,8.48,15.07,6.08,4.82-2.13,4.19-2.89,4.29-5.08s-.2-3.89-2.19-4.29S464.43,467.6,464.43,467.6Z"/><path class="cls-19" d="M467.89,458.56c-.11.38-2.8,7.57-3.46,9s1.86,6.11,4.26,6.78,3.59,1.06,4.92,4.25,4.52,10.1,11.44,9.84,8.39-4,7.59-6.12-8.25-8.64-10.65-15.82-2.26-9.7-2.26-9.7S471.21,446.33,467.89,458.56Z"/><path class="cls-18" d="M480.32,460.72c-.15-.64-.26-1.2-.34-1.67l-11-3.35a15.21,15.21,0,0,0-1.05,2.86c-.07.23-1.09,3-2,5.46a5.26,5.26,0,0,0,4.76,1.45C476.44,464.8,479.16,462.3,480.32,460.72Z"/><path class="cls-41" d="M450.27,515a1.13,1.13,0,0,0-1.2,1c-.2,1.15-.1,4.39-.6,5.94s1.65,4.48,6.29,4.33,7.69-2.19,8.19-4.73-.15-4.24-.2-5.64-.6-1.69-1.65-1.59S450.27,515,450.27,515Z"/><path class="cls-19" d="M468.19,451.85a1.13,1.13,0,0,0-1.2,1c-.2,1.15-.1,4.39-.6,5.94s1.65,4.48,6.29,4.33,7.68-2.19,8.18-4.73-.15-4.24-.2-5.64-.6-1.69-1.65-1.59S468.19,451.85,468.19,451.85Z"/><path class="cls-19" d="M467.85,440.5a56.19,56.19,0,0,1-13,13.56C446,460.7,416.35,444,424.47,432.65s39.79-25,39.79-25l7.45,3.19Z"/><path class="cls-20" d="M468.12,453.39s-.53-5.58-2-13.43-2.39-32.17,7.32-34.69,12.64,4.39,11.58,11.17-5.56,32.66-5.16,35.85C477.33,457.08,468.73,455.88,468.12,453.39Z"/><path class="cls-20" d="M419.28,457.38s20.36,11.83,36.06,16.08c-6.25,10.24-3.86,37.72-5.59,42.37,1.87,5.45,12,2.52,12.51.66.54-11.83,10.92-40.37,11.05-45.68s-13-22.65-24.22-29.78c-7.32-4.65,22.89-11.57,23.29-29,.22-9.56-41.6,20.07-46.45,23C420.21,438.5,411.43,451.53,419.28,457.38Z"/><path class="cls-26" d="M403.31,430.46c.2,1-.4,16.75,16,26.92-2.79-9.57,8.78-20.14,20.56-23.93s13.57-10.17,12.58-12.16-39.73-2.59-39.73-2.59Z"/><path class="cls-15" d="M477.77,402.29s.2-2-2.85-3.88-2.59,6.33-2.59,6.33Z"/><path class="cls-24" d="M410.76,437c-.31,2.22,5.73,3,17.7-5.72,9.35-6.77,12.11-4.52,15.71-3.85s-7.06-6.65-7.06-6.65l-24.35,8.38-6.39,3.85Z"/><path class="cls-28" d="M448.29,397.29s2.66,13.89-5.06,19.11-6.38-19.64-6.38-19.64Z"/><path class="cls-26" d="M435,400.48s4.26,2.13,10.38-.13,4.66-3.59,4.66-3.59-.66-2.53-.13-11c.38-6.11-2.8-10.77-8.52-10.9S435,379.74,435,400.48Z"/><path class="cls-26" d="M401.61,392.17s2.4-5.48,17.47-13.16,27.15-4,26.15,7.88-6,27.82-1.1,33.5c-13.17,5.48-37.53,6.68-37.53,6.68Z"/><path class="cls-24" d="M410.7,393s7.33,7.31,5.79,24.13c-.8,8.67-1.4,14.66-1.4,14.66l-9.78-.5-5-11.07Z"/><path class="cls-42" d="M436.35,404.34s5.59-4.54,4.19-10.07-3.05-10.87.75-15"/><path class="cls-28" d="M471.28,404.19c.2,0,3.09-.15,3.74-.75s-2.64-2.54-2.64-2.54Z"/><path class="cls-15" d="M420.9,376.63a13.88,13.88,0,0,0-1.88,3.91c-.82,2.36-.45,5,3.09,6.9s7.37.69,10.37-1.18c5-3.13-2.37-2.27,3.18-8.08s-9.27-9-9.27-9S422.23,374.54,420.9,376.63Z"/><path class="cls-42" d="M425.82,373s1.24,2.54.45,11.52,3.19,14.95,8.83,19.09,3.69,8.38,5.34,17,1.9,18,10.33,13,5.09-11.37,7.14-19.39"/><path class="cls-15" d="M436,417.7s2.19-3.69,4.09-4.39,5.94-1.94,5.94-1.94l-2.75,5Z"/><path class="cls-18" d="M443.23,415.85s5.46-14.44,6-15S479.3,383.6,480.1,383.2s1.86,1.06,2,1.6-13.31,25.92-13.71,26.85S449.62,423,449,423.21,443.23,415.85,443.23,415.85Z"/><path class="cls-19" d="M481.94,384.46c-4.4,2.45-29.73,16.83-30.22,17.32s-5.46,13.69-5.46,13.69,2.34,4.61,3.91,7.1c4.2-2.32,17.87-10.12,18.21-10.92s13.84-26.32,13.71-26.85A1.54,1.54,0,0,0,481.94,384.46Z"/><path class="cls-28" d="M427.33,372.64s-.94,7.26.42,10.63,6.64.45,9.73-1.91S427.33,372.64,427.33,372.64Z"/><polygon class="cls-43" points="443.39 355.83 454.95 362.51 454.95 361.33 443.39 354.66 443.39 355.83"/><polygon class="cls-18" points="443.39 354.66 454.95 361.33 455.97 360.75 444.4 354.08 443.39 354.66"/><polygon class="cls-31" points="454.95 362.51 454.95 361.33 455.97 360.75 455.97 361.92 454.95 362.51"/><path class="cls-15" d="M427.2,372s-.12,6.06.67,7.69,9.22,7.63,14.67,4.06,7.15-4.47,7.52-9.39,2.12-8.6,1.58-13.08,1-8.24-6.37-12.9-12.67-2.85-17,.61-6.49,4.6-6.49,12.35S427.2,369.06,427.2,372Z"/><path class="cls-18" d="M436.43,370.64v2.93a2.85,2.85,0,0,0,4.32,2.5l.2-1.45a7,7,0,0,0,3.17-5.48v-1.27l1.93-1.11V368a2.8,2.8,0,0,0,4.24,2.53l.28-1.48a7,7,0,0,0,3.17-5.48v-2.93Zm6.73-.95a4.88,4.88,0,0,1-2.21,3.82l-1.35.78c-1.21.7-2.2.13-1.81-1.15l.18-1.71,5.19-3.56Zm9.62-5.55a4.86,4.86,0,0,1-2.21,3.82l-1.35.78c-1.22.7-1.48.13-1.48-1.27v-1.82l5-3.33Z"/><path class="cls-18" d="M442.17,374.74l-1.35.78c-1.48.85-2.69-.06-2.69-2v-1.9l6.73-3.88v1.9A6.42,6.42,0,0,1,442.17,374.74Z"/><path class="cls-18" d="M451.79,369.19l-1.35.78c-1.49.86-2.69-.05-2.69-2v-1.89l6.72-3.88v1.89A6.42,6.42,0,0,1,451.79,369.19Z"/><polyline class="cls-18" points="454.95 361.33 453.72 360.63 436.42 370.6 437.65 371.31"/><path class="cls-28" d="M453.6,364.58a4.89,4.89,0,0,1-2.21,3.82l-1.35.77c-1.21.71-2.2.14-2.2-1.27v-1.82l5.76-3.32Z"/><path class="cls-28" d="M444,370.12a4.88,4.88,0,0,1-2.2,3.82l-1.35.78c-1.22.7-2.21.13-2.21-1.27v-1.82L444,368.3Z"/><path class="cls-15" d="M453.17,364.4a4.86,4.86,0,0,1-2.21,3.81l-1.35.78c-1.22.71-2.21.13-2.21-1.27V365.9l5.77-3.33Z"/><path class="cls-15" d="M443.55,369.94a4.9,4.9,0,0,1-2.2,3.82l-1.35.78c-1.22.7-2.21.13-2.21-1.27v-1.83l5.76-3.32Z"/><path class="cls-31" d="M437.65,371.31v2.93c0,2,1.42,2.84,3.17,1.83l1.35-.78a7,7,0,0,0,3.17-5.48v-1.27l1.93-1.11v1.27c0,2,1.42,2.83,3.17,1.83l1.35-.78a7,7,0,0,0,3.17-5.48v-2.94Zm6.73-.95a4.86,4.86,0,0,1-2.21,3.82l-1.35.78c-1.22.7-2.21.13-2.21-1.27v-1.82l5.77-3.33Zm9.61-5.54a4.9,4.9,0,0,1-2.2,3.82l-1.35.78c-1.22.7-2.21.13-2.21-1.28v-1.82L454,363Z"/><path class="cls-44" d="M428.05,369.61l2.06,1.15s-.72-6.66,4.25-8.42,5.45.36,11.4-1.27,9.09-7.66,8.36-11.23c-3.73.09-4.91-4.64-11.94-8.39s-12.79-1.58-18.07,1.51-9.09,7.81-7.45,16.6,5,15.26,4.24,17.07C427.45,373.12,426,368.46,428.05,369.61Z"/><polygon class="cls-31" points="436.64 373.07 436.64 371.9 437.65 371.31 437.65 372.49 436.64 373.07"/><polygon class="cls-31" points="425.07 366.4 436.64 373.07 436.64 371.9 425.07 365.23 425.07 366.4"/><polygon class="cls-18" points="425.07 365.23 436.64 371.9 437.65 371.31 426.08 364.64 425.07 365.23"/><path class="cls-31" d="M436.45,359.07c8.18-2.39,15.79-1.32,17.67-9.23-3.73.09-4.91-4.64-11.94-8.39s-12.79-1.58-18.07,1.51-9.09,7.81-7.45,16.6,5,15.26,4.24,17.07c6.55-3.51,5.09-8.17,7.15-7l2.06,1.15S428.26,361.47,436.45,359.07Z"/><path class="cls-15" d="M428.42,369.49s.88-5.57-2.76-6.57c-3.25-.89-1.85,6.87,0,8.51S428.42,373.91,428.42,369.49Z"/><path class="cls-15" d="M472.24,404.07s-3.41.62-4.45.87c-.77.18-2.47,7.91-2.6,8.84s7.05-.14,8-.54,4.25-4.12,4.92-5.71-.13-6.91-1.46-7.45S474.62,403.39,472.24,404.07Z"/><path class="cls-19" d="M455.34,473.46c-15.69-4.27-36.06-16.08-36.06-16.08-1.54-1.14-2.39-6.7-2.8-8.26l7.43-5.66S436,451,443.6,459.6s14,10.94,14,10.94A19.27,19.27,0,0,0,455.34,473.46Z"/><path class="cls-44" d="M425.91,366.78s2.59,1.3,1,3.69c-1.49-.5,0,3.37-.59,4.09s-1.22-1.69-2.26-4.25S424.41,366,425.91,366.78Z"/><path class="cls-24" d="M419.88,440.83c-5-3.39-5.39-11.37-5.19-12l-9.73-.47-1.65,2.07c.2,1-.4,16.75,16,26.92-1.37-4.71.73-9.66,4.63-13.92C422.42,442.51,421,441.6,419.88,440.83Z"/><path class="cls-15" d="M396.62,411.92s-.3,15.25,3.4,20.83c19.16,5.89,28.54-7.67,35.83-6.08S445,429,446.73,428s6-3.79,6.68-4.79,2.6-10.17,2.5-11.26-1.5-1.1-2.3-.9-5.49,3.69-6.28,3.89c-5,.94-8.39.2-9.69.89s-2.89,3.19-4.09,4-16.67,3.29-23.25,1.9c-1.5-5.49,3.09-18.65,2.39-24S397.72,386.59,396.62,411.92Z"/><path class="cls-26" d="M412,389.18c-3.39-2-10.29-.28-13.71,7.45-2,4.52-2,11.73-2.62,16.38,1.69,5.85,10.67,7.68,15.67,3.43C411.43,407.93,418.22,392.91,412,389.18Z"/><g class="cls-5"><path class="cls-3" d="M604.92,586.66l-141.48-81.6c-5.31-3.06-4.63-8.46,1.49-12L603.42,413.2c6.13-3.54,15.48-3.92,20.79-.86l141.48,81.59c5.3,3.06,4.63,8.46-1.49,12L625.7,585.8C619.58,589.33,610.22,589.72,604.92,586.66Z"/><path class="cls-4" d="M604.92,583.87,463.44,502.28c-5.31-3.06-4.63-8.46,1.49-12l138.49-79.88c6.13-3.53,15.48-3.92,20.79-.86l141.48,81.6c5.3,3.06,4.63,8.46-1.49,12L625.7,583C619.58,586.55,610.22,586.93,604.92,583.87Z"/></g><path class="cls-18" d="M491.08,481.32c2,.4,2.29,2.1,2.19,4.29s.53,2.95-4.29,5.08c-5.39,2.4-13.37-.39-15.07-6.08l3.33-2Z"/><path class="cls-19" d="M482,466.53c2.4,7.18,9.85,13.7,10.65,15.82s-.67,5.85-7.59,6.12-10.11-6.65-11.44-9.84Z"/><path class="cls-3" d="M432.09,686.33,290.61,604.74c-5.31-3.06-4.63-8.46,1.49-12l138.5-79.88c6.12-3.53,15.48-3.92,20.78-.86l141.48,81.6c5.31,3.06,4.63,8.45-1.49,12l-138.5,79.87C446.75,689,437.4,689.39,432.09,686.33Z"/><path class="cls-4" d="M432.09,683.55,290.61,602c-5.31-3.05-4.63-8.45,1.49-12l138.5-79.88c6.12-3.53,15.48-3.92,20.78-.86l141.48,81.6c5.31,3.06,4.63,8.45-1.49,12l-138.5,79.87C446.75,686.22,437.4,686.61,432.09,683.55Z"/><path class="cls-18" d="M228.79,346.36s3-10.83,8.06-8.08,29.83,15.28,32.58,17.78-15.54,39.06-16.79,58.85,3.76,51.08,3.26,52.33-3.26,1.26-3.76-.5-5.52-32.3-7-33.05-24.07,12-26.57,14.27-3.26,42.57-4.52,44.33-3.76.5-3.76-2.26S212.53,449,212,447s-28.58-18-30.59-18.53-14,35.81-15.79,36.56-2.76-3.76-2.76-3.76,12-42.07,15.05-46.32,37.1-20,37.1-20S224.74,358.2,228.79,346.36Z"/><path class="cls-19" d="M242.61,392.37s-2.76,28.3-8.52,34.56-47.38,16.52-47.38,16.52l-20.56-31.8,37.1-16Z"/><path class="cls-3" d="M155.88,1067.67-944.84,432.83a4.19,4.19,0,0,1,0-7.27L-352.65,84.67a4.23,4.23,0,0,1,4.2,0L752.27,719.51a4.2,4.2,0,0,1,0,7.28L160.08,1067.67A4.2,4.2,0,0,1,155.88,1067.67Z"/><polygon class="cls-38" points="199.47 424.55 161.53 402.67 172.76 396.19 210.7 418.07 199.47 424.55"/><path class="cls-38" d="M148,387.46s-3.19,4.5-2.35,6a6.51,6.51,0,0,0,4.14,2.91c1.22.09,7.24-1.41,10.24-4.14s2.82-4.13,1.23-5.35-2.26-5.82-6.77-3.19S148,387.46,148,387.46Z"/><path class="cls-45" d="M165.15,388.49c-.25.06-2.19-.38-2.88-2.82s4.82-3.82,4.82-3.82l1,4A3.71,3.71,0,0,1,165.15,388.49Z"/><path class="cls-46" d="M162,379.29s-7,1.4-9.09,2.72-6.49,5.73-5.64,7.23,3.67,4.51,5.36,4.13,4.79-7.14,6.86-7.23,0,3-1.69,3.48c-2.07.84-1.32,2,.47,1.69a10.11,10.11,0,0,0,5.26-2.45,24,24,0,0,0,2.63-2.91l-.28-5.82S165.28,378.63,162,379.29Z"/><path class="cls-47" d="M203.88,335.53c10.11,7.85-1.79,40-9.59,43.85s-28.58,9.2-29.14,9.11c1.5-1.69.06-8.36-3.13-9.2,4.63-1.63,24.28-8.46,25.6-10.43s2.64-18.63,4.79-25.92C194.1,337.22,200.5,332.9,203.88,335.53Z"/><path class="cls-26" d="M201.25,340.6s-4.89,7.6-4.23,23,.47,31.18,2.72,33.81,15.42,12.3,22.38,11.27,14.47-3.66,17.95-7,8-23.29,7.15-33.44-14.57-18.59-14.57-18.59S205.38,338.62,201.25,340.6Z"/><path class="cls-14" d="M208,409a3.49,3.49,0,0,1-2.89-2.82c-.69-2.44,4.83-3.82,4.83-3.82l1,4A3.69,3.69,0,0,1,208,409Z"/><path class="cls-48" d="M230.83,351.8a16.72,16.72,0,0,1-8.4,5.64c-5.26,1.37-10-1.76-11.53-7a7.77,7.77,0,0,1,3.38-8.76S232.33,345.17,230.83,351.8Z"/><path class="cls-15" d="M204.88,399.76a6.28,6.28,0,0,1-3.82.31,7.16,7.16,0,0,0-4.7.19,10.19,10.19,0,0,0-4.07,2c-1.07.88.18,1.82,1.5,1.25a5.19,5.19,0,0,1,2.38-.44,24.57,24.57,0,0,0-3.88,3.95c-1.38,1.94-1.88,2.75-.57,4.51s4.95,3.56,6.08,2.94,4.58-4.57,4.58-4.57a6.82,6.82,0,0,0,4.57-2.63c2.76-.56,4.14.44,6.27-.88S213.09,397.44,204.88,399.76Z"/><path class="cls-47" d="M226.63,340.22a65.57,65.57,0,0,1,18.43,14.84c8.27,9.76-.1,40.94-7.9,44.79S208.58,409.05,208,409c1.5-1.69.06-8.36-3.14-9.2,4.64-1.63,24.29-8.45,25.6-10.43s1.32-19.15,4.8-25.91-8.65-12.31-13.63-13.06S217.14,336,226.63,340.22Z"/><path class="cls-14" d="M225.88,341.44a17.92,17.92,0,0,1,2.91,4.92c.84,2.3.53,4.89-2.91,6.82s-6.27,3.05-9.24,1.27c-5-3-4.49-5.12-3.26-7.86,3.21-7.19,8.93-9,8.93-9A20.19,20.19,0,0,1,225.88,341.44Z"/><path class="cls-15" d="M206.73,352.14c6.08,2,11.64-4.11,12.38-5.72s2.45-6.06,2.45-6.06c-.05-2.85,5.29-2.94,5.16-10.53s-2.23-8.69-6.57-12-9.28-4.49-16.7-.3c-5.59,3.16-7.54,6-7.75,10.48C195.14,340.13,195.48,348.46,206.73,352.14Z"/><path class="cls-31" d="M193.84,320.57c-1,1.71,1.71,5.16,4.94,4.92s3.68.36,4.95,2.48,3.21,2.09,5.38,1.4,4.41-.76,5.87,1.14.44,4.42,3.46,5.46,2.44,4.16,2.76,5.61,3.55,2.7,5.48,1.39,2.19-4.51,4.06-5.18,3.8-3.47,2.92-5.73.13-4.88.94-6.32.57-5.76-2-7.05-2.48-3.31-3-5.18-2.76-4.34-5.19-4.26-3.89-3.2-5.87-3.9-5.32-.55-7.22,1.18-3.77-.35-6.08,0-4.12,1.28-4.8,3.54c-.81,2.71-3.17,1.22-4.91,3.44C193.6,316,195.64,317.47,193.84,320.57Z"/><polygon class="cls-37" points="199.47 424.55 161.53 402.67 161.53 404.17 199.47 426.05 199.47 424.55"/><polygon class="cls-37" points="199.47 424.55 210.7 418.07 210.7 419.57 199.47 426.05 199.47 424.55"/><path class="cls-38" d="M133.41,446,108.66,431.7a2.16,2.16,0,0,1-1.08-1.87v-.54l47.61,3.59v.53a2.17,2.17,0,0,1-1.08,1.88L135.58,446A2.21,2.21,0,0,1,133.41,446Z"/><polygon class="cls-3" points="134.5 444.82 117.6 429.29 128.27 417.35 155.19 432.88 134.5 444.82"/><path class="cls-37" d="M181,440.9,99,390.8A4.79,4.79,0,0,1,97,387l-8.48-57.75c0-2.59,2.91-3.83,4-3.19l84,48.43a4.82,4.82,0,0,1,2,3.84L185,437.71C185,439.19,182.9,442,181,440.9Z"/><path class="cls-38" d="M181,440.9,97,392.47a4.81,4.81,0,0,1-2-3.84l-6.48-59.42c0-1.48.91-2.16,2-1.52l84,48.43a4.81,4.81,0,0,1,2,3.84L183,439.38C183,440.86,182.09,441.54,181,440.9Z"/><path class="cls-37" d="M135.75,443.94l-1.25.88-9-45.58,0,0a2.35,2.35,0,0,1,2.5-.11l7.09,4.09a2.35,2.35,0,0,1,1.16,2.05Z"/><path class="cls-38" d="M134.5,444.82l-26.92-15.53,18-30.05,8.16,4.71a2.73,2.73,0,0,1,1.37,2.41Z"/></g></g></svg>