<svg xmlns="http://www.w3.org/2000/svg" viewBox="0 0 415 415"><defs><style>.cls-1{fill:#1a0960;}.cls-15,.cls-2{fill:#471caf;}.cls-3{fill:#2b0e87;}.cls-14,.cls-20,.cls-4{fill:none;}.cls-4{stroke:#a0b3c1;stroke-dasharray:8;}.cls-10,.cls-14,.cls-20,.cls-4{stroke-miterlimit:10;}.cls-5{fill:#e36e81;}.cls-6{fill:#f4d03e;}.cls-7{fill:#5d3acc;}.cls-8{fill:#a02ff7;}.cls-10,.cls-9{fill:#fff;}.cls-10,.cls-14{stroke:#471caf;}.cls-11{fill:#fff6d2;}.cls-12{fill:#b4a2f4;}.cls-13{fill:#bcc8d3;}.cls-15{fill-rule:evenodd;}.cls-16{fill:#f2bf40;}.cls-17{fill:#dd7c12;}.cls-18{fill:#c6590e;}.cls-19{fill:#7a270e;}.cls-20{stroke:#67bcda;}.cls-21{fill:#47212d;}</style></defs><title>language-and-communication</title><g id="language_and_communication"><path class="cls-1" d="M16,234.63c40.15,81.45,26.35,88.95,58.12,130.12,19.14,24.81,47.3,14.93,68.52,48.76,36.7-36.71,73.53-48.42,73.53-48.42Z"/><path class="cls-1" d="M99.15,31.79c0,16.9,4.95,36.29-7.29,53.3-26.07,36.24-58.57,20.45-59.59,11.06L199.88,392.73S266.56,346.3,317.41,328c31.14-11.23,58-6.19,58-6.19l-42.78-75.53s56.83-13.54,56.83-67c0-75.38-48.92-129-48.92-129L309,105.75S99.15,28.93,99.15,31.79Z"/><path class="cls-2" d="M415,190c-2.53-28.88-59.45-7-72.6-31.22S359.18,63.22,337.86,46a13.22,13.22,0,0,1-21.58-15.27c-15.23-9.38-40,1.62-57.54-3.61C239.9,21.5,228.22,0,207.55,0A206.55,206.55,0,0,0,100.31,29.82a2.35,2.35,0,0,0-.77.66c-4.36,7,29.73,16.73,29.87,26.59.4,26.26-41,48.14-67.28,48.29a47.31,47.31,0,0,1-29.31-9.88C12.05,127.79,0,151.73,0,178.61a119.72,119.72,0,0,0,2.58,25.77A16.65,16.65,0,0,1,16,234.63c24.09,58.7,61.68,52.39,89.78,91.89C155.34,396.14,132,415,147.55,415c73.4,0,100.93-98.92,161.9-98.92-5.49-6.34,9.73-4.94,9.73-14,0-20,37.45-30.49,36.46-10.54-.72,14.44,9.55,22.85,17.29,28.3a7.42,7.42,0,0,0,10.5-2.06c19.07-29.47,23.63-49,23.63-89.41C407.06,222.22,415.5,196,415,190Z"/><path class="cls-3" d="M361.21,245.59c3.29,44.2-49.59,19.82-107,53.09C203.58,328,149.53,340.82,149.53,282.44s-3.11-146.32,55.35-146.32S356.87,187.37,361.21,245.59Z"/><path class="cls-4" d="M367.05,77.67c11.52-9.75,17.37-45.23-15.55-63.61-54.81-30.62-131,22.83-140.07,167.37S241,374.25,279,379c58.55,7.38,56.82-50.72,56.82-50.72"/><polygon class="cls-5" points="286.9 364.75 328.44 306.77 299.04 289.79 251.02 317.52 286.9 364.75"/><polygon class="cls-2" points="286.9 364.75 328.44 306.77 299.04 289.79 280.42 334.49 286.9 364.75"/><polygon class="cls-6" points="280.42 334.49 328.44 306.77 299.04 289.79 251.02 317.52 280.42 334.49"/><ellipse class="cls-2" cx="151.98" cy="207.38" rx="28.04" ry="28"/><path class="cls-7" d="M275,112.29c-9.65,0-9.67,15,0,15S284.64,112.29,275,112.29Z"/><path class="cls-7" d="M245.39,64.23c-3.22,0-3.22,5,0,5S248.61,64.23,245.39,64.23Z"/><path class="cls-7" d="M200.45,69.65c-3.22,0-3.22,5,0,5S203.68,69.65,200.45,69.65Z"/><path class="cls-8" d="M177.1,27.32c-3.22,0-3.23,5,0,5S180.32,27.32,177.1,27.32Z"/><path class="cls-8" d="M40.13,292.34a.5.5,0,0,0,0,1A.5.5,0,0,0,40.13,292.34Z"/><path class="cls-1" d="M105.33,372.53a.5.5,0,0,0,0,1A.5.5,0,0,0,105.33,372.53Z"/><path class="cls-8" d="M123.44,355.65a.5.5,0,0,0,0,1A.5.5,0,0,0,123.44,355.65Z"/><path class="cls-6" d="M88.43,327.31a.5.5,0,0,0,0,1A.5.5,0,0,0,88.43,327.31Z"/><path class="cls-6" d="M166,136.39c-2.58,0-2.58,4,0,4S168.59,136.39,166,136.39Z"/><path class="cls-2" d="M246.6,141.32c-6.44,0-6.45,10,0,10S253,141.32,246.6,141.32Z"/><path class="cls-2" d="M72.13,35.21c-10.3,0-10.32,16,0,16S82.44,35.21,72.13,35.21Z"/><path class="cls-2" d="M54,58.2c-3.22,0-3.23,5,0,5S57.24,58.2,54,58.2Z"/><path class="cls-8" d="M31.08,32.27c-3.22,0-3.23,5,0,5S34.3,32.27,31.08,32.27Z"/><path class="cls-8" d="M235.38,339c-9,0-9,14,0,14S244.41,339,235.38,339Z"/><path class="cls-8" d="M291.55,389c-3.22,0-3.23,5,0,5S294.77,389,291.55,389Z"/><path class="cls-2" d="M335.46,365.09c-3.22,0-3.23,5,0,5S338.68,365.09,335.46,365.09Z"/><path class="cls-7" d="M318,402.57c-3.22,0-3.22,5,0,5S321.17,402.57,318,402.57Z"/><path class="cls-7" d="M387.38,337.1a.5.5,0,0,0,0,1A.5.5,0,0,0,387.38,337.1Z"/><path class="cls-9" d="M197.93,303.94A243.3,243.3,0,0,1,193,348.7l6.29-.48,1.74.88-.57-7.53s1-14.63,4.47-25.16S197.93,303.94,197.93,303.94Z"/><path d="M202.32,345.47l-1.79,19.14c-24.55,2.11-48.58-6.3-48.58-6.3-1-4.66,8-10.92,15.58-8.92,6.24,1.65,10.91.55,16.54-1s7.63-8.2,7.63-8.2c2-.79,1.09,6.83,4.94,7.23S199.33,343.43,202.32,345.47Z"/><path class="cls-7" d="M369.55,298.68a.5.5,0,0,0,0,1A.5.5,0,0,0,369.55,298.68Z"/><path class="cls-9" d="M371.17,163.36l3.49-11.27a115.87,115.87,0,0,1,1.11-14.36c-1.4-1.55-11.26,0-11.26,0-.85,3.38-.34,10.42-2,12.47s-7.61-2.48-7.61-2.48c-1.17-.63-1.7,1.69-1.7,1.69s12.17,10.53,13.71,15.21a45.46,45.46,0,0,0,5.17,10.91Z"/><polygon points="324.31 284.7 263.99 220.79 204.94 247.94 211.01 257.99 255.76 248.92 276.56 291.56 324.31 284.7"/><path d="M314.3,304.7c-23.24,21.89-45.83,15.83-58.53,11.38s-41.16-48.35-41.16-48.35L202.38,336,194,334.24s2-91.84,10.55-97,88,51.37,88,51.37Z"/><path class="cls-9" d="M279,181.76l4.24,20.1a83.16,83.16,0,0,0,8.75,1.56l4.15,6.12,13.47-6.12v-25.3Z"/><path class="cls-8" d="M279,219.48C267.84,235.28,257,264.9,257,264.9c.57-12.2-4.32-26.09-4.32-33.22-5.82-.66-8.51.37-8.51.37-.4,44.3,1.83,57.62,6.89,60.25s35.23-31.71,35.23-31.71.62,23.27-2.19,27.59c-1.77,11.45,13.27,24.59,30.16,16.52S337.58,224,337.58,224s38.3-2.81,43.84-8.65-9.72-51.51-9.72-51.51a25.61,25.61,0,0,1-5.22,1.26s4.22,33.44,2,39.76c-26.48-.72-43.54-7.66-43.54-7.66C303.51,201.18,279,219.48,279,219.48Z"/><path d="M279,181.76s8.5,1.84,8.5,4.87c0,3.9.1,5.53.1,5.53l2.91,1.67s-.63-3.65.92-5.5c1.21-1.46,5-.57,5,2.8s-1.26,4.7-1.26,4.7l5.07,3,9.66-3.94c17.94-10.33,15-41.39-12.21-42.74C272.9,150.92,268.61,178.12,279,181.76Z"/><path class="cls-9" d="M244.21,232.05l7.57-17.83s14.46,3,15.21,3.57,1.47,7.74,1.47,7.74L264,220.79l-5.43,5,8.76,2v3l-14.6.94Z"/><path class="cls-9" d="M204.77,252l-24.41,10,5.07,4.92,20-7.14s3.05-.45,2.67-4.6S204.77,252,204.77,252Z"/><path d="M143.94,254.23a7.75,7.75,0,0,1,6.82-3.69c4.89,0,21.22,7.32,25,7.13s5.82-2.25,9.2-1.13,16.4,11.55-2.78,25.95C162.31,273.06,143.94,254.23,143.94,254.23Z"/><path class="cls-9" d="M183.31,278.72c0,8.69-7,1.2-13.29-2.45s-26.8-7.4-26.8-19.74S183.31,266.9,183.31,278.72Z"/><ellipse class="cls-10" cx="56.19" cy="352.24" rx="36.16" ry="36.15"/><path class="cls-8" d="M324.91,197.24s17.06,6.94,43.54,7.66c2.25-6.32-2-39.76-2-39.76a25.61,25.61,0,0,0,5.22-1.26s15.27,45.66,9.72,51.51S337.58,224,337.58,224Z"/><circle class="cls-11" cx="337.88" cy="176.51" r="2.1"/><circle class="cls-11" cx="32.46" cy="59.89" r="2.1"/><circle class="cls-12" cx="214.74" cy="220.2" r="1.47"/><circle class="cls-12" cx="360.5" cy="54.86" r="1.47"/><circle class="cls-13" cx="248.56" cy="94.57" r="1.47"/><path class="cls-14" d="M63.31,369.14l-3.74-3.9a4.26,4.26,0,0,0-3.07-1.32H44a4.45,4.45,0,0,1-4.35-4.54V342.53A4.45,4.45,0,0,1,44,338H66.38a4.45,4.45,0,0,1,4.35,4.54v23.4A4.33,4.33,0,0,1,63.31,369.14Z"/><path class="cls-15" d="M48.13,357.77a1.42,1.42,0,1,1-1.42-1.42,1.42,1.42,0,0,1,1.42,1.42"/><path class="cls-15" d="M53.78,357.77a1.42,1.42,0,1,1-1.42-1.42,1.42,1.42,0,0,1,1.42,1.42"/><path class="cls-15" d="M59.43,357.77A1.42,1.42,0,1,1,58,356.35a1.41,1.41,0,0,1,1.41,1.42"/><circle class="cls-11" cx="32.46" cy="59.89" r="2.1"/><path class="cls-16" d="M96.38,134.06S95.2,129.61,99,128a5.8,5.8,0,0,1,6.46,1.27Z"/><path class="cls-17" d="M139.69,191.55c-2.08-6.3-4.65-13.45-5.38-19.58,0,0-10.82,21.3-11.27,29.19Z"/><path class="cls-18" d="M99.05,202.39a47.66,47.66,0,0,0,10.18,6.74l4.77-2.75c-1.61-8.23,6.57-29.41,16.61-46.19,12.5-20.89,2.2-38.46-8.4-40.76-8.42-1.84-28.5,4-25.83,14.63-2.25-10.8,24.37.35,2.26,22.44C82.69,172.45,87,192.44,99.05,202.39Z"/><path class="cls-17" d="M105.46,199.74c0-11.3,11-24.75,11.77-30.5,1.65-12.32,7.61-9.71,11.7-10.78s-1.69-1.73,0,0,5.94,10.16,6.93,17.95-23,26.86-23,26.86S105.46,204,105.46,199.74Z"/><path class="cls-17" d="M118.66,172.47a4,4,0,0,1-.6-.05c-2.08-.36-20.42-3.75-25.69-12.45a3.5,3.5,0,0,1,1.18-4.8,32.46,32.46,0,0,1,3.09-1.4s1.22,1.75,1.72,2.58c2.75,4.53,14.27,8,20.89,9.17a3.5,3.5,0,0,1-.59,6.95Z"/><path class="cls-17" d="M131.78,169.75a3.5,3.5,0,0,1-2.1-6.31h0c.13-.09,12.69-9.63,12.69-21.55,0-.93.18-3.5.18-3.5h3.32a3.5,3.5,0,0,1,3.5,3.5c0,15.47-14.87,26.7-15.51,27.17A3.53,3.53,0,0,1,131.78,169.75Z"/><path class="cls-17" d="M129.63,197.36a20.69,20.69,0,0,0,.18-4.2C129,179.89,114.07,178,107.75,191c-3.56,7.29-2.29,14.29-.7,19.4Z"/><path class="cls-16" d="M127.22,198.75l10.68-6.16c0-.39-.06-.76-.11-1.16-1.22-9.59-1.34-10-1.7-13.17-.6-5.21-1.19-9-5.28-8.21-8,1.5-4.58,11.69-3.77,22.72C127.21,195.1,127.26,197.07,127.22,198.75Z"/><path class="cls-17" d="M113.2,144.09h22.07a0,0,0,0,1,0,0v12.54a9.53,9.53,0,0,1-9.53,9.53h-3a9.53,9.53,0,0,1-9.53-9.53V144.09A0,0,0,0,1,113.2,144.09Z" transform="translate(-25.04 23.92) rotate(-10)"/><path class="cls-17" d="M112.47,151.93l-2-11.19c5.44-1,6.72,4.42,6.72,4.42S117.9,151,112.47,151.93Z"/><path class="cls-17" d="M134.21,148.1l-2-11.19c-5.43,1-4.79,6.45-4.79,6.45S128.77,149.06,134.21,148.1Z"/><path class="cls-19" d="M126.37,157.2a1.69,1.69,0,0,0-1.88-.65A1.75,1.75,0,0,0,123,157.8c.16.95.89,2.48,2.16,2.26S126.54,158.15,126.37,157.2Z"/><path class="cls-19" d="M119.26,154.82a.84.84,0,0,1-1.66.29c-.08-.46.15-1.31.61-1.4S119.18,154.36,119.26,154.82Z"/><path class="cls-19" d="M130.47,152.84a.84.84,0,1,1-1.66.29c-.08-.46.15-1.31.61-1.39S130.39,152.38,130.47,152.84Z"/><polygon class="cls-20" points="189.79 52.11 44.34 136.06 44.34 246.59 189.79 162.63 189.79 52.11"/><circle class="cls-2" cx="147.36" cy="168.97" r="2.89"/><circle class="cls-8" cx="82.92" cy="160.21" r="1.47"/><path class="cls-21" d="M124.72,150.67l.23,1.25-2.7.48-.22-1.26-11.87,2.09.64,3.6a3.31,3.31,0,0,0,3.84,2.68l5.33-.94a3.31,3.31,0,0,0,2.69-3.83l-.22-1.28,2.69-.48.23,1.28A3.33,3.33,0,0,0,129.2,157l5.33-.94a3.32,3.32,0,0,0,2.69-3.84l-.63-3.6Zm-3.12,4.25a2.24,2.24,0,0,1-1.81,2.59l-5.34.94a2.23,2.23,0,0,1-2.59-1.81l-.45-2.53,9.74-1.72Zm14.56-2.56a2.23,2.23,0,0,1-1.81,2.58l-5.34.95a2.24,2.24,0,0,1-2.59-1.82l-.45-2.53,9.74-1.72Z"/></g></svg>