<svg xmlns="http://www.w3.org/2000/svg" viewBox="0 0 415 415"><defs><style>.cls-1{fill:#f4d03e;}.cls-2{fill:#1a0960;}.cls-3{fill:#471caf;}.cls-4,.cls-6{fill:#fff;}.cls-16,.cls-19,.cls-4{stroke:#471caf;}.cls-10,.cls-19,.cls-4,.cls-8,.cls-9{stroke-miterlimit:10;}.cls-5{fill:#55c9b3;}.cls-7{fill:#a02ff7;}.cls-10,.cls-16,.cls-19,.cls-8,.cls-9{fill:none;}.cls-8{stroke:#a0b3c1;stroke-dasharray:8;}.cls-9{stroke:#a542b3;}.cls-10{stroke:#dee4eb;}.cls-11{fill:#a542b3;}.cls-12{fill:#dd7c12;}.cls-13{fill:#c6590e;}.cls-14{fill:#7a270e;}.cls-15{fill:#47212d;}.cls-16{stroke-linecap:round;stroke-linejoin:round;}.cls-17{fill:#741ce5;}.cls-18{fill:#c9cfd3;}.cls-20{fill:#e36e81;}</style></defs><title>life-science</title><g id="life_science"><circle class="cls-1" cx="92.71" cy="119.01" r="69.71"/><path class="cls-2" d="M55.13,313.39c-17.4,0-50.09,8.09-34.33-15.26S0,269.2,0,207.5c0-52.89,53.43-64.93,86-101.58C124,63.16,91.28,0,207.5,0q7.14,0,14.15.49c0,.25,0,.51,0,.77a10.94,10.94,0,0,0,21.72,1.83C296.61,12.37,285,39.74,316,81.38c15.2,11.48,74.3,9.17,70.58,30.19-8,45.16-27.31,97,3.48,97,4.79,0,19.44-20.61,23.88-21.74.68,6.78,1,13.67,1,20.63A207.49,207.49,0,0,1,48.7,341.05c6.8-4.6,6.43-18.84,6.43-27.66"/><path class="cls-3" d="M400.09,188.61c-30.79,0-64-17.87-64-48.66,0-30.6,41.23-8.53,50.54-28.38,4.46-9.5-11.16-31.59-36.82-53.56a24.15,24.15,0,0,1-39.24-28.08c-21-12.46-44.28-22.54-67.22-26.84a10.94,10.94,0,0,1-21.72-1.83c0-.26,0-.52,0-.77Q214.63,0,207.5,0C70.23,0,142.18,87.89,104.17,130.64,71.59,167.29,0,154.61,0,207.5c0,61.7,36.55,67.28,20.8,90.63s16.93,15.26,34.33,15.26c0,8.82.37,23.06-6.43,27.66a208.07,208.07,0,0,0,33.46,31.79c20.88,9.73,33.24,18.52,57.11,19.66,31.48,1.52,12.89-35.51,49.95-17.32,175.22,86,171.26-39.41,206.72-123.26a231.91,231.91,0,0,0,16.89-64.78A55.73,55.73,0,0,1,400.09,188.61Z"/><circle class="cls-4" cx="55.13" cy="349.54" r="36.15"/><polygon points="273.84 123.78 256.33 210.25 282.96 203.72 289.15 126.37 273.84 123.78"/><path d="M245.11,226.73c-5.26,39.27,39.8,102.18,39.8,102.18l5.12-.17V308.89L288.2,303s1.83-5.11,1.83-24.1,4.31-24.25,6.2-36-.71-24.26-8.65-29.6C280.51,208.56,249.3,195.45,245.11,226.73Z"/><path class="cls-5" d="M307.76,135.45a62.17,62.17,0,0,0-18.61-9.08c-12.89-3.93-27-3.5-27-3.5s-3.21,26-9.05,31.72c1.1,6.49,6,8.32,6,8.32-.55,17.53-6.89,31.55-10.41,43.69-11.94,41.21-13.65,70.13-13.65,70.13A171.75,171.75,0,0,0,256,282.84L274.9,125.38l2.83,4.94,2.56,22.54s-3.77,40.19-6.84,65.85c-3.68,30.79,4.23,55.52,6.31,67.57,9.23.46,18.55-.31,26.47-3.38,3.89-15.31-12-66.93-12.49-81.54S307.76,173.78,307.76,135.45Z"/><path class="cls-6" d="M217.45,142.26s5.83-6,5.88-9-1.69-2.69-1.69-2.69l-7-2.87Z"/><polygon class="cls-1" points="222.04 133.63 216.34 134.37 216.14 132.47 214.61 117.63 220.3 116.89 221.82 131.53 222.04 133.63 222.04 133.63"/><path class="cls-6" d="M213.92,143.65,209,133.5V121.6l5.57-4,8.18,3-1,10.88h0s-.93-.92-3.2-.59a3.68,3.68,0,0,0-2.48,1.53l1.31,9.79Z"/><path class="cls-5" d="M262.19,122.87a80.64,80.64,0,0,1-7.41,21.75c-5.85,11.53-12.83,25.83-17.34,29-10.95-8.39-16.8-34-16.8-34l-9.49,1.3s3.29,29.94,27,49.66c15.7-15.7,24.47-28.27,27-33.85S262.19,122.87,262.19,122.87Z"/><path class="cls-6" d="M235.08,200.25c-5.48,0-9.84-4.53-9.84-4.53v3.16h-5.56V196.3l-2.24,2.23c-.92.93,0,9.36,0,9.36l1.38,3.16H225a20.93,20.93,0,0,1,10.13-3.35C241.33,207.22,248.29,200.25,235.08,200.25Z"/><path class="cls-5" d="M307.76,135.45s2.79,39-3.5,67.18c-23,19.35-67.44,7.18-67.44,7.18,0-5.56.26-9.56.26-9.56,47.1.92,47.1-8.21,55.86-8.21C287.83,154.8,299.08,132.89,307.76,135.45Z"/><polygon class="cls-1" points="219.64 185.73 219.68 196.71 219.68 198.88 225.24 198.88 225.24 195.72 225.08 185.73 219.64 185.73"/><ellipse class="cls-3" cx="222.36" cy="185.71" rx="2.72" ry="1.57"/><path class="cls-6" d="M259.8,92.86s2.39,22.11,2.39,26c6.44.69,20.18-2.05,22.19-6.56s-5.92-16.23-5.92-16.23Z"/><polygon class="cls-6" points="274.48 117.56 276.19 149.62 277.73 130.32 289.15 126.37 281.9 106.04 274.48 117.56"/><path d="M259.8,92.86c1.56,7.26,6.83,11.23,14.56,10.89,5.05-.23,6.59,2.29,6.29,5.28-.33,3.27-4.15,5.38-6.53,3.71,1.45,4.52,11,6.53,18.5,1.55s12.48-31.65-7.91-40.38c-10-4.3-23.52-3-31,12-2.73,5.21-4.67,2.32-4.67,2.32C253.84,95.12,259.8,92.86,259.8,92.86Z"/><polygon points="276.19 169.62 267.08 128.7 274.9 125.38 276.19 169.62"/><path class="cls-7" d="M222,159.46a26.31,26.31,0,0,1,0,6.16c0,1.45,1.87,1.12,1.87,0s-1.36-7.74-1.36-7.74Z"/><polygon class="cls-1" points="224.34 159.15 221.96 159.46 217.8 132.37 220.17 132.06 224.34 159.15"/><path class="cls-6" d="M221.64,130.59l-2,.28a11.36,11.36,0,0,0,.29,4.12,2.72,2.72,0,0,0,2.53-.86Z"/><path class="cls-8" d="M362.17,356.28c14.06,17.19,40.45,3.61,25.25-20.6s-75.18-7-148-34.08S164.13,163.2,161,96.08c-3.87-84.16-53.15-89.86-66.74-78C84.06,27,86.2,35.5,86.2,35.5"/><path class="cls-2" d="M43.59,236.31s44.78,47,97.16,89.35c8.4,6.79,17,13.46,25.62,19.8C201.93,371.56,238.2,392,264.5,392c30.76,0-17.05-30.75,34.31-41.75,31.36-6.72,52.78-55.86,52.78-55.86Z"/><path class="cls-1" d="M351.11,294.42l-204.33-98L43.11,236.31s60.33,67.21,110.69,61.23c35.43-4.2,56.21-5.34,48.78,11.58-3.49,7.95,0,19.4,6.68,26.91,12.84,14.44,38.19,35.25,38.19,35.25Z"/><path class="cls-7" d="M351.11,294.42,248.11,235l-8.7-5-15.19-8.77-44.94-25.94a65,65,0,0,0-65,0L43.11,236.31s31.45,20.77,71,32.78a184.86,184.86,0,0,0,43.11,8.09c38.66,2.13,45.05,20.06,44.14,37.69s46.14,39.41,46.14,39.41h0Z"/><path class="cls-1" d="M218.82,211.05l-10.41,18.88s2.3,5.21,14,5.21,14-5.21,14-5.21L225,211.05Z"/><polygon class="cls-9" points="145.78 236.31 42.11 176.45 42.11 28.31 145.78 88.17 145.78 236.31"/><polygon class="cls-10" points="138.03 242 34.36 182.14 34.36 34 138.03 93.86 138.03 242"/><path class="cls-9" d="M66.44,94.91c0,19.32,27.29,9.89,27.29,43.09v33.2c0-21.72,30.43-8.21,30.43-28.86"/><path class="cls-9" d="M83.24,174.42c0,8.8,10.49,4,10.49,16.16v-43c0-15.3-39-19.3-39-41.57"/><path class="cls-9" d="M145.78,88.17c0,35.17-52,39.71-52,49.83v16.73"/><ellipse class="cls-11" cx="66.44" cy="94.91" rx="2" ry="3.47" transform="translate(-38.55 45.94) rotate(-30)"/><ellipse class="cls-11" cx="124.16" cy="142.46" rx="2" ry="3.47" transform="translate(-54.6 81.17) rotate(-30)"/><path class="cls-12" d="M215.35,325.66a2.51,2.51,0,0,1-2.26-1.43,7.47,7.47,0,0,1-.08-6.46c2.93-6.39,14.57-9.77,15.88-10.14a2.5,2.5,0,0,1,1.34,4.82c-4.11,1.15-11.19,4.17-12.67,7.41a2.44,2.44,0,0,0,.05,2.23,2.5,2.5,0,0,1-1.19,3.33A2.53,2.53,0,0,1,215.35,325.66Z"/><path class="cls-12" d="M240.13,318.85c6.23,13.69,9,26.94-10.16,25.28-2,1.43-1.42,4.51-1.82,7-2.22,1.68-8.33,1.73-9.59-.18.9-3.26,4.71-3.5,4.71-3.5-4.55-7.88-3.67-19.41,8.72-23.49C238,321.65,240.13,318.85,240.13,318.85Z"/><path class="cls-1" d="M260.83,286.93c-8.2-3.15-10.59.88-10.59-3.46s6.08-2.44,6.08-2.44S261.94,282.55,260.83,286.93Z"/><path class="cls-13" d="M233.52,347.84s15.37,5,26.22-6.32c6.78-7.09,10.11-24.06-.83-35.57-18.23-19.2,3.83-28.16,1.92-19,2.25-9-14.94-14.65-21.88-12.39s-14.23,10.24-3.64,27.94S240.81,347,233.52,347.84Z"/><path class="cls-12" d="M241.44,346c-8.22.11-13.77-3.24-12.5-9,3.25-14.62-.63-23.54-.86-30.83-.24-6.13,11.45-5.79,11.45-1.5S252,321.43,252,337.15C252,345.58,241.44,346,241.44,346Z"/><path class="cls-1" d="M238.84,335.51c.17-12.15-1.05-20.92-5-21.62-2.56-.44-3.83,8-3.57,11.79a51.18,51.18,0,0,1-1,9.92c-2,11.07,4,11.92,12.25,11.81C240.05,346,238.66,347.66,238.84,335.51Z"/><path class="cls-12" d="M226,292.45h18.2a0,0,0,0,1,0,0V305.2a5.46,5.46,0,0,1-5.46,5.46h-7.29A5.46,5.46,0,0,1,226,305.2V292.45A0,0,0,0,1,226,292.45Z" transform="translate(342.7 -65.34) rotate(54.29)"/><path class="cls-12" d="M233.24,291.66l7.61-5.47c2.65,3.7-.89,6.57-.89,6.57S235.89,295.36,233.24,291.66Z"/><path class="cls-12" d="M243.86,306.44l7.61-5.47c-2.66-3.69-6.51-1.25-6.51-1.25S241.21,302.75,243.86,306.44Z"/><path class="cls-14" d="M234.3,303.88a1.41,1.41,0,0,0-.19-1.63,1.46,1.46,0,0,0-1.49-.7c-.64.46-1.52,1.55-.9,2.41S233.65,304.34,234.3,303.88Z"/><path class="cls-14" d="M232,295.17a.7.7,0,0,1-1-.16.68.68,0,0,1,.16-1c.31-.22,1-.36,1.25-.05S232.33,295,232,295.17Z"/><path class="cls-14" d="M238.44,303.91a.68.68,0,0,1-1-.16.7.7,0,0,1,.16-1c.31-.22,1-.35,1.25,0S238.75,303.69,238.44,303.91Z"/><path class="cls-15" d="M239.05,300l-.88.63-1.37-1.9.89-.63-6-8.36-2.53,1.82a2.83,2.83,0,0,0-.64,3.95l2.7,3.76a2.83,2.83,0,0,0,3.95.65l.9-.65,1.36,1.9-.9.65a2.83,2.83,0,0,0-.64,3.94l2.7,3.76a2.83,2.83,0,0,0,3.95.65l2.53-1.82Zm-4.43-.83a1.9,1.9,0,0,1-2.66-.44L229.25,295a1.91,1.91,0,0,1,.44-2.66l1.78-1.28,4.93,6.86ZM242,309.43a1.9,1.9,0,0,1-2.66-.43l-2.71-3.76a1.92,1.92,0,0,1,.44-2.67l1.78-1.28,4.93,6.86Z"/><path class="cls-12" d="M249.58,324.69c6.23,13.68,8.38,26.24-10.81,24.58-.42,2.85-.16,6.85-.7,8.34-2.41,1.39-8.26,1.21-10-.53a6,6,0,0,1,4.79-3.44c-4.05-5-3.81-19.72,8.58-23.8C247.4,327.49,249.58,324.69,249.58,324.69Z"/><path class="cls-3" d="M214.7,318.71c0-3,19-1.26,19,0,0,2.28-.7,6.81-6.38,12.66a2.55,2.55,0,0,1-.23.24h0a3.1,3.1,0,0,1-.44.31,5.44,5.44,0,0,1-4.91,0,2.43,2.43,0,0,1-.52-.39C217.86,328.89,214.7,323.27,214.7,318.71Z"/><path class="cls-5" d="M231.4,268.88s10.3,2.15,10.3-7.56A19.26,19.26,0,0,0,234.44,246C234.44,252.19,221.22,259,231.4,268.88Z"/><path class="cls-5" d="M217.49,322.59a14.83,14.83,0,0,0,13.45,0c1.85-1.07,2.78-2.47,2.78-3.88s-.93-2.81-2.78-3.88a14.89,14.89,0,0,0-13.45,0c-1.86,1.07-2.79,2.48-2.79,3.88S215.63,321.52,217.49,322.59Z"/><path class="cls-16" d="M235.91,254.72c0,20-11.7,11.76-11.7,30.84v33.15"/><path class="cls-5" d="M217.43,291.3c13.48-9.56-2.79-17.41-2.23-24.82C207.51,276.33,201.32,284.93,217.43,291.3Z"/><path class="cls-16" d="M224.21,302.47v-.8c0-15.44-11-3.31-11-24.49"/><path class="cls-12" d="M225.82,329.63a2.5,2.5,0,0,1-2.5-2.43c0-.63,0-2.6,0-2.6s1.73,0,2.48,0c4.94-.14,8.59-1.51,10.85-4.06a9.73,9.73,0,0,0,2.63-6.84,2.5,2.5,0,1,1,5-.47,14.69,14.69,0,0,1-3.87,10.62c-3.2,3.63-8.07,5.57-14.45,5.75Z"/><circle class="cls-5" cx="204.09" cy="78.14" r="3.24"/><circle class="cls-17" cx="238.51" cy="37.24" r="1.33"/><circle class="cls-18" cx="218.11" cy="106.38" r="1.33"/><circle class="cls-6" cx="211.15" cy="11.92" r="1.33"/><circle class="cls-19" cx="55.13" cy="349.54" r="4.14"/><ellipse class="cls-19" cx="55.13" cy="349.54" rx="20.18" ry="7.46"/><ellipse class="cls-19" cx="55.13" cy="349.54" rx="7.46" ry="20.18"/><ellipse class="cls-19" cx="55.13" cy="349.54" rx="7.46" ry="20.18" transform="translate(-231.01 141.36) rotate(-45)"/><ellipse class="cls-19" cx="55.11" cy="349.54" rx="20.19" ry="7.45" transform="translate(-230.83 141.09) rotate(-44.95)"/><path class="cls-3" d="M397.12,164.85c-4.51,0-4.51,7,0,7S401.63,164.85,397.12,164.85Z"/><path class="cls-3" d="M397.12,124.5a1.5,1.5,0,0,0,0,3A1.5,1.5,0,0,0,397.12,124.5Z"/><path class="cls-3" d="M177.5,391.26c-3.21,0-3.22,5,0,5S180.73,391.26,177.5,391.26Z"/><path class="cls-1" d="M273,398.4c-7.08,0-7.09,11,0,11S280,398.4,273,398.4Z"/><path class="cls-1" d="M335.29,191.86c-4.51,0-4.51,7,0,7S339.8,191.86,335.29,191.86Z"/><path class="cls-1" d="M316.88,233.12a1,1,0,0,0,0,2A1,1,0,0,0,316.88,233.12Z"/><path class="cls-6" d="M45.73,257.8c-3.21,0-3.22,5,0,5S49,257.8,45.73,257.8Z"/><path class="cls-6" d="M176.66,14.35a1,1,0,0,0,0,2A1,1,0,0,0,176.66,14.35Z"/><path class="cls-3" d="M77,20.26a1,1,0,0,0,0,2A1,1,0,0,0,77,20.26Z"/><path class="cls-3" d="M59.25,23.64a1,1,0,0,0,0,2A1,1,0,0,0,59.25,23.64Z"/><path class="cls-3" d="M379.38,345.46a1,1,0,0,0,0,2A1,1,0,0,0,379.38,345.46Z"/><path class="cls-3" d="M387,371.64a1,1,0,0,0,0,2A1,1,0,0,0,387,371.64Z"/><path class="cls-1" d="M412.32,379.25a1,1,0,0,0,0,2A1,1,0,0,0,412.32,379.25Z"/><polygon class="cls-20" points="247.44 371.28 247.44 354.28 351.12 294.42 247.44 371.28"/></g></svg>