<svg xmlns="http://www.w3.org/2000/svg" viewBox="0 0 415 415"><defs><style>.cls-1{fill:#dee4eb;}.cls-2{fill:#1a0960;}.cls-20,.cls-3{fill:#471caf;}.cls-4{fill:#2b0e87;}.cls-5{fill:#a02ff7;}.cls-6,.cls-8{fill:#fff;}.cls-19,.cls-6{stroke:#471caf;}.cls-10,.cls-11,.cls-12,.cls-13,.cls-15,.cls-19,.cls-20,.cls-6{stroke-miterlimit:10;}.cls-7{fill:#521ee2;}.cls-9{fill:#f2b640;}.cls-10,.cls-11,.cls-12,.cls-13,.cls-15,.cls-19,.cls-26{fill:none;}.cls-10{stroke:#741ce5;}.cls-11{stroke:#a980e8;}.cls-12{stroke:#c9bcea;}.cls-13{stroke:#d2d0eb;}.cls-14{fill:#741ce5;}.cls-15{stroke:#a0b3c1;stroke-dasharray:8;}.cls-16{fill:#ca4d5d;}.cls-17{fill:#d0d8dd;}.cls-18{fill:#a0b3c1;}.cls-20{stroke:#fff;}.cls-21{fill:#e8edef;}.cls-22{fill:#f4d03e;}.cls-23{fill:#c96a0d;}.cls-24{fill:#e09410;}.cls-25{fill:#7c320d;}.cls-26{stroke:#e09410;stroke-linecap:round;stroke-linejoin:round;stroke-width:6px;}</style></defs><title>marketing</title><g id="marketing"><circle class="cls-1" cx="125.05" cy="29.8" r="25.81" transform="translate(65.49 143.73) rotate(-75.81)"/><path class="cls-2" d="M323.15,189.78c-7.27,84.06-144.92,83.08-233.46,188.54,14.19,9.8,45.55,2.17,62,8.23,13.2,4.86,11.14,24.14,25.44,26.24A208.51,208.51,0,0,0,207.5,415c48.63,0,109.48-14.69,144.86-42.7-11.1-6.39-14.77-15.07-14.77-21.88,0-16.05,5.36-27.24,21.41-27.24a28.9,28.9,0,0,1,17,5.47A207.48,207.48,0,0,0,366.33,74C379.64,91.49,329.92,111.45,323.15,189.78Z"/><path class="cls-2" d="M.92,212.08c23.17,62.19,50.21,127.23,82.41,123.39s32.52-90.83,32.52-90.83Z"/><path class="cls-2" d="M16.07,127.3s53.08,12.61,80-18.61c14.6-16.9,44.75-9.92,53.23-2.88S120,155.11,120,155.11H50.72Z"/><path class="cls-3" d="M366.33,74l.13.17c.89,1.06,1.78,2.12,2.65,3.2Q367.75,75.67,366.33,74Z"/><path class="cls-3" d="M377.54,158.62c1-44.47-1.15-71.2-11.08-84.46a209.41,209.41,0,0,0-31.85-30.65A14.58,14.58,0,0,1,310.39,27.3,208,208,0,0,0,149.56,8.2c-13.83,4-21.91,18.62-17.5,32.33a76.59,76.59,0,0,1-116,86.77A206.84,206.84,0,0,0,0,207.5c0,19.93,53.9,38.08,59.15,56.33,13.4,46.59-8.39,87.59,30.54,114.49,29.91,10.16,61.31-5.25,95.54-12.71,88.45-19.28,180-74.11,196.07-156C384.8,191.82,377.2,173.18,377.54,158.62Z"/><path class="cls-4" d="M343.05,140.46c-9.16-84.35-20-75.28-70.91-56.37a14.92,14.92,0,1,1-28.24,9.66c-3.29,1-6.69,2-10.23,3C149,120.16,198.92,212.87,198.92,212.87L273,236.58S354.16,242.83,343.05,140.46Z"/><path class="cls-5" d="M106.35,238.12s-7.2,42.76,4.17,56.12S130,261.57,130,261.57l-7.32-25.34Z"/><circle class="cls-6" cx="58.38" cy="352.24" r="36.15"/><path class="cls-7" d="M304.18,209.8c2.62-10.53,7.33-32.45,7.33-53.56,0-16.73-6.19-34.41-6.19-34.41l11-8.53c-10.85,1-12.85.16-12.85.16-16.89,16.9,1.85,52.29-4.9,79.18C298.61,192.64,290.36,221.85,304.18,209.8Z"/><path class="cls-8" d="M237.05,127.45l-6.05-16s-16.42-3.85-19.24-5.16c-1.78,3.56,4.23,4.32,4.23,4.32l7.22,2.81-4.69,4s-.19,6.75,0,8.63,8.92,2.72,8.92,2.72l2.25-1.4s4.6,9.94,11.26,13.32S237.05,127.45,237.05,127.45Z"/><path class="cls-7" d="M369.29,186.39c-9.84-49.18-23.24-55.93-23.24-55.93-11.43-1-20.53,14-11.49,22.27s14.14,13.08,20.17,29.66c-3,11.76-27.67,41.93-27.67,41.93h9.28S356.33,207.93,369.29,186.39Z"/><path class="cls-7" d="M306.78,113.87l-3.27-.41S299.19,115.38,291,127a95.66,95.66,0,0,1-20.3,20.73,112.05,112.05,0,0,1-33.65-20.28,43.63,43.63,0,0,1-4.91,7.76s23,23.43,42,26.86a351.67,351.67,0,0,1,33.06-22.35Z"/><polygon points="305.31 121.83 303.44 202.34 312.58 214.62 317.97 214.79 323.15 189.78 327.4 119.36 307.94 115.44 305.31 121.83"/><path d="M303.9,87.17l-1-2s5.89-10.83,19.35-5.9,14,22,1.48,32.35C307.64,106,308,97.71,303.9,87.17Z"/><path class="cls-8" d="M320.27,97.91c-2.2-1.83-3.23,4.49-3.23,4.49a17.85,17.85,0,0,1-1.34-1.71c0-2.08,3.74-9-1.71-13.52a7.46,7.46,0,0,0-10.09,0l-1.6,12.39-2.89,7.37h2.89l1,9.94h8.09L316,135.52c7.53-.4,11.4-16.16,11.4-16.16l-3.63-7.73-5-6.87S322.94,100.13,320.27,97.91Z"/><path class="cls-7" d="M346.05,130.46c-5.82-3.73-16.07-9-18.65-15.1l-9,10.6a264.78,264.78,0,0,1,1.5,29.28c0,22.7-4.79,47.77-7.31,59.38a59.85,59.85,0,0,0,16.95,3.31C341.6,198,350.93,152.23,346.05,130.46Z"/><path class="cls-9" d="M322.79,266.08c20.36-15.8,68-15.27,24.31-39.5-9.47-5.26-20-11.27-30.63-17.45A159.3,159.3,0,0,0,156.85,209l-50.5,29.15c2.82,2.11,4.52,4.76,4.52,7.65,0,6.85-9.48,12.41-21.18,12.41a31.51,31.51,0,0,1-13.3-2.76l-34.12,19.7,175.36,103.2c37.16,21.87,84.06,19.07,118-7.58.21-.16.42-.32.62-.49A29,29,0,0,1,376,328.65C390.23,308.84,302.43,281.89,322.79,266.08Z"/><polygon points="302.1 104.28 300.77 95.99 317.97 97.55 317.56 98.43 302.02 97.19 303.04 104.28 302.1 104.28"/><polygon class="cls-10" points="214.15 114.37 188.73 99.7 188.73 89.91 214.15 104.58 214.15 114.37"/><polygon class="cls-11" points="214.15 128.61 188.73 113.93 188.73 104.15 214.15 118.82 214.15 128.61"/><polygon class="cls-12" points="214.15 142.84 188.73 128.17 188.73 118.38 214.15 133.06 214.15 142.84"/><polygon class="cls-13" points="214.15 157.08 188.73 142.41 188.73 132.62 214.15 147.29 214.15 157.08"/><polygon class="cls-10" points="150.85 284.14 178.22 299.95 213.42 279.63 186.05 263.83 150.85 284.14"/><polygon class="cls-10" points="217.33 245.76 244.7 261.57 279.89 241.25 252.52 225.45 217.33 245.76"/><polygon class="cls-10" points="236.88 266.08 201.69 245.76 186.05 254.79 221.24 275.11 236.88 266.08"/><polygon class="cls-10" points="139.12 254.79 166.5 270.6 182.14 261.57 154.76 245.76 139.12 254.79"/><polygon class="cls-10" points="170.41 218.67 205.6 238.99 182.14 252.54 146.94 232.22 170.41 218.67"/><polygon class="cls-10" points="244.7 202.87 264.25 214.16 217.33 241.25 197.78 229.96 244.7 202.87"/><polygon class="cls-14" points="174.31 238.99 182.14 234.48 172.58 233.47 174.31 238.99"/><line class="cls-10" x1="221.24" y1="270.6" x2="201.69" y2="259.31"/><line class="cls-10" x1="225.15" y1="268.34" x2="213.42" y2="261.57"/><polygon class="cls-14" points="166.5 284.14 182.14 293.17 178.22 295.43 162.58 286.4 166.5 284.14"/><line class="cls-10" x1="186.05" y1="290.92" x2="166.49" y2="279.63"/><line class="cls-10" x1="189.96" y1="288.66" x2="174.32" y2="279.63"/><line class="cls-10" x1="193.87" y1="286.4" x2="174.32" y2="275.11"/><line class="cls-10" x1="197.78" y1="284.14" x2="178.23" y2="272.86"/><polygon class="cls-10" points="189.96 270.6 205.6 279.63 201.69 281.89 186.05 272.86 189.96 270.6"/><line class="cls-10" x1="166.49" y1="266.08" x2="154.76" y2="259.31"/><line class="cls-10" x1="170.4" y1="263.83" x2="150.85" y2="252.54"/><line class="cls-10" x1="174.32" y1="261.57" x2="170.4" y2="259.31"/><line class="cls-10" x1="221.24" y1="234.48" x2="209.51" y2="227.7"/><line class="cls-10" x1="225.15" y1="232.22" x2="213.42" y2="225.45"/><line class="cls-10" x1="229.06" y1="229.96" x2="217.33" y2="223.19"/><line class="cls-10" x1="232.97" y1="227.7" x2="225.15" y2="223.19"/><line class="cls-10" x1="236.88" y1="225.45" x2="225.15" y2="218.67"/><line class="cls-10" x1="240.79" y1="223.19" x2="236.88" y2="220.93"/><line class="cls-10" x1="244.7" y1="220.93" x2="232.97" y2="214.16"/><polygon class="cls-10" points="240.79 209.64 252.52 216.42 248.61 218.67 236.88 211.9 240.79 209.64"/><line class="cls-10" x1="244.7" y1="252.54" x2="232.97" y2="245.76"/><line class="cls-10" x1="244.7" y1="248.02" x2="240.79" y2="245.76"/><line class="cls-10" x1="256.43" y1="250.28" x2="236.88" y2="238.99"/><line class="cls-10" x1="256.43" y1="245.76" x2="244.7" y2="238.99"/><line class="cls-10" x1="260.34" y1="238.99" x2="256.43" y2="236.73"/><polygon class="cls-5" points="42.27 275.12 42.27 275.12 139.39 339.9 217.63 378.32 159.5 344.11 42.27 275.12"/><path class="cls-15" d="M47.31,188.2c27.6-1.77,55.05-8.51,66.21-25.19,9.78-14.61,1.92-29-9.93-32-11.36-2.9-30.8-11.47-31.37-25.21-2-48.55,52.83-33.5,52.83-33.5"/><circle class="cls-16" cx="397.32" cy="124.33" r="8.54"/><circle class="cls-8" cx="225.32" cy="29.8" r="4.27"/><circle class="cls-17" cx="252.7" cy="88.76" r="4.27"/><polygon class="cls-18" points="50.72 197.1 50.56 179.09 32.59 188.34 50.72 197.1"/><circle class="cls-19" cx="59.15" cy="352.24" r="13.37"/><circle class="cls-19" cx="59.15" cy="352.24" r="20.06"/><circle class="cls-20" cx="59.15" cy="352.24" r="6.69"/><polygon class="cls-21" points="208.78 357.61 280.93 365.91 275.36 334.93 208.78 357.61"/><polygon class="cls-8" points="304.94 351.89 208.78 357.61 270.56 319.14 275.36 334.93 304.94 351.89"/><path class="cls-22" d="M253.69,279c-.21,4.36,7.49,5.88,8.63,2.15s-3.2-6-3.2-6S253.89,275,253.69,279Z"/><path class="cls-23" d="M251.86,338.75s-3.8,2.09-11.44-9.44c-6.58-9.93-5.23-25.41,9.92-33.46,21-11.15,4.12-25.19,3.35-16.83.44-8.34,16.32-8.1,22-4.89,7.19,4,10.77,19.1-3,31.52S245.83,336.09,251.86,338.75Z"/><path class="cls-22" d="M246.41,333.66l-1.15,1.81a40.17,40.17,0,0,1-4.84-6.16,20.89,20.89,0,0,1-3.53-12.16C236.74,327,246.41,333.66,246.41,333.66Z"/><path class="cls-24" d="M249.28,323c7.41-7.41,19.63-16.59,25.44-15.45s6.62,5.36,4.82,8.63c-1.39,2.52-3.42,3.37-5.36,4.32-2.32,1.12-4.52,2.35-5.38,6.65-1.59,7.91-14.37,8.73-16.17,4.19S249.28,323,249.28,323Z"/><path class="cls-24" d="M272.83,315c-1.39,7.72.31,18.67-.84,24s-3.43,5.27-4.52,4.65-1-1.95-2.1-3.25-7.22-.91-7.52-5.24S272.83,315,272.83,315Z"/><path class="cls-22" d="M274.07,316.33c-6.14-.68-9.29,4-11.16,12.21-2.42,10.64-5.07,10.43-6.62,11.25,7,2.26,13,.12,14.74-9.82,1.25-7.25,1-8.51,3.15-9.51S277.22,316.68,274.07,316.33Z"/><path class="cls-24" d="M264.84,329.44c-2.44,10.18-13.76,13-15,15.88s-7,.64-5.44-2.47c.92-1.87-2.37-12.16,4.85-19.89C256.76,315,267.2,319.61,264.84,329.44Z"/><path class="cls-24" d="M292.29,299.67,288.63,306c-4.3,7.47-6.45,11.21-13.93,6.9s-5.33-8.05-1-15.52l3.66-6.36,2.23,4.77,7.48,4.31Z"/><path class="cls-25" d="M274.75,302c-.32.56-.05.6.24.77s.45.37.78-.19.35-1.14.07-1.31S275.07,301.44,274.75,302Z"/><path class="cls-25" d="M283.15,306.84c-.32.56,0,.6.23.77s.46.37.78-.19.36-1.14.08-1.31S283.47,306.28,283.15,306.84Z"/><path class="cls-25" d="M276.93,307.1c-.36.62-.46,1.94.16,2.3s1.71-.4,2.06-1-.17-.86-.78-1.22S277.28,306.49,276.93,307.1Z"/><path class="cls-24" d="M287,300.13a3.42,3.42,0,0,0,1.26,4.65c1.62.94,1-1.18,1.94-2.81s3.08-2.15,1.45-3.08A3.41,3.41,0,0,0,287,300.13Z"/><path class="cls-24" d="M276.37,294c-.94,1.63-3.08,2.15-1.45,3.09a3.4,3.4,0,1,0,3.39-5.89C276.68,290.24,277.31,292.36,276.37,294Z"/><path class="cls-26" d="M271.18,308.85s-7.68-6.6-19.38-.05"/><path class="cls-26" d="M280.46,312s12.63,5.83,12,10.9"/><path class="cls-15" d="M287.91,331.17c60.27-23.8,110.49-66.51,110.49-88.79,0-23.68-27.81-20-29.11-4.95"/><ellipse class="cls-2" cx="197.78" cy="330.97" rx="7.82" ry="4.66"/><circle class="cls-2" cx="382.23" cy="197.1" r="9.4"/><circle class="cls-2" cx="110.45" cy="190.84" r="5.4"/><path class="cls-2" d="M130.72,141.55c-2.57,0-2.57,4,0,4S133.3,141.55,130.72,141.55Z"/><path class="cls-3" d="M390.89,150.72c-7.08,0-7.09,11,0,11S398,150.72,390.89,150.72Z"/><path class="cls-2" d="M126.5,361.67a1.5,1.5,0,0,0,0,3A1.5,1.5,0,0,0,126.5,361.67Z"/><path class="cls-2" d="M99.47,324.54c-5.15,0-5.16,8,0,8S104.63,324.54,99.47,324.54Z"/><path class="cls-3" d="M47.38,65.78c-5.15,0-5.15,8,0,8S52.54,65.78,47.38,65.78Z"/><path class="cls-3" d="M62.59,49.14a1.5,1.5,0,0,0,0,3A1.5,1.5,0,0,0,62.59,49.14Z"/><path class="cls-3" d="M22.6,34.68c-3.86,0-3.86,6,0,6S26.47,34.68,22.6,34.68Z"/><path class="cls-1" d="M89.05,82.8a.5.5,0,0,0,0,1A.5.5,0,0,0,89.05,82.8Z"/><path class="cls-1" d="M45.69,103.07a.5.5,0,0,0,0,1A.5.5,0,0,0,45.69,103.07Z"/><path class="cls-1" d="M32.18,86.74a.5.5,0,0,0,0,1A.5.5,0,0,0,32.18,86.74Z"/><path class="cls-1" d="M7.4,91.81a.5.5,0,0,0,0,1A.5.5,0,0,0,7.4,91.81Z"/><path class="cls-9" d="M371,344.63a1.5,1.5,0,0,0,0-3,1.5,1.5,0,0,0,0,3Z"/><path class="cls-9" d="M374.27,369.31c4.5,0,4.51-7,0-7s-4.51,7,0,7Z"/><path class="cls-9" d="M320.25,399.9c7.72,0,7.74-12,0-12s-7.73,12,0,12Z"/><path class="cls-9" d="M389.39,394.16c4.51,0,4.52-7,0-7s-4.51,7,0,7Z"/></g></svg>