<?xml version="1.0" encoding="UTF-8"?>
<svg width="36px" height="30px" viewBox="0 0 36 30" version="1.1" xmlns="http://www.w3.org/2000/svg" xmlns:xlink="http://www.w3.org/1999/xlink">
    <!-- Generator: Sketch 57.1 (83088) - https://sketch.com -->
    <title>cta-arrow</title>
    <desc>Created with Sketch.</desc>
    <g id="Pages---Home-SEO" stroke="none" stroke-width="1" fill="none" fill-rule="evenodd">
        <g id="page/desktop/d-home-banner-bar" transform="translate(-1522.000000, -548.000000)" fill="#FFFFFF" fill-rule="nonzero">
            <g id="10bonus-banner-homeheader" transform="translate(0.000000, 516.000000)">
                <g id="cta-arrow" transform="translate(1522.000000, 32.000000)">
                    <path d="M34.9926124,0.918246975 C35.6988805,1.09206744 36.1333555,1.81730098 35.9630395,2.53810144 C35.7927235,3.25890189 35.0821117,3.70231678 34.3758436,3.52849631 C20.2767344,0.0585482972 12.3651724,7.32363256 10.2522771,26.0539264 L16.349625,22.3806508 C16.9752392,22.0036877 17.7818276,22.2156947 18.1511907,22.8541817 C18.5205537,23.4926687 18.312821,24.3158537 17.6872068,24.6928168 L9.18879819,29.8135228 C8.68199859,30.1188943 8.03812129,30.0435541 7.61219289,29.6290439 L0.407657434,22.6176466 C-0.118126067,22.1059582 -0.137915465,21.2561508 0.363456577,20.7195487 C0.864828618,20.1829466 1.69750271,20.16275 2.22328621,20.6744383 L7.61886023,25.9257128 C9.87523463,5.59639709 19.130876,-2.98550326 34.9926124,0.918246975 Z" id="Combined-Shape"></path>
                </g>
            </g>
        </g>
    </g>
</svg>