<?xml version="1.0" encoding="UTF-8"?>
<svg width="124px" height="124px" viewBox="0 0 124 124" version="1.1" xmlns="http://www.w3.org/2000/svg" xmlns:xlink="http://www.w3.org/1999/xlink">
    <!-- Generator: Sketch 57.1 (83088) - https://sketch.com -->
    <title>img-1</title>
    <desc>Created with Sketch.</desc>
    <defs>
        <circle id="path-1" cx="62" cy="62" r="62"></circle>
        <circle id="path-3" cx="62" cy="62" r="62"></circle>
    </defs>
    <g id="Desktop" stroke="none" stroke-width="1" fill="none" fill-rule="evenodd">
        <g id="LP-D-10-Bonus---How-it-works" transform="translate(-355.000000, -374.000000)">
            <g id="howitworks" transform="translate(355.000000, 374.000000)">
                <g id="1">
                    <g id="img-1">
                        <mask id="mask-2" fill="white">
                            <use xlink:href="#path-1"></use>
                        </mask>
                        <use id="Mask" fill="#FFFFFF" xlink:href="#path-1"></use>
                        <rect id="bg" fill="#027AFF" mask="url(#mask-2)" x="58.75" y="51" width="52.6102941" height="22.5" rx="3"></rect>
                        <path d="M70.53375,64.295 L71.11875,63.485 C71.47125,63.8525 72.01875,64.16 72.70875,64.16 C73.29375,64.16 73.57875,63.8825 73.57875,63.5975 C73.57875,63.2225 73.14375,63.095 72.56625,62.96 C71.74875,62.7725 70.69875,62.5475 70.69875,61.43 C70.69875,60.5975 71.41875,59.9225 72.59625,59.9225 C73.39125,59.9225 74.05125,60.1625 74.54625,60.62 L73.95375,61.4 C73.54875,61.025 73.00875,60.8525 72.52125,60.8525 C72.04125,60.8525 71.78625,61.0625 71.78625,61.3625 C71.78625,61.7 72.20625,61.805 72.78375,61.94 C73.60875,62.1275 74.65875,62.375 74.65875,63.485 C74.65875,64.4 74.00625,65.09 72.65625,65.09 C71.69625,65.09 71.00625,64.7675 70.53375,64.295 Z M75.37875,65 L75.37875,59.9975 L76.44375,59.9975 L76.44375,65 L75.37875,65 Z M77.19375,62.5025 C77.19375,60.92 78.39375,59.915 79.85625,59.915 C80.89125,59.915 81.54375,60.4175 81.92625,61.01 L81.04125,61.49 C80.80875,61.1375 80.38125,60.86 79.85625,60.86 C78.94875,60.86 78.28875,61.5575 78.28875,62.5025 C78.28875,63.4475 78.94875,64.145 79.85625,64.145 C80.31375,64.145 80.71875,63.9575 80.93625,63.7625 L80.93625,63.155 L79.60125,63.155 L79.60125,62.24 L81.98625,62.24 L81.98625,64.1525 C81.47625,64.7225 80.76375,65.0975 79.85625,65.0975 C78.39375,65.0975 77.19375,64.0775 77.19375,62.5025 Z M86.28375,65 L83.89875,61.64 L83.89875,65 L82.83375,65 L82.83375,59.9975 L83.92875,59.9975 L86.24625,63.2375 L86.24625,59.9975 L87.31125,59.9975 L87.31125,65 L86.28375,65 Z M90.22125,63.005 L90.22125,59.9975 L91.30125,59.9975 L91.30125,62.9675 C91.30125,63.665 91.68375,64.145 92.46375,64.145 C93.22875,64.145 93.61125,63.665 93.61125,62.9675 L93.61125,59.9975 L94.69125,59.9975 L94.69125,62.9975 C94.69125,64.2425 93.97875,65.09 92.46375,65.09 C90.93375,65.09 90.22125,64.235 90.22125,63.005 Z M95.68125,65 L95.68125,59.9975 L98.02125,59.9975 C99.10875,59.9975 99.70125,60.7325 99.70125,61.61 C99.70125,62.48 99.10125,63.2075 98.02125,63.2075 L96.74625,63.2075 L96.74625,65 L95.68125,65 Z M98.61375,61.6025 C98.61375,61.19 98.29875,60.9125 97.87875,60.9125 L96.74625,60.9125 L96.74625,62.2925 L97.87875,62.2925 C98.29875,62.2925 98.61375,62.0225 98.61375,61.6025 Z" id="SIGNUP" fill="#FFFFFF" fill-rule="nonzero" mask="url(#mask-2)"></path>
                        <rect id="bg" stroke="#027AFF" stroke-width="0.75" mask="url(#mask-2)" x="-5.875" y="51.375" width="51.8602941" height="21.75" rx="3"></rect>
                        <path d="M8.36875,65 L8.36875,59.9975 L9.43375,59.9975 L9.43375,64.0625 L11.54875,64.0625 L11.54875,65 L8.36875,65 Z M12.05125,62.5025 C12.05125,60.995 13.15375,59.915 14.66125,59.915 C16.17625,59.915 17.27875,60.995 17.27875,62.5025 C17.27875,64.01 16.17625,65.09 14.66125,65.09 C13.15375,65.09 12.05125,64.01 12.05125,62.5025 Z M16.18375,62.5025 C16.18375,61.565 15.58375,60.86 14.66125,60.86 C13.73875,60.86 13.14625,61.565 13.14625,62.5025 C13.14625,63.4325 13.73875,64.145 14.66125,64.145 C15.58375,64.145 16.18375,63.4325 16.18375,62.5025 Z M17.78875,62.5025 C17.78875,60.92 18.98875,59.915 20.45125,59.915 C21.48625,59.915 22.13875,60.4175 22.52125,61.01 L21.63625,61.49 C21.40375,61.1375 20.97625,60.86 20.45125,60.86 C19.54375,60.86 18.88375,61.5575 18.88375,62.5025 C18.88375,63.4475 19.54375,64.145 20.45125,64.145 C20.90875,64.145 21.31375,63.9575 21.53125,63.7625 L21.53125,63.155 L20.19625,63.155 L20.19625,62.24 L22.58125,62.24 L22.58125,64.1525 C22.07125,64.7225 21.35875,65.0975 20.45125,65.0975 C18.98875,65.0975 17.78875,64.0775 17.78875,62.5025 Z M25.34875,65 L25.34875,59.9975 L26.41375,59.9975 L26.41375,65 L25.34875,65 Z M30.85375,65 L28.46875,61.64 L28.46875,65 L27.40375,65 L27.40375,59.9975 L28.49875,59.9975 L30.81625,63.2375 L30.81625,59.9975 L31.88125,59.9975 L31.88125,65 L30.85375,65 Z" id="LOGIN" fill="#027AFF" fill-rule="nonzero" mask="url(#mask-2)"></path>
                        <mask id="mask-4" fill="white">
                            <use xlink:href="#path-3"></use>
                        </mask>
                        <circle stroke="#9DAFB7" cx="62" cy="62" r="61.5"></circle>
                    </g>
                </g>
            </g>
        </g>
    </g>
</svg>