<?xml version="1.0" encoding="UTF-8"?>
<svg width="124px" height="124px" viewBox="0 0 124 124" version="1.1" xmlns="http://www.w3.org/2000/svg" xmlns:xlink="http://www.w3.org/1999/xlink">
    <!-- Generator: Sketch 57.1 (83088) - https://sketch.com -->
    <title>img-5</title>
    <desc>Created with Sketch.</desc>
    <g id="Desktop" stroke="none" stroke-width="1" fill="none" fill-rule="evenodd">
        <g id="LP-D-10-Bonus---How-it-works" transform="translate(-355.000000, -1126.000000)">
            <g id="howitworks" transform="translate(355.000000, 374.000000)">
                <g id="5" transform="translate(0.000000, 752.000000)">
                    <g id="img-5">
                        <circle id="Mask-Copy-4" fill="#18AA68" cx="62" cy="62" r="62"></circle>
                        <g id="atom/icon/interactive/checked" transform="translate(29.000000, 29.000000)">
                            <path d="M33,66 C51.2253967,66 66,51.2253967 66,33 C66,14.7746033 51.2253967,0 33,0 C14.7746033,0 0,14.7746033 0,33 C0,51.2253967 14.7746033,66 33,66 Z" id="Path" fill="#18AA68"></path>
                            <g id="check" stroke-width="1" transform="translate(33.604092, 29.479092) rotate(-45.000000) translate(-33.604092, -29.479092) translate(15.041592, 17.104092)" fill="#FFFFFF">
                                <path d="M6.81392045,1.546875 C7.94359381,1.546875 8.859375,2.46265619 8.859375,3.59232955 L8.859,14.952875 L33.3920455,14.953125 C34.5217188,14.953125 35.4375,15.8689062 35.4375,16.9985795 L35.4375,21.931108 C35.4375,23.0607813 34.5217188,23.9765625 33.3920455,23.9765625 L2.04545455,23.9765625 C0.915781194,23.9765625 -9.93376379e-14,23.0607813 -9.9475983e-14,21.931108 L-9.9475983e-14,16.9985795 L-1.80300219e-13,3.59232955 C-1.80438564e-13,2.46265619 0.915781194,1.546875 2.04545455,1.546875 L6.81392045,1.546875 Z" id="Combined-Shape"></path>
                            </g>
                        </g>
                    </g>
                </g>
            </g>
        </g>
    </g>
</svg>