<?xml version="1.0" encoding="UTF-8"?>
<svg width="184px" height="111px" viewBox="0 0 184 111" version="1.1" xmlns="http://www.w3.org/2000/svg" xmlns:xlink="http://www.w3.org/1999/xlink">
    <!-- Generator: Sketch 57.1 (83088) - https://sketch.com -->
    <title>bannerbar-illustration</title>
    <desc>Created with Sketch.</desc>
    <defs>
        <path d="M41.332875,1.101 L2.067375,23.7705 C0.991875,24.3915 0.414375,25.177875 0.358875,25.93575 L0.358875,25.93575 C0.3075,26.636625 0.703125,27.313125 1.56525,27.810375 L1.56525,27.810375 L41.835375,51.060375 C43.629,52.096125 46.762125,51.966375 48.83325,50.7705 L48.83325,50.7705 L88.098375,28.101 C89.173875,27.48 89.75175,26.69325 89.806875,25.93575 L89.806875,25.93575 C89.85825,25.2345 89.46225,24.558375 88.6005,24.06075 L88.6005,24.06075 L48.330375,0.811125 C47.51775,0.342 46.429875,0.11175 45.291,0.11175 L45.291,0.11175 C43.915875,0.11175 42.46575,0.447 41.332875,1.101" id="path-1"></path>
        <linearGradient x1="-0.000103372128%" y1="50.0000991%" x2="100.00005%" y2="50.0000991%" id="linearGradient-3">
            <stop stop-color="#2AB3FF" offset="0%"></stop>
            <stop stop-color="#3DD68C" offset="100%"></stop>
        </linearGradient>
        <polygon id="path-4" points="0.0618411766 0.0507375 89.5142625 0.0507375 89.5142625 27 0.0618411766 27"></polygon>
        <path d="M41.040375,1.090875 L1.77525,23.760375 C0.699375,24.38175 0.12225,25.168125 0.066375,25.925625 L0.066375,25.925625 C0.015,26.626875 0.411,27.303 1.27275,27.800625 L1.27275,27.800625 L41.542875,51.050625 C43.3365,52.086375 46.469625,51.956625 48.540375,50.760375 L48.540375,50.760375 L87.8055,28.090875 C88.881375,27.469875 89.458875,26.6835 89.514375,25.925625 L89.514375,25.925625 C89.517,25.88775 89.518875,25.849875 89.518875,25.812375 L89.518875,25.812375 L89.518875,25.803375 C89.518875,25.14675 89.1195,24.51975 88.308,24.051 L88.308,24.051 L48.0375,0.801 C47.22525,0.331875 46.138125,0.102 44.998875,0.102 L44.998875,0.102 C43.62375,0.102 42.17325,0.43725 41.040375,1.090875" id="path-6"></path>
        <linearGradient x1="-8.43859407e-05%" y1="50.0000823%" x2="99.9999852%" y2="50.0000823%" id="linearGradient-8">
            <stop stop-color="#2AB3FF" offset="0%"></stop>
            <stop stop-color="#3DD68C" offset="100%"></stop>
        </linearGradient>
        <polygon id="path-9" points="0 0.26385 44.726175 0.26385 44.726175 14.488487 0 14.488487"></polygon>
        <path d="M20.48925,0.59625 L0.8565,11.931375 C0.31875,12.241875 0.03,12.63525 0.001875,13.014 L0.001875,13.014 C0.00075,13.029 0,13.044375 0,13.059375 L0,13.059375 L0,13.087875 C0.005625,13.4115 0.20475,13.720125 0.605625,13.951125 L0.605625,13.951125 L20.7405,25.5765 C21.6375,26.094 23.203875,26.029125 24.23925,25.431375 L24.23925,25.431375 L43.872,14.09625 C44.40975,13.78575 44.6985,13.39275 44.72625,13.014 L44.72625,13.014 C44.75175,12.663375 44.554125,12.3255 44.122875,12.0765 L44.122875,12.0765 L23.987625,0.451125 C23.5815,0.21675 23.03775,0.102 22.4685,0.102 L22.4685,0.102 C21.78075,0.102 21.0555,0.26925 20.48925,0.59625" id="path-11"></path>
        <linearGradient x1="-8.38392871e-07%" y1="50.0002337%" x2="100.000129%" y2="50.0002337%" id="linearGradient-13">
            <stop stop-color="#2AB3FF" offset="0%"></stop>
            <stop stop-color="#3DD68C" offset="100%"></stop>
        </linearGradient>
    </defs>
    <g id="Pages---Home-SEO" stroke="none" stroke-width="1" fill="none" fill-rule="evenodd">
        <g id="page/desktop/d-home-banner-bar" transform="translate(-1134.000000, -238.000000)">
            <g id="bannerbar-illustration" transform="translate(1134.000000, 238.000000)">
                <path d="M26.9836875,67.0491 C26.9323125,67.749975 27.3279375,68.426475 28.1900625,68.9241 L68.4605625,92.1741 C70.2538125,93.20985 73.3869375,93.079725 75.4580625,91.884225 L114.723187,69.21435 C115.798687,68.59335 116.376562,67.806975 116.432062,67.0491 L116.432062,65.9241 L26.9836875,65.9241 L26.9836875,67.7991" id="Fill-1" fill="#1A0960"></path>
                <g id="Group-5" transform="translate(26.625000, 39.988500)">
                    <mask id="mask-2" fill="white">
                        <use xlink:href="#path-1"></use>
                    </mask>
                    <g id="Clip-4"></g>
                    <path d="M41.332875,1.101 L2.067375,23.7705 C0.991875,24.3915 0.414375,25.177875 0.358875,25.93575 L0.358875,25.93575 C0.3075,26.636625 0.703125,27.313125 1.56525,27.810375 L1.56525,27.810375 L41.835375,51.060375 C43.629,52.096125 46.762125,51.966375 48.83325,50.7705 L48.83325,50.7705 L88.098375,28.101 C89.173875,27.48 89.75175,26.69325 89.806875,25.93575 L89.806875,25.93575 C89.85825,25.2345 89.46225,24.558375 88.6005,24.06075 L88.6005,24.06075 L48.330375,0.811125 C47.51775,0.342 46.429875,0.11175 45.291,0.11175 L45.291,0.11175 C43.915875,0.11175 42.46575,0.447 41.332875,1.101" id="Fill-3" fill="url(#linearGradient-3)" mask="url(#mask-2)"></path>
                </g>
                <g id="Group-8" transform="translate(94.375000, 83.863500)">
                    <mask id="mask-5" fill="white">
                        <use xlink:href="#path-4"></use>
                    </mask>
                    <g id="Clip-7"></g>
                    <path d="M0.0662625,1.1757375 C0.0148875,1.8769875 0.4108875,2.5531125 1.2726375,3.0507375 L41.5427625,26.3007375 C43.3367625,27.3364875 46.4695125,27.2067375 48.5406375,26.0108625 L87.8057625,3.3409875 C88.8816375,2.7199875 89.4591375,1.9336125 89.5142625,1.1757375 L89.5142625,0.0507375 L0.0662625,0.0507375 L0.0662625,1.9257375" id="Fill-6" fill="#1A0960" mask="url(#mask-5)"></path>
                </g>
                <g id="Group-11" transform="translate(94.375000, 57.988500)">
                    <mask id="mask-7" fill="white">
                        <use xlink:href="#path-6"></use>
                    </mask>
                    <g id="Clip-10"></g>
                    <path d="M41.040375,1.090875 L1.77525,23.760375 C0.699375,24.38175 0.12225,25.168125 0.066375,25.925625 L0.066375,25.925625 C0.015,26.626875 0.411,27.303 1.27275,27.800625 L1.27275,27.800625 L41.542875,51.050625 C43.3365,52.086375 46.469625,51.956625 48.540375,50.760375 L48.540375,50.760375 L87.8055,28.090875 C88.881375,27.469875 89.458875,26.6835 89.514375,25.925625 L89.514375,25.925625 C89.517,25.88775 89.518875,25.849875 89.518875,25.812375 L89.518875,25.812375 L89.518875,25.803375 C89.518875,25.14675 89.1195,24.51975 88.308,24.051 L88.308,24.051 L48.0375,0.801 C47.22525,0.331875 46.138125,0.102 44.998875,0.102 L44.998875,0.102 C43.62375,0.102 42.17325,0.43725 41.040375,1.090875" id="Fill-9" fill="url(#linearGradient-8)" mask="url(#mask-7)"></path>
                </g>
                <g id="Group-14" transform="translate(0.000000, 50.488500)">
                    <mask id="mask-10" fill="white">
                        <use xlink:href="#path-9"></use>
                    </mask>
                    <g id="Clip-13"></g>
                    <path d="M0.002175,1.57635 C-0.023325,1.926975 0.1743,2.265225 0.605175,2.51385 L20.740425,14.13885 C21.637425,14.656725 23.2038,14.59185 24.239175,13.993725 L43.871925,2.658975 C44.409675,2.348475 44.698425,1.9551 44.726175,1.57635 L44.726175,0.26385 L0.002175,0.26385 L0.002175,1.95135" id="Fill-12" fill="#1A0960" mask="url(#mask-10)"></path>
                </g>
                <g id="Group-17" transform="translate(0.000000, 37.738500)">
                    <mask id="mask-12" fill="white">
                        <use xlink:href="#path-11"></use>
                    </mask>
                    <g id="Clip-16"></g>
                    <path d="M20.48925,0.59625 L0.8565,11.931375 C0.31875,12.241875 0.03,12.63525 0.001875,13.014 L0.001875,13.014 C0.00075,13.029 0,13.044375 0,13.059375 L0,13.059375 L0,13.087875 C0.005625,13.4115 0.20475,13.720125 0.605625,13.951125 L0.605625,13.951125 L20.7405,25.5765 C21.6375,26.094 23.203875,26.029125 24.23925,25.431375 L24.23925,25.431375 L43.872,14.09625 C44.40975,13.78575 44.6985,13.39275 44.72625,13.014 L44.72625,13.014 C44.75175,12.663375 44.554125,12.3255 44.122875,12.0765 L44.122875,12.0765 L23.987625,0.451125 C23.5815,0.21675 23.03775,0.102 22.4685,0.102 L22.4685,0.102 C21.78075,0.102 21.0555,0.26925 20.48925,0.59625" id="Fill-15" fill="url(#linearGradient-13)" mask="url(#mask-12)"></path>
                </g>
                <g id="Group-68" transform="translate(39.000000, 0.238500)">
                    <path d="M2.62665,33.2689875 C2.62665,33.2689875 -0.913725,28.7764875 2.62665,27.1951125 C6.167025,25.6137375 7.05015,30.0541125 7.05015,30.0541125 L2.906775,29.5069875 L2.62665,33.2689875 Z" id="Fill-18" fill="#F77D00"></path>
                    <path d="M32.0299125,74.877525 C41.1937875,74.877525 55.9894125,59.43915 37.0061625,55.367025 C11.1030375,49.8099 19.3005375,66.9444 19.3005375,66.9444 C19.3005375,66.9444 28.4917875,69.734775 32.0299125,74.877525" id="Fill-20" fill="#4C6370"></path>
                    <path d="M47.7927375,10.9803 C47.7927375,10.9803 48.6541125,7.99305 46.0403625,6.552675 C43.4262375,5.112675 41.0791125,7.03305 41.0791125,7.03305 L47.7927375,10.9803 Z" id="Fill-22" fill="#FFBF2E"></path>
                    <path d="M32.802975,65.8929 C32.802975,65.8929 35.682975,68.853525 45.85635,60.48615 C54.6201,53.2779 57.7086,38.797275 46.152975,27.24165 C30.14385,11.232525 49.42485,3.1569 47.79285,10.98015 C49.722225,3.26265 35.184975,-0.948225 29.085225,0.3789 C21.4071,2.049525 13.947225,14.77515 23.000475,29.91315 C32.053725,45.05115 39.0366,65.150775 32.802975,65.8929" id="Fill-24" fill="#E15900"></path>
                    <path d="M18.9920625,46.0603875 C19.2586875,38.6901375 17.4706875,30.2110125 20.2809375,28.6945125 C23.0911875,27.1780125 28.8268125,27.7765125 28.8268125,27.7765125 C28.8268125,27.7765125 40.7855625,47.8360125 40.9861875,56.5731375 C30.9875625,54.8050125 18.9920625,46.0603875 18.9920625,46.0603875" id="Fill-26" fill="#F77D00"></path>
                    <path d="M36.2614875,33.9120375 C36.2614875,33.9120375 36.6991125,30.6367875 40.9864875,31.0961625 C45.2738625,31.5559125 43.9662375,39.6836625 40.4382375,41.0760375 C38.6869875,36.5115375 36.2614875,33.9120375 36.2614875,33.9120375" id="Fill-28" fill="#F77D00"></path>
                    <path d="M14.1913875,55.882875 C15.2308875,49.488375 19.4297625,45.867375 20.3203875,38.4465 C20.3203875,38.4465 29.8187625,57.146625 28.3345125,61.005375 C26.8502625,64.864125 21.3587625,62.78625 20.0233875,63.676875 C18.6876375,64.567125 19.3003875,66.94425 19.3003875,66.94425 C17.5146375,68.878875 13.8437625,68.38275 12.8518875,67.986 C12.5046375,67.341375 12.9512625,65.01 14.8360125,64.464375 C14.9350125,62.34 13.1991375,61.984125 14.1913875,55.882875" id="Fill-30" fill="#F77D00"></path>
                    <path d="M25.584225,53.5131375 C25.584225,63.9032625 27.29535,64.4188875 28.4826,65.6061375 C21.4581,65.7051375 16.278225,62.0387625 17.796975,52.5460125 C19.371975,42.7041375 20.5896,41.0361375 20.2806,37.1601375 C19.97235,33.2845125 25.377975,34.1233875 26.499975,38.4463875 C27.62235,42.7697625 25.584225,49.9761375 25.584225,53.5131375" id="Fill-32" fill="#FFBF2E"></path>
                    <path d="M24.2677125,55.6382625 C23.6523375,65.5903875 33.1162125,67.7882625 33.4132125,70.7563875 C31.0210875,71.8892625 31.6874625,74.5682625 32.0298375,74.8776375 C34.9683375,75.3171375 37.5783375,74.1763875 38.9755875,72.5110125 C38.9365875,72.2668875 38.3564625,69.5031375 38.4787125,69.0673875 C39.3322125,66.0163875 43.4268375,60.1551375 39.5579625,52.2268875 C34.9803375,42.8462625 24.8617125,46.0277625 24.2677125,55.6382625" id="Fill-34" fill="#F77D00"></path>
                    <path d="M33.497325,16.5987 L16.9302,13.67745 L14.62995,26.7237 C14.286825,28.66845 15.585075,30.52245 17.529825,30.8652 L27.055575,32.544825 C28.99995,32.887575 30.85395,31.5897 31.197075,29.64495 L33.497325,16.5987 Z" id="Fill-36" fill="#F77D00"></path>
                    <path d="M32.7238875,20.9855625 L34.2280125,12.4569375 C30.0861375,11.7264375 29.1103875,15.8248125 29.1103875,15.8248125 C29.1103875,15.8248125 28.5820125,20.2554375 32.7238875,20.9855625" id="Fill-38" fill="#F77D00"></path>
                    <path d="M16.1568375,18.06465 L17.6605875,9.53565 C21.8024625,10.265775 21.3175875,14.450775 21.3175875,14.450775 C21.3175875,14.450775 20.2987125,18.794775 16.1568375,18.06465" id="Fill-40" fill="#F77D00"></path>
                    <path d="M22.130475,25.001775 C22.31985,24.637275 22.84185,24.3789 23.56185,24.506025 C24.282225,24.632775 24.716475,25.115025 24.73785,25.461525 C24.6111,26.181525 24.0576,27.3489 23.091225,27.178275 C22.124475,27.008025 22.00335,25.721775 22.130475,25.001775" id="Fill-42" fill="#8D2204"></path>
                    <path d="M27.5478375,23.1842625 C27.4859625,23.5341375 27.7195875,23.8675125 28.0694625,23.9293875 C28.4193375,23.9908875 28.7527125,23.7572625 28.8145875,23.4077625 C28.8760875,23.0578875 28.6987125,22.4057625 28.3492125,22.3442625 C27.9989625,22.2823875 27.6093375,22.8343875 27.5478375,23.1842625" id="Fill-44" fill="#8D2204"></path>
                    <path d="M19.0019625,21.677325 C18.9404625,22.027575 19.1740875,22.36095 19.5239625,22.42245 C19.8734625,22.484325 20.2072125,22.2507 20.2687125,21.900825 C20.3305875,21.55095 20.1528375,20.898825 19.8033375,20.837325 C19.4534625,20.77545 19.0638375,21.32745 19.0019625,21.677325" id="Fill-46" fill="#8D2204"></path>
                    <path d="M14.7711,18.82125 C14.7711,18.82125 16.240725,18.318375 18.9921,18.8415 C21.743475,19.363875 22.458975,20.176875 22.458975,20.176875 L22.106475,22.17825 C21.93735,23.136 21.02085,23.777625 20.0631,23.608875 L15.848475,22.86525 C14.890725,22.6965 14.2491,21.780375 14.418225,20.822625 L14.7711,18.82125 Z M26.26335,20.84775 C26.26335,20.84775 27.018225,20.0895 30.17685,20.81325 C33.335475,21.537375 33.9516,22.20375 33.9516,22.20375 L33.5991,24.20475 C33.429975,25.1625 32.513475,25.80375 31.5561,25.635 L27.341475,24.89175 C26.383725,24.723 25.7421,23.806875 25.91085,22.849125 L26.26335,20.84775 Z M14.080725,17.83575 L13.5801,20.674875 C13.329975,22.094625 14.280975,23.45325 15.700725,23.703375 L19.915725,24.44625 C21.335475,24.69675 22.693725,23.74575 22.944225,22.326 L23.121975,21.31725 L25.25085,21.692625 L25.0731,22.701375 C24.8226,24.121125 25.773975,25.479375 27.193725,25.729875 L31.407975,26.47275 C32.827725,26.72325 34.18635,25.771875 34.436475,24.3525 L34.9371,21.513375 C34.9371,21.513375 33.294225,20.61975 30.41685,19.992 C27.539475,19.363875 25.573725,19.86225 25.573725,19.86225 L25.3986,20.854875 L23.269725,20.4795 L23.44485,19.486875 C23.44485,19.486875 22.849725,18.652125 19.3986,17.921625 C15.94785,17.190375 14.080725,17.83575 14.080725,17.83575 L14.080725,17.83575 Z" id="Fill-48" fill="#501B29"></path>
                    <polygon id="Fill-50" fill="#18AA68" points="2.906775 29.5069125 41.304525 34.5780375 38.4069 56.3126625 0.14565 48.8524125"></polygon>
                    <polygon id="Stroke-52" stroke="#035847" stroke-width="0.5" points="4.8520875 31.8924 38.6868375 36.511275 36.4615875 53.202525 2.6264625 46.914525"></polygon>
                    <polygon id="Fill-54" fill="#035847" points="17.318475 40.1288625 15.980475 41.1046125 15.290475 40.0891125 17.8191 38.2729875 19.09785 38.4856125 17.952975 45.3649875 16.487475 45.1212375"></polygon>
                    <path d="M22.468125,40.276425 C21.478125,40.111425 20.9445,41.029425 20.733,42.297675 C20.521875,43.5663 20.7285,44.61855 21.718125,44.783925 C22.698375,44.9463 23.233875,44.018175 23.445,42.749175 C23.656125,41.48055 23.448375,40.439175 22.468125,40.276425 M22.684125,38.9763 C24.644625,39.3018 25.236375,41.22405 24.94125,42.99855 C24.646125,44.771925 23.461875,46.409175 21.502125,46.08255 C19.531875,45.7548 18.952125,43.824675 19.24725,42.05055 C19.542375,40.276425 20.71425,38.64855 22.684125,38.9763" id="Fill-56" fill="#035847"></path>
                    <path d="M33.3435,45.1620375 C33.382875,44.9220375 33.175125,44.7742875 32.88,44.6325375 L32.72925,45.5381625 C33.106125,45.5475375 33.307875,45.3746625 33.3435,45.1620375 M32.56725,43.4362875 L32.703375,42.6142875 C32.3685,42.5917875 32.164875,42.7312875 32.12625,42.9641625 C32.0925,43.1651625 32.281875,43.3095375 32.56725,43.4362875 M32.655375,46.3436625 L32.557125,46.9324125 L31.942125,46.8304125 L32.038875,46.2480375 C31.36875,46.0766625 30.92025,45.7357875 30.624,45.3210375 L31.23825,44.7045375 C31.44225,44.9981625 31.755,45.2764125 32.175375,45.4264125 L32.344875,44.4101625 C31.7055,44.1375375 31.023375,43.7580375 31.1685,42.8846625 C31.278375,42.2242875 31.896,41.7555375 32.7765,41.8155375 L32.876625,41.2136625 L33.492,41.3156625 L33.389625,41.9310375 C33.904875,42.0694125 34.31025,42.3495375 34.6065,42.7252875 L33.984,43.3125375 C33.792375,43.0616625 33.531,42.8786625 33.251625,42.7590375 L33.10125,43.6646625 C33.744375,43.9515375 34.446,44.3344125 34.299375,45.2145375 C34.18125,45.9259125 33.62175,46.4044125 32.655375,46.3436625" id="Fill-58" fill="#035847"></path>
                    <path d="M8.9633625,41.4168 C9.0008625,41.189925 8.8039875,41.05005 8.5242375,40.91505 L8.3813625,41.773425 C8.7387375,41.782425 8.9296125,41.618925 8.9633625,41.4168 M8.2272375,39.782175 L8.3569875,39.0033 C8.0393625,38.9823 7.8466125,39.113925 7.8102375,39.334425 C7.7783625,39.524925 7.9576125,39.6618 8.2272375,39.782175 M8.3104875,42.536925 L8.2178625,43.09455 L7.6354875,42.9978 L7.7277375,42.446175 C7.0924875,42.284175 6.6676125,41.960925 6.3863625,41.56755 L6.9691125,40.984425 C7.1618625,41.26155 7.4581125,41.525175 7.8567375,41.667675 L8.0172375,40.70505 C7.4108625,40.4463 6.7654875,40.08705 6.9027375,39.25905 C7.0069875,38.6343 7.5912375,38.189925 8.4259875,38.24655 L8.5208625,37.676175 L9.1036125,37.773675 L9.0064875,38.355675 C9.4947375,38.4873 9.8783625,38.7528 10.1603625,39.108675 L9.5697375,39.66555 C9.3893625,39.42705 9.1403625,39.253425 8.8763625,39.1398 L8.7331125,39.998925 C9.3436125,40.27005 10.0069875,40.632675 9.8686125,41.46705 C9.7561125,42.1413 9.2269875,42.59505 8.3104875,42.536925" id="Fill-60" fill="#035847"></path>
                    <path d="M27.821775,42.1001625 C27.821775,46.3987875 24.3369,49.8836625 20.038275,49.8836625 C15.73965,49.8836625 12.254775,46.3987875 12.254775,42.1001625 C12.254775,37.8015375 15.73965,34.3166625 20.038275,34.3166625 C24.3369,34.3166625 27.821775,37.8015375 27.821775,42.1001625 Z" id="Stroke-62" stroke="#035847" stroke-width="0.5"></path>
                    <path d="M2.906775,29.5069125 C3.150525,31.1479125 5.64615,31.8157875 7.05015,30.0540375 C6.754275,27.7481625 2.906775,29.5069125 2.906775,29.5069125" id="Fill-64" fill="#F77D00"></path>
                    <path d="M36.2614875,33.9120375 C35.7882375,36.9615375 40.3951125,36.8869125 41.3044875,34.5780375 C39.7662375,32.2695375 36.2614875,33.9120375 36.2614875,33.9120375" id="Fill-66" fill="#F77D00"></path>
                </g>
            </g>
        </g>
    </g>
</svg>