<?xml version="1.0" encoding="UTF-8"?>
<svg width="149px" height="179px" viewBox="0 0 149 179" version="1.1" xmlns="http://www.w3.org/2000/svg" xmlns:xlink="http://www.w3.org/1999/xlink">
    <!-- Generator: Sketch 57.1 (83088) - https://sketch.com -->
    <title>10bonus_main-illustration_mobile</title>
    <desc>Created with Sketch.</desc>
    <defs>
        <path d="M56.21271,1.47555379 L2.81163,31.8570856 C1.34895,32.6893462 0.56355,33.7432414 0.48807,34.7589411 L0.48807,34.7589411 C0.4182,35.6982497 0.95625,36.604891 2.12874,37.2713026 L2.12874,37.2713026 L56.89611,68.4308171 C59.33544,69.8189233 63.59649,69.6450331 66.41322,68.0423283 L66.41322,68.0423283 L119.81379,37.6607965 C121.27647,36.8285359 122.06238,35.7741382 122.13735,34.7589411 L122.13735,34.7589411 C122.20722,33.8191299 121.66866,32.9129911 120.49668,32.246077 L120.49668,32.246077 L65.72931,1.087065 C64.62414,0.458346408 63.14463,0.149766699 61.59576,0.149766699 L61.59576,0.149766699 C59.72559,0.149766699 57.75342,0.599066796 56.21271,1.47555379" id="path-1"></path>
        <linearGradient x1="-0.000103372128%" y1="50.0000991%" x2="100.00005%" y2="50.0000991%" id="linearGradient-3">
            <stop stop-color="#2AB3FF" offset="0%"></stop>
            <stop stop-color="#3DD68C" offset="100%"></stop>
        </linearGradient>
        <path d="M55.81491,1.46198432 L2.41434,31.8435162 C0.95115,32.6762793 0.16626,33.7301745 0.09027,34.7453716 L0.09027,34.7453716 C0.0204,35.6851828 0.55896,36.5913216 1.73094,37.2582357 L1.73094,37.2582357 L56.49831,68.4177502 C58.93764,69.8058564 63.19869,69.6319662 66.01491,68.0287589 L66.01491,68.0287589 L119.41548,37.647227 C120.87867,36.8149665 121.66407,35.7610713 121.73955,34.7453716 L121.73955,34.7453716 C121.74312,34.6946117 121.74567,34.6438519 121.74567,34.5935946 L121.74567,34.5935946 L121.74567,34.5815329 C121.74567,33.7015279 121.20252,32.8612261 120.09888,32.2330101 L120.09888,32.2330101 L65.331,1.07349553 C64.22634,0.444776942 62.74785,0.136699806 61.19847,0.136699806 L61.19847,0.136699806 C59.3283,0.136699806 57.35562,0.585999903 55.81491,1.46198432" id="path-4"></path>
        <path d="M27.86538,0.799090777 L1.16484,15.9903593 C0.4335,16.4064896 0.0408,16.9336884 0.00255,17.441287 L0.00255,17.441287 C0.00102,17.4613899 0,17.4819954 0,17.5020983 L0,17.5020983 L0,17.5402938 C0.00765,17.9740142 0.27846,18.3876316 0.82365,18.6972165 L0.82365,18.6972165 L28.20708,34.2774763 C29.427,34.9710268 31.55727,34.8840817 32.96538,34.0829806 L32.96538,34.0829806 L59.66592,18.8917121 C60.39726,18.4755818 60.78996,17.9488855 60.8277,17.441287 L60.8277,17.441287 C60.86238,16.9713814 60.59361,16.5185633 60.00711,16.184855 L60.00711,16.184855 L32.62317,0.604595097 C32.07084,0.290487087 31.33134,0.136699806 30.55716,0.136699806 L30.55716,0.136699806 C29.62182,0.136699806 28.63548,0.360847282 27.86538,0.799090777" id="path-6"></path>
        <polygon id="path-8" points="0 0.0455225806 80.795671 0.0455225806 80.795671 25.7418149 0 25.7418149"></polygon>
        <path d="M40.5117097,0.43083871 C39.2923548,0.443032258 38.0147419,0.74516129 37.0128387,1.32435484 L37.0128387,1.32435484 L1.54722581,21.8000323 C0.575806452,22.3609355 0.0541935484,23.0715484 0.00338709677,23.7564194 L0.00338709677,23.7564194 C0.00135483871,23.7835161 0,23.8112903 0,23.8383871 L0,23.8383871 L0,23.8891935 C0.0101612903,24.4744839 0.369870968,25.0313226 1.09403226,25.4492903 L1.09403226,25.4492903 L37.4667097,46.4492903 C39.0870968,47.384129 41.9166774,47.2669355 43.7870323,46.187129 L43.7870323,46.187129 L79.2526452,25.7114516 C80.2240645,25.1505484 80.7456774,24.4399355 80.7958065,23.7557419 L80.7958065,23.7557419 C80.841871,23.1223548 80.484871,22.512 79.7058387,22.0621935 L79.7058387,22.0621935 L43.3324839,1.06219355 C42.617129,0.648967742 41.6653548,0.441 40.6648065,0.43083871 L40.6648065,0.43083871 L40.5117097,0.43083871 Z" id="path-10"></path>
        <linearGradient x1="-8.38392871e-07%" y1="50.000259%" x2="100.000129%" y2="50.000259%" id="linearGradient-12">
            <stop stop-color="#461CAF" offset="0%"></stop>
            <stop stop-color="#CC64FF" offset="100%"></stop>
        </linearGradient>
        <polygon id="path-13" points="0 0.0455225806 80.795671 0.0455225806 80.795671 25.7418149 0 25.7418149"></polygon>
        <path d="M40.5117097,0.43083871 C39.2923548,0.443032258 38.0147419,0.74516129 37.0128387,1.32435484 L37.0128387,1.32435484 L1.54722581,21.8000323 C0.575806452,22.3609355 0.0541935484,23.0715484 0.00338709677,23.7564194 L0.00338709677,23.7564194 C0.00135483871,23.7835161 0,23.8112903 0,23.8383871 L0,23.8383871 L0,23.8891935 C0.0101612903,24.4744839 0.369870968,25.0313226 1.09403226,25.4492903 L1.09403226,25.4492903 L37.4667097,46.4492903 C39.0870968,47.384129 41.9166774,47.2669355 43.7870323,46.187129 L43.7870323,46.187129 L79.2526452,25.7114516 C80.2240645,25.1505484 80.7456774,24.4399355 80.7958065,23.7557419 L80.7958065,23.7557419 C80.841871,23.1223548 80.484871,22.512 79.7058387,22.0621935 L79.7058387,22.0621935 L43.3324839,1.06219355 C42.617129,0.648967742 41.6653548,0.441 40.6648065,0.43083871 L40.6648065,0.43083871 L40.5117097,0.43083871 Z" id="path-15"></path>
    </defs>
    <g id="Mobile" stroke="none" stroke-width="1" fill="none" fill-rule="evenodd">
        <g id="10bonus_main-illustration_mobile" transform="translate(-37.000000, 0.000000)">
            <path d="M37.717815,89.5391769 C37.647945,90.4784855 38.185995,91.3851269 39.358485,92.052041 L94.126365,123.211556 C96.565185,124.599662 100.826235,124.425269 103.642965,122.823067 L157.043535,92.4410324 C158.506215,91.6087718 159.292125,90.5548766 159.367605,89.5391769 L159.367605,88.0314585 L37.717815,88.0314585 L37.717815,90.5443226" id="Fill-1" fill="#1A0960"></path>
            <g id="Group-5" transform="translate(37.230000, 53.272718)">
                <mask id="mask-2" fill="white">
                    <use xlink:href="#path-1"></use>
                </mask>
                <g id="Clip-4"></g>
                <path d="M56.21271,0.675553786 L2.81163,31.0570856 C1.34895,31.8893462 0.56355,32.9432414 0.48807,33.9589411 L0.48807,33.9589411 C0.4182,34.8982497 0.95625,35.804891 2.12874,36.4713026 L2.12874,36.4713026 L56.89611,67.6308171 C59.33544,69.0189233 63.59649,68.8450331 66.41322,67.2423283 L66.41322,67.2423283 L119.81379,36.8607965 C121.27647,36.0285359 122.06238,34.9741382 122.13735,33.9589411 L122.13735,33.9589411 C122.20722,33.0191299 121.66866,32.1129911 120.49668,31.446077 L120.49668,31.446077 L65.72931,0.287065 C64.62414,-0.341653592 63.14463,-0.650233301 61.59576,-0.650233301 L61.59576,-0.650233301 C59.72559,-0.650233301 57.75342,-0.200933204 56.21271,0.675553786" id="Fill-3" fill="url(#linearGradient-3)" mask="url(#mask-2)"></path>
            </g>
            <g id="Group-11" transform="translate(106.590000, 92.473398)">
                <mask id="mask-5" fill="white">
                    <use xlink:href="#path-4"></use>
                </mask>
                <g id="Clip-10"></g>
            </g>
            <g id="Group-17" transform="translate(0.000000, 91.468252)">
                <mask id="mask-7" fill="white">
                    <use xlink:href="#path-6"></use>
                </mask>
                <g id="Clip-16"></g>
            </g>
            <g id="Group-68" transform="translate(54.060000, 0.000000)">
                <path d="M3.572244,44.5869032 C3.572244,44.5869032 -1.242666,38.5660809 3.572244,36.4467314 C8.387154,34.3273818 9.588204,40.2783465 9.588204,40.2783465 L3.953214,39.5450928 L3.572244,44.5869032 Z" id="Fill-18" fill="#F77D00"></path>
                <path d="M43.560681,100.350423 C56.023551,100.350423 76.145601,79.6600026 50.328381,74.2025644 C15.100131,66.7549378 26.248731,89.7184949 26.248731,89.7184949 C26.248731,89.7184949 38.748831,93.4581392 43.560681,100.350423" id="Fill-20" fill="#4C6370"></path>
                <path d="M64.998123,14.7157341 C64.998123,14.7157341 66.169593,10.712239 62.614893,8.78185686 C59.059683,6.85197725 55.867593,9.42565264 55.867593,9.42565264 L64.998123,14.7157341 Z" id="Fill-22" fill="#FFBF2E"></path>
                <path d="M44.612046,88.3092807 C44.612046,88.3092807 48.528846,92.2770931 62.364636,81.0631859 C74.283336,71.4027312 78.483696,51.995882 62.768046,36.5091006 C40.995636,15.0537646 67.217796,4.23085899 64.998276,14.7155331 C67.622226,4.37258452 47.851566,-1.27080562 39.555906,0.507799573 C29.113656,2.74676147 18.968226,19.80157 31.280646,40.0894294 C43.593066,60.3772888 53.089776,87.3146891 44.612046,88.3092807" id="Fill-24" fill="#E15900"></path>
                <path d="M25.829205,61.729863 C26.191815,51.8522969 23.760135,40.488623 27.582075,38.4562185 C31.404015,36.423814 39.204465,37.2259202 39.204465,37.2259202 C39.204465,37.2259202 55.468365,64.1095453 55.741215,75.8189893 C42.143085,73.4493585 25.829205,61.729863 25.829205,61.729863" id="Fill-26" fill="#F77D00"></path>
                <path d="M49.315623,45.4487151 C49.315623,45.4487151 49.910793,41.0592441 55.741623,41.6748958 C61.572453,42.2910501 59.794083,53.1838133 54.996003,55.0498662 C52.614303,48.9325499 49.315623,45.4487151 49.315623,45.4487151" id="Fill-28" fill="#F77D00"></path>
                <path d="M19.300287,74.8939035 C20.714007,66.3240319 26.424477,61.4711888 27.635727,51.5257753 C27.635727,51.5257753 40.553517,76.5875739 38.534937,81.7590482 C36.516357,86.9305225 29.047917,84.1457665 27.231807,85.3393769 C25.415187,86.5324848 26.248527,89.7182939 26.248527,89.7182939 C23.819907,92.311067 18.827517,91.6461632 17.478567,91.1144412 C17.006307,90.2505185 17.613717,87.1260233 20.176977,86.3947799 C20.311617,83.5477049 17.950827,83.0707633 19.300287,74.8939035" id="Fill-30" fill="#F77D00"></path>
                <path d="M34.794546,71.7179952 C34.794546,85.6427802 37.121676,86.3338178 38.736336,87.9249633 C29.183016,88.0576425 22.138386,83.1439881 24.203886,70.4218599 C26.345886,57.2318363 28.001856,54.9963924 27.581616,49.8017998 C27.162396,44.6077098 34.514046,45.7319652 36.039966,51.5256246 C37.566396,57.3197866 34.794546,66.9777284 34.794546,71.7179952" id="Fill-32" fill="#FFBF2E"></path>
                <path d="M33.004089,74.5660753 C32.167179,87.9038552 45.038049,90.8494345 45.441969,94.8272984 C42.188679,96.3455708 43.094949,99.935951 43.560579,100.350574 C47.556939,100.939589 51.106539,99.4107624 53.006799,97.1788366 C52.953759,96.8516617 52.164789,93.1477 52.331049,92.5637104 C53.491809,88.474778 59.060499,80.6195649 53.798829,69.9941704 C47.573259,57.4223114 33.811929,61.6861392 33.004089,74.5660753" id="Fill-34" fill="#F77D00"></path>
                <path d="M45.556362,22.245481 L23.025072,18.3304388 L19.896732,35.8149471 C19.430082,38.4212897 21.195702,40.9060097 23.840562,41.3653612 L36.795582,43.6163849 C39.439932,44.0757364 41.961372,42.3363319 42.428022,39.7299893 L45.556362,22.245481 Z" id="Fill-36" fill="#F77D00"></path>
                <path d="M44.504487,28.1247286 L46.550097,16.6947151 C40.917147,15.7157032 39.590127,21.2083215 39.590127,21.2083215 C39.590127,21.2083215 38.871537,27.1462193 44.504487,28.1247286" id="Fill-38" fill="#F77D00"></path>
                <path d="M21.973299,24.2101387 L24.018399,12.7796226 C29.651349,13.7581319 28.991919,19.3668445 28.991919,19.3668445 C28.991919,19.3668445 27.606249,25.188648 21.973299,24.2101387" id="Fill-40" fill="#F77D00"></path>
                <path d="M30.097446,33.5072332 C30.354996,33.0187324 31.064916,32.6724598 32.044116,32.842832 C33.023826,33.0127016 33.614406,33.6590102 33.643476,34.1233875 C33.471096,35.0883273 32.718336,36.6528365 31.404066,36.4241658 C30.089286,36.1959978 29.924556,34.472173 30.097446,33.5072332" id="Fill-42" fill="#8D2204"></path>
                <path d="M37.465059,31.0714135 C37.380909,31.540314 37.698639,31.9871012 38.174469,32.0700257 C38.650299,32.1524477 39.103689,31.8393448 39.187839,31.3709469 C39.271479,30.9020465 39.030249,30.0280724 38.554929,29.9456504 C38.078589,29.8627259 37.548699,30.6025131 37.465059,31.0714135" id="Fill-44" fill="#8D2204"></path>
                <path d="M25.842669,29.0518247 C25.759029,29.5212277 26.076759,29.9680149 26.552589,30.0504369 C27.027909,30.1333614 27.481809,29.8202585 27.565449,29.3513581 C27.649599,28.8824577 27.407859,28.0084835 26.932539,27.9260616 C26.456709,27.8431371 25.926819,28.5829243 25.842669,29.0518247" id="Fill-46" fill="#8D2204"></path>
                <path d="M20.088696,25.2241296 C20.088696,25.2241296 22.087386,24.5501795 25.829256,25.2512685 C29.571126,25.9513525 30.544206,27.0409303 30.544206,27.0409303 L30.064806,29.7231615 C29.834796,31.0067324 28.588356,31.8666345 27.285816,31.6404767 L21.553926,30.6438749 C20.251386,30.4177171 19.378776,29.1899317 19.608786,27.9063607 L20.088696,25.2241296 Z M35.718156,27.9400331 C35.718156,27.9400331 36.744786,26.9238309 41.040516,27.8937964 C45.336246,28.8642645 46.174176,29.7573364 46.174176,29.7573364 L45.694776,32.439065 C45.464766,33.7226359 44.218326,34.5820354 42.916296,34.3558777 L37.184406,33.3597783 C35.881866,33.1336206 35.009256,31.9058352 35.238756,30.6222642 L35.718156,27.9400331 Z M19.149786,23.9033683 L18.468936,27.708347 C18.128766,29.6110877 19.422126,31.431909 21.352986,31.7671251 L27.085386,32.7627218 C29.016246,33.0984405 30.863466,31.8239158 31.204146,29.9211751 L31.445886,28.5692543 L34.341156,29.0723297 L34.099416,30.4242505 C33.758736,32.3269912 35.052606,34.14731 36.983466,34.4830286 L42.714846,35.4786253 C44.645706,35.814344 46.493436,34.5393167 46.833606,32.6370786 L47.514456,28.8320999 C47.514456,28.8320999 45.280146,27.6344688 41.366916,26.7931619 C37.453686,25.9513525 34.780266,26.6192717 34.780266,26.6192717 L34.542096,27.949582 L31.646826,27.4465066 L31.884996,26.1161964 C31.884996,26.1161964 31.075626,24.9974693 26.382096,24.0184574 C21.689076,23.0384404 19.149786,23.9033683 19.149786,23.9033683 L19.149786,23.9033683 Z" id="Fill-48" fill="#501B29"></path>
                <polygon id="Fill-50" fill="#18AA68" points="3.953214 39.5449922 56.174154 46.3412844 52.233384 75.4699022 0.198084 65.4717187"></polygon>
                <polygon id="Stroke-52" stroke="#035847" stroke-width="0.51" points="6.598839 42.7420087 52.614099 48.9321981 49.587759 71.3017141 3.571989 62.8745731"></polygon>
                <polygon id="Fill-54" fill="#035847" points="23.553126 53.7804678 21.733446 55.0881622 20.795046 53.727195 24.233976 51.2932349 25.973076 51.5781937 24.416046 60.797892 22.422966 60.4712197"></polygon>
                <path d="M30.55665,53.9782302 C29.21025,53.7570981 28.48452,54.9873964 28.19688,56.6870976 C27.90975,58.3873015 28.19076,59.7975208 29.53665,60.0191554 C30.86979,60.2367694 31.59807,58.9929017 31.8852,57.2921953 C32.17233,55.5919915 31.88979,54.1963468 30.55665,53.9782302 M30.85041,52.2358102 C33.51669,52.6720434 34.32147,55.2482317 33.9201,57.6264062 C33.51873,60.0030731 31.90815,62.197306 29.24289,61.7595651 C26.56335,61.3203164 25.77489,58.7335741 26.17626,56.3559022 C26.57763,53.9782302 28.17138,51.7965616 30.85041,52.2358102" id="Fill-56" fill="#035847"></path>
                <path d="M45.34716,60.5258996 C45.40071,60.204253 45.11817,60.0062393 44.7168,59.8162668 L44.51178,61.0299801 C45.02433,61.0425444 45.29871,60.8108584 45.34716,60.5258996 M44.29146,58.2130595 L44.47659,57.1114199 C44.02116,57.0812655 43.74423,57.2682226 43.6917,57.5803203 C43.6458,57.8496993 43.90335,58.0431899 44.29146,58.2130595 M44.41131,62.1095065 L44.27769,62.8985458 L43.44129,62.761846 L43.57287,61.9813505 C42.6615,61.7516747 42.05154,61.294836 41.64864,60.7389905 L42.48402,59.9127607 C42.76146,60.3062753 43.1868,60.6791843 43.75851,60.8802134 L43.98903,59.5182411 C43.11948,59.1528706 42.19179,58.644267 42.38916,57.4737749 C42.53859,56.5887441 43.37856,55.9605281 44.57604,56.0409398 L44.71221,55.2343104 L45.54912,55.3710102 L45.40989,56.1957322 C46.11063,56.3811816 46.66194,56.7566035 47.06484,57.2601814 L46.21824,58.0472105 C45.95763,57.7109892 45.60216,57.4657337 45.22221,57.305413 L45.0177,58.5191263 C45.89235,58.9035945 46.84656,59.4167214 46.64715,60.5962598 C46.4865,61.5496404 45.72558,62.1909233 44.41131,62.1095065" id="Fill-58" fill="#035847"></path>
                <path d="M12.190173,55.5065541 C12.241173,55.2024975 11.973423,55.0150379 11.592963,54.8341117 L11.398653,55.9845008 C11.884683,55.9965626 12.144273,55.7774408 12.190173,55.5065541 M11.189043,53.3158392 L11.365503,52.2719955 C10.933533,52.2438514 10.671393,52.4202544 10.621923,52.7157673 C10.578573,52.9710742 10.822353,53.1545133 11.189043,53.3158392 M11.302263,57.0077391 L11.176293,57.7550649 L10.384263,57.6254011 L10.509723,56.8861165 C9.645783,56.669005 9.067953,56.2357873 8.685453,55.7085884 L9.477993,54.9270876 C9.740133,55.298489 10.143033,55.6517976 10.685163,55.8427753 L10.903443,54.5526709 C10.078773,54.2058957 9.201063,53.7244309 9.387723,52.6147501 C9.529503,51.7774638 10.324083,51.181915 11.459343,51.2578035 L11.588373,50.4933903 L12.380913,50.6240592 L12.248823,51.4040522 C12.912843,51.5804553 13.434573,51.9362768 13.818093,52.4132184 L13.014843,53.159539 C12.769533,52.8399027 12.430893,52.6072115 12.071853,52.454932 L11.877033,53.6063263 C12.707313,53.9696864 13.609503,54.4556743 13.421313,55.5738989 C13.268313,56.4775248 12.548703,57.0856379 11.302263,57.0077391" id="Fill-60" fill="#035847"></path>
                <path d="M37.837614,56.4223925 C37.837614,62.1833847 33.098184,66.8537939 27.252054,66.8537939 C21.405924,66.8537939 16.666494,62.1833847 16.666494,56.4223925 C16.666494,50.6614004 21.405924,45.9909912 27.252054,45.9909912 C33.098184,45.9909912 37.837614,50.6614004 37.837614,56.4223925 Z" id="Stroke-62" stroke="#035847" stroke-width="0.51"></path>
                <path d="M3.953214,39.5449922 C4.284714,41.7442509 7.678764,42.6393331 9.588204,40.278246 C9.185814,37.1879257 3.953214,39.5449922 3.953214,39.5449922" id="Fill-64" fill="#F77D00"></path>
                <path d="M49.315623,45.4487151 C48.672003,49.5356372 54.937353,49.4356253 56.174103,46.3412844 C54.082083,43.2474462 49.315623,45.4487151 49.315623,45.4487151" id="Fill-66" fill="#F77D00"></path>
            </g>
            <g id="extra" transform="translate(104.800000, 101.600000)">
                <g id="Group-7">
                    <g id="Group-3" transform="translate(0.000000, 23.956258)">
                        <mask id="mask-9" fill="white">
                            <use xlink:href="#path-8"></use>
                        </mask>
                        <g id="Clip-2"></g>
                        <path d="M0.00392903226,2.41716774 C-0.0421354839,3.05055484 0.314864516,3.66090968 1.09321935,4.11071613 L37.4665742,25.1107161 C39.0869613,26.0455548 41.9165419,25.9283613 43.7868968,24.8485548 L79.2525097,4.37287742 C80.223929,3.81197419 80.7455419,3.10136129 80.795671,2.41649032 L80.795671,0.0455225806 L0.00392903226,0.0462 L0.00392903226,3.0945871" id="Fill-1" fill="#1A0960" mask="url(#mask-9)"></path>
                    </g>
                    <g id="Group-6" transform="translate(0.000000, 0.246581)">
                        <mask id="mask-11" fill="white">
                            <use xlink:href="#path-10"></use>
                        </mask>
                        <g id="Clip-5"></g>
                        <path d="M40.5117097,0.43083871 C39.2923548,0.443032258 38.0147419,0.74516129 37.0128387,1.32435484 L37.0128387,1.32435484 L1.54722581,21.8000323 C0.575806452,22.3609355 0.0541935484,23.0715484 0.00338709677,23.7564194 L0.00338709677,23.7564194 C0.00135483871,23.7835161 0,23.8112903 0,23.8383871 L0,23.8383871 L0,23.8891935 C0.0101612903,24.4744839 0.369870968,25.0313226 1.09403226,25.4492903 L1.09403226,25.4492903 L37.4667097,46.4492903 C39.0870968,47.384129 41.9166774,47.2669355 43.7870323,46.187129 L43.7870323,46.187129 L79.2526452,25.7114516 C80.2240645,25.1505484 80.7456774,24.4399355 80.7958065,23.7557419 L80.7958065,23.7557419 C80.841871,23.1223548 80.484871,22.512 79.7058387,22.0621935 L79.7058387,22.0621935 L43.3324839,1.06219355 C42.617129,0.648967742 41.6653548,0.441 40.6648065,0.43083871 L40.6648065,0.43083871 L40.5117097,0.43083871 Z" id="Fill-4" fill="url(#linearGradient-12)" mask="url(#mask-11)"></path>
                    </g>
                </g>
            </g>
            <g id="extra-copy" transform="translate(58.400000, 128.800000)">
                <g id="Group-7">
                    <g id="Group-3" transform="translate(0.000000, 23.956258)">
                        <mask id="mask-14" fill="white">
                            <use xlink:href="#path-13"></use>
                        </mask>
                        <g id="Clip-2"></g>
                        <path d="M0.00392903226,2.41716774 C-0.0421354839,3.05055484 0.314864516,3.66090968 1.09321935,4.11071613 L37.4665742,25.1107161 C39.0869613,26.0455548 41.9165419,25.9283613 43.7868968,24.8485548 L79.2525097,4.37287742 C80.223929,3.81197419 80.7455419,3.10136129 80.795671,2.41649032 L80.795671,0.0455225806 L0.00392903226,0.0462 L0.00392903226,3.0945871" id="Fill-1" fill="#1A0960" mask="url(#mask-14)"></path>
                    </g>
                    <g id="Group-6" transform="translate(0.000000, 0.246581)">
                        <mask id="mask-16" fill="white">
                            <use xlink:href="#path-15"></use>
                        </mask>
                        <g id="Clip-5"></g>
                        <path d="M40.5117097,0.43083871 C39.2923548,0.443032258 38.0147419,0.74516129 37.0128387,1.32435484 L37.0128387,1.32435484 L1.54722581,21.8000323 C0.575806452,22.3609355 0.0541935484,23.0715484 0.00338709677,23.7564194 L0.00338709677,23.7564194 C0.00135483871,23.7835161 0,23.8112903 0,23.8383871 L0,23.8383871 L0,23.8891935 C0.0101612903,24.4744839 0.369870968,25.0313226 1.09403226,25.4492903 L1.09403226,25.4492903 L37.4667097,46.4492903 C39.0870968,47.384129 41.9166774,47.2669355 43.7870323,46.187129 L43.7870323,46.187129 L79.2526452,25.7114516 C80.2240645,25.1505484 80.7456774,24.4399355 80.7958065,23.7557419 L80.7958065,23.7557419 C80.841871,23.1223548 80.484871,22.512 79.7058387,22.0621935 L79.7058387,22.0621935 L43.3324839,1.06219355 C42.617129,0.648967742 41.6653548,0.441 40.6648065,0.43083871 L40.6648065,0.43083871 L40.5117097,0.43083871 Z" id="Fill-4" fill="url(#linearGradient-12)" mask="url(#mask-16)"></path>
                    </g>
                </g>
            </g>
        </g>
    </g>
</svg>