<svg xmlns="http://www.w3.org/2000/svg" viewBox="0 0 415 415"><defs><style>.cls-1{fill:#2b0e87;}.cls-2{fill:#1a0960;}.cls-3{fill:#471caf;}.cls-4{fill:#5d3acc;}.cls-11,.cls-5{fill:#fff;}.cls-19,.cls-5{stroke:#471caf;}.cls-19,.cls-5,.cls-6{stroke-miterlimit:10;}.cls-19,.cls-6{fill:none;}.cls-6{stroke:#a0b3c1;stroke-dasharray:8;}.cls-7{fill:#dee4eb;}.cls-8{fill:#f4d03e;}.cls-9{fill:#ebeff2;}.cls-10{fill:#3c1ba5;}.cls-12{fill:#a02ff7;}.cls-13{fill:#ca4d5d;}.cls-14{fill:#55c9b3;}.cls-15{fill:#dd7c12;}.cls-16{fill:#f2bf40;}.cls-17{fill:#c6590e;}.cls-18{fill:#7a270e;}.cls-20{fill:#47212d;}</style></defs><title>social-science</title><g id="social_science"><polygon class="cls-1" points="276.25 11.68 311.79 99.83 239.19 49.85 276.25 11.68"/><path class="cls-2" d="M414,186.69a16,16,0,0,1-2.31.18,16.69,16.69,0,0,1-3.64-33,207.07,207.07,0,0,0-47.22-86.23,51.17,51.17,0,0,1-84.54-56A207,207,0,0,0,207.5,0c-20.09,0-49.31,40.61-77.83,55.36C63,89.87,2.28,141.84,0,207.5a208.53,208.53,0,0,0,1.36,23.71,15.6,15.6,0,0,1,2.38-.2,15.89,15.89,0,0,1,3.61,31.37C31.42,350.35,111.9,415,207.5,415c58.16,0,22.16-44.1,76.12-58.61C369,333.42,415,311.9,415,207.5,415,200.48,414.64,193.54,414,186.69Z"/><path class="cls-3" d="M414,186.69a16,16,0,0,1-2.31.18,16.69,16.69,0,0,1-3.64-33,207.07,207.07,0,0,0-47.22-86.23,51.17,51.17,0,0,1-84.54-56A207,207,0,0,0,207.5,0c-55.44,0-20.09,59.81-55.44,100.81C69.91,196.1,0,126.3,0,207.5a208.53,208.53,0,0,0,1.36,23.71,15.6,15.6,0,0,1,2.38-.2,15.89,15.89,0,0,1,3.61,31.37A207.69,207.69,0,0,0,79.28,370.63c21.76,4.61,44.41,9.14,67.45,7,97.83-8.93,139.2,31.69,182.52,13.19,32.1-13.7-1.57-73,83.37-151.79A209.15,209.15,0,0,0,415,207.5C415,200.48,414.64,193.54,414,186.69Z"/><path class="cls-4" d="M132.1,216.51C66,216.51,37.3,185,37.3,251.14a119.3,119.3,0,0,0,12,52.22,42.62,42.62,0,0,1,6.53-.5,43.07,43.07,0,0,1,42,52.39,119.2,119.2,0,0,0,59.23,15.65c66.14,0,118.59-53.63,119.76-119.76C279.35,107.27,198.24,216.51,132.1,216.51Z"/><circle class="cls-5" cx="55.79" cy="352.06" r="36.15"/><path class="cls-6" d="M24.5,306.64s-39.65,42.26-4.86,78.58S154.82,405.34,206.83,210.3,346.71,23.94,371.19,44.82c30.4,25.93,17.73,55,17.73,55"/><circle class="cls-7" cx="39.31" cy="266.04" r="5.26"/><circle class="cls-8" cx="190.47" cy="311.9" r="5.26"/><circle class="cls-9" cx="382.61" cy="272.41" r="5.26"/><circle class="cls-3" cx="155.06" cy="390.85" r="5.26"/><circle class="cls-10" cx="219.38" cy="138.89" r="1.75"/><circle class="cls-11" cx="233.44" cy="24.85" r="1.75"/><circle class="cls-3" cx="100.61" cy="286.68" r="1.75"/><polygon class="cls-3" points="342.73 338.43 2.28 141.84 343.83 348.33 402.6 303.86 342.73 338.43"/><polygon class="cls-12" points="343.83 348.33 342.73 338.43 2.28 141.84 343.83 348.33"/><path d="M334.3,189l10.95-23.88c-8.06-5.23-21.05-21.27-21.05-21.27C309,141.62,303.73,155.19,303.73,160s4.3,8.55,4.3,8.55l11.38,22.59,6.89,5.67Z"/><path class="cls-11" d="M319,204.41l-1.38-6.82-10.09-4.21-1.16-12.27-3.7-1.75,4.57-7,2-9.37c2.18,11.33,8.71,12.85,8.71,12.85l-.22,5.88,2.4.87s.43-4.57,2.17-6.31,5.23-.66,5.23,1.3-3.92,8.5-3.92,8.5v7.18L334.3,189l6.45,7.4Z"/><polygon class="cls-8" points="342.73 338.43 2.28 141.84 62.16 107.27 402.6 303.86 342.73 338.43"/><polygon class="cls-11" points="277.61 249.13 275.36 265.37 280.52 263.12 283.62 246.91 277.61 249.13"/><path d="M280.52,263.12s-5.41.94-4.33-3.76c-2.34,1.41-5.15,3.06-8.24,2.47s-5.05-6.08-12.49-6.08c-3.47,0-4.77,2.43-4.77,4.19,5.53,6.63,16.69,12.47,23.26,12.47s6.39-2.9,6.57-4.85A21,21,0,0,0,280.52,263.12Z"/><path d="M202,341.23c-4.56.13-11,3.06-17.48-2.71-4.2-3.71-3.81-9.08-12.21-6.57,0,0,0,6.9,7.15,15.43,4.68,5.58,13.93,10.91,20.63,13.17,3.57-2.13,8.57-15.05,8.57-15.05Z"/><path class="cls-11" d="M212.69,327.46,202,341.23s-.83,6,6.66,4.27c1.8-4.42,10.5-15.14,10.5-15.14Z"/><path d="M275.88,255.52l6.33,2.3c8.72-26.27,11.67-19.13,9.5-36.87,5.08,28.06.06,63,22.38,70.84s21.78-29.67,21.78-29.67-23.93-72.48-47.64-72.48C279.83,197.55,275.88,255.52,275.88,255.52Z"/><path class="cls-11" d="M89.42,65.57l24,22.3C128,68.72,138.5,55.36,138.5,55.36h12.89a3,3,0,0,1-.78,2.89,25.65,25.65,0,0,1,9.29,2.88c-2.53,7.46-4.22,8.87-4.22,8.87-6.36-5.68-14.9-6.9-14.9-6.9L115.91,99.83C101.83,93.36,82.25,81,82.25,81Z"/><path class="cls-13" d="M84.41,59.81l9.38,8.86-9.38,13S79.47,63.26,84.41,59.81Z"/><path class="cls-13" d="M84.41,59.81a116.52,116.52,0,0,0-51.71,22C24.87,121.54,46.12,156,46.12,156c10-22.05,34.39-26.38,34.39-26.38-6.5-14.27,3.85-24.29,8.13-35.51C91.9,85.56,83.87,78.76,84.41,59.81Z"/><path d="M78.9,24.85c5.94,7.16,4.84,24.79.53,33.22s1.89,13.07,4.71,11.38c-3,6.2-16.48,7.75-21.4,1s1-40.55,1-40.55Z"/><path class="cls-11" d="M75.16,24.85l3,25.18-2.43,1.09a55.31,55.31,0,0,0-1.31,8.35l-7,2.08-1.23,17.9L56.9,68.67l-2.13-32.5Z"/><path d="M78.9,24.85C76.1,42.56,68,44.89,59.84,48.16S82.25,81,60.78,90.09c.08-3.45-10.43-20-18-15.09,8.12-20.3-1.86-19.68-1.86-38.2S62.86,5.74,78.9,24.85Z"/><path d="M348.19,279.36c.75,13.89.38,21.39-15.58,28.9s-84.67-12.52-84.67-12.52c-6.38,16.15-20.79,24.29-33.18,45.69-10.26-.4-9.38-8.64-9.38-8.64,18.77-24,35.32-56.94,35.32-56.94,64.68.75,82.34-4,82.34-4Z"/><path class="cls-14" d="M303,213.66s24.77-20.27,44.19-21c23.55,26.51,3.26,71.32,3.26,81.46s3.26,11.76,3.26,11.76c-32.35,32.63-41.56,5-54.32-8.15C312.64,255.74,294.59,224.92,303,213.66Z"/><path d="M170.74,211.54h0c-3.45,2-5.19,1.39-5.19-3.2s1.52-6.25,1.52-9.41c0-4.08-2.6-7.06-2.6-11.74a12.91,12.91,0,0,1,6.27-10.87h0c3.45-2,6.27-.36,6.27,3.63v20.73A13.91,13.91,0,0,1,170.74,211.54Z"/><polygon class="cls-11" points="140.87 194.05 156.92 203.36 159.38 197.86 142 188.13 140.87 194.05"/><path d="M167.08,212.5l-11.68-7.39s-2-6.7,3.66-11.06,1.69-18.93,15.2-18.58C171.73,184.27,167.08,212.5,167.08,212.5Z"/><polygon points="148.74 199.6 152.06 191.44 70.76 129.85 53.11 162.63 148.74 199.6"/><path d="M106.85,182.12c-1.8,14.85,2.28,19,2.28,25.43,7.32,5.44,15.05,2.25,13.44-4.75-4.5-18-6.56-18.16-8.25-22.65S106.85,182.12,106.85,182.12Z"/><path class="cls-11" d="M103.18,161.68l4.69,26.1s3.38-4.89,7.69-1.51c-2.62-15.58-2.62-22.33-2.62-22.33Z"/><path d="M46.12,156c7.75,14.08,31.78,5.87,46.74-29,2.41,19.79,7.08,13.81,11.82,52.16,5.25,2.25,10.88-1.5,10.88-1.5,0-37.17-4.53-75.47-16.59-79.72C68.88,112.43,48.51,134.81,46.12,156Z"/><path class="cls-11" d="M35.05,97.25l11.68-5.64a180.59,180.59,0,0,0,10.91,26.45c14.44-2.31,39.08-27.77,39.08-27.77s10.21.58,12,1.68c4.63,6.77-.7,16.27-.7,16.27C104.36,99.7,99,97.92,99,97.92,76.6,112.66,65.66,131.2,50.56,131.2,40.92,116.8,35.05,97.25,35.05,97.25Z"/><path class="cls-11" d="M310.87,241.13l13-10.33s11.11,14.13,15.87,30.14c1.36,23.3-12.05,56.89-12.05,56.89l-9.61,7.28-6.2,8.19c-6.64,0-11.11-6.42-11.11-6.42l5.15-8.79,4.83-2.36s-3.44-1.72-3.44-3.61c2.75.86,11.71,1.2,13.94.86,9.18-28.36,3.24-50.93,3.24-50.93C314.15,243.29,310.87,241.13,310.87,241.13Z"/><path d="M197.28,255.84c16.72.32,26.46-4.3,30.62-7.05s8.78-4.09,11.29-7a209.42,209.42,0,0,0-25-13.2Z"/><path class="cls-15" d="M203.93,226.42c6.23,13.69,2.89,26.43-16,23.63a37.88,37.88,0,0,1-.51,8.39c-2.18,1-7.33.64-8.84-1.11.18-2.82,3.55-3.66,3.55-3.66-2.6-4.95-2.39-18.93,10-23C198.08,228.31,203.93,226.42,203.93,226.42Z"/><path class="cls-16" d="M249.27,225.52c-5.7-10.4-6.1-8.67-1.89-9.72s5.26-2.2,5.26-2.2S254.76,223.25,249.27,225.52Z"/><path class="cls-17" d="M191.49,235.93s-3.79,16,11.64,18.77c9.66,1.76,25.64-4.83,29.22-20.3,6-25.79,25.61-12.33,16.92-8.88,8.77-3.09,6.11-22.87-3.57-27.87-6.48-3.36-23.07-7.06-26.47,12.15C215.64,230.11,196.23,241.54,191.49,235.93Z"/><path class="cls-15" d="M194.66,251c-6.14-5.46-8-11.68-3.17-15,12.27-8.59,15.43-17.8,20.18-23.33,4-4.68,12.35,3.47,9.46,6.63s1,21.17-9.67,32.76C205.77,258.21,194.66,251,194.66,251Z"/><path class="cls-16" d="M199.84,241.46c8.33-8.84,9.31-11.71,6.84-14.92-1.59-2.06-4.2-1.09-6.54,1.86a50.9,50.9,0,0,1-7.48,6.61c-8.91,6.85-5.06,11.52,1.07,17C193.65,250,191.51,250.3,199.84,241.46Z"/><path class="cls-15" d="M217.25,200.71h.48a9.53,9.53,0,0,1,9.53,9.53v10a0,0,0,0,1,0,0H207.71a0,0,0,0,1,0,0v-10A9.53,9.53,0,0,1,217.25,200.71Z" transform="translate(395.12 455.55) rotate(-170)"/><path class="cls-15" d="M227.91,207.66l1.75-9.91c-4.81-.85-5.95,3.91-5.95,3.91S223.1,206.81,227.91,207.66Z"/><path class="cls-15" d="M208.66,204.26l1.75-9.91c4.81.85,4.25,5.71,4.25,5.71S213.47,205.11,208.66,204.26Z"/><path class="cls-18" d="M215.6,212.33a1.5,1.5,0,0,1,1.67-.58,1.54,1.54,0,0,1,1.36,1.11c-.15.84-.79,2.19-1.91,2S215.45,213.16,215.6,212.33Z"/><path class="cls-18" d="M225.67,210.26a.75.75,0,1,0,1.47.26c.08-.4-.13-1.16-.54-1.23S225.74,209.86,225.67,210.26Z"/><path class="cls-18" d="M213.59,208.19a.75.75,0,0,0,1.47.26c.08-.41-.13-1.17-.54-1.24S213.66,207.78,213.59,208.19Z"/><path class="cls-15" d="M209.71,231.35c6.23,13.68,6.76,26.15-12.43,24.49.09,3.15-.12,5.79.15,8.42-2.21,1.68-7.49,1.33-9.23-1a4.23,4.23,0,0,1,3.5-3.09c-3.5-6.25-2.52-19.57,9.87-23.65C207.53,234.15,209.71,231.35,209.71,231.35Z"/><path class="cls-15" d="M227.9,248.79s-.74-1.26-1.29-2.24l-11.51-20.5a3,3,0,0,1,5.23-2.94l11.51,20.5a3,3,0,0,1-1.14,4.09C230.23,248,227.9,248.79,227.9,248.79Z"/><path class="cls-15" d="M194.31,226.2a7.43,7.43,0,0,1-1.26-2.62,3,3,0,0,1,2.18-3.64l13.27-3.34a3,3,0,0,1,1.46,5.82l-13.27,3.34C196.45,225.82,194.55,226.2,194.31,226.2Z"/><path class="cls-19" d="M67,345.17A11.22,11.22,0,1,1,55.79,334,11.22,11.22,0,0,1,67,345.17Z"/><path class="cls-19" d="M67,345.17a11.22,11.22,0,1,0-21,5.45c1-.38,2.79-1.67,2.79-6.15,0-6.31,4.2-6.31,7.71-6.31H64.2S62.8,348.67,66,349.9A11.19,11.19,0,0,0,67,345.17Z"/><path class="cls-19" d="M48.59,353.78c-4.09,2.17-6.83,6.76-6.83,15H69.81c0-8.19-2.73-12.78-6.83-15"/><path class="cls-20" d="M219,206.68l-.2,1.12-2.39-.42.2-1.12-10.53-1.85-.56,3.19a2.94,2.94,0,0,0,2.38,3.4l4.74.83a2.92,2.92,0,0,0,3.4-2.38l.2-1.13,2.4.42-.2,1.13a3,3,0,0,0,2.38,3.41l4.74.83a2.94,2.94,0,0,0,3.4-2.38l.56-3.19Zm-3.9,2.61a2,2,0,0,1-2.29,1.6l-4.74-.83a2,2,0,0,1-1.61-2.3l.4-2.25,8.64,1.53Zm12.92,2.27a2,2,0,0,1-2.3,1.61l-4.73-.84a2,2,0,0,1-1.61-2.29l.39-2.25,8.64,1.52Z"/></g></svg>