<svg xmlns="http://www.w3.org/2000/svg" xmlns:xlink="http://www.w3.org/1999/xlink" viewBox="0 0 706.78 504.54"><defs><style>.cls-1,.cls-22,.cls-3{fill:none;}.cls-2{clip-path:url(#clip-path);}.cls-3{stroke:#afcad3;stroke-miterlimit:10;stroke-width:6px;}.cls-4{fill:#afcad3;}.cls-5{fill:#d6e9f2;}.cls-6{fill:#23477c;}.cls-7{fill:#417fd8;}.cls-8{fill:#f0f1f3;}.cls-9{fill:#463575;}.cls-10{fill:#6633d3;}.cls-11{fill:#503a8c;}.cls-12{fill:#27569b;}.cls-13{fill:#285ebc;}.cls-14{fill:#374250;}.cls-15{fill:#2c5e9b;}.cls-16{fill:#7e58e8;}.cls-17{fill:#e2edf1;}.cls-18{fill:#bbced7;}.cls-19{fill:#657784;}.cls-20{fill:#d6e3eb;}.cls-21{fill:#1b122e;}.cls-22{stroke:#bbced7;stroke-linecap:round;stroke-linejoin:round;stroke-width:3px;}.cls-23{fill:#fff;}.cls-24{fill:#bdccd4;}</style><clipPath id="clip-path"><rect class="cls-1" x="-869.54" y="1767.16" width="1920" height="720"/></clipPath></defs><title>illustration-space</title><g id="Camada_2" data-name="Camada 2"><path class="cls-3" d="M79.46,59.5c-32-5.34-71.33,10.66-64.66,52C22,156.25,94.88,203.08,64.13,262.16c-34,65.34,96.67,117.34,127.33-23.33s403.25-117.11,479-34.67c60.34,65.67-58,146-91,89"/><path class="cls-4" d="M651.58,269.43,604.05,242c-1.78-1-1.55-2.85.51-4l46.52-26.86a7.77,7.77,0,0,1,7-.29l47.52,27.44c1.78,1,1.55,2.84-.5,4l-46.52,26.85A7.78,7.78,0,0,1,651.58,269.43Z"/><path class="cls-5" d="M651.58,267.87l-47.53-27.43c-1.78-1-1.55-2.84.51-4l46.52-26.86a7.77,7.77,0,0,1,7-.29l47.52,27.44c1.78,1,1.55,2.84-.5,4l-46.52,26.85A7.78,7.78,0,0,1,651.58,267.87Z"/><path class="cls-6" d="M122.71,227.8,3,158.7c-4.49-2.59-3.92-7.16,1.26-10.15L121.45,80.91c5.18-3,13.09-3.32,17.58-.73l119.68,69.1c4.49,2.59,3.92,7.15-1.26,10.15L140.29,227.07C135.11,230.06,127.2,230.39,122.71,227.8Z"/><path class="cls-7" d="M122.71,223.87,3,154.77c-4.49-2.59-3.92-7.16,1.26-10.15L121.45,77c5.18-3,13.09-3.32,17.58-.73l119.68,69.1c4.49,2.59,3.92,7.16-1.26,10.15L140.29,223.14C135.11,226.13,127.2,226.46,122.71,223.87Z"/><circle class="cls-8" cx="388.32" cy="242.14" r="242.14"/><polygon class="cls-9" points="676.7 101.69 479.36 215.63 419.65 181.15 616.99 67.22 676.7 101.69"/><polygon class="cls-10" points="642.41 84.1 616.77 98.91 591.12 84.1 616.77 69.29 642.41 84.1"/><polygon class="cls-11" points="642.41 84.1 616.77 98.91 616.77 100.96 642.41 86.15 642.41 84.1"/><polygon class="cls-11" points="591.12 84.1 616.77 98.91 616.77 100.96 591.12 86.15 591.12 84.1"/><polygon class="cls-10" points="669.55 99.77 643.9 114.58 618.26 99.77 643.9 84.96 669.55 99.77"/><polygon class="cls-11" points="669.55 99.77 643.9 114.58 643.9 116.63 669.55 101.82 669.55 99.77"/><polygon class="cls-11" points="618.26 99.77 643.9 114.58 643.9 116.63 618.26 101.82 618.26 99.77"/><polygon class="cls-10" points="614.99 99.93 589.34 114.74 563.7 99.93 589.34 85.13 614.99 99.93"/><polygon class="cls-11" points="614.99 99.93 589.34 114.74 589.34 116.79 614.99 101.99 614.99 99.93"/><polygon class="cls-11" points="563.7 99.93 589.34 114.74 589.34 116.79 563.7 101.99 563.7 99.93"/><polygon class="cls-10" points="642.13 115.6 616.48 130.41 590.83 115.6 616.48 100.79 642.13 115.6"/><polygon class="cls-11" points="642.13 115.6 616.48 130.41 616.48 132.46 642.13 117.65 642.13 115.6"/><polygon class="cls-11" points="590.83 115.6 616.48 130.41 616.48 132.46 590.83 117.65 590.83 115.6"/><polygon class="cls-10" points="587.57 115.77 561.92 130.57 536.27 115.77 561.92 100.96 587.57 115.77"/><polygon class="cls-11" points="587.57 115.77 561.92 130.57 561.92 132.63 587.57 117.82 587.57 115.77"/><polygon class="cls-11" points="536.27 115.77 561.92 130.57 561.92 132.63 536.27 117.82 536.27 115.77"/><polygon class="cls-10" points="614.7 131.43 589.06 146.24 563.41 131.43 589.05 116.63 614.7 131.43"/><polygon class="cls-11" points="614.7 131.43 589.06 146.24 589.06 148.29 614.7 133.49 614.7 131.43"/><polygon class="cls-11" points="563.41 131.43 589.06 146.24 589.06 148.29 563.41 133.49 563.41 131.43"/><polygon class="cls-10" points="560.14 131.6 534.5 146.41 508.85 131.6 534.5 116.79 560.14 131.6"/><polygon class="cls-11" points="560.14 131.6 534.5 146.41 534.5 148.46 560.14 133.65 560.14 131.6"/><polygon class="cls-11" points="508.85 131.6 534.5 146.41 534.5 148.46 508.85 133.65 508.85 131.6"/><polygon class="cls-10" points="587.28 147.27 561.63 162.07 535.99 147.27 561.63 132.46 587.28 147.27"/><polygon class="cls-11" points="587.28 147.27 561.63 162.07 561.63 164.13 587.28 149.32 587.28 147.27"/><polygon class="cls-11" points="535.99 147.27 561.63 162.07 561.63 164.13 535.99 149.32 535.99 147.27"/><polygon class="cls-10" points="532.72 147.43 507.07 162.24 481.43 147.43 507.07 132.63 532.72 147.43"/><polygon class="cls-11" points="532.72 147.43 507.07 162.24 507.07 164.29 532.72 149.49 532.72 147.43"/><polygon class="cls-11" points="481.43 147.43 507.07 162.24 507.07 164.29 481.43 149.49 481.43 147.43"/><polygon class="cls-10" points="559.85 163.1 534.21 177.91 508.56 163.1 534.21 148.29 559.85 163.1"/><polygon class="cls-11" points="559.85 163.1 534.21 177.91 534.21 179.96 559.85 165.15 559.85 163.1"/><polygon class="cls-11" points="508.56 163.1 534.21 177.91 534.21 179.96 508.56 165.15 508.56 163.1"/><polygon class="cls-10" points="505.3 163.27 479.65 178.07 454 163.27 479.65 148.46 505.3 163.27"/><polygon class="cls-11" points="505.3 163.27 479.65 178.07 479.65 180.13 505.3 165.32 505.3 163.27"/><polygon class="cls-11" points="454 163.27 479.65 178.07 479.65 180.13 454 165.32 454 163.27"/><polygon class="cls-10" points="532.43 178.93 506.78 193.74 481.14 178.93 506.78 164.13 532.43 178.93"/><polygon class="cls-11" points="532.43 178.93 506.78 193.74 506.78 195.79 532.43 180.99 532.43 178.93"/><polygon class="cls-11" points="481.14 178.93 506.78 193.74 506.78 195.79 481.14 180.99 481.14 178.93"/><polygon class="cls-10" points="477.87 179.1 452.22 193.91 426.58 179.1 452.22 164.29 477.87 179.1"/><polygon class="cls-11" points="477.87 179.1 452.22 193.91 452.22 195.96 477.87 181.15 477.87 179.1"/><polygon class="cls-11" points="426.58 179.1 452.22 193.91 452.22 195.96 426.58 181.15 426.58 179.1"/><polygon class="cls-10" points="505.01 194.77 479.36 209.57 453.71 194.77 479.36 179.96 505.01 194.77"/><polygon class="cls-11" points="505.01 194.77 479.36 209.57 479.36 211.63 505.01 196.82 505.01 194.77"/><polygon class="cls-11" points="453.71 194.77 479.36 209.57 479.36 211.63 453.71 196.82 453.71 194.77"/><polygon class="cls-12" points="479.36 223.16 419.65 188.69 419.65 181.15 479.36 215.63 479.36 223.16"/><polygon class="cls-13" points="479.36 223.16 676.7 109.23 676.7 101.69 479.36 215.63 479.36 223.16"/><path class="cls-14" d="M445.34,205.36,406.66,227.8a4,4,0,0,1-5.92-3.42h0a3.94,3.94,0,0,1,2-3.41l38.67-22.44a4,4,0,0,1,5.92,3.41h0A4,4,0,0,1,445.34,205.36Z"/><path class="cls-14" d="M282.21,146.88c-3.59-1.95-8.16-2-13.47,1.07-10.25,5.91-18.55,20.3-18.55,32.12,0,6.19,2.42,10.3,5.91,12.26h0l31.81,18.24L314,165.09Z"/><path class="cls-7" d="M295.88,146.45c-4.61-2.5-10.46-2.56-17.26,1.37-13.12,7.57-23.75,26-23.75,41.13,0,7.93,3.1,13.19,7.56,15.7h0L303.17,228l33.39-58.24Z"/><ellipse class="cls-12" cx="319.63" cy="198.74" rx="33.59" ry="19.39" transform="matrix(0.5, -0.87, 0.87, 0.5, -12.3, 376.17)"/><path class="cls-14" d="M336.16,176.1c-3.75-2-8.51-2.08-14.05,1.11-10.67,6.17-19.33,21.16-19.33,33.49,0,6.45,2.53,10.73,6.16,12.78h0l22.12,12.76,27.18-47.41Z"/><polygon class="cls-12" points="388.63 236.78 354.73 256.36 354.73 217.21 388.63 197.63 388.63 236.78"/><polygon class="cls-6" points="320.82 236.78 354.73 256.36 354.73 217.21 320.82 197.63 320.82 236.78"/><polygon class="cls-15" points="354.73 178.06 388.63 197.63 354.73 217.21 320.82 197.63 354.73 178.06"/><polygon class="cls-12" points="437.55 265.14 387.32 294.14 387.32 236.14 437.55 207.14 437.55 265.14"/><polygon class="cls-13" points="337.09 265.14 387.32 294.14 387.32 236.14 337.09 207.14 337.09 265.14"/><polygon class="cls-7" points="387.32 178.14 437.55 207.14 387.32 236.14 337.09 207.14 387.32 178.14"/><path class="cls-16" d="M454,235.75c0,11-24.7,53.23-34.25,58.75S391.48,269,391.48,258s7.74-24.45,17.3-30S454,224.71,454,235.75Z"/><ellipse class="cls-10" cx="431.8" cy="261.91" rx="36.92" ry="21.32" transform="translate(-10.91 504.91) rotate(-60)"/><ellipse class="cls-9" cx="431.8" cy="261.91" rx="33.55" ry="19.37" transform="translate(-10.92 504.9) rotate(-60)"/><path class="cls-10" d="M518,243.83c0,15-45,95.18-58,102.67s-49-54.55-49-69.53,10.52-33.2,23.49-40.69S518,228.85,518,243.83Z"/><ellipse class="cls-9" cx="484.36" cy="292.16" rx="61.8" ry="35.68" transform="translate(-10.85 565.54) rotate(-60)"/><ellipse class="cls-6" cx="354.73" cy="256.36" rx="5.69" ry="9.86" transform="translate(-80.65 211.71) rotate(-30)"/><path class="cls-14" d="M357,259.56,318.28,282a4,4,0,0,1-5.92-3.42h0a3.93,3.93,0,0,1,2-3.41L353,252.73a4,4,0,0,1,5.92,3.41h0A4,4,0,0,1,357,259.56Z"/><polygon class="cls-9" points="346.5 293.15 149.15 407.09 89.44 372.62 286.79 258.68 346.5 293.15"/><polygon class="cls-10" points="312.21 275.57 286.56 290.37 260.92 275.57 286.56 260.76 312.21 275.57"/><polygon class="cls-11" points="312.21 275.57 286.56 290.37 286.56 292.43 312.21 277.62 312.21 275.57"/><polygon class="cls-11" points="260.92 275.57 286.56 290.37 286.56 292.43 260.92 277.62 260.92 275.57"/><polygon class="cls-10" points="339.35 291.23 313.7 306.04 288.05 291.23 313.7 276.43 339.35 291.23"/><polygon class="cls-11" points="339.35 291.23 313.7 306.04 313.7 308.09 339.35 293.29 339.35 291.23"/><polygon class="cls-11" points="288.05 291.23 313.7 306.04 313.7 308.09 288.05 293.29 288.05 291.23"/><polygon class="cls-10" points="284.79 291.4 259.14 306.21 233.49 291.4 259.14 276.59 284.79 291.4"/><polygon class="cls-11" points="284.79 291.4 259.14 306.21 259.14 308.26 284.79 293.45 284.79 291.4"/><polygon class="cls-11" points="233.49 291.4 259.14 306.21 259.14 308.26 233.49 293.45 233.49 291.4"/><polygon class="cls-10" points="311.92 307.07 286.27 321.87 260.63 307.07 286.27 292.26 311.92 307.07"/><polygon class="cls-11" points="311.92 307.07 286.27 321.87 286.27 323.93 311.92 309.12 311.92 307.07"/><polygon class="cls-11" points="260.63 307.07 286.27 321.87 286.27 323.93 260.63 309.12 260.63 307.07"/><polygon class="cls-10" points="257.36 307.23 231.72 322.04 206.07 307.23 231.71 292.43 257.36 307.23"/><polygon class="cls-11" points="257.36 307.23 231.72 322.04 231.72 324.09 257.36 309.29 257.36 307.23"/><polygon class="cls-11" points="206.07 307.23 231.72 322.04 231.72 324.09 206.07 309.29 206.07 307.23"/><polygon class="cls-10" points="284.5 322.9 258.85 337.71 233.2 322.9 258.85 308.09 284.5 322.9"/><polygon class="cls-11" points="284.5 322.9 258.85 337.71 258.85 339.76 284.5 324.95 284.5 322.9"/><polygon class="cls-11" points="233.2 322.9 258.85 337.71 258.85 339.76 233.2 324.95 233.2 322.9"/><polygon class="cls-10" points="229.94 323.07 204.29 337.87 178.64 323.07 204.29 308.26 229.94 323.07"/><polygon class="cls-11" points="229.94 323.07 204.29 337.87 204.29 339.93 229.94 325.12 229.94 323.07"/><polygon class="cls-11" points="178.64 323.07 204.29 337.87 204.29 339.93 178.64 325.12 178.64 323.07"/><polygon class="cls-10" points="257.07 338.73 231.43 353.54 205.78 338.73 231.43 323.93 257.07 338.73"/><polygon class="cls-11" points="257.07 338.73 231.43 353.54 231.43 355.59 257.07 340.79 257.07 338.73"/><polygon class="cls-11" points="205.78 338.73 231.43 353.54 231.43 355.59 205.78 340.79 205.78 338.73"/><polygon class="cls-10" points="202.51 338.9 176.87 353.71 151.22 338.9 176.87 324.09 202.51 338.9"/><polygon class="cls-11" points="202.51 338.9 176.87 353.71 176.87 355.76 202.51 340.95 202.51 338.9"/><polygon class="cls-11" points="151.22 338.9 176.87 353.71 176.87 355.76 151.22 340.95 151.22 338.9"/><polygon class="cls-10" points="229.65 354.57 204 369.37 178.35 354.57 204 339.76 229.65 354.57"/><polygon class="cls-11" points="229.65 354.57 204 369.37 204 371.43 229.65 356.62 229.65 354.57"/><polygon class="cls-11" points="178.35 354.57 204 369.37 204 371.43 178.35 356.62 178.35 354.57"/><polygon class="cls-10" points="175.09 354.73 149.44 369.54 123.8 354.73 149.44 339.93 175.09 354.73"/><polygon class="cls-11" points="175.09 354.73 149.44 369.54 149.44 371.59 175.09 356.78 175.09 354.73"/><polygon class="cls-11" points="123.8 354.73 149.44 369.54 149.44 371.59 123.8 356.78 123.8 354.73"/><polygon class="cls-10" points="202.22 370.4 176.58 385.21 150.93 370.4 176.58 355.59 202.22 370.4"/><polygon class="cls-11" points="202.22 370.4 176.58 385.21 176.58 387.26 202.22 372.45 202.22 370.4"/><polygon class="cls-11" points="150.93 370.4 176.58 385.21 176.58 387.26 150.93 372.45 150.93 370.4"/><polygon class="cls-10" points="147.66 370.56 122.02 385.37 96.37 370.56 122.02 355.76 147.66 370.56"/><polygon class="cls-11" points="147.66 370.56 122.02 385.37 122.02 387.43 147.66 372.62 147.66 370.56"/><polygon class="cls-11" points="96.37 370.56 122.02 385.37 122.02 387.43 96.37 372.62 96.37 370.56"/><polygon class="cls-10" points="174.8 386.23 149.15 401.04 123.51 386.23 149.15 371.43 174.8 386.23"/><polygon class="cls-11" points="174.8 386.23 149.15 401.04 149.15 403.09 174.8 388.28 174.8 386.23"/><polygon class="cls-11" points="123.51 386.23 149.15 401.04 149.15 403.09 123.51 388.28 123.51 386.23"/><polygon class="cls-12" points="149.15 414.63 89.44 380.15 89.44 372.62 149.15 407.09 149.15 414.63"/><polygon class="cls-13" points="149.15 414.63 346.5 300.69 346.5 293.15 149.15 407.09 149.15 414.63"/><path class="cls-4" d="M503.71,502.8,384,433.7c-4.49-2.59-3.92-7.16,1.26-10.15l117.16-67.64c5.18-3,13.09-3.32,17.58-.73l119.68,69.1c4.49,2.59,3.92,7.15-1.26,10.15L521.29,502.07C516.11,505.06,508.2,505.39,503.71,502.8Z"/><path class="cls-5" d="M503.71,498.87,384,429.77c-4.49-2.59-3.92-7.16,1.26-10.15L502.45,352c5.18-3,13.09-3.32,17.58-.73l119.68,69.1c4.49,2.59,3.92,7.16-1.26,10.15L521.29,498.14C516.11,501.13,508.2,501.46,503.71,498.87Z"/><path class="cls-4" d="M234,93.61,167.2,55.06c-2.51-1.44-2.19-4,.7-5.66l65.36-37.73c2.89-1.67,7.3-1.86,9.81-.41l66.76,38.55c2.51,1.44,2.19,4-.7,5.66L243.77,93.2C240.88,94.87,236.47,95.06,234,93.61Z"/><path class="cls-5" d="M234,91.42,167.2,52.87c-2.51-1.44-2.19-4,.7-5.66L233.26,9.48c2.89-1.67,7.3-1.86,9.81-.41l66.76,38.55c2.51,1.44,2.19,4-.7,5.66L243.77,91C240.88,92.68,236.47,92.87,234,91.42Z"/><path class="cls-17" d="M77,54.14s-6.29-.43-6.55.18A29.07,29.07,0,0,0,69,63c.06.62,4.53,1.14,4.53,1.14Z"/><path class="cls-18" d="M93.37,50.53s-18.14-.54-20.15.83c-2.75,1.89-5.27,42.94-5,44.91s20,6.68,22.78,5,10.23-49.65,10.23-49.65l-7.87-1.11"/><rect class="cls-18" x="87.21" y="99.36" width="19.59" height="49.77" rx="9.8" transform="translate(25.88 -16.43) rotate(11.16)"/><path class="cls-18" d="M60.11,150.35h0a6.64,6.64,0,0,0,8.48,4l28.2-5.58a9.81,9.81,0,0,0,5.9-12.53h0a9.81,9.81,0,0,0-12.53-5.9L64.1,141.88A6.64,6.64,0,0,0,60.11,150.35Z"/><rect class="cls-18" x="117.83" y="61.95" width="14.58" height="37.04" rx="7.29" transform="translate(253.67 5.62) rotate(117.04)"/><rect class="cls-18" x="138.37" y="62.43" width="14.58" height="37.04" rx="7.29" transform="translate(155.81 -85.38) rotate(64.43)"/><path class="cls-17" d="M121.26,96.3l5.85,1,4.75-26.9-5.85-1s1.16,3.23-.36,11.87A71.23,71.23,0,0,1,121.26,96.3Z"/><path class="cls-19" d="M120.12,104.13s-1.9,5.76-3.18,8.46-4.37,7.28-15.91,5c-12.28-2.43-16.41-6.88-14.76-19.42C87.51,88.77,118.19,91.09,120.12,104.13Z"/><path class="cls-20" d="M86.27,98.16s-.74,5.85,16,8.81,17.81-2.84,17.81-2.84,5.86-17.76,7.14-25a34.56,34.56,0,0,0-.79-14.17L93.16,59.05a52.58,52.58,0,0,0-5.07,15C86.57,82.64,86.27,98.16,86.27,98.16Z"/><circle class="cls-20" cx="103.02" cy="116.13" r="14.13"/><path class="cls-18" d="M127.23,68.51c-2.39.87-7.37,1.4-17.77-.43-12-2.11-16.15-4.73-17.58-6.38.75-1.68,1.28-2.65,1.28-2.65l33.31,5.88A29.06,29.06,0,0,1,127.23,68.51Z"/><path class="cls-20" d="M93.8,53.68a24.9,24.9,0,1,1,34.8,6.14S128.4,61,111,57.91,93.8,53.68,93.8,53.68Z"/><path class="cls-21" d="M114.25,39.48h0l15-19.86a24.9,24.9,0,0,1,4.33,35.53Z"/><circle class="cls-18" cx="114.25" cy="39.48" r="13.74" transform="translate(48.09 140.64) rotate(-75.88)"/><path class="cls-20" d="M91.14,58.6s-.82,4.64,18.32,8,20-1.26,20-1.26l-.82-5.53S128.4,61,111,57.91s-17.2-4.23-17.2-4.23Z"/><circle class="cls-18" cx="103.85" cy="117.79" r="12.89"/><ellipse class="cls-20" cx="106.81" cy="75.05" rx="10.49" ry="10.48" transform="translate(-5.77 8.97) rotate(-4.68)"/><circle class="cls-18" cx="105.13" cy="75.28" r="9.32" transform="translate(21.43 173.83) rotate(-85.26)"/><circle class="cls-19" cx="105.13" cy="75.28" r="7.99" transform="translate(20.63 173.14) rotate(-84.79)"/><rect class="cls-17" x="86.08" y="56.61" width="14.58" height="37.04" rx="7.29" transform="translate(18.24 168.51) rotate(-90)"/><circle class="cls-19" cx="103.85" cy="117.79" r="11.05"/><rect class="cls-17" x="67.57" y="65.53" width="14.58" height="37.04" rx="7.29" transform="translate(83.3 196.28) rotate(-142.61)"/><rect class="cls-20" x="100.24" y="106.17" width="19.59" height="45.33" rx="9.8" transform="translate(-48.73 69.67) rotate(-29.06)"/><path class="cls-20" d="M117.83,175.83h0A6.54,6.54,0,0,0,124,169l2.06-28.59a9.83,9.83,0,0,0-10.26-9.31h0a9.83,9.83,0,0,0-9.31,10.26L111,169.63A6.55,6.55,0,0,0,117.83,175.83Z"/><circle class="cls-20" cx="114.25" cy="39.48" r="8.74" transform="translate(42.18 136.52) rotate(-72.46)"/><circle class="cls-19" cx="114.25" cy="39.48" r="2.32" transform="matrix(0.83, -0.56, 0.56, 0.83, -2.67, 70.15)"/><polygon class="cls-19" points="113 39.48 115.5 39.48 114.66 5.36 113.83 5.36 113 39.48"/><path class="cls-22" d="M130.19,26.05l-.31-.3"/><path class="cls-22" d="M135,38.39a16.51,16.51,0,0,0-2.4-9.24"/><path class="cls-19" d="M92.56,51.7c.38.68.8,1.34,1.24,2,0,0-.2,1.16,17.2,4.23s17.6,1.91,17.6,1.91c.53-.37,1-.76,1.53-1.17l.12.87s-.15.89-1.93,1.61c-2.29.92-7.26-.11-18-2-10.07-1.78-14.61-2.24-16.66-3.86-1.85-1.45-1.67-2.5-1.67-2.5Z"/><circle class="cls-23" cx="416.46" cy="57.16" r="4"/><circle class="cls-23" cx="605.46" cy="258.16" r="4"/><circle class="cls-24" cx="311.55" cy="419.74" r="4"/><circle class="cls-24" cx="512.54" cy="80.76" r="1.5"/><circle class="cls-24" cx="545.54" cy="301.25" r="1.5"/><circle class="cls-24" cx="203.56" cy="137.76" r="1.5"/><circle class="cls-23" cx="395.46" cy="321.16" r="4"/><circle class="cls-23" cx="383.46" cy="346.16" r="4"/><circle class="cls-23" cx="370.46" cy="326.16" r="4"/><circle class="cls-23" cx="218.46" cy="243.16" r="4"/><circle class="cls-23" cx="332.46" cy="112.16" r="4"/><circle class="cls-23" cx="594.46" cy="346.16" r="4"/></g></svg>