<?xml version="1.0" encoding="UTF-8"?>
<svg width="1025px" height="190px" viewBox="0 0 1025 190" version="1.1" xmlns="http://www.w3.org/2000/svg" xmlns:xlink="http://www.w3.org/1999/xlink">
    <!-- Generator: Sketch 53.2 (72643) - https://sketchapp.com -->
    <title>06_hero_ethicalhacker</title>
    <desc>Created with Sketch.</desc>
    <defs>
        <polygon id="path-1" points="0.190197111 0.0782919334 71.8629831 0.0782919334 71.8629831 120.901046 0.190197111 120.901046"></polygon>
    </defs>
    <g id="06_hero_ethicalhacker" stroke="none" stroke-width="1" fill="none" fill-rule="evenodd">
        <rect x="0" y="0" width="1025" height="190"></rect>
        <g id="Group-312" transform="translate(905.000000, 158.500000) scale(-1, 1) translate(-905.000000, -158.500000) translate(785.000000, 40.000000)">
            <g id="Group-3" transform="translate(14.260430, 0.225165)">
                <mask id="mask-2" fill="white">
                    <use xlink:href="#path-1"></use>
                </mask>
                <g id="Clip-2"></g>
                <path d="M41.7515044,120.768645 C41.7515044,120.768645 22.6476865,123.236662 8.08445006,106.86151 C-6.47848293,90.4866607 1.21395702,60.1667439 14.1581795,48.595621 C27.102402,37.0244981 12.180531,26.3088207 6.71939317,32.2259309 C-2.83782554,17.205411 19.0070291,-10.1042113 55.8696334,4.00593726 C92.7325411,18.1157823 56.3044248,119.189151 41.7515044,120.768645" id="Fill-1" fill="#D96D01" mask="url(#mask-2)"></path>
            </g>
            <path d="M20.979823,32.451005 C23.9951454,29.1833789 29.8941087,30.9892521 32.3942351,35.2088232 C34.5420986,34.0271612 38.0556258,32.0213097 43.4897598,28.7357796 C54.2327181,22.2402803 44.8481416,-1.3735379 26.9449305,8.41659526 C19.0073325,15.3439141 16.4246776,25.2921484 20.979823,32.451005" id="Fill-4" fill="#FB8D00"></path>
            <path d="M27.7372946,112.197287 C23.5844753,106.366055 20.6717067,97.2662869 20.6717067,83.2071192 C20.6717067,73.9950718 20.3297598,66.6872178 19.7748167,60.8924009 C12.9926169,75.0465507 11.5216688,94.916922 22.3450316,107.086766 C24.0905689,109.049526 25.9019469,110.739176 27.7372946,112.197287" id="Fill-6" fill="#FB8D00"></path>
            <path d="M30.2220986,95.2910846 L33.1124147,96.9600987 C34.2735777,97.6304355 36.3012895,97.5463778 37.6420733,96.7722588 L70.6252339,77.7269873 C71.3846776,77.2881883 74.7947408,107.067951 74.7668268,106.537508 C74.7452845,106.13209 71.4535525,75.401899 70.9501896,75.1111871 L68.0598736,73.442173 C66.8990139,72.7718362 64.8709987,72.8558939 63.5305183,73.6303164 L30.5473578,92.6755878 C29.756359,93.1325942 29.3813401,93.7273702 29.4453603,94.2760206 C29.4899621,94.6574662 29.7463464,95.016456 30.2220986,95.2910846" id="Fill-8" fill="#212149"></path>
            <path d="M103.282498,86.6132431 L103.282498,111.010588 C103.282498,127.052241 102.357997,130.208801 91.941512,137.229888" id="Stroke-10" stroke="#0F0F1E" stroke-width="5.7721519"></path>
            <path d="M113.573674,134.386374 L80.5534968,115.319254 C79.3926372,114.648917 77.364622,114.732975 76.0241416,115.507094 L50.2949886,130.36405 L41.9398938,129.833 L41.9329153,136.076023 C41.9499064,136.48569 42.2078078,136.875026 42.7157219,137.168165 L85.5464678,161.899919 C86.7073274,162.570256 88.7353426,162.486199 90.075823,161.71208 L123.058984,142.666505 C123.760172,142.261693 124.134584,141.748243 124.165532,141.254519 L124.166139,135.059745 L113.573674,134.386374 Z" id="Fill-12" fill="#212149"></path>
            <polygon id="Fill-14" fill="#394850" points="51.8586599 149.455508 60.2368142 154.293524 60.2368142 148.797916 51.8586599 143.99328"></polygon>
            <path d="M85.5464374,155.830777 L42.7156915,131.099023 C42.1364753,130.76431 41.8825183,130.305179 41.9398635,129.833 C41.9978154,129.359 42.3691934,128.871345 43.0409507,128.483526 L76.0241113,109.438255 C77.3645917,108.663832 79.3926068,108.580078 80.5534665,109.250112 L123.383909,133.981866 C123.885755,134.271971 124.143656,134.655237 124.166109,135.059745 C124.195843,135.590795 123.819914,136.157957 123.058953,136.597666 L90.0757927,155.642937 C88.7353123,156.417056 86.7072971,156.501114 85.5464374,155.830777" id="Fill-16" fill="#141430"></path>
            <path d="M53.6204905,115.289788 C53.6204905,115.289788 51.5839798,133.882908 67.1590999,142.986622 C82.73422,152.090335 90.745244,152.090335 90.745244,152.090335 L116.716521,134.489823 C116.716521,134.489823 118.941755,128.510504 115.907621,124.621701 C112.873487,120.733202 104.603044,117.984487 94.6802124,115.009394 C84.7570771,112.033997 53.6204905,115.289788 53.6204905,115.289788" id="Fill-18" fill="#1C193B"></path>
            <path d="M53.6204905,115.289788 L53.6204905,139.687436 C53.6204905,155.729089 59.8237775,156.745367 70.6932592,150.448025" id="Stroke-20" stroke="#0F0F1E" stroke-width="5.7721519"></path>
            <path d="M133.977922,99.9995554 L3.19005815,175.520622 C1.27491277,176.626723 0.303686473,174.969544 0.303686473,176.311735 C0.303686473,176.804549 0.3042933,179.436433 0.304900126,179.461619 C0.340096081,180.537375 1.01154994,181.560025 2.34353477,182.329289 L94.3214867,235.440048 C97.3434842,237.18523 102.622574,236.966134 106.112131,234.951179 L236.899995,159.430112 C240.389552,157.415157 240.768516,154.366931 237.746518,152.621749 L145.768566,99.510686 C142.746569,97.7655042 137.467479,97.9842968 133.977922,99.9995554" id="Fill-22" fill="#582178"></path>
            <path d="M133.977922,96.9649844 L133.977922,96.9649844 L3.19005815,172.486051 C1.2642933,173.598525 0.285481669,175.02538 0.303686473,176.374247 C0.318250316,177.469424 0.989400759,178.512709 2.34353477,179.294718 L94.3214867,232.405477 C97.3434842,234.150659 102.622574,233.931563 106.112131,231.916608 L236.899995,156.395541 C240.389552,154.380586 240.768516,151.33236 237.746518,149.587178 L145.768566,96.476115 C142.746569,94.7309332 137.467479,94.9497257 133.977922,96.9649844" id="Fill-24" fill="#451465"></path>
            <path d="M89.0119949,76.0695653 L82.1399848,77.7109648 L82.1360405,80.9057612 C82.1578862,81.3108764 82.4157876,81.6950531 82.9185436,81.9854616 L116.552223,101.406716 C117.713082,102.077053 119.740794,101.992996 121.081578,101.218876 L123.321375,99.9255423 C124.029542,99.5164821 124.404258,98.9969635 124.429138,98.4989904 L124.429441,95.3676165 L89.0119949,76.0695653 Z" id="Fill-26" fill="#212149"></path>
            <path d="M116.552101,98.3720543 L82.9184223,78.9507995 C82.3495221,78.6224589 82.0946549,78.1739493 82.1398635,77.7111772 C82.1865891,77.2286804 82.5597876,76.7304038 83.2436814,76.3353027 L85.4837826,75.0419685 C86.8239595,74.2678494 88.8519747,74.1837918 90.0128344,74.8541286 L123.646817,94.2753834 C124.154731,94.5688264 124.412329,94.9578584 124.429623,95.3678289 C124.451469,95.894327 124.07554,96.4554192 123.321558,96.8908802 L121.08176,98.1842143 C119.740976,98.9583334 117.712961,99.042391 116.552101,98.3720543" id="Fill-28" fill="#383868"></path>
            <polygon id="Fill-30" fill="#2D1443" points="153.717846 129.671986 107.605077 156.29883 76.1053047 138.109914 76.1053047 135.964776 153.717846 127.527151"></polygon>
            <polygon id="Fill-32" fill="#582178" points="153.717846 127.52703 107.605077 154.153873 76.1053047 135.964958 122.218377 109.338114"></polygon>
            <g id="Group-104" transform="translate(91.630847, 118.269980)" fill="#00D1FF">
                <polygon id="Fill-34" points="15.9741087 28.6512061 12.8823262 30.4364443 15.9741087 32.2219859 19.0658913 30.4364443"></polygon>
                <polygon id="Fill-36" points="20.5590796 26.0036643 17.4672971 27.7889024 20.5590796 29.574444 23.6505588 27.7889024"></polygon>
                <polygon id="Fill-38" points="25.1437775 23.3562741 22.0522984 25.1415123 25.1437775 26.9270539 28.2355601 25.1415123"></polygon>
                <polygon id="Fill-40" points="29.7287484 20.7088536 26.6369659 22.4940918 29.7287484 24.2796334 32.820531 22.4940918"></polygon>
                <polygon id="Fill-42" points="34.3137193 18.0614635 31.2219368 19.8467017 34.3137193 21.6322433 37.4051985 19.8467017"></polygon>
                <polygon id="Fill-44" points="38.8984172 15.4140734 35.8069381 17.1993115 38.8984172 18.9845497 41.9901997 17.1993115"></polygon>
                <polygon id="Fill-46" points="43.4833881 12.7665315 40.3916056 14.5517697 43.4833881 16.3373113 46.5751707 14.5517697"></polygon>
                <polygon id="Fill-48" points="48.0680556 10.1191414 44.9765765 11.9043795 48.0680556 13.6899211 51.1598382 11.9043795"></polygon>
                <polygon id="Fill-50" points="52.6530569 7.47172087 49.5612743 9.25695903 52.6530569 11.0425006 55.7448394 9.25695903"></polygon>
                <polygon id="Fill-52" points="11.7458609 26.2096206 8.6543818 27.9948588 11.7458609 29.7804004 14.8376435 27.9948588"></polygon>
                <polygon id="Fill-54" points="16.3308622 23.5622305 13.2390796 25.3474686 16.3308622 27.1330102 19.4226448 25.3474686"></polygon>
                <polygon id="Fill-56" points="20.9158331 20.91481 17.8240506 22.7000481 20.9158331 24.4855898 24.0073123 22.7000481"></polygon>
                <polygon id="Fill-58" points="25.5005006 18.2674198 22.4090215 20.052658 25.5005006 21.8381996 28.5922832 20.052658"></polygon>
                <polygon id="Fill-60" points="30.0855019 15.619878 26.9937193 17.4051161 30.0855019 19.1906577 33.1772845 17.4051161"></polygon>
                <polygon id="Fill-62" points="34.6704728 12.9724878 31.5786903 14.757726 34.6704728 16.5432676 37.761952 14.757726"></polygon>
                <polygon id="Fill-64" points="39.2551403 10.3250977 36.1633578 12.1103359 39.2551403 13.8958775 42.3469229 12.1103359"></polygon>
                <polygon id="Fill-66" points="43.8401416 7.67770755 40.748359 9.46294571 43.8401416 11.2484873 46.9316207 9.46294571"></polygon>
                <polygon id="Fill-68" points="48.4248091 5.03013534 45.33333 6.8153735 48.4248091 8.60091511 51.5165917 6.81567695"></polygon>
                <polygon id="Fill-70" points="12.1026144 21.1207967 9.01113527 22.9060348 12.1026144 24.6915764 15.194397 22.9060348"></polygon>
                <polygon id="Fill-72" points="21.2725866 15.8258343 18.180804 17.6110725 21.2725866 19.3966141 24.3640657 17.6110725"></polygon>
                <polygon id="Fill-74" points="25.8572541 13.1784442 22.765775 14.9636823 25.8572541 16.7492239 28.9490367 14.9636823"></polygon>
                <polygon id="Fill-76" points="30.4422554 10.531054 27.3504728 12.3162922 30.4422554 14.1018338 33.5340379 12.3162922"></polygon>
                <polygon id="Fill-78" points="35.0269229 7.88366389 31.9354437 9.66890205 35.0272263 11.4541402 38.1187054 9.66890205"></polygon>
                <polygon id="Fill-80" points="39.6118938 5.23612202 36.5201113 7.02136018 39.6118938 8.80690179 42.7036764 7.02136018"></polygon>
                <polygon id="Fill-82" points="44.1968951 2.58870154 41.1051125 4.37393969 44.1968951 6.15948131 47.2883742 4.37393969"></polygon>
                <polygon id="Fill-84" points="3.28969912 21.326753 0.197916561 23.1119912 3.28969912 24.8975328 6.38148167 23.1119912"></polygon>
                <polygon id="Fill-86" points="7.87467004 18.6793325 4.78288748 20.4645707 7.87467004 22.2498088 10.9661492 20.4645707"></polygon>
                <polygon id="Fill-88" points="12.4593679 16.0317907 9.36788875 17.8170288 12.4593679 19.6025704 15.5511504 17.8170288"></polygon>
                <polygon id="Fill-90" points="17.0443388 13.3844005 13.9525563 15.1696387 17.0443388 16.9551803 20.1361214 15.1696387"></polygon>
                <polygon id="Fill-92" points="21.6293401 10.7370104 18.5375575 12.5222485 21.6293401 14.3077901 24.7208192 12.5222485"></polygon>
                <polygon id="Fill-94" points="26.2140076 8.08962023 23.122225 9.87485839 26.2140076 11.6600965 29.3057901 9.87485839"></polygon>
                <polygon id="Fill-96" points="30.7989785 5.44207836 27.707196 7.22731652 30.7989785 9.01285813 33.8904576 7.22731652"></polygon>
                <polygon id="Fill-98" points="35.3836764 2.79465787 32.2921972 4.57989603 35.3836764 6.36543764 38.4754589 4.57989603"></polygon>
                <polygon id="Fill-100" points="39.9686473 0.147267734 36.8768647 1.93250589 39.9686473 3.7180475 43.0604298 1.93250589"></polygon>
                <polygon id="Fill-102" points="16.832799 2.67257708 4.57125664 9.75283828 12.0391707 14.0649638 24.300713 6.98470256"></polygon>
            </g>
            <polygon id="Fill-105" fill="#00E9B6" points="107.604956 146.617729 104.513173 148.402967 107.604956 150.188508 110.696738 148.402967"></polygon>
            <polygon id="Fill-107" fill="#00E9B6" points="112.189927 143.970187 109.098144 145.755425 112.189927 147.540966 115.281406 145.755425"></polygon>
            <polygon id="Fill-109" fill="#00E9B6" points="116.774625 141.322797 113.683145 143.108035 116.774625 144.893576 119.866407 143.108035"></polygon>
            <polygon id="Fill-111" fill="#00E9B6" points="121.359595 138.675376 118.267813 140.460614 121.359595 142.246156 124.451378 140.460614"></polygon>
            <polygon id="Fill-113" fill="#00E9B6" points="125.944566 136.027986 122.852784 137.813224 125.944566 139.598766 129.036046 137.813224"></polygon>
            <polygon id="Fill-115" fill="#00E9B6" points="130.529264 133.380596 127.437785 135.165834 130.529264 136.951072 133.621047 135.165834"></polygon>
            <polygon id="Fill-117" fill="#00E9B6" points="135.114235 130.733054 132.022453 132.518292 135.114235 134.303834 138.206018 132.518292"></polygon>
            <polygon id="Fill-119" fill="#00E9B6" points="139.698903 128.085664 136.607424 129.870902 139.698903 131.656444 142.790685 129.870902"></polygon>
            <polygon id="Fill-121" fill="#00E9B6" points="144.283904 125.438243 141.192121 127.223481 144.283904 129.009023 147.375686 127.223481"></polygon>
            <polygon id="Fill-123" fill="#00E9B6" points="103.376708 144.176143 100.285229 145.961381 103.376708 147.746923 106.468491 145.961381"></polygon>
            <polygon id="Fill-125" fill="#00E9B6" points="107.961709 141.528753 104.869927 143.313991 107.961709 145.099533 111.053492 143.313991"></polygon>
            <polygon id="Fill-127" fill="#00E9B6" points="112.54668 138.881332 109.454898 140.666571 112.54668 142.452112 115.638159 140.666571"></polygon>
            <polygon id="Fill-129" fill="#00E9B6" points="117.131348 136.233942 114.039869 138.01918 117.131348 139.804722 120.22313 138.01918"></polygon>
            <polygon id="Fill-131" fill="#00E9B6" points="121.716349 133.5864 118.624566 135.371639 121.716349 137.15718 124.808131 135.371639"></polygon>
            <polygon id="Fill-133" fill="#00E9B6" points="126.30132 130.93901 123.209537 132.724248 126.30132 134.50979 129.392799 132.724248"></polygon>
            <polygon id="Fill-135" fill="#00E9B6" points="130.885987 128.29162 127.794205 130.076858 130.885987 131.8624 133.97777 130.076858"></polygon>
            <polygon id="Fill-137" fill="#00E9B6" points="135.470989 125.64423 132.379206 127.429468 135.470989 129.21501 138.562468 127.429468"></polygon>
            <polygon id="Fill-139" fill="#00E9B6" points="140.055656 122.996658 136.964177 124.781896 140.055656 126.567438 143.147439 124.782199"></polygon>
            <polygon id="Fill-141" fill="#00E9B6" points="103.733461 139.087319 100.641982 140.872557 103.733461 142.658099 106.825244 140.872557"></polygon>
            <polygon id="Fill-143" fill="#00E9B6" points="112.903434 133.792357 109.811651 135.577595 112.903434 137.363136 115.994913 135.577595"></polygon>
            <polygon id="Fill-145" fill="#00E9B6" points="117.488101 131.144967 114.396622 132.930205 117.488101 134.715746 120.579884 132.930205"></polygon>
            <polygon id="Fill-147" fill="#00E9B6" points="122.073102 128.497576 118.98132 130.282815 122.073102 132.068356 125.164885 130.282815"></polygon>
            <polygon id="Fill-149" fill="#00E9B6" points="126.65777 125.850186 123.566291 127.635424 126.658073 129.420663 129.749552 127.635424"></polygon>
            <polygon id="Fill-151" fill="#00E9B6" points="131.242741 123.202644 128.150958 124.987883 131.242741 126.773424 134.334523 124.987883"></polygon>
            <polygon id="Fill-153" fill="#00E9B6" points="135.827742 120.555224 132.73596 122.340462 135.827742 124.126004 138.919221 122.340462"></polygon>
            <polygon id="Fill-155" fill="#00E9B6" points="94.9205461 139.293275 91.8287636 141.078514 94.9205461 142.864055 98.0123287 141.078514"></polygon>
            <polygon id="Fill-157" fill="#00E9B6" points="99.5055171 136.645855 96.4137345 138.431093 99.5055171 140.216331 102.596996 138.431093"></polygon>
            <polygon id="Fill-159" fill="#00E9B6" points="104.090215 133.998313 100.998736 135.783551 104.090215 137.569093 107.181997 135.783551"></polygon>
            <polygon id="Fill-161" fill="#00E9B6" points="108.675186 131.350923 105.583403 133.136161 108.675186 134.921703 111.766968 133.136161"></polygon>
            <polygon id="Fill-163" fill="#00E9B6" points="113.260187 128.703533 110.168405 130.488771 113.260187 132.274313 116.351666 130.488771"></polygon>
            <polygon id="Fill-165" fill="#00E9B6" points="117.844855 126.056143 114.753072 127.841381 117.844855 129.626619 120.936637 127.841381"></polygon>
            <polygon id="Fill-167" fill="#00E9B6" points="122.429826 123.408601 119.338043 125.193839 122.429826 126.979381 125.521305 125.193839"></polygon>
            <polygon id="Fill-169" fill="#00E9B6" points="127.014523 120.76118 123.923044 122.546418 127.014523 124.33196 130.106306 122.546418"></polygon>
            <polygon id="Fill-171" fill="#00E9B6" points="131.599494 118.11379 128.507712 119.899028 131.599494 121.68457 134.691277 119.899028"></polygon>
            <polygon id="Fill-173" fill="#00E9B6" points="108.463646 120.639099 96.2021037 127.719361 103.670018 132.031486 115.93156 124.951225"></polygon>
            <polygon id="Fill-175" fill="#2D1443" points="107.604956 146.314271 104.513173 148.09951 107.604956 149.885051 110.696738 148.09951"></polygon>
            <polygon id="Fill-177" fill="#2D1443" points="112.189927 143.66673 109.098144 145.451968 112.189927 147.237509 115.281406 145.451968"></polygon>
            <polygon id="Fill-179" fill="#2D1443" points="116.774625 141.019339 113.683145 142.804578 116.774625 144.590119 119.866407 142.804578"></polygon>
            <polygon id="Fill-181" fill="#2D1443" points="121.359595 138.371919 118.267813 140.157157 121.359595 141.942699 124.451378 140.157157"></polygon>
            <polygon id="Fill-183" fill="#2D1443" points="125.944566 135.724529 122.852784 137.509767 125.944566 139.295309 129.036046 137.509767"></polygon>
            <polygon id="Fill-185" fill="#2D1443" points="130.529264 133.077139 127.437785 134.862377 130.529264 136.647615 133.621047 134.862377"></polygon>
            <polygon id="Fill-187" fill="#2D1443" points="135.114235 130.429597 132.022453 132.214835 135.114235 134.000377 138.206018 132.214835"></polygon>
            <polygon id="Fill-189" fill="#2D1443" points="139.698903 127.782207 136.607424 129.567445 139.698903 131.352986 142.790685 129.567445"></polygon>
            <polygon id="Fill-191" fill="#2D1443" points="144.283904 125.134786 141.192121 126.920024 144.283904 128.705566 147.375686 126.920024"></polygon>
            <polygon id="Fill-193" fill="#2D1443" points="103.376708 143.872686 100.285229 145.657924 103.376708 147.443466 106.468491 145.657924"></polygon>
            <polygon id="Fill-195" fill="#2D1443" points="107.961709 141.225296 104.869927 143.010534 107.961709 144.796076 111.053492 143.010534"></polygon>
            <polygon id="Fill-197" fill="#2D1443" points="112.54668 138.577875 109.454898 140.363113 112.54668 142.148655 115.638159 140.363113"></polygon>
            <polygon id="Fill-199" fill="#2D1443" points="117.131348 135.930485 114.039869 137.715723 117.131348 139.501265 120.22313 137.715723"></polygon>
            <polygon id="Fill-201" fill="#2D1443" points="121.716349 133.282943 118.624566 135.068181 121.716349 136.853723 124.808131 135.068181"></polygon>
            <polygon id="Fill-203" fill="#2D1443" points="126.30132 130.635553 123.209537 132.420791 126.30132 134.206333 129.392799 132.420791"></polygon>
            <polygon id="Fill-205" fill="#2D1443" points="130.885987 127.988163 127.794205 129.773401 130.885987 131.558943 133.97777 129.773401"></polygon>
            <polygon id="Fill-207" fill="#2D1443" points="135.470989 125.340773 132.379206 127.126011 135.470989 128.911553 138.562468 127.126011"></polygon>
            <polygon id="Fill-209" fill="#2D1443" points="140.055656 122.693201 136.964177 124.478439 140.055656 126.26398 143.147439 124.478742"></polygon>
            <polygon id="Fill-211" fill="#2D1443" points="103.733461 138.783862 100.641982 140.5691 103.733461 142.354642 106.825244 140.5691"></polygon>
            <polygon id="Fill-213" fill="#2D1443" points="112.903434 133.4889 109.811651 135.274138 112.903434 137.059679 115.994913 135.274138"></polygon>
            <polygon id="Fill-215" fill="#2D1443" points="117.488101 130.841509 114.396622 132.626748 117.488101 134.412289 120.579884 132.626748"></polygon>
            <polygon id="Fill-217" fill="#2D1443" points="122.073102 128.194119 118.98132 129.979357 122.073102 131.764899 125.164885 129.979357"></polygon>
            <polygon id="Fill-219" fill="#2D1443" points="126.65777 125.546729 123.566291 127.331967 126.658073 129.117206 129.749552 127.331967"></polygon>
            <polygon id="Fill-221" fill="#2D1443" points="131.242741 122.899187 128.150958 124.684425 131.242741 126.469967 134.334523 124.684425"></polygon>
            <polygon id="Fill-223" fill="#2D1443" points="135.827742 120.251767 132.73596 122.037005 135.827742 123.822547 138.919221 122.037005"></polygon>
            <polygon id="Fill-225" fill="#2D1443" points="94.9205461 138.989818 91.8287636 140.775056 94.9205461 142.560598 98.0123287 140.775056"></polygon>
            <polygon id="Fill-227" fill="#2D1443" points="99.5055171 136.342398 96.4137345 138.127636 99.5055171 139.912874 102.596996 138.127636"></polygon>
            <polygon id="Fill-229" fill="#2D1443" points="104.090215 133.694856 100.998736 135.480094 104.090215 137.265636 107.181997 135.480094"></polygon>
            <polygon id="Fill-231" fill="#2D1443" points="108.675186 131.047466 105.583403 132.832704 108.675186 134.618246 111.766968 132.832704"></polygon>
            <polygon id="Fill-233" fill="#2D1443" points="113.260187 128.400076 110.168405 130.185314 113.260187 131.970855 116.351666 130.185314"></polygon>
            <polygon id="Fill-235" fill="#2D1443" points="117.844855 125.752686 114.753072 127.537924 117.844855 129.323162 120.936637 127.537924"></polygon>
            <polygon id="Fill-237" fill="#2D1443" points="122.429826 123.105144 119.338043 124.890382 122.429826 126.675923 125.521305 124.890382"></polygon>
            <polygon id="Fill-239" fill="#2D1443" points="127.014523 120.457723 123.923044 122.242961 127.014523 124.028503 130.106306 122.242961"></polygon>
            <polygon id="Fill-241" fill="#2D1443" points="131.599494 117.810333 128.507712 119.595571 131.599494 121.381113 134.691277 119.595571"></polygon>
            <polygon id="Fill-243" fill="#2D1443" points="108.463646 120.335642 96.2021037 127.415904 103.670018 131.728029 115.93156 124.647768"></polygon>
            <polygon id="Fill-245" fill="#2D1443" points="153.717846 127.52703 107.605077 154.153873 132.115115 129.486756 178.227884 102.859912"></polygon>
            <polyline id="Fill-247" fill="#2D1443" points="178.227975 102.860033 179.734119 104.047157 133.621047 130.674001 132.115206 129.486877"></polyline>
            <polygon id="Fill-249" fill="#582178" points="155.22396 128.714063 109.111191 155.340907 133.621229 130.673789 179.733997 104.046945"></polygon>
            <polygon id="Fill-251" fill="#212149" points="20.2156764 46.2473485 29.445512 94.2761117 71.7325411 76.1918889 62.5102908 28.3002883"></polygon>
            <path d="M115.981714,103.725796 C115.981714,103.725796 117.828592,102.536851 115.226822,100.451191 C112.624748,98.3658334 103.862169,95.0089909 105.057922,78.340699 C106.253674,61.6718001 96.087201,83.9528347 96.087201,83.9528347 C96.087201,83.9528347 93.4848243,101.311795 101.773168,107.335722 C110.061209,113.359952 112.547378,110.443426 112.547378,110.443426 L115.981714,103.725796 Z" id="Fill-253" fill="#160F33"></path>
            <path d="M59.6072617,77.7231638 C68.018488,65.2334762 73.072445,65.6765236 86.1237724,62.3770344 C99.174493,59.0769384 97.2921163,60.9805248 101.750776,65.12848 C107.056263,70.0639064 101.441598,86.5388962 98.9335828,94.9910869 C92.5961871,117.371049 100.737982,113.631243 95.7052642,117.304288 L71.8675904,131.332503 C68.7572996,133.128362 68.1844551,133.511022 58.7079444,128.534325 L51.0540379,124.114472 C43.2329507,122.643919 53.6206119,86.6132431 59.6072617,77.7231638" id="Fill-255" fill="#2E2365"></path>
            <path d="M20.9985133,47.339521 L23.8888293,49.0085351 C25.0499924,49.6788718 27.0777042,49.5948142 28.418488,48.8206951 L61.4013451,29.7751202 C62.1325714,29.3530114 62.5081972,28.8128577 62.5103211,28.3003187 C62.5121416,27.8730511 62.254847,27.4645978 61.7266043,27.1596234 L58.8362882,25.4906093 C57.6754286,24.8202726 55.6474134,24.9043302 54.306933,25.6784493 L21.3237724,44.7240242 C20.5697901,45.1594851 20.1938609,45.7205773 20.2157067,46.2473789 C20.2330013,46.657046 20.4905992,47.046078 20.9985133,47.339521" id="Fill-257" fill="#383868"></path>
            <path d="M80.5042528,81.4172685 C80.5042528,81.4172685 72.6218761,83.2899023 62.1568445,76.0694439 C51.6918129,68.8489855 52.1232668,60.0117077 51.8586903,47.7250329 C51.5938104,35.4383581 57.8098407,8.3548114 68.7278685,8.3548114 C79.1212946,16.2410547 101.147287,18.9190636 109.454746,17.2828229 C117.762205,15.6465822 111.731863,40.2766782 111.731863,40.2766782 L80.5042528,81.4172685 Z" id="Fill-259" fill="#2E2365"></path>
            <path d="M86.8531176,86.9167003 C86.8531176,86.9167003 83.1056587,80.7677489 78.5423211,81.2280933 C73.9789836,81.6884378 65.100804,75.4168898 62.1567838,68.1339192 C59.2127636,60.8509487 54.835115,50.7355095 56.012359,36.3719743 C57.1899064,22.0084391 62.3291226,16.589909 67.3142048,14.7087784 C72.2989836,12.8279512 77.6360253,12.302667 86.1237118,15.7393187 C94.6110948,19.1759704 105.20356,20.8898962 109.110918,20.640151 C113.017972,20.3897988 112.934837,35.4412713 116.617669,49.4609896 C120.299894,63.4807079 123.453269,71.3633097 116.617669,74.4015223 C109.781765,77.4397348 98.8045714,81.6884378 96.2018913,81.6884378 C93.5995145,81.6884378 86.8531176,86.9167003 86.8531176,86.9167003" id="Fill-261" fill="#50398A"></path>
            <path d="M80.187823,78.9507691 C80.187823,78.9507691 66.1003388,78.3848216 61.2966979,58.7035041 C58.8891125,48.8378101 57.903019,38.8798652 59.1870645,31.0530995 C60.2832971,24.3718844 62.7075702,13.9790854 67.6401618,11.7869113 C72.6009709,9.5829023 72.4911353,14.183312 78.2629684,16.1621558 C80.613512,16.9681379 85.4183666,18.1501033 86.7503515,18.5773709 C91.9202124,20.2363709 97.776091,22.0067397 105.008556,22.0067397 C114.45685,22.0067397 117.241578,22.2880444 117.241578,31.8727371 C117.241578,41.4571264 114.96264,53.5802378 117.767393,62.8654183 C122.019429,76.9412762 97.2527029,77.5284657 93.7070139,79.2542262 C90.1610215,80.9802903 86.8532086,86.9168216 86.8532086,86.9168216 C86.8532086,86.9168216 84.6064324,79.1595476 80.187823,78.9507691" id="Fill-263" fill="#160F33"></path>
            <path d="M39.349957,104.74614 L32.4779469,106.38754 L32.4740025,109.582336 C32.4958483,109.987452 32.7537497,110.371932 33.2565057,110.662037 L66.8901846,130.083292 C68.0510442,130.753628 70.078756,130.669571 71.4195398,129.895452 L73.6593375,128.602117 C74.3675044,128.193361 74.74222,127.673539 74.7670999,127.175566 L74.7674033,124.044192 L39.349957,104.74614 Z" id="Fill-265" fill="#212149"></path>
            <path d="M66.8900632,127.048751 L33.2563843,107.627496 C32.6874842,107.299155 32.4326169,106.850646 32.4778255,106.38757 C32.5245512,105.905377 32.8977497,105.4071 33.5816435,105.011999 L35.8217446,103.718665 C37.1619216,102.944546 39.1899368,102.860488 40.3507965,103.530825 L73.9847788,122.95208 C74.4926928,123.245523 74.7502908,123.634555 74.7675853,124.044222 C74.7894311,124.571024 74.4135019,125.132116 73.6595196,125.567577 L71.4197219,126.860911 C70.0789381,127.63503 68.0509229,127.719088 66.8900632,127.048751" id="Fill-267" fill="#383868"></path>
            <path d="M72.6232111,74.6036854 C77.5864475,77.4698378 86.6330215,77.9614383 90.597421,74.6036854 C91.892086,73.5069914 91.2312516,68.3145369 91.74311,65.5816022 C92.9597977,59.0812475 93.3803287,52.7453666 89.88622,50.7276803 C84.9226802,47.8615279 80.7528698,47.1386931 75.78933,50.004542 C72.7564096,51.755793 73.2864728,58.0346239 73.0401011,64.4333205 C72.8835398,68.5069287 70.6925917,73.488784 72.6232111,74.6036854" id="Fill-269" fill="#D96D01"></path>
            <path d="M64.8183262,12.9947919 C64.8183262,12.9947919 64.787378,8.98308899 64.9915752,35.6961146 C65.1957724,62.4085333 65.2977193,75.7651978 92.0436106,75.5430672 C118.789502,75.3212401 118.687555,61.964879 118.483358,35.2521569 C118.279161,8.5394347 118.310109,12.5508342 118.310109,12.5508342 L105.008465,22.0065576 L78.262574,22.2286882 L64.8183262,12.9947919 Z" id="Fill-271" fill="#FB8D00"></path>
            <path d="M108.568536,45.987741 C108.583707,47.9923786 107.767828,47.6946872 106.76444,47.7028805 C105.760748,47.7113773 104.949421,48.0227243 104.933947,46.0180867 C104.918776,44.0131456 105.719788,42.3814567 106.723479,42.3729599 C107.727171,42.3647666 108.553062,43.9831033 108.568536,45.987741" id="Fill-273" fill="#8F2E07"></path>
            <path d="M78.5421391,46.2368186 C78.5576131,48.2414562 77.7414311,47.9437648 76.738043,47.9519581 C75.7343515,47.9604549 74.923024,48.2718019 74.9075499,46.2671643 C74.8926827,44.2622232 75.6936941,42.6305343 76.6973856,42.6220375 C77.7010771,42.6138442 78.526665,44.2321809 78.5421391,46.2368186" id="Fill-275" fill="#8F2E07"></path>
            <path d="M96.0204197,56.4423542 C96.0371075,58.6360456 94.2848951,62.3585539 92.0887889,62.3767613 C89.8926827,62.3949688 88.083732,58.7018958 88.0670442,56.5082044 C88.0500531,54.3148164 89.832,54.4513721 92.0281062,54.4331647 C94.2242124,54.4149572 96.0034286,54.2486627 96.0204197,56.4423542" id="Fill-277" fill="#8F2E07"></path>
            <path d="M78.2624526,22.2285972 C78.3067509,28.0437457 73.6232617,32.7967944 67.8010619,32.845044 C61.9788622,32.8935972 66.8835398,28.1384243 66.8392415,22.3232758 C66.7949431,16.5084307 61.8180531,11.8351913 67.6399494,11.7869416 C73.4624526,11.7386919 78.2181542,16.4134487 78.2624526,22.2285972" id="Fill-279" fill="#FB8D00"></path>
            <path d="M116.431798,21.91197 C116.476096,27.7271186 121.45329,32.4000545 115.630786,32.4483042 C109.80889,32.4965539 105.052885,27.8217972 105.008587,22.0066487 C104.963985,16.1918036 109.648081,11.4384515 115.469977,11.3902018 C121.29248,11.3419521 116.387499,16.0968215 116.431798,21.91197" id="Fill-281" fill="#FB8D00"></path>
            <path d="M88.4724349,41.1537907 L95.5128394,41.1537907" id="Stroke-286" stroke="#3A1A3E" stroke-width="3.03797468"></path>
            <path d="M108.568233,55.8892125 L106.554174,55.8892125 C100.456475,55.8892125 95.5129608,53.9798604 95.5129608,47.8806761 L95.5129608,41.1536389 C95.5129608,41.1536389 96.9183717,40.2432676 108.264212,40.2432676 C119.60975,40.2432676 119.60975,41.1536389 119.60975,41.1536389 L119.60975,47.8806761 C119.60975,53.9798604 114.666539,55.8892125 108.568233,55.8892125 Z" id="Stroke-288" stroke="#3A1A3E" stroke-width="3.03797468"></path>
            <path d="M77.4310088,55.8892125 L75.4166473,55.8892125 C69.3189482,55.8892125 64.3754336,53.9798604 64.3754336,47.8806761 L64.3754336,41.1536389 C64.3754336,41.1536389 65.0857244,40.2432676 76.4239798,40.2432676 C87.7622351,40.2432676 88.4725259,41.1536389 88.4725259,41.1536389 L88.4725259,47.8806761 C88.4725259,53.9798604 83.5290114,55.8892125 77.4310088,55.8892125 Z" id="Stroke-290" stroke="#3A1A3E" stroke-width="3.03797468"></path>
            <path d="M108.568233,55.8892125 L106.554174,55.8892125 C100.456475,55.8892125 95.5129608,53.9798604 95.5129608,47.8806761 L95.5129608,41.1536389 C95.5129608,41.1536389 96.9183717,40.2432676 108.264212,40.2432676 C119.60975,40.2432676 119.60975,41.1536389 119.60975,41.1536389 L119.60975,47.8806761 C119.60975,53.9798604 114.666539,55.8892125 108.568233,55.8892125" id="Fill-292" fill-opacity="0.8" fill="#3A1A3E"></path>
            <path d="M77.4310088,55.8892125 L75.4166473,55.8892125 C69.3189482,55.8892125 64.3754336,53.9798604 64.3754336,47.8806761 L64.3754336,41.1536389 C64.3754336,41.1536389 65.0857244,40.2432676 76.4239798,40.2432676 C87.7622351,40.2432676 88.4725259,41.1536389 88.4725259,41.1536389 L88.4725259,47.8806761 C88.4725259,53.9798604 83.5290114,55.8892125 77.4310088,55.8892125" id="Fill-294" fill-opacity="0.8" fill="#3A1A3E"></path>
            <path d="M119.337922,106.622446 C122.681537,107.977079 125.477795,108.883505 127.794053,112.557764 C130.110614,116.232022 132.445077,118.734936 132.022422,119.468696 C131.599464,120.202455 130.400374,120.682524 129.749552,119.468696 C129.099034,118.254867 127.149603,115.147163 126.65777,115.259746 C126.16624,115.372025 125.632536,115.523753 126.65777,117.395173 C127.683307,119.266593 128.714306,122.076606 127.794053,122.644071 C126.874104,123.211536 126.186265,123.405445 125.164976,120.400309 C124.143383,117.395173 123.792637,116.897504 123.209477,116.767017 C122.626316,116.636531 122.421512,118.103139 122.852662,119.671102 C123.283813,121.239065 123.35997,123.175121 122.429704,123.711936 C121.499742,124.249056 120.809477,123.211536 120.580096,119.57005 C120.350716,115.928565 118.988693,113.957611 117.806594,112.489182 C115.21514,109.269806 116.07289,108.645595 116.351727,107.684546 C116.709755,106.451296 117.83997,106.015532 119.337922,106.622446" id="Fill-300" fill="#FFB000"></path>
            <path d="M117.806625,112.489182 C117.806625,112.489182 116.313527,107.317363 121.203338,107.37593 C122.233729,104.835084 119.358584,105.465364 117.48804,103.495928 C115.617497,101.526794 114.565866,101.99776 113.260278,102.314266 C111.008951,102.860185 109.285563,106.366328 110.4889,109.134767 C111.305386,111.014077 113.373755,111.714456 114.396561,112.489182 C115.419064,113.264212 117.317826,113.683893 117.806625,112.489182" id="Fill-302" fill="#2E2365"></path>
            <path d="M86.1236511,125.497387 C86.1236511,125.497387 82.3176334,129.114292 78.5425638,128.14505 C74.7671909,127.175505 56.7007434,122.971107 56.0477977,104.74608 C55.3948521,86.5213563 64.0029937,74.412204 67.3141441,76.0696867 C70.6252946,77.7268659 67.6870392,95.8866496 71.5394791,103.07828 C76.4238281,112.197166 90.9791757,110.801566 90.9870645,116.458917 C90.9952566,122.116268 86.1236511,125.497387 86.1236511,125.497387" id="Fill-304" fill="#160F33"></path>
            <path d="M95.5128698,119.176042 C95.5128698,119.176042 100.954286,118.452903 105.583161,120.202637 C110.212339,121.952371 113.819924,126.359478 113.260126,129.006838 C112.974614,130.356008 111.053704,130.380285 110.577345,129.006838 C109.615221,126.231116 108.194336,125.218783 107.788976,125.850277 C107.497699,126.303642 109.228976,128.906394 109.454716,130.269523 C109.680455,131.632349 109.363692,132.352149 108.675247,132.371571 C107.986498,132.390992 107.484652,131.975256 106.825335,130.79238 C106.166018,129.609201 105.615019,127.370597 104.674134,127.938973 C103.733552,128.507044 106.140834,133.777791 104.749987,134.095814 C103.359444,134.413837 102.297497,131.69213 101.69067,129.006838 C101.083843,126.32185 98.1003793,124.17216 94.0042984,124.17216 C89.9082174,124.17216 92.8243236,119.323522 95.5128698,119.176042" id="Fill-306" fill="#FFB000"></path>
            <path d="M96.4136131,124.429339 C96.4136131,124.429339 95.8638281,126.342333 93.453512,125.947535 C91.0434994,125.553041 87.3027155,125.716301 86.1236511,125.497508 C84.3483793,123.189717 84.5847383,118.620867 86.7899469,117.123913 C88.9954589,115.627263 91.5068116,117.123913 94.1892895,117.123913 C96.8720708,117.123913 97.0292389,119.027803 97.0292389,119.027803 C95.5127788,119.17589 94.1777598,123.579356 96.4136131,124.429339" id="Fill-308" fill="#2E2365"></path>
            <path d="M59.3216283,30.2937891 C62.0317168,20.2508762 66.4812743,11.8781912 69.318493,12.1355228 C71.5394791,12.3370183 73.2273679,13.156656 74.1922225,14.0029978 C75.1567737,14.8490362 76.1562174,15.4953999 78.2631201,16.1620951 C79.4949785,16.5520375 87.4189229,16.1554191 82.227823,14.3689671 C77.0370265,12.5828186 74.955914,11.3777904 72.7655727,9.9536662 C70.5749279,8.529542 67.6175575,6.98069693 65.3853451,10.5014063 C63.3606675,13.6955958 58.5339671,23.1789338 57.6413249,26.9621335 C56.7483793,30.7453333 59.3216283,30.2937891 59.3216283,30.2937891" id="Fill-310" fill="#50398A"></path>
        </g>
    </g>
</svg>
