<?xml version="1.0" encoding="UTF-8"?>
<svg width="1025px" height="190px" viewBox="0 0 1025 190" version="1.1" xmlns="http://www.w3.org/2000/svg" xmlns:xlink="http://www.w3.org/1999/xlink">
    <!-- Generator: Sketch 53.2 (72643) - https://sketchapp.com -->
    <title>05_hero_datascientist</title>
    <desc>Created with Sketch.</desc>
    <defs>
        <polygon id="path-1" points="0.000212389381 0.0907606997 239.483287 0.0907606997 239.483287 138.318017 0.000212389381 138.318017"></polygon>
        <polygon id="path-3" points="0.000258156763 0.0907606997 239.483287 0.0907606997 239.483287 138.318017 0.000258156763 138.318017"></polygon>
    </defs>
    <g id="05_hero_datascientist" stroke="none" stroke-width="1" fill="none" fill-rule="evenodd">
        <rect x="0" y="0" width="1025" height="190"></rect>
        <g id="Group-190" transform="translate(905.000000, 154.000000) scale(-1, 1) translate(-905.000000, -154.000000) translate(785.000000, 31.000000)">
            <path d="M43.8753375,129.830489 C43.8753375,129.830489 24.7715196,132.297465 10.2085866,115.929214 C-4.35464981,99.5612656 3.33779014,69.2541263 16.2820126,57.6875763 C29.2262351,46.1213297 14.3043641,35.4104715 8.8432263,41.325088 C-0.713689001,26.3108982 21.1308622,-0.98721529 57.9937699,13.1169869 C74.4742756,19.4222915 70.2374109,43.102294 65.9234791,67.5020967 C60.5885613,97.6791078 51.9221643,128.957204 43.8753375,129.830489" id="Fill-1" fill="#DF8300"></path>
            <path d="M8.8432263,41.3250274 C11.8588521,38.0587783 17.757512,39.8638905 20.2576384,44.0816834 C22.4058053,42.9005194 25.9190291,40.8955132 31.3531631,37.6113677 C42.0961214,31.1186057 32.7115449,7.51443551 14.8083338,17.3007462 C6.87073578,24.2251457 4.28808091,34.1688843 8.8432263,41.3250274" id="Fill-3" fill="#FFB000"></path>
            <path d="M15.6010013,121.03749 C11.448182,115.208716 8.5354134,106.112782 8.5354134,92.0595396 C8.5354134,82.8513744 8.1934665,75.5466 7.63852339,69.7545285 C0.856323641,83.9024101 -0.614624526,103.764711 10.2087383,115.929123 C11.9539722,117.89136 13.7653502,119.579993 15.6010013,121.03749" id="Fill-5" fill="#FFB000"></path>
            <path d="M18.085775,104.138443 L20.9757876,105.806754 C22.1372541,106.476808 24.1649659,106.393089 25.5054463,105.619296 L58.4886068,86.5814441 C59.248354,86.1431334 62.6581138,115.910347 62.6305032,115.380431 C62.6086574,114.974879 59.3169254,84.257639 58.8135626,83.9673529 L55.9232465,82.2990422 C54.7623869,81.6289879 52.7343717,81.7127068 51.3938913,82.4864996 L18.4107307,101.524352 C17.619732,101.980862 17.2450164,102.575387 17.3087332,103.123807 C17.353335,103.505091 17.6097193,103.86393 18.085775,104.138443" id="Fill-7" fill="#283C46"></path>
            <path d="M91.1459014,95.4642281 L91.1459014,119.851291 C91.1459014,135.886487 90.2214008,139.041111 79.8049153,146.059846" id="Stroke-9" stroke="#091B21" stroke-width="5.76485461"></path>
            <path d="M101.43735,143.217257 L68.4171732,124.158475 C67.2560101,123.488421 65.2279949,123.57214 63.8875145,124.345932 L38.1583616,139.196628 L29.8032668,138.665802 L29.7965917,144.906194 C29.8132794,145.315992 30.0711808,145.70486 30.5793982,145.997876 L73.4098407,170.719207 C74.5707004,171.389262 76.5987155,171.305543 77.939196,170.53175 L110.922357,151.493898 C111.623545,151.089257 111.997957,150.576024 112.028905,150.082507 L112.029512,143.890344 L101.43735,143.217257 Z" id="Fill-11" fill="#283C46"></path>
            <polygon id="Fill-13" fill="#394850" points="51.8585992 158.28004 60.2370569 163.116018 60.2370569 157.623029 51.8585992 152.820114"></polygon>
            <path d="M73.4098407,164.652623 L30.5793982,139.931291 C29.9998786,139.596719 29.7459216,139.138085 29.8032668,138.665802 C29.8612187,138.192001 30.2329001,137.704551 30.904354,137.3172 L63.8875145,118.279348 C65.2279949,117.505555 67.2560101,117.421836 68.4171732,118.091891 L111.247616,142.813222 C111.749461,143.102902 112.007059,143.48631 112.029512,143.890344 C112.059247,144.42117 111.683317,144.988396 110.922357,145.427313 L77.939196,164.465165 C76.5987155,165.238958 74.5707004,165.322677 73.4098407,164.652623" id="Fill-15" fill="#142329"></path>
            <path d="M41.4838635,124.12884 C41.4838635,124.12884 39.4473527,142.714125 55.0224728,151.814001 C70.5978963,160.913878 78.6089204,160.913878 78.6089204,160.913878 L104.580197,143.320783 C104.580197,143.320783 106.805128,137.343681 103.770994,133.45682 C100.73686,129.569656 92.4664172,126.822403 82.5435853,123.84826 C72.6204501,120.87442 41.4838635,124.12884 41.4838635,124.12884" id="Fill-17" fill="#3A1A3E"></path>
            <path d="M41.4838635,124.12884 L41.4838635,148.515903 C41.4838635,164.551099 47.6871504,165.566645 58.5566321,159.271957" id="Stroke-19" stroke="#091B21" stroke-width="5.76485461"></path>
            <g id="Group-23" transform="translate(0.303413, 107.087956)">
                <mask id="mask-2" fill="white">
                    <use xlink:href="#path-1"></use>
                </mask>
                <g id="Clip-22"></g>
                <path d="M133.674448,1.75712552 L2.88688748,77.246366 C0.971438685,78.352001 0.000212389381,76.6955201 0.000212389381,78.0371453 C0.000212389381,78.5294486 0.000819216182,81.1602229 0.00172945638,81.1853993 C0.0369254109,82.2607014 0.708075853,83.2829208 2.0403641,84.0518604 L94.0180126,137.140541 C97.0403135,138.884684 102.3191,138.665984 105.808657,136.651878 L236.596521,61.1626372 C240.086078,59.1482279 240.465345,56.1012858 237.443044,54.3568395 L145.465092,1.26846215 C142.443095,-0.475984217 137.164308,-0.257283847 133.674448,1.75712552" id="Fill-21" fill="#4C6370" mask="url(#mask-2)"></path>
            </g>
            <g id="Group-26" transform="translate(0.303413, 104.054663)">
                <mask id="mask-4" fill="white">
                    <use xlink:href="#path-3"></use>
                </mask>
                <g id="Clip-25"></g>
                <path d="M133.674448,1.75712552 L2.88688748,77.246366 C0.960819216,78.3580676 -0.0179924147,79.7843216 0.000515802781,81.1329233 C0.0147762326,82.2273351 0.686230088,83.2704843 2.0403641,84.0518604 L94.0180126,137.140541 C97.0403135,138.884684 102.3191,138.665984 105.808657,136.651878 L236.596521,61.1626372 C240.086078,59.1482279 240.465345,56.1012858 237.443044,54.3568395 L145.465092,1.26846215 C142.443095,-0.475984217 137.164308,-0.257283847 133.674448,1.75712552" id="Fill-24" fill="#6F8790" mask="url(#mask-4)"></path>
            </g>
            <path d="M76.8753982,84.9250239 L70.0033881,86.5657317 L69.9997472,89.7591818 C70.0212895,90.1641263 70.2791909,90.5481411 70.7819469,90.8384271 L104.415626,110.251497 C105.576789,110.921552 107.604501,110.837529 108.944981,110.063737 L111.185082,108.770644 C111.893249,108.362363 112.267661,107.84276 112.292541,107.344693 L112.292845,104.214943 L76.8753982,84.9250239 Z" id="Fill-27" fill="#283C46"></path>
            <path d="M104.415474,107.218236 L70.7817952,87.8051652 C70.2131985,87.476963 69.9580278,87.0286424 70.0032364,86.565762 C70.0502655,86.0834686 70.4231606,85.5857053 71.1070544,85.1907707 L73.3471555,83.8979815 C74.6873325,83.1238853 76.7153477,83.0401665 77.8765107,83.7102207 L111.51019,103.123291 C112.018104,103.41661 112.276005,103.805478 112.292996,104.214973 C112.314842,104.741552 111.939216,105.302408 111.185234,105.737686 L108.945133,107.030475 C107.604652,107.804268 105.576637,107.88829 104.415474,107.218236" id="Fill-29" fill="#4C6370"></path>
            <path d="M104.415474,107.218236 L70.7817952,87.8051652 C70.2131985,87.476963 69.9580278,87.0286424 70.0032364,86.565762 C70.0502655,86.0834686 70.4231606,85.5857053 71.1070544,85.1907707 L73.3471555,83.8979815 C74.6873325,83.1238853 76.7153477,83.0401665 77.8765107,83.7102207 L111.51019,103.123291 C112.018104,103.41661 112.276005,103.805478 112.292996,104.214973 C112.314842,104.741552 111.939216,105.302408 111.185234,105.737686 L108.945133,107.030475 C107.604652,107.804268 105.576637,107.88829 104.415474,107.218236" id="Fill-31" fill="#445C67"></path>
            <polygon id="Fill-33" fill="#283C46" points="8.07907965 55.1155265 17.3089153 103.123746 59.5962478 85.0474476 50.3736941 37.1757263"></polygon>
            <path d="M85.4755601,93.5746387 C75.9723489,88.7213711 72.9200101,76.1195586 72.5416536,71.3011739 C72.4633729,70.7454747 72.4306043,70.1976621 72.4609456,69.6719926 C72.6530063,66.3657041 75.0527029,65.1599704 77.8210468,66.9793391 C77.821957,66.9799457 77.8228673,66.9808557 77.8234741,66.9814624 C83.3704779,70.627783 89.711818,74.7745968 92.108177,76.7905228 C101.777355,84.9249026 108.84446,93.0553391 101.6569,100.123213 C96.1872668,105.50215 76.6177092,101.86584 85.4755601,93.5746387" id="Fill-35" fill="#00CAB3"></path>
            <path d="M81.9563894,95.7841494 C82.0665284,86.9718289 82.9801062,69.5974343 76.5310544,66.295999 C71.1108774,63.5217499 60.1555297,62.4688942 48.49778,69.1979497 C36.8397269,75.9267018 37.4960101,77.8076464 38.1504728,86.4485859 L38.0460986,120.312867 C38.0460986,130.239923 35.3259975,130.876611 38.9171985,132.949866 L46.5714083,137.367856 C56.0476157,142.342455 61.1719646,142.262983 64.2822554,140.468184 L88.1196258,126.445881 C93.1526473,122.77408 81.9563894,119.034638 81.9563894,95.7841494" id="Fill-37" fill="#00AC96"></path>
            <path d="M8.86188622,56.2071174 L11.7522023,57.8754281 C12.9136688,58.5454824 14.9413805,58.4617635 16.2818609,57.6876673 L49.2650215,38.6501186 C49.9959444,38.228491 50.3718736,37.6882617 50.3736941,37.1759386 C50.375818,36.748851 50.11822,36.3405699 49.5899772,36.0360274 L46.6996612,34.3677166 C45.5388015,33.6973591 43.5107863,33.7813813 42.1703059,34.5551741 L9.18714539,53.5927228 C8.43316308,54.0280002 8.05723388,54.588856 8.07907965,55.1154355 C8.09637421,55.52493 8.35397219,55.913798 8.86188622,56.2071174" id="Fill-39" fill="#445C67"></path>
            <path d="M27.2133603,113.589636 L20.3413502,115.230343 L20.3377092,118.423793 C20.3592516,118.828738 20.617153,119.212753 21.119909,119.503039 L54.7535879,138.916109 C55.9147509,139.586163 57.9424627,139.502141 59.2829431,138.728348 L61.5230442,137.435256 C62.2309077,137.026975 62.6056233,136.507372 62.6305032,136.009305 L62.6308066,132.879554 L27.2133603,113.589636 Z" id="Fill-41" fill="#283C46"></path>
            <path d="M54.7534665,135.882847 L21.1197876,116.469777 C20.5511909,116.141575 20.2960202,115.692951 20.3412288,115.230374 C20.3879545,114.74808 20.761153,114.250317 21.4450468,113.855382 L23.6851479,112.56229 C25.0253249,111.788497 27.0533401,111.704778 28.2141997,112.374832 L61.848182,131.787903 C62.3560961,132.081222 62.6139975,132.47009 62.6309886,132.879584 C62.6528344,133.406164 62.2772086,133.96702 61.5232263,134.401994 L59.2831252,135.695086 C57.9426448,136.468879 55.9146296,136.552901 54.7534665,135.882847" id="Fill-43" fill="#445C67"></path>
            <path d="M51.9910392,72.5400917 C56.9542756,75.4047329 66.0008496,75.8961263 69.9652491,72.5397884 C71.259914,71.4438599 70.5993831,66.2535936 71.1109381,63.5218106 C72.3276258,57.0241953 72.7481568,50.6909845 69.254048,48.6738451 C64.2905082,45.8092039 60.1206979,45.0863704 55.157158,47.9513149 C52.1242377,49.7018279 52.6546043,55.9780128 52.4082326,62.3740128 C52.2513679,66.445601 50.0604197,71.4256602 51.9910392,72.5400917" id="Fill-45" fill="#F79500"></path>
            <path d="M35.7824223,1.60427793 C35.7824223,1.60427793 35.7514741,-2.4057344 35.9556713,24.2960338 C36.1598685,50.9971953 36.2618154,64.3482311 63.0077067,64.1261941 C89.753598,63.9044604 89.6516511,50.553728 89.4474539,23.8522631 C89.2432566,-2.84950506 89.2742048,1.16050727 89.2742048,1.16050727 L75.9725613,10.6122459 L49.22667,10.8342829 L35.7824223,1.60427793 Z" id="Fill-47" fill="#FFB000"></path>
            <path d="M79.5326321,34.5833534 C79.5478028,36.5871462 78.7319241,36.2895803 77.728536,36.2977702 C76.7248445,36.3062634 75.9135171,36.6171758 75.898043,34.6136863 C75.8828723,32.6095901 76.6838837,30.9782856 77.6875752,30.9700957 C78.6912668,30.9619058 79.517158,32.5795605 79.5326321,34.5833534" id="Fill-49" fill="#8F2E07"></path>
            <path d="M49.5062655,34.8324777 C49.5217396,36.8359672 48.7055575,36.5384012 47.7021694,36.5465911 C46.6984779,36.5550843 45.8871504,36.8663001 45.8716764,34.8625073 C45.8568091,32.8587144 46.6578205,31.2274099 47.661512,31.21922 C48.6652035,31.2110301 49.4907914,32.8286848 49.5062655,34.8324777" id="Fill-51" fill="#8F2E07"></path>
            <path d="M66.9845158,45.0334091 C67.0012035,47.2261761 65.2489912,50.947419 63.052885,50.9656187 C60.8567788,50.9838185 59.0478281,47.2919985 59.0311403,45.0995349 C59.0141492,42.9067679 60.7960961,43.0432661 62.9922023,43.0253697 C65.1883085,43.0071699 66.9675247,42.8406422 66.9845158,45.0334091" id="Fill-53" fill="#8F2E07"></path>
            <path d="M49.2265487,10.8342222 C49.270847,16.6466168 44.5873578,21.3979657 38.765158,21.4461951 C32.9429583,21.4947277 37.8476359,16.7415588 37.8033375,10.9288609 C37.7590392,5.11616301 32.7821492,0.44549963 38.6040455,0.397270284 C44.4265487,0.349040937 49.1822503,5.02182762 49.2265487,10.8342222" id="Fill-55" fill="#FFB000"></path>
            <path d="M87.3958938,10.5175465 C87.4401922,16.3302444 92.4173856,21.0015144 86.5948824,21.0497438 C80.7729861,21.0979731 76.016981,16.4251864 75.9726827,10.6121852 C75.9280809,4.79979063 80.612177,0.0487450062 86.4340733,0.000515659679 C92.2565765,-0.048017016 87.3515954,4.70515191 87.3958938,10.5175465" id="Fill-57" fill="#FFB000"></path>
            <path d="M57.0118938,34.4713642 C57.0118938,34.4713642 57.2707054,29.7512582 59.4364703,29.7512582 L66.4768748,29.7512582 C67.7281517,29.7512582 68.830756,33.6669351 68.830756,33.6669351" id="Stroke-62" stroke="#3A1A3E" stroke-width="3.03413401"></path>
            <path d="M57.0429937,33.6668441 C57.0429937,39.533838 52.2854716,44.2897369 46.417153,44.2897369 C40.5482276,44.2897369 35.7907054,39.533838 35.7907054,33.6668441 C35.7907054,27.799547 40.5482276,23.0436481 46.417153,23.0436481 C52.2854716,23.0436481 57.0429937,27.799547 57.0429937,33.6668441 Z" id="Stroke-64" stroke="#3A1A3E" stroke-width="3.03413401"></path>
            <path d="M90.0833477,33.6668441 C90.0833477,39.533838 85.3258255,44.2897369 79.4572035,44.2897369 C73.5885815,44.2897369 68.830756,39.533838 68.830756,33.6668441 C68.830756,27.799547 73.5885815,23.0436481 79.4572035,23.0436481 C85.3258255,23.0436481 90.0833477,27.799547 90.0833477,33.6668441 Z" id="Stroke-66" stroke="#3A1A3E" stroke-width="3.03413401"></path>
            <path d="M74.4803742,50.9403211 C72.8953426,45.6090067 65.1931934,48.56222 63.0832566,50.6715714 C60.9730164,48.56222 52.8749128,45.709712 50.9834336,50.9403211 C49.7919292,54.2341731 52.0678331,55.0355689 52.0678331,55.0355689 C54.1158736,48.5312804 56.5462149,55.5712483 59.9198685,55.5712483 C62.7403995,55.5712483 63.055646,55.1978501 63.0832566,52.4545406 C63.1105638,55.1978501 63.4258104,55.5712483 66.2463413,55.5712483 C69.6196915,55.5712483 71.3479343,48.5312804 73.3962781,55.0355689 C73.3962781,55.0355689 75.376354,53.9532903 74.4803742,50.9403211" id="Fill-68" fill="#3A1A3E"></path>
            <path d="M50.9833123,50.9403211 C48.7140834,56.5755714 51.4848546,66.1316552 62.1886726,66.1316552 C72.8921871,66.1316552 76.8963338,58.327601 74.4802528,50.9403211 C72.2853603,51.2099808 73.3961568,51.8848883 73.3961568,55.0355689 C73.3961568,58.1865529 69.4866751,61.3715097 62.9214159,61.3715097 C56.3561568,61.3715097 51.7233375,58.7097958 52.0677118,54.4289105 C52.4117826,50.1483285 50.9833123,50.9403211 50.9833123,50.9403211" id="Fill-70" fill="#3A1A3E"></path>
            <path d="M101.65693,100.123183 C92.803024,107.486803 81.1874488,101.160872 79.8047939,99.7425048 C78.2322023,97.4854321 77.5507358,94.7870153 79.8047939,91.754633 C82.0594589,88.7222508 109.58755,93.5275924 101.65693,100.123183" id="Fill-72" fill="#00CAB3"></path>
            <path d="M48.4976283,69.1978284 L52.2013957,64.3794436 C55.5975019,70.1678752 62.6303211,70.1499788 62.6303211,70.1499788 L60.2369962,77.5994412 C60.2369962,77.5994412 50.9555803,78.692943 48.4976283,69.1978284" id="Fill-74" fill="#00CAB3"></path>
            <path d="M63.6887484,74.7848493 C63.6887484,74.7848493 67.8476359,74.1536212 69.9654614,72.5399097 C70.5155499,74.7178136 70.9573198,80.169853 71.0905183,82.9795916 C71.2234134,85.7893302 72.6898104,106.567382 76.0780278,115.818923 C79.4662453,125.070465 81.4803034,129.540021 81.4590645,130.36356 C79.8063717,131.336336 69.6857143,137.289476 69.6857143,137.289476 C69.6857143,137.289476 70.9503413,130.530391 69.9997472,119.711547 C69.0488496,108.892704 66.8861188,87.9241613 66.0653856,83.2580478 C65.2446523,78.5916311 63.6887484,74.7848493 63.6887484,74.7848493" id="Fill-76" fill="#F2F2F2"></path>
            <path d="M69.1804096,69.5766866 C69.1804096,69.5766866 70.9984627,66.12662 71.1107257,63.5216286 C73.8023059,68.8028937 73.0003843,74.4326841 73.0003843,74.4326841 L69.1804096,69.5766866 Z" id="Fill-78" fill="#00CAB3"></path>
            <path d="M62.6303818,70.1498878 C62.6303818,70.1498878 64.8170822,74.4574661 66.0653249,83.2579568 C67.313871,92.0581443 60.2370569,77.5996535 60.2370569,77.5996535 L62.6303818,70.1498878 Z" id="Fill-80" fill="#00AC96"></path>
            <polygon id="Fill-82" fill="#00AC96" points="69.1804096 69.5766866 73.0003843 74.4326841 71.090397 82.9795916"></polygon>
            <path d="M46.0140379,77.4309721 C46.0140379,80.7433273 43.6880708,84.7706293 40.8186903,86.4268069 C37.9496131,88.0829845 35.623646,86.7404493 35.623646,83.4280942 C35.623646,80.1163457 37.9496131,76.088437 40.8186903,74.4325628 C43.6880708,72.7763852 46.0140379,74.1189203 46.0140379,77.4309721" id="Fill-84" fill="#00CAB3"></path>
            <path d="M46.0140379,77.4309721 C44.3737851,75.7914777 40.8186903,74.4325628 40.8186903,74.4325628 C24.7505234,84.8795245 21.1198786,116.469746 41.4837724,124.128809 C61.8482731,131.787872 68.6171226,109.490444 69.1805613,106.11257 C69.7436966,102.734089 63.6781593,97.6991275 61.5958331,101.360311 C53.8894362,114.909724 42.3594235,115.520326 43.3676662,102.660684 C44.1101188,93.1992385 46.4169709,95.4641978 46.0140379,77.4309721" id="Fill-86" fill="#00CAB3"></path>
            <path d="M80.9833123,98.6169107 C80.9833123,98.6169107 77.5444248,97.9225901 75.0160809,92.867002 C72.487737,87.8114138 67.3136283,92.0580229 67.3136283,92.0580229 C67.3136283,92.0580229 66.3921618,88.0137344 67.6698357,87.407076 C68.9478129,86.8004175 72.5887737,85.38478 76.7355247,86.5980969 C80.8819722,87.8114138 84.247737,92.6015889 83.8796966,95.4641068 C83.5116561,98.326928 82.4873325,99.2608787 80.9833123,98.6169107" id="Fill-88" fill="#FFB000"></path>
            <path d="M63.6887484,102.660593 C63.6887484,102.660593 63.8592668,91.4513645 67.3136283,90.137039 C70.7682933,88.8227134 74.3082174,90.0360303 75.6229077,91.6536851 C76.937598,93.2713398 77.7468015,96.7268663 76.6341846,97.2234163 C75.521871,97.7202695 74.9150442,95.4641068 74.9150442,95.4641068 C74.004804,99.3379243 70.0604298,105.000171 68.3409861,105.000171 C66.6215424,105.000171 63.6887484,102.660593 63.6887484,102.660593" id="Fill-90" fill="#F79500"></path>
            <polygon id="Fill-92" fill="#30454E" points="161.037937 142.729989 114.925168 169.345611 83.4253957 151.164361 83.4253957 149.020127 161.037937 140.586058"></polygon>
            <polygon id="Fill-94" fill="#4C6370" points="161.037937 140.585936 114.925168 167.201559 83.4253957 149.020309 129.538468 122.404686"></polygon>
            <polygon id="Fill-98" fill="#30454E" points="119.509714 157.325342 116.418235 159.110131 119.509714 160.894617 122.601497 159.110131"></polygon>
            <polygon id="Fill-100" fill="#30454E" points="124.094685 154.679188 121.002903 156.463674 124.094685 158.248463 127.186468 156.463674"></polygon>
            <polygon id="Fill-102" fill="#30454E" points="128.679686 152.032762 125.587904 153.817551 128.679686 155.602037 131.771166 153.817551"></polygon>
            <polygon id="Fill-104" fill="#30454E" points="133.264354 149.386639 130.172571 151.171125 133.264354 152.955914 136.356137 151.171125"></polygon>
            <polygon id="Fill-106" fill="#30454E" points="137.849325 146.740213 134.757542 148.524699 137.849325 150.309488 140.940804 148.525002"></polygon>
            <polygon id="Fill-108" fill="#30454E" points="142.434023 144.093787 139.342544 145.878576 142.434023 147.663062 145.525805 145.878576"></polygon>
            <polygon id="Fill-110" fill="#30454E" points="147.018994 141.447634 143.927211 143.23212 147.018994 145.016909 150.110776 143.23212"></polygon>
            <polygon id="Fill-112" fill="#30454E" points="151.603965 138.801208 148.512182 140.585997 151.603965 142.370483 154.695444 140.585997"></polygon>
            <polygon id="Fill-114" fill="#30454E" points="110.696799 157.531211 107.605016 159.316 110.696799 161.100486 113.788582 159.316"></polygon>
            <polygon id="Fill-116" fill="#30454E" points="115.28177 154.885058 112.189987 156.669544 115.28177 158.454333 118.373249 156.669544"></polygon>
            <polygon id="Fill-118" fill="#30454E" points="119.866468 152.238632 116.774989 154.023421 119.866468 155.807907 122.95825 154.023421"></polygon>
            <polygon id="Fill-120" fill="#30454E" points="124.451439 149.592509 121.359656 151.376995 124.451439 153.161784 127.543221 151.376995"></polygon>
            <polygon id="Fill-122" fill="#30454E" points="129.036137 146.946083 125.944657 148.730569 129.03644 150.515358 132.127919 148.730872"></polygon>
            <polygon id="Fill-124" fill="#30454E" points="133.621107 144.299657 130.529325 146.084446 133.621107 147.868932 136.71289 146.084446"></polygon>
            <polygon id="Fill-126" fill="#30454E" points="138.206078 141.653504 135.114296 143.437989 138.206078 145.222779 141.297558 143.437989"></polygon>
            <polygon id="Fill-128" fill="#30454E" points="142.790776 139.007077 139.699297 140.791867 142.790776 142.576352 145.882559 140.791867"></polygon>
            <polygon id="Fill-130" fill="#30454E" points="147.375747 136.360955 144.283965 138.14544 147.375747 139.929926 150.46753 138.14544"></polygon>
            <polygon id="Fill-132" fill="#30454E" points="111.053552 152.444501 107.96177 154.229291 111.053552 156.013776 114.145335 154.229291"></polygon>
            <polygon id="Fill-134" fill="#30454E" points="120.223221 147.151952 117.131742 148.936438 120.223221 150.721227 123.315004 148.936438"></polygon>
            <polygon id="Fill-136" fill="#30454E" points="124.808192 144.505526 121.71641 146.290315 124.808192 148.074801 127.899975 146.290315"></polygon>
            <polygon id="Fill-138" fill="#30454E" points="129.39286 141.859403 126.301381 143.643889 129.39286 145.428678 132.484642 143.643889"></polygon>
            <polygon id="Fill-140" fill="#30454E" points="133.977861 139.212977 130.886078 140.997766 133.977861 142.782252 137.069643 140.997766"></polygon>
            <polygon id="Fill-142" fill="#30454E" points="138.562832 136.566521 135.471049 138.35131 138.562832 140.135796 141.654311 138.35131"></polygon>
            <polygon id="Fill-144" fill="#30454E" points="143.147499 133.920398 140.05602 135.704884 143.147499 137.489673 146.239282 135.704884"></polygon>
            <polygon id="Fill-146" fill="#30454E" points="102.240637 152.650401 99.1488546 154.43519 102.240637 156.219676 105.332116 154.43519"></polygon>
            <polygon id="Fill-148" fill="#30454E" points="106.825305 150.004248 103.733826 151.788734 106.825305 153.57322 109.917087 151.788734"></polygon>
            <polygon id="Fill-150" fill="#30454E" points="111.410306 147.357822 108.318523 149.142308 111.410306 150.927097 114.502088 149.142308"></polygon>
            <polygon id="Fill-152" fill="#30454E" points="115.994973 144.711396 112.903494 146.496185 115.995277 148.280671 119.086756 146.496185"></polygon>
            <polygon id="Fill-154" fill="#30454E" points="120.579944 142.065273 117.488162 143.849759 120.579944 145.634548 123.671727 143.849759"></polygon>
            <polygon id="Fill-156" fill="#30454E" points="125.164946 139.418847 122.073163 141.203333 125.164946 142.988122 128.256425 141.203636"></polygon>
            <polygon id="Fill-158" fill="#30454E" points="129.749613 136.772421 126.658134 138.55721 129.749613 140.341696 132.841396 138.55721"></polygon>
            <polygon id="Fill-160" fill="#30454E" points="134.334584 134.126268 131.242802 135.910753 134.334584 137.695543 137.426367 135.910753"></polygon>
            <polygon id="Fill-162" fill="#30454E" points="138.919585 131.479841 135.827803 133.264631 138.919585 135.049116 142.011064 133.264631"></polygon>
            <polygon id="Fill-164" fill="#30454E" points="115.783707 134.004238 103.522164 141.081212 110.989775 145.391521 123.251317 138.314546"></polygon>
            <polygon id="Fill-166" fill="#30454E" points="161.037937 140.585936 114.925168 167.201559 139.435206 142.544836 185.547975 115.929214"></polygon>
            <polygon id="Fill-168" fill="#30454E" points="187.054149 117.115838 140.941077 143.73146 139.435236 142.544836 185.548005 115.929214"></polygon>
            <polygon id="Fill-170" fill="#425863" points="162.544051 141.772318 116.430979 168.38794 140.941016 143.731521 187.054088 117.115898"></polygon>
            <polygon id="Fill-172" fill="#4C6370" points="143.661906 165.409763 216.484764 123.376826 216.486281 73.6984757 143.663424 115.731413"></polygon>
            <polygon id="Fill-174" fill="#30454E" points="143.663363 115.731322 216.48622 73.698688 214.478837 72.5396671 141.656283 114.572908"></polygon>
            <polygon id="Fill-176" fill="#30454E" points="143.663363 115.731322 143.661846 165.409672 141.654463 164.251258 141.656283 114.572908"></polygon>
            <polygon id="Fill-180" fill="#4C6370" points="179.633264 176.557415 192.118119 169.351223 192.118119 123.885812 179.633264 131.092005"></polygon>
            <polygon id="Fill-182" fill="#30454E" points="179.633264 131.092096 192.118119 123.885903 188.34396 121.707393 175.858802 128.913282"></polygon>
            <polygon id="Fill-184" fill="#30454E" points="179.633264 131.092096 179.633264 176.557506 175.858802 174.378996 175.858802 128.913282"></polygon>
            <path d="M68.2971429,167.941258 C72.6841972,170.47345 80.6481922,171.802335 84.1404804,169.786409 C87.6327686,167.770787 83.6386346,162.043931 79.7303666,158.821968 C75.8572946,155.629125 71.746043,155.871181 68.2537547,157.886804 C64.7614665,159.902427 63.9103919,165.409065 68.2971429,167.941258" id="Fill-186" fill="#425863"></path>
            <path d="M69.0737598,163.13716 C71.8393729,164.733885 76.8605613,165.571377 79.0624324,164.300731 C81.2643034,163.029781 79.8130771,160.131774 77.0468571,158.535049 C74.281244,156.938627 71.2480202,157.248326 69.0461492,158.519276 C66.8442781,159.790225 66.3078432,161.540738 69.0737598,163.13716" id="Fill-188" fill="#4C6370"></path>
        </g>
    </g>
</svg>
