<?xml version="1.0" encoding="UTF-8"?>
<svg width="60px" height="79px" viewBox="0 0 60 79" version="1.1" xmlns="http://www.w3.org/2000/svg" xmlns:xlink="http://www.w3.org/1999/xlink">
    <!-- Generator: Sketch 53.2 (72643) - https://sketchapp.com -->
    <title>Group 51</title>
    <desc>Created with Sketch.</desc>
    <defs>
        <polygon id="path-1" points="0.282618368 0.31511236 35.8211797 0.31511236 35.8211797 68.3330469 0.282618368 68.3330469"></polygon>
        <polygon id="path-3" points="0 0.502974081 59.1688235 0.502974081 59.1688235 76.3290315 0 76.3290315"></polygon>
    </defs>
    <g id="New-desktop-concept" stroke="none" stroke-width="1" fill="none" fill-rule="evenodd">
        <g id="1.0-Home-Concept--v7" transform="translate(-135.000000, -403.000000)">
            <g id="Group-51" transform="translate(135.000000, 403.000000)">
                <path d="M38.7611471,68.1460213 C29.4787941,73.0014146 24.8932059,77.0978753 18.8358529,77.0978753 C12.7785,77.0978753 4.83114706,73.0742011 4.42791176,69.0123584 C4.02379412,64.9487404 17.2414412,60.3871562 23.2052647,59.6681674 C29.1690882,58.9500663 43.5205588,65.6561899 38.7611471,68.1460213" id="Fill-1" fill="#022336"></path>
                <path d="M6.28597059,12.0183854 C7.32891176,16.1601157 14.9180294,15.3692281 14.9180294,11.5612506 C14.9180294,7.75238539 10.2230294,6.83900337 10.2230294,6.83900337 C10.2230294,6.83900337 5.31626471,8.16691348 6.28597059,12.0183854" id="Fill-3" fill="#FFD026"></path>
                <g id="Group-7" transform="translate(0.000000, 0.572972)">
                    <mask id="mask-2" fill="white">
                        <use xlink:href="#path-1"></use>
                    </mask>
                    <g id="Clip-6"></g>
                    <path d="M21.5806765,67.8113809 C21.5806765,67.8113809 18.6424412,70.8497742 8.26244118,62.2609652 C-0.680205882,54.862482 -3.83108824,39.9989427 7.95891176,28.1374034 C24.2939118,11.7045157 4.62097059,3.41484157 6.28597059,11.4453247 C4.31744118,3.52313371 19.1506765,-0.79878764 25.3739118,0.562852809 C33.2083235,2.27777416 40.8203824,15.340291 31.5830294,30.8793247 C22.3456765,46.4174708 15.2206765,67.0497854 21.5806765,67.8113809" id="Fill-5" fill="#E26A00" mask="url(#mask-2)"></path>
                </g>
                <path d="M15.069,65.1848528 L14.5078235,67.2060101 C12.8119412,66.2819764 10.7534118,64.895482 8.26252941,62.8343809 C4.98282353,60.120864 2.64370588,56.5489989 1.51782353,52.4765045 C4.16576471,61.681336 15.069,65.1848528 15.069,65.1848528" id="Fill-8" fill="#FFD026"></path>
                <path d="M31.3989706,35.8130079 C32.4454412,35.8130079 33.3869118,35.0815921 33.6172059,34.0102101 C33.8819118,32.7781652 33.1045588,31.5620978 31.8798529,31.2940303 C31.7325,31.2611876 19.7007353,28.4127494 20.3810294,21.7021876 C20.5080882,20.4461764 19.5992647,19.3241989 18.3507353,19.1963787 C17.1030882,19.0694461 15.9877941,19.9828281 15.8607353,21.2379517 C15.5325,24.4831652 16.5604412,29.1361764 23.3263235,32.8669292 C27.0057353,34.8960753 30.7583824,35.7260191 30.9163235,35.7606371 C31.0786765,35.7952551 31.2392647,35.8130079 31.3989706,35.8130079" id="Fill-10" fill="#F69400"></path>
                <path d="M14.6881765,54.3563494 C19.4678824,45.3077427 28.2146471,33.2349449 33.9322941,32.6313494 C39.6508235,32.0286416 41.6105294,35.7478551 40.8667059,39.3250461 C40.2967059,42.0740685 38.6555294,43.4552371 37.1140588,44.892327 C35.2796471,46.6019225 33.5872941,48.3896303 34.0064118,52.6538551 C34.7784706,60.5014843 23.1411176,64.9290348 20.1764118,61.1911809 C17.2125882,57.4542146 14.6881765,54.3563494 14.6881765,54.3563494" id="Fill-12" fill="#F69400"></path>
                <path d="M34.3175294,40.2113551 C35.2263529,47.8281978 39.9213529,57.5780404 40.3748824,62.9100966 C40.8292941,68.2421528 38.6887059,68.8191191 37.4975294,68.5475011 C36.2763529,68.2678944 35.9842941,67.0234225 34.6210588,66.1100404 C33.2578235,65.1948831 27.6548824,67.3287708 26.1407647,63.3672315 C24.6266471,59.4065798 34.3175294,40.2113551 34.3175294,40.2113551" id="Fill-14" fill="#F69400"></path>
                <path d="M35.8443529,41.0686382 C29.9414118,42.1906157 28.347,47.4791775 28.947,55.6774247 C29.7243529,66.3131326 27.2008235,66.8705708 25.9893529,68.0893011 C33.1567059,68.1922674 38.1305294,64.4730539 36.8917059,54.6841551 C35.9899412,47.5528517 35.3537647,46.4601663 37.1131765,44.8925933 C38.9405294,43.263773 38.8664118,40.4952225 35.8443529,41.0686382" id="Fill-16" fill="#FFD026"></path>
                <path d="M30.9922941,55.9686596 C31.6196471,66.1845135 21.9005294,72.0509292 21.5978824,75.0981989 C21.2943529,78.1436933 15.3128824,77.6874461 15.8431765,74.3357157 C16.1599412,72.3287607 10.1767059,63.6574011 14.6881765,54.3567045 C19.3593529,44.7275809 30.3861176,46.1043112 30.9922941,55.9686596" id="Fill-18" fill="#F69400"></path>
                <g id="Group-22" transform="translate(0.000000, 2.348253)">
                    <mask id="mask-4" fill="white">
                        <use xlink:href="#path-3"></use>
                    </mask>
                    <g id="Clip-21"></g>
                    <path d="M4.72120588,33.6892393 C4.72120588,32.8486438 5.30885294,33.3483854 6.03238235,32.9276438 L50.6220882,7.02984607 C51.3465,6.60910449 51.9332647,5.42676742 51.9332647,6.26736292 L51.9332647,41.6114303 C51.9332647,42.4520258 51.3465,43.4745876 50.6220882,43.8962169 L6.03238235,69.7940146 C5.30885294,70.2138685 4.72120588,69.8739022 4.72120588,69.0315315 L4.72120588,33.6892393 Z M-0.000264705882,35.213318 L-0.000264705882,72.9930708 C-0.000264705882,74.6760371 3.02797059,77.2777112 5.13679412,75.977318 L54.0315,45.572082 C55.4803235,44.7297112 56.6547353,41.770318 56.6547353,40.0873517 L59.1694412,3.76687978 C59.1694412,1.00631798 55.4803235,-0.0579629213 54.0315,0.784407865 L2.62297059,30.6419697 C1.17414706,31.4843404 -0.000264705882,33.529464 -0.000264705882,35.213318 L-0.000264705882,35.213318 Z" id="Fill-20" fill="#0D5C91" mask="url(#mask-4)"></path>
                </g>
                <path d="M7.23511765,37.4981045 C7.23511765,36.6566213 7.82276471,35.6331719 8.54629412,35.2124303 L53.136,9.31463258 C53.8604118,8.89389101 54.4471765,9.23474494 54.4471765,10.0762281 L54.4471765,45.4194079 C54.4471765,46.260891 53.8604118,47.2834528 53.136,47.7041944 L8.54629412,73.6028798 C7.82276471,74.0227337 7.23511765,73.6818798 7.23511765,72.8403966 L7.23511765,37.4981045 Z M2.51364706,39.0212955 L2.51364706,76.8010483 C2.51364706,78.4840146 3.68805882,79.1657225 5.13688235,78.325127 L56.5462941,48.4657899 C57.9942353,47.6243067 59.1686471,45.5791831 59.1686471,43.8962169 L59.1686471,6.1155764 C59.1686471,4.43261011 57.9942353,3.75001461 56.5462941,4.59238539 L5.13688235,34.4508348 C3.68805882,35.292318 2.51364706,37.3383292 2.51364706,39.0212955 L2.51364706,39.0212955 Z" id="Fill-23" fill="#1686B6"></path>
                <path d="M3.75176471,57.0401303 C3.75176471,57.8443326 4.31294118,58.1700966 5.00558824,57.7679955 C5.69823529,57.3658944 6.25941176,56.3886022 6.25941176,55.5835124 C6.25941176,54.7793101 5.69823529,54.4526584 5.00558824,54.8547596 C4.31294118,55.2568607 3.75176471,56.2359281 3.75176471,57.0401303" id="Fill-25" fill="#102F66"></path>
                <polygon id="Fill-27" fill="#102F66" points="56.7425294 33.0920348 57.5295882 32.6349 57.5295882 19.432136 56.7425294 19.8892708"></polygon>
                <path d="M45.141,16.2832315 C45.141,16.2832315 44.8171765,15.0591753 46.9754118,23.2086022 C49.1345294,31.3571416 50.2145294,35.4314112 42.1074706,37.6034674 C33.9995294,39.7737483 32.9195294,35.6994787 30.7604118,27.5500517 C28.6012941,19.4015124 28.926,20.6255685 28.926,20.6255685 L33.7348235,22.3910854 L41.8427647,20.2199169 L45.141,16.2832315 Z" id="Fill-29" fill="#F69400"></path>
                <path d="M34.6518529,29.9887551 C34.8142059,30.6003393 35.0365588,30.4414517 35.3400882,30.3597888 C35.6445,30.2781258 35.9162647,30.3047551 35.7539118,29.6940584 C35.5915588,29.0824742 35.2139118,28.6528562 34.9095,28.7345191 C34.6050882,28.8152944 34.4895,29.3780584 34.6518529,29.9887551" id="Fill-31" fill="#8E2E01"></path>
                <path d="M43.7536765,27.5512056 C43.9160294,28.1627899 44.1383824,28.0039022 44.4419118,27.923127 C44.7463235,27.841464 45.0180882,27.8680933 44.8557353,27.256509 C44.6933824,26.6449247 44.3157353,26.2153067 44.0113235,26.2969697 C43.7069118,26.3786326 43.5913235,26.940509 43.7536765,27.5512056" id="Fill-33" fill="#8E2E01"></path>
                <path d="M39.6503824,32.0283753 C39.8277353,32.6976562 40.6668529,33.6838247 41.3330294,33.5062966 C41.9983235,33.3278809 42.2392059,32.0514539 42.0609706,31.3830607 C41.8836176,30.7146674 41.3568529,30.9046225 40.6915588,31.0830382 C40.0253824,31.2614539 39.4730294,31.3590944 39.6503824,32.0283753" id="Fill-35" fill="#8E2E01"></path>
                <path d="M47.4002647,23.6876618 L42.1520294,25.0927966 C41.9085,25.1575944 41.7055588,25.3155944 41.5776176,25.5357292 C41.4514412,25.7567517 41.4170294,26.0123921 41.4814412,26.2573809 L41.7099706,27.1192798 C42.1132059,28.6415831 43.6714412,29.550527 45.1855588,29.1448753 L46.7702647,28.7214708 C47.4999706,28.5253022 48.1132059,28.0530775 48.4943824,27.3900101 C48.8764412,26.7269427 48.9787941,25.9582461 48.7837941,25.2223921 L48.5561471,24.3613809 C48.4440882,23.9362011 48.0602647,23.6557067 47.6420294,23.6557067 C47.5626176,23.6557067 47.4814412,23.6663584 47.4002647,23.6876618 M40.8320294,27.3553921 L40.6035,26.491718 C40.4764412,26.0115045 40.5435,25.5099876 40.7923235,25.0777067 C41.0411471,24.6454258 41.4408529,24.3374146 41.9173235,24.2095944 L47.1655588,22.8044596 C48.1537941,22.5399427 49.1711471,23.1328865 49.4340882,24.1261562 L49.6617353,24.9880551 C49.9193824,25.9582461 49.7835,26.9737067 49.2805588,27.8480326 C48.7776176,28.7223584 47.9685,29.3463697 47.0040882,29.604673 L45.4202647,30.0289652 C45.0982059,30.1141787 44.7743824,30.1558978 44.4558529,30.1558978 C42.7987941,30.1558978 41.2793824,29.0401337 40.8320294,27.3553921" id="Fill-37" fill="#3A1A3E"></path>
                <path d="M36.0296471,26.7328899 L30.7805294,28.1380247 C30.5378824,28.2028225 30.3349412,28.3599348 30.2078824,28.5809573 C30.0808235,28.8010921 30.0464118,29.0576202 30.1108235,29.3017213 L30.3393529,30.1645079 C30.7425882,31.6868112 32.3008235,32.5957551 33.8158235,32.1892157 L35.3996471,31.7658112 C36.1293529,31.5705303 36.7425882,31.097418 37.1237647,30.4352382 C37.5058235,29.7721708 37.6081765,29.0025865 37.4140588,28.2676202 L37.1864118,27.406609 C37.0734706,26.9814292 36.6896471,26.7000472 36.2722941,26.7000472 C36.1928824,26.7000472 36.1108235,26.7106989 36.0296471,26.7328899 M29.4614118,30.3997326 L29.2328824,29.5369461 C29.1058235,29.0567326 29.1728824,28.5552157 29.4217059,28.1220472 C29.6705294,27.6906539 30.0702353,27.3817551 30.5475882,27.2548225 L35.7949412,25.8488 C36.7831765,25.5851708 37.8005294,26.177227 38.0634706,27.1704966 L38.2911176,28.0323955 C38.5487647,29.0034742 38.4128824,30.0189348 37.9099412,30.8932607 C37.407,31.7675865 36.5978824,32.3907101 35.6334706,32.6490135 L34.0496471,33.0741933 C33.7275882,33.1594067 33.4037647,33.2002382 33.0852353,33.2002382 C31.4281765,33.2002382 29.9087647,32.0844742 29.4614118,30.3997326" id="Fill-39" fill="#3A1A3E"></path>
                <path d="M41.8425,20.219473 C42.3119118,21.9938663 44.1242647,23.0483831 45.8889706,22.5752708 C47.6545588,22.1030461 45.7751471,21.066282 45.3057353,19.2918888 C44.8354412,17.5183831 45.9516176,15.6791921 44.1869118,16.1523045 C42.4222059,16.6245292 41.3722059,18.4459674 41.8425,20.219473" id="Fill-41" fill="#F69400"></path>
                <path d="M30.2719412,23.3176045 C30.7422353,25.0919978 29.6251765,26.9303011 31.3907647,26.4580764 C33.1554706,25.9858517 34.2045882,24.1644135 33.7351765,22.3909079 C33.2648824,20.6165146 31.4534118,19.5619978 29.6878235,20.0342225 C27.9231176,20.5073348 29.8016471,21.5440989 30.2719412,23.3176045" id="Fill-43" fill="#F69400"></path>
                <polygon id="Fill-45" fill="#3A1A3E" points="37.5108529 28.216936 41.5996765 27.1224753 41.3658529 26.2383854 37.2770294 27.3337337"></polygon>
                <path d="M52.0438235,47.9322292 C53.2411765,47.9322292 54.2435294,46.9895551 54.3097059,45.7708247 C54.3785294,44.5112629 53.4185294,43.4336674 52.1655882,43.3644315 C46.3023529,43.0439933 40.8229412,36.4150944 40.7682353,36.3485213 C39.9723529,35.3756674 38.5420588,35.2318697 37.5732353,36.0316337 C36.6035294,36.8296225 36.4597059,38.2667124 37.2520588,39.2431169 C37.5255882,39.5804202 44.0417647,47.4972854 51.9176471,47.9286787 C51.96,47.9304539 52.0023529,47.9322292 52.0438235,47.9322292" id="Fill-47" fill="#F69400"></path>
                <path d="M21.6569118,24.7426225 C21.9675,24.7426225 22.2816176,24.6787124 22.5825,24.5420157 C23.7269118,24.0245213 24.2404412,22.6797461 23.7260294,21.529364 C22.5472059,18.8930719 19.5975,18.4341618 17.2919118,19.342218 L18.9498529,23.5975663 L18.9233824,23.6073303 C19.1351471,23.5309933 19.4439706,23.482173 19.6239706,23.4919371 C20.0227941,24.2774989 20.8230882,24.7426225 21.6569118,24.7426225" id="Fill-49" fill="#F69400"></path>
            </g>
        </g>
    </g>
</svg>