<?xml version="1.0" encoding="UTF-8"?>
<svg width="1025px" height="190px" viewBox="0 0 1025 190" version="1.1" xmlns="http://www.w3.org/2000/svg" xmlns:xlink="http://www.w3.org/1999/xlink">
    <!-- Generator: Sketch 53.2 (72643) - https://sketchapp.com -->
    <title>06_hero_ethicalhacker copy</title>
    <desc>Created with Sketch.</desc>
    <defs>
        <polygon id="path-1" points="0.221932028 0.0915057618 83.8401823 0.0915057618 83.8401823 141.306254 0.221932028 141.306254"></polygon>
        <polygon id="path-3" points="0 0.106148577 279.397168 0.106148577 279.397168 161.730987 0 161.730987"></polygon>
        <polygon id="path-5" points="6.29942521e-05 0.106148577 279.397168 0.106148577 279.397168 161.730987 6.29942521e-05 161.730987"></polygon>
    </defs>
    <g id="06_hero_ethicalhacker-copy" stroke="none" stroke-width="1" fill="none" fill-rule="evenodd">
        <rect x="0" y="0" width="1025" height="190"></rect>
        <g id="Group-189" transform="translate(885.000000, 158.500000) scale(-1, 1) translate(-885.000000, -158.500000) translate(745.000000, 20.000000)">
            <g id="Group-3" transform="translate(16.637168, 0.263168)">
                <mask id="mask-2" fill="white">
                    <use xlink:href="#path-1"></use>
                </mask>
                <g id="Clip-2"></g>
                <path d="M48.7101239,141.151504 C48.7101239,141.151504 26.4223363,144.036063 9.43189381,124.897527 C-7.55819469,105.758635 1.41631858,70.3214332 16.5179115,56.7973781 C31.6191504,43.273323 14.2106549,30.7490926 7.83932743,37.6648711 C-3.31076106,20.1095971 22.1745487,-11.8095988 65.1812743,4.68200935 C108.188,21.1736175 65.688531,139.305428 48.7101239,141.151504" id="Fill-1" fill="#DF8300" mask="url(#mask-2)"></path>
            </g>
            <path d="M24.4764956,37.9279324 C27.9943717,34.1088082 34.8764956,36.2198248 37.7933097,41.1512051 C40.2991504,39.7701065 44.3982655,37.4257147 50.7380885,33.5856648 C63.2715398,25.9938786 52.3228673,-1.60539411 31.4357876,9.8370822 C22.1752566,17.9335688 19.1621593,29.56083 24.4764956,37.9279324" id="Fill-4" fill="#FFB000"></path>
            <path d="M32.3602124,131.133644 C27.5152566,124.318238 24.1170265,113.682644 24.1170265,97.2506213 C24.1170265,86.483798 23.7180885,77.9425508 23.0706549,71.1697058 C15.1580885,87.7123869 13.4419823,110.936762 26.0692389,125.160588 C28.1056991,127.454616 30.2189735,129.429438 32.3602124,131.133644" id="Fill-6" fill="#FFB000"></path>
            <path d="M42.0197168,144.910475 L45.3917522,146.861179 C46.7464425,147.644653 49.1121062,147.546409 50.676,146.641636 L89.156354,124.381619 C90.0427257,123.869115 94.0211327,158.674999 93.9885664,158.05503 C93.9630796,157.581186 90.1230796,121.664465 89.535823,121.324688 L86.1637876,119.373983 C84.8094513,118.59051 82.4434336,118.688754 80.8791858,119.593526 L42.3991858,141.853544 C41.476354,142.387683 41.0388319,143.082843 41.1131681,143.724092 C41.1655575,144.169562 41.4646726,144.589496 42.0197168,144.910475" id="Fill-8" fill="#30454E"></path>
            <path d="M120.496283,101.231264 L120.496283,129.746658 C120.496283,148.495763 119.417699,152.184722 107.265133,160.391157" id="Stroke-10" stroke="#0F0F1E" stroke-width="6.72566372"></path>
            <path d="M132.502619,157.067725 L93.9790796,134.782525 C92.6247434,133.999051 90.2587257,134.097296 88.6948319,135.002068 L58.6774867,152.366528 L48.9298761,151.745494 L48.9217345,159.042192 C48.9415575,159.521356 49.2424425,159.976048 49.8350088,160.319017 L99.8038584,189.224907 C101.158549,190.008381 103.524566,189.910136 105.08846,189.005364 L143.568814,166.745346 C144.386513,166.271857 144.823681,165.672104 144.859788,165.09505 L144.860496,157.854745 L132.502619,157.067725 Z" id="Fill-12" fill="#30454E"></path>
            <polygon id="Fill-14" fill="#394850" points="60.5014513 174.680208 70.2763186 180.334767 70.2763186 173.91163 60.5014513 168.296085"></polygon>
            <path d="M99.8038584,182.131437 L49.8350088,153.225547 C49.1592566,152.834342 48.8629735,152.297721 48.9298761,151.745494 C48.9974867,151.191494 49.4307611,150.621889 50.2144779,150.168616 L88.6948319,127.908598 C90.2587257,127.003826 92.6247434,126.905582 93.9790796,127.689055 L143.947929,156.594945 C144.533416,156.933658 144.834301,157.381966 144.860496,157.854745 C144.895186,158.475424 144.456602,159.138309 143.568814,159.651876 L105.08846,181.911894 C103.524566,182.816666 101.158549,182.914911 99.8038584,182.131437" id="Fill-16" fill="#213237"></path>
            <path d="M62.5572389,134.747909 C62.5572389,134.747909 60.1813097,156.479109 78.3522832,167.119314 C96.5232566,177.759519 105.869451,177.759519 105.869451,177.759519 L136.169274,157.188456 C136.169274,157.188456 138.765381,150.199969 135.225558,145.655183 C131.685735,141.110042 122.036885,137.897764 110.460248,134.420191 C98.8832566,130.942617 62.5572389,134.747909 62.5572389,134.747909" id="Fill-18" fill="#0C0F11"></path>
            <path d="M62.5572389,134.747909 L62.5572389,163.263303 C62.5572389,182.012408 69.7944071,183.20021 82.475469,175.840026" id="Stroke-20" stroke="#0F0F1E" stroke-width="6.72566372"></path>
            <g id="Group-24" transform="translate(0.353982, 114.822707)">
                <mask id="mask-4" fill="white">
                    <use xlink:href="#path-3"></use>
                </mask>
                <g id="Clip-23"></g>
                <path d="M155.953628,2.05437529 L3.36778761,90.3216134 C1.13345133,91.6143983 0,89.6775264 0,91.2466019 C0,91.822237 0.0010619469,94.8983202 0.0017699115,94.9277581 C0.0428318584,96.184721 0.82619469,97.3803254 2.38017699,98.2794227 L109.687788,160.354023 C113.213451,162.39375 119.372035,162.137676 123.44354,159.782999 L276.029381,71.5157607 C280.100531,69.160374 280.542655,65.5976787 277.016991,63.5579515 L169.709381,1.48335096 C166.183363,-0.556376312 160.024779,-0.301011396 155.953628,2.05437529" id="Fill-22" fill="#4C6370" mask="url(#mask-4)"></path>
            </g>
            <g id="Group-27" transform="translate(0.353982, 111.275972)">
                <mask id="mask-6" fill="white">
                    <use xlink:href="#path-5"></use>
                </mask>
                <g id="Clip-26"></g>
                <path d="M155.953628,2.05437529 L155.953628,2.05437529 L3.36778761,90.3216134 C1.12070796,91.6214918 -0.0208849558,93.2895213 0.000353982301,94.8663996 C0.0173451327,96.1457069 0.800353982,97.3654291 2.38017699,98.2794227 L109.687788,160.354023 C113.213451,162.39375 119.372035,162.137676 123.44354,159.782999 L276.029381,71.5157607 C280.100531,69.160374 280.542655,65.5976787 277.016991,63.5579515 L169.709381,1.48335096 C166.183363,-0.556376312 160.024779,-0.301011396 155.953628,2.05437529" id="Fill-25" fill="#6F8790" mask="url(#mask-6)"></path>
            </g>
            <path d="M103.847363,88.9084524 L95.8296637,90.8268813 L95.8254159,94.5608839 C95.8509027,95.0340183 96.1517876,95.4833896 96.7379823,95.8228122 L135.977628,118.521916 C137.331965,119.30539 139.697628,119.207145 141.261876,118.302373 L143.874973,116.7904 C144.701168,116.312655 145.138336,115.705454 145.167363,115.12308 L145.167717,111.463559 L103.847363,88.9084524 Z" id="Fill-28" fill="#212149"></path>
            <polygon id="Fill-30" fill="#F2F6F7" points="175.788389 140.446235 192.070867 131.02327 168.088212 117.144541 151.806088 126.567507"></polygon>
            <path d="M135.977487,114.974862 L96.7378407,92.275758 C96.0744779,91.8920013 95.7771327,91.3677939 95.8295221,90.8265621 C95.8843894,90.2629859 96.3197876,89.680612 97.1176637,89.2191818 L99.731115,87.7072087 C101.294655,86.8024366 103.660673,86.7041921 105.015009,87.4876658 L144.254655,110.18677 C144.847221,110.529739 145.147752,110.98443 145.167929,111.463594 C145.193416,112.079307 144.754832,112.735099 143.875186,113.2437 L141.262088,114.755673 C139.697841,115.660446 137.331823,115.75869 135.977487,114.974862" id="Fill-32" fill="#4C6370"></path>
            <path d="M153.532779,111.783474 C153.532779,111.783474 158.049593,109.735944 162.981982,111.419224 C164.375965,111.894132 163.726407,117.802638 161.656319,119.405408 C158.534903,121.823217 152.962513,120.220447 152.962513,120.220447 L153.532779,111.783474 Z" id="Fill-34" fill="#DF8300"></path>
            <path d="M166.575858,117.537236 C166.575858,117.537236 165.867894,121.504614 163.699752,121.607824 C161.531611,121.711034 158.832496,121.742245 159.186478,117.537236 C159.54046,113.331872 161.664354,113.331872 161.664354,113.331872 L166.575858,117.537236 Z" id="Fill-36" fill="#FFB000"></path>
            <polygon id="Fill-38" fill="#00CAB3" points="152.380602 99.2777931 165.785912 121.993921 169.186619 124.090396 168.832637 120.469534 154.662018 97.8590991"></polygon>
            <path d="M163.213699,112.372303 C166.76308,113.51116 165.558124,114.034658 166.974053,114.680873 C168.389982,115.326733 168.736177,116.411325 167.814761,117.144435 C166.893699,117.877545 166.354584,117.543443 165.558124,116.479422 C164.761664,115.415402 163.743965,112.844019 163.743965,112.844019 L163.213699,112.372303 Z" id="Fill-40" fill="#FFB000"></path>
            <path d="M149.093133,112.935489 C149.093133,112.935489 153.438973,111.320661 158.049593,111.382019 C162.659504,111.443378 163.801805,110.211597 164.723929,111.394787 C165.646761,112.577978 164.215257,113.198657 161.656319,113.819335 C159.098088,114.440014 153.532779,118.482228 153.532779,118.482228 L149.093133,112.935489 Z" id="Fill-42" fill="#FFB000"></path>
            <polygon id="Fill-44" fill="#30454E" points="23.5849912 54.0527727 41.1134867 143.724163 90.448708 122.587396 72.928708 33.0766729"></polygon>
            <path d="M117.41554,81.3075511 C117.41554,81.3075511 114.867221,96.4542374 122.422973,103.9797 C129.978726,111.505162 143.867575,108.499304 149.093062,108.499304 C154.319257,108.499304 156.925628,121.401971 151.374832,124.526645 C145.823681,127.651673 123.381204,129.779714 115.369522,116.538688 C107.357487,103.297308 113.785805,84.1449391 117.41554,81.3075511" id="Fill-46" fill="#0385B8"></path>
            <path d="M69.5418407,90.8411392 C79.3549381,76.2431328 85.2512212,76.7613108 100.477416,72.9045912 C115.703611,69.0478716 113.507504,71.2723837 118.709274,76.1204157 C124.898655,81.8888255 118.348566,101.144759 115.422195,111.023125 C108.02892,137.18065 117.527681,132.809299 111.656177,137.102622 L83.8455575,153.498114 C80.216885,155.597071 79.5485664,156.044669 68.4926372,150.227669 L59.5630796,145.062204 C50.4384779,143.343457 62.5574159,101.231299 69.5418407,90.8411392" id="Fill-48" fill="#00BDDC"></path>
            <polygon id="Fill-50" fill="#30454E" points="179.337522 151.557482 125.539292 182.678308 88.7895575 161.419533 88.7895575 158.912346 179.337522 149.05065"></polygon>
            <polygon id="Fill-52" fill="#4C6370" points="179.337522 149.050543 125.539292 180.171369 88.7895575 158.912595 142.588142 127.791769"></polygon>
            <polygon id="Fill-56" fill="#30454E" points="130.888283 168.623732 127.281204 170.710276 130.888283 172.797175 134.495009 170.710276"></polygon>
            <polygon id="Fill-58" fill="#30454E" points="136.237097 165.529348 132.630372 167.616247 136.237097 169.702791 139.844177 167.616247"></polygon>
            <polygon id="Fill-60" fill="#30454E" points="141.58623 162.435283 137.97915 164.521827 141.58623 166.608726 145.19331 164.521827"></polygon>
            <polygon id="Fill-62" fill="#30454E" points="146.935009 159.340898 143.328283 161.427443 146.935009 163.514341 150.542088 161.427797"></polygon>
            <polygon id="Fill-64" fill="#30454E" points="152.284177 156.246514 148.677097 158.333413 152.284177 160.419957 155.891257 158.333413"></polygon>
            <polygon id="Fill-66" fill="#30454E" points="157.63331 153.152484 154.02623 155.239028 157.63331 157.325927 161.240035 155.239028"></polygon>
            <polygon id="Fill-68" fill="#30454E" points="162.982088 150.0581 159.375363 152.144999 162.982088 154.231543 166.589168 152.144999"></polygon>
            <polygon id="Fill-70" fill="#30454E" points="168.331257 146.964035 164.724177 149.050579 168.331257 151.137123 171.938336 149.050579"></polygon>
            <polygon id="Fill-72" fill="#30454E" points="120.606195 168.864449 116.999469 170.950993 120.606195 173.037892 124.213274 170.950993"></polygon>
            <polygon id="Fill-74" fill="#30454E" points="125.955363 165.770065 122.348283 167.856964 125.955363 169.943508 129.562442 167.856964"></polygon>
            <polygon id="Fill-76" fill="#30454E" points="131.304496 162.676 127.697416 164.762544 131.304496 166.849443 134.911221 164.762544"></polygon>
            <polygon id="Fill-78" fill="#30454E" points="136.653274 159.581615 133.046195 161.668159 136.653274 163.755058 140.260354 161.668514"></polygon>
            <polygon id="Fill-80" fill="#30454E" points="142.002442 156.487231 138.395363 158.57413 142.002442 160.660674 145.609168 158.57413"></polygon>
            <polygon id="Fill-82" fill="#30454E" points="147.351221 153.393201 143.744496 155.479745 147.351221 157.566644 150.958301 155.479745"></polygon>
            <polygon id="Fill-84" fill="#30454E" points="152.700354 150.298817 149.093274 152.385716 152.700354 154.47226 156.307434 152.385716"></polygon>
            <polygon id="Fill-86" fill="#30454E" points="158.049522 147.204787 154.442442 149.291331 158.049522 151.377875 161.656248 149.291331"></polygon>
            <polygon id="Fill-88" fill="#30454E" points="163.398301 144.110367 159.791575 146.196911 163.398301 148.28381 167.005381 146.196911"></polygon>
            <polygon id="Fill-90" fill="#30454E" points="121.022407 162.916752 117.415681 165.003296 121.022407 167.090195 124.629487 165.003296"></polygon>
            <polygon id="Fill-92" fill="#30454E" points="131.720354 156.727948 128.113628 158.814847 131.720354 160.901391 135.327434 158.814847"></polygon>
            <polygon id="Fill-94" fill="#30454E" points="137.069487 153.633918 133.462407 155.720462 137.069487 157.807361 140.676566 155.720462"></polygon>
            <polygon id="Fill-96" fill="#30454E" points="142.418619 150.539534 138.81154 152.626433 142.418619 154.712977 146.025345 152.626433"></polygon>
            <polygon id="Fill-98" fill="#30454E" points="147.767434 147.445504 144.160708 149.532048 147.767434 151.618592 151.374513 149.532048"></polygon>
            <polygon id="Fill-100" fill="#30454E" points="153.116566 144.35112 149.509487 146.437664 153.116566 148.524563 156.723646 146.437664"></polygon>
            <polygon id="Fill-102" fill="#30454E" points="158.465699 141.2567 154.858619 143.343599 158.465699 145.430143 162.072425 143.343599"></polygon>
            <polygon id="Fill-104" fill="#30454E" points="110.740673 163.157469 107.133593 165.244013 110.740673 167.330557 114.347752 165.244013"></polygon>
            <polygon id="Fill-106" fill="#30454E" points="116.089805 160.063085 112.482726 162.149629 116.089805 164.236528 119.696531 162.149629"></polygon>
            <polygon id="Fill-108" fill="#30454E" points="121.438619 156.9687 117.83154 159.055599 121.438619 161.142143 125.045699 159.055599"></polygon>
            <polygon id="Fill-110" fill="#30454E" points="126.787752 153.874635 123.180673 155.961179 126.787752 158.048078 130.394478 155.961179"></polygon>
            <polygon id="Fill-112" fill="#30454E" points="132.136566 150.780251 128.529841 152.866795 132.136566 154.953694 135.743646 152.867149"></polygon>
            <polygon id="Fill-114" fill="#30454E" points="137.485699 147.685866 133.878619 149.772765 137.485699 151.859309 141.092779 149.772765"></polygon>
            <polygon id="Fill-116" fill="#30454E" points="142.834832 144.591836 139.227752 146.678381 142.834832 148.76528 146.441558 146.678381"></polygon>
            <polygon id="Fill-118" fill="#30454E" points="148.183646 141.497452 144.57692 143.584351 148.183646 145.670895 151.790726 143.584351"></polygon>
            <polygon id="Fill-120" fill="#30454E" points="153.532779 138.403387 149.925699 140.489931 153.532779 142.57683 157.139858 140.489931"></polygon>
            <polygon id="Fill-122" fill="#30454E" points="126.54092 141.354731 112.235788 149.629973 120.948354 154.669884 135.253487 146.394642"></polygon>
            <polygon id="Fill-124" fill="#30454E" points="179.337522 149.050543 125.539292 180.171369 154.134336 151.34138 207.932566 120.220554"></polygon>
            <polyline id="Fill-126" fill="#30454E" points="207.932673 120.220483 209.689841 121.607611 155.891257 152.728437 154.134442 151.341309"></polyline>
            <polygon id="Fill-128" fill="#4C6370" points="181.094655 150.438062 127.296425 181.558887 155.891469 152.728543 209.689699 121.607717"></polygon>
            <path d="M24.4982655,55.3294554 L27.8703009,57.2801597 C29.2249912,58.0636334 31.5906549,57.9653889 33.1549027,57.0606168 L71.6349027,34.8005988 C72.487646,34.307248 72.9262301,33.6759292 72.928708,33.0768857 C72.9308319,32.5775054 72.6303009,32.1001149 72.0143717,31.743668 L68.6423363,29.7929638 C67.288,29.00949 64.9219823,29.1077346 63.3577345,30.0125067 L24.8777345,52.2725246 C23.9980885,52.7811264 23.5595044,53.4369177 23.5849912,54.0526309 C23.6051681,54.5317948 23.9056991,54.9864862 24.4982655,55.3294554" id="Fill-130" fill="#4C6370"></path>
            <path d="M62.5572389,134.747909 L62.5572389,163.263303" id="Stroke-132" stroke="#0F0F1E" stroke-width="6.72566372"></path>
            <path d="M45.9083186,122.424743 L37.8906195,124.343172 L37.8863717,128.077529 C37.9118584,128.550664 38.2127434,129.000035 38.7989381,129.339103 L78.0385841,152.038207 C79.3929204,152.82168 81.7585841,152.72379 83.3228319,151.819018 L85.9359292,150.307045 C86.7621239,149.8293 87.199292,149.222099 87.2283186,148.639725 L87.2286726,144.980204 L45.9083186,122.424743 Z" id="Fill-134" fill="#30454E"></path>
            <path d="M78.0384425,148.491507 L38.7987965,125.792403 C38.1354336,125.408647 37.8380885,124.884439 37.8904779,124.343207 C37.9453451,123.779631 38.3807434,123.197257 39.1786195,122.735827 L41.7920708,121.223854 C43.3556106,120.319082 45.7216283,120.220837 47.0759646,121.004311 L86.3156106,143.703415 C86.908177,144.046384 87.208708,144.501076 87.228885,144.980239 C87.2543717,145.595953 86.8157876,146.251744 85.9361416,146.760346 L83.3230442,148.272319 C81.7587965,149.177091 79.3927788,149.274981 78.0384425,148.491507" id="Fill-136" fill="#4C6370"></path>
            <path d="M84.727115,87.1949892 C90.5175575,90.5445257 101.071894,91.1194515 105.697027,87.1949892 C107.207469,85.9135539 106.436496,79.844381 107.033664,76.6501915 C108.453133,69.0527306 108.943752,61.6475027 104.867292,59.2892786 C99.0764956,55.9397421 94.2113628,55.0945552 88.4209204,58.4440917 C84.8825133,60.4909124 85.5009204,67.8294617 85.2134867,75.308107 C85.0304779,80.069244 82.4747257,85.8919188 84.727115,87.1949892" id="Fill-138" fill="#DF8300"></path>
            <path d="M75.6214159,15.1879703 C75.6214159,15.1879703 75.5853097,10.4991867 75.8235398,41.7207398 C76.0617699,72.9419383 76.180708,88.5525375 107.384248,88.2929165 C138.587788,88.0336502 138.46885,72.423051 138.230619,41.2018525 C137.992389,9.98065403 138.028496,14.669083 138.028496,14.669083 L122.509912,25.7207091 L91.3063717,25.9803301 L75.6214159,15.1879703 Z" id="Fill-140" fill="#FFB000"></path>
            <path d="M126.663327,53.7493496 C126.681027,56.0923227 125.729168,55.744388 124.558549,55.7539641 C123.387575,55.763895 122.441027,56.12779 122.422973,53.7848169 C122.405274,51.4414891 123.339788,49.5340551 124.510761,49.5244789 C125.681735,49.5149027 126.645274,51.4063764 126.663327,53.7493496" id="Fill-142" fill="#8F2E07"></path>
            <path d="M91.632531,54.0406429 C91.6505841,56.383616 90.6983717,56.0353266 89.5277522,56.0452575 C88.3567788,56.0551883 87.4102301,56.4187287 87.392177,54.0761102 C87.3748319,51.7327825 88.3089912,49.8253484 89.4803186,49.8157722 C90.651292,49.806196 91.6144779,51.6976698 91.632531,54.0406429" id="Fill-144" fill="#8F2E07"></path>
            <path d="M112.023858,65.9686318 C112.043327,68.5325665 109.99908,72.8833462 107.436956,72.9046266 C104.874478,72.925907 102.764389,68.6091759 102.744566,66.0455959 C102.725097,63.4816612 104.804035,63.641619 107.366159,63.6203385 C109.928283,63.5990581 112.004035,63.4046971 112.023858,65.9686318" id="Fill-146" fill="#8F2E07"></path>
            <path d="M91.3062301,25.9802237 C91.3579115,32.7768319 85.8938407,38.3320828 79.1012743,38.3884759 C72.308354,38.4452237 78.0308319,32.8878447 77.9791504,26.0908818 C77.927115,19.2946283 72.1210973,13.8330111 78.9133097,13.7766181 C85.7062301,13.720225 91.2545487,19.1839702 91.3062301,25.9802237" id="Fill-148" fill="#FFB000"></path>
            <path d="M135.837133,25.6102992 C135.888814,32.4065528 141.69554,37.8685246 134.902619,37.9249177 C128.110407,37.9813108 122.561735,32.5175656 122.510053,25.7209574 C122.458018,18.9243492 127.922796,13.3690982 134.715009,13.3127051 C141.507929,13.256312 135.785451,18.813691 135.837133,25.6102992" id="Fill-150" fill="#FFB000"></path>
            <path d="M103.217876,48.0995072 L111.431681,48.0995072" id="Stroke-155" stroke="#29404B" stroke-width="3.53982301"></path>
            <path d="M126.662973,65.3219556 L124.313239,65.3219556 C117.198903,65.3219556 111.431823,63.0899953 111.431823,55.9617673 L111.431823,48.0993653 C111.431823,48.0993653 113.071469,43.4886099 126.308283,43.4886099 C139.544743,43.4886099 139.544743,48.0993653 139.544743,48.0993653 L139.544743,55.9617673 C139.544743,63.0899953 133.777664,65.3219556 126.662973,65.3219556 Z" id="Stroke-157" stroke="#29404B" stroke-width="3.53982301"></path>
            <path d="M90.3362124,65.3219556 L87.9861239,65.3219556 C80.8721416,65.3219556 75.104708,63.0899953 75.104708,55.9617673 L75.104708,48.0993653 C75.104708,48.0993653 75.9333805,43.4886099 89.1613451,43.4886099 C102.38931,43.4886099 103.217982,48.0993653 103.217982,48.0993653 L103.217982,55.9617673 C103.217982,63.0899953 97.4505487,65.3219556 90.3362124,65.3219556 Z" id="Stroke-159" stroke="#29404B" stroke-width="3.53982301"></path>
            <path d="M102.744602,136.474495 C102.744602,136.474495 105.18531,134.095345 110.460354,134.420226 C115.735044,134.745107 117.415398,135.828635 117.415398,135.828635 L108.061062,141.354802 L102.744602,136.474495 Z" id="Fill-165" fill="#FFB000"></path>
            <path d="M76.9740885,93.5192078 C81.9468319,94.7956777 80.3567434,104.208358 80.3567434,117.366035 C80.3567434,130.8681 87.6976283,140.146359 100.477097,134.253813 C110.46046,134.420155 109.787186,146.765985 106.74754,148.524456 C103.707894,150.282927 84.2307257,159.827546 69.1864779,141.256842 C54.1422301,122.686137 69.4286018,91.5819812 76.9740885,93.5192078" id="Fill-167" fill="#0385B8"></path>
            <path d="M165.785947,121.99385 C165.785947,121.99385 166.046478,121.576399 166.984531,121.99385 C167.106655,121.10362 167.595858,121.185549 168.003646,121.349054 C167.962584,120.409524 168.832319,120.469464 168.832319,120.469464 L169.186301,124.090325 L165.785947,121.99385 Z" id="Fill-169" fill="#F2F2F2"></path>
            <polygon id="Fill-171" fill="#000000" points="168.326761 123.560443 168.818796 123.551222 169.089593 123.098658 169.186584 124.090325"></polygon>
            <polygon id="Fill-181" fill="#4C6370" points="103.438053 180.630317 76.8819469 165.268344 57.9831858 176.201154 84.5389381 191.563127"></polygon>
        </g>
    </g>
</svg>
