<svg xmlns="http://www.w3.org/2000/svg" viewBox="0 0 1984.29 1145.63"><defs><style>.cls-1{fill:#c98200;}.cls-2{fill:#edaf00;}.cls-3{fill:#4c2727;}.cls-15,.cls-20,.cls-4{fill:none;}.cls-4{stroke:#152126;stroke-width:19px;}.cls-15,.cls-19,.cls-20,.cls-4{stroke-miterlimit:10;}.cls-5{fill:#404a51;}.cls-6{fill:#351c1c;}.cls-7{fill:#36203f;}.cls-8{fill:#54636f;}.cls-9{fill:#663a3a;}.cls-10{fill:#a1adb6;}.cls-11{fill:#67bcda;}.cls-12{fill:#4b84b5;}.cls-13{fill:#e09410;}.cls-14{fill:#7c320d;}.cls-15{stroke:#36203f;stroke-width:10px;}.cls-16{fill:#583468;}.cls-17{fill:#f3f6f7;}.cls-18{fill:#9b4708;}.cls-19{fill:#31637c;}.cls-19,.cls-20{stroke:#9b4708;stroke-width:3px;}</style></defs><title>kickstarter-card_mobileappdeveloper</title><g id="Camada_9" data-name="Camada 9"><path class="cls-1" d="M176.37,516.61s-63,8.14-111-45.83-22.65-153.87,20-192-6.52-73.45-24.52-53.95c-31.5-49.5,40.5-139.49,162-93S224.33,511.41,176.37,516.61Z"/><path class="cls-2" d="M60.91,224.83c9.94-10.77,29.38-4.81,37.62,9.09,7.08-3.89,18.66-10.5,36.57-21.33,35.41-21.41,4.48-99.22-54.53-67C54.41,168.46,45.9,201.24,60.91,224.83Z"/><path class="cls-2" d="M83.18,487.62C69.5,468.41,59.9,438.42,59.9,392.09c0-30.35-1.13-54.44-3-73.53-22.35,46.64-27.2,112.12,8.47,152.22A141,141,0,0,0,83.18,487.62Z"/><path class="cls-3" d="M91.37,431.91l9.53,5.5c3.82,2.21,10.51,1.93,14.93-.62L224.53,374c2.51-1.44,13.75,96.69,13.65,94.94-.07-1.33-10.92-102.6-12.57-103.56l-9.53-5.5c-3.83-2.21-10.51-1.93-14.93.62L92.44,423.29c-2.6,1.51-3.84,3.47-3.63,5.28A4.61,4.61,0,0,0,91.37,431.91Z"/><path class="cls-4" d="M332.17,403.32v80.39c0,52.87-3.05,63.27-37.38,86.41"/><path class="cls-3" d="M366.08,560.75,257.26,497.91c-3.83-2.21-10.51-1.93-14.93.62l-84.8,49L130,545.74l0,20.57a4.48,4.48,0,0,0,2.58,3.6l141.16,81.5c3.83,2.21,10.51,1.94,14.93-.62L397.35,588c2.31-1.33,3.54-3,3.64-4.65V563Z"/><polygon class="cls-5" points="202.68 610.4 230.3 626.35 230.3 608.24 202.68 592.4 202.68 610.4"/><path class="cls-6" d="M273.71,631.41l-141.16-81.5c-1.91-1.1-2.75-2.61-2.56-4.17s1.42-3.17,3.63-4.45l108.71-62.76c4.42-2.55,11.1-2.83,14.93-.62l141.16,81.5A4.55,4.55,0,0,1,401,563c.09,1.75-1.15,3.62-3.65,5.07L288.64,630.79C284.22,633.34,277.54,633.62,273.71,631.41Z"/><path class="cls-7" d="M168.49,497.82s-6.71,61.27,44.62,91.27,77.74,30,77.74,30l85.59-58s7.34-19.71-2.66-32.52-37.26-21.87-70-31.68S168.49,497.82,168.49,497.82Z"/><path class="cls-4" d="M168.49,497.82v80.39c0,52.87,20.44,56.22,56.27,35.46"/><polygon class="cls-2" points="1984.29 441.03 763.87 1145.63 0 704.6 1220.42 0 1984.29 441.03"/><path class="cls-3" d="M285.13,368.57,262.48,374v10.53a4.52,4.52,0,0,0,2.58,3.56l110.85,64c3.83,2.2,10.51,1.93,14.93-.62l7.38-4.27c2.34-1.34,3.57-3.06,3.65-4.7V432.16Z"/><path class="cls-8" d="M375.9,442.07l-110.85-64c-1.87-1.09-2.72-2.56-2.57-4.09s1.39-3.23,3.64-4.53l7.38-4.27c4.42-2.55,11.11-2.82,14.93-.61l110.85,64a4.45,4.45,0,0,1,2.58,3.59c.08,1.74-1.16,3.59-3.65,5l-7.38,4.27C386.41,444,379.73,444.27,375.9,442.07Z"/><path class="cls-9" d="M375.9,442.07l-110.85-64c-1.87-1.09-2.72-2.56-2.57-4.09s1.39-3.23,3.64-4.53l7.38-4.27c4.42-2.55,11.11-2.82,14.93-.61l110.85,64a4.45,4.45,0,0,1,2.58,3.59c.08,1.74-1.16,3.59-3.65,5l-7.38,4.27C386.41,444,379.73,444.27,375.9,442.07Z"/><polygon class="cls-3" points="58.39 270.3 88.81 428.57 228.18 368.97 197.79 211.15 58.39 270.3"/><path class="cls-7" d="M270.58,318.29s-.08,62.87,49.36,95.37c17.16-3.54,31.59-48.06,31.59-48.06s-9-6.8-23-19.38c-7.69-6.88-21.94-24.79-40.23-36.81C280.76,311,270.58,318.29,270.58,318.29Z"/><path class="cls-10" d="M356.71,379.09c-.75,13-10.75,28.16-22.34,34-5.79,2.91-10.88,2.93-14.43.59s-5.56-7-5.19-13.49c.75-12.94,10.76-28.16,22.34-34,5.8-2.91,10.89-2.92,14.44-.59S357.09,372.62,356.71,379.09Z"/><path class="cls-2" d="M337.92,435.75s28.08-6.31,17.23-20.41c-13.25-17.21-35.69-16.65-35.69-16.65s-9.42.61-6-19.66,16.38-30.36,38-13.43,63.93,63.84-13.21,88.38C323.26,458.41,337.92,435.75,337.92,435.75Z"/><path class="cls-11" d="M328.48,346.22c-7.69-6.88-21.94-24.78-40.22-36.8h0c-9.12-6-17-2-17.67,8.88a27.28,27.28,0,0,0,.27,5.37c1.25,15.88,8.37,63.24,49.09,90-3.55-2.33-5.56-7-5.19-13.48.75-12.95,10.76-28.17,22.34-34,5.8-2.91,10.89-2.92,14.44-.59C351.53,365.6,342.55,358.8,328.48,346.22Z"/><path class="cls-12" d="M301.88,404.37c.36-29.05,3.37-86.33-17.88-97.21-17.87-9.15-54-12.62-92.39,9.56s-36.27,28.39-34.11,56.87l-.34,111.65c0,32.72-9,34.82,2.87,41.66l25.23,14.56c31.23,16.4,48.12,16.14,58.37,10.22l78.56-46.23C338.78,493.35,301.88,481,301.88,404.37Z"/><path class="cls-9" d="M61,273.9l9.53,5.5c3.83,2.2,10.51,1.93,14.93-.62L194.13,216c2.41-1.39,3.65-3.17,3.66-4.86a4.43,4.43,0,0,0-2.58-3.75l-9.53-5.5c-3.83-2.21-10.51-1.94-14.93.61L62,265.28c-2.48,1.43-3.72,3.28-3.65,5A4.52,4.52,0,0,0,61,273.9Z"/><path class="cls-4" d="M168.49,497.82v80.39"/><path class="cls-3" d="M121.46,463.07l-22.65,5.41,0,10.53a4.54,4.54,0,0,0,2.58,3.56l110.85,64c3.83,2.2,10.51,1.93,14.93-.62l7.38-4.27c2.34-1.34,3.57-3.06,3.65-4.7V526.66Z"/><path class="cls-9" d="M212.22,536.57l-110.85-64c-1.87-1.09-2.71-2.56-2.56-4.09s1.38-3.23,3.63-4.53l7.39-4.27c4.41-2.55,11.1-2.82,14.92-.61l110.86,64a4.49,4.49,0,0,1,2.58,3.59c.07,1.74-1.17,3.59-3.66,5L227.15,536C222.73,538.5,216.05,538.77,212.22,536.57Z"/><path class="cls-13" d="M203.12,327.74c16.36,9.44,46.17,11.07,59.24,0,4.27-3.61,2.09-20.72,3.77-29.73,4-21.42,5.4-42.3-6.12-48.95-16.35-9.44-30.1-11.83-46.46-2.38-10,5.77-8.25,26.46-9.06,47.55C204,307.65,196.76,324.07,203.12,327.74Z"/><path class="cls-2" d="M178.6,89.68s2.2-13-12.43,73.78-21.93,130.21,65,144.79,94.25-28.81,108.88-115.62,12.42-73.77,12.42-73.77l-48.58,23.07L217,127.35Z"/><path class="cls-14" d="M301.72,221.79c-1.1,6.52-3.57,5.09-6.84,4.54s-6.07,0-5-6.52,4.63-11.35,7.89-10.8S302.82,215.28,301.72,221.79Z"/><path class="cls-14" d="M204.12,205.42c-1.1,6.51-3.57,5.08-6.84,4.53s-6.07,0-5-6.51,4.63-11.36,7.89-10.81S205.22,198.9,204.12,205.42Z"/><path class="cls-14" d="M255,248.54c-1.2,7.13-9,18.21-16.16,17S228,251.33,229.16,244.2s6.9-5.66,14-4.46S256.21,241.41,255,248.54Z"/><path class="cls-2" d="M217,127.35a34.74,34.74,0,0,1-40,28.46c-18.92-3.17-.28-15.8,2.9-34.7s-10.3-36.91,8.63-33.73A34.7,34.7,0,0,1,217,127.35Z"/><path class="cls-2" d="M341,148.16c-3.18,18.9,10.3,36.91-8.63,33.74a34.7,34.7,0,1,1,11.53-68.43C362.85,116.64,344.2,129.27,341,148.16Z"/><line class="cls-15" x1="239.26" y1="194.61" x2="262.11" y2="198.64"/><path class="cls-15" d="M294.32,263.78l-6.54-1.16a36.39,36.39,0,0,1-29.52-42.15l3.85-21.83s6.3-9,43.13-2.56,35.09,16.35,35.09,16.35l-3.85,21.83A36.4,36.4,0,0,1,294.32,263.78Z"/><path class="cls-15" d="M193.25,246l-6.53-1.16a36.38,36.38,0,0,1-29.52-42.15l3.85-21.84s4-9.44,40.84-2.95,37.37,16.75,37.37,16.75l-3.85,21.83A36.39,36.39,0,0,1,193.25,246Z"/><path class="cls-2" d="M115.71,426.61c.3,45.12,18.77,75.07,63.71,68.31,36.27-5.46,65.5-30.69,67-37.35,9.89-2.49,27.2-11.15,27.2-11.15s-3.8-18.62-15.75-18.81S235,443.92,228.18,448.42s-65.51,26-61.88-19S115.5,395.31,115.71,426.61Z"/><ellipse class="cls-11" cx="166.3" cy="353.75" rx="24.21" ry="13.98" transform="translate(-223.21 320.89) rotate(-60)"/><path class="cls-11" d="M166.3,334s-52.59,34.47-52.59,93.63c12.4,12.4,57.52,0,57.52,0s.75-11.24,3.53-29.9c1.52-10.21,8.66-32,8.66-53.84C178,338.46,166.3,334,166.3,334Z"/><path class="cls-11" d="M162.8,439.35c-11.23,6.49-29.43,6.49-40.66,0-5.62-3.24-8.43-7.49-8.43-11.74s2.81-8.5,8.42-11.74c11.24-6.48,29.44-6.48,40.67,0,5.62,3.24,8.43,7.49,8.43,11.74S168.42,436.11,162.8,439.35Z"/><path class="cls-16" d="M239.43,493.65h0L383.35,357.23h0a8.7,8.7,0,0,0-9.57-.58l-96.91,56a8.09,8.09,0,0,0-3.12,3.26L237.5,485.1A6.77,6.77,0,0,0,239.43,493.65Z"/><path class="cls-7" d="M239.43,493.65l103.92-60,40-76.42L281.6,416a8.65,8.65,0,0,0-3.34,3.47Z"/><path class="cls-2" d="M363.42,440.77c-35.94,22.3-56,22.3-56.68,11.13-.43-7.18-.08-16.48,2.25-17.15s7.83,2.07,10.25-1.63,2.42-6.32,5.75-5.51,4.39,13.34,31.77.12C364.69,423.89,378.27,431.56,363.42,440.77Z"/><polygon class="cls-7" points="228.18 465.56 210.09 455.11 210.09 451.11 246.26 451.11 246.26 455.11 228.18 465.56"/><polygon class="cls-16" points="228.18 461.56 210.09 451.11 228.18 440.67 246.26 451.11 228.18 461.56"/><polygon class="cls-17" points="228.17 458.41 215.55 451.12 228.18 443.83 240.79 451.12 228.17 458.41"/><path class="cls-7" d="M234.54,461.56s2.57,7.39-2.75,11.09c9.36-4.66,12.87-10.77,11.74-16.93A50.46,50.46,0,0,0,234.54,461.56Z"/><polygon class="cls-18" points="562.52 559.14 410.54 646.88 306.72 586.95 306.72 579.88 562.52 552.07 562.52 559.14"/><polygon class="cls-1" points="562.52 552.07 410.54 639.82 306.72 579.88 458.7 492.13 562.52 552.07"/><polygon class="cls-18" points="410.54 615.98 400.35 621.86 410.54 627.75 420.73 621.86 410.54 615.98"/><polygon class="cls-18" points="425.65 607.26 415.46 613.14 425.65 619.02 435.84 613.14 425.65 607.26"/><polygon class="cls-18" points="440.76 598.53 430.57 604.42 440.76 610.3 450.95 604.42 440.76 598.53"/><polygon class="cls-18" points="455.87 589.81 445.68 595.69 455.87 601.58 466.06 595.69 455.87 589.81"/><polygon class="cls-18" points="470.98 581.08 460.79 586.97 470.98 592.85 481.17 586.97 470.98 581.08"/><polygon class="cls-18" points="486.09 572.36 475.9 578.24 486.09 584.13 496.28 578.24 486.09 572.36"/><polygon class="cls-18" points="501.2 563.64 491.01 569.52 501.2 575.4 511.39 569.52 501.2 563.64"/><polygon class="cls-18" points="516.32 554.91 506.13 560.79 516.32 566.68 526.5 560.79 516.32 554.91"/><polygon class="cls-18" points="531.43 546.19 521.24 552.07 531.43 557.95 541.62 552.07 531.43 546.19"/><polygon class="cls-18" points="396.6 607.93 386.41 613.82 396.6 619.7 406.79 613.82 396.6 607.93"/><polygon class="cls-18" points="411.71 599.21 401.52 605.09 411.71 610.98 421.9 605.1 411.71 599.21"/><polygon class="cls-18" points="426.82 590.49 416.63 596.37 426.82 602.25 437.01 596.37 426.82 590.49"/><polygon class="cls-18" points="441.94 581.76 431.75 587.65 441.94 593.53 452.13 587.65 441.94 581.76"/><polygon class="cls-18" points="457.05 573.04 446.86 578.92 457.05 584.8 467.24 578.92 457.05 573.04"/><polygon class="cls-18" points="472.16 564.31 461.97 570.2 472.16 576.08 482.35 570.2 472.16 564.31"/><polygon class="cls-18" points="487.27 555.59 477.08 561.47 487.27 567.36 497.46 561.47 487.27 555.59"/><polygon class="cls-18" points="502.38 546.87 492.19 552.75 502.38 558.63 512.57 552.75 502.38 546.87"/><polygon class="cls-18" points="517.49 538.14 507.3 544.02 517.49 549.91 527.68 544.02 517.49 538.14"/><polygon class="cls-18" points="397.78 591.17 387.59 597.05 397.78 602.93 407.97 597.05 397.78 591.17"/><polygon class="cls-18" points="428 573.72 417.81 579.6 428 585.48 438.19 579.6 428 573.72"/><polygon class="cls-18" points="443.11 564.99 432.92 570.88 443.11 576.76 453.3 570.88 443.11 564.99"/><polygon class="cls-18" points="458.22 556.27 448.03 562.15 458.22 568.03 468.41 562.15 458.22 556.27"/><polygon class="cls-18" points="473.33 547.54 463.14 553.43 473.33 559.31 483.52 553.43 473.33 547.54"/><polygon class="cls-18" points="488.44 538.82 478.25 544.7 488.44 550.59 498.63 544.7 488.44 538.82"/><polygon class="cls-18" points="503.56 530.1 493.37 535.98 503.56 541.86 513.75 535.98 503.56 530.1"/><polygon class="cls-18" points="368.73 591.84 358.54 597.73 368.73 603.61 378.92 597.73 368.73 591.84"/><polygon class="cls-18" points="383.84 583.12 373.65 589 383.84 594.89 394.03 589 383.84 583.12"/><polygon class="cls-18" points="398.95 574.4 388.76 580.28 398.95 586.16 409.14 580.28 398.95 574.4"/><polygon class="cls-18" points="414.06 565.67 403.88 571.55 414.06 577.44 424.25 571.55 414.06 565.67"/><polygon class="cls-18" points="429.18 556.95 418.99 562.83 429.18 568.71 439.37 562.83 429.18 556.95"/><polygon class="cls-18" points="444.29 548.22 434.1 554.11 444.29 559.99 454.48 554.11 444.29 548.22"/><polygon class="cls-18" points="459.4 539.5 449.21 545.38 459.4 551.26 469.59 545.38 459.4 539.5"/><polygon class="cls-18" points="474.51 530.77 464.32 536.66 474.51 542.54 484.7 536.66 474.51 530.77"/><polygon class="cls-18" points="489.62 522.05 479.43 527.93 489.62 533.82 499.81 527.93 489.62 522.05"/><polygon class="cls-18" points="413.37 530.37 372.96 553.7 397.57 567.91 437.98 544.58 413.37 530.37"/><polygon class="cls-18" points="562.52 552.07 410.54 639.82 491.32 558.53 643.3 470.78 562.52 552.07"/><polyline class="cls-18" points="643.3 470.78 648.26 474.69 496.28 562.44 491.32 558.53"/><path class="cls-18" d="M340.44,646.44l6.54,3.78c2.86,1.65,2.86,4.35,0,6h0a11.52,11.52,0,0,1-10.39,0L330,652.44Z"/><line class="cls-19" x1="345.98" y1="655.22" x2="979.63" y2="1021.06"/><path class="cls-18" d="M390.5,633.71,384,637.49c-2.86,1.65-2.86,4.35,0,6h0a11.52,11.52,0,0,0,10.39,0l6.55-3.78Z"/><path class="cls-20" d="M385,642.49l-4.65,2.69a1.72,1.72,0,0,0,0,3l624.52,358.35"/><path class="cls-18" d="M310.62,663.81l42.82-24.73a3.56,3.56,0,0,0,2.09-2.71v-4.08c0-.81-.47,2.44-1.48,1.87L290.21,597.3c-2.18-1.27-6-1.11-8.53.35l-42.83,24.73c-1.39.8-2.1-2.19-2.09-1.21v4.08a2.58,2.58,0,0,0,1.48,2l63.84,36.86C304.27,665.43,308.09,665.27,310.62,663.81Z"/><path class="cls-1" d="M310.62,659.81l42.82-24.73a3.48,3.48,0,0,0,2.09-2.79,2.53,2.53,0,0,0-1.48-2.13L290.21,593.3c-2.18-1.27-6-1.11-8.53.35l-42.83,24.73a3.52,3.52,0,0,0-2.09,2.79,2.55,2.55,0,0,0,1.48,2.13l63.84,36.86C304.27,661.43,308.09,661.27,310.62,659.81Z"/><polygon class="cls-18" points="347.07 630.8 303.2 656.13 245.23 622.66 289.09 597.33 347.07 630.8"/><path class="cls-18" d="M267.93,669.67l6.55,3.78c2.86,1.65,2.86,4.35,0,6h0a11.52,11.52,0,0,1-10.39,0l-6.55-3.78Z"/><line class="cls-19" x1="273.48" y1="678.45" x2="923.26" y2="1053.6"/><path class="cls-18" d="M250.3,681.13,276.55,666a2.16,2.16,0,0,0,1.28-1.66s0-2.49,0-2.5c0-.5-.3,1.49-.91,1.14l-51.24-29.59a5.86,5.86,0,0,0-5.24.22L194.2,648.74c-.86.49-1.29-1.34-1.28-.74v2.5a1.57,1.57,0,0,0,.9,1.26l51.24,29.59A5.86,5.86,0,0,0,250.3,681.13Z"/><path class="cls-1" d="M250.3,678.68l26.25-15.16a2.17,2.17,0,0,0,1.29-1.71,1.57,1.57,0,0,0-.91-1.31l-51.24-29.59a5.83,5.83,0,0,0-5.24.22L194.2,646.29a2.13,2.13,0,0,0-1.28,1.71,1.54,1.54,0,0,0,.9,1.31l51.24,29.58A5.82,5.82,0,0,0,250.3,678.68Z"/><polygon class="cls-18" points="200.19 650.11 243.67 675.22 270.57 659.69 227.08 634.59 200.19 650.11"/><path class="cls-18" d="M564.64,501.4l6.55,3.78c2.85,1.65,2.85,4.35,0,6h0a11.54,11.54,0,0,1-10.4,0l-6.54-3.78Z"/><line class="cls-20" x1="570.19" y1="510.18" x2="1217.34" y2="883.82"/><path class="cls-18" d="M547,512.86l26.26-15.15a2.21,2.21,0,0,0,1.28-1.67v-2.5c0-.5-.29,1.5-.91,1.14L522.39,465.1a5.78,5.78,0,0,0-5.23.22L490.9,480.47c-.85.5-1.29-1.33-1.28-.74v2.5a1.58,1.58,0,0,0,.91,1.27l51.24,29.58A5.78,5.78,0,0,0,547,512.86Z"/><path class="cls-1" d="M547,510.41l26.26-15.16a2.14,2.14,0,0,0,1.28-1.71,1.55,1.55,0,0,0-.91-1.31l-51.24-29.58a5.8,5.8,0,0,0-5.23.21L490.9,478a2.15,2.15,0,0,0-1.28,1.71,1.55,1.55,0,0,0,.91,1.31l51.24,29.59A5.81,5.81,0,0,0,547,510.41Z"/><polygon class="cls-18" points="496.89 481.85 540.38 506.95 567.27 491.43 523.78 466.32 496.89 481.85"/><line class="cls-18" x1="491.32" y1="558.53" x2="643.3" y2="470.78"/><polygon class="cls-1" points="567.48 555.98 415.5 643.73 496.28 562.44 648.26 474.69 567.48 555.98"/></g></svg>