<?xml version="1.0" encoding="UTF-8"?>
<svg width="1025px" height="190px" viewBox="0 0 1025 190" version="1.1" xmlns="http://www.w3.org/2000/svg" xmlns:xlink="http://www.w3.org/1999/xlink">
    <!-- Generator: Sketch 53.2 (72643) - https://sketchapp.com -->
    <title>01_hero_webdeveloper</title>
    <desc>Created with Sketch.</desc>
    <defs>
        <polygon id="path-1" points="0 0.0910199939 239.786382 0.0910199939 239.786382 138.713178 0 138.713178"></polygon>
        <polygon id="path-3" points="0 0.0910199939 239.786382 0.0910199939 239.786382 138.713178 0 138.713178"></polygon>
        <polygon id="path-5" points="0.0282554236 0.131412587 14.8798738 0.131412587 14.8798738 21.206908 0.0282554236 21.206908"></polygon>
    </defs>
    <g id="01_hero_webdeveloper" stroke="none" stroke-width="1" fill="none" fill-rule="evenodd">
        <rect x="0" y="0" width="1025" height="190"></rect>
        <g id="Group-216" transform="translate(905.000000, 146.500000) scale(-1, 1) translate(-905.000000, -146.500000) translate(785.000000, 16.000000)">
            <path d="M43.6271089,144.962807 C43.6271089,144.962807 24.4991089,147.436831 9.91774177,131.021817 C-4.66392911,114.607108 3.0379443,84.2133839 15.9985519,72.6137895 C28.9594633,61.0144993 14.0187038,50.2730413 8.55065316,56.2045552 C-1.01835949,41.1474713 20.853843,13.7713699 57.7634127,27.9158664 C94.6729823,42.0600587 58.1984506,143.379468 43.6271089,144.962807" id="Fill-1" fill="#C05F00"></path>
            <path d="M8.55059241,56.2044944 C11.5700354,52.928914 17.476162,54.7391832 19.9794532,58.9690259 C22.1303392,57.7844874 25.6483139,55.7737531 31.0890228,52.4802252 C41.8455797,45.968914 32.4491241,22.2973091 14.5232506,32.1115783 C6.57560506,39.0557601 3.98998481,49.027907 8.55059241,56.2044944" id="Fill-3" fill="#DF8300"></path>
            <path d="M15.3168304,136.144688 C11.1587544,130.299261 8.24229873,121.177342 8.24229873,107.08395 C8.24229873,97.849478 7.89991899,90.5238346 7.34427342,84.7152157 C0.553488608,98.9035164 -0.919321519,118.822562 9.91774177,131.021726 C11.6654886,132.989569 13.4791595,134.683027 15.3168304,136.144688" id="Fill-5" fill="#DF8300"></path>
            <path d="M17.8047494,119.197362 L20.6987241,120.870438 C21.861357,121.542407 23.8916354,121.458449 25.2338127,120.682445 L58.2587241,101.590204 C59.0194329,101.150641 62.4338127,131.002897 62.4058633,130.471466 C62.3842937,130.064757 59.0880911,99.2597601 58.5843949,98.9686448 L55.6904203,97.2955678 C54.5277873,96.6235993 52.4975089,96.7075573 51.1553316,97.4835608 L18.1304203,116.575802 C17.3384203,117.033617 16.9629266,117.629841 17.0270278,118.179827 C17.0713823,118.562201 17.3280911,118.922064 17.8047494,119.197362" id="Fill-7" fill="#0D3F4E"></path>
            <path d="M90.9576608,110.498365 L90.9576608,134.9551 C90.9576608,151.036107 90.0316861,154.199743 79.602319,161.23853" id="Stroke-9" stroke="#091B21" stroke-width="5.7721519"></path>
            <path d="M101.261833,158.38782 L68.1998582,139.274589 C67.0372253,138.60262 65.0069468,138.686578 63.6647696,139.462582 L37.9030481,154.355704 L29.5373772,153.823362 L29.5303899,160.081582 C29.5474025,160.49255 29.8056304,160.882529 30.3141873,161.176383 L73.1988456,185.968341 C74.3611747,186.640309 76.391757,186.556351 77.7339342,185.780348 L110.758846,166.688106 C111.461225,166.282309 111.835808,165.76761 111.867099,165.272683 L111.867706,159.06283 L101.261833,158.38782 Z" id="Fill-11" fill="#0D3F4E"></path>
            <polygon id="Fill-13" fill="#394850" points="51.6204152 173.493636 60.0094785 178.343429 60.0094785 172.834748 51.6204152 168.018111"></polygon>
            <path d="M73.1989367,179.884424 L30.3142785,155.092466 C29.7340253,154.756938 29.4797468,154.296994 29.5374684,153.823362 C29.5951899,153.348208 29.9673418,152.859365 30.6396456,152.470907 L63.664557,133.378666 C65.007038,132.602662 67.0373165,132.518704 68.1999494,133.190673 L111.084608,157.982631 C111.587089,158.273138 111.845013,158.657641 111.867797,159.06283 C111.897266,159.595173 111.520861,160.164019 110.758937,160.60419 L77.7340253,179.696431 C76.3918481,180.472435 74.3612658,180.556393 73.1989367,179.884424" id="Fill-15" fill="#042D35"></path>
            <path d="M41.2326987,139.244869 C41.2326987,139.244869 39.1936101,157.88325 54.7884456,167.009124 C70.383281,176.134998 78.4047494,176.134998 78.4047494,176.134998 L104.408597,158.491642 C104.408597,158.491642 106.636648,152.497463 103.598673,148.599498 C100.560699,144.701229 92.2797873,141.946128 82.3443949,138.963488 C72.4086987,135.981152 41.2326987,139.244869 41.2326987,139.244869" id="Fill-17" fill="#3A1A3E"></path>
            <path d="M41.2326987,139.244869 L41.2326987,163.701603 C41.2326987,179.78261 47.443838,180.801058 58.3267747,174.488386" id="Stroke-19" stroke="#091B21" stroke-width="5.7721519"></path>
            <g id="Group-23" transform="translate(0.000000, 122.155301)">
                <mask id="mask-2" fill="white">
                    <use xlink:href="#path-1"></use>
                </mask>
                <g id="Clip-22"></g>
                <path d="M133.843686,1.76214545 L2.89057215,77.467051 C0.972698734,78.5758448 -6.07594937e-05,76.9146315 -6.07594937e-05,78.2600895 C-6.07594937e-05,78.7537993 0.000546835443,81.3920895 0.00145822785,81.4173378 C0.0366987342,82.4957119 0.709002532,83.5208517 2.04297722,84.2919881 L94.1370532,137.532338 C97.1628759,139.281464 102.448648,139.062138 105.942623,137.042278 L236.896041,61.3373727 C240.390015,59.3172084 240.769458,56.2615615 237.743635,54.5121315 L145.649559,1.27208601 C142.623433,-0.477344056 137.337661,-0.258018881 133.843686,1.76214545" id="Fill-21" fill="#00516E" mask="url(#mask-2)"></path>
            </g>
            <g id="Group-26" transform="translate(0.000000, 119.113343)">
                <mask id="mask-4" fill="white">
                    <use xlink:href="#path-3"></use>
                </mask>
                <g id="Clip-25"></g>
                <path d="M133.843686,1.76214545 L2.89057215,77.467051 C0.961762025,78.5819287 -0.0179848101,80.0122573 0.000243037975,81.3647119 C0.0148253165,82.4622503 0.687129114,83.5083797 2.04297722,84.2919881 L94.1370532,137.532338 C97.1628759,139.281464 102.448648,139.062138 105.942623,137.042278 L236.896041,61.3373727 C240.390015,59.3172084 240.769458,56.2615615 237.743635,54.5121315 L145.649559,1.27208601 C142.623433,-0.477344056 137.337661,-0.258018881 133.843686,1.76214545" id="Fill-24" fill="#0385B8" mask="url(#mask-4)"></path>
            </g>
            <path d="M76.6689418,99.9290517 L69.7879291,101.574447 L69.7842835,104.77702 C69.806157,105.183122 70.0643848,105.568234 70.5677772,105.859349 L104.24403,125.32788 C105.406359,125.999849 107.436942,125.915587 108.779119,125.139583 L111.022056,123.842797 C111.731119,123.433349 112.106005,122.912262 112.130916,122.412772 L112.131524,119.27408 L76.6689418,99.9290517 Z" id="Fill-27" fill="#0D3F4E"></path>
            <path d="M104.24397,122.285953 L70.5677165,102.817421 C69.9984,102.488281 69.7429063,102.03868 69.7881722,101.574477 C69.8352608,101.090806 70.2086278,100.591621 70.8933873,100.195558 L73.1360203,98.8990752 C74.4781975,98.1227675 76.5087797,98.0388094 77.6714127,98.710778 L111.347666,118.179309 C111.856223,118.473467 112.114147,118.863446 112.131463,119.27411 C112.153337,119.802194 111.776932,120.364652 111.021995,120.801173 L108.779058,122.097656 C107.436881,122.873659 105.406299,122.957921 104.24397,122.285953" id="Fill-29" fill="#4C6370"></path>
            <path d="M104.24397,122.285953 L70.5677165,102.817421 C69.9984,102.488281 69.7429063,102.03868 69.7881722,101.574477 C69.8352608,101.090806 70.2086278,100.591621 70.8933873,100.195558 L73.1360203,98.8990752 C74.4781975,98.1227675 76.5087797,98.0388094 77.6714127,98.710778 L111.347666,118.179309 C111.856223,118.473467 112.114147,118.863446 112.131463,119.27411 C112.153337,119.802194 111.776932,120.364652 111.021995,120.801173 L108.779058,122.097656 C107.436881,122.873659 105.406299,122.957921 104.24397,122.285953" id="Fill-31" fill="#235569"></path>
            <path d="M68.891757,85.0790339 C68.891757,85.0790339 73.4569215,103.650492 90.4094278,109.633415 C95.2115544,107.330957 96.2171241,93.1326178 96.2171241,93.1326178 C96.2171241,93.1326178 93.0728203,91.7792507 88.0060861,89.0947227 C85.2336304,87.6257612 79.7230481,83.3788836 73.4532759,81.1661633 C71.3585924,82.1703136 68.891757,85.0790339 68.891757,85.0790339" id="Fill-33" fill="#3A1A3E"></path>
            <path d="M98.7305013,96.7362126 C99.4541468,100.613797 97.6155646,105.837751 94.6237671,108.403947 C93.1278684,109.687045 91.6268051,110.063031 90.4094886,109.633202 C89.1918684,109.203678 88.2579949,107.968643 87.8961722,106.029699 C87.1722228,102.152115 89.0111089,96.9284643 92.0029063,94.3619643 C93.4988051,93.0788664 94.9995646,92.7028804 96.2171848,93.1324049 C97.4345013,93.5622336 98.3686785,94.7975727 98.7305013,96.7362126" id="Fill-35" fill="#140B18"></path>
            <path d="M92.5810633,92.9928703 C106.355848,99.1522269 106.636557,110.377356 104.003544,116.145213 C101.370835,121.91307 92.6017215,124.04244 92.5810633,127.388594 C92.5607089,130.734748 94.9926076,134.796674 90.7379241,135.351528 C86.4829367,135.906077 82.4339241,133.979605 82.4339241,128.098587 C82.4339241,122.217265 91.3421772,119.589622 94.4324051,115.630818 C97.5226329,111.672014 90.3657722,107.428786 86.8985316,105.533038 C79.3959494,101.430653 78.019443,86.4812549 92.5810633,92.9928703" id="Fill-37" fill="#F79500"></path>
            <path d="M73.4533367,81.166072 C76.581843,82.2703028 79.6122228,85.8123587 80.2216405,89.0775965 C80.8307544,92.3425301 78.7886278,94.0943937 75.6598177,92.9901629 C72.5313114,91.8859322 69.5009316,88.3441804 68.8918177,85.0789427 C68.2824,81.8140091 70.3248304,80.0621455 73.4533367,81.166072" id="Fill-39" fill="#3A1A3E"></path>
            <path d="M87.896081,106.029912 C87.1724354,102.152328 89.0110177,96.9283731 92.0028152,94.3621773 C93.4987139,93.0787752 94.9997772,92.7027892 96.2170937,93.1326178 C96.2170937,93.1326178 93.0730937,91.7795549 88.0060557,89.0947227 C85.2336,87.6257612 79.7230177,83.3788836 73.4532456,81.1664675 C71.358562,82.1703136 68.8917266,85.0790339 68.8917266,85.0790339 C68.8917266,85.0790339 73.4568911,103.650492 90.4093975,109.633415 C89.1917772,109.203891 88.2579038,107.968551 87.896081,106.029912" id="Fill-41" fill="#3A1A3E"></path>
            <polygon id="Fill-43" fill="#0D3F4E" points="7.7856 70.0343916 17.027119 118.179766 59.3676759 100.051825 50.1337519 55.0852972"></polygon>
            <path d="M73.4533367,81.166072 C76.581843,82.2703028 79.6122228,85.8123587 80.2216405,89.0775965 C80.8307544,92.3425301 78.7886278,94.0943937 75.6598177,92.9901629 C72.5313114,91.8859322 69.5009316,88.3441804 68.8918177,85.0789427 C68.2824,81.8140091 70.3248304,80.0621455 73.4533367,81.166072" id="Fill-45" fill="#3A1A3E"></path>
            <path d="M81.7563646,110.819201 C81.8669468,101.981704 81.6679595,90.0411063 76.9590987,84.5153895 C71.3251747,77.9046063 59.9282127,77.4087671 48.2554025,84.1570469 C36.5825924,90.9050224 37.250643,104.817722 37.906238,113.483043 L37.7907949,135.417994 C37.7907949,145.37341 35.0669468,146.011917 38.6629975,148.091096 L46.3265924,152.521708 C55.8147949,157.510519 60.9456304,157.43082 64.0598582,155.630893 L87.9274025,141.568529 C92.9667949,137.886239 81.7563646,134.136113 81.7563646,110.819201" id="Fill-47" fill="#008F7E"></path>
            <path d="M8.56942785,71.129101 L11.4634025,72.802178 C12.6260354,73.4741465 14.6563139,73.3901885 15.9987949,72.6138808 L49.0234025,53.5219437 C49.7555544,53.0991115 50.1316557,52.5573388 50.1337823,52.0435521 C50.1359089,51.6152444 49.877681,51.2057969 49.3490734,50.9003843 L46.4550987,49.2273073 C45.2927696,48.5550346 43.2621873,48.6392969 41.9200101,49.4153003 L8.89509873,68.5072374 C8.14016203,68.9437584 7.76345316,69.5062164 7.78563038,70.0343003 C7.80264304,70.4449647 8.06087089,70.8349437 8.56942785,71.129101" id="Fill-49" fill="#235569"></path>
            <path d="M51.7530835,87.5087371 C56.7229063,90.3815622 65.7806278,90.8743594 69.7500456,87.5084329 C71.0463494,86.4093734 70.3849823,81.204279 70.8971848,78.4646916 C72.1154127,71.9485133 72.5364759,65.5972091 69.0379443,63.574307 C64.0681215,60.7014818 59.8930329,59.9765832 54.9232101,62.8497126 C51.8864506,64.6052266 52.4171848,70.899342 52.1708051,77.3136147 C52.0137418,81.396835 49.8200203,86.3911217 51.7530835,87.5087371" id="Fill-51" fill="#F79500"></path>
            <path d="M42.7853468,15.8091168 C25.7869671,78.3131413 60.6216,70.3219175 63.0589671,109.199358 C65.9040304,154.577767 75.0790177,162.846113 109.752638,142.286736 C114.761347,139.316872 119.6376,136.471424 123.407423,134.384033 C130.390815,130.516792 134.200739,133.188848 138.791423,135.868508 C149.712638,142.242627 162.955777,149.891935 162.955777,149.891935" id="Stroke-53" stroke="#DEE7EE" stroke-width="0.607594937"></path>
            <path d="M60.6217519,124.57962 C60.6217519,124.57962 62.7346633,120.197375 66.1122835,120.197375 C69.4902076,120.197375 65.6298532,124.088648 65.6298532,124.088648 L60.6217519,124.57962 Z" id="Fill-55" fill="#F79500"></path>
            <path d="M26.9440405,128.675555 L20.0630278,130.32095 L20.0593823,133.523524 C20.0812557,133.929625 20.3394835,134.314737 20.8428759,134.605852 L54.5191291,154.074384 C55.6814582,154.746352 57.7120405,154.66209 59.0542177,153.886087 L61.2971544,152.5893 C62.0062177,152.179852 62.3811038,151.658765 62.4060152,151.159276 L62.4066228,148.020583 L26.9440405,128.675555 Z" id="Fill-57" fill="#0D3F4E"></path>
            <path d="M54.5190987,151.032456 L20.8428456,131.563925 C20.2735291,131.234785 20.0180354,130.784879 20.0633013,130.320981 C20.1100861,129.837309 20.483757,129.338124 21.1685165,128.942061 L23.4111494,127.645274 C24.7533266,126.869271 26.7839089,126.785313 27.946238,127.457281 L61.6227949,146.925813 C62.1313519,147.21997 62.3892759,147.609949 62.4065924,148.020614 C62.4284658,148.548698 62.0520608,149.111156 61.2971241,149.547372 L59.0541873,150.844159 C57.7120101,151.620163 55.6814278,151.704425 54.5190987,151.032456" id="Fill-59" fill="#235569"></path>
            <path d="M75.4418734,134.856327 C75.4418734,132.350971 75.3215696,123.03467 75.3215696,123.03467 C75.3215696,115.107936 76.0306329,115.992233 76.0306329,113.450069 C76.0306329,110.9076 73.6020759,109.376887 73.0500759,108.539436 C72.4980759,107.702289 72.6086582,105.114191 72.6086582,105.114191 L70.3906329,105.114191 L68.1723038,105.114191 C68.1723038,105.114191 68.2828861,107.702289 67.7308861,108.539436 C67.1788861,109.376887 64.7503291,110.9076 64.7503291,113.450069 C64.7503291,115.992233 65.4593924,115.107936 65.4593924,123.03467 C65.4593924,123.03467 65.3390886,132.350971 65.3390886,134.856327 C65.3390886,137.36138 64.7135696,137.607778 64.7135696,138.945936 C64.7135696,140.284093 65.4864304,140.346149 65.8910886,140.346149 C66.2957468,140.346149 66.2222278,139.682698 67.0029873,139.682698 C67.7837468,139.682698 67.5838481,140.346149 68.6140253,140.346149 C69.6442025,140.346149 69.7177215,139.426869 70.3906329,139.426869 C71.0632405,139.426869 71.1367595,140.346149 72.1669367,140.346149 C73.1974177,140.346149 72.9972152,139.682698 73.7779747,139.682698 C74.5587342,139.682698 74.4852152,140.346149 74.8898734,140.346149 C75.2948354,140.346149 76.0673924,140.284093 76.0673924,138.945936 C76.0673924,137.607778 75.4418734,137.36138 75.4418734,134.856327" id="Fill-61" fill="#F2F2F2"></path>
            <path d="M75.1968911,138.084544 C75.0073215,137.456076 74.7718785,136.673076 74.7718785,135.085478 C74.7718785,132.566737 74.6506633,123.145184 74.6494481,123.050275 C74.6494481,119.707772 74.9711696,117.345083 74.9678278,116.578814 C74.9167899,115.977723 74.4033722,115.441426 73.5934481,114.971139 C71.8666633,113.967901 68.8779038,113.925314 67.1547646,114.87623 C66.314157,115.339824 65.8845873,115.9543 65.8651443,116.578814 C65.8651443,117.68274 66.1315747,119.594915 66.1315747,123.040237 C66.1303595,123.145184 66.0094481,132.566737 66.0094481,135.085478 C66.0094481,136.673076 65.7737013,137.456076 65.5841316,138.084544 C65.4607899,138.493992 65.3717772,138.78967 65.3717772,139.252352 C65.3717772,139.729635 65.4525873,139.861656 65.6029671,139.898464 C65.7952709,139.645981 66.1659038,139.236534 66.9390684,139.236534 C67.6150177,139.236534 67.9528405,139.558373 68.1548658,139.750625 C68.2921823,139.881429 68.3249924,139.912457 68.5804861,139.912457 C68.8292962,139.912457 68.9155747,139.836712 69.1510177,139.597919 C69.3952709,139.350303 69.7643848,138.976142 70.3905114,138.976142 C71.016638,138.976142 71.3857519,139.350303 71.6300051,139.597919 C71.8654481,139.836712 71.9517266,139.912457 72.2005367,139.912457 C72.4560304,139.912457 72.4888405,139.881429 72.626157,139.750625 C72.8281823,139.558373 73.1660051,139.236534 73.8419544,139.236534 C74.615119,139.236534 74.9857519,139.645981 75.1780557,139.898464 C75.3284354,139.86196 75.4092456,139.729635 75.4092456,139.252352 C75.4092456,138.78967 75.3202329,138.493992 75.1968911,138.084544" id="Fill-63" fill="#2F302F"></path>
            <path d="M74.5592506,132.871906 C74.8931241,132.687867 75.1811241,132.486794 75.4259848,132.274465 C75.3931747,128.589742 75.3217823,123.034518 75.3217823,123.034518 C75.3217823,121.528749 75.3889215,119.388731 75.3889215,119.388731 C75.3889215,119.388731 75.7054785,119.213819 75.3889215,119.388731 C72.8725671,120.777081 67.958643,120.5465 65.4368203,119.081493 C65.416162,119.06963 65.396719,119.064154 65.3763646,119.05442 C65.4270987,120.061308 65.4593013,121.34684 65.4593013,123.034518 C65.4593013,123.034518 65.3821367,129.013791 65.351757,132.680263 C65.3806177,132.697906 65.4070481,132.716158 65.4368203,132.733497 C67.958643,134.1982 72.0428962,134.260256 74.5592506,132.871906" id="Fill-65" fill="#C63746"></path>
            <path d="M71.8484354,106.054551 C71.0087392,106.517842 69.6459038,106.497156 68.804081,106.008618 C68.3732962,105.75796 68.1624608,105.433384 68.1724861,105.113978 C68.1819038,104.809782 68.3912203,104.510453 68.801043,104.284436 C69.6407392,103.820842 71.0971443,103.841831 71.9386633,104.33037 C72.3336,104.559733 72.5836253,104.821037 72.6085367,105.113978 C72.6367899,105.445247 72.2944101,105.808457 71.8484354,106.054551" id="Fill-67" fill="#F2F2F2"></path>
            <path d="M72.3779544,130.478159 C69.0620051,134.377036 61.370157,129.5169 61.370157,129.5169 C61.370157,129.5169 53.0230177,137.454585 42.980081,137.454585 C32.9368405,137.454585 28.7377519,127.054131 29.3177013,119.037963 C29.8387139,111.837344 46.2291949,102.915281 44.9338025,112.664452 C43.9938532,119.738526 42.980081,122.984903 46.6007392,124.834718 C48.9539544,126.036596 56.2864101,124.714257 60.6216,124.579498 C60.6216,124.579498 63.458157,123.191757 65.4197772,123.010456 C69.3363342,122.649376 74.8906633,119.63662 72.3779544,130.478159" id="Fill-69" fill="#F79500"></path>
            <path d="M49.6293873,91.1287888 C49.6293873,94.4503028 47.3004759,98.4894147 44.4274633,100.150324 C41.5547544,101.810929 39.225843,100.464558 39.225843,97.1430441 C39.225843,93.8218343 41.5547544,89.7824182 44.4274633,88.1215091 C47.3004759,86.4609042 49.6293873,87.8072748 49.6293873,91.1287888" id="Fill-71" fill="#3A1A3E"></path>
            <path d="M44.4276152,88.1215699 C44.4276152,88.1215699 28.4527291,98.6062867 28.4527291,116.60464 C32.2176911,120.374234 45.9253367,116.604031 45.9253367,116.604031 C45.9253367,116.604031 46.1547038,113.185175 46.9992608,107.50736 C47.4610329,104.401217 49.6295392,97.7855664 49.6295392,91.1288497 C47.9872101,89.4843671 44.4276152,88.1215699 44.4276152,88.1215699" id="Fill-73" fill="#3A1A3E"></path>
            <path d="M43.3665418,120.175594 C39.9548962,122.147696 34.4233519,122.148 31.0117063,120.175594 C29.3058835,119.189696 28.4528203,117.897168 28.4528203,116.60464 C28.4528203,115.312112 29.3055797,114.01928 31.0114025,113.033077 C34.4233519,111.060671 39.9548962,111.060367 43.3665418,113.033077 C45.0723646,114.018976 45.9254278,115.311503 45.9254278,116.604031 C45.9254278,117.896864 45.0723646,119.189392 43.3665418,120.175594" id="Fill-75" fill="#3A1A3E"></path>
            <path d="M101.572982,26.1886122 C101.572982,26.1886122 96.903919,60.5183255 87.7386532,68.4505353 C70.788881,83.1185528 63.0590582,92.9626332 63.0590582,109.199388" id="Stroke-77" stroke="#DEE7EE" stroke-width="0.607594937"></path>
            <path d="M50.5757165,10.9981385 C50.2075139,13.0882678 48.2170329,14.4842224 46.1296405,14.1155371 C44.0419443,13.7468517 42.6481215,11.7534566 43.0163241,9.66332727 C43.3842228,7.5731979 45.3750076,6.17754755 47.4624,6.54592867 C49.5500962,6.91461399 50.943919,8.90800909 50.5757165,10.9981385" id="Fill-79" fill="#FFFFFF"></path>
            <path d="M103.455251,20.3343336 C103.087048,22.4247671 101.096567,23.8204175 99.0091747,23.4517322 C96.9214785,23.083351 95.5276557,21.0899559 95.8958582,18.9995224 C96.263757,16.909393 98.2545418,15.5137427 100.341934,15.882428 C102.42963,16.2508091 103.823453,18.2442042 103.455251,20.3343336" id="Fill-81" fill="#FFFFFF"></path>
            <path d="M48.3462076,1.11621608 C48.3462076,1.11621608 49.0133468,-2.84928042 44.5709165,23.5570448 C40.1281823,49.9636741 37.9068152,63.1666846 64.3183595,67.6039888 C90.7299038,72.041293 92.9509671,58.8382825 97.3937013,32.4316531 C101.836435,6.02532797 101.169296,9.99082448 101.169296,9.99082448 L86.4092962,17.0098385 L59.9977519,12.5725343 L48.3462076,1.11621608 Z" id="Fill-83" fill="#F79500"></path>
            <path d="M64.4916759,78.4250245 C64.4916759,78.4250245 65.9173975,78.6765944 75.5404861,80.3758322 C85.1638785,82.0747657 92.186157,75.5871818 92.9605367,64.9296818 C93.7346127,54.272486 97.3166886,32.8698776 97.3166886,32.8698776 C93.7060557,53.3738916 88.0560304,60.6076678 85.0001316,61.439035 C82.8127899,62.034042 78.5851443,62.391472 77.8435747,56.8636259 C77.1020051,51.3354755 69.0990684,52.8981294 66.6516759,54.6144021 C65.9602329,58.540049 65.4340557,60.3150315 68.760638,60.9021294 C72.0869165,61.4895315 75.1734987,53.9390874 76.0618025,60.7196119 C76.9504101,67.5001364 66.6073215,66.4098986 66.6073215,66.4098986 L61.9716759,65.5916119 C61.9716759,65.5916119 51.8801316,63.073479 55.0308152,57.0062937 C58.1818025,50.9391084 59.1955747,59.2135385 62.522157,59.8006364 C65.8487392,60.3883427 65.9602329,58.540049 66.6516759,54.6144021 C64.9379544,52.1634965 57.2588658,47.8323566 54.6738532,52.7728007 C52.0888405,57.713549 48.2382076,55.9297448 46.3859544,54.6213986 C43.7985114,52.793486 40.9601316,44.0612413 44.5707646,23.5572273 C44.5707646,23.5572273 40.6262582,44.8953462 37.7134481,55.1753392 C34.800638,65.455028 39.1835241,73.9566923 48.8069165,75.6556259 C58.4300051,77.3545594 59.8557266,77.6064336 59.8557266,77.6064336 L64.4916759,78.4250245 Z" id="Fill-85" fill="#3A1A3E"></path>
            <path d="M85.7506633,41.3039497 C85.4173975,43.2857853 84.6645873,42.8495685 83.6736,42.6828692 C82.6823089,42.5164741 81.8283342,42.682565 82.1619038,40.7010336 C82.4951696,38.7191979 83.5687899,37.2478028 84.560081,37.4141979 C85.5510684,37.5808972 86.0842329,39.322114 85.7506633,41.3039497" id="Fill-87" fill="#8F2E07"></path>
            <path d="M56.0998481,36.3224392 C55.7665823,38.3042748 55.0137722,37.868058 54.0227848,37.7013587 C53.0314937,37.5349636 52.177519,37.7010545 52.5110886,35.7195231 C52.8443544,33.7376874 53.9179747,32.2662923 54.908962,32.4326874 C55.9002532,32.5993867 56.4331139,34.3406035 56.0998481,36.3224392" id="Fill-89" fill="#8F2E07"></path>
            <path d="M71.560162,49.440001 C71.1953013,51.6086129 68.8205165,54.9784941 66.6517063,54.6143717 C64.4828962,54.2499451 63.3415291,50.2890115 63.7060861,48.1207038 C64.0709468,45.952092 65.8038076,46.3974346 67.9726177,46.761557 C70.1417316,47.1262878 71.9250228,47.2716934 71.560162,49.440001" id="Fill-91" fill="#8F2E07"></path>
            <g id="Group-95" transform="translate(45.265823, 0.172783)">
                <mask id="mask-6" fill="white">
                    <use xlink:href="#path-5"></use>
                </mask>
                <g id="Clip-94"></g>
                <path d="M14.7319899,12.3998119 C13.7650025,18.1482 8.32004051,22.0251755 2.57067342,21.0593538 C-3.17869367,20.093228 2.48439494,16.2530601 3.45138228,10.5049762 C4.41867342,4.75628392 0.323483544,-0.723499301 6.07285063,0.242626573 C11.8222177,1.20844825 15.6989772,6.65172797 14.7319899,12.3998119" id="Fill-93" fill="#F79500" mask="url(#mask-6)"></path>
            </g>
            <path d="M97.6897823,18.9051608 C96.7227949,24.6532448 100.817985,30.133028 95.0686177,29.1672063 C89.3189468,28.2013846 85.4421873,22.7584091 86.4091747,17.010021 C87.3764658,11.2616329 92.8211241,7.38465734 98.5704911,8.35078322 C104.320162,9.3166049 98.6567696,13.1570769 97.6897823,18.9051608" id="Fill-96" fill="#F79500"></path>
            <path d="M63.0590886,32.8886465 L76.3781772,35.1260066" id="Stroke-98" stroke="#3A1A3E" stroke-width="3.03797468"></path>
            <path d="M62.5563038,35.7434633 C61.3918481,42.3566801 55.0938228,46.7726906 48.4892658,45.6064038 C41.8847089,44.4404213 37.474481,38.1338339 38.6392405,31.5206171 C39.8036962,24.9077045 46.1017215,26.5756101 52.7062785,27.7415927 C59.3108354,28.9078794 63.7207595,29.1305507 62.5563038,35.7434633 Z" id="Stroke-100" stroke="#3A1A3E" stroke-width="3.03797468"></path>
            <path d="M99.7732557,42.314549 C98.6088,48.9277657 92.3104709,53.343472 85.7059139,52.1774895 C79.101357,51.011507 74.6914329,44.7049196 75.8558886,38.0917028 C77.0206481,31.478486 83.3186734,33.1466958 89.9232304,34.3126783 C96.5277873,35.4786608 100.937711,35.7013322 99.7732557,42.314549 Z" id="Stroke-102" stroke="#3A1A3E" stroke-width="3.03797468"></path>
            <path d="M42.7853468,15.8091168 L42.7853468,15.8091168 C42.3311696,15.7288091 42.0252456,15.2913755 42.1051443,14.8366028 L42.9761316,9.89098741 C43.0563342,9.43651888 43.4931949,9.12988951 43.9473722,9.2101972 C44.4015494,9.2902007 44.7074734,9.72793846 44.6275747,10.1827112 L43.7565873,15.1283266 C43.6766886,15.5827951 43.2395241,15.8894245 42.7853468,15.8091168" id="Fill-104" fill="#FFFFFF"></path>
            <path d="M101.572982,26.1886122 L101.572982,26.1886122 C101.118805,26.1083045 100.812881,25.670871 100.89278,25.2160983 L101.763767,20.2704829 C101.84397,19.8157101 102.28083,19.509385 102.735008,19.5896927 C103.189185,19.6696962 103.495109,20.1074339 103.41521,20.5622066 L102.544223,25.5075178 C102.464324,25.9622906 102.027159,26.2689199 101.572982,26.1886122" id="Fill-106" fill="#FFFFFF"></path>
            <polygon id="Fill-124" fill="#00637E" points="160.937863 157.899159 114.766724 184.59082 83.2270785 166.357628 83.2270785 164.207268 160.937863 155.749103"></polygon>
            <polygon id="Fill-126" fill="#00769C" points="160.937863 155.748982 114.766724 182.440643 83.2270785 164.20745 129.398522 137.51579"></polygon>
            <polygon id="Fill-130" fill="#00637E" points="119.357286 172.53621 116.26159 174.326098 119.357286 176.115682 122.452982 174.326098"></polygon>
            <polygon id="Fill-132" fill="#00637E" points="123.947939 169.882497 120.852243 171.672081 123.947939 173.461969 127.043635 171.672081"></polygon>
            <polygon id="Fill-134" fill="#00637E" points="128.538653 167.22851 125.442957 169.018398 128.538653 170.807982 131.634349 169.018398"></polygon>
            <polygon id="Fill-136" fill="#00637E" points="133.129276 164.574828 130.03358 166.364412 133.129276 168.1543 136.224972 166.364412"></polygon>
            <polygon id="Fill-138" fill="#00637E" points="137.71999 161.920841 134.624294 163.710425 137.71999 165.500313 140.815686 163.710729"></polygon>
            <polygon id="Fill-140" fill="#00637E" points="142.310613 159.266854 139.214916 161.056742 142.310613 162.846326 145.406309 161.056742"></polygon>
            <polygon id="Fill-142" fill="#00637E" points="146.901327 156.613141 143.80563 158.402725 146.901327 160.192613 149.997023 158.402725"></polygon>
            <polygon id="Fill-144" fill="#00637E" points="151.491949 153.959155 148.396253 155.749043 151.491949 157.538627 154.587646 155.749043"></polygon>
            <polygon id="Fill-146" fill="#00637E" points="110.533063 172.742667 107.437367 174.532556 110.533063 176.32214 113.628759 174.532556"></polygon>
            <polygon id="Fill-148" fill="#00637E" points="115.123777 170.088955 112.028081 171.878538 115.123777 173.668427 118.219473 171.878538"></polygon>
            <polygon id="Fill-150" fill="#00637E" points="119.71443 167.434968 116.618734 169.224856 119.71443 171.01444 122.810127 169.224856"></polygon>
            <polygon id="Fill-152" fill="#00637E" points="124.305144 164.781285 121.209448 166.570869 124.305144 168.360757 127.400841 166.570869"></polygon>
            <polygon id="Fill-154" fill="#00637E" points="128.895767 162.127299 125.800071 163.916883 128.895767 165.706771 131.991463 163.917187"></polygon>
            <polygon id="Fill-156" fill="#00637E" points="133.486481 159.473312 130.390785 161.2632 133.486481 163.052784 136.582177 161.2632"></polygon>
            <polygon id="Fill-158" fill="#00637E" points="138.077195 156.819599 134.981499 158.609183 138.077195 160.399071 141.172891 158.609183"></polygon>
            <polygon id="Fill-160" fill="#00637E" points="142.667818 154.165612 139.572122 155.9555 142.667818 157.745084 145.763514 155.9555"></polygon>
            <polygon id="Fill-162" fill="#00637E" points="147.258532 151.51193 144.162835 153.301514 147.258532 155.091098 150.354228 153.301514"></polygon>
            <polygon id="Fill-164" fill="#00637E" points="110.890268 167.641426 107.794572 169.431314 110.890268 171.220898 113.985965 169.431314"></polygon>
            <polygon id="Fill-166" fill="#00637E" points="120.071605 162.333756 116.975909 164.12334 120.071605 165.913228 123.167301 164.12334"></polygon>
            <polygon id="Fill-168" fill="#00637E" points="124.662319 159.67977 121.566623 161.469658 124.662319 163.259242 127.758015 161.469658"></polygon>
            <polygon id="Fill-170" fill="#00637E" points="129.252972 157.026087 126.157276 158.815671 129.252972 160.605559 132.348668 158.815671"></polygon>
            <polygon id="Fill-172" fill="#00637E" points="133.843686 154.3721 130.74799 156.161988 133.843686 157.951572 136.939382 156.161988"></polygon>
            <polygon id="Fill-174" fill="#00637E" points="138.434309 151.718083 135.338613 153.507971 138.434309 155.297555 141.530005 153.507971"></polygon>
            <polygon id="Fill-176" fill="#00637E" points="143.025023 149.064401 139.929327 150.853985 143.025023 152.643873 146.120719 150.853985"></polygon>
            <polygon id="Fill-178" fill="#00637E" points="102.066137 167.847914 98.9704405 169.637802 102.066137 171.427386 105.161833 169.637802"></polygon>
            <polygon id="Fill-180" fill="#00637E" points="106.656851 165.194201 103.561154 166.983785 106.656851 168.773369 109.752547 166.983785"></polygon>
            <polygon id="Fill-182" fill="#00637E" points="111.247473 162.540214 108.151777 164.329798 111.247473 166.119686 114.34317 164.329798"></polygon>
            <polygon id="Fill-184" fill="#00637E" points="115.838187 159.886227 112.742491 161.676115 115.838187 163.465699 118.933884 161.676115"></polygon>
            <polygon id="Fill-186" fill="#00637E" points="120.42881 157.232545 117.333114 159.022129 120.42881 160.812017 123.524506 159.022129"></polygon>
            <polygon id="Fill-188" fill="#00637E" points="125.019524 154.578558 121.923828 156.368142 125.019524 158.15803 128.11522 156.368446"></polygon>
            <polygon id="Fill-190" fill="#00637E" points="129.610177 151.924571 126.514481 153.714459 129.610177 155.504043 132.705873 153.714459"></polygon>
            <polygon id="Fill-192" fill="#00637E" points="134.200861 149.270858 131.105165 151.060442 134.200861 152.85033 137.296557 151.060442"></polygon>
            <polygon id="Fill-194" fill="#00637E" points="138.791514 146.616872 135.695818 148.40676 138.791514 150.196344 141.88721 148.40676"></polygon>
            <polygon id="Fill-196" fill="#00637E" points="115.626441 149.14848 103.349377 156.245673 110.826744 160.568295 123.103808 153.471103"></polygon>
            <polygon id="Fill-198" fill="#00637E" points="160.937863 155.748982 114.766724 182.440643 139.307787 157.713478 185.47923 131.021817"></polygon>
            <polygon id="Fill-200" fill="#00637E" points="186.987038 132.211831 140.815899 158.903492 139.307848 157.713478 185.479291 131.021817"></polygon>
            <polygon id="Fill-202" fill="#00769C" points="162.445884 156.938752 116.274441 183.630413 140.815808 158.903553 186.986947 132.211892"></polygon>
            <path d="M86.6146025,190.482272 L99.6244253,182.96103 C100.033033,182.72467 100.247818,182.424125 100.259058,182.136051 C100.259058,182.13088 100.259362,180.900104 100.259362,180.894628 C100.2624,180.64823 100.114754,181.637779 99.8106532,181.461953 L80.415919,170.2496 C79.7512101,169.865401 78.5900962,169.913464 77.8224,170.357286 L64.8125772,177.878223 C64.3890835,178.1231 64.1736911,177.214467 64.1776405,177.511363 C64.1779443,177.517142 64.1779443,178.745789 64.1782481,178.751569 C64.1879696,178.986408 64.3356152,179.209384 64.6263494,179.377604 L84.0210835,190.589957 C84.6857924,190.974156 85.8469063,190.925789 86.6146025,190.482272" id="Fill-204" fill="#00637E"></path>
            <path d="M86.6146025,189.265488 L99.6244253,181.744247 C100.044881,181.501499 100.25997,181.189698 100.259362,180.894628 C100.258754,180.651272 100.111109,180.418866 99.8106532,180.24517 L80.415919,169.032817 C79.7512101,168.648618 78.5900962,168.696681 77.8224,169.140502 L64.8125772,176.66144 C64.3921215,176.904492 64.1770329,177.216293 64.1776405,177.511363 C64.1782481,177.754719 64.3258937,177.987125 64.6263494,178.160821 L84.0210835,189.373174 C84.6857924,189.757373 85.8469063,189.709006 86.6146025,189.265488" id="Fill-206" fill="#00769C"></path>
            <polygon id="Fill-208" fill="#00637E" points="97.6880506 180.441711 84.3613671 188.146078 66.7487089 177.964036 80.0756962 170.259669"></polygon>
        </g>
    </g>
</svg>
