<svg xmlns="http://www.w3.org/2000/svg" viewBox="0 0 1984.29 1145.63"><defs><style>.cls-1{fill:#aa5f05;}.cls-2{fill:#c98200;}.cls-3{fill:#28414f;}.cls-14,.cls-21,.cls-24,.cls-4{fill:none;}.cls-4{stroke:#152126;stroke-width:19px;}.cls-14,.cls-21,.cls-23,.cls-24,.cls-4{stroke-miterlimit:10;}.cls-5{fill:#404a51;}.cls-6{fill:#1d3138;}.cls-7{fill:#36203f;}.cls-8{fill:#54636f;}.cls-9{fill:#4b84b5;}.cls-10{fill:#3a5668;}.cls-11{fill:#190e1e;}.cls-12{fill:#e09410;}.cls-13{fill:#248e7e;}.cls-14{stroke:#e0e6ed;stroke-width:2px;}.cls-15,.cls-18{fill:#f2f2f2;}.cls-15{opacity:0.75;}.cls-16{fill:#333;}.cls-17{fill:#ab3a47;}.cls-19{fill:#fff;}.cls-20{fill:#7c320d;}.cls-21{stroke:#36203f;stroke-width:10px;}.cls-22,.cls-23{fill:#31637c;}.cls-23,.cls-24{stroke:#31637c;stroke-width:3px;}.cls-25{fill:#3a7599;}</style></defs><title>kickstarter-card_wevdeveloper</title><g id="Camada_9" data-name="Camada 9"><path class="cls-1" d="M176.37,516.61s-63,8.14-111-45.83-22.65-153.87,20-192-6.52-73.45-24.52-53.95c-31.5-49.5,40.5-139.49,162-93S224.33,511.41,176.37,516.61Z"/><path class="cls-2" d="M60.91,224.83c9.94-10.77,29.38-4.81,37.62,9.09,7.08-3.89,18.66-10.5,36.57-21.33,35.41-21.41,4.48-99.22-54.53-67C54.41,168.46,45.9,201.24,60.91,224.83Z"/><path class="cls-2" d="M83.18,487.62C69.5,468.41,59.9,438.42,59.9,392.09c0-30.35-1.13-54.44-3-73.53-22.35,46.64-27.2,112.12,8.47,152.22A141,141,0,0,0,83.18,487.62Z"/><path class="cls-3" d="M91.37,431.91l9.53,5.5c3.82,2.21,10.51,1.93,14.93-.62L224.53,374c2.51-1.44,13.75,96.69,13.65,94.94-.07-1.33-10.92-102.6-12.57-103.56l-9.53-5.5c-3.83-2.21-10.51-1.93-14.93.62L92.44,423.29c-2.6,1.51-3.84,3.47-3.63,5.28A4.61,4.61,0,0,0,91.37,431.91Z"/><path class="cls-4" d="M332.17,403.32v80.39c0,52.87-3.05,63.27-37.38,86.41"/><path class="cls-3" d="M366.08,560.75,257.26,497.91c-3.83-2.21-10.51-1.93-14.93.62l-84.8,49L130,545.74l0,20.57a4.48,4.48,0,0,0,2.58,3.6l141.16,81.5c3.83,2.21,10.51,1.94,14.93-.62L397.35,588c2.31-1.33,3.54-3,3.64-4.65V563Z"/><polygon class="cls-5" points="202.68 610.4 230.3 626.35 230.3 608.24 202.68 592.4 202.68 610.4"/><path class="cls-6" d="M273.71,631.41l-141.16-81.5c-1.91-1.1-2.75-2.61-2.56-4.17s1.42-3.17,3.63-4.45l108.71-62.76c4.42-2.55,11.1-2.83,14.93-.62l141.16,81.5A4.55,4.55,0,0,1,401,563c.09,1.75-1.15,3.62-3.65,5.07L288.64,630.79C284.22,633.34,277.54,633.62,273.71,631.41Z"/><path class="cls-7" d="M168.49,497.82s-6.71,61.27,44.62,91.27,77.74,30,77.74,30l85.59-58s7.34-19.71-2.66-32.52-37.26-21.87-70-31.68S168.49,497.82,168.49,497.82Z"/><path class="cls-4" d="M168.49,497.82v80.39c0,52.87,20.44,56.22,56.27,35.46"/><path class="cls-3" d="M285.13,368.57,262.48,374v10.53a4.52,4.52,0,0,0,2.58,3.56l110.85,64c3.83,2.2,10.51,1.93,14.93-.62l7.38-4.27c2.34-1.34,3.57-3.06,3.65-4.7V432.16Z"/><path class="cls-8" d="M375.9,442.07l-110.85-64c-1.87-1.09-2.72-2.56-2.57-4.09s1.39-3.23,3.64-4.53l7.38-4.27c4.42-2.55,11.11-2.82,14.93-.61l110.85,64a4.45,4.45,0,0,1,2.58,3.59c.08,1.74-1.16,3.59-3.65,5l-7.38,4.27C386.41,444,379.73,444.27,375.9,442.07Z"/><polygon class="cls-9" points="1984.29 441.03 763.87 1145.63 0 704.6 1220.42 0 1984.29 441.03"/><path class="cls-10" d="M375.9,442.07l-110.85-64c-1.87-1.09-2.72-2.56-2.57-4.09s1.39-3.23,3.64-4.53l7.38-4.27c4.42-2.55,11.11-2.82,14.93-.61l110.85,64a4.45,4.45,0,0,1,2.58,3.59c.08,1.74-1.16,3.59-3.65,5l-7.38,4.27C386.41,444,379.73,444.27,375.9,442.07Z"/><path class="cls-7" d="M259.53,319.75s15,61.05,70.83,80.72c15.81-7.57,19.12-54.24,19.12-54.24s-10.35-4.45-27-13.28c-9.12-4.82-27.26-18.79-47.9-26.06C267.65,310.19,259.53,319.75,259.53,319.75Z"/><path class="cls-11" d="M357.75,358.07c2.38,12.75-3.67,29.92-13.52,38.36-4.92,4.22-9.86,5.45-13.87,4s-7.08-5.47-8.27-11.84c-2.38-12.75,3.67-29.92,13.52-38.36,4.92-4.22,9.86-5.45,13.87-4S356.56,351.7,357.75,358.07Z"/><path class="cls-12" d="M337.51,345.77c45.34,20.25,46.27,57.15,37.6,76.11s-37.53,26-37.6,37,7.94,24.35-6.07,26.18-27.33-4.51-27.33-23.85,29.32-28,39.49-41-13.38-27-24.79-33.2C294.11,373.51,289.58,324.36,337.51,345.77Z"/><ellipse class="cls-7" cx="278.18" cy="326.33" rx="13.98" ry="24.21" transform="translate(-145.38 259.47) rotate(-40.58)"/><path class="cls-7" d="M322.09,388.63c-2.38-12.75,3.67-29.92,13.52-38.36,4.92-4.22,9.86-5.45,13.87-4,0,0-10.35-4.45-27-13.28-9.12-4.82-27.26-18.79-47.9-26.06-6.9,3.3-15,12.86-15,12.86s15,61.05,70.83,80.72C326.35,399.06,323.28,395,322.09,388.63Z"/><polygon class="cls-3" points="58.39 270.3 88.81 428.57 228.18 368.97 197.79 221.15 58.39 270.3"/><ellipse class="cls-7" cx="278.18" cy="326.33" rx="13.98" ry="24.21" transform="translate(-145.38 259.47) rotate(-40.58)"/><path class="cls-13" d="M301.88,404.37c.36-29.05-.29-68.3-15.79-86.47-18.55-21.73-56.06-23.36-94.48-1.18s-36.23,67.92-34.07,96.41l-.38,72.11c0,32.72-9,34.82,2.87,41.66l25.23,14.56c31.23,16.4,48.12,16.14,58.37,10.22l78.56-46.23C338.78,493.35,301.88,481,301.88,404.37Z"/><path class="cls-10" d="M61,273.9l9.53,5.5c3.83,2.2,10.51,1.93,14.93-.62L194.13,216c2.41-1.39,3.65-3.17,3.66-4.86a4.43,4.43,0,0,0-2.58-3.75l-9.53-5.5c-3.83-2.21-10.51-1.94-14.93.61L62,265.28c-2.48,1.43-3.72,3.28-3.65,5A4.52,4.52,0,0,0,61,273.9Z"/><path class="cls-12" d="M203.12,327.74c16.36,9.44,46.17,11.07,59.24,0,4.27-3.61,2.09-20.72,3.77-29.73,4-21.42,5.4-42.3-6.12-48.95-16.35-9.44-30.1-11.83-46.46-2.38-10,5.77-8.25,26.46-9.06,47.55C204,307.65,196.76,324.07,203.12,327.74Z"/><path class="cls-14" d="M173.6,92c-55.95,205.47,58.71,179.2,66.73,307C249.7,548.22,279.9,575.4,394,507.82c16.49-9.77,32.54-19.12,45-26,23-12.72,35.53-3.93,50.64,4.88,36,20.95,79.54,46.1,79.54,46.1"/><path class="cls-12" d="M232.31,449.61s7-14.41,18.07-14.41S248.8,448,248.8,448Z"/><path class="cls-4" d="M168.49,497.82v80.39"/><path class="cls-3" d="M121.46,463.07l-22.65,5.41,0,10.53a4.54,4.54,0,0,0,2.58,3.56l110.85,64c3.83,2.2,10.51,1.93,14.93-.62l7.38-4.27c2.34-1.34,3.57-3.06,3.65-4.7V526.66Z"/><path class="cls-10" d="M212.22,536.57l-110.85-64c-1.87-1.09-2.71-2.56-2.56-4.09s1.38-3.23,3.63-4.53l7.39-4.27c4.41-2.55,11.1-2.82,14.92-.61l110.86,64a4.49,4.49,0,0,1,2.58,3.59c.07,1.74-1.17,3.59-3.66,5L227.15,536C222.73,538.5,216.05,538.77,212.22,536.57Z"/><path class="cls-15" d="M281.09,483.39c0-8.24-.39-38.86-.39-38.86,0-26.06,2.33-23.15,2.33-31.51s-8-13.39-9.81-16.14-1.45-11.26-1.45-11.26h-14.6s.36,8.5-1.46,11.26-9.81,7.78-9.81,16.14,2.34,5.45,2.34,31.51c0,0-.4,30.62-.4,38.86s-2.06,9-2.06,13.44,2.54,4.61,3.88,4.61,1.09-2.18,3.66-2.18,1.91,2.18,5.3,2.18,3.63-3,5.85-3,2.45,3,5.84,3,2.74-2.18,5.31-2.18,2.32,2.18,3.66,2.18,3.87-.21,3.87-4.61S281.09,491.62,281.09,483.39Z"/><path class="cls-16" d="M280.29,494a29.6,29.6,0,0,1-1.4-9.86c0-8.28-.4-39.25-.4-39.56,0-11,1.06-18.76,1-21.28-.16-2-1.85-3.73-4.52-5.28-5.68-3.3-15.52-3.44-21.19-.31-2.77,1.52-4.19,3.54-4.25,5.59,0,3.63.88,9.92.88,21.25,0,.34-.4,31.31-.4,39.59a29.88,29.88,0,0,1-1.4,9.86,11.78,11.78,0,0,0-.7,3.84c0,1.57.26,2,.76,2.12a5.14,5.14,0,0,1,4.4-2.17,5.33,5.33,0,0,1,4,1.69,1.47,1.47,0,0,0,1.4.53c.82,0,1.1-.25,1.88-1a5.09,5.09,0,0,1,8.16,0c.77.78,1.06,1,1.87,1a1.49,1.49,0,0,0,1.41-.53,5.29,5.29,0,0,1,4-1.69,5.17,5.17,0,0,1,4.4,2.17c.49-.12.76-.55.76-2.12A12.05,12.05,0,0,0,280.29,494Z"/><path class="cls-17" d="M278.19,476.87a16.37,16.37,0,0,0,2.85-2c-.11-12.11-.34-30.37-.34-30.37,0-4.95.22-12,.22-12h0c-8.28,4.57-24.46,3.81-32.76-1l-.2-.09c.17,3.31.28,7.54.28,13.09,0,0-.26,19.65-.36,31.71.1.05.18.11.28.17C256.46,481.23,269.91,481.43,278.19,476.87Z"/><path class="cls-18" d="M269.27,388.71a11.31,11.31,0,0,1-10-.15c-1.42-.83-2.12-1.89-2.08-2.94a3.42,3.42,0,0,1,2.06-2.73,11.92,11.92,0,0,1,10.33.15c1.3.75,2.13,1.61,2.21,2.58S270.73,387.9,269.27,388.71Z"/><path class="cls-12" d="M271,469c-10.92,12.81-36.24-3.16-36.24-3.16s-27.47,26.09-60.53,26.09-46.88-34.19-45-60.54c1.71-23.67,55.67-53,51.4-20.95-3.09,23.25-6.43,33.92,5.49,40,7.74,4,31.88-.39,46.15-.83,0,0,9.34-4.57,15.79-5.16C261,443.26,279.28,433.36,271,469Z"/><ellipse class="cls-7" cx="179.01" cy="349.53" rx="24.21" ry="13.98" transform="translate(-213.2 329.78) rotate(-60)"/><path class="cls-7" d="M179,329.76s-52.59,34.46-52.59,93.63c12.39,12.39,57.52,0,57.52,0s.75-11.24,3.53-29.91c1.52-10.21,8.66-32,8.66-53.84C190.72,334.24,179,329.76,179,329.76Z"/><path class="cls-7" d="M175.51,435.13c-11.23,6.48-29.44,6.48-40.67,0-5.61-3.24-8.42-7.49-8.42-11.74s2.81-8.5,8.42-11.74c11.23-6.49,29.44-6.49,40.67,0,5.62,3.24,8.43,7.49,8.43,11.74S181.13,431.89,175.51,435.13Z"/><path class="cls-14" d="M367.11,126.16S351.74,239,321.57,265.09c-55.79,48.22-81.24,80.58-81.24,134"/><circle class="cls-19" cx="186.8" cy="74.03" r="12.63"/><circle class="cls-19" cx="360.86" cy="104.72" r="12.63"/><path class="cls-12" d="M191.9,43.74s2.2-13-12.42,73.77-21.94,130.21,65,144.8,94.25-28.82,108.87-115.63,12.43-73.77,12.43-73.77L317.2,96,230.26,81.4Z"/><path class="cls-7" d="M245.05,297.88l36.37,6.41c31.68,5.59,54.79-15.74,57.34-50.77s14.34-105.4,14.34-105.4c-11.89,67.41-30.48,91.19-40.54,93.92-7.2,2-21.12,3.13-23.56-15s-28.78-13-36.84-7.4c-2.28,12.91-4,18.75,6.94,20.68s21.11-22.89,24-.6S252,258.38,252,258.38l-15.26-2.69s-33.21-8.28-22.84-28.22,13.71,7.25,24.66,9.19,11.31-4.15,13.59-17.06c-5.64-8-30.92-22.29-39.43-6s-21.18,10.38-27.28,6.08c-8.52-6-17.86-34.72-6-102.12,0,0-13,70.15-22.58,103.94s4.84,61.74,36.52,67.33l36.37,6.41Z"/><path class="cls-20" d="M315,175.85c-1.1,6.51-3.58,5.08-6.84,4.53s-6.07,0-5-6.51,4.64-11.36,7.9-10.81S316.12,169.33,315,175.85Z"/><path class="cls-20" d="M217.43,159.47c-1.1,6.52-3.58,5.08-6.84,4.54s-6.07,0-5-6.52,4.63-11.35,7.9-10.8S218.52,153,217.43,159.47Z"/><path class="cls-20" d="M268.32,202.6c-1.2,7.12-9,18.2-16.16,17s-10.9-14.21-9.7-21.34,6.91-5.67,14-4.47S269.52,195.47,268.32,202.6Z"/><path class="cls-12" d="M230.26,81.4a34.76,34.76,0,0,1-40,28.47c-18.93-3.18-.29-15.8,2.9-34.7s-10.3-36.91,8.62-33.74A34.7,34.7,0,0,1,230.26,81.4Z"/><path class="cls-12" d="M354.33,102.22c-3.19,18.89,10.29,36.91-8.63,33.73a34.7,34.7,0,1,1,11.53-68.43C376.15,70.7,357.51,83.32,354.33,102.22Z"/><line class="cls-21" x1="240.33" y1="148.18" x2="284.18" y2="155.54"/><path class="cls-21" d="M238.68,157.57A40,40,0,0,1,160,143.69c3.84-21.74,24.57-16.26,46.31-12.42S242.51,135.83,238.68,157.57Z"/><path class="cls-21" d="M361.18,179.17a40,40,0,1,1-78.72-13.88c3.83-21.74,24.56-16.26,46.3-12.42S365,157.43,361.18,179.17Z"/><rect class="cls-19" x="172.75" y="70.18" width="5.52" height="22.03" rx="2.76" transform="translate(16.77 -29.24) rotate(10)"/><rect class="cls-19" x="366.26" y="104.3" width="5.52" height="22.03" rx="2.76" transform="translate(25.63 -62.33) rotate(10)"/><path class="cls-22" d="M275.19,672.11l6.54,3.78c2.86,1.65,2.86,4.35,0,6h0a11.52,11.52,0,0,1-10.39,0l-6.55-3.78Z"/><line class="cls-23" x1="280.73" y1="680.89" x2="924.78" y2="1052.73"/><path class="cls-22" d="M347.69,648.88l6.55,3.78c2.86,1.65,2.86,4.35,0,6h0a11.52,11.52,0,0,1-10.39,0l-6.55-3.78Z"/><line class="cls-23" x1="353.24" y1="657.66" x2="981.14" y2="1020.18"/><path class="cls-22" d="M397.75,636.15l-6.55,3.78c-2.85,1.65-2.85,4.35,0,6h0a11.54,11.54,0,0,0,10.4,0l6.54-3.78Z"/><path class="cls-24" d="M392.2,644.93l-4.65,2.69a1.72,1.72,0,0,0,0,3l619.14,354.83"/><polygon class="cls-22" points="562.52 559.14 410.54 646.88 306.72 586.95 306.72 579.88 562.52 552.07 562.52 559.14"/><polygon class="cls-25" points="562.52 552.07 410.54 639.82 306.72 579.88 458.7 492.13 562.52 552.07"/><polygon class="cls-22" points="410.54 615.98 400.35 621.86 410.54 627.75 420.73 621.86 410.54 615.98"/><polygon class="cls-22" points="425.65 607.26 415.46 613.14 425.65 619.02 435.84 613.14 425.65 607.26"/><polygon class="cls-22" points="440.76 598.53 430.57 604.42 440.76 610.3 450.95 604.42 440.76 598.53"/><polygon class="cls-22" points="455.87 589.81 445.68 595.69 455.87 601.58 466.06 595.69 455.87 589.81"/><polygon class="cls-22" points="470.98 581.08 460.79 586.97 470.98 592.85 481.17 586.97 470.98 581.08"/><polygon class="cls-22" points="486.09 572.36 475.9 578.24 486.09 584.13 496.28 578.24 486.09 572.36"/><polygon class="cls-22" points="501.2 563.64 491.01 569.52 501.2 575.4 511.39 569.52 501.2 563.64"/><polygon class="cls-22" points="516.32 554.91 506.13 560.79 516.32 566.68 526.5 560.79 516.32 554.91"/><polygon class="cls-22" points="531.43 546.19 521.24 552.07 531.43 557.95 541.62 552.07 531.43 546.19"/><polygon class="cls-22" points="396.6 607.93 386.41 613.82 396.6 619.7 406.79 613.82 396.6 607.93"/><polygon class="cls-22" points="411.71 599.21 401.52 605.09 411.71 610.98 421.9 605.1 411.71 599.21"/><polygon class="cls-22" points="426.82 590.49 416.63 596.37 426.82 602.25 437.01 596.37 426.82 590.49"/><polygon class="cls-22" points="441.94 581.76 431.75 587.65 441.94 593.53 452.13 587.65 441.94 581.76"/><polygon class="cls-22" points="457.05 573.04 446.86 578.92 457.05 584.8 467.24 578.92 457.05 573.04"/><polygon class="cls-22" points="472.16 564.31 461.97 570.2 472.16 576.08 482.35 570.2 472.16 564.31"/><polygon class="cls-22" points="487.27 555.59 477.08 561.47 487.27 567.36 497.46 561.47 487.27 555.59"/><polygon class="cls-22" points="502.38 546.87 492.19 552.75 502.38 558.63 512.57 552.75 502.38 546.87"/><polygon class="cls-22" points="517.49 538.14 507.3 544.02 517.49 549.91 527.68 544.02 517.49 538.14"/><polygon class="cls-22" points="397.78 591.17 387.59 597.05 397.78 602.93 407.97 597.05 397.78 591.17"/><polygon class="cls-22" points="428 573.72 417.81 579.6 428 585.48 438.19 579.6 428 573.72"/><polygon class="cls-22" points="443.11 564.99 432.92 570.88 443.11 576.76 453.3 570.88 443.11 564.99"/><polygon class="cls-22" points="458.22 556.27 448.03 562.15 458.22 568.03 468.41 562.15 458.22 556.27"/><polygon class="cls-22" points="473.33 547.54 463.14 553.43 473.33 559.31 483.52 553.43 473.33 547.54"/><polygon class="cls-22" points="488.44 538.82 478.25 544.7 488.44 550.59 498.63 544.7 488.44 538.82"/><polygon class="cls-22" points="503.56 530.1 493.37 535.98 503.56 541.86 513.75 535.98 503.56 530.1"/><polygon class="cls-22" points="368.73 591.84 358.54 597.73 368.73 603.61 378.92 597.73 368.73 591.84"/><polygon class="cls-22" points="383.84 583.12 373.65 589 383.84 594.89 394.03 589 383.84 583.12"/><polygon class="cls-22" points="398.95 574.4 388.76 580.28 398.95 586.16 409.14 580.28 398.95 574.4"/><polygon class="cls-22" points="414.06 565.67 403.88 571.55 414.06 577.44 424.25 571.55 414.06 565.67"/><polygon class="cls-22" points="429.18 556.95 418.99 562.83 429.18 568.71 439.37 562.83 429.18 556.95"/><polygon class="cls-22" points="444.29 548.22 434.1 554.11 444.29 559.99 454.48 554.11 444.29 548.22"/><polygon class="cls-22" points="459.4 539.5 449.21 545.38 459.4 551.26 469.59 545.38 459.4 539.5"/><polygon class="cls-22" points="474.51 530.77 464.32 536.66 474.51 542.54 484.7 536.66 474.51 530.77"/><polygon class="cls-22" points="489.62 522.05 479.43 527.93 489.62 533.82 499.81 527.93 489.62 522.05"/><polygon class="cls-22" points="413.37 530.37 372.96 553.7 397.57 567.91 437.98 544.58 413.37 530.37"/><polygon class="cls-22" points="562.52 552.07 410.54 639.82 491.32 558.53 643.3 470.78 562.52 552.07"/><polygon class="cls-22" points="648.26 474.69 496.28 562.44 491.32 558.53 643.3 470.78 648.26 474.69"/><polygon class="cls-25" points="567.48 555.98 415.5 643.73 496.28 562.44 648.26 474.69 567.48 555.98"/><path class="cls-22" d="M317.87,666.25l42.82-24.72a3.56,3.56,0,0,0,2.09-2.71v-4.09c0-.81-.47,2.45-1.47,1.87l-63.84-36.86c-2.19-1.26-6-1.11-8.54.35l-42.82,24.73c-1.4.8-2.11-2.19-2.09-1.21v4.08a2.59,2.59,0,0,0,1.47,2.06l63.84,36.86C311.52,667.87,315.34,667.71,317.87,666.25Z"/><path class="cls-25" d="M317.87,662.25l42.82-24.72c1.39-.8,2.1-1.83,2.09-2.8a2.52,2.52,0,0,0-1.47-2.13l-63.84-36.86c-2.19-1.26-6-1.11-8.54.35l-42.82,24.73c-1.39.8-2.1,1.82-2.09,2.79a2.53,2.53,0,0,0,1.47,2.14l63.84,36.86C311.52,663.87,315.34,663.71,317.87,662.25Z"/><polygon class="cls-22" points="354.32 633.25 310.45 658.57 252.48 625.1 296.35 599.77 354.32 633.25"/><path class="cls-22" d="M257.55,683.57l26.26-15.16a2.18,2.18,0,0,0,1.28-1.66v-2.5c0-.5-.29,1.5-.91,1.14l-51.24-29.58a5.83,5.83,0,0,0-5.24.21l-26.25,15.16c-.86.5-1.29-1.34-1.28-.74v2.5a1.59,1.59,0,0,0,.9,1.26l51.25,29.59A5.81,5.81,0,0,0,257.55,683.57Z"/><path class="cls-25" d="M257.55,681.12,283.81,666a2.15,2.15,0,0,0,1.28-1.71,1.55,1.55,0,0,0-.91-1.31l-51.24-29.59a5.84,5.84,0,0,0-5.23.22l-26.26,15.16a2.15,2.15,0,0,0-1.28,1.71,1.56,1.56,0,0,0,.9,1.31l51.25,29.59A5.84,5.84,0,0,0,257.55,681.12Z"/><polygon class="cls-22" points="207.44 652.56 250.92 677.66 277.82 662.13 234.33 637.03 207.44 652.56"/></g></svg>