<svg xmlns="http://www.w3.org/2000/svg" viewBox="0 0 1984.29 1145.63"><defs><style>.cls-1{fill:#c98200;}.cls-2{fill:#edaf00;}.cls-3{fill:#323e47;}.cls-15,.cls-4{fill:none;stroke-miterlimit:10;}.cls-4{stroke:#152126;stroke-width:19px;}.cls-5{fill:#404a51;}.cls-6{fill:#1f282d;}.cls-7{fill:#36203f;}.cls-8{fill:#76868e;}.cls-9{fill:#54636f;}.cls-10{fill:#4d5c66;}.cls-11{fill:#55c9b3;}.cls-12{fill:#41aa96;}.cls-13{fill:#e09410;}.cls-14{fill:#7c320d;}.cls-15{stroke:#36203f;stroke-width:10px;}.cls-16{fill:#f2f2f2;}.cls-17{fill:#3a474f;}.cls-18{fill:#4b5963;}</style></defs><title>kickstarter-card_datascientist</title><g id="Camada_9" data-name="Camada 9"><path class="cls-1" d="M176.37,516.61s-63,8.14-111-45.83-22.65-153.87,20-192-6.52-73.45-24.52-53.95c-31.5-49.5,40.5-139.49,162-93,54.32,20.78,40.35,98.85,26.14,179.29C231.45,410.62,202.89,513.73,176.37,516.61Z"/><path class="cls-2" d="M60.91,224.83c9.94-10.77,29.38-4.81,37.62,9.09,7.08-3.89,18.66-10.5,36.57-21.33,35.41-21.41,4.48-99.22-54.53-67C54.41,168.46,45.9,201.24,60.91,224.83Z"/><path class="cls-2" d="M83.18,487.62C69.5,468.41,59.9,438.42,59.9,392.09c0-30.35-1.13-54.44-3-73.53-22.35,46.64-27.2,112.12,8.47,152.22A141,141,0,0,0,83.18,487.62Z"/><path class="cls-3" d="M91.37,431.91l9.53,5.5c3.82,2.21,10.51,1.93,14.93-.62L224.53,374c2.51-1.44,13.75,96.69,13.65,94.94-.07-1.33-10.92-102.6-12.57-103.56l-9.53-5.5c-3.83-2.21-10.51-1.93-14.93.62L92.44,423.29c-2.6,1.51-3.84,3.47-3.63,5.28A4.61,4.61,0,0,0,91.37,431.91Z"/><path class="cls-4" d="M332.17,403.32v80.39c0,52.87-3.05,63.27-37.38,86.41"/><path class="cls-3" d="M366.08,560.75,257.26,497.91c-3.83-2.21-10.51-1.93-14.93.62l-84.8,49L130,545.74l0,20.57a4.48,4.48,0,0,0,2.58,3.6l141.16,81.5c3.83,2.21,10.51,1.94,14.93-.62L397.35,588c2.31-1.33,3.54-3,3.64-4.65V563Z"/><polygon class="cls-5" points="202.68 610.4 230.3 626.35 230.3 608.24 202.68 592.4 202.68 610.4"/><path class="cls-6" d="M273.71,631.41l-141.16-81.5c-1.91-1.1-2.75-2.61-2.56-4.17s1.42-3.17,3.63-4.45l108.71-62.76c4.42-2.55,11.1-2.83,14.93-.62l141.16,81.5A4.55,4.55,0,0,1,401,563c.09,1.75-1.15,3.62-3.65,5.07L288.64,630.79C284.22,633.34,277.54,633.62,273.71,631.41Z"/><path class="cls-7" d="M168.49,497.82s-6.71,61.27,44.62,91.27,77.74,30,77.74,30l85.59-58s7.34-19.71-2.66-32.52-37.26-21.87-70-31.68S168.49,497.82,168.49,497.82Z"/><path class="cls-4" d="M168.49,497.82v80.39c0,52.87,20.44,56.22,56.27,35.46"/><polygon class="cls-8" points="1984.29 441.03 763.87 1145.63 0 704.6 1220.42 0 1984.29 441.03"/><path class="cls-3" d="M285.13,368.57,262.48,374v10.53a4.52,4.52,0,0,0,2.58,3.56l110.85,64c3.83,2.2,10.51,1.93,14.93-.62l7.38-4.27c2.34-1.34,3.57-3.06,3.65-4.7V432.16Z"/><path class="cls-9" d="M375.9,442.07l-110.85-64c-1.87-1.09-2.72-2.56-2.57-4.09s1.39-3.23,3.64-4.53l7.38-4.27c4.42-2.55,11.11-2.82,14.93-.61l110.85,64a4.45,4.45,0,0,1,2.58,3.59c.08,1.74-1.16,3.59-3.65,5l-7.38,4.27C386.41,444,379.73,444.27,375.9,442.07Z"/><path class="cls-10" d="M375.9,442.07l-110.85-64c-1.87-1.09-2.72-2.56-2.57-4.09s1.39-3.23,3.64-4.53l7.38-4.27c4.42-2.55,11.11-2.82,14.93-.61l110.85,64a4.45,4.45,0,0,1,2.58,3.59c.08,1.74-1.16,3.59-3.65,5l-7.38,4.27C386.41,444,379.73,444.27,375.9,442.07Z"/><polygon class="cls-3" points="58.39 270.3 88.81 428.57 228.18 368.97 197.79 211.15 58.39 270.3"/><path class="cls-11" d="M313.48,397.09c-31.32-16-41.38-57.55-42.63-73.43a27.28,27.28,0,0,1-.27-5.37c.64-10.91,8.55-14.88,17.67-8.88h0c18.28,12,39.18,25.69,47.08,32.33,31.87,26.82,55.16,53.62,31.47,76.93C348.78,436.41,284.28,424.42,313.48,397.09Z"/><path class="cls-12" d="M301.88,404.37c.36-29.05,3.37-86.33-17.88-97.21-17.87-9.15-54-12.62-92.39,9.56s-36.27,28.39-34.11,56.87l-.34,111.65c0,32.72-9,34.82,2.87,41.66l25.23,14.56c31.23,16.4,48.12,16.14,58.37,10.22l78.56-46.23C338.78,493.35,301.88,481,301.88,404.37Z"/><path class="cls-10" d="M61,273.9l9.53,5.5c3.83,2.2,10.51,1.93,14.93-.62L194.13,216c2.41-1.39,3.65-3.17,3.66-4.86a4.43,4.43,0,0,0-2.58-3.75l-9.53-5.5c-3.83-2.21-10.51-1.94-14.93.61L62,265.28c-2.48,1.43-3.72,3.28-3.65,5A4.52,4.52,0,0,0,61,273.9Z"/><path class="cls-4" d="M168.49,497.82v80.39"/><path class="cls-3" d="M121.46,463.07l-22.65,5.41,0,10.53a4.54,4.54,0,0,0,2.58,3.56l110.85,64c3.83,2.2,10.51,1.93,14.93-.62l7.38-4.27c2.34-1.34,3.57-3.06,3.65-4.7V526.66Z"/><path class="cls-10" d="M212.22,536.57l-110.85-64c-1.87-1.09-2.71-2.56-2.56-4.09s1.38-3.23,3.63-4.53l7.39-4.27c4.41-2.55,11.1-2.82,14.92-.61l110.86,64a4.49,4.49,0,0,1,2.58,3.59c.07,1.74-1.17,3.59-3.66,5L227.15,536C222.73,538.5,216.05,538.77,212.22,536.57Z"/><path class="cls-13" d="M203.12,327.74c16.36,9.44,46.17,11.07,59.24,0,4.27-3.61,2.09-20.72,3.77-29.73,4-21.42,5.4-42.3-6.12-48.95-16.35-9.44-30.1-11.83-46.46-2.38-10,5.77-8.25,26.46-9.06,47.55C204,307.65,196.76,324.07,203.12,327.74Z"/><path class="cls-2" d="M149.7,93.88s-.1-13.22.57,74.81,1,132,89.16,131.31,87.81-44.74,87.14-132.77S326,92.42,326,92.42l-43.84,31.16-88.15.73Z"/><path class="cls-14" d="M293.89,202.61c.05,6.6-2.64,5.62-5.95,5.65s-6,1.05-6-5.55,2.59-12,5.9-12S293.84,196,293.89,202.61Z"/><path class="cls-14" d="M194.93,203.43c0,6.6-2.64,5.62-6,5.65s-6,1-6-5.55,2.59-12,5.9-12S194.88,196.82,194.93,203.43Z"/><path class="cls-14" d="M252.53,237.06c.06,7.23-5.72,19.49-12.95,19.55s-13.2-12.11-13.26-19.33,5.82-6.78,13.06-6.84S252.48,229.83,252.53,237.06Z"/><path class="cls-2" d="M194,124.31a34.76,34.76,0,0,1-34.48,35c-19.19.16-3-15.51-3.17-34.68S139.81,90.06,159,89.9A34.7,34.7,0,0,1,194,124.31Z"/><path class="cls-2" d="M319.81,123.27c.14,19.16,16.55,34.56-2.64,34.72a34.7,34.7,0,1,1-.53-69.39C335.83,88.44,319.66,104.11,319.81,123.27Z"/><path class="cls-15" d="M219.67,202.24s.85-15.56,8-15.56h23.2c4.13,0,7.76,12.9,7.76,12.9"/><circle class="cls-15" cx="184.75" cy="199.58" r="35.02"/><circle class="cls-15" cx="293.64" cy="199.58" r="35.02"/><path class="cls-7" d="M277.24,256.53c-5.22-17.57-30.61-7.84-37.56-.88-7-7-33.65-16.36-39.88.88-3.93,10.86,3.57,13.5,3.57,13.5,6.75-21.44,14.76,1.77,25.88,1.77,9.3,0,10.33-1.23,10.43-10.28.09,9.05,1.13,10.28,10.42,10.28,11.12,0,16.82-23.21,23.57-1.77C273.67,270,280.19,266.46,277.24,256.53Z"/><path class="cls-7" d="M199.8,256.53c-7.48,18.58,1.65,50.08,36.93,50.08s48.47-25.72,40.51-50.08c-7.23.89-3.57,3.12-3.57,13.5s-12.89,20.89-34.53,20.89-36.9-8.77-35.77-22.89S199.8,256.53,199.8,256.53Z"/><path class="cls-11" d="M366.81,418.68c-29.18,24.27-67.47,3.42-72-1.26-5.19-7.44-7.43-16.34,0-26.33S393,396.93,366.81,418.68Z"/><path class="cls-11" d="M191.61,316.72l12.2-15.88c11.2,19.08,34.37,19,34.37,19l-7.88,24.56S199.7,348,191.61,316.72Z"/><path class="cls-16" d="M241.67,335.14s13.71-2.08,20.69-7.4c1.81,7.18,3.27,25.15,3.71,34.42s5.27,77.76,16.44,108.26,17.8,45.23,17.73,47.95l-38.8,22.83s4.16-22.28,1-58-10.26-104.79-13-120.18A152.42,152.42,0,0,0,241.67,335.14Z"/><path class="cls-11" d="M259.77,318s6-11.37,6.36-20c8.88,17.41,6.23,36,6.23,36Z"/><path class="cls-12" d="M238.18,319.86s7.21,14.2,11.33,43.21-19.21-18.65-19.21-18.65Z"/><polygon class="cls-12" points="259.77 317.97 272.36 333.98 266.07 362.16 259.77 317.97"/><ellipse class="cls-11" cx="166.3" cy="353.75" rx="24.21" ry="13.98" transform="translate(-223.21 320.89) rotate(-60)"/><path class="cls-11" d="M183.42,343.87C178,338.46,166.3,334,166.3,334c-53,34.44-64.93,138.59,2.19,163.84s89.43-48.26,91.28-59.4-18.13-27.74-25-15.67c-25.4,44.67-63.4,46.69-60.07,4.29C177.14,395.85,184.75,403.32,183.42,343.87Z"/><path class="cls-2" d="M298.67,413.71s-11.33-2.29-19.66-19-25.39-2.66-25.39-2.66-3-13.34,1.17-15.34,16.22-6.66,29.88-2.66,24.76,19.79,23.55,29.23S303.63,415.83,298.67,413.71Z"/><path class="cls-13" d="M241.67,427s.56-37,12-41.29,23.05-.33,27.39,5,7,16.73,3.33,18.37-5.67-5.8-5.67-5.8c-3,12.77-16,31.43-21.66,31.43S241.67,427,241.67,427Z"/><polygon class="cls-17" points="562.52 559.14 410.54 646.88 306.72 586.95 306.72 579.88 562.52 552.07 562.52 559.14"/><polygon class="cls-9" points="562.52 552.07 410.54 639.82 306.72 579.88 458.7 492.13 562.52 552.07"/><polygon class="cls-17" points="410.54 615.98 400.35 621.86 410.54 627.75 420.73 621.86 410.54 615.98"/><polygon class="cls-17" points="425.65 607.26 415.46 613.14 425.65 619.02 435.84 613.14 425.65 607.26"/><polygon class="cls-17" points="440.76 598.53 430.57 604.42 440.76 610.3 450.95 604.42 440.76 598.53"/><polygon class="cls-17" points="455.87 589.81 445.68 595.69 455.87 601.58 466.06 595.69 455.87 589.81"/><polygon class="cls-17" points="470.98 581.08 460.79 586.97 470.98 592.85 481.17 586.97 470.98 581.08"/><polygon class="cls-17" points="486.09 572.36 475.9 578.24 486.09 584.13 496.28 578.24 486.09 572.36"/><polygon class="cls-17" points="501.2 563.64 491.01 569.52 501.2 575.4 511.39 569.52 501.2 563.64"/><polygon class="cls-17" points="516.32 554.91 506.13 560.79 516.32 566.68 526.5 560.79 516.32 554.91"/><polygon class="cls-17" points="531.43 546.19 521.24 552.07 531.43 557.95 541.62 552.07 531.43 546.19"/><polygon class="cls-17" points="396.6 607.93 386.41 613.82 396.6 619.7 406.79 613.82 396.6 607.93"/><polygon class="cls-17" points="411.71 599.21 401.52 605.09 411.71 610.98 421.9 605.1 411.71 599.21"/><polygon class="cls-17" points="426.82 590.49 416.63 596.37 426.82 602.25 437.01 596.37 426.82 590.49"/><polygon class="cls-17" points="441.94 581.76 431.75 587.65 441.94 593.53 452.13 587.65 441.94 581.76"/><polygon class="cls-17" points="457.05 573.04 446.86 578.92 457.05 584.8 467.24 578.92 457.05 573.04"/><polygon class="cls-17" points="472.16 564.31 461.97 570.2 472.16 576.08 482.35 570.2 472.16 564.31"/><polygon class="cls-17" points="487.27 555.59 477.08 561.47 487.27 567.36 497.46 561.47 487.27 555.59"/><polygon class="cls-17" points="502.38 546.87 492.19 552.75 502.38 558.63 512.57 552.75 502.38 546.87"/><polygon class="cls-17" points="517.49 538.14 507.3 544.02 517.49 549.91 527.68 544.02 517.49 538.14"/><polygon class="cls-17" points="397.78 591.17 387.59 597.05 397.78 602.93 407.97 597.05 397.78 591.17"/><polygon class="cls-17" points="428 573.72 417.81 579.6 428 585.48 438.19 579.6 428 573.72"/><polygon class="cls-17" points="443.11 564.99 432.92 570.88 443.11 576.76 453.3 570.88 443.11 564.99"/><polygon class="cls-17" points="458.22 556.27 448.03 562.15 458.22 568.03 468.41 562.15 458.22 556.27"/><polygon class="cls-17" points="473.33 547.54 463.14 553.43 473.33 559.31 483.52 553.43 473.33 547.54"/><polygon class="cls-17" points="488.44 538.82 478.25 544.7 488.44 550.59 498.63 544.7 488.44 538.82"/><polygon class="cls-17" points="503.56 530.1 493.37 535.98 503.56 541.86 513.75 535.98 503.56 530.1"/><polygon class="cls-17" points="368.73 591.84 358.54 597.73 368.73 603.61 378.92 597.73 368.73 591.84"/><polygon class="cls-17" points="383.84 583.12 373.65 589 383.84 594.89 394.03 589 383.84 583.12"/><polygon class="cls-17" points="398.95 574.4 388.76 580.28 398.95 586.16 409.14 580.28 398.95 574.4"/><polygon class="cls-17" points="414.06 565.67 403.88 571.55 414.06 577.44 424.25 571.55 414.06 565.67"/><polygon class="cls-17" points="429.18 556.95 418.99 562.83 429.18 568.71 439.37 562.83 429.18 556.95"/><polygon class="cls-17" points="444.29 548.22 434.1 554.11 444.29 559.99 454.48 554.11 444.29 548.22"/><polygon class="cls-17" points="459.4 539.5 449.21 545.38 459.4 551.26 469.59 545.38 459.4 539.5"/><polygon class="cls-17" points="474.51 530.77 464.32 536.66 474.51 542.54 484.7 536.66 474.51 530.77"/><polygon class="cls-17" points="489.62 522.05 479.43 527.93 489.62 533.82 499.81 527.93 489.62 522.05"/><polygon class="cls-17" points="413.37 530.37 372.96 553.7 397.57 567.91 437.98 544.58 413.37 530.37"/><polygon class="cls-17" points="562.52 552.07 410.54 639.82 491.32 558.53 643.3 470.78 562.52 552.07"/><polygon class="cls-17" points="648.26 474.69 496.28 562.44 491.32 558.53 643.3 470.78 648.26 474.69"/><polygon class="cls-18" points="567.48 555.98 415.5 643.73 496.28 562.44 648.26 474.69 567.48 555.98"/><polygon class="cls-9" points="505.25 633.91 745.26 495.34 745.27 331.56 505.25 470.13 505.25 633.91"/><polygon class="cls-17" points="505.25 470.13 745.27 331.56 738.65 327.74 498.64 466.31 505.25 470.13"/><polygon class="cls-17" points="505.25 470.13 505.25 633.91 498.63 630.09 498.64 466.31 498.64 466.31 505.25 470.13"/><ellipse class="cls-18" cx="636.76" cy="655.43" rx="49.51" ry="28.58"/><polygon class="cls-9" points="623.81 670.66 664.96 646.9 664.96 497.01 623.81 520.77 623.81 670.66"/><polygon class="cls-17" points="623.81 520.77 664.96 497.01 652.51 489.83 611.37 513.59 623.81 520.77"/><polygon class="cls-17" points="623.81 520.77 623.81 670.66 611.37 663.48 611.37 513.59 623.81 520.77"/><path class="cls-18" d="M256.86,642.25c14.46,8.35,40.71,12.73,52.22,6.09s-1.66-25.53-14.54-36.15-26.31-9.73-37.82-3.08S242.4,633.91,256.86,642.25Z"/><path class="cls-9" d="M259.42,626.42c9.12,5.26,25.66,8,32.92,3.83s2.48-13.74-6.64-19a26.25,26.25,0,0,0-26.37,0C252.07,615.38,250.3,621.15,259.42,626.42Z"/></g></svg>