<?xml version="1.0" encoding="UTF-8"?>
<svg width="22px" height="22px" viewBox="0 0 22 22" version="1.1" xmlns="http://www.w3.org/2000/svg" xmlns:xlink="http://www.w3.org/1999/xlink">
    <!-- Generator: Sketch 57.1 (83088) - https://sketch.com -->
    <title>camera</title>
    <desc>Created with Sketch.</desc>
    <g id="camera" stroke="none" stroke-width="1" fill="none" fill-rule="evenodd">
        <g transform="translate(3.000000, 1.000000)">
            <path d="M7.95266272,7.95308876 C5.75715976,7.95308876 3.97633136,9.73249704 3.97633136,11.9294201 C3.97633136,14.1249231 5.75715976,15.9057515 7.95266272,15.9057515 C10.1481657,15.9057515 11.9289941,14.1249231 11.9289941,11.9294201 C11.9289941,9.73249704 10.1481657,7.95308876 7.95266272,7.95308876 M7.95266272,9.3732071 C9.36284024,9.3732071 10.5088757,10.5192426 10.5088757,11.9294201 C10.5088757,13.3381775 9.36284024,14.4856331 7.95266272,14.4856331 C6.54248521,14.4856331 5.3964497,13.3381775 5.3964497,11.9294201 C5.3964497,10.5192426 6.54248521,9.3732071 7.95266272,9.3732071" id="Fill-1" fill="#FFFFFF"></path>
            <polygon id="Stroke-3" stroke="#FFFFFF" stroke-width="1.42011834" points="-8.8817842e-15 19.8819408 15.9053254 19.8819408 15.9053254 3.97661538 -8.8817842e-15 3.97661538"></polygon>
            <polyline id="Stroke-5" stroke="#FFFFFF" stroke-width="1.42011834" points="15.9054675 3.97633136 15.9054675 1.39666056e-13 11.9291361 1.39666056e-13 11.9291361 3.97633136"></polyline>
            <path d="M12.7012544,6.03294675 C12.0295385,6.03294675 11.484213,6.57685207 11.484213,7.24856805 C11.484213,7.92170414 12.0295385,8.46560947 12.7012544,8.46560947 C13.3729704,8.46560947 13.9168757,7.92170414 13.9168757,7.24856805 C13.9168757,6.57685207 13.3729704,6.03294675 12.7012544,6.03294675" id="Fill-6" fill="#FFFFFF"></path>
        </g>
    </g>
</svg>