<?xml version="1.0" encoding="UTF-8"?>
<svg width="16px" height="16px" viewBox="0 0 16 16" version="1.1" xmlns="http://www.w3.org/2000/svg" xmlns:xlink="http://www.w3.org/1999/xlink">
    <!-- Generator: Sketch 57.1 (83088) - https://sketch.com -->
    <title>atom/icon/interactive/change/email</title>
    <desc>Created with Sketch.</desc>
    <g id="atom/icon/interactive/change/email" stroke="none" stroke-width="1" fill="none" fill-rule="evenodd">
        <g id="mail" transform="translate(1.000000, 3.000000)" fill="#14232E" fill-rule="nonzero">
            <path d="M7.35343672,7.35355339 C7.15817458,7.54881554 6.84159209,7.54881554 6.64632994,7.35355339 L-0.353670057,0.353553391 C-0.668652488,0.03857096 -0.445569092,-0.5 -0.000116666667,-0.5 L13.9998833,-0.5 C14.4453358,-0.5 14.6684192,0.03857096 14.3534367,0.353553391 L7.35343672,7.35355339 Z M6.99988333,6.29289322 L12.7927766,0.5 L1.20699011,0.5 L6.99988333,6.29289322 Z" id="Stroke-1"></path>
            <path d="M13.4998833,10 L0.499883333,10 L0.499883333,0 L-0.500116667,0 L-0.500116667,10.5 C-0.500116667,10.7761424 -0.276259042,11 -0.000116666667,11 L13.9998833,11 C14.2760257,11 14.4998833,10.7761424 14.4998833,10.5 L14.4998833,0 L13.4998833,0 L13.4998833,10 Z" id="Stroke-3"></path>
            <polygon id="Stroke-5" points="0.447096929 10.7236068 3.94709693 3.7236068 3.05266974 3.2763932 -0.447330262 10.2763932"></polygon>
            <polygon id="Stroke-7" points="14.4470969 10.2763932 10.9470969 3.2763932 10.0526697 3.7236068 13.5526697 10.7236068"></polygon>
        </g>
    </g>
</svg>