<?xml version="1.0" encoding="UTF-8"?>
<svg width="16px" height="16px" viewBox="0 0 16 16" version="1.1" xmlns="http://www.w3.org/2000/svg" xmlns:xlink="http://www.w3.org/1999/xlink">
    <!-- Generator: Sketch 57.1 (83088) - https://sketch.com -->
    <title>atom/icon/interactive/change/interfacelanguage</title>
    <desc>Created with Sketch.</desc>
    <g id="atom/icon/interactive/change/interfacelanguage" stroke="none" stroke-width="1" fill="none" fill-rule="evenodd">
        <g id="interface" transform="translate(0.200000, 1.000000)" fill="#14232E" fill-rule="nonzero">
            <path d="M15.2823333,10.7825 L15.2823333,2.9565 C15.2823333,1.55400056 14.1449994,0.416666667 12.7425,0.416666667 L2.9565,0.416666667 C1.55400056,0.416666667 0.416666667,1.55400056 0.416666667,2.9565 L0.416666667,10.7848333 C0.416666667,12.1882652 1.55376642,13.3258333 2.9565,13.3258333 L12.739,13.3258333 C14.1438328,13.3258333 15.2823333,12.1873328 15.2823333,10.7825 Z M14.1156667,10.7825 C14.1156667,11.5430006 13.4995006,12.1591667 12.739,12.1591667 L2.9565,12.1591667 C2.1982062,12.1591667 1.58333333,11.5440406 1.58333333,10.7848333 L1.58333333,2.9565 C1.58333333,2.19833277 2.19833277,1.58333333 2.9565,1.58333333 L12.7425,1.58333333 C13.5006672,1.58333333 14.1156667,2.19833277 14.1156667,2.9565 L14.1156667,10.7825 Z" id="Stroke-1"></path>
            <polygon id="Stroke-3" points="3.91071667 5.91411667 9.61105 5.91411667 9.61105 4.74745 3.91071667 4.74745"></polygon>
            <polygon id="Stroke-5" points="3.91071667 9.1669 11.1953833 9.1669 11.1953833 8.00023333 3.91071667 8.00023333"></polygon>
        </g>
    </g>
</svg>