<?xml version="1.0" encoding="UTF-8"?>
<svg width="11px" height="17px" viewBox="0 0 11 17" version="1.1" xmlns="http://www.w3.org/2000/svg" xmlns:xlink="http://www.w3.org/1999/xlink">
    <!-- Generator: Sketch 58 (84663) - https://sketch.com -->
    <title>trashbin</title>
    <desc>Created with Sketch.</desc>
    <g id="Desktop" stroke="none" stroke-width="1" fill="none" fill-rule="evenodd">
        <g id="2.1.B.3-D-CP---10-Bonus" transform="translate(-852.000000, -821.000000)" fill="#027AFF">
            <g id="Group-4" transform="translate(450.000000, 349.000000)">
                <path d="M411.03994,487.2328 L409.31694,487.2328 L409.59974,478.7495 C409.60884,478.4734 409.39264,478.2423 409.11674,478.2331 C408.83594,478.2233 408.60944,478.44 408.60034,478.7161 L408.31644,487.2328 L406.58364,487.2328 L406.29974,478.7161 C406.29054,478.4402 406.06154,478.2239 405.78334,478.2331 C405.50734,478.2423 405.29114,478.4734 405.30034,478.7495 L405.58314,487.2328 L403.86004,487.2328 L403.04334,477.4328 L411.85664,477.4328 L411.03994,487.2328 Z M403.00004,476.4328 L411.90004,476.4328 L411.90004,474.7328 L403.00004,474.7328 L403.00004,476.4328 Z M406.60004,473.7328 L408.30004,473.7328 L408.30004,473 L406.60004,473 L406.60004,473.7328 Z M412.90004,474.2328 C412.90004,473.9567 412.67614,473.7328 412.40004,473.7328 L409.30004,473.7328 L409.30004,472.5 C409.30004,472.2239 409.07614,472 408.80004,472 L406.10004,472 C405.82384,472 405.60004,472.2239 405.60004,472.5 L405.60004,473.7328 L402.50004,473.7328 C402.22384,473.7328 402.00004,473.9567 402.00004,474.2328 L402.00004,476.9328 C402.00004,476.9402 402.00184,476.9471 402.00214,476.9543 C402.00244,476.961 402.00114,476.9676 402.00174,476.9743 L402.90174,487.7743 C402.92334,488.0335 403.13994,488.2328 403.40004,488.2328 L411.50004,488.2328 C411.76004,488.2328 411.97664,488.0335 411.99824,487.7743 L412.89824,476.9743 C412.89884,476.9676 412.89754,476.961 412.89784,476.9543 C412.89814,476.9471 412.90004,476.9402 412.90004,476.9328 L412.90004,474.2328 Z" id="trashbin"></path>
            </g>
        </g>
    </g>
</svg>