<?xml version="1.0" encoding="UTF-8"?>
<svg width="13px" height="20px" viewBox="0 0 13 20" version="1.1" xmlns="http://www.w3.org/2000/svg" xmlns:xlink="http://www.w3.org/1999/xlink">
    <!-- Generator: Sketch 59 (86127) - https://sketch.com -->
    <title>icon-fire</title>
    <desc>Created with Sketch.</desc>
    <g id="Desktop" stroke="none" stroke-width="1" fill="none" fill-rule="evenodd">
        <g id="2.3.1-D-CP---Settings" transform="translate(-558.000000, -198.000000)">
            <g id="icon-fire" transform="translate(558.000000, 198.000000)">
                <path d="M4.3741,-0.0001 C13.9901,6.0019 16.2091,16.7909 6.7411,19.2319 C-0.2859,17.5999 -1.9139,12.2049 2.3031,7.4709 C6.5191,2.7369 4.3741,-0.0001 4.3741,-0.0001" id="Fill-1" fill="#C43A49"></path>
                <path d="M4.3741,-0.0001 C13.9901,6.0019 16.2091,16.7909 6.7411,19.2319 C-0.2859,17.5999 -1.9139,12.2049 2.3031,7.4709 C6.5191,2.7369 4.3741,-0.0001 4.3741,-0.0001" id="Fill-4" fill="#C43A49"></path>
                <path d="M5.7798,8.1713 C8.5908,5.8253 7.3328,4.3463 7.3328,4.3463 C12,9 12.7328,16.8093 6.7408,19.2323 C1.3238,16.2703 2.9688,10.5173 5.7798,8.1713 Z" id="Fill-7" fill="#E4516E"></path>
                <path d="M6.7408,19.2323 C4.1518,16.9733 4.6698,14.4063 7.9988,11.2253 C9.1078,14.9983 10.2178,17.3263 6.7408,19.2323" id="Fill-10" fill="#FAAE17"></path>
            </g>
        </g>
    </g>
</svg>