<svg xmlns="http://www.w3.org/2000/svg" xmlns:xlink="http://www.w3.org/1999/xlink" width="16" height="16" viewBox="0 0 16 16">
  <defs>
    <polygon id="test-tube-a" points=".088 .124 6.528 .124 6.528 6.564 .088 6.564"/>
  </defs>
  <g fill="none" fill-rule="evenodd">
    <path fill="#1A0960" d="M11.5137618,7.91845393 L14.3721888,5.06002697 L10.9400989,1.6277573 L8.08149213,4.48618427 C6.04553708,3.74479101 3.67484045,4.18937528 2.04158202,5.82263371 C-0.205069663,8.06928539 -0.205069663,11.7118921 2.04158202,13.958364 C4.28823371,16.2050157 7.93066067,16.2050157 10.1773124,13.958364 C11.8105708,12.3252854 12.2551551,9.95458876 11.5137618,7.91845393"/>
    <path fill="#FF7193" d="M6.11901124,4.50026067 C4.70903371,4.50026067 3.32206742,5.05073258 2.29573034,6.07688989 C0.193078652,8.17972135 0.193078652,11.6012045 2.29573034,13.704036 C4.3985618,15.8068674 7.82004494,15.8070472 9.92305618,13.704036 C11.399191,12.2279011 11.8908764,10.0051596 11.1759101,8.04147416 C11.1280899,7.9102382 11.1606292,7.76300225 11.2595056,7.66430562 L13.8637303,5.05990112 L10.9400449,2.13621573 L8.33582022,4.74044045 C8.2371236,4.83931685 8.08988764,4.8716764 7.95847191,4.82403596 C7.35982022,4.60614831 6.73725843,4.50026067 6.11901124,4.50026067 M6.10948315,15.9999461 C4.544,16.0001258 2.97905618,15.4041708 1.78732584,14.2124404 C-0.595775281,11.8293393 -0.595775281,7.95158652 1.78732584,5.56830562 C3.40566292,3.94978876 5.81591011,3.37576629 7.98579775,4.07329438 L10.6858427,1.37342921 C10.8260674,1.23302472 11.0540225,1.23302472 11.1942472,1.37342921 L14.6265169,4.80569888 C14.7669213,4.9459236 14.7669213,5.17369888 14.6265169,5.31410337 L11.9266517,8.01414831 C12.6243596,10.184036 12.0499775,12.5941034 10.4314607,14.2124404 C9.24008989,15.403991 7.67442697,15.9997663 6.10948315,15.9999461"/>
    <line x1="11.514" x2="10.052" y1="7.918" y2="6.457" fill="#FFF"/>
    <path fill="#FF7193" d="M11.5137618,8.27800449 C11.4217169,8.27800449 11.3296719,8.24294831 11.2595596,8.17265618 L9.79762697,6.7107236 C9.65722247,6.57049888 9.65722247,6.3427236 9.79762697,6.2023191 C9.93785169,6.06191461 10.1658067,6.06191461 10.3060315,6.2023191 L11.767964,7.66425169 C11.9083685,7.80465618 11.9083685,8.03243146 11.767964,8.17265618 C11.6978517,8.24294831 11.6058067,8.27800449 11.5137618,8.27800449"/>
    <line x1="12.912" x2="11.45" y1="6.52" y2="5.058" fill="#FFF"/>
    <path fill="#FF7193" d="M12.9121079,6.87965843 C12.8200629,6.87965843 12.728018,6.84460225 12.6579056,6.77431011 L11.195973,5.31237753 C11.0555685,5.17215281 11.0555685,4.94437753 11.195973,4.80397303 C11.3361978,4.66356854 11.5641528,4.66356854 11.7043775,4.80397303 L13.1663101,6.26590562 C13.3067146,6.40631011 13.3067146,6.63408539 13.1663101,6.77431011 C13.0961978,6.84460225 13.0041528,6.87965843 12.9121079,6.87965843"/>
    <line x1="15.516" x2="9.796" y1="6.204" y2=".484" fill="#FFF"/>
    <g transform="translate(9.348)">
      <mask id="test-tube-b" fill="#fff">
        <use xlink:href="#test-tube-a"/>
      </mask>
      <path fill="#FF7193" d="M6.16807191,6.56364944 C6.07602697,6.56364944 5.98398202,6.52859326 5.91386966,6.45830112 L0.193420225,0.737851685 C0.0530157303,0.597447191 0.0530157303,0.369851685 0.193420225,0.229447191 C0.333644944,0.0888629213 0.5616,0.0888629213 0.701824719,0.229447191 L6.42227416,5.94989663 C6.56267865,6.09012135 6.56267865,6.31789663 6.42227416,6.45830112 C6.3521618,6.52859326 6.26011685,6.56364944 6.16807191,6.56364944" mask="url(#test-tube-b)"/>
    </g>
    <path fill="#C43949" d="M10.1816809,9.91635056 C10.1816809,10.9651596 9.78150112,12.0139685 8.98132135,12.8141483 C7.3809618,14.4145079 4.78608539,14.4145079 3.18572584,12.8139685 C1.58536629,11.213609 1.58536629,8.61873258 3.18572584,7.01855281 C6.27929888,9.13594607 8.63831011,8.37297978 10.1816809,9.91635056"/>
  </g>
</svg>
