<svg data-name="Layer 1" xmlns="http://www.w3.org/2000/svg" viewBox="0 0 842.52 215.99"><path d="M172.77 74c1.65-7.05-2.79-12.73-4.2-13.15s-6.8 3.26-8.26 9.08h-.6a12.55 12.55 0 0 0-1.53.1c-2.28-7.4-10.65-10.38-12.14-9.43s-5.19 10.46 2.06 17.91c-2.25 4.64-3.22 9.81-4.33 11.76-2.2 3.84-18.14 3.84-32.43 18s-16.49 38.09-16.49 38.09c0-59.83-2.94-94.29-21.7-113A42.79 42.79 0 0 0 44 21.33a5.86 5.86 0 0 0-.61 0 41.89 41.89 0 0 0-4.51.24 43.24 43.24 0 0 0-31.19 67.6l.08-.09.06.08 11.79-11.79c2.06.22 16.72 3 29.19 41.14C68 177.2 108.39 216 108.39 216l.07-.07.07.07c40.39-35.8 56.43-91.18 56.43-96.46s3-6.92 5.51-6.92h7.92c4.4 0 12.64-3.09 12.64-8-.03-14.18-8.81-25.04-18.26-30.62z" fill="#243f52"/><path d="M138.16 82.22a6.25 6.25 0 0 1-3.94 4l-.2.07c-6.7 2.26-17.93 6-28.31 16.3a50 50 0 0 0-3.6 4c-1.78-38.51-7.34-62.14-22.29-77.87L108.51 0l54.4 54.39a18.84 18.84 0 0 0-4.1 3c-3.94-3.26-8.58-4.95-12-4.95a9.36 9.36 0 0 0-5.1 1.42c-4.52 2.88-5.61 9.51-5.84 11.47a22.63 22.63 0 0 0 1.9 12.19 6.46 6.46 0 0 1 .35 4.69z" fill="#00beda"/><path d="M153.16 171.36L216.52 108l-21.86-21.87a41 41 0 0 1 4.34 18.45c0 10.32-12.2 16-20.64 16h-5.46c-.6 5.82-5.35 21.47-13.79 39.15-1.71 3.61-3.7 7.52-5.95 11.63z" fill="#ffaf00"/><path d="M41.21 121c-7.53-23-15.39-31.26-19.54-34.15L.52 108 65 172.41A252.65 252.65 0 0 1 41.21 121z" fill="#00beda"/><g fill="#243f52"><path d="M254.31 108.61c0-21.86 16.55-36.62 37.78-36.62 17.62 0 26.75 9.66 31.42 19l-15.71 7.43a17.19 17.19 0 0 0-15.71-10.29c-11 0-19.21 8.91-19.21 20.48s8.17 20.49 19.21 20.49a17.18 17.18 0 0 0 15.71-10.3l15.71 7.43c-4.57 9.13-13.8 19-31.42 19-21.23 0-37.78-14.86-37.78-36.62zM331.36 73.16h18.25V128h28.45v16h-46.7zM435.8 133.24h-29.4L402.79 144h-19.85l26.65-70.8h22.92l26.75 70.8h-19.85zm-24.62-15.39H431l-10-28.77zM468.6 120.29a32 32 0 0 0 22.6 9.34c6.27 0 10.09-2.66 10.09-6 0-4-4.57-5.63-12.1-7.22-11.68-2.34-28-5.31-28-22.08 0-11.89 10.08-22.18 28.23-22.18 11.36 0 21.23 3.4 28.76 9.87L508.19 95a32.89 32.89 0 0 0-20-7.33c-6.05 0-8.38 2.44-8.38 5.52 0 3.72 4.35 5 12.2 6.48 11.68 2.44 27.81 5.83 27.81 21.86 0 14.22-10.51 23.67-29.51 23.67-14.32 0-24.3-4.46-31.41-11.25zM532.91 120.29a32 32 0 0 0 22.61 9.34c6.26 0 10.08-2.66 10.08-6 0-4-4.56-5.63-12.1-7.22-11.67-2.34-28-5.31-28-22.08 0-11.89 10.09-22.18 28.24-22.18 11.35 0 21.22 3.4 28.76 9.87L572.5 95a32.84 32.84 0 0 0-20-7.33c-6 0-8.39 2.44-8.39 5.52 0 3.72 4.35 5 12.21 6.48 11.67 2.44 27.81 5.83 27.81 21.86 0 14.22-10.51 23.67-29.51 23.67-14.33 0-24.31-4.46-31.42-11.25zM591.67 73.16h35.45c15.92 0 24.63 10.72 24.63 23.56S643 120 627.12 120h-17.19v24h-18.26zm33 15.39h-14.74v15.92h14.75c4.88 0 8.49-3.08 8.49-7.85s-3.61-8.07-8.49-8.07zM658.92 73.16h51.9v15.39h-33.64v11.78h32.9v15.5h-32.9v12.74h33.64V144h-51.9zM748 120h-9.34v24h-18.23V73.16h35.45c15.71 0 24.63 10.4 24.63 23.56 0 12.32-7.54 18.9-14.12 21.23l14.44 26h-20.91zm5.09-31.42h-14.4v15.92h14.43c4.78 0 8.81-3.08 8.81-8s-4.03-7.95-8.81-7.95zM804.34 89.08h-19.85V73.16h57.85v15.92H822.6V144h-18.26z"/></g></svg>