<?xml version="1.0" encoding="UTF-8"?>
<svg width="14px" height="16px" viewBox="0 0 14 16" version="1.1" xmlns="http://www.w3.org/2000/svg" xmlns:xlink="http://www.w3.org/1999/xlink">
    <!-- Generator: Sketch 57.1 (83088) - https://sketch.com -->
    <title>atom/icon/interactive/dashboard/paypal</title>
    <desc>Created with Sketch.</desc>
    <g id="Desktop" stroke="none" stroke-width="1" fill="none" fill-rule="evenodd">
        <g id="2.1.1.2-D-CP---10-Bonus" transform="translate(-186.000000, -429.000000)" fill="currentColor">
            <g id="paypal" transform="translate(185.000000, 429.000000)">
                <g id="atom/icon/interactive/dashboard/paypal">
                    <g transform="translate(1.000000, 0.000000)" id="Combined-Shape">
                        <path d="M7.57347778,8.34887715e-14 C9.33611336,8.34887715e-14 10.641959,0.398903457 11.4029565,1.26542911 C12.0556796,2.00970828 12.2913907,2.83974342 12.1738182,3.95080028 C12.3540829,4.07368305 12.5202412,4.21913991 12.6692692,4.38493661 C13.3377664,5.1467775 13.5076366,6.20636341 13.2525422,7.51626193 C12.720075,10.2504461 10.9225554,11.5285009 8.16951573,11.5285009 L8.16951573,11.5285009 L7.81490473,11.5285009 C7.76561446,11.5285009 7.72396714,11.5640978 7.7142012,11.6251216 L7.7142012,11.6251216 L7.68760515,11.7684919 L7.23834572,14.617665 L7.21771814,14.722903 C7.13704283,15.2282318 6.70148242,15.6002125 6.18952332,15.6002125 L6.18952332,15.6002125 L3.81848727,15.6002125 C3.58076803,15.6002125 3.35502072,15.4960195 3.2006932,15.3152675 C3.04640412,15.1345606 2.9789428,14.8953741 3.01602178,14.6609842 L3.01602178,14.6609842 L3.124,13.974 L0.860977808,13.9743454 C0.650989525,13.9740609 0.449864271,13.8972288 0.294018621,13.7606806 L0.206236116,13.6717203 C0.0427035423,13.4800067 -0.0287665751,13.2263426 0.0105893833,12.9776865 L0.0105893833,12.9776865 L1.90837575,0.948337724 C1.99369162,0.402148849 2.46440273,8.34887715e-14 3.01696924,8.34887715e-14 L3.01696924,8.34887715e-14 Z M11.9761352,5.02206813 C11.26559,7.78981268 9.29168555,9.08362808 6.33768272,9.08362808 L6.33768272,9.08362808 L5.0008478,9.08362808 C4.91229488,9.08362808 4.838029,9.14737494 4.82399284,9.23622511 L4.82399284,9.23622511 L4.13955618,13.5769816 L3.96911009,14.6590361 L6.18952332,14.6590361 C6.2387302,14.6590361 6.2805165,14.6233494 6.29100074,14.5592914 L6.29100074,14.5592914 L6.31147944,14.454992 L6.75996499,11.6099145 L6.78654417,11.4666513 C6.86625154,10.9600667 7.30234937,10.5873245 7.81490473,10.5873245 L7.81490473,10.5873245 L8.16951573,10.5873245 C10.4974285,10.5873245 11.8881835,9.59848345 12.3287207,7.33635322 C12.5315688,6.29473731 12.4116509,5.52838372 11.9761352,5.02206813 Z M7.57347778,0.941176471 L3.01696924,0.941176471 C2.92775545,0.941176471 2.85196997,1.00592329 2.83816504,1.09429834 L2.83816504,1.09429834 L0.954653285,13.0331689 L3.27247396,13.0331689 L3.281,12.977 L3.885,9.144 L3.9161768,8.94915336 L4.67564788,4.13886718 C4.75386349,3.63116605 5.19152803,3.25694209 5.70375482,3.2585351 L5.70375482,3.2585351 L9.27512484,3.2585351 C9.72810023,3.2585351 10.1467917,3.28878327 10.526661,3.35022238 C10.7743565,3.3891507 11.018892,3.44590405 11.2611922,3.52095363 C11.280355,2.84005885 11.1013991,2.34900299 10.695562,1.88623987 C10.1492417,1.26416104 9.09192324,0.941176471 7.57347778,0.941176471 L7.57347778,0.941176471 Z M9.27512484,4.19971157 L5.7022934,4.19970931 C5.65417455,4.19955987 5.61317709,4.23461465 5.60557952,4.28390926 L5.60557952,4.28390926 L4.995,8.142 L5.0008478,8.14245161 L6.33768272,8.14245161 C9.0290109,8.14245161 10.6478265,6.9916201 11.1577387,4.37364341 L11.136,4.473 L11.0285307,4.43443715 C10.8874339,4.38891518 10.7441096,4.35078974 10.5985311,4.32010283 L10.3784695,4.27965663 C10.0489441,4.22636411 9.68002286,4.19971157 9.27512484,4.19971157 L9.27512484,4.19971157 Z"></path>
                    </g>
                </g>
            </g>
        </g>
    </g>
</svg>