<?xml version="1.0" encoding="UTF-8"?>
<svg width="16px" height="16px" viewBox="0 0 16 16" version="1.1" xmlns="http://www.w3.org/2000/svg" xmlns:xlink="http://www.w3.org/1999/xlink">
    <!-- Generator: Sketch 57.1 (83088) - https://sketch.com -->
    <title>atom/icon/interactive/dashboard/coin</title>
    <desc>Created with Sketch.</desc>
    <g id="Desktop" stroke="none" stroke-width="1" fill="none" fill-rule="evenodd">
        <g id="2.1.1.2-D-CP---10-Bonus" transform="translate(-185.000000, -380.000000)">
            <g id="bonus" transform="translate(185.000000, 380.000000)">
                <g id="atom/icon/interactive/dashboard/coin">
                    <g>
                        <circle id="Oval" stroke="currentColor" cx="8" cy="8" r="7.5"></circle>
                        <path d="M10.475,9.54 C10.475,10.44 9.905,11.37 8.355,11.48 L8.355,12.38 L7.745,12.38 L7.745,11.49 C6.725,11.43 5.955,11.01 5.455,10.44 L5.955,9.81 C6.345,10.25 6.955,10.66 7.745,10.74 L7.745,8.31 C6.725,8.04 5.665,7.69 5.665,6.46 C5.665,5.42 6.545,4.69 7.745,4.61 L7.745,3.7 L8.355,3.7 L8.355,4.63 C9.185,4.7 9.845,5.03 10.325,5.54 L9.825,6.15 C9.435,5.71 8.915,5.47 8.355,5.39 L8.355,7.56 C9.385,7.85 10.475,8.23 10.475,9.54 Z M6.525,6.41 C6.525,6.98 7.075,7.21 7.745,7.4 L7.745,5.36 C7.025,5.4 6.525,5.82 6.525,6.41 Z M8.355,10.73 C9.315,10.65 9.625,10.07 9.625,9.61 C9.625,8.93 9.045,8.68 8.355,8.47 L8.355,10.73 Z" id="$" fill="#14232E" fill-rule="nonzero"></path>
                    </g>
                </g>
            </g>
        </g>
    </g>
</svg>