<?xml version="1.0" standalone="no"?>
<!DOCTYPE svg PUBLIC "-//W3C//DTD SVG 1.1//EN"
  "http://www.w3.org/Graphics/SVG/1.1/DTD/svg11.dtd">
<svg version="1.1" xmlns="http://www.w3.org/2000/svg" xmlns:xlink="http://www.w3.org/1999/xlink" width="1792" height="1063" viewBox="-992 -32 1792 1063" id="ccdiagram"><filter id="grayscale"><feColorMatrix type="matrix" values="0.3333 0.3333 0.3333 0 0 0.3333 0.3333 0.3333 0 0 0.3333 0.3333 0.3333 0 0 0 0 0 1 0"></feColorMatrix></filter><defs><style type="text/css">@import url('https://fonts.googleapis.com/css?family=Open+Sans:400,700|Inconsolata:400');</style></defs><g><g style="pointer-events: none;"><g><pattern id="gridPatternMinor" x="0" y="37" width="128" height="74" patternUnits="userSpaceOnUse"><path d="M 0 0 L 128 74" stroke="#eee" stroke-width="1"></path><path d="M 128 0 L 0 74" stroke="#eee" stroke-width="1"></path></pattern><polygon points="0 0, 768 444, -192 999, -960 555" fill="url(#gridPatternMinor)"></polygon></g><polygon points="-960 555, -960 565, -192 1009, -192 999" stroke-linejoin="round" stroke="#54626f" stroke-width="1" fill="#f9f9f9"></polygon><polygon points="-192 1009, 768 454, 768 444, -192 999" stroke-linejoin="round" stroke="#54626f" stroke-width="1" fill="#e2e2e2"></polygon></g><g pointer-events="auto"><g opacity="1"><g id="a865ff53-878a-4787-aaa1-fabd62108b4d"><svg x="80" y="472" overflow="visible"><g fill="#009688"><polygon points="0 0, 144 83, -176 268, -320 185" stroke="#009688" stroke-width="40"></polygon></g></svg></g></g></g><g style="pointer-events: none;"><g><pattern id="gridPatternMajor" x="0" y="37" width="128" height="74" patternUnits="userSpaceOnUse"><path d="M 64 0 L 128 37 64 74 0 37 z" stroke="#54626f" stroke-width="1" fill="none"></path></pattern><polygon points="0 0, 768 444, -192 999, -960 555" fill="url(#gridPatternMajor)"></polygon></g></g><g pointer-events="auto"></g><g></g><g pointer-events="auto"></g><g></g><g pointer-events="auto"><g opacity="1"><g id="007a6267-c543-499e-8473-7a500ff0ce69"><svg x="-16" y="490" overflow="visible"><polygon points="0 0, 192 111, 128 148, -64 37" fill="#f5b720"></polygon><polygon points="0 0, 192 111, 128 148, -64 37" fill="none" stroke-width="20" stroke="#f5b720" opacity="1"></polygon><g cursor="nwse-resize"><polygon points="0 0, -19 -11, 13 -30, -83 -11, -115 44, -83 26, -64 37" fill="#f5b720"></polygon><polygon points="192 111, 211 122, 243 104, 211 159, 115 178, 147 159, 128 148" fill="#f5b720"></polygon></g></svg></g></g><g opacity="1"><g id="63f7abbb-667c-4711-82e3-7d7a58e1a3f1"><svg x="-144" y="564" overflow="visible"><polygon points="0 0, 192 111, 128 148, -64 37" fill="#f5b720"></polygon><polygon points="0 0, 192 111, 128 148, -64 37" fill="none" stroke-width="20" stroke="#f5b720" opacity="1"></polygon><g cursor="nwse-resize"><polygon points="0 0, -19 -11, 13 -30, -83 -11, -115 44, -83 26, -64 37" fill="#f5b720"></polygon><polygon points="192 111, 211 122, 243 104, 211 159, 115 178, 147 159, 128 148" fill="#f5b720"></polygon></g></svg></g></g></g><g pointer-events="none"></g><g pointer-events="auto"><g><g cursor="cell"><line x1="224" y1="278" x2="-330" y2="381" stroke="red" stroke-width="8" opacity="0"></line><line x1="224" y1="278" x2="-330" y2="381" stroke="#000000" stroke-width="2" stroke-linecap="round"></line><polygon points="-343 383, -316 385, -326 380, -323 373, -343 383" stroke-linejoin="round" fill="#000000" stroke="#000000" stroke-width="1"></polygon></g></g><g><g cursor="cell"><line x1="305" y1="416" x2="228" y2="285" stroke="red" stroke-width="8" opacity="0"></line><line x1="305" y1="416" x2="228" y2="285" stroke="#000000" stroke-width="2" stroke-linecap="round"></line><polygon points="224 278, 221 293, 230 287, 243 289, 224 278" stroke-linejoin="round" fill="#000000" stroke="#000000" stroke-width="1"></polygon></g></g><g><g cursor="cell"><line x1="-529" y1="491" x2="-566" y2="512" stroke="red" stroke-width="8" opacity="0"></line><line x1="-529" y1="491" x2="-566" y2="512" stroke="#000000" stroke-width="2" stroke-linecap="round"></line><polygon points="-576 518, -550 513, -564 511, -567 503, -576 518" stroke-linejoin="round" fill="#000000" stroke="#000000" stroke-width="1"></polygon></g></g><g><g cursor="cell"><line x1="-64" y1="241" x2="211" y2="276" stroke="red" stroke-width="8" opacity="0"></line><line x1="-64" y1="241" x2="211" y2="276" stroke="#000000" stroke-width="2" stroke-linecap="round"></line><polygon points="224 278, 202 268, 207 275, 197 281, 224 278" stroke-linejoin="round" fill="#000000" stroke="#000000" stroke-width="1"></polygon></g></g><g><g cursor="cell"><line x1="-672" y1="574" x2="-738" y2="612" stroke="red" stroke-width="8" opacity="0"></line><line x1="-672" y1="574" x2="-738" y2="612" stroke="#000000" stroke-width="2" stroke-linecap="round"></line><polygon points="-748 617, -722 612, -735 610, -738 602, -748 617" stroke-linejoin="round" fill="#000000" stroke="#000000" stroke-width="1"></polygon></g></g><g><g cursor="cell"><line x1="-464" y1="453" x2="-415" y2="425" stroke="red" stroke-width="8" opacity="0"></line><line x1="-464" y1="453" x2="-415" y2="425" stroke="#000000" stroke-width="2" stroke-linecap="round"></line><polygon points="-405 419, -431 425, -418 426, -414 434, -405 419" stroke-linejoin="round" fill="#000000" stroke="#000000" stroke-width="1"></polygon></g></g><g><g cursor="cell"><line x1="-576" y1="518" x2="-539" y2="497" stroke="red" stroke-width="8" opacity="0"></line><line x1="-576" y1="518" x2="-539" y2="497" stroke="#000000" stroke-width="2" stroke-linecap="round"></line><polygon points="-529 491, -555 496, -542 498, -539 506, -529 491" stroke-linejoin="round" fill="#000000" stroke="#000000" stroke-width="1"></polygon></g></g><g><g cursor="cell"><line x1="-343" y1="383" x2="-266" y2="339" stroke="red" stroke-width="8" opacity="0"></line><line x1="-343" y1="383" x2="-266" y2="339" stroke="#000000" stroke-width="2" stroke-linecap="round"></line><polygon points="-256 333, -282 338, -268 340, -265 348, -256 333" stroke-linejoin="round" fill="#000000" stroke="#000000" stroke-width="1"></polygon></g></g><g><g cursor="cell"><line x1="-405" y1="419" x2="-454" y2="448" stroke="red" stroke-width="8" opacity="0"></line><line x1="-405" y1="419" x2="-454" y2="448" stroke="#000000" stroke-width="2" stroke-linecap="round"></line><polygon points="-464 453, -438 448, -452 446, -455 438, -464 453" stroke-linejoin="round" fill="#000000" stroke="#000000" stroke-width="1"></polygon></g></g><g><g cursor="cell"><line x1="-192" y1="333" x2="195" y2="414" stroke="red" stroke-width="8" opacity="0"></line><line x1="-192" y1="333" x2="195" y2="414" stroke="#000000" stroke-width="2" stroke-linecap="round"></line><polygon points="208 416, 189 405, 191 413, 181 418, 208 416" stroke-linejoin="round" fill="#000000" stroke="#000000" stroke-width="1"></polygon></g></g><g><g cursor="cell"><line x1="-748" y1="617" x2="-682" y2="579" stroke="red" stroke-width="8" opacity="0"></line><line x1="-748" y1="617" x2="-682" y2="579" stroke="#000000" stroke-width="2" stroke-linecap="round"></line><polygon points="-672 574, -698 579, -684 581, -681 588, -672 574" stroke-linejoin="round" fill="#000000" stroke="#000000" stroke-width="1"></polygon></g></g><g><g cursor="cell"><line x1="224" y1="463" x2="-38" y2="614" stroke="red" stroke-width="8" opacity="0"></line><line x1="224" y1="463" x2="-38" y2="614" stroke="#000000" stroke-width="2" stroke-linecap="round"></line><polygon points="-48 620, -22 614, -36 613, -39 605, -48 620" stroke-linejoin="round" fill="#000000" stroke="#000000" stroke-width="1"></polygon></g></g><g><g cursor="cell"><line x1="-176" y1="287" x2="-121" y2="270" stroke="red" stroke-width="8" opacity="0"></line><line x1="-176" y1="287" x2="-121" y2="270" stroke="#000000" stroke-width="2" stroke-linecap="round"></line><polygon points="-109 266, -136 267, -124 271, -125 279, -109 266" stroke-linejoin="round" fill="#000000" stroke="#000000" stroke-width="1"></polygon></g></g></g><g pointer-events="auto"><g opacity="1"><g id="5e06001d-5244-413e-aea8-488526ea6668" transform="translate(0 0)"><svg x="208" y="173" height="113.438" width="96" viewBox="0 0 25.4 30.014"><g transform="translate(412.599 -86.957)"><g fill-rule="evenodd"><path d="M-412.333 102.348v4.786l8.29 4.785h8.289l8.29-4.785v-4.786l-8.29-4.786h-8.29z" fill="#3c3c3c"></path><path d="M-395.754 111.92l8.29-4.786v4.785l-8.29 4.786z" fill="#090909"></path><path d="M-404.044 111.92h8.29v4.785h-8.29z" fill="#232323"></path><path d="M-412.333 107.134v4.785l8.29 4.786v-4.786z" fill="#232323"></path><path d="M-412.333 107.134l8.29 4.785h8.289l8.29-4.785M-404.044 111.92v4.785M-395.754 111.92v4.785" fill="none" stroke="#a2a2a2" stroke-width=".26588"></path><path d="M-412.333 102.348v9.571l8.29 4.786h8.289l8.29-4.786v-9.571l-8.29-4.786h-8.29z" fill="none" stroke="#000000" stroke-width=".53176"></path></g><path d="M-412.333 97.178v4.786l8.29 4.786h8.289l8.29-4.786v-4.786l-8.29-4.786h-8.29z" fill="#3c3c3c" fill-rule="evenodd" stroke-width=".332"></path><path d="M-395.754 106.75l8.29-4.786v4.786l-8.29 4.786z" fill="#090909" fill-rule="evenodd" stroke-width=".332"></path><path d="M-404.044 106.75h8.29v4.786h-8.29z" fill="#232323" fill-rule="evenodd" stroke-width=".332"></path><path d="M-412.333 101.964v4.786l8.29 4.786v-4.786z" fill="#232323" fill-rule="evenodd" stroke-width=".332"></path><path d="M-412.333 101.964l8.29 4.786h8.289l8.29-4.786M-404.044 106.75v4.786M-395.754 106.75v4.786" fill="none" fill-rule="evenodd" stroke="#a2a2a2" stroke-width=".266"></path><path d="M-412.333 97.178v9.572l8.29 4.786h8.289l8.29-4.786v-9.572l-8.29-4.786h-8.29z" fill="none" fill-rule="evenodd" stroke="#000000" stroke-width=".532"></path><path d="M-412.333 92.01v4.785l8.29 4.786h8.289l8.29-4.786v-4.786l-8.29-4.786h-8.29z" fill="#3c3c3c" fill-rule="evenodd" stroke-width=".332"></path><path d="M-395.754 101.58l8.29-4.785v4.786l-8.29 4.786z" fill="#090909" fill-rule="evenodd" stroke-width=".332"></path><path d="M-404.044 101.58h8.29v4.787h-8.29z" fill="#232323" fill-rule="evenodd" stroke-width=".332"></path><path d="M-412.333 96.795v4.786l8.29 4.786v-4.786z" fill="#232323" fill-rule="evenodd" stroke-width=".332"></path><path d="M-412.333 96.795l8.29 4.786h8.289l8.29-4.786M-404.044 101.58v4.787M-395.754 101.58v4.787" fill="none" fill-rule="evenodd" stroke="#a2a2a2" stroke-width=".266"></path><path d="M-412.333 92.01v9.57l8.29 4.787h8.289l8.29-4.786v-9.572l-8.29-4.786h-8.29z" fill="none" fill-rule="evenodd" stroke="#000000" stroke-width=".532"></path><circle cx="-136.478" cy="325.284" fill="#f4b934" r="5.801" stroke-width=".286" transform="scale(1.22475 .7071) rotate(45)"></circle><g style="line-height: 0%;"><path d="M-399.242 93.57l.48-.601q.222-.275.177-.448-.04-.17-.467-.416l-.507-.293 1.065-.614.937.541q.825.476.92.934.1.46-.417 1.114l-3.452 4.39-1.622-.937 1.654-2.121-3.729.923-1.622-.936z" fill="#ffffff" font-family="Droid Serif" font-size="9.971" stroke-width=".266" style="line-height: 1.25;"></path></g></g></svg></g></g><g opacity="1"><g id="04d2789f-d5e4-4a75-9bea-ece8cdeb1bdb" transform="translate(0 0)"><svg x="208" y="379" height="94" width="97" fill-rule="evenodd"><path d="M0 18.6v18.6l32.333 18.6h32.334L97 37.2V18.6L64.667 0H32.333L0 18.6z" fill="#ececed"></path><path d="M64.667 55.8L97 37.2v37.2L64.667 93V55.8z" fill="#b8b8bb"></path><path d="M32.333 55.8h32.334V93H32.333V55.8zM0 37.2v37.2L32.333 93V55.8L0 37.2z" fill="#d2d2d4"></path><g fill="none" stroke="#83838a" stroke-width="1.04"><path d="M.955 37.877L32.333 55.8h32.334l31.378-17.923M32.333 55.8v36.211M64.667 55.8v36.574"></path></g><path d="M97 18.6v55.8L64.667 93H32.333L0 74.4V18.6L32.333 0h32.334L97 18.6zM32.865 1.989L1.989 19.751v53.498l30.876 17.762h31.27l30.876-17.762V19.751L64.135 1.989h-31.27z" fill="#000000"></path><path d="M69.912 15.583c11.818 6.798 11.818 17.836 0 24.635-11.817 6.798-31.007 6.798-42.824 0-11.818-6.799-11.818-17.837 0-24.635 11.817-6.799 31.007-6.799 42.824 0z" fill="#4286c5"></path><path d="M49.584 14.774c1.824 1.049 1.824 2.753 0 3.802-1.824 1.05-4.786 1.05-6.61 0-1.824-1.049-1.824-2.753 0-3.802 1.824-1.05 4.786-1.05 6.61 0zM60.451 21.025c1.825 1.049 1.825 2.753 0 3.803-1.824 1.049-4.786 1.049-6.61 0-1.824-1.05-1.824-2.754 0-3.803s4.786-1.049 6.61 0zM71.319 27.276c1.824 1.05 1.824 2.754 0 3.803-1.825 1.049-4.787 1.049-6.611 0-1.824-1.049-1.824-2.753 0-3.803 1.824-1.049 4.786-1.049 6.611 0zM38.497 33.654c1.824 1.05 1.824 2.754 0 3.803-1.825 1.05-4.787 1.05-6.611 0-1.824-1.049-1.824-2.753 0-3.803 1.824-1.049 4.786-1.049 6.611 0z" fill="#ffffff"></path><path d="M47.458 15.878c.453.26.393.717-.133 1.02-.526.303-1.32.337-1.773.076-.452-.26-.392-.717.133-1.019.526-.303 1.321-.337 1.773-.077z" fill="#ffffff"></path><path d="M48.111 15.621c1.012.582 1.012 1.526 0 2.108-1.011.582-2.653.582-3.664 0-1.012-.582-1.012-1.526 0-2.108 1.011-.582 2.653-.582 3.664 0zM58.978 21.872c1.012.582 1.012 1.527 0 2.108-1.011.582-2.653.582-3.664 0-1.012-.581-1.012-1.526 0-2.108 1.011-.581 2.653-.581 3.664 0zM69.846 28.124c1.011.581 1.011 1.526 0 2.108-1.012.582-2.654.582-3.665 0-1.011-.582-1.011-1.527 0-2.108 1.011-.582 2.653-.582 3.665 0z" fill="#4286c5"></path><path d="M37.024 34.502c1.011.582 1.011 1.526 0 2.108-1.012.582-2.654.582-3.665 0-1.011-.582-1.011-1.526 0-2.108 1.011-.582 2.653-.582 3.665 0z" fill="#ffffff"></path><g fill="#ffffff"><path d="M52.301 25.172L37.719 33.56l.482.834 14.584-8.388-.484-.834z"></path><path d="M46.993 26.089l6.654-1.146-4.324 5.168c.189-1.691-.757-3.313-2.33-4.022z" stroke="#ffffff" stroke-width=".36"></path></g><g fill="#ffffff"><path d="M43.488 19.937l-6.057 13.797.886.387 6.056-13.798-.885-.386z"></path><path d="M39.76 23.812l4.676-4.854-.405 6.716c-.855-1.474-2.582-2.221-4.271-1.862z" stroke="#ffffff" stroke-width=".36"></path></g><g fill="#ffffff"><path d="M61.953 30.061l-23.985 3.483.14.955 23.985-3.486-.14-.952z"></path><path d="M56.68 28.957l6.608 1.387-5.936 3.209c.804-1.503.526-3.358-.672-4.596h0z" stroke="#ffffff" stroke-width=".36"></path></g><path d="M37.96 33.977l13.12-7.547M37.873 33.927l5.792-13.134M38.037 34.022l22.478-3.281" fill="#ffffff" stroke="#ffffff" stroke-width="1.93"></path></svg></g></g><g opacity="1"><g id="d0fc789f-0a8f-471f-94d6-506d64fd4902" transform="translate(0 0)"><svg x="-147" y="157" height="115.695" width="100.625" viewBox="0 0 26.624 30.611"><g fill-rule="evenodd"><path d="M13.312.306v15l12.99-7.5z" fill="#4286c5" stroke-width=".265"></path><path d="M.322 7.806l12.99 7.5v-15z" fill="#26527b" stroke-width=".265"></path><path d="M13.312.306v15" fill="none" stroke="#b7d1e9" stroke-width=".265"></path><path d="M13.312 15.306l12.99-7.5-6.495 18.75-6.495 3.75z" fill="#26527b" stroke-width=".265"></path><path d="M.322 7.806l12.99 7.5v15l-6.495-3.75z" fill="#326ca2" stroke-width=".265"></path><path d="M.322 7.806l12.99 7.5 12.99-7.5-12.99 7.5v15" fill="none" stroke="#deeaf5" stroke-width=".265"></path><path d="M13.312.306l-12.99 7.5 6.495 18.75 6.495 3.75 6.495-3.75 6.495-18.75z" fill="none" stroke="#000000" stroke-width=".529"></path></g></svg></g></g><g opacity="1"><g id="2ae3b542-399d-45a2-9940-1470ed5b218f" transform="translate(0 0)"><svg x="-272" y="229" height="113.438" width="96" viewBox="0 0 25.4 30.014"><g transform="translate(412.599 -86.957)"><g fill-rule="evenodd"><path d="M-412.333 102.348v4.786l8.29 4.785h8.289l8.29-4.785v-4.786l-8.29-4.786h-8.29z" fill="#3c3c3c"></path><path d="M-395.754 111.92l8.29-4.786v4.785l-8.29 4.786z" fill="#090909"></path><path d="M-404.044 111.92h8.29v4.785h-8.29z" fill="#232323"></path><path d="M-412.333 107.134v4.785l8.29 4.786v-4.786z" fill="#232323"></path><path d="M-412.333 107.134l8.29 4.785h8.289l8.29-4.785M-404.044 111.92v4.785M-395.754 111.92v4.785" fill="none" stroke="#a2a2a2" stroke-width=".26588"></path><path d="M-412.333 102.348v9.571l8.29 4.786h8.289l8.29-4.786v-9.571l-8.29-4.786h-8.29z" fill="none" stroke="#000000" stroke-width=".53176"></path></g><path d="M-412.333 97.178v4.786l8.29 4.786h8.289l8.29-4.786v-4.786l-8.29-4.786h-8.29z" fill="#3c3c3c" fill-rule="evenodd" stroke-width=".332"></path><path d="M-395.754 106.75l8.29-4.786v4.786l-8.29 4.786z" fill="#090909" fill-rule="evenodd" stroke-width=".332"></path><path d="M-404.044 106.75h8.29v4.786h-8.29z" fill="#232323" fill-rule="evenodd" stroke-width=".332"></path><path d="M-412.333 101.964v4.786l8.29 4.786v-4.786z" fill="#232323" fill-rule="evenodd" stroke-width=".332"></path><path d="M-412.333 101.964l8.29 4.786h8.289l8.29-4.786M-404.044 106.75v4.786M-395.754 106.75v4.786" fill="none" fill-rule="evenodd" stroke="#a2a2a2" stroke-width=".266"></path><path d="M-412.333 97.178v9.572l8.29 4.786h8.289l8.29-4.786v-9.572l-8.29-4.786h-8.29z" fill="none" fill-rule="evenodd" stroke="#000000" stroke-width=".532"></path><path d="M-412.333 92.01v4.785l8.29 4.786h8.289l8.29-4.786v-4.786l-8.29-4.786h-8.29z" fill="#3c3c3c" fill-rule="evenodd" stroke-width=".332"></path><path d="M-395.754 101.58l8.29-4.785v4.786l-8.29 4.786z" fill="#090909" fill-rule="evenodd" stroke-width=".332"></path><path d="M-404.044 101.58h8.29v4.787h-8.29z" fill="#232323" fill-rule="evenodd" stroke-width=".332"></path><path d="M-412.333 96.795v4.786l8.29 4.786v-4.786z" fill="#232323" fill-rule="evenodd" stroke-width=".332"></path><path d="M-412.333 96.795l8.29 4.786h8.289l8.29-4.786M-404.044 101.58v4.787M-395.754 101.58v4.787" fill="none" fill-rule="evenodd" stroke="#a2a2a2" stroke-width=".266"></path><path d="M-412.333 92.01v9.57l8.29 4.787h8.289l8.29-4.786v-9.572l-8.29-4.786h-8.29z" fill="none" fill-rule="evenodd" stroke="#000000" stroke-width=".532"></path><circle cx="-136.478" cy="325.284" fill="#f4b934" r="5.801" stroke-width=".286" transform="scale(1.22475 .7071) rotate(45)"></circle><g style="line-height: 0%;"><path d="M-399.242 93.57l.48-.601q.222-.275.177-.448-.04-.17-.467-.416l-.507-.293 1.065-.614.937.541q.825.476.92.934.1.46-.417 1.114l-3.452 4.39-1.622-.937 1.654-2.121-3.729.923-1.622-.936z" fill="#ffffff" font-family="Droid Serif" font-size="9.971" stroke-width=".266" style="line-height: 1.25;"></path></g></g></svg></g></g><g opacity="1"><g id="13e48f45-33d7-4be8-89c4-dd06cb4301e3" transform="translate(0 0)"><svg x="-16" y="490" height="111" width="128" fill-rule="evenodd"><path d="M64 74v37l64-37V37L64 74z" fill="#b8b8bb"></path><path d="M0 37v37l64 37V74L0 37z" fill="#d2d2d4"></path><path d="M0 37L64 0l64 37-64 37L0 37z" fill="#ececed"></path><path d="M64 73.407l62.111-35.86.514.889-62.487 36.078h-.276L.743 38.072l.514-.89L64 73.407z" fill="#83838a"></path><path d="M63.486 74h1.027v36h-1.027z" fill="#83838a"></path><path d="M128 37v37l-64 37L0 74V37L64 0l64 37zM2.054 38.185v34.63L64 108.627l61.946-35.812v-34.63L64 2.373 2.054 38.185z" fill="#000000"></path></svg><svg x="35" y="505" width="72" height="36" style="overflow: visible; cursor: default;"><rect transform="matrix(0.707 0.409 -0.707 0.409 0 0)" width="72" height="36" rx="5" ry="5" fill="#4286c5"></rect><text transform="matrix(0.707 0.409 -0.707 0.409 0 0)" font-family="Open Sans" text-anchor="middle" x="50%" font-weight="normal" font-size="20pt" y="80%" fill="#ffffff"><tspan>T3a</tspan></text></svg></g></g><g opacity="1"><g id="33b7d21b-b80e-40b2-aedd-8e016d21e8f6" transform="translate(0 0)"><svg x="-432" y="287" height="148.142" width="93" viewBox="0 0 24.606 39.196"><g transform="translate(-90.671 -137.288)"><path d="M91.985 141.821l14.632 8.448 7.316-4.224-14.632-8.447z" fill="#ececed" fill-rule="evenodd" stroke-width=".268"></path><path d="M91.985 165.958l-1.045 1.81v-1.207z" fill="#d2d2d4" fill-rule="evenodd" stroke-width=".268"></path><path d="M91.985 165.958l14.632 8.447-1.046 1.81-14.566-8.56zM106.617 174.405l-1.046 1.81h2.09z" fill="#d2d2d4" fill-rule="evenodd" stroke-width=".268"></path><path d="M91.985 141.821v24.137l14.632 8.447V150.27z" fill="#d2d2d4" fill-rule="evenodd" stroke-width=".268"></path><path d="M106.617 174.405l1.045 1.81 7.316-4.223v-1.207l-1.045-.603z" fill="#b8b8bb" fill-rule="evenodd" stroke-width=".268"></path><path d="M106.617 150.27l7.316-4.225v24.137l-7.316 4.223z" fill="#b8b8bb" fill-rule="evenodd" stroke-width=".268"></path><g fill="none" fill-rule="evenodd" stroke="#83838a"><path d="M113.933 170.182l-7.316 4.223-14.632-8.447-1.045 1.81M91.985 141.821l14.632 8.448 7.316-4.224M106.617 150.27v24.135M105.571 176.216l1.046-1.81 1.045 1.81M113.933 170.182l1.045 1.81" stroke-width=".26818"></path></g><path d="M90.94 167.768v-1.207l1.045-.603V141.82l7.316-4.223 14.632 8.447v24.137l1.045.603v1.207l-7.316 4.224h-2.09z" fill="none" fill-rule="evenodd" stroke="#000000" stroke-width=".529"></path><ellipse cx="141.009" cy="74.394" fill="#4286c5" rx="6.047" ry="4.714" stroke-width=".278" transform="matrix(.19572 .98066 .96381 .26658 0 0)"></ellipse><ellipse cx="141.009" cy="74.394" fill="#ffffff" rx="5.037" ry="3.927" stroke-width=".278" transform="matrix(.19572 .98066 .96381 .26658 0 0)"></ellipse><path d="M99.03 153.239c-3.067 2.89-1.034 7.41.27 9.702" fill="none" fill-rule="evenodd" stroke="#4286c5" stroke-width=".51973284"></path><g transform="translate(374.17 163.896) scale(.26818)"><ellipse cx="272.14" cy="-1124.64" fill="#4286c5" rx="3.335" ry="2.648" transform="matrix(.19572 .98066 .96381 .26658 0 0)"></ellipse><ellipse cx="290.38" cy="-1128.297" fill="#4286c5" rx="3.687" ry="2.835" transform="matrix(.19572 .98066 .96381 .26658 0 0)"></ellipse><ellipse cx="290.282" cy="-1113.221" fill="#4286c5" rx="3.51" ry="2.717" transform="matrix(.19572 .98066 .96381 .26658 0 0)"></ellipse><path d="M-1033.087-41.48c4.26 21.344 17.38 30.943 23.61 33.65M-1039.896-25.075c12.675 15.122 22.864 16.4 30.106 8.948" fill="none" fill-rule="evenodd" stroke="#4286c5" stroke-width="1.938"></path></g></g></svg></g></g><g opacity="1"><g id="9245702e-0dd1-44a0-a02a-669ffc125453" transform="translate(0 0)"><svg x="-144" y="564" height="111" width="128" fill-rule="evenodd"><path d="M64 74v37l64-37V37L64 74z" fill="#b8b8bb"></path><path d="M0 37v37l64 37V74L0 37z" fill="#d2d2d4"></path><path d="M0 37L64 0l64 37-64 37L0 37z" fill="#ececed"></path><path d="M64 73.407l62.111-35.86.514.889-62.487 36.078h-.276L.743 38.072l.514-.89L64 73.407z" fill="#83838a"></path><path d="M63.486 74h1.027v36h-1.027z" fill="#83838a"></path><path d="M128 37v37l-64 37L0 74V37L64 0l64 37zM2.054 38.185v34.63L64 108.627l61.946-35.812v-34.63L64 2.373 2.054 38.185z" fill="#000000"></path></svg><svg x="-93" y="579" width="72" height="36" style="overflow: visible; cursor: default;"><rect transform="matrix(0.707 0.409 -0.707 0.409 0 0)" width="72" height="36" rx="5" ry="5" fill="#4286c5"></rect><text transform="matrix(0.707 0.409 -0.707 0.409 0 0)" font-family="Open Sans" text-anchor="middle" x="50%" font-weight="normal" font-size="20pt" y="80%" fill="#ffffff"><tspan>T3a</tspan></text></svg></g></g><g opacity="1"><g id="1e396298-4873-4df3-97f0-f06d0075398d" transform="translate(0 0)"><svg x="-574" y="409" height="108.05" width="123" viewBox="0 0 32.544 28.588"><path d="M10.115 6.02v14.218l7.873-4.318V1.474z" fill="#b8b8bb" fill-rule="evenodd" stroke="#83838a" stroke-width=".268"></path><path d="M.265 2.228l9.85 3.791v14.219l-9.85-8.531z" fill="#d2d2d4" fill-rule="evenodd" stroke="#83838a" stroke-width=".265"></path><path d="M10.115 6.02l7.873-4.546L3.548.332.265 2.228z" fill="#ececed" fill-rule="evenodd" stroke="#83838a" stroke-width=".265"></path><path d="M.265 11.707l9.85 8.53 7.873-4.317V1.474L3.392.271.265 2.076z" fill="none" fill-rule="evenodd" stroke="#000000" stroke-width=".529"></path><path d="M22.429 3.65L14.22 8.39l14.828 10.397 3.231-1.866z" fill="#ececed" fill-rule="evenodd" stroke="#83838a" stroke-width=".268"></path><path d="M14.22 8.39V22.61l14.777 5.687.051-9.509z" fill="#d2d2d4" fill-rule="evenodd" stroke="#83838a" stroke-width=".265"></path><path d="M29.048 18.787l3.231-1.866V26.4l-3.282 1.897z" fill="#b8b8bb" fill-rule="evenodd" stroke="#83838a" stroke-width=".265"></path><path d="M22.429 3.65L14.22 8.39V22.61l14.777 5.687 3.282-1.897v-9.478z" fill="none" fill-rule="evenodd" stroke="#000000" stroke-width=".529"></path><path d="M25.604 20.872c-.071-.975-.928-2.116-1.982-2.599a2.547 2.547 0 0 0-.398-.144c-.566-.91-1.446-1.74-2.441-2.195-1.501-.687-2.76-.293-3.057.872-1.062-.091-1.77.532-1.77 1.597 0 1.436 1.27 3.181 2.84 3.899l5.961 2.73c1.41.645 2.555.121 2.555-1.17 0-1.004-.695-2.2-1.708-2.99zm-.847 3.38l-5.962-2.73c-1.098-.502-1.987-1.723-1.987-2.729 0-.916.74-1.336 1.704-1.022v-.018c0-1.148 1.016-1.613 2.27-1.04.95.435 1.763 1.34 2.102 2.252.198-.065.456-.041.738.088.626.287 1.135.986 1.135 1.56a.657.657 0 0 1-.156.454c.052.019.105.042.156.065.94.43 1.704 1.479 1.704 2.34 0 .86-.763 1.21-1.704.78z" fill="#4286c5" stroke-width=".017"></path></svg></g></g><g opacity="1"><g id="e2b4abeb-870c-4efa-86f6-16674fb8e1c1" transform="translate(0 0)"><g><polygon points="-640 481, -576 518, -640 555, -704 518" fill="#ececed"></polygon><polygon points="-704 555, -640 592, -640 555, -704 518" fill="#d2d2d4" stroke="#83838a"></polygon><polygon points="-640 592, -576 555, -576 518, -640 555" fill="#b8b8bb" stroke="#83838a"></polygon><polygon points="-640 481, -704 518, -704 555, -640 592, -576 555, -576 518" fill="none" stroke="#000000" stroke-width="2"></polygon></g></g></g><g opacity="1"><g id="c2d6b8fc-306b-45a9-8c4d-b253984eb489" transform="translate(0 0)"><svg x="-808" y="552" height="95.068" width="63" viewBox="0 0 16.669 25.153"><path d="M16.668 22.903q0 1.64-.864 2.091-.865.451-2.297-.376L3.161 18.645q-1.433-.827-2.297-2.276Q.001 14.921 0 13.28q0-.723.042-1.39.042-.666.166-1.394.124-.727.313-1.302.19-.575.51-1.039.319-.464.733-.683.414-.22 1.012-.147.598.073 1.32.49.107.06.497.58.391.52.882 1.165.491.646 1.279 1.394.788.75 1.58 1.207.793.458 1.58.618.788.161 1.28.083.49-.079.881-.147.39-.069.497-.007.722.416 1.32 1.035.598.619 1.013 1.315.414.697.734 1.531t.509 1.627q.19.793.313 1.664.124.872.166 1.586.042.713.042 1.438zM12.88 8.51q0 2.173-1.332 2.942-1.332.769-3.214-.318-1.882-1.086-3.214-3.393Q3.79 5.434 3.79 3.26q0-2.173 1.331-2.942 1.332-.77 3.214.317t3.214 3.394q1.332 2.306 1.332 4.48z" fill="#000" stroke="#000000" stroke-width=".268"></path></svg></g></g></g><g pointer-events="auto"></g><g pointer-events="auto"></g><g pointer-events="auto"><g opacity="1"><g id="2b0f451a-39ca-40c4-a9ef-7c57a84c76cd"><svg x="-800" y="426" overflow="visible"><text stroke="#ffffff" stroke-width="4" font-family="Open Sans" y="36.5" font-size="25pt" fill="#f5b720" font-weight="bold" transform="matrix(0.707 0.409 -0.707 0.409 0 0)" xml:space="preserve"><tspan x="8" dy="0">Cloudflare</tspan></text><text font-family="Open Sans" y="36.5" font-size="25pt" fill="#f5b720" font-weight="bold" transform="matrix(0.707 0.409 -0.707 0.409 0 0)" xml:space="preserve"><tspan x="8" dy="0">Cloudflare</tspan></text></svg></g></g><g opacity="1"><g id="216e9867-2e75-4637-bc18-46ed0486b9ad"><svg x="304" y="453" overflow="visible"><text stroke="#ffffff" stroke-width="4" font-family="Open Sans" y="36.5" font-size="25pt" fill="#f5b720" font-weight="bold" transform="matrix(0.707 0.409 -0.707 0.409 0 0)" xml:space="preserve"><tspan x="8" dy="0">Elastic Load Balancer</tspan></text><text font-family="Open Sans" y="36.5" font-size="25pt" fill="#f5b720" font-weight="bold" transform="matrix(0.707 0.409 -0.707 0.409 0 0)" xml:space="preserve"><tspan x="8" dy="0">Elastic Load Balancer</tspan></text></svg></g></g><g opacity="1"><g id="4d7bf458-a934-4f4b-9c01-99e750b757d3"><svg x="-544" y="259" overflow="visible"><text stroke="#ffffff" stroke-width="4" font-family="Open Sans" y="36.5" font-size="25pt" fill="#f5b720" font-weight="bold" transform="matrix(0.707 0.409 -0.707 0.409 0 0)" xml:space="preserve"><tspan x="8" dy="0">CloudFront</tspan></text><text font-family="Open Sans" y="36.5" font-size="25pt" fill="#f5b720" font-weight="bold" transform="matrix(0.707 0.409 -0.707 0.409 0 0)" xml:space="preserve"><tspan x="8" dy="0">CloudFront</tspan></text></svg></g></g><g opacity="1"><g id="1d3be108-0296-49f6-860c-673f04d7fc4b"><svg x="-320" y="56" overflow="visible"><text stroke="#ffffff" stroke-width="4" font-family="Open Sans" y="36.5" font-size="25pt" fill="#f5b720" font-weight="bold" transform="matrix(0.707 0.409 -0.707 0.409 0 0)" xml:space="preserve"><tspan x="8" dy="0">S3 Cache Bucket</tspan></text><text font-family="Open Sans" y="36.5" font-size="25pt" fill="#f5b720" font-weight="bold" transform="matrix(0.707 0.409 -0.707 0.409 0 0)" xml:space="preserve"><tspan x="8" dy="0">S3 Cache Bucket</tspan></text></svg></g></g><g opacity="1"><g id="e917c7df-3fb1-490a-a93c-35dd092ca878"><svg x="-480" y="111" overflow="visible"><text stroke="#ffffff" stroke-width="4" font-family="Open Sans" y="36.5" font-size="25pt" fill="#f5b720" font-weight="bold" transform="matrix(0.707 0.409 -0.707 0.409 0 0)" xml:space="preserve"><tspan x="8" dy="0">Lambda for Origin</tspan></text><text font-family="Open Sans" y="36.5" font-size="25pt" fill="#f5b720" font-weight="bold" transform="matrix(0.707 0.409 -0.707 0.409 0 0)" xml:space="preserve"><tspan x="8" dy="0">Lambda for Origin</tspan></text></svg></g></g><g opacity="1"><g id="3f3abad2-4e22-4c92-b1f4-d1c47a829472"><svg x="304" y="287" overflow="visible"><text stroke="#ffffff" stroke-width="4" font-family="Open Sans" y="36.5" font-size="25pt" fill="#f5b720" font-weight="bold" transform="matrix(0.707 0.409 -0.707 0.409 0 0)" xml:space="preserve"><tspan x="8" dy="0">Lambda for Response</tspan></text><text font-family="Open Sans" y="36.5" font-size="25pt" fill="#f5b720" font-weight="bold" transform="matrix(0.707 0.409 -0.707 0.409 0 0)" xml:space="preserve"><tspan x="8" dy="0">Lambda for Response</tspan></text></svg></g></g><g opacity="1"><g id="f6270222-cd4b-490e-aa04-94b6d5634d95"><svg x="-816" y="250" overflow="visible"><text stroke="#ffffff" stroke-width="4" font-family="Open Sans" y="36.5" font-size="25pt" fill="#f5b720" font-weight="bold" transform="matrix(0.707 0.409 -0.707 0.409 0 0)" xml:space="preserve"><tspan x="8" dy="0">AWS Internet Gateway</tspan></text><text font-family="Open Sans" y="36.5" font-size="25pt" fill="#f5b720" font-weight="bold" transform="matrix(0.707 0.409 -0.707 0.409 0 0)" xml:space="preserve"><tspan x="8" dy="0">AWS Internet Gateway</tspan></text></svg></g></g><g opacity="1"><g id="1754bead-e504-4619-825a-6664a7b4b0f5"><svg x="224" y="629" overflow="visible"><text stroke="#ffffff" stroke-width="4" font-family="Open Sans" y="36.5" font-size="25pt" fill="#f5b720" font-weight="bold" transform="matrix(0.707 0.409 -0.707 0.409 0 0)" xml:space="preserve"><tspan x="8" dy="0">Auto Scaling in AZ 1</tspan></text><text font-family="Open Sans" y="36.5" font-size="25pt" fill="#f5b720" font-weight="bold" transform="matrix(0.707 0.409 -0.707 0.409 0 0)" xml:space="preserve"><tspan x="8" dy="0">Auto Scaling in AZ 1</tspan></text></svg></g></g><g opacity="1"><g id="1f09c904-c684-488f-aab6-3002f51b032a"><svg x="80" y="712" overflow="visible"><text stroke="#ffffff" stroke-width="4" font-family="Open Sans" y="36.5" font-size="25pt" fill="#f5b720" font-weight="bold" transform="matrix(0.707 0.409 -0.707 0.409 0 0)" xml:space="preserve"><tspan x="8" dy="0">Auto Scaling in AZ 2</tspan></text><text font-family="Open Sans" y="36.5" font-size="25pt" fill="#f5b720" font-weight="bold" transform="matrix(0.707 0.409 -0.707 0.409 0 0)" xml:space="preserve"><tspan x="8" dy="0">Auto Scaling in AZ 2</tspan></text></svg></g></g></g><g></g></g></svg>